<?xml version="1.0" encoding="UTF-8" standalone="no"?>
<svg
   xmlns:dc="http://purl.org/dc/elements/1.1/"
   xmlns:cc="http://creativecommons.org/ns#"
   xmlns:rdf="http://www.w3.org/1999/02/22-rdf-syntax-ns#"
   xmlns:svg="http://www.w3.org/2000/svg"
   xmlns="http://www.w3.org/2000/svg"
   xmlns:sodipodi="http://sodipodi.sourceforge.net/DTD/sodipodi-0.dtd"
   xmlns:inkscape="http://www.inkscape.org/namespaces/inkscape"
   version="1.1"
   id="svg2"
   xml:space="preserve"
   width="718"
   height="474"
   viewBox="0 0 718 474"
   sodipodi:docname="ADC_Basic_Struct.svg"
   inkscape:version="1.0.1 (3bc2e813f5, 2020-09-07)"><metadata
     id="metadata8"><rdf:RDF><cc:Work
         rdf:about=""><dc:format>image/svg+xml</dc:format><dc:type
           rdf:resource="http://purl.org/dc/dcmitype/StillImage" /><dc:title></dc:title></cc:Work></rdf:RDF></metadata><defs
     id="defs6" /><sodipodi:namedview
     pagecolor="#ffffff"
     bordercolor="#666666"
     borderopacity="1"
     objecttolerance="10"
     gridtolerance="10"
     guidetolerance="10"
     inkscape:pageopacity="0"
     inkscape:pageshadow="2"
     inkscape:window-width="1920"
     inkscape:window-height="1017"
     id="namedview4"
     showgrid="false"
     inkscape:zoom="1.5320334"
     inkscape:cx="359"
     inkscape:cy="237"
     inkscape:window-x="1912"
     inkscape:window-y="-8"
     inkscape:window-maximized="1"
     inkscape:current-layer="g10" /><g
     id="g10"
     inkscape:groupmode="layer"
     inkscape:label="ink_ext_XXXXXX"
     transform="matrix(1.3333333,0,0,-1.3333333,0,474)"><g
       id="g12"
       transform="scale(0.1)"><path
         d="m 3177.07,2385.65 v -886.74 h -636.85 l -212.29,443.37 212.29,443.37 h 636.85 v 0 z"
         style="fill:none;stroke:#0e0f0f;stroke-width:5;stroke-linecap:round;stroke-linejoin:round;stroke-miterlimit:10;stroke-dasharray:none;stroke-opacity:1"
         id="path14" /><path
         d="m 2507.42,2030.98 h 490.16 v -177.4 h -490.16 v 177.4 0"
         style="fill:#ffffff;fill-opacity:1;fill-rule:evenodd;stroke:none"
         id="path16" /><g
         id="g18"
         transform="scale(10)"><text
           transform="matrix(0.871065,0,0,-1,254.681,196.445)"
           style="font-variant:normal;font-weight:normal;font-size:7.2069px;font-family:Arial;-inkscape-font-specification:ArialMT;writing-mode:lr-tb;fill:#0e0f0f;fill-opacity:1;fill-rule:nonzero;stroke:none"
           id="text24"><tspan
             x="0 4.9871655 9.9743309 14.969102 19.956266 25.499935 31.043602 32.70734 36.584145 40.470383 43.236828"
             y="0"
             sodipodi:role="line"
             id="tspan20">SARADC core</tspan><tspan
             x="-4.5185299 -2.0606148 1.8256217 6.1661329 10.052369 11.71116 13.968189 16.022074 22.119146 26.552935 29.989815 34.096237 40.19376 45.737427 49.294041"
             y="8.8648396"
             sodipodi:role="line"
             id="tspan22">(12bit,max2MHz)</tspan></text></g><path
         d="m 1645.03,2385.65 v -886.74 l 539.14,443.37 -539.14,443.37 v 0 z"
         style="fill:none;stroke:#0e0f0f;stroke-width:5;stroke-linecap:round;stroke-linejoin:round;stroke-miterlimit:10;stroke-dasharray:none;stroke-opacity:1"
         id="path26" /><path
         d="m 1670.79,2030.98 h 257.64 v -177.4 h -257.64 v 177.4 0"
         style="fill:#ffffff;fill-opacity:1;fill-rule:evenodd;stroke:none"
         id="path28" /><g
         id="g30"
         transform="scale(10)"><text
           transform="matrix(0.871065,0,0,-1,168.86929,196.445)"
           style="font-variant:normal;font-weight:normal;font-size:7.2069px;font-family:Arial;-inkscape-font-specification:ArialMT;writing-mode:lr-tb;fill:#0e0f0f;fill-opacity:1;fill-rule:nonzero;stroke:none"
           id="text36"><tspan
             x="0 4.9867163 10.535331"
             y="0"
             sodipodi:role="line"
             id="tspan32">PGA</tspan><tspan
             x="-2.0529873 0.40494201 4.5185261 6.9773521 10.854157 12.517895 16.951668 20.837442 25.058653"
             y="8.8648396"
             sodipodi:role="line"
             id="tspan34">(2-stage)</tspan></text></g><path
         d="m 998.074,2385.65 v -886.74 h 287.536 v 886.74 H 998.074 v 0 z"
         style="fill:none;stroke:#0e0f0f;stroke-width:5;stroke-linecap:round;stroke-linejoin:round;stroke-miterlimit:10;stroke-dasharray:none;stroke-opacity:1"
         id="path38" /><path
         d="m 1055.99,1995.5 h 171.7 v -106.44 h -171.7 v 106.44 0"
         style="fill:#ffffff;fill-opacity:1;fill-rule:evenodd;stroke:none"
         id="path40" /><g
         id="g42"
         transform="scale(10)"><text
           transform="matrix(0.871066,0,0,-1,105.604,191.562)"
           style="font-variant:normal;font-weight:normal;font-size:8.87003px;font-family:Arial;-inkscape-font-specification:ArialMT;writing-mode:lr-tb;fill:#0e0f0f;fill-opacity:1;fill-rule:nonzero;stroke:none"
           id="text46"><tspan
             x="0 7.2109966 13.855609"
             y="0"
             sodipodi:role="line"
             id="tspan44">MUX</tspan></text></g><path
         d="m 1932.57,2158.51 h 432.01"
         style="fill:none;stroke:#0e0f0f;stroke-width:5;stroke-linecap:round;stroke-linejoin:round;stroke-miterlimit:10;stroke-dasharray:none;stroke-opacity:1"
         id="path48" /><path
         d="m 2358.11,2188.22 77.65,-29.71 -77.65,-29.72 z"
         style="fill:#0e0f0f;fill-opacity:1;fill-rule:evenodd;stroke:none"
         id="path50" /><path
         d="m 1938.59,1735.6 h 423.62"
         style="fill:none;stroke:#0e0f0f;stroke-width:5;stroke-linecap:round;stroke-linejoin:round;stroke-miterlimit:10;stroke-dasharray:none;stroke-opacity:1"
         id="path52" /><path
         d="m 2355.74,1765.32 77.65,-29.72 -77.65,-29.71 z"
         style="fill:#0e0f0f;fill-opacity:1;fill-rule:evenodd;stroke:none"
         id="path54" /><path
         d="m 1285.61,2153.74 h 288.24"
         style="fill:none;stroke:#0e0f0f;stroke-width:5;stroke-linecap:round;stroke-linejoin:round;stroke-miterlimit:10;stroke-dasharray:none;stroke-opacity:1"
         id="path56" /><path
         d="m 1567.38,2183.45 77.65,-29.71 -77.65,-29.72 z"
         style="fill:#0e0f0f;fill-opacity:1;fill-rule:evenodd;stroke:none"
         id="path58" /><path
         d="m 1289.91,1730.83 h 282.25"
         style="fill:none;stroke:#0e0f0f;stroke-width:5;stroke-linecap:round;stroke-linejoin:round;stroke-miterlimit:10;stroke-dasharray:none;stroke-opacity:1"
         id="path60" /><path
         d="m 1565.69,1760.54 77.65,-29.71 -77.65,-29.72 z"
         style="fill:#0e0f0f;fill-opacity:1;fill-rule:evenodd;stroke:none"
         id="path62" /><path
         d="M 998.074,1543.24 H 890.246"
         style="fill:none;stroke:#0e0f0f;stroke-width:5;stroke-linecap:round;stroke-linejoin:round;stroke-miterlimit:10;stroke-dasharray:none;stroke-opacity:1"
         id="path64" /><path
         d="M 998.074,1698.43 H 890.246"
         style="fill:none;stroke:#0e0f0f;stroke-width:5;stroke-linecap:round;stroke-linejoin:round;stroke-miterlimit:10;stroke-dasharray:none;stroke-opacity:1"
         id="path66" /><path
         d="M 998.074,1853.61 H 890.246"
         style="fill:none;stroke:#0e0f0f;stroke-width:5;stroke-linecap:round;stroke-linejoin:round;stroke-miterlimit:10;stroke-dasharray:none;stroke-opacity:1"
         id="path68" /><path
         d="m 3628.59,2385.65 v -886.74 h 386.38 v 886.74 h -386.38 v 0 z"
         style="fill:none;stroke:#0e0f0f;stroke-width:5;stroke-linecap:round;stroke-linejoin:round;stroke-miterlimit:10;stroke-dasharray:none;stroke-opacity:1"
         id="path70" /><path
         d="m 3686.51,2048.72 h 270.55 v -212.88 h -270.55 v 212.88 0"
         style="fill:#ffffff;fill-opacity:1;fill-rule:evenodd;stroke:none"
         id="path72" /><g
         id="g74"
         transform="scale(10)"><text
           transform="matrix(0.871066,0,0,-1,374.017,196.886)"
           style="font-variant:normal;font-weight:normal;font-size:8.87003px;font-family:Arial;-inkscape-font-specification:ArialMT;writing-mode:lr-tb;fill:#0e0f0f;fill-opacity:1;fill-rule:nonzero;stroke:none"
           id="text80"><tspan
             x="0 6.6446123 11.080622 13.848433 18.832891"
             y="0"
             sodipodi:role="line"
             id="tspan76">Data </tspan><tspan
             x="-6.1602898 -1.1735908 1.602293 6.5880952 11.024119 16.009026 20.445049"
             y="10.6418"
             sodipodi:role="line"
             id="tspan78">process</tspan></text></g><path
         d="m 998.074,1299.39 v -221.68 h 287.536 v 221.68 H 998.074 v 0 z"
         style="fill:none;stroke:#0e0f0f;stroke-width:5;stroke-linecap:round;stroke-linejoin:round;stroke-miterlimit:10;stroke-dasharray:none;stroke-opacity:1"
         id="path82" /><path
         d="m 1045.2,1268.38 h 193.28 V 1108.72 H 1045.2 v 159.66 0"
         style="fill:#ffffff;fill-opacity:1;fill-rule:evenodd;stroke:none"
         id="path84" /><g
         id="g86"
         transform="scale(10)"><text
           transform="matrix(0.871065,0,0,-1,104.521,120.851)"
           style="font-variant:normal;font-weight:normal;font-size:6.65252px;font-family:Arial;-inkscape-font-specification:ArialMT;writing-mode:lr-tb;fill:#0e0f0f;fill-opacity:1;fill-rule:nonzero;stroke:none"
           id="text92"><tspan
             x="0 1.6691113 5.5481591 7.2163734 11.096767 13.311188 17.191582 20.518593"
             y="0"
             sodipodi:role="line"
             id="tspan88">Internal</tspan><tspan
             x="3.70102 7.5850005 10.912018 14.791065"
             y="7.9839802"
             sodipodi:role="line"
             id="tspan90">Tsen</tspan></text></g><path
         d="m 1357.49,1299.39 v -221.68 h 287.54 v 221.68 h -287.54 v 0 z"
         style="fill:none;stroke:#0e0f0f;stroke-width:5;stroke-linecap:round;stroke-linejoin:round;stroke-miterlimit:10;stroke-dasharray:none;stroke-opacity:1"
         id="path94" /><path
         d="m 1386.74,1259.51 h 229.05 v -141.92 h -229.05 v 141.92 0"
         style="fill:#ffffff;fill-opacity:1;fill-rule:evenodd;stroke:none"
         id="path96" /><g
         id="g98"
         transform="scale(10)"><text
           transform="matrix(0.871064,0,0,-1,138.669,120.633)"
           style="font-variant:normal;font-weight:normal;font-size:6.09815px;font-family:Arial;-inkscape-font-specification:ArialMT;writing-mode:lr-tb;fill:#0e0f0f;fill-opacity:1;fill-rule:nonzero;stroke:none"
           id="text104"><tspan
             x="0 3.8848784 8.3182087 13.143489 16.432838 19.762995 23.094498"
             y="0"
             sodipodi:role="line"
             id="tspan100">VCM_gen</tspan><tspan
             x="3.45752 5.1212602 8.4514179 10.116044 11.780681 16.774576 18.438316"
             y="7.1023402"
             sodipodi:role="line"
             id="tspan102">for MIC</tspan></text></g><path
         d="M 998.074,2163.96 H 890.246"
         style="fill:none;stroke:#0e0f0f;stroke-width:5;stroke-linecap:round;stroke-linejoin:round;stroke-miterlimit:10;stroke-dasharray:none;stroke-opacity:1"
         id="path106" /><g
         id="g108"
         transform="scale(10)"><text
           transform="matrix(0.871065,0,0,-1,76.8215,152.33)"
           style="font-variant:normal;font-weight:normal;font-size:6.65252px;font-family:Arial;-inkscape-font-specification:ArialMT;writing-mode:lr-tb;fill:#0e0f0f;fill-opacity:1;fill-rule:nonzero;stroke:none"
           id="text116"><tspan
             x="0 3.8839808"
             y="0"
             sodipodi:role="line"
             id="tspan110">Ts</tspan><tspan
             x="-3.14764 1.2895908 5.1686387 8.4960995"
             y="-15.5188"
             sodipodi:role="line"
             id="tspan112">Vbat</tspan><tspan
             x="-22.377439 -17.382656 -13.503609 -9.6236639 -6.2966518 -2.7768037 0.9179334 4.6265721 6.470129"
             y="-31.037901"
             sodipodi:role="line"
             id="tspan114">Gpdac_a/b</tspan></text></g><path
         d="M 998.074,1188.55 H 890.246 v 354.69"
         style="fill:none;stroke:#0e0f0f;stroke-width:5;stroke-linecap:round;stroke-linejoin:round;stroke-miterlimit:10;stroke-dasharray:none;stroke-opacity:1"
         id="path118" /><path
         d="m 1420.27,1665.18 v 35.22 c -15.05,0 -27.25,14 -27.25,31.28 0,17.28 12.2,31.28 27.25,31.28 v 35.22"
         style="fill:none;stroke:#0e0f0f;stroke-width:5;stroke-linecap:round;stroke-linejoin:round;stroke-miterlimit:10;stroke-dasharray:none;stroke-opacity:1"
         id="path120" /><path
         d="m 1420.27,1798.18 v 355.56"
         style="fill:none;stroke:#0e0f0f;stroke-width:5;stroke-linecap:round;stroke-linejoin:round;stroke-miterlimit:10;stroke-dasharray:none;stroke-opacity:1"
         id="path122" /><path
         d="m 3628.59,1942.28 -87.61,-58.67 v 29.33 h -363.91 v 58.68 h 363.91 v 29.33 l 87.61,-58.67 v 0 z"
         style="fill:none;stroke:#0e0f0f;stroke-width:5;stroke-linecap:round;stroke-linejoin:round;stroke-miterlimit:10;stroke-dasharray:none;stroke-opacity:1"
         id="path124" /><g
         id="g126"
         transform="scale(10)"><text
           transform="matrix(0.871065,0,0,-1,318.953,207.746)"
           style="font-variant:normal;font-weight:normal;font-size:6.65252px;font-family:Arial;-inkscape-font-specification:ArialMT;writing-mode:lr-tb;fill:#0e0f0f;fill-opacity:1;fill-rule:nonzero;stroke:none"
           id="text130"><tspan
             x="0 4.9835625 8.3105745 10.525009 14.047992 17.750353 19.965641 23.845587 28.469944 30.32069 34.199738 37.715996 39.566742 43.2691"
             y="0"
             sodipodi:role="line"
             id="tspan128">Data_raw[11:0]</tspan></text></g><path
         d="m 2112.28,2991.82 v -325.6 H 2593 v 325.6 h -480.72 v 0 z"
         style="fill:none;stroke:#0e0f0f;stroke-width:5;stroke-linecap:round;stroke-linejoin:round;stroke-miterlimit:10;stroke-dasharray:none;stroke-opacity:1"
         id="path132" /><path
         d="m 2243.84,2935.46 h 217.61 v -212.88 h -217.61 v 212.88 0"
         style="fill:#ffffff;fill-opacity:1;fill-rule:evenodd;stroke:none"
         id="path134" /><g
         id="g136"
         transform="scale(10)"><text
           transform="matrix(0.871064,0,0,-1,226.958,288.23)"
           style="font-variant:normal;font-weight:normal;font-size:6.09815px;font-family:Arial;-inkscape-font-specification:ArialMT;writing-mode:lr-tb;fill:#0e0f0f;fill-opacity:1;fill-rule:nonzero;stroke:none"
           id="text144"><tspan
             x="0 1.6637263 5.5486188 9.4321661 11.095892 14.980784"
             y="0"
             sodipodi:role="line"
             id="tspan138">IVBIAS</tspan><tspan
             x="3.4512401 6.7814112 11.216536"
             y="7.1015601"
             sodipodi:role="line"
             id="tspan140">LDO</tspan><tspan
             x="-2.95929 1.4753859 5.3593817 8.8689203 12.157835 15.488007 18.818626"
             y="14.19609"
             sodipodi:role="line"
             id="tspan142">REF_gen</tspan></text></g><path
         d="m 2593.01,2841.69 h 215.65 v -456.04"
         style="fill:none;stroke:#0e0f0f;stroke-width:5;stroke-linecap:round;stroke-linejoin:round;stroke-miterlimit:10;stroke-dasharray:none;stroke-opacity:1"
         id="path146" /><path
         d="M 2112.28,2823.59 H 1873.11 V 2208.3"
         style="fill:none;stroke:#0e0f0f;stroke-width:5;stroke-linecap:round;stroke-linejoin:round;stroke-miterlimit:10;stroke-dasharray:none;stroke-opacity:1"
         id="path148" /><path
         d="m 1141.84,2385.65 v 354.7 H 998.074"
         style="fill:none;stroke:#0e0f0f;stroke-width:5;stroke-linecap:round;stroke-linejoin:round;stroke-miterlimit:10;stroke-dasharray:none;stroke-opacity:1"
         id="path150" /><path
         d="M 1141.84,2607.34 H 998.074"
         style="fill:none;stroke:#0e0f0f;stroke-width:5;stroke-linecap:round;stroke-linejoin:round;stroke-miterlimit:10;stroke-dasharray:none;stroke-opacity:1"
         id="path152" /><g
         id="g154"
         transform="scale(10)"><text
           transform="matrix(0.871065,0,0,-1,64.5422,272.04)"
           style="font-variant:normal;font-weight:normal;font-size:6.65252px;font-family:Arial;-inkscape-font-specification:ArialMT;writing-mode:lr-tb;fill:#0e0f0f;fill-opacity:1;fill-rule:nonzero;stroke:none"
           id="text160"><tspan
             x="0 4.4372311 8.3162785 11.462572 13.313304 17.192801 20.519812 24.417246 28.111982 31.438244 35.317738"
             y="0"
             sodipodi:role="line"
             id="tspan156">Pos/neg_sel</tspan><tspan
             x="10.7326 15.169831 18.49609 22.375139"
             y="13.3012"
             sodipodi:role="line"
             id="tspan158">Scan</tspan></text></g><path
         d="m 1716.92,2338.6 v 484.99 h -143.77"
         style="fill:none;stroke:#0e0f0f;stroke-width:5;stroke-linecap:round;stroke-linejoin:round;stroke-miterlimit:10;stroke-dasharray:none;stroke-opacity:1"
         id="path162" /><g
         id="g164"
         transform="scale(10)"><text
           transform="matrix(0.871065,0,0,-1,128.449,280.905)"
           style="font-variant:normal;font-weight:normal;font-size:6.65252px;font-family:Arial;-inkscape-font-specification:ArialMT;writing-mode:lr-tb;fill:#0e0f0f;fill-opacity:1;fill-rule:nonzero;stroke:none"
           id="text168"><tspan
             x="0 4.4372311 8.3162785 11.840607 15.534896 19.415289 22.7423 24.400206"
             y="0"
             sodipodi:role="line"
             id="tspan166">Pga_gain</tspan></text></g><path
         d="M 1716.92,2651.68 H 1573.15"
         style="fill:none;stroke:#0e0f0f;stroke-width:5;stroke-linecap:round;stroke-linejoin:round;stroke-miterlimit:10;stroke-dasharray:none;stroke-opacity:1"
         id="path170" /><g
         id="g172"
         transform="scale(10)"><text
           transform="matrix(0.871065,0,0,-1,127.973,265.386)"
           style="font-variant:normal;font-weight:normal;font-size:6.65252px;font-family:Arial;-inkscape-font-specification:ArialMT;writing-mode:lr-tb;fill:#0e0f0f;fill-opacity:1;fill-rule:nonzero;stroke:none"
           id="text176"><tspan
             x="0 4.9835763 6.0961723 8.309248 9.9819469 11.826849 15.152521 16.810427 20.138334 24.017832 25.674391"
             y="0"
             sodipodi:role="line"
             id="tspan174">Diff/single</tspan></text></g><path
         d="M 1420.27,1665.18 V 1299.39"
         style="fill:none;stroke:#0e0f0f;stroke-width:5;stroke-linecap:round;stroke-linejoin:round;stroke-miterlimit:10;stroke-dasharray:none;stroke-opacity:1"
         id="path178" /><path
         d="m 1537.2,1299.39 v 431.44"
         style="fill:none;stroke:#0e0f0f;stroke-width:5;stroke-linecap:round;stroke-linejoin:round;stroke-miterlimit:10;stroke-dasharray:none;stroke-opacity:1"
         id="path180" /><path
         d="M 998.074,760.422 V 434.82 H 1357.49 V 760.422 H 998.074 v 0 z"
         style="fill:none;stroke:#0e0f0f;stroke-width:5;stroke-linecap:round;stroke-linejoin:round;stroke-miterlimit:10;stroke-dasharray:none;stroke-opacity:1"
         id="path182" /><path
         d="m 1072.23,641.969 h 211.11 V 553.27 h -211.11 v 88.699 0"
         style="fill:#ffffff;fill-opacity:1;fill-rule:evenodd;stroke:none"
         id="path184" /><g
         id="g186"
         transform="scale(10)"><text
           transform="matrix(0.871065,0,0,-1,107.228,57.5469)"
           style="font-variant:normal;font-weight:normal;font-size:7.2069px;font-family:Arial;-inkscape-font-specification:ArialMT;writing-mode:lr-tb;fill:#0e0f0f;fill-opacity:1;fill-rule:nonzero;stroke:none"
           id="text190"><tspan
             x="0 5.542336 7.2015886 10.670757 14.778512 18.663389 20.322193"
             y="0"
             sodipodi:role="line"
             id="tspan188">Clk_div</tspan></text></g><path
         d="M 1357.49,567.828 H 2687.36 V 1417.2"
         style="fill:none;stroke:#0e0f0f;stroke-width:5;stroke-linecap:round;stroke-linejoin:round;stroke-miterlimit:10;stroke-dasharray:none;stroke-opacity:1"
         id="path192" /><path
         d="m 2661.47,1409.77 25.89,89.14 25.88,-89.14 h -51.77 v 0 0"
         style="fill:#0e0f0f;fill-opacity:1;fill-rule:evenodd;stroke:none"
         id="path194" /><path
         d="M 998.074,567.828 575.75,568.371"
         style="fill:none;stroke:#0e0f0f;stroke-width:5;stroke-linecap:round;stroke-linejoin:round;stroke-miterlimit:10;stroke-dasharray:none;stroke-opacity:1"
         id="path196" /><path
         d="M 3729.67,1498.91 V 833.859 h 179.72"
         style="fill:none;stroke:#0e0f0f;stroke-width:5;stroke-linecap:round;stroke-linejoin:round;stroke-miterlimit:10;stroke-dasharray:none;stroke-opacity:1"
         id="path198" /><path
         d="m 3729.67,1011.2 h 179.72"
         style="fill:none;stroke:#0e0f0f;stroke-width:5;stroke-linecap:round;stroke-linejoin:round;stroke-miterlimit:10;stroke-dasharray:none;stroke-opacity:1"
         id="path200" /><path
         d="m 3729.67,1188.55 h 179.72"
         style="fill:none;stroke:#0e0f0f;stroke-width:5;stroke-linecap:round;stroke-linejoin:round;stroke-miterlimit:10;stroke-dasharray:none;stroke-opacity:1"
         id="path202" /><g
         id="g204"
         transform="scale(10)"><text
           transform="matrix(0.871065,0,0,-1,390.374,85.3762)"
           style="font-variant:normal;font-weight:normal;font-size:6.65252px;font-family:Arial;-inkscape-font-specification:ArialMT;writing-mode:lr-tb;fill:#0e0f0f;fill-opacity:1;fill-rule:nonzero;stroke:none"
           id="text214"><tspan
             x="0 4.9826655 8.3105745 11.825938 15.528299 18.853971 22.733496"
             y="0"
             sodipodi:role="line"
             id="tspan206">Res_sel</tspan><tspan
             x="0 2.2152891 6.094337 9.6119385 13.490986 14.602222 16.636381 18.485783 22.364859 25.889214 29.76829 30.880899 32.912819 34.764462 38.643986 42.160271 46.039345 47.151955 49.185219"
             y="7.9773402"
             sodipodi:role="line"
             id="tspan208">(12bit/14bit/16bit)</tspan><tspan
             x="1.5453399 5.9825706 7.6400137 10.967026 14.847419 16.503965 20.039953 21.883524 25.209784 29.08886 32.416798 34.631229 36.299458 41.841007 45.721432 49.04847"
             y="-13.74886"
             sodipodi:role="line"
             id="tspan210">Single/cont mode</tspan><tspan
             x="1.5453399 5.9825706 9.3095875 13.188636 16.702648 18.92514 22.250784 26.13031 29.458246 33.337322 37.216846 40.544785 42.201359 43.870483 45.528404 49.407478 51.076603 54.798725"
             y="-31.47896"
             sodipodi:role="line"
             id="tspan212">Scan(channel info)</tspan></text></g><path
         d="m 4466.49,2385.65 v -615.28 h 287.54 v 615.28 h -287.54 v 0 z"
         style="fill:none;stroke:#0e0f0f;stroke-width:5;stroke-linecap:round;stroke-linejoin:round;stroke-miterlimit:10;stroke-dasharray:none;stroke-opacity:1"
         id="path216" /><path
         d="m 4522.28,2184.45 h 175.96 v -212.88 h -175.96 v 212.88 0"
         style="fill:#ffffff;fill-opacity:1;fill-rule:evenodd;stroke:none"
         id="path218" /><g
         id="g220"
         transform="scale(10)"><text
           transform="matrix(0.871066,0,0,-1,452.439,210.458)"
           style="font-variant:normal;font-weight:normal;font-size:8.87003px;font-family:Arial;-inkscape-font-specification:ArialMT;writing-mode:lr-tb;fill:#0e0f0f;fill-opacity:1;fill-rule:nonzero;stroke:none"
           id="text226"><tspan
             x="0 6.6445837 13.856463"
             y="0"
             sodipodi:role="line"
             id="tspan222">DMA</tspan><tspan
             x="-0.243506 5.2992926 7.5240092 13.066808"
             y="10.6348"
             sodipodi:role="line"
             id="tspan224">FIFO</tspan></text></g><path
         d="m 4466.49,1720.6 v -221.69 h 287.54 v 221.69 h -287.54 v 0 z"
         style="fill:none;stroke:#0e0f0f;stroke-width:5;stroke-linecap:round;stroke-linejoin:round;stroke-miterlimit:10;stroke-dasharray:none;stroke-opacity:1"
         id="path228" /><path
         d="m 4497.54,1698.45 h 225.44 v -177.4 h -225.44 v 177.4 0"
         style="fill:#ffffff;fill-opacity:1;fill-rule:evenodd;stroke:none"
         id="path230" /><g
         id="g232"
         transform="scale(10)"><text
           transform="matrix(0.871065,0,0,-1,455.663,163.195)"
           style="font-variant:normal;font-weight:normal;font-size:7.2069px;font-family:Arial;-inkscape-font-specification:ArialMT;writing-mode:lr-tb;fill:#0e0f0f;fill-opacity:1;fill-rule:nonzero;stroke:none"
           id="text238"><tspan
             x="0 4.9858198 7.1984253"
             y="0"
             sodipodi:role="line"
             id="tspan234">PIR</tspan><tspan
             x="-6.7813902 -2.8951535 -0.12825955 3.7575288 7.6357074 11.521944 15.398777"
             y="8.8710899"
             sodipodi:role="line"
             id="tspan236">process</tspan></text></g><path
         d="m 4466.49,2141.8 -87.6,-58.67 v 29.34 h -363.92 v 58.66 h 363.92 v 29.33 l 87.6,-58.66 v 0 z"
         style="fill:none;stroke:#0e0f0f;stroke-width:5;stroke-linecap:round;stroke-linejoin:round;stroke-miterlimit:10;stroke-dasharray:none;stroke-opacity:1"
         id="path240" /><g
         id="g242"
         transform="scale(10)"><text
           transform="matrix(0.871065,0,0,-1,404.118,221.053)"
           style="font-variant:normal;font-weight:normal;font-size:6.65252px;font-family:Arial;-inkscape-font-specification:ArialMT;writing-mode:lr-tb;fill:#0e0f0f;fill-opacity:1;fill-rule:nonzero;stroke:none"
           id="text246"><tspan
             x="0 4.9826655 8.3106031 10.525038 14.055223 17.750885 19.419113 21.076584 24.95566 28.282701 29.954521 31.806164 35.685242 39.201973 41.04644 44.754658"
             y="0"
             sodipodi:role="line"
             id="tspan244">Data_final[25:0]</tspan></text></g><path
         d="m 4250.84,2110.76 v -434.5 h 179.71"
         style="fill:none;stroke:#0e0f0f;stroke-width:5;stroke-linecap:round;stroke-linejoin:round;stroke-miterlimit:10;stroke-dasharray:none;stroke-opacity:1"
         id="path248" /><path
         d="m 4214.9,2110.76 v -478.84 h 215.65"
         style="fill:none;stroke:#0e0f0f;stroke-width:5;stroke-linecap:round;stroke-linejoin:round;stroke-miterlimit:10;stroke-dasharray:none;stroke-opacity:1"
         id="path250" /><path
         d="m 4430.55,1676.26 v 25.89 l 35.94,-48.06"
         style="fill:none;stroke:#0e0f0f;stroke-width:5;stroke-linecap:round;stroke-linejoin:round;stroke-miterlimit:10;stroke-dasharray:none;stroke-opacity:1"
         id="path252" /><path
         d="m 4430.55,1631.92 v -24.78 l 35.94,46.95"
         style="fill:none;stroke:#0e0f0f;stroke-width:5;stroke-linecap:round;stroke-linejoin:round;stroke-miterlimit:10;stroke-dasharray:none;stroke-opacity:1"
         id="path254" /><g
         id="g256"
         transform="scale(10)"><text
           transform="matrix(0.871065,0,0,-1,420.809,155.219)"
           style="font-variant:normal;font-weight:normal;font-size:4.43502px;font-family:Arial;-inkscape-font-specification:ArialMT;writing-mode:lr-tb;fill:#0e0f0f;fill-opacity:1;fill-rule:nonzero;stroke:none"
           id="text260"><tspan
             x="0 3.3234448 5.5405412 6.6526766 9.3747215 11.840593 14.058586 15.163119 16.764538 18.000893 20.218885 22.93824 24.166971 26.631609"
             y="0"
             sodipodi:role="line"
             id="tspan258">Data_pir[15:2]</tspan></text></g><path
         d="m 3729.67,1343.73 h 179.72"
         style="fill:none;stroke:#0e0f0f;stroke-width:5;stroke-linecap:round;stroke-linejoin:round;stroke-miterlimit:10;stroke-dasharray:none;stroke-opacity:1"
         id="path262" /><g
         id="g264"
         transform="scale(10)"><text
           transform="matrix(0.871065,0,0,-1,391.72,132.375)"
           style="font-variant:normal;font-weight:normal;font-size:6.65252px;font-family:Arial;-inkscape-font-specification:ArialMT;writing-mode:lr-tb;fill:#0e0f0f;fill-opacity:1;fill-rule:nonzero;stroke:none"
           id="text268"><tspan
             x="0 4.9952178 8.3208895 12.201283 14.414806 16.265104 20.1446 23.472536 27.351612 31.231138 33.446426 35.114655 36.783779 38.4417 42.320774"
             y="0"
             sodipodi:role="line"
             id="tspan266">Over/under flow</tspan></text></g><path
         d="m 5023.6,2141.8 -87.61,-58.67 v 29.34 h -181.96 v 58.66 h 181.96 v 29.33 l 87.61,-58.66 v 0 z"
         style="fill:none;stroke:#0e0f0f;stroke-width:5;stroke-linecap:round;stroke-linejoin:round;stroke-miterlimit:10;stroke-dasharray:none;stroke-opacity:1"
         id="path270" /><g
         id="g272"
         transform="scale(10)"><text
           transform="matrix(0.871065,0,0,-1,479.562,221.053)"
           style="font-variant:normal;font-weight:normal;font-size:6.65252px;font-family:Arial;-inkscape-font-specification:ArialMT;writing-mode:lr-tb;fill:#0e0f0f;fill-opacity:1;fill-rule:nonzero;stroke:none"
           id="text276"><tspan
             x="0 4.4372311 9.4207935"
             y="0"
             sodipodi:role="line"
             id="tspan274">BUS</tspan></text></g><path
         d="m 4754.03,1609.76 h 54.62"
         style="fill:none;stroke:#0e0f0f;stroke-width:5;stroke-linecap:round;stroke-linejoin:round;stroke-miterlimit:10;stroke-dasharray:none;stroke-opacity:1"
         id="path278" /><path
         d="m 4802.18,1639.46 77.65,-29.7 -77.65,-29.72 z"
         style="fill:#0e0f0f;fill-opacity:1;fill-rule:evenodd;stroke:none"
         id="path280" /><g
         id="g282"
         transform="scale(10)"><text
           transform="matrix(0.871065,0,0,-1,488.317,158.977)"
           style="font-variant:normal;font-weight:normal;font-size:6.65252px;font-family:Arial;-inkscape-font-specification:ArialMT;writing-mode:lr-tb;fill:#0e0f0f;fill-opacity:1;fill-rule:nonzero;stroke:none"
           id="text286"><tspan
             x="0 1.6677802 5.5482016 7.2164302 11.095506 13.311299 15.527093 19.40617 22.734106"
             y="0"
             sodipodi:role="line"
             id="tspan284">Interrupt</tspan></text></g><path
         d="M 5185.34,168.801 H 512.852 V 3305.64 H 5185.34 v -3136.839 0 z"
         style="fill:none;stroke:#0e0f0f;stroke-width:5;stroke-linecap:round;stroke-linejoin:round;stroke-miterlimit:10;stroke-dasharray:none;stroke-opacity:1"
         id="path288" /><path
         d="m 512.852,2195.16 h 37.644 l 25.254,-30.66 -25.254,-31.73 h -37.644 v 62.39 0 z"
         style="fill:none;stroke:#0e0f0f;stroke-width:5;stroke-linecap:round;stroke-linejoin:round;stroke-miterlimit:10;stroke-dasharray:none;stroke-opacity:1"
         id="path290" /><path
         d="M 890.246,2163.96 575.75,2164.5"
         style="fill:none;stroke:#0e0f0f;stroke-width:5;stroke-linecap:round;stroke-linejoin:round;stroke-miterlimit:10;stroke-dasharray:none;stroke-opacity:1"
         id="path292" /><g
         id="g294"
         transform="scale(10)"><text
           transform="matrix(0.871065,0,0,-1,7.28359,213.294)"
           style="font-variant:normal;font-weight:normal;font-size:6.65252px;font-family:Arial;-inkscape-font-specification:ArialMT;writing-mode:lr-tb;fill:#0e0f0f;fill-opacity:1;fill-rule:nonzero;stroke:none"
           id="text298"><tspan
             x="0 4.9952302 9.4324608 11.646435 15.899938 19.594677 24.578695 29.206648 31.050203 34.929703 38.45269 40.303871 43.998611"
             y="0"
             sodipodi:role="line"
             id="tspan296">GPIP_CH[11:0]</tspan></text></g><path
         d="m 512.852,599.02 h 37.644 l 25.254,-30.649 -25.254,-31.73 h -37.644 v 62.379 0 z"
         style="fill:none;stroke:#0e0f0f;stroke-width:5;stroke-linecap:round;stroke-linejoin:round;stroke-miterlimit:10;stroke-dasharray:none;stroke-opacity:1"
         id="path300" /><g
         id="g302"
         transform="scale(10)"><text
           transform="matrix(0.871065,0,0,-1,25.8813,59.3301)"
           style="font-variant:normal;font-weight:normal;font-size:6.65252px;font-family:Arial;-inkscape-font-specification:ArialMT;writing-mode:lr-tb;fill:#0e0f0f;fill-opacity:1;fill-rule:nonzero;stroke:none"
           id="text308"><tspan
             x="0 4.9840183 8.3114824"
             y="0"
             sodipodi:role="line"
             id="tspan304">CLK</tspan><tspan
             x="-12.5632 -8.6832533 -5.1602693 0.38128006 5.3652983 8.5106916 10.725981 16.26753 20.14703 23.288836"
             y="7.9761701"
             sodipodi:role="line"
             id="tspan306">32MHz(max)</tspan></text></g><path
         d="m 2366.7,3305.64 v -46.43 l -24.85,-31.15 -25.73,31.15 v 46.43 h 50.58 v 0 z"
         style="fill:none;stroke:#0e0f0f;stroke-width:5;stroke-linecap:round;stroke-linejoin:round;stroke-miterlimit:10;stroke-dasharray:none;stroke-opacity:1"
         id="path310" /><path
         d="M 2341.85,3228.06 V 2991.82"
         style="fill:none;stroke:#0e0f0f;stroke-width:5;stroke-linecap:round;stroke-linejoin:round;stroke-miterlimit:10;stroke-dasharray:none;stroke-opacity:1"
         id="path312" /><g
         id="g314"
         transform="scale(10)"><text
           transform="matrix(0.871065,0,0,-1,218.833,336.328)"
           style="font-variant:normal;font-weight:normal;font-size:6.65252px;font-family:Arial;-inkscape-font-specification:ArialMT;writing-mode:lr-tb;fill:#0e0f0f;fill-opacity:1;fill-rule:nonzero;stroke:none"
           id="text318"><tspan
             x="0 4.4372311 9.4207935 14.041564 17.920612 21.444941 23.660229 27.362589 29.212887 32.907177 36.791153 40.492168 42.336189 46.038548 50.47578"
             y="0"
             sodipodi:role="line"
             id="tspan316">VDD33(1.7~3.6V)</tspan></text></g><path
         d="M 2849.09,1498.91 V 833.859 h 179.72"
         style="fill:none;stroke:#0e0f0f;stroke-width:5;stroke-linecap:round;stroke-linejoin:round;stroke-miterlimit:10;stroke-dasharray:none;stroke-opacity:1"
         id="path320" /><g
         id="g322"
         transform="scale(10)"><text
           transform="matrix(0.871065,0,0,-1,305.456,81.3809)"
           style="font-variant:normal;font-weight:normal;font-size:6.65252px;font-family:Arial;-inkscape-font-specification:ArialMT;writing-mode:lr-tb;fill:#0e0f0f;fill-opacity:1;fill-rule:nonzero;stroke:none"
           id="text328"><tspan
             x="0 4.9835625 8.3105745 12.189622 15.535025 19.236488 22.56216 24.231287 28.110783 30.326071"
             y="0"
             sodipodi:role="line"
             id="tspan324">Conv_start</tspan><tspan
             x="0 4.4372311 6.6516509 10.530699 12.198928 15.907118 19.23279 23.111837"
             y="-15.5262"
             sodipodi:role="line"
             id="tspan326">Vref_sel</tspan></text></g><path
         d="m 2849.09,1000.12 h 179.72"
         style="fill:none;stroke:#0e0f0f;stroke-width:5;stroke-linecap:round;stroke-linejoin:round;stroke-miterlimit:10;stroke-dasharray:none;stroke-opacity:1"
         id="path330" /><path
         d="M 5382.5,2.5 H 2.5 v 3550 h 5380 z"
         style="fill:none;stroke:#231f20;stroke-width:5;stroke-linecap:butt;stroke-linejoin:miter;stroke-miterlimit:10;stroke-dasharray:none;stroke-opacity:1"
         id="path332" /></g></g></svg>
