<?xml version="1.0" encoding="UTF-8" standalone="no"?>
<svg
   xmlns:dc="http://purl.org/dc/elements/1.1/"
   xmlns:cc="http://creativecommons.org/ns#"
   xmlns:rdf="http://www.w3.org/1999/02/22-rdf-syntax-ns#"
   xmlns:svg="http://www.w3.org/2000/svg"
   xmlns="http://www.w3.org/2000/svg"
   xmlns:sodipodi="http://sodipodi.sourceforge.net/DTD/sodipodi-0.dtd"
   xmlns:inkscape="http://www.inkscape.org/namespaces/inkscape"
   version="1.1"
   id="svg2"
   xml:space="preserve"
   width="598.15997"
   height="606.33331"
   viewBox="0 0 598.15997 606.33331"
   sodipodi:docname="Dma_Arch.svg"
   inkscape:version="1.0.1 (3bc2e813f5, 2020-09-07)"><metadata
     id="metadata8"><rdf:RDF><cc:Work
         rdf:about=""><dc:format>image/svg+xml</dc:format><dc:type
           rdf:resource="http://purl.org/dc/dcmitype/StillImage" /><dc:title></dc:title></cc:Work></rdf:RDF></metadata><defs
     id="defs6" /><sodipodi:namedview
     pagecolor="#ffffff"
     bordercolor="#666666"
     borderopacity="1"
     objecttolerance="10"
     gridtolerance="10"
     guidetolerance="10"
     inkscape:pageopacity="0"
     inkscape:pageshadow="2"
     inkscape:window-width="788"
     inkscape:window-height="480"
     id="namedview4"
     showgrid="false"
     inkscape:zoom="1.4002199"
     inkscape:cx="299.07999"
     inkscape:cy="303.16666"
     inkscape:window-x="0"
     inkscape:window-y="0"
     inkscape:window-maximized="0"
     inkscape:current-layer="g10" /><g
     id="g10"
     inkscape:groupmode="layer"
     inkscape:label="ink_ext_XXXXXX"
     transform="matrix(1.3333333,0,0,-1.3333333,0,606.33333)"><g
       id="g12"
       transform="scale(0.1)"><g
         id="g14"
         transform="scale(10)"><text
           transform="matrix(1,0,0,-0.99891119,6.06992,434.994)"
           style="font-variant:normal;font-weight:normal;font-size:9.76917px;font-family:'Microsoft Sans Serif';-inkscape-font-specification:MicrosoftSansSerif;writing-mode:lr-tb;fill:#0e0f0e;fill-opacity:1;fill-rule:nonzero;stroke:none"
           id="text18"><tspan
             x="0 7.5141578 15.773433 22.53368 24.796865 32.311024 37.57811 43.587391 45.843735 49.595192 54.85936 57.10643 59.353504 65.35936"
             y="0"
             sodipodi:role="line"
             id="tspan16">DMA Controller</tspan></text></g><path
         d="M 3542.43,2548.48 V 1574.21 M 3286.81,2735.16 V 1387.53"
         style="fill:none;stroke:#0e0f0e;stroke-width:7.52228;stroke-linecap:round;stroke-linejoin:round;stroke-miterlimit:10;stroke-dasharray:none;stroke-opacity:1"
         id="path20" /><path
         d="m 3286.81,1387.53 255.62,186.68 m -255.62,1160.95 255.62,-186.68"
         style="fill:none;stroke:#0e0f0e;stroke-width:7.51693;stroke-linecap:round;stroke-linejoin:round;stroke-miterlimit:10;stroke-dasharray:none;stroke-opacity:1"
         id="path22" /><path
         d="M 1270.25,4224.65 H 2321.13 V 3118.16 H 1270.25 v 1106.49 0 0"
         style="fill:#ffffff;fill-opacity:1;fill-rule:evenodd;stroke:none"
         id="path24" /><path
         d="M 1270.25,3118.16 H 2321.13 V 4224.65 H 1270.25 v -1106.49 0 0 z"
         style="fill:none;stroke:#0e0f0e;stroke-width:7.51407;stroke-linecap:round;stroke-linejoin:round;stroke-miterlimit:10;stroke-dasharray:none;stroke-opacity:1"
         id="path26" /><g
         id="g28"
         transform="scale(10)"><text
           transform="matrix(1,0,0,-0.99891119,144.195,409.455)"
           style="font-variant:normal;font-weight:normal;font-size:9.76917px;font-family:'Microsoft Sans Serif';-inkscape-font-specification:MicrosoftSansSerif;writing-mode:lr-tb;fill:#0e0f0e;fill-opacity:1;fill-rule:nonzero;stroke:none"
           id="text32"><tspan
             x="0 7.514154 15.773038 22.259848 27.797249 35.312088 40.579182 45.846275 51.858971 57.126064 63.13319 65.184952"
             y="0"
             sodipodi:role="line"
             id="tspan30">DMA_Channel0</tspan></text></g><path
         d="m 1383.86,3713.02 h 568.05 v -200.18 h -568.05 v 200.18 0 0"
         style="fill:#ffffff;fill-opacity:1;fill-rule:evenodd;stroke:none"
         id="path34" /><path
         d="m 1383.86,3512.84 h 568.05 v 200.18 h -568.05 v -200.18 0 0 z"
         style="fill:none;stroke:#0e0f0e;stroke-width:7.51407;stroke-linecap:round;stroke-linejoin:round;stroke-miterlimit:10;stroke-dasharray:none;stroke-opacity:1"
         id="path36" /><g
         id="g38"
         transform="scale(10)"><text
           transform="matrix(1,0,0,-0.99891119,155.382,358.291)"
           style="font-variant:normal;font-weight:normal;font-size:9.76917px;font-family:'Microsoft Sans Serif';-inkscape-font-specification:MicrosoftSansSerif;writing-mode:lr-tb;fill:#0e0f0e;fill-opacity:1;fill-rule:nonzero;stroke:none"
           id="text42"><tspan
             x="0 6.006351 9.0000029 15.006353"
             y="0"
             sodipodi:role="line"
             id="tspan40">FIFO</tspan></text></g><path
         d="m 1383.86,4012.66 h 568.05 v -200.18 h -568.05 v 200.18 0 0"
         style="fill:#ffffff;fill-opacity:1;fill-rule:evenodd;stroke:none"
         id="path44" /><path
         d="m 1383.86,3812.48 h 568.05 v 200.18 h -568.05 v -200.18 0 0 z"
         style="fill:none;stroke:#0e0f0e;stroke-width:7.51407;stroke-linecap:round;stroke-linejoin:round;stroke-miterlimit:10;stroke-dasharray:none;stroke-opacity:1"
         id="path46" /><g
         id="g48"
         transform="scale(10)"><text
           transform="matrix(1,0,0,-0.99891119,160.109,388.26)"
           style="font-variant:normal;font-weight:normal;font-size:9.76917px;font-family:'Microsoft Sans Serif';-inkscape-font-specification:MicrosoftSansSerif;writing-mode:lr-tb;fill:#0e0f0e;fill-opacity:1;fill-rule:nonzero;stroke:none"
           id="text52"><tspan
             x="0 5.2558608 8.266016"
             y="0"
             sodipodi:role="line"
             id="tspan50">src</tspan></text></g><path
         d="m 1383.86,3416.86 h 568.05 v -200.18 h -568.05 v 200.18 0 0"
         style="fill:#ffffff;fill-opacity:1;fill-rule:evenodd;stroke:none"
         id="path54" /><path
         d="m 1383.86,3216.68 h 568.05 v 200.18 h -568.05 v -200.18 0 0 z"
         style="fill:none;stroke:#0e0f0e;stroke-width:7.51407;stroke-linecap:round;stroke-linejoin:round;stroke-miterlimit:10;stroke-dasharray:none;stroke-opacity:1"
         id="path56" /><g
         id="g58"
         transform="scale(10)"><text
           transform="matrix(1,0,0,-0.99891119,160.101,328.674)"
           style="font-variant:normal;font-weight:normal;font-size:9.76917px;font-family:'Microsoft Sans Serif';-inkscape-font-specification:MicrosoftSansSerif;writing-mode:lr-tb;fill:#0e0f0e;fill-opacity:1;fill-rule:nonzero;stroke:none"
           id="text62"><tspan
             x="0 5.2670941 10.523831"
             y="0"
             sodipodi:role="line"
             id="tspan60">dst</tspan></text></g><path
         d="m 1667.88,3812.48 v -49.91"
         style="fill:none;stroke:#0e0f0e;stroke-width:7.52228;stroke-linecap:round;stroke-linejoin:round;stroke-miterlimit:10;stroke-dasharray:none;stroke-opacity:1"
         id="path64" /><path
         d="m 1667.88,3713.02 -32.76,65.46 c 20.62,-10.3 44.9,-10.3 65.53,0 l -32.77,-65.46 v 0 0 0"
         style="fill:#0e0f0e;fill-opacity:1;fill-rule:evenodd;stroke:none"
         id="path66" /><path
         d="m 1667.88,3466.41 v 46.43"
         style="fill:none;stroke:#0e0f0e;stroke-width:7.52228;stroke-linecap:round;stroke-linejoin:round;stroke-miterlimit:10;stroke-dasharray:none;stroke-opacity:1"
         id="path68" /><path
         d="m 1667.88,3416.86 -32.76,65.45 c 20.62,-10.3 44.9,-10.3 65.53,0 l -32.77,-65.45 v 0 0 0"
         style="fill:#0e0f0e;fill-opacity:1;fill-rule:evenodd;stroke:none"
         id="path70" /><path
         d="m 2179.12,3889.49 v -564.62 m -113.6,672.82 v -781.01"
         style="fill:none;stroke:#0e0f0e;stroke-width:7.52228;stroke-linecap:round;stroke-linejoin:round;stroke-miterlimit:10;stroke-dasharray:none;stroke-opacity:1"
         id="path72" /><path
         d="m 2065.52,3216.68 113.6,108.19 m -113.6,672.82 113.6,-108.2"
         style="fill:none;stroke:#0e0f0e;stroke-width:7.51798;stroke-linecap:round;stroke-linejoin:round;stroke-miterlimit:10;stroke-dasharray:none;stroke-opacity:1"
         id="path74" /><path
         d="m 1951.91,3912.57 h 64"
         style="fill:none;stroke:#0e0f0e;stroke-width:7.51407;stroke-linecap:round;stroke-linejoin:round;stroke-miterlimit:10;stroke-dasharray:none;stroke-opacity:1"
         id="path76" /><path
         d="m 2065.52,3912.57 -65.54,-32.73 c 10.32,20.6 10.32,44.86 0,65.45 l 65.54,-32.72 v 0 0 0"
         style="fill:#0e0f0e;fill-opacity:1;fill-rule:evenodd;stroke:none"
         id="path78" /><path
         d="m 1951.91,3316.77 h 53.92"
         style="fill:none;stroke:#0e0f0e;stroke-width:7.51407;stroke-linecap:round;stroke-linejoin:round;stroke-miterlimit:10;stroke-dasharray:none;stroke-opacity:1"
         id="path80" /><path
         d="m 2055.44,3316.77 -65.53,-32.73 c 10.31,20.61 10.31,44.86 0,65.46 l 65.53,-32.73 v 0 0 0"
         style="fill:#0e0f0e;fill-opacity:1;fill-rule:evenodd;stroke:none"
         id="path82" /><path
         d="M 901.023,3925.78 V 3328.45 M 645.406,4040.23 V 3213.99"
         style="fill:none;stroke:#0e0f0e;stroke-width:7.52228;stroke-linecap:round;stroke-linejoin:round;stroke-miterlimit:10;stroke-dasharray:none;stroke-opacity:1"
         id="path84" /><path
         d="m 645.406,3213.99 255.617,114.46 m -255.617,711.78 255.617,-114.45"
         style="fill:none;stroke:#0e0f0e;stroke-width:7.51544;stroke-linecap:round;stroke-linejoin:round;stroke-miterlimit:10;stroke-dasharray:none;stroke-opacity:1"
         id="path86" /><g
         id="g88"
         transform="scale(10)"><text
           transform="matrix(1,0,0,-0.99891119,11.9137,390.416)"
           style="font-variant:normal;font-weight:normal;font-size:12.0236px;font-family:'Microsoft Sans Serif';-inkscape-font-specification:MicrosoftSansSerif;writing-mode:lr-tb;fill:#0e0f0e;fill-opacity:1;fill-rule:nonzero;stroke:none"
           id="text96"><tspan
             x="0 9.0078039 16.539053 26.060045"
             y="0"
             sodipodi:role="line"
             id="tspan90">REQ0</tspan><tspan
             x="0 9.0078039 16.539053 26.060045"
             y="19.888855"
             sodipodi:role="line"
             id="tspan92">REQ1</tspan><tspan
             x="-6.6874914 2.3203127 9.843749 19.364742 26.124989"
             y="62.685452"
             sodipodi:role="line"
             id="tspan94">REQ31</tspan></text></g><path
         d="M 486.664,3944.48 H 595.801"
         style="fill:none;stroke:#0e0f0e;stroke-width:7.51407;stroke-linecap:round;stroke-linejoin:round;stroke-miterlimit:10;stroke-dasharray:none;stroke-opacity:1"
         id="path98" /><path
         d="m 645.406,3944.48 -65.535,-32.72 c 10.32,20.6 10.32,44.85 0,65.46 l 65.535,-32.74 v 0 0 0"
         style="fill:#0e0f0e;fill-opacity:1;fill-rule:evenodd;stroke:none"
         id="path100" /><path
         d="M 486.664,3742.34 H 595.801"
         style="fill:none;stroke:#0e0f0e;stroke-width:7.51407;stroke-linecap:round;stroke-linejoin:round;stroke-miterlimit:10;stroke-dasharray:none;stroke-opacity:1"
         id="path102" /><path
         d="m 645.406,3742.34 -65.535,-32.73 c 10.32,20.6 10.32,44.85 0,65.46 l 65.535,-32.73 v 0 0 0"
         style="fill:#0e0f0e;fill-opacity:1;fill-rule:evenodd;stroke:none"
         id="path104" /><g
         id="g106"
         transform="scale(10)"><text
           transform="matrix(1,0,0,-0.99891119,31.3121,357.525)"
           style="font-variant:normal;font-weight:normal;font-size:12.0236px;font-family:'Microsoft Sans Serif';-inkscape-font-specification:MicrosoftSansSerif;writing-mode:lr-tb;fill:#0e0f0e;fill-opacity:1;fill-rule:nonzero;stroke:none"
           id="text112"><tspan
             x="0 6.6630864"
             y="0"
             sodipodi:role="line"
             id="tspan108">««</tspan><tspan
             x="0 6.6630864"
             y="14.430212"
             sodipodi:role="line"
             id="tspan110">««</tspan></text></g><path
         d="M 486.664,3330.96 H 595.801"
         style="fill:none;stroke:#0e0f0e;stroke-width:7.51407;stroke-linecap:round;stroke-linejoin:round;stroke-miterlimit:10;stroke-dasharray:none;stroke-opacity:1"
         id="path114" /><path
         d="m 645.406,3330.96 -65.535,-32.73 c 10.32,20.6 10.32,44.85 0,65.45 l 65.535,-32.72 v 0 0 0"
         style="fill:#0e0f0e;fill-opacity:1;fill-rule:evenodd;stroke:none"
         id="path116" /><path
         d="M 901.023,3627.12 H 1220.65"
         style="fill:none;stroke:#0e0f0e;stroke-width:7.51407;stroke-linecap:round;stroke-linejoin:round;stroke-miterlimit:10;stroke-dasharray:none;stroke-opacity:1"
         id="path118" /><path
         d="m 1270.25,3627.12 -65.53,-32.73 c 10.32,20.6 10.32,44.86 0,65.45 l 65.53,-32.72 v 0 0 0"
         style="fill:#0e0f0e;fill-opacity:1;fill-rule:evenodd;stroke:none"
         id="path120" /><path
         d="M 1270.25,3075.62 H 2321.13 V 1969.14 H 1270.25 v 1106.48 0 0"
         style="fill:#ffffff;fill-opacity:1;fill-rule:evenodd;stroke:none"
         id="path122" /><path
         d="M 1270.25,1969.14 H 2321.13 V 3075.62 H 1270.25 v -1106.48 0 0 z"
         style="fill:none;stroke:#0e0f0e;stroke-width:7.51407;stroke-linecap:round;stroke-linejoin:round;stroke-miterlimit:10;stroke-dasharray:none;stroke-opacity:1"
         id="path124" /><g
         id="g126"
         transform="scale(10)"><text
           transform="matrix(1,0,0,-0.99891119,144.195,294.557)"
           style="font-variant:normal;font-weight:normal;font-size:9.76917px;font-family:'Microsoft Sans Serif';-inkscape-font-specification:MicrosoftSansSerif;writing-mode:lr-tb;fill:#0e0f0e;fill-opacity:1;fill-rule:nonzero;stroke:none"
           id="text130"><tspan
             x="0 7.514154 15.773038 22.259848 27.797249 35.312088 40.579182 45.846275 51.858971 57.126064 63.13319 65.184952"
             y="0"
             sodipodi:role="line"
             id="tspan128">DMA_Channel1</tspan></text></g><path
         d="m 1383.86,2563.97 h 568.05 v -200.16 h -568.05 v 200.16 0 0"
         style="fill:#ffffff;fill-opacity:1;fill-rule:evenodd;stroke:none"
         id="path132" /><path
         d="m 1383.86,2363.81 h 568.05 v 200.16 h -568.05 v -200.16 0 0 z"
         style="fill:none;stroke:#0e0f0e;stroke-width:7.51407;stroke-linecap:round;stroke-linejoin:round;stroke-miterlimit:10;stroke-dasharray:none;stroke-opacity:1"
         id="path134" /><g
         id="g136"
         transform="scale(10)"><text
           transform="matrix(1,0,0,-0.99891119,155.382,243.393)"
           style="font-variant:normal;font-weight:normal;font-size:9.76917px;font-family:'Microsoft Sans Serif';-inkscape-font-specification:MicrosoftSansSerif;writing-mode:lr-tb;fill:#0e0f0e;fill-opacity:1;fill-rule:nonzero;stroke:none"
           id="text140"><tspan
             x="0 6.006351 9.0000029 15.006353"
             y="0"
             sodipodi:role="line"
             id="tspan138">FIFO</tspan></text></g><path
         d="m 1383.86,2863.62 h 568.05 v -200.17 h -568.05 v 200.17 0 0"
         style="fill:#ffffff;fill-opacity:1;fill-rule:evenodd;stroke:none"
         id="path142" /><path
         d="m 1383.86,2663.45 h 568.05 v 200.17 h -568.05 v -200.17 0 0 z"
         style="fill:none;stroke:#0e0f0e;stroke-width:7.51407;stroke-linecap:round;stroke-linejoin:round;stroke-miterlimit:10;stroke-dasharray:none;stroke-opacity:1"
         id="path144" /><g
         id="g146"
         transform="scale(10)"><text
           transform="matrix(1,0,0,-0.99891119,160.109,273.354)"
           style="font-variant:normal;font-weight:normal;font-size:9.76917px;font-family:'Microsoft Sans Serif';-inkscape-font-specification:MicrosoftSansSerif;writing-mode:lr-tb;fill:#0e0f0e;fill-opacity:1;fill-rule:nonzero;stroke:none"
           id="text150"><tspan
             x="0 5.2558608 8.266016"
             y="0"
             sodipodi:role="line"
             id="tspan148">src</tspan></text></g><path
         d="m 1383.86,2267.83 h 568.05 v -200.18 h -568.05 v 200.18 0 0"
         style="fill:#ffffff;fill-opacity:1;fill-rule:evenodd;stroke:none"
         id="path152" /><path
         d="m 1383.86,2067.65 h 568.05 v 200.18 h -568.05 v -200.18 0 0 z"
         style="fill:none;stroke:#0e0f0e;stroke-width:7.51407;stroke-linecap:round;stroke-linejoin:round;stroke-miterlimit:10;stroke-dasharray:none;stroke-opacity:1"
         id="path154" /><g
         id="g156"
         transform="scale(10)"><text
           transform="matrix(1,0,0,-0.99891119,160.101,213.775)"
           style="font-variant:normal;font-weight:normal;font-size:9.76917px;font-family:'Microsoft Sans Serif';-inkscape-font-specification:MicrosoftSansSerif;writing-mode:lr-tb;fill:#0e0f0e;fill-opacity:1;fill-rule:nonzero;stroke:none"
           id="text160"><tspan
             x="0 5.2670941 10.523831"
             y="0"
             sodipodi:role="line"
             id="tspan158">dst</tspan></text></g><path
         d="m 1667.88,2663.45 v -49.92"
         style="fill:none;stroke:#0e0f0e;stroke-width:7.52228;stroke-linecap:round;stroke-linejoin:round;stroke-miterlimit:10;stroke-dasharray:none;stroke-opacity:1"
         id="path162" /><path
         d="m 1667.88,2563.98 -32.76,65.46 c 20.62,-10.3 44.9,-10.3 65.53,0 l -32.77,-65.46 v 0 0 0"
         style="fill:#0e0f0e;fill-opacity:1;fill-rule:evenodd;stroke:none"
         id="path164" /><path
         d="m 1667.88,2317.37 v 46.44"
         style="fill:none;stroke:#0e0f0e;stroke-width:7.52228;stroke-linecap:round;stroke-linejoin:round;stroke-miterlimit:10;stroke-dasharray:none;stroke-opacity:1"
         id="path166" /><path
         d="m 1667.88,2267.83 -32.76,65.45 c 20.62,-10.3 44.9,-10.3 65.53,0 l -32.77,-65.45 v 0 0 0"
         style="fill:#0e0f0e;fill-opacity:1;fill-rule:evenodd;stroke:none"
         id="path168" /><path
         d="m 2179.12,2740.46 v -564.62 m -113.6,672.81 v -781"
         style="fill:none;stroke:#0e0f0e;stroke-width:7.52228;stroke-linecap:round;stroke-linejoin:round;stroke-miterlimit:10;stroke-dasharray:none;stroke-opacity:1"
         id="path170" /><path
         d="m 2065.52,2067.65 113.6,108.19 m -113.6,672.81 113.6,-108.19"
         style="fill:none;stroke:#0e0f0e;stroke-width:7.51798;stroke-linecap:round;stroke-linejoin:round;stroke-miterlimit:10;stroke-dasharray:none;stroke-opacity:1"
         id="path172" /><path
         d="m 1951.91,2763.53 h 64"
         style="fill:none;stroke:#0e0f0e;stroke-width:7.51407;stroke-linecap:round;stroke-linejoin:round;stroke-miterlimit:10;stroke-dasharray:none;stroke-opacity:1"
         id="path174" /><path
         d="m 2065.52,2763.53 -65.54,-32.73 c 10.32,20.6 10.32,44.85 0,65.46 l 65.54,-32.73 v 0 0 0"
         style="fill:#0e0f0e;fill-opacity:1;fill-rule:evenodd;stroke:none"
         id="path176" /><path
         d="m 1951.91,2167.73 h 53.92"
         style="fill:none;stroke:#0e0f0e;stroke-width:7.51407;stroke-linecap:round;stroke-linejoin:round;stroke-miterlimit:10;stroke-dasharray:none;stroke-opacity:1"
         id="path178" /><path
         d="m 2055.44,2167.73 -65.53,-32.72 c 10.31,20.6 10.31,44.85 0,65.46 l 65.53,-32.74 v 0 0 0"
         style="fill:#0e0f0e;fill-opacity:1;fill-rule:evenodd;stroke:none"
         id="path180" /><path
         d="M 901.023,2776.75 V 2179.41 M 645.406,2891.2 v -826.24"
         style="fill:none;stroke:#0e0f0e;stroke-width:7.52228;stroke-linecap:round;stroke-linejoin:round;stroke-miterlimit:10;stroke-dasharray:none;stroke-opacity:1"
         id="path182" /><path
         d="m 645.406,2064.96 255.617,114.45 M 645.406,2891.2 901.023,2776.75"
         style="fill:none;stroke:#0e0f0e;stroke-width:7.51544;stroke-linecap:round;stroke-linejoin:round;stroke-miterlimit:10;stroke-dasharray:none;stroke-opacity:1"
         id="path184" /><g
         id="g186"
         transform="scale(10)"><text
           transform="matrix(1,0,0,-0.99891119,11.9137,275.502)"
           style="font-variant:normal;font-weight:normal;font-size:12.0236px;font-family:'Microsoft Sans Serif';-inkscape-font-specification:MicrosoftSansSerif;writing-mode:lr-tb;fill:#0e0f0e;fill-opacity:1;fill-rule:nonzero;stroke:none"
           id="text194"><tspan
             x="0 9.0078039 16.539053 26.060045"
             y="0"
             sodipodi:role="line"
             id="tspan188">REQ0</tspan><tspan
             x="0 9.0078039 16.539053 26.060045"
             y="19.873638"
             sodipodi:role="line"
             id="tspan190">REQ1</tspan><tspan
             x="-6.6874914 2.3203127 9.843749 19.364742 26.124989"
             y="62.670235"
             sodipodi:role="line"
             id="tspan192">REQ31</tspan></text></g><path
         d="M 486.664,2795.45 H 595.801"
         style="fill:none;stroke:#0e0f0e;stroke-width:7.51407;stroke-linecap:round;stroke-linejoin:round;stroke-miterlimit:10;stroke-dasharray:none;stroke-opacity:1"
         id="path196" /><path
         d="m 645.406,2795.45 -65.535,-32.74 c 10.32,20.61 10.32,44.87 0,65.47 l 65.535,-32.73 v 0 0 0"
         style="fill:#0e0f0e;fill-opacity:1;fill-rule:evenodd;stroke:none"
         id="path198" /><path
         d="M 486.664,2593.3 H 595.801"
         style="fill:none;stroke:#0e0f0e;stroke-width:7.51407;stroke-linecap:round;stroke-linejoin:round;stroke-miterlimit:10;stroke-dasharray:none;stroke-opacity:1"
         id="path200" /><path
         d="m 645.406,2593.3 -65.535,-32.73 c 10.32,20.61 10.32,44.86 0,65.46 l 65.535,-32.73 v 0 0 0"
         style="fill:#0e0f0e;fill-opacity:1;fill-rule:evenodd;stroke:none"
         id="path202" /><g
         id="g204"
         transform="scale(10)"><text
           transform="matrix(1,0,0,-0.99891119,31.3121,242.611)"
           style="font-variant:normal;font-weight:normal;font-size:12.0236px;font-family:'Microsoft Sans Serif';-inkscape-font-specification:MicrosoftSansSerif;writing-mode:lr-tb;fill:#0e0f0e;fill-opacity:1;fill-rule:nonzero;stroke:none"
           id="text210"><tspan
             x="0 6.6630864"
             y="0"
             sodipodi:role="line"
             id="tspan206">««</tspan><tspan
             x="0 6.6630864"
             y="14.421602"
             sodipodi:role="line"
             id="tspan208">««</tspan></text></g><path
         d="M 486.664,2181.91 H 595.801"
         style="fill:none;stroke:#0e0f0e;stroke-width:7.51407;stroke-linecap:round;stroke-linejoin:round;stroke-miterlimit:10;stroke-dasharray:none;stroke-opacity:1"
         id="path212" /><path
         d="m 645.406,2181.91 -65.535,-32.72 c 10.32,20.6 10.32,44.86 0,65.46 l 65.535,-32.74 v 0 0 0"
         style="fill:#0e0f0e;fill-opacity:1;fill-rule:evenodd;stroke:none"
         id="path214" /><path
         d="M 901.023,2478.08 H 1220.65"
         style="fill:none;stroke:#0e0f0e;stroke-width:7.51407;stroke-linecap:round;stroke-linejoin:round;stroke-miterlimit:10;stroke-dasharray:none;stroke-opacity:1"
         id="path216" /><path
         d="m 1270.25,2478.08 -65.53,-32.73 c 10.32,20.6 10.32,44.86 0,65.46 l 65.53,-32.73 v 0 0 0"
         style="fill:#0e0f0e;fill-opacity:1;fill-rule:evenodd;stroke:none"
         id="path218" /><path
         d="M 1298.66,1265.92 H 2349.54 V 159.43 H 1298.66 v 1106.49 0 0"
         style="fill:#ffffff;fill-opacity:1;fill-rule:evenodd;stroke:none"
         id="path220" /><path
         d="M 1298.66,159.43 H 2349.54 V 1265.92 H 1298.66 v -1106.49 0 0 z"
         style="fill:none;stroke:#0e0f0e;stroke-width:7.51407;stroke-linecap:round;stroke-linejoin:round;stroke-miterlimit:10;stroke-dasharray:none;stroke-opacity:1"
         id="path222" /><g
         id="g224"
         transform="scale(10)"><text
           transform="matrix(1,0,0,-0.99891119,148.179,113.58)"
           style="font-variant:normal;font-weight:normal;font-size:9.76917px;font-family:'Microsoft Sans Serif';-inkscape-font-specification:MicrosoftSansSerif;writing-mode:lr-tb;fill:#0e0f0e;fill-opacity:1;fill-rule:nonzero;stroke:none"
           id="text228"><tspan
             x="0 7.514154 15.77421 22.261021 27.789047 35.3032 40.571072 45.838165 51.84412 57.111202 62.890984"
             y="0"
             sodipodi:role="line"
             id="tspan226">DMA_Channe7</tspan></text></g><path
         d="m 1412.26,754.281 h 568.05 V 554.109 h -568.05 v 200.172 0 0"
         style="fill:#ffffff;fill-opacity:1;fill-rule:evenodd;stroke:none"
         id="path230" /><path
         d="m 1412.26,554.109 h 568.05 v 200.172 h -568.05 v -200.172 0 0 z"
         style="fill:none;stroke:#0e0f0e;stroke-width:7.51407;stroke-linecap:round;stroke-linejoin:round;stroke-miterlimit:10;stroke-dasharray:none;stroke-opacity:1"
         id="path232" /><g
         id="g234"
         transform="scale(10)"><text
           transform="matrix(1,0,0,-0.99891119,158.218,62.416)"
           style="font-variant:normal;font-weight:normal;font-size:9.76917px;font-family:'Microsoft Sans Serif';-inkscape-font-specification:MicrosoftSansSerif;writing-mode:lr-tb;fill:#0e0f0e;fill-opacity:1;fill-rule:nonzero;stroke:none"
           id="text238"><tspan
             x="0 6.006351 9.0082064 15.014557"
             y="0"
             sodipodi:role="line"
             id="tspan236">FIFO</tspan></text></g><path
         d="m 1412.26,1053.92 h 568.05 V 853.75 h -568.05 v 200.17 0 0"
         style="fill:#ffffff;fill-opacity:1;fill-rule:evenodd;stroke:none"
         id="path240" /><path
         d="m 1412.26,853.75 h 568.05 v 200.17 h -568.05 v -200.17 0 0 z"
         style="fill:none;stroke:#0e0f0e;stroke-width:7.51407;stroke-linecap:round;stroke-linejoin:round;stroke-miterlimit:10;stroke-dasharray:none;stroke-opacity:1"
         id="path242" /><g
         id="g244"
         transform="scale(10)"><text
           transform="matrix(1,0,0,-0.99891119,162.96,92.3852)"
           style="font-variant:normal;font-weight:normal;font-size:9.76917px;font-family:'Microsoft Sans Serif';-inkscape-font-specification:MicrosoftSansSerif;writing-mode:lr-tb;fill:#0e0f0e;fill-opacity:1;fill-rule:nonzero;stroke:none"
           id="text248"><tspan
             x="0 5.2558608 8.2578135"
             y="0"
             sodipodi:role="line"
             id="tspan246">src</tspan></text></g><path
         d="m 1412.26,458.121 h 568.05 V 257.949 h -568.05 v 200.172 0 0"
         style="fill:#ffffff;fill-opacity:1;fill-rule:evenodd;stroke:none"
         id="path250" /><path
         d="m 1412.26,257.949 h 568.05 v 200.172 h -568.05 v -200.172 0 0 z"
         style="fill:none;stroke:#0e0f0e;stroke-width:7.51407;stroke-linecap:round;stroke-linejoin:round;stroke-miterlimit:10;stroke-dasharray:none;stroke-opacity:1"
         id="path252" /><g
         id="g254"
         transform="scale(10)"><text
           transform="matrix(1,0,0,-0.99891119,162.945,32.7992)"
           style="font-variant:normal;font-weight:normal;font-size:9.76917px;font-family:'Microsoft Sans Serif';-inkscape-font-specification:MicrosoftSansSerif;writing-mode:lr-tb;fill:#0e0f0e;fill-opacity:1;fill-rule:nonzero;stroke:none"
           id="text258"><tspan
             x="0 5.2670941 10.523049"
             y="0"
             sodipodi:role="line"
             id="tspan256">dst</tspan></text></g><path
         d="M 1696.28,853.75 V 803.84"
         style="fill:none;stroke:#0e0f0e;stroke-width:7.52228;stroke-linecap:round;stroke-linejoin:round;stroke-miterlimit:10;stroke-dasharray:none;stroke-opacity:1"
         id="path260" /><path
         d="m 1696.28,754.281 -32.76,65.457 c 20.62,-10.297 44.91,-10.297 65.53,0 l -32.77,-65.457 v 0 0 0"
         style="fill:#0e0f0e;fill-opacity:1;fill-rule:evenodd;stroke:none"
         id="path262" /><path
         d="m 1696.28,507.672 v 46.437"
         style="fill:none;stroke:#0e0f0e;stroke-width:7.52228;stroke-linecap:round;stroke-linejoin:round;stroke-miterlimit:10;stroke-dasharray:none;stroke-opacity:1"
         id="path264" /><path
         d="m 1696.28,458.121 -32.76,65.449 c 20.62,-10.289 44.91,-10.289 65.53,0 l -32.77,-65.449 v 0 0 0"
         style="fill:#0e0f0e;fill-opacity:1;fill-rule:evenodd;stroke:none"
         id="path266" /><path
         d="M 2207.53,930.762 V 366.129 M 2093.91,1038.94 V 257.949"
         style="fill:none;stroke:#0e0f0e;stroke-width:7.52228;stroke-linecap:round;stroke-linejoin:round;stroke-miterlimit:10;stroke-dasharray:none;stroke-opacity:1"
         id="path268" /><path
         d="m 2093.91,257.949 113.62,108.18 m -113.62,672.811 113.62,-108.178"
         style="fill:none;stroke:#0e0f0e;stroke-width:7.51798;stroke-linecap:round;stroke-linejoin:round;stroke-miterlimit:10;stroke-dasharray:none;stroke-opacity:1"
         id="path270" /><path
         d="m 1980.31,953.84 h 64"
         style="fill:none;stroke:#0e0f0e;stroke-width:7.51407;stroke-linecap:round;stroke-linejoin:round;stroke-miterlimit:10;stroke-dasharray:none;stroke-opacity:1"
         id="path272" /><path
         d="m 2093.91,953.84 -65.52,-32.738 c 10.31,20.609 10.31,44.847 0,65.457 l 65.52,-32.719 v 0 0 0"
         style="fill:#0e0f0e;fill-opacity:1;fill-rule:evenodd;stroke:none"
         id="path274" /><path
         d="m 1980.31,358.031 h 53.93"
         style="fill:none;stroke:#0e0f0e;stroke-width:7.51407;stroke-linecap:round;stroke-linejoin:round;stroke-miterlimit:10;stroke-dasharray:none;stroke-opacity:1"
         id="path276" /><path
         d="m 2083.84,358.031 -65.53,-32.722 c 10.32,20.601 10.32,44.851 0,65.453 l 65.53,-32.731 v 0 0 0"
         style="fill:#0e0f0e;fill-opacity:1;fill-rule:evenodd;stroke:none"
         id="path278" /><path
         d="M 929.426,967.051 V 369.711 M 673.805,1081.5 V 255.25"
         style="fill:none;stroke:#0e0f0e;stroke-width:7.52228;stroke-linecap:round;stroke-linejoin:round;stroke-miterlimit:10;stroke-dasharray:none;stroke-opacity:1"
         id="path280" /><path
         d="M 673.805,255.25 929.426,369.711 M 673.805,1081.5 929.426,967.051"
         style="fill:none;stroke:#0e0f0e;stroke-width:7.51544;stroke-linecap:round;stroke-linejoin:round;stroke-miterlimit:10;stroke-dasharray:none;stroke-opacity:1"
         id="path282" /><g
         id="g284"
         transform="scale(10)"><text
           transform="matrix(1,0,0,-0.99891119,14.7574,94.541)"
           style="font-variant:normal;font-weight:normal;font-size:12.0236px;font-family:'Microsoft Sans Serif';-inkscape-font-specification:MicrosoftSansSerif;writing-mode:lr-tb;fill:#0e0f0e;fill-opacity:1;fill-rule:nonzero;stroke:none"
           id="text292"><tspan
             x="0 9.0078039 16.53124 26.051744"
             y="0"
             sodipodi:role="line"
             id="tspan286">REQ0</tspan><tspan
             x="0 9.0078039 16.53124 26.051744"
             y="19.888454"
             sodipodi:role="line"
             id="tspan288">REQ1</tspan><tspan
             x="-6.6874914 2.3203127 9.8515606 19.372065 26.124989"
             y="62.685051"
             sodipodi:role="line"
             id="tspan290">REQ31</tspan></text></g><path
         d="M 515.066,985.75 H 624.203"
         style="fill:none;stroke:#0e0f0e;stroke-width:7.51407;stroke-linecap:round;stroke-linejoin:round;stroke-miterlimit:10;stroke-dasharray:none;stroke-opacity:1"
         id="path294" /><path
         d="m 673.805,985.75 -65.528,-32.719 c 10.313,20.59 10.313,44.848 0,65.439 l 65.528,-32.72 v 0 0 0"
         style="fill:#0e0f0e;fill-opacity:1;fill-rule:evenodd;stroke:none"
         id="path296" /><path
         d="M 515.066,783.59 H 624.203"
         style="fill:none;stroke:#0e0f0e;stroke-width:7.51407;stroke-linecap:round;stroke-linejoin:round;stroke-miterlimit:10;stroke-dasharray:none;stroke-opacity:1"
         id="path298" /><path
         d="m 673.805,783.59 -65.528,-32.711 c 10.313,20.59 10.313,44.851 0,65.461 l 65.528,-32.75 v 0 0 0"
         style="fill:#0e0f0e;fill-opacity:1;fill-rule:evenodd;stroke:none"
         id="path300" /><g
         id="g302"
         transform="scale(10)"><text
           transform="matrix(1,0,0,-0.99891119,34.1559,61.65)"
           style="font-variant:normal;font-weight:normal;font-size:12.0236px;font-family:'Microsoft Sans Serif';-inkscape-font-specification:MicrosoftSansSerif;writing-mode:lr-tb;fill:#0e0f0e;fill-opacity:1;fill-rule:nonzero;stroke:none"
           id="text308"><tspan
             x="0 6.6630864"
             y="0"
             sodipodi:role="line"
             id="tspan304">««</tspan><tspan
             x="0 6.6630864"
             y="14.429811"
             sodipodi:role="line"
             id="tspan306">««</tspan></text></g><path
         d="M 515.066,372.219 H 624.203"
         style="fill:none;stroke:#0e0f0e;stroke-width:7.51407;stroke-linecap:round;stroke-linejoin:round;stroke-miterlimit:10;stroke-dasharray:none;stroke-opacity:1"
         id="path310" /><path
         d="m 673.805,372.219 -65.528,-32.727 c 10.313,20.61 10.313,44.848 0,65.457 l 65.528,-32.73 v 0 0 0"
         style="fill:#0e0f0e;fill-opacity:1;fill-rule:evenodd;stroke:none"
         id="path312" /><path
         d="M 929.426,668.391 H 1249.05"
         style="fill:none;stroke:#0e0f0e;stroke-width:7.51407;stroke-linecap:round;stroke-linejoin:round;stroke-miterlimit:10;stroke-dasharray:none;stroke-opacity:1"
         id="path314" /><path
         d="m 1298.66,668.391 -65.54,-32.75 c 10.32,20.621 10.32,44.871 0,65.468 l 65.54,-32.718 v 0 0 0"
         style="fill:#0e0f0e;fill-opacity:1;fill-rule:evenodd;stroke:none"
         id="path316" /><path
         d="m 2321.13,2522.38 h 916.08"
         style="fill:none;stroke:#0e0f0e;stroke-width:7.51407;stroke-linecap:round;stroke-linejoin:round;stroke-miterlimit:10;stroke-dasharray:none;stroke-opacity:1"
         id="path318" /><path
         d="m 3286.81,2522.38 -65.52,-32.73 c 10.31,20.59 10.31,44.85 0,65.46 l 65.52,-32.73 v 0 0 0"
         style="fill:#0e0f0e;fill-opacity:1;fill-rule:evenodd;stroke:none"
         id="path320" /><path
         d="m 2321.13,3671.42 h 113.61 V 2635.86 h 802.47"
         style="fill:none;stroke:#0e0f0e;stroke-width:7.51407;stroke-linecap:round;stroke-linejoin:round;stroke-miterlimit:10;stroke-dasharray:none;stroke-opacity:1"
         id="path322" /><path
         d="m 3286.81,2635.86 -65.52,-32.74 c 10.31,20.61 10.31,44.87 0,65.47 l 65.52,-32.73 v 0 0 0"
         style="fill:#0e0f0e;fill-opacity:1;fill-rule:evenodd;stroke:none"
         id="path324" /><path
         d="m 2349.54,609.051 h 142.01 v 924.689 h 745.66"
         style="fill:none;stroke:#0e0f0e;stroke-width:7.51407;stroke-linecap:round;stroke-linejoin:round;stroke-miterlimit:10;stroke-dasharray:none;stroke-opacity:1"
         id="path326" /><path
         d="m 3286.81,1531.01 -65.52,-32.73 c 10.31,20.6 10.31,44.84 0,65.46 l 65.52,-32.73 v 0 0 0"
         style="fill:#0e0f0e;fill-opacity:1;fill-rule:evenodd;stroke:none"
         id="path328" /><path
         d="m 3620.94,2111.39 v 50.04 l -50.11,-100.08 50.11,-100.09 v 50.04 h 751.86 v -50.04 l 50.1,100.09 -50.1,100.08 v -50.04 h -751.86 v 0 0 0"
         style="fill:#f5f4f3;fill-opacity:1;fill-rule:evenodd;stroke:none"
         id="path330" /><path
         d="m 3620.94,2111.39 v 50.04 l -50.11,-100.08 50.11,-100.09 v 50.04 h 751.86 v -50.04 l 50.1,100.09 -50.1,100.08 v -50.04 h -751.86 v 0 0 z"
         style="fill:none;stroke:#0e0f0e;stroke-width:7.51407;stroke-linecap:round;stroke-linejoin:round;stroke-miterlimit:10;stroke-dasharray:none;stroke-opacity:1"
         id="path332" /><g
         id="g334"
         transform="scale(10)"><text
           transform="matrix(1,0,0,-0.99891119,378.132,203.736)"
           style="font-variant:normal;font-weight:normal;font-size:8.26622px;font-family:'Microsoft Sans Serif';-inkscape-font-specification:MicrosoftSansSerif;writing-mode:lr-tb;fill:#0e0f0e;fill-opacity:1;fill-rule:nonzero;stroke:none"
           id="text338"><tspan
             x="0 5.2656198 11.282026 16.547646 18.796875 25.566401 30.078119 33.838867 36.101963 40.616634"
             y="0"
             sodipodi:role="line"
             id="tspan336">AHB Master</tspan></text></g><path
         d="m 2661.96,730.988 h 852.07 V 247.109 h -852.07 v 483.879 0 0"
         style="fill:#ffffff;fill-opacity:1;fill-rule:evenodd;stroke:none"
         id="path340" /><path
         d="m 2661.96,247.109 h 852.07 v 483.879 h -852.07 v -483.879 0 0 z"
         style="fill:none;stroke:#0e0f0e;stroke-width:7.51407;stroke-linecap:round;stroke-linejoin:round;stroke-miterlimit:10;stroke-dasharray:none;stroke-opacity:1"
         id="path342" /><g
         id="g344"
         transform="scale(10)"><text
           transform="matrix(1,0,0,-0.99891119,285.445,51.9078)"
           style="font-variant:normal;font-weight:normal;font-size:9.76917px;font-family:'Microsoft Sans Serif';-inkscape-font-specification:MicrosoftSansSerif;writing-mode:lr-tb;fill:#0e0f0e;fill-opacity:1;fill-rule:nonzero;stroke:none"
           id="text350"><tspan
             x="0 6.7597594 14.265225 20.282799 23.297251 28.553099 30.797237 36.063831 41.319874"
             y="0"
             sodipodi:role="line"
             id="tspan346">AHB slave</tspan><tspan
             x="-6.7499995 0.0097598499 3.0230398 9.0327969 14.297248 18.048233 23.31991 31.584555 39.849201 42.09412 48.103878"
             y="12.020889"
             sodipodi:role="line"
             id="tspan348">Programming</tspan></text></g><path
         d="m 3568.61,539.102 v 50.039 l -50.1,-100.09 50.1,-100.09 v 50.051 h 751.88 v -50.051 l 50.09,100.09 -50.09,100.09 v -50.039 h -751.88 v 0 0 0"
         style="fill:#ffffff;fill-opacity:1;fill-rule:evenodd;stroke:none"
         id="path352" /><path
         d="m 3568.61,539.102 v 50.039 l -50.1,-100.09 50.1,-100.09 v 50.051 h 751.88 v -50.051 l 50.09,100.09 -50.09,100.09 v -50.039 h -751.88 v 0 0 z"
         style="fill:none;stroke:#0e0f0e;stroke-width:7.51407;stroke-linecap:round;stroke-linejoin:round;stroke-miterlimit:10;stroke-dasharray:none;stroke-opacity:1"
         id="path354" /><g
         id="g356"
         transform="scale(10)"><text
           transform="matrix(1,0,0,-0.99891119,375.101,46.5102)"
           style="font-variant:normal;font-weight:normal;font-size:8.26622px;font-family:'Microsoft Sans Serif';-inkscape-font-specification:MicrosoftSansSerif;writing-mode:lr-tb;fill:#0e0f0e;fill-opacity:1;fill-rule:nonzero;stroke:none"
           id="text360"><tspan
             x="0 5.2656198 11.280854 16.546474 18.796875 24.062494 25.562885 30.077532 34.58593"
             y="0"
             sodipodi:role="line"
             id="tspan358">AHB Slave</tspan></text></g><path
         d="M 4482.49,3.75 H 3.75 v 4540 h 4478.74 z"
         style="fill:none;stroke:#231f20;stroke-width:7.5;stroke-linecap:butt;stroke-linejoin:miter;stroke-miterlimit:10;stroke-dasharray:none;stroke-opacity:1"
         id="path362" /><g
         id="g364"
         transform="scale(10)"><text
           transform="matrix(1,0,0,-1,165.312,175.042)"
           style="font-variant:normal;font-size:12px;font-family:AdobeSongStd-Light-GBK-EUC;-inkscape-font-specification:AdobeSongStd-Light-GBK-EUC-H;writing-mode:lr-tb;fill:#231f20;fill-opacity:1;fill-rule:nonzero;stroke:none"
           id="text372"><tspan
             x="0"
             y="0"
             id="tspan366">·</tspan><tspan
             x="0"
             y="14.4"
             id="tspan368">·</tspan><tspan
             x="0"
             y="28.799999"
             id="tspan370">·</tspan></text></g></g></g></svg>
