<?xml version="1.0" encoding="UTF-8" standalone="no"?>
<svg
   xmlns:dc="http://purl.org/dc/elements/1.1/"
   xmlns:cc="http://creativecommons.org/ns#"
   xmlns:rdf="http://www.w3.org/1999/02/22-rdf-syntax-ns#"
   xmlns:svg="http://www.w3.org/2000/svg"
   xmlns="http://www.w3.org/2000/svg"
   xmlns:sodipodi="http://sodipodi.sourceforge.net/DTD/sodipodi-0.dtd"
   xmlns:inkscape="http://www.inkscape.org/namespaces/inkscape"
   version="1.1"
   id="svg2"
   xml:space="preserve"
   width="688.88"
   height="166.73334"
   viewBox="0 0 688.88 166.73334"
   sodipodi:docname="master_tx_rx.svg"
   inkscape:version="1.0.1 (3bc2e813f5, 2020-09-07)"><metadata
     id="metadata8"><rdf:RDF><cc:Work
         rdf:about=""><dc:format>image/svg+xml</dc:format><dc:type
           rdf:resource="http://purl.org/dc/dcmitype/StillImage" /><dc:title></dc:title></cc:Work></rdf:RDF></metadata><defs
     id="defs6" /><sodipodi:namedview
     pagecolor="#ffffff"
     bordercolor="#666666"
     borderopacity="1"
     objecttolerance="10"
     gridtolerance="10"
     guidetolerance="10"
     inkscape:pageopacity="0"
     inkscape:pageshadow="2"
     inkscape:window-width="786"
     inkscape:window-height="480"
     id="namedview4"
     showgrid="false"
     inkscape:zoom="1.5967948"
     inkscape:cx="114.77367"
     inkscape:cy="83.366669"
     inkscape:window-x="0"
     inkscape:window-y="0"
     inkscape:window-maximized="0"
     inkscape:current-layer="g10" /><g
     id="g10"
     inkscape:groupmode="layer"
     inkscape:label="ink_ext_XXXXXX"
     transform="matrix(1.3333333,0,0,-1.3333333,0,166.73333)"><g
       id="g12"
       transform="scale(0.1)"><path
         d="m 365.676,470.219 v -10 h 5 v 10 z m 0,40 v -10 h 5 v 10 z m 0,40 v -10 h 5 v 10 z m 0,40 v -10 h 5 v 10 z m 0,40 v -10 h 5 v 10 z m 0,40 v -10 h 5 v 10 z m 0,40 v -10 h 5 v 10 z m 0,40 v -10 h 5 v 10 z m 0,40 v -10 h 5 v 10 z m 0,40 v -10 h 5 v 10 z m 0,40 v -10 h 5 v 10 z m 0,40 v -10 h 5 v 10 z m 0,40 v -10 h 5 v 10 z m 0,40 v -10 h 5 v 10 z m 0,40.001 v -10 h 5 v 10 z m 0,40 v -10 h 5 v 10 z m 0,40 v -10 h 5 v 10 h -5"
         style="fill:#7f8288;fill-opacity:1;fill-rule:nonzero;stroke:none"
         id="path14" /><path
         d="m 564.199,470.219 v -10 h 5 v 10 z m 0,40 v -10 h 5 v 10 z m 0,40 v -10 h 5 v 10 z m 0,40 v -10 h 5 v 10 z m 0,40 v -10 h 5 v 10 z m 0,40 v -10 h 5 v 10 z m 0,40 v -10 h 5 v 10 z m 0,40 v -10 h 5 v 10 z m 0,40 v -10 h 5 v 10 z m 0,40 v -10 h 5 v 10 z m 0,40 v -10 h 5 v 10 z m 0,40 v -10 h 5 v 10 z m 0,40 v -10 h 5 v 10 z m 0,40 v -10 h 5 v 10 z m 0,40.001 v -10 h 5 v 10 z m 0,40 v -10 h 5 v 10 z m 0,40 v -10 h 5 v 10 h -5"
         style="fill:#7f8288;fill-opacity:1;fill-rule:nonzero;stroke:none"
         id="path16" /><path
         d="m 762.719,470.219 v -10 h 5 v 10 z m 0,40 v -10 h 5 v 10 z m 0,40 v -10 h 5 v 10 z m 0,40 v -10 h 5 v 10 z m 0,40 v -10 h 5 v 10 z m 0,40 v -10 h 5 v 10 z m 0,40 v -10 h 5 v 10 z m 0,40 v -10 h 5 v 10 z m 0,40 v -10 h 5 v 10 z m 0,40 v -10 h 5 v 10 z m 0,40 v -10 h 5 v 10 z m 0,40 v -10 h 5 v 10 z m 0,40 v -10 h 5 v 10 z m 0,40 v -10 h 5 v 10 z m 0,40.001 v -10 h 5 v 10 z m 0,40 v -10 h 5 v 10 z m 0,40 v -10 h 5 v 10 h -5"
         style="fill:#7f8288;fill-opacity:1;fill-rule:nonzero;stroke:none"
         id="path18" /><path
         d="m 961.246,470.219 v -10 h 5 v 10 z m 0,40 v -10 h 5 v 10 z m 0,40 v -10 h 5 v 10 z m 0,40 v -10 h 5 v 10 z m 0,40 v -10 h 5 v 10 z m 0,40 v -10 h 5 v 10 z m 0,40 v -10 h 5 v 10 z m 0,40 v -10 h 5 v 10 z m 0,40 v -10 h 5 v 10 z m 0,40 v -10 h 5 v 10 z m 0,40 v -10 h 5 v 10 z m 0,40 v -10 h 5 v 10 z m 0,40 v -10 h 5 v 10 z m 0,40 v -10 h 5 v 10 z m 0,40.001 v -10 h 5 v 10 z m 0,40 v -10 h 5 v 10 z m 0,40 v -10 h 5 v 10 h -5"
         style="fill:#7f8288;fill-opacity:1;fill-rule:nonzero;stroke:none"
         id="path20" /><path
         d="m 1159.77,470.219 v -10 h 5 v 10 z m 0,40 v -10 h 5 v 10 z m 0,40 v -10 h 5 v 10 z m 0,40 v -10 h 5 v 10 z m 0,40 v -10 h 5 v 10 z m 0,40 v -10 h 5 v 10 z m 0,40 v -10 h 5 v 10 z m 0,40 v -10 h 5 v 10 z m 0,40 v -10 h 5 v 10 z m 0,40 v -10 h 5 v 10 z m 0,40 v -10 h 5 v 10 z m 0,40 v -10 h 5 v 10 z m 0,40 v -10 h 5 v 10 z m 0,40 v -10 h 5 v 10 z m 0,40.001 v -10 h 5 v 10 z m 0,40 v -10 h 5 v 10 z m 0,40 v -10 h 5 v 10 h -5"
         style="fill:#7f8288;fill-opacity:1;fill-rule:nonzero;stroke:none"
         id="path22" /><path
         d="m 1358.29,470.219 v -10 h 5 v 10 z m 0,40 v -10 h 5 v 10 z m 0,40 v -10 h 5 v 10 z m 0,40 v -10 h 5 v 10 z m 0,40 v -10 h 5 v 10 z m 0,40 v -10 h 5 v 10 z m 0,40 v -10 h 5 v 10 z m 0,40 v -10 h 5 v 10 z m 0,40 v -10 h 5 v 10 z m 0,40 v -10 h 5 v 10 z m 0,40 v -10 h 5 v 10 z m 0,40 v -10 h 5 v 10 z m 0,40 v -10 h 5 v 10 z m 0,40 v -10 h 5 v 10 z m 0,40.001 v -10 h 5 v 10 z m 0,40 v -10 h 5 v 10 z m 0,40 v -10 h 5 v 10 h -5"
         style="fill:#7f8288;fill-opacity:1;fill-rule:nonzero;stroke:none"
         id="path24" /><path
         d="m 1556.81,470.219 v -10 h 5 v 10 z m 0,40 v -10 h 5 v 10 z m 0,40 v -10 h 5 v 10 z m 0,40 v -10 h 5 v 10 z m 0,40 v -10 h 5 v 10 z m 0,40 v -10 h 5 v 10 z m 0,40 v -10 h 5 v 10 z m 0,40 v -10 h 5 v 10 z m 0,40 v -10 h 5 v 10 z m 0,40 v -10 h 5 v 10 z m 0,40 v -10 h 5 v 10 z m 0,40 v -10 h 5 v 10 z m 0,40 v -10 h 5 v 10 z m 0,40 v -10 h 5 v 10 z m 0,40.001 v -10 h 5 v 10 z m 0,40 v -10 h 5 v 10 z m 0,40 v -10 h 5 v 10 h -5"
         style="fill:#7f8288;fill-opacity:1;fill-rule:nonzero;stroke:none"
         id="path26" /><path
         d="m 1755.34,470.219 v -10 h 5 v 10 z m 0,40 v -10 h 5 v 10 z m 0,40 v -10 h 5 v 10 z m 0,40 v -10 h 5 v 10 z m 0,40 v -10 h 5 v 10 z m 0,40 v -10 h 5 v 10 z m 0,40 v -10 h 5 v 10 z m 0,40 v -10 h 5 v 10 z m 0,40 v -10 h 5 v 10 z m 0,40 v -10 h 5 v 10 z m 0,40 v -10 h 5 v 10 z m 0,40 v -10 h 5 v 10 z m 0,40 v -10 h 5 v 10 z m 0,40 v -10 h 5 v 10 z m 0,40.001 v -10 h 5 v 10 z m 0,40 v -10 h 5 v 10 z m 0,40 v -10 h 5 v 10 h -5"
         style="fill:#7f8288;fill-opacity:1;fill-rule:nonzero;stroke:none"
         id="path28" /><path
         d="m 1953.86,470.219 v -10 h 5 v 10 z m 0,40 v -10 h 5 v 10 z m 0,40 v -10 h 5 v 10 z m 0,40 v -10 h 5 v 10 z m 0,40 v -10 h 5 v 10 z m 0,40 v -10 h 5 v 10 z m 0,40 v -10 h 5 v 10 z m 0,40 v -10 h 5 v 10 z m 0,40 v -10 h 5 v 10 z m 0,40 v -10 h 5 v 10 z m 0,40 v -10 h 5 v 10 z m 0,40 v -10 h 5 v 10 z m 0,40 v -10 h 5 v 10 z m 0,40 v -10 h 5 v 10 z m 0,40.001 v -10 h 5 v 10 z m 0,40 v -10 h 5 v 10 z m 0,40 v -10 h 5 v 10 h -5"
         style="fill:#7f8288;fill-opacity:1;fill-rule:nonzero;stroke:none"
         id="path30" /><path
         d="m 2152.38,470.219 v -10 h 5 v 10 z m 0,40 v -10 h 5 v 10 z m 0,40 v -10 h 5 v 10 z m 0,40 v -10 h 5 v 10 z m 0,40 v -10 h 5 v 10 z m 0,40 v -10 h 5 v 10 z m 0,40 v -10 h 5 v 10 z m 0,40 v -10 h 5 v 10 z m 0,40 v -10 h 5 v 10 z m 0,40 v -10 h 5 v 10 z m 0,40 v -10 h 5 v 10 z m 0,40 v -10 h 5 v 10 z m 0,40 v -10 h 5 v 10 z m 0,40 v -10 h 5 v 10 z m 0,40.001 v -10 h 5 v 10 z m 0,40 v -10 h 5 v 10 z m 0,40 v -10 h 5 v 10 h -5"
         style="fill:#7f8288;fill-opacity:1;fill-rule:nonzero;stroke:none"
         id="path32" /><path
         d="m 2350.91,470.219 v -10 h 5 v 10 z m 0,40 v -10 h 5 v 10 z m 0,40 v -10 h 5 v 10 z m 0,40 v -10 h 5 v 10 z m 0,40 v -10 h 5 v 10 z m 0,40 v -10 h 5 v 10 z m 0,40 v -10 h 5 v 10 z m 0,40 v -10 h 5 v 10 z m 0,40 v -10 h 5 v 10 z m 0,40 v -10 h 5 v 10 z m 0,40 v -10 h 5 v 10 z m 0,40 v -10 h 5 v 10 z m 0,40 v -10 h 5 v 10 z m 0,40 v -10 h 5 v 10 z m 0,40.001 v -10 h 5 v 10 z m 0,40 v -10 h 5 v 10 z m 0,40 v -10 h 5 v 10 h -5"
         style="fill:#7f8288;fill-opacity:1;fill-rule:nonzero;stroke:none"
         id="path34" /><path
         d="m 2549.43,470.219 v -10 h 5 v 10 z m 0,40 v -10 h 5 v 10 z m 0,40 v -10 h 5 v 10 z m 0,40 v -10 h 5 v 10 z m 0,40 v -10 h 5 v 10 z m 0,40 v -10 h 5 v 10 z m 0,40 v -10 h 5 v 10 z m 0,40 v -10 h 5 v 10 z m 0,40 v -10 h 5 v 10 z m 0,40 v -10 h 5 v 10 z m 0,40 v -10 h 5 v 10 z m 0,40 v -10 h 5 v 10 z m 0,40 v -10 h 5 v 10 z m 0,40 v -10 h 5 v 10 z m 0,40.001 v -10 h 5 v 10 z m 0,40 v -10 h 5 v 10 z m 0,40 v -10 h 5 v 10 h -5"
         style="fill:#7f8288;fill-opacity:1;fill-rule:nonzero;stroke:none"
         id="path36" /><path
         d="m 2747.95,470.219 v -10 h 5 v 10 z m 0,40 v -10 h 5 v 10 z m 0,40 v -10 h 5 v 10 z m 0,40 v -10 h 5 v 10 z m 0,40 v -10 h 5 v 10 z m 0,40 v -10 h 5 v 10 z m 0,40 v -10 h 5 v 10 z m 0,40 v -10 h 5 v 10 z m 0,40 v -10 h 5 v 10 z m 0,40 v -10 h 5 v 10 z m 0,40 v -10 h 5 v 10 z m 0,40 v -10 h 5 v 10 z m 0,40 v -10 h 5 v 10 z m 0,40 v -10 h 5 v 10 z m 0,40.001 v -10 h 5 v 10 z m 0,40 v -10 h 5 v 10 z m 0,40 v -10 h 5 v 10 h -5"
         style="fill:#7f8288;fill-opacity:1;fill-rule:nonzero;stroke:none"
         id="path38" /><path
         d="m 2946.48,470.219 v -10 h 5 v 10 z m 0,40 v -10 h 5 v 10 z m 0,40 v -10 h 5 v 10 z m 0,40 v -10 h 5 v 10 z m 0,40 v -10 h 5 v 10 z m 0,40 v -10 h 5 v 10 z m 0,40 v -10 h 5 v 10 z m 0,40 v -10 h 5 v 10 z m 0,40 v -10 h 5 v 10 z m 0,40 v -10 h 5 v 10 z m 0,40 v -10 h 5 v 10 z m 0,40 v -10 h 5 v 10 z m 0,40 v -10 h 5 v 10 z m 0,40 v -10 h 5 v 10 z m 0,40.001 v -10 h 5 v 10 z m 0,40 v -10 h 5 v 10 z m 0,40 v -10 h 5 v 10 h -5"
         style="fill:#7f8288;fill-opacity:1;fill-rule:nonzero;stroke:none"
         id="path40" /><path
         d="m 3145,470.219 v -10 h 5 v 10 z m 0,40 v -10 h 5 v 10 z m 0,40 v -10 h 5 v 10 z m 0,40 v -10 h 5 v 10 z m 0,40 v -10 h 5 v 10 z m 0,40 v -10 h 5 v 10 z m 0,40 v -10 h 5 v 10 z m 0,40 v -10 h 5 v 10 z m 0,40 v -10 h 5 v 10 z m 0,40 v -10 h 5 v 10 z m 0,40 v -10 h 5 v 10 z m 0,40 v -10 h 5 v 10 z m 0,40 v -10 h 5 v 10 z m 0,40 v -10 h 5 v 10 z m 0,40.001 v -10 h 5 v 10 z m 0,40 v -10 h 5 v 10 z m 0,40 v -10 h 5 v 10 h -5"
         style="fill:#7f8288;fill-opacity:1;fill-rule:nonzero;stroke:none"
         id="path42" /><path
         d="m 3343.52,470.219 v -10 h 5 v 10 z m 0,40 v -10 h 5 v 10 z m 0,40 v -10 h 5 v 10 z m 0,40 v -10 h 5 v 10 z m 0,40 v -10 h 5 v 10 z m 0,40 v -10 h 5 v 10 z m 0,40 v -10 h 5 v 10 z m 0,40 v -10 h 5 v 10 z m 0,40 v -10 h 5 v 10 z m 0,40 v -10 h 5 v 10 z m 0,40 v -10 h 5 v 10 z m 0,40 v -10 h 5 v 10 z m 0,40 v -10 h 5 v 10 z m 0,40 v -10 h 5 v 10 z m 0,40.001 v -10 h 5 v 10 z m 0,40 v -10 h 5 v 10 z m 0,40 v -10 h 5 v 10 h -5"
         style="fill:#7f8288;fill-opacity:1;fill-rule:nonzero;stroke:none"
         id="path44" /><path
         d="m 3542.05,470.219 v -10 h 5 v 10 z m 0,40 v -10 h 5 v 10 z m 0,40 v -10 h 5 v 10 z m 0,40 v -10 h 5 v 10 z m 0,40 v -10 h 5 v 10 z m 0,40 v -10 h 5 v 10 z m 0,40 v -10 h 5 v 10 z m 0,40 v -10 h 5 v 10 z m 0,40 v -10 h 5 v 10 z m 0,40 v -10 h 5 v 10 z m 0,40 v -10 h 5 v 10 z m 0,40 v -10 h 5 v 10 z m 0,40 v -10 h 5 v 10 z m 0,40 v -10 h 5 v 10 z m 0,40.001 v -10 h 5 v 10 z m 0,40 v -10 h 5 v 10 z m 0,40 v -10 h 5 v 10 h -5"
         style="fill:#7f8288;fill-opacity:1;fill-rule:nonzero;stroke:none"
         id="path46" /><path
         d="m 3740.57,470.219 v -10 h 5 v 10 z m 0,40 v -10 h 5 v 10 z m 0,40 v -10 h 5 v 10 z m 0,40 v -10 h 5 v 10 z m 0,40 v -10 h 5 v 10 z m 0,40 v -10 h 5 v 10 z m 0,40 v -10 h 5 v 10 z m 0,40 v -10 h 5 v 10 z m 0,40 v -10 h 5 v 10 z m 0,40 v -10 h 5 v 10 z m 0,40 v -10 h 5 v 10 z m 0,40 v -10 h 5 v 10 z m 0,40 v -10 h 5 v 10 z m 0,40 v -10 h 5 v 10 z m 0,40.001 v -10 h 5 v 10 z m 0,40 v -10 h 5 v 10 z m 0,40 v -10 h 5 v 10 h -5"
         style="fill:#7f8288;fill-opacity:1;fill-rule:nonzero;stroke:none"
         id="path48" /><path
         d="m 3939.09,470.219 v -10 h 5 v 10 z m 0,40 v -10 h 5 v 10 z m 0,40 v -10 h 5 v 10 z m 0,40 v -10 h 5 v 10 z m 0,40 v -10 h 5 v 10 z m 0,40 v -10 h 5 v 10 z m 0,40 v -10 h 5 v 10 z m 0,40 v -10 h 5 v 10 z m 0,40 v -10 h 5 v 10 z m 0,40 v -10 h 5 v 10 z m 0,40 v -10 h 5 v 10 z m 0,40 v -10 h 5 v 10 z m 0,40 v -10 h 5 v 10 z m 0,40 v -10 h 5 v 10 z m 0,40.001 v -10 h 5 v 10 z m 0,40 v -10 h 5 v 10 z m 0,40 v -10 h 5 v 10 h -5"
         style="fill:#7f8288;fill-opacity:1;fill-rule:nonzero;stroke:none"
         id="path50" /><path
         d="m 4137.61,470.219 v -10 h 5 v 10 z m 0,40 v -10 h 5 v 10 z m 0,40 v -10 h 5 v 10 z m 0,40 v -10 h 5 v 10 z m 0,40 v -10 h 5 v 10 z m 0,40 v -10 h 5 v 10 z m 0,40 v -10 h 5 v 10 z m 0,40 v -10 h 5 v 10 z m 0,40 v -10 h 5 v 10 z m 0,40 v -10 h 5 v 10 z m 0,40 v -10 h 5 v 10 z m 0,40 v -10 h 5 v 10 z m 0,40 v -10 h 5 v 10 z m 0,40 v -10 h 5 v 10 z m 0,40.001 v -10 h 5 v 10 z m 0,40 v -10 h 5 v 10 z m 0,40 v -10 h 5 v 10 h -5"
         style="fill:#7f8288;fill-opacity:1;fill-rule:nonzero;stroke:none"
         id="path52" /><path
         d="m 4336.14,470.219 v -10 h 5 v 10 z m 0,40 v -10 h 5 v 10 z m 0,40 v -10 h 5 v 10 z m 0,40 v -10 h 5 v 10 z m 0,40 v -10 h 5 v 10 z m 0,40 v -10 h 5 v 10 z m 0,40 v -10 h 5 v 10 z m 0,40 v -10 h 5 v 10 z m 0,40 v -10 h 5 v 10 z m 0,40 v -10 h 5 v 10 z m 0,40 v -10 h 5 v 10 z m 0,40 v -10 h 5 v 10 z m 0,40 v -10 h 5 v 10 z m 0,40 v -10 h 5 v 10 z m 0,40.001 v -10 h 5 v 10 z m 0,40 v -10 h 5 v 10 z m 0,40 v -10 h 5 v 10 h -5"
         style="fill:#7f8288;fill-opacity:1;fill-rule:nonzero;stroke:none"
         id="path54" /><path
         d="m 4534.66,470.219 v -10 h 5 v 10 z m 0,40 v -10 h 5 v 10 z m 0,40 v -10 h 5 v 10 z m 0,40 v -10 h 5 v 10 z m 0,40 v -10 h 5 v 10 z m 0,40 v -10 h 5 v 10 z m 0,40 v -10 h 5 v 10 z m 0,40 v -10 h 5 v 10 z m 0,40 v -10 h 5 v 10 z m 0,40 v -10 h 5 v 10 z m 0,40 v -10 h 5 v 10 z m 0,40 v -10 h 5 v 10 z m 0,40 v -10 h 5 v 10 z m 0,40 v -10 h 5 v 10 z m 0,40.001 v -10 h 5 v 10 z m 0,40 v -10 h 5 v 10 z m 0,40 v -10 h 5 v 10 h -5"
         style="fill:#7f8288;fill-opacity:1;fill-rule:nonzero;stroke:none"
         id="path56" /><path
         d="m 4733.18,470.219 v -10 h 5 v 10 h -5 m 0,40 v -10 h 5 v 10 h -5 m 0,40 v -10 h 5 v 10 h -5 m 0,40 v -10 h 5 v 10 h -5 m 0,40 v -10 h 5 v 10 h -5 m 0,40 v -10 h 5 v 10 h -5 m 0,40 v -10 h 5 v 10 h -5 m 0,40 v -10 h 5 v 10 h -5 m 0,40 v -10 h 5 v 10 h -5 m 0,40 v -10 h 5 v 10 h -5 m 0,40 v -10 h 5 v 10 h -5 m 0,40 v -10 h 5 v 10 h -5 m 0,40 v -10 h 5 v 10 h -5 m 0,40 v -10 h 5 v 10 h -5 m 0,40.001 v -10 h 5 v 10 h -5 m 0,40 v -10 h 5 v 10 h -5 m 0,40 v -10 h 5 v 10 h -5"
         style="fill:#7f8288;fill-opacity:1;fill-rule:nonzero;stroke:none"
         id="path58" /><path
         d="m 4931.7,470.219 v -10 h 5 v 10 z m 0,40 v -10 h 5 v 10 z m 0,40 v -10 h 5 v 10 z m 0,40 v -10 h 5 v 10 z m 0,40 v -10 h 5 v 10 z m 0,40 v -10 h 5 v 10 z m 0,40 v -10 h 5 v 10 z m 0,40 v -10 h 5 v 10 z m 0,40 v -10 h 5 v 10 z m 0,40 v -10 h 5 v 10 z m 0,40 v -10 h 5 v 10 z m 0,40 v -10 h 5 v 10 z m 0,40 v -10 h 5 v 10 z m 0,40 v -10 h 5 v 10 z m 0,40.001 v -10 h 5 v 10 z m 0,40 v -10 h 5 v 10 z m 0,40 v -10 h 5 v 10 h -5"
         style="fill:#7f8288;fill-opacity:1;fill-rule:nonzero;stroke:none"
         id="path60" /><g
         id="g62"
         transform="scale(10)"><text
           transform="matrix(1,0,0,-0.93794552,10.7348,89.0152)"
           style="font-variant:normal;font-weight:normal;font-size:11.7278px;font-family:Arial;-inkscape-font-specification:ArialMT;writing-mode:lr-tb;fill:#344ea9;fill-opacity:1;fill-rule:nonzero;stroke:none"
           id="text66"><tspan
             x="0 7.8224158 16.289181"
             y="0"
             sodipodi:role="line"
             id="tspan64">SDA</tspan></text></g><path
         d="m 368.176,1036.47 h 99.262 c 2.07,0 3.75,1.68 3.75,3.75 0,2.07 -1.68,3.75 -3.75,3.75 h -99.262 c -2.071,0 -3.75,-1.68 -3.75,-3.75 0,-2.07 1.679,-3.75 3.75,-3.75"
         style="fill:#0e0f0f;fill-opacity:1;fill-rule:nonzero;stroke:none"
         id="path68" /><path
         d="m 467.438,1036.47 h 99.261 c 2.071,0 3.75,1.68 3.75,3.75 0,2.07 -1.679,3.75 -3.75,3.75 h -99.261 c -2.071,0 -3.75,-1.68 -3.75,-3.75 0,-2.07 1.679,-3.75 3.75,-3.75"
         style="fill:#0e0f0f;fill-opacity:1;fill-rule:nonzero;stroke:none"
         id="path70" /><path
         d="m 566.699,1036.47 h 11.656 l 29.782,-200.001 h 57.824 c 2.07,0 3.75,1.679 3.75,3.75 0,2.078 -1.68,3.75 -3.75,3.75 H 614.602 L 584.82,1043.97 h -18.121 c -2.07,0 -3.75,-1.68 -3.75,-3.75 0,-2.07 1.68,-3.75 3.75,-3.75 v 0"
         style="fill:#0e0f0f;fill-opacity:1;fill-rule:nonzero;stroke:none"
         id="path72" /><path
         d="m 665.961,836.469 h 99.258 c 2.07,0 3.75,1.679 3.75,3.75 0,2.078 -1.68,3.75 -3.75,3.75 h -99.258 c -2.07,0 -3.75,-1.672 -3.75,-3.75 0,-2.071 1.68,-3.75 3.75,-3.75"
         style="fill:#0e0f0f;fill-opacity:1;fill-rule:nonzero;stroke:none"
         id="path74" /><path
         d="M 809.887,1040.22 H 864.48 V 840.219 h -84.367 l 29.774,200.001 v 0"
         style="fill:#ffffff;fill-opacity:1;fill-rule:nonzero;stroke:none"
         id="path76" /><path
         d="m 783.824,839.672 29.297,196.798 h 51.359 c 2.075,0 3.75,1.68 3.75,3.75 0,2.07 -1.675,3.75 -3.75,3.75 h -57.824 l -30.25,-203.197 c -0.308,-2.05 1.106,-3.953 3.157,-4.257 2.046,-0.313 3.953,1.105 4.261,3.156 v 0"
         style="fill:#0e0f0f;fill-opacity:1;fill-rule:nonzero;stroke:none"
         id="path78" /><path
         d="m 765.219,836.469 h 99.261 c 2.075,0 3.75,1.679 3.75,3.75 0,2.078 -1.675,3.75 -3.75,3.75 h -99.261 c -2.071,0 -3.75,-1.672 -3.75,-3.75 0,-2.071 1.679,-3.75 3.75,-3.75"
         style="fill:#0e0f0f;fill-opacity:1;fill-rule:nonzero;stroke:none"
         id="path80" /><path
         d="m 864.48,840.219 h 99.2656 v 200 H 864.48 Z"
         style="fill:#ffffff;fill-opacity:1;fill-rule:nonzero;stroke:none"
         id="path82" /><path
         d="m 864.48,836.469 h 99.266 c 2.07,0 3.75,1.679 3.75,3.75 0,2.078 -1.68,3.75 -3.75,3.75 H 864.48 c -2.07,0 -3.75,-1.672 -3.75,-3.75 0,-2.071 1.68,-3.75 3.75,-3.75"
         style="fill:#0e0f0f;fill-opacity:1;fill-rule:nonzero;stroke:none"
         id="path84" /><path
         d="m 864.48,1036.47 h 99.266 c 2.07,0 3.75,1.68 3.75,3.75 0,2.07 -1.68,3.75 -3.75,3.75 H 864.48 c -2.07,0 -3.75,-1.68 -3.75,-3.75 0,-2.07 1.68,-3.75 3.75,-3.75"
         style="fill:#0e0f0f;fill-opacity:1;fill-rule:nonzero;stroke:none"
         id="path86" /><path
         d="m 963.746,840.219 h 99.2656 v 200 H 963.746 Z"
         style="fill:#ffffff;fill-opacity:1;fill-rule:nonzero;stroke:none"
         id="path88" /><path
         d="m 963.746,836.469 h 99.264 c 2.07,0 3.75,1.679 3.75,3.75 0,2.078 -1.68,3.75 -3.75,3.75 h -99.264 c -2.07,0 -3.75,-1.672 -3.75,-3.75 0,-2.071 1.68,-3.75 3.75,-3.75"
         style="fill:#0e0f0f;fill-opacity:1;fill-rule:nonzero;stroke:none"
         id="path90" /><path
         d="m 963.746,1036.47 h 99.264 c 2.07,0 3.75,1.68 3.75,3.75 0,2.07 -1.68,3.75 -3.75,3.75 h -99.264 c -2.07,0 -3.75,-1.68 -3.75,-3.75 0,-2.07 1.68,-3.75 3.75,-3.75"
         style="fill:#0e0f0f;fill-opacity:1;fill-rule:nonzero;stroke:none"
         id="path92" /><path
         d="m 1063.01,840.219 h 99.2578 v 200 H 1063.01 Z"
         style="fill:#ffffff;fill-opacity:1;fill-rule:nonzero;stroke:none"
         id="path94" /><path
         d="m 1063.01,836.469 h 99.26 c 2.07,0 3.75,1.679 3.75,3.75 0,2.078 -1.68,3.75 -3.75,3.75 h -99.26 c -2.07,0 -3.75,-1.672 -3.75,-3.75 0,-2.071 1.68,-3.75 3.75,-3.75"
         style="fill:#0e0f0f;fill-opacity:1;fill-rule:nonzero;stroke:none"
         id="path96" /><path
         d="m 1063.01,1036.47 h 99.26 c 2.07,0 3.75,1.68 3.75,3.75 0,2.07 -1.68,3.75 -3.75,3.75 h -99.26 c -2.07,0 -3.75,-1.68 -3.75,-3.75 0,-2.07 1.68,-3.75 3.75,-3.75"
         style="fill:#0e0f0f;fill-opacity:1;fill-rule:nonzero;stroke:none"
         id="path98" /><path
         d="m 1162.27,840.219 h 99.2617 v 200 H 1162.27 Z"
         style="fill:#ffffff;fill-opacity:1;fill-rule:nonzero;stroke:none"
         id="path100" /><path
         d="m 1162.27,836.469 h 99.26 c 2.07,0 3.75,1.679 3.75,3.75 0,2.078 -1.68,3.75 -3.75,3.75 h -99.26 c -2.08,0 -3.75,-1.672 -3.75,-3.75 0,-2.071 1.67,-3.75 3.75,-3.75"
         style="fill:#0e0f0f;fill-opacity:1;fill-rule:nonzero;stroke:none"
         id="path102" /><path
         d="m 1162.27,1036.47 h 99.26 c 2.07,0 3.75,1.68 3.75,3.75 0,2.07 -1.68,3.75 -3.75,3.75 h -99.26 c -2.08,0 -3.75,-1.68 -3.75,-3.75 0,-2.07 1.67,-3.75 3.75,-3.75"
         style="fill:#0e0f0f;fill-opacity:1;fill-rule:nonzero;stroke:none"
         id="path104" /><path
         d="m 1261.53,840.219 h 99.2578 v 200 H 1261.53 Z"
         style="fill:#ffffff;fill-opacity:1;fill-rule:nonzero;stroke:none"
         id="path106" /><path
         d="m 1261.53,836.469 h 99.26 c 2.07,0 3.75,1.679 3.75,3.75 0,2.078 -1.68,3.75 -3.75,3.75 h -99.26 c -2.07,0 -3.75,-1.672 -3.75,-3.75 0,-2.071 1.68,-3.75 3.75,-3.75"
         style="fill:#0e0f0f;fill-opacity:1;fill-rule:nonzero;stroke:none"
         id="path108" /><path
         d="m 1261.53,1036.47 h 99.26 c 2.07,0 3.75,1.68 3.75,3.75 0,2.07 -1.68,3.75 -3.75,3.75 h -99.26 c -2.07,0 -3.75,-1.68 -3.75,-3.75 0,-2.07 1.68,-3.75 3.75,-3.75"
         style="fill:#0e0f0f;fill-opacity:1;fill-rule:nonzero;stroke:none"
         id="path110" /><path
         d="m 1405.46,1040.22 h 54.59 V 840.219 h -54.59 l -14.89,100 14.89,100.001 v 0"
         style="fill:#ffffff;fill-opacity:1;fill-rule:nonzero;stroke:none"
         id="path112" /><path
         d="m 1375.68,1040.22 h -14.89 V 840.219 h 14.89 l 14.89,100 -14.89,100.001 v 0"
         style="fill:#ffffff;fill-opacity:1;fill-rule:nonzero;stroke:none"
         id="path114" /><path
         d="m 1360.79,1036.47 h 11.66 l 29.78,-200.001 h 57.82 c 2.08,0 3.75,1.679 3.75,3.75 0,2.078 -1.67,3.75 -3.75,3.75 h -51.36 l -29.78,200.001 h -18.12 c -2.07,0 -3.75,-1.68 -3.75,-3.75 0,-2.07 1.68,-3.75 3.75,-3.75 v 0"
         style="fill:#0e0f0f;fill-opacity:1;fill-rule:nonzero;stroke:none"
         id="path116" /><path
         d="m 1360.79,836.469 h 18.12 l 29.78,200.001 h 51.36 c 2.08,0 3.75,1.68 3.75,3.75 0,2.07 -1.67,3.75 -3.75,3.75 h -57.82 l -29.78,-200.001 h -11.66 c -2.07,0 -3.75,-1.672 -3.75,-3.75 0,-2.071 1.68,-3.75 3.75,-3.75 v 0"
         style="fill:#0e0f0f;fill-opacity:1;fill-rule:nonzero;stroke:none"
         id="path118" /><path
         d="m 1460.05,840.219 h 99.2578 v 200 H 1460.05 Z"
         style="fill:#ffffff;fill-opacity:1;fill-rule:nonzero;stroke:none"
         id="path120" /><path
         d="m 1460.05,836.469 h 99.26 c 2.07,0 3.75,1.679 3.75,3.75 0,2.078 -1.68,3.75 -3.75,3.75 h -99.26 c -2.07,0 -3.75,-1.672 -3.75,-3.75 0,-2.071 1.68,-3.75 3.75,-3.75"
         style="fill:#0e0f0f;fill-opacity:1;fill-rule:nonzero;stroke:none"
         id="path122" /><path
         d="m 1460.05,1036.47 h 99.26 c 2.07,0 3.75,1.68 3.75,3.75 0,2.07 -1.68,3.75 -3.75,3.75 h -99.26 c -2.07,0 -3.75,-1.68 -3.75,-3.75 0,-2.07 1.68,-3.75 3.75,-3.75"
         style="fill:#0e0f0f;fill-opacity:1;fill-rule:nonzero;stroke:none"
         id="path124" /><path
         d="m 1559.31,840.219 v 200.001 h 14.89 l 29.78,-200.001"
         style="fill:#ffffff;fill-opacity:1;fill-rule:nonzero;stroke:none"
         id="path126" /><path
         d="m 1559.31,1036.47 h 11.66 l 29.3,-196.798 c 0.31,-2.051 2.21,-3.469 4.26,-3.156 2.05,0.304 3.46,2.207 3.16,4.257 l -30.25,203.197 h -18.13 c -2.07,0 -3.75,-1.68 -3.75,-3.75 0,-2.07 1.68,-3.75 3.75,-3.75 v 0"
         style="fill:#0e0f0f;fill-opacity:1;fill-rule:nonzero;stroke:none"
         id="path128" /><path
         d="m 1559.31,836.469 h 99.26 c 2.08,0 3.75,1.679 3.75,3.75 0,2.078 -1.67,3.75 -3.75,3.75 h -99.26 c -2.07,0 -3.75,-1.672 -3.75,-3.75 0,-2.071 1.68,-3.75 3.75,-3.75"
         style="fill:#0e0f0f;fill-opacity:1;fill-rule:nonzero;stroke:none"
         id="path130" /><path
         d="m 1658.57,836.469 h 99.27 c 2.07,0 3.75,1.679 3.75,3.75 0,2.078 -1.68,3.75 -3.75,3.75 h -99.27 c -2.07,0 -3.75,-1.672 -3.75,-3.75 0,-2.071 1.68,-3.75 3.75,-3.75"
         style="fill:#0e0f0f;fill-opacity:1;fill-rule:nonzero;stroke:none"
         id="path132" /><path
         d="m 1757.84,836.469 h 99.26 c 2.07,0 3.75,1.679 3.75,3.75 0,2.078 -1.68,3.75 -3.75,3.75 h -99.26 c -2.07,0 -3.75,-1.672 -3.75,-3.75 0,-2.071 1.68,-3.75 3.75,-3.75"
         style="fill:#0e0f0f;fill-opacity:1;fill-rule:nonzero;stroke:none"
         id="path134" /><path
         d="m 1857.1,836.469 h 99.26 c 2.07,0 3.75,1.679 3.75,3.75 0,2.078 -1.68,3.75 -3.75,3.75 h -99.26 c -2.07,0 -3.75,-1.672 -3.75,-3.75 0,-2.071 1.68,-3.75 3.75,-3.75"
         style="fill:#0e0f0f;fill-opacity:1;fill-rule:nonzero;stroke:none"
         id="path136" /><path
         d="m 2001.03,1040.22 h 54.59 V 840.219 h -84.37 l 29.78,200.001 v 0"
         style="fill:#ffffff;fill-opacity:1;fill-rule:nonzero;stroke:none"
         id="path138" /><path
         d="m 1974.96,839.672 29.3,196.798 h 51.36 c 2.07,0 3.75,1.68 3.75,3.75 0,2.07 -1.68,3.75 -3.75,3.75 h -57.83 l -30.25,-203.197 c -0.3,-2.05 1.11,-3.953 3.16,-4.257 2.05,-0.313 3.95,1.105 4.26,3.156 v 0"
         style="fill:#0e0f0f;fill-opacity:1;fill-rule:nonzero;stroke:none"
         id="path140" /><path
         d="m 1956.36,836.469 h 99.26 c 2.07,0 3.75,1.679 3.75,3.75 0,2.078 -1.68,3.75 -3.75,3.75 h -99.26 c -2.07,0 -3.75,-1.672 -3.75,-3.75 0,-2.071 1.68,-3.75 3.75,-3.75"
         style="fill:#0e0f0f;fill-opacity:1;fill-rule:nonzero;stroke:none"
         id="path142" /><path
         d="m 2055.62,840.219 h 99.2578 v 200 H 2055.62 Z"
         style="fill:#ffffff;fill-opacity:1;fill-rule:nonzero;stroke:none"
         id="path144" /><path
         d="m 2055.62,836.469 h 99.26 c 2.07,0 3.75,1.679 3.75,3.75 0,2.078 -1.68,3.75 -3.75,3.75 h -99.26 c -2.07,0 -3.75,-1.672 -3.75,-3.75 0,-2.071 1.68,-3.75 3.75,-3.75"
         style="fill:#0e0f0f;fill-opacity:1;fill-rule:nonzero;stroke:none"
         id="path146" /><path
         d="m 2055.62,1036.47 h 99.26 c 2.07,0 3.75,1.68 3.75,3.75 0,2.07 -1.68,3.75 -3.75,3.75 h -99.26 c -2.07,0 -3.75,-1.68 -3.75,-3.75 0,-2.07 1.68,-3.75 3.75,-3.75"
         style="fill:#0e0f0f;fill-opacity:1;fill-rule:nonzero;stroke:none"
         id="path148" /><path
         d="m 2154.88,840.219 h 99.2695 v 200 H 2154.88 Z"
         style="fill:#ffffff;fill-opacity:1;fill-rule:nonzero;stroke:none"
         id="path150" /><path
         d="m 2154.88,836.469 h 99.27 c 2.07,0 3.75,1.679 3.75,3.75 0,2.078 -1.68,3.75 -3.75,3.75 h -99.27 c -2.07,0 -3.75,-1.672 -3.75,-3.75 0,-2.071 1.68,-3.75 3.75,-3.75"
         style="fill:#0e0f0f;fill-opacity:1;fill-rule:nonzero;stroke:none"
         id="path152" /><path
         d="m 2154.88,1036.47 h 99.27 c 2.07,0 3.75,1.68 3.75,3.75 0,2.07 -1.68,3.75 -3.75,3.75 h -99.27 c -2.07,0 -3.75,-1.68 -3.75,-3.75 0,-2.07 1.68,-3.75 3.75,-3.75"
         style="fill:#0e0f0f;fill-opacity:1;fill-rule:nonzero;stroke:none"
         id="path154" /><path
         d="m 2254.15,840.219 h 99.2617 v 200 H 2254.15 Z"
         style="fill:#ffffff;fill-opacity:1;fill-rule:nonzero;stroke:none"
         id="path156" /><path
         d="m 2254.15,836.469 h 99.26 c 2.07,0 3.75,1.679 3.75,3.75 0,2.078 -1.68,3.75 -3.75,3.75 h -99.26 c -2.08,0 -3.75,-1.672 -3.75,-3.75 0,-2.071 1.67,-3.75 3.75,-3.75"
         style="fill:#0e0f0f;fill-opacity:1;fill-rule:nonzero;stroke:none"
         id="path158" /><path
         d="m 2254.15,1036.47 h 99.26 c 2.07,0 3.75,1.68 3.75,3.75 0,2.07 -1.68,3.75 -3.75,3.75 h -99.26 c -2.08,0 -3.75,-1.68 -3.75,-3.75 0,-2.07 1.67,-3.75 3.75,-3.75"
         style="fill:#0e0f0f;fill-opacity:1;fill-rule:nonzero;stroke:none"
         id="path160" /><path
         d="m 2353.41,840.219 h 99.2617 v 200 H 2353.41 Z"
         style="fill:#ffffff;fill-opacity:1;fill-rule:nonzero;stroke:none"
         id="path162" /><path
         d="m 2353.41,836.469 h 99.26 c 2.07,0 3.75,1.679 3.75,3.75 0,2.078 -1.68,3.75 -3.75,3.75 h -99.26 c -2.07,0 -3.75,-1.672 -3.75,-3.75 0,-2.071 1.68,-3.75 3.75,-3.75"
         style="fill:#0e0f0f;fill-opacity:1;fill-rule:nonzero;stroke:none"
         id="path164" /><path
         d="m 2353.41,1036.47 h 99.26 c 2.07,0 3.75,1.68 3.75,3.75 0,2.07 -1.68,3.75 -3.75,3.75 h -99.26 c -2.07,0 -3.75,-1.68 -3.75,-3.75 0,-2.07 1.68,-3.75 3.75,-3.75"
         style="fill:#0e0f0f;fill-opacity:1;fill-rule:nonzero;stroke:none"
         id="path166" /><path
         d="m 2452.67,840.219 h 99.2578 v 200 H 2452.67 Z"
         style="fill:#ffffff;fill-opacity:1;fill-rule:nonzero;stroke:none"
         id="path168" /><path
         d="m 2452.67,836.469 h 99.26 c 2.07,0 3.75,1.679 3.75,3.75 0,2.078 -1.68,3.75 -3.75,3.75 h -99.26 c -2.07,0 -3.75,-1.672 -3.75,-3.75 0,-2.071 1.68,-3.75 3.75,-3.75"
         style="fill:#0e0f0f;fill-opacity:1;fill-rule:nonzero;stroke:none"
         id="path170" /><path
         d="m 2452.67,1036.47 h 99.26 c 2.07,0 3.75,1.68 3.75,3.75 0,2.07 -1.68,3.75 -3.75,3.75 h -99.26 c -2.07,0 -3.75,-1.68 -3.75,-3.75 0,-2.07 1.68,-3.75 3.75,-3.75"
         style="fill:#0e0f0f;fill-opacity:1;fill-rule:nonzero;stroke:none"
         id="path172" /><path
         d="m 2596.6,1040.22 h 54.59 V 840.219 h -54.59 l -14.89,100 14.89,100.001 v 0"
         style="fill:#ffffff;fill-opacity:1;fill-rule:nonzero;stroke:none"
         id="path174" /><path
         d="m 2566.82,1040.22 h -14.89 V 840.219 h 14.89 l 14.89,100 -14.89,100.001 v 0"
         style="fill:#ffffff;fill-opacity:1;fill-rule:nonzero;stroke:none"
         id="path176" /><path
         d="m 2551.93,1036.47 h 11.65 l 29.78,-200.001 h 57.83 c 2.07,0 3.75,1.679 3.75,3.75 0,2.078 -1.68,3.75 -3.75,3.75 h -51.36 l -29.78,200.001 h -18.12 c -2.07,0 -3.75,-1.68 -3.75,-3.75 0,-2.07 1.68,-3.75 3.75,-3.75 v 0"
         style="fill:#0e0f0f;fill-opacity:1;fill-rule:nonzero;stroke:none"
         id="path178" /><path
         d="m 2551.93,836.469 h 18.12 l 29.78,200.001 h 51.36 c 2.07,0 3.75,1.68 3.75,3.75 0,2.07 -1.68,3.75 -3.75,3.75 h -57.83 l -29.78,-200.001 h -11.65 c -2.07,0 -3.75,-1.672 -3.75,-3.75 0,-2.071 1.68,-3.75 3.75,-3.75 v 0"
         style="fill:#0e0f0f;fill-opacity:1;fill-rule:nonzero;stroke:none"
         id="path180" /><path
         d="m 2651.19,840.219 h 99.2578 v 200 H 2651.19 Z"
         style="fill:#ffffff;fill-opacity:1;fill-rule:nonzero;stroke:none"
         id="path182" /><path
         d="m 2651.19,836.469 h 99.26 c 2.08,0 3.75,1.679 3.75,3.75 0,2.078 -1.67,3.75 -3.75,3.75 h -99.26 c -2.07,0 -3.75,-1.672 -3.75,-3.75 0,-2.071 1.68,-3.75 3.75,-3.75"
         style="fill:#0e0f0f;fill-opacity:1;fill-rule:nonzero;stroke:none"
         id="path184" /><path
         d="m 2651.19,1036.47 h 99.26 c 2.08,0 3.75,1.68 3.75,3.75 0,2.07 -1.67,3.75 -3.75,3.75 h -99.26 c -2.07,0 -3.75,-1.68 -3.75,-3.75 0,-2.07 1.68,-3.75 3.75,-3.75"
         style="fill:#0e0f0f;fill-opacity:1;fill-rule:nonzero;stroke:none"
         id="path186" /><path
         d="m 2750.45,840.219 v 200.001 h 14.89 l 29.78,-200.001"
         style="fill:#ffffff;fill-opacity:1;fill-rule:nonzero;stroke:none"
         id="path188" /><path
         d="m 2750.45,1036.47 h 11.66 l 29.3,-196.798 c 0.31,-2.051 2.22,-3.469 4.26,-3.156 2.05,0.304 3.47,2.207 3.16,4.257 l -30.26,203.197 h -18.12 c -2.07,0 -3.75,-1.68 -3.75,-3.75 0,-2.07 1.68,-3.75 3.75,-3.75 v 0"
         style="fill:#0e0f0f;fill-opacity:1;fill-rule:nonzero;stroke:none"
         id="path190" /><path
         d="m 2750.45,836.469 h 99.26 c 2.07,0 3.75,1.679 3.75,3.75 0,2.078 -1.68,3.75 -3.75,3.75 h -99.26 c -2.07,0 -3.75,-1.672 -3.75,-3.75 0,-2.071 1.68,-3.75 3.75,-3.75"
         style="fill:#0e0f0f;fill-opacity:1;fill-rule:nonzero;stroke:none"
         id="path192" /><path
         d="m 2849.71,836.469 h 99.27 c 2.07,0 3.75,1.679 3.75,3.75 0,2.078 -1.68,3.75 -3.75,3.75 h -99.27 c -2.07,0 -3.75,-1.672 -3.75,-3.75 0,-2.071 1.68,-3.75 3.75,-3.75"
         style="fill:#0e0f0f;fill-opacity:1;fill-rule:nonzero;stroke:none"
         id="path194" /><path
         d="m 2948.98,836.469 h 99.26 c 2.07,0 3.75,1.679 3.75,3.75 0,2.078 -1.68,3.75 -3.75,3.75 h -99.26 c -2.07,0 -3.75,-1.672 -3.75,-3.75 0,-2.071 1.68,-3.75 3.75,-3.75"
         style="fill:#0e0f0f;fill-opacity:1;fill-rule:nonzero;stroke:none"
         id="path196" /><path
         d="m 3048.24,836.469 h 99.26 c 2.07,0 3.75,1.679 3.75,3.75 0,2.078 -1.68,3.75 -3.75,3.75 h -99.26 c -2.07,0 -3.75,-1.672 -3.75,-3.75 0,-2.071 1.68,-3.75 3.75,-3.75"
         style="fill:#0e0f0f;fill-opacity:1;fill-rule:nonzero;stroke:none"
         id="path198" /><path
         d="m 3192.16,1040.22 h 54.6 V 840.219 h -84.37 l 29.77,200.001 v 0"
         style="fill:#ffffff;fill-opacity:1;fill-rule:nonzero;stroke:none"
         id="path200" /><path
         d="m 3166.1,839.672 29.3,196.798 h 51.36 c 2.07,0 3.75,1.68 3.75,3.75 0,2.07 -1.68,3.75 -3.75,3.75 h -57.83 l -30.25,-203.197 c -0.31,-2.05 1.11,-3.953 3.16,-4.257 2.04,-0.313 3.95,1.105 4.26,3.156 v 0"
         style="fill:#0e0f0f;fill-opacity:1;fill-rule:nonzero;stroke:none"
         id="path202" /><path
         d="m 3147.5,836.469 h 99.26 c 2.07,0 3.75,1.679 3.75,3.75 0,2.078 -1.68,3.75 -3.75,3.75 h -99.26 c -2.08,0 -3.75,-1.672 -3.75,-3.75 0,-2.071 1.67,-3.75 3.75,-3.75"
         style="fill:#0e0f0f;fill-opacity:1;fill-rule:nonzero;stroke:none"
         id="path204" /><path
         d="m 3246.76,840.219 h 99.2578 v 200 H 3246.76 Z"
         style="fill:#ffffff;fill-opacity:1;fill-rule:nonzero;stroke:none"
         id="path206" /><path
         d="m 3246.76,836.469 h 99.26 c 2.07,0 3.75,1.679 3.75,3.75 0,2.078 -1.68,3.75 -3.75,3.75 h -99.26 c -2.07,0 -3.75,-1.672 -3.75,-3.75 0,-2.071 1.68,-3.75 3.75,-3.75"
         style="fill:#0e0f0f;fill-opacity:1;fill-rule:nonzero;stroke:none"
         id="path208" /><path
         d="m 3246.76,1036.47 h 99.26 c 2.07,0 3.75,1.68 3.75,3.75 0,2.07 -1.68,3.75 -3.75,3.75 h -99.26 c -2.07,0 -3.75,-1.68 -3.75,-3.75 0,-2.07 1.68,-3.75 3.75,-3.75"
         style="fill:#0e0f0f;fill-opacity:1;fill-rule:nonzero;stroke:none"
         id="path210" /><path
         d="m 3346.02,840.219 h 99.2617 v 200 H 3346.02 Z"
         style="fill:#ffffff;fill-opacity:1;fill-rule:nonzero;stroke:none"
         id="path212" /><path
         d="m 3346.02,836.469 h 99.26 c 2.07,0 3.75,1.679 3.75,3.75 0,2.078 -1.68,3.75 -3.75,3.75 h -99.26 c -2.07,0 -3.75,-1.672 -3.75,-3.75 0,-2.071 1.68,-3.75 3.75,-3.75"
         style="fill:#0e0f0f;fill-opacity:1;fill-rule:nonzero;stroke:none"
         id="path214" /><path
         d="m 3346.02,1036.47 h 99.26 c 2.07,0 3.75,1.68 3.75,3.75 0,2.07 -1.68,3.75 -3.75,3.75 h -99.26 c -2.07,0 -3.75,-1.68 -3.75,-3.75 0,-2.07 1.68,-3.75 3.75,-3.75"
         style="fill:#0e0f0f;fill-opacity:1;fill-rule:nonzero;stroke:none"
         id="path216" /><path
         d="m 3445.28,840.219 h 99.2695 v 200 H 3445.28 Z"
         style="fill:#ffffff;fill-opacity:1;fill-rule:nonzero;stroke:none"
         id="path218" /><path
         d="m 3445.28,836.469 h 99.27 c 2.07,0 3.75,1.679 3.75,3.75 0,2.078 -1.68,3.75 -3.75,3.75 h -99.27 c -2.07,0 -3.75,-1.672 -3.75,-3.75 0,-2.071 1.68,-3.75 3.75,-3.75"
         style="fill:#0e0f0f;fill-opacity:1;fill-rule:nonzero;stroke:none"
         id="path220" /><path
         d="m 3445.28,1036.47 h 99.27 c 2.07,0 3.75,1.68 3.75,3.75 0,2.07 -1.68,3.75 -3.75,3.75 h -99.27 c -2.07,0 -3.75,-1.68 -3.75,-3.75 0,-2.07 1.68,-3.75 3.75,-3.75"
         style="fill:#0e0f0f;fill-opacity:1;fill-rule:nonzero;stroke:none"
         id="path222" /><path
         d="m 3544.55,840.219 h 99.25 v 200 h -99.25 z"
         style="fill:#ffffff;fill-opacity:1;fill-rule:nonzero;stroke:none"
         id="path224" /><path
         d="m 3544.55,836.469 h 99.25 c 2.07,0 3.75,1.679 3.75,3.75 0,2.078 -1.68,3.75 -3.75,3.75 h -99.25 c -2.08,0 -3.75,-1.672 -3.75,-3.75 0,-2.071 1.67,-3.75 3.75,-3.75"
         style="fill:#0e0f0f;fill-opacity:1;fill-rule:nonzero;stroke:none"
         id="path226" /><path
         d="m 3544.55,1036.47 h 99.25 c 2.07,0 3.75,1.68 3.75,3.75 0,2.07 -1.68,3.75 -3.75,3.75 h -99.25 c -2.08,0 -3.75,-1.68 -3.75,-3.75 0,-2.07 1.67,-3.75 3.75,-3.75"
         style="fill:#0e0f0f;fill-opacity:1;fill-rule:nonzero;stroke:none"
         id="path228" /><path
         d="m 3643.8,840.219 h 99.2695 v 200 H 3643.8 Z"
         style="fill:#ffffff;fill-opacity:1;fill-rule:nonzero;stroke:none"
         id="path230" /><path
         d="m 3643.8,836.469 h 99.27 c 2.07,0 3.75,1.679 3.75,3.75 0,2.078 -1.68,3.75 -3.75,3.75 h -99.27 c -2.07,0 -3.75,-1.672 -3.75,-3.75 0,-2.071 1.68,-3.75 3.75,-3.75"
         style="fill:#0e0f0f;fill-opacity:1;fill-rule:nonzero;stroke:none"
         id="path232" /><path
         d="m 3643.8,1036.47 h 99.27 c 2.07,0 3.75,1.68 3.75,3.75 0,2.07 -1.68,3.75 -3.75,3.75 h -99.27 c -2.07,0 -3.75,-1.68 -3.75,-3.75 0,-2.07 1.68,-3.75 3.75,-3.75"
         style="fill:#0e0f0f;fill-opacity:1;fill-rule:nonzero;stroke:none"
         id="path234" /><path
         d="m 3787.74,1040.22 h 54.59 V 840.219 h -54.59 l -14.89,100 14.89,100.001 v 0"
         style="fill:#ffffff;fill-opacity:1;fill-rule:nonzero;stroke:none"
         id="path236" /><path
         d="m 3757.95,1040.22 h -14.88 V 840.219 h 14.88 l 14.9,100 -14.9,100.001 v 0"
         style="fill:#ffffff;fill-opacity:1;fill-rule:nonzero;stroke:none"
         id="path238" /><path
         d="m 3743.07,1036.47 h 11.65 l 29.79,-200.001 h 57.82 c 2.07,0 3.75,1.679 3.75,3.75 0,2.078 -1.68,3.75 -3.75,3.75 h -51.36 l -29.78,200.001 h -18.12 c -2.07,0 -3.75,-1.68 -3.75,-3.75 0,-2.07 1.68,-3.75 3.75,-3.75 v 0"
         style="fill:#0e0f0f;fill-opacity:1;fill-rule:nonzero;stroke:none"
         id="path240" /><path
         d="m 3743.07,836.469 h 18.12 l 29.78,200.001 h 51.36 c 2.07,0 3.75,1.68 3.75,3.75 0,2.07 -1.68,3.75 -3.75,3.75 h -57.82 l -29.79,-200.001 h -11.65 c -2.07,0 -3.75,-1.672 -3.75,-3.75 0,-2.071 1.68,-3.75 3.75,-3.75 v 0"
         style="fill:#0e0f0f;fill-opacity:1;fill-rule:nonzero;stroke:none"
         id="path242" /><path
         d="m 3842.33,840.219 h 99.2578 v 200 H 3842.33 Z"
         style="fill:#ffffff;fill-opacity:1;fill-rule:nonzero;stroke:none"
         id="path244" /><path
         d="m 3842.33,836.469 h 99.26 c 2.07,0 3.75,1.679 3.75,3.75 0,2.078 -1.68,3.75 -3.75,3.75 h -99.26 c -2.07,0 -3.75,-1.672 -3.75,-3.75 0,-2.071 1.68,-3.75 3.75,-3.75"
         style="fill:#0e0f0f;fill-opacity:1;fill-rule:nonzero;stroke:none"
         id="path246" /><path
         d="m 3842.33,1036.47 h 99.26 c 2.07,0 3.75,1.68 3.75,3.75 0,2.07 -1.68,3.75 -3.75,3.75 h -99.26 c -2.07,0 -3.75,-1.68 -3.75,-3.75 0,-2.07 1.68,-3.75 3.75,-3.75"
         style="fill:#0e0f0f;fill-opacity:1;fill-rule:nonzero;stroke:none"
         id="path248" /><path
         d="m 3941.59,840.219 v 200.001 h 14.89 l 29.78,-200.001"
         style="fill:#ffffff;fill-opacity:1;fill-rule:nonzero;stroke:none"
         id="path250" /><path
         d="m 3941.59,1036.47 h 11.66 l 29.3,-196.798 c 0.3,-2.051 2.21,-3.469 4.26,-3.156 2.05,0.304 3.46,2.207 3.15,4.257 l -30.25,203.197 h -18.12 c -2.07,0 -3.75,-1.68 -3.75,-3.75 0,-2.07 1.68,-3.75 3.75,-3.75 v 0"
         style="fill:#0e0f0f;fill-opacity:1;fill-rule:nonzero;stroke:none"
         id="path252" /><path
         d="m 3941.59,836.469 h 99.26 c 2.08,0 3.75,1.679 3.75,3.75 0,2.078 -1.67,3.75 -3.75,3.75 h -99.26 c -2.07,0 -3.75,-1.672 -3.75,-3.75 0,-2.071 1.68,-3.75 3.75,-3.75"
         style="fill:#0e0f0f;fill-opacity:1;fill-rule:nonzero;stroke:none"
         id="path254" /><path
         d="m 4040.85,836.469 h 99.26 c 2.07,0 3.75,1.679 3.75,3.75 0,2.078 -1.68,3.75 -3.75,3.75 h -99.26 c -2.07,0 -3.75,-1.672 -3.75,-3.75 0,-2.071 1.68,-3.75 3.75,-3.75"
         style="fill:#0e0f0f;fill-opacity:1;fill-rule:nonzero;stroke:none"
         id="path256" /><path
         d="m 4184.78,1040.22 h 54.6 V 840.219 h -84.37 l 29.77,200.001 v 0"
         style="fill:#ffffff;fill-opacity:1;fill-rule:nonzero;stroke:none"
         id="path258" /><path
         d="m 4158.71,839.672 29.3,196.798 h 51.37 c 2.07,0 3.75,1.68 3.75,3.75 0,2.07 -1.68,3.75 -3.75,3.75 h -57.83 L 4151.3,840.773 c -0.31,-2.05 1.1,-3.953 3.15,-4.257 2.05,-0.313 3.96,1.105 4.26,3.156 v 0"
         style="fill:#0e0f0f;fill-opacity:1;fill-rule:nonzero;stroke:none"
         id="path260" /><path
         d="m 4140.11,836.469 h 99.27 c 2.07,0 3.75,1.679 3.75,3.75 0,2.078 -1.68,3.75 -3.75,3.75 h -99.27 c -2.07,0 -3.75,-1.672 -3.75,-3.75 0,-2.071 1.68,-3.75 3.75,-3.75"
         style="fill:#0e0f0f;fill-opacity:1;fill-rule:nonzero;stroke:none"
         id="path262" /><path
         d="m 4239.38,840.219 h 99.2617 v 200 H 4239.38 Z"
         style="fill:#ffffff;fill-opacity:1;fill-rule:nonzero;stroke:none"
         id="path264" /><path
         d="m 4239.38,836.469 h 99.26 c 2.07,0 3.75,1.679 3.75,3.75 0,2.078 -1.68,3.75 -3.75,3.75 h -99.26 c -2.08,0 -3.75,-1.672 -3.75,-3.75 0,-2.071 1.67,-3.75 3.75,-3.75"
         style="fill:#0e0f0f;fill-opacity:1;fill-rule:nonzero;stroke:none"
         id="path266" /><path
         d="m 4239.38,1036.47 h 99.26 c 2.07,0 3.75,1.68 3.75,3.75 0,2.07 -1.68,3.75 -3.75,3.75 h -99.26 c -2.08,0 -3.75,-1.68 -3.75,-3.75 0,-2.07 1.67,-3.75 3.75,-3.75"
         style="fill:#0e0f0f;fill-opacity:1;fill-rule:nonzero;stroke:none"
         id="path268" /><path
         d="m 4338.64,840.219 v 200.001 h 14.89 l 29.78,-200.001"
         style="fill:#ffffff;fill-opacity:1;fill-rule:nonzero;stroke:none"
         id="path270" /><path
         d="m 4338.64,1036.47 h 11.66 l 29.3,-196.798 c 0.3,-2.051 2.21,-3.469 4.26,-3.156 2.05,0.304 3.46,2.207 3.16,4.257 l -30.26,203.197 h -18.12 c -2.07,0 -3.75,-1.68 -3.75,-3.75 0,-2.07 1.68,-3.75 3.75,-3.75 v 0"
         style="fill:#0e0f0f;fill-opacity:1;fill-rule:nonzero;stroke:none"
         id="path272" /><path
         d="m 4338.64,836.469 h 99.26 c 2.07,0 3.75,1.679 3.75,3.75 0,2.078 -1.68,3.75 -3.75,3.75 h -99.26 c -2.07,0 -3.75,-1.672 -3.75,-3.75 0,-2.071 1.68,-3.75 3.75,-3.75"
         style="fill:#0e0f0f;fill-opacity:1;fill-rule:nonzero;stroke:none"
         id="path274" /><path
         d="m 4437.9,836.469 h 99.26 c 2.07,0 3.75,1.679 3.75,3.75 0,2.078 -1.68,3.75 -3.75,3.75 h -99.26 c -2.08,0 -3.75,-1.672 -3.75,-3.75 0,-2.071 1.67,-3.75 3.75,-3.75"
         style="fill:#0e0f0f;fill-opacity:1;fill-rule:nonzero;stroke:none"
         id="path276" /><path
         d="m 4537.16,836.469 h 99.26 c 2.07,0 3.75,1.679 3.75,3.75 0,2.078 -1.68,3.75 -3.75,3.75 h -99.26 c -2.07,0 -3.75,-1.672 -3.75,-3.75 0,-2.071 1.68,-3.75 3.75,-3.75"
         style="fill:#0e0f0f;fill-opacity:1;fill-rule:nonzero;stroke:none"
         id="path278" /><path
         d="m 4636.42,836.477 h 99.26 c 2.07,0 3.75,1.671 3.75,3.742 0,2.078 -1.68,3.75 -3.75,3.75 h -99.26 c -2.07,0 -3.75,-1.672 -3.75,-3.75 0,-2.071 1.68,-3.742 3.75,-3.742"
         style="fill:#0e0f0f;fill-opacity:1;fill-rule:nonzero;stroke:none"
         id="path280" /><path
         d="m 4735.68,836.469 h 18.12 l 29.78,200.001 h 51.37 c 2.07,0 3.75,1.68 3.75,3.75 0,2.07 -1.68,3.75 -3.75,3.75 h -57.84 l -29.77,-200.001 h -11.66 c -2.07,0 -3.75,-1.672 -3.75,-3.75 0,-2.071 1.68,-3.75 3.75,-3.75 v 0"
         style="fill:#0e0f0f;fill-opacity:1;fill-rule:nonzero;stroke:none"
         id="path282" /><path
         d="m 4834.95,1036.47 h 99.25 c 2.08,0 3.75,1.68 3.75,3.75 0,2.07 -1.67,3.75 -3.75,3.75 h -99.25 c -2.07,0 -3.75,-1.68 -3.75,-3.75 0,-2.07 1.68,-3.75 3.75,-3.75"
         style="fill:#0e0f0f;fill-opacity:1;fill-rule:nonzero;stroke:none"
         id="path284" /><g
         id="g286"
         transform="scale(10)"><text
           transform="matrix(0.995045,0,0,-1,13.7582,53.023)"
           style="font-variant:normal;font-weight:normal;font-size:11px;font-family:Arial;-inkscape-font-specification:ArialMT;writing-mode:lr-tb;fill:#344ea9;fill-opacity:1;fill-rule:nonzero;stroke:none"
           id="text290"><tspan
             x="0 7.3369999 15.278692"
             y="0"
             sodipodi:role="line"
             id="tspan288">SCL</tspan></text></g><path
         d="m 368.176,676.469 h 99.262 c 2.07,0 3.75,1.679 3.75,3.75 0,2.078 -1.68,3.75 -3.75,3.75 h -99.262 c -2.071,0 -3.75,-1.672 -3.75,-3.75 0,-2.071 1.679,-3.75 3.75,-3.75"
         style="fill:#0e0f0f;fill-opacity:1;fill-rule:nonzero;stroke:none"
         id="path292" /><path
         d="m 467.438,676.469 h 99.261 c 2.071,0 3.75,1.679 3.75,3.758 0,2.07 -1.679,3.742 -3.75,3.742 h -99.261 c -2.071,0 -3.75,-1.672 -3.75,-3.742 0,-2.079 1.679,-3.758 3.75,-3.758"
         style="fill:#0e0f0f;fill-opacity:1;fill-rule:nonzero;stroke:none"
         id="path294" /><path
         d="m 566.699,676.469 h 99.262 c 2.07,0 3.75,1.679 3.75,3.75 0,2.078 -1.68,3.75 -3.75,3.75 h -99.262 c -2.07,0 -3.75,-1.672 -3.75,-3.75 0,-2.071 1.68,-3.75 3.75,-3.75"
         style="fill:#0e0f0f;fill-opacity:1;fill-rule:nonzero;stroke:none"
         id="path296" /><path
         d="m 665.961,676.469 h 99.258 c 2.07,0 3.75,1.679 3.75,3.75 0,2.078 -1.68,3.75 -3.75,3.75 h -99.258 c -2.07,0 -3.75,-1.672 -3.75,-3.75 0,-2.071 1.68,-3.75 3.75,-3.75"
         style="fill:#0e0f0f;fill-opacity:1;fill-rule:nonzero;stroke:none"
         id="path298" /><path
         d="m 765.219,676.469 h 11.66 l 29.777,-200 h 57.824 c 2.075,0 3.75,1.679 3.75,3.75 0,2.078 -1.675,3.75 -3.75,3.75 h -51.359 l -29.777,200 h -18.125 c -2.071,0 -3.75,-1.672 -3.75,-3.75 0,-2.071 1.679,-3.75 3.75,-3.75 v 0"
         style="fill:#0e0f0f;fill-opacity:1;fill-rule:nonzero;stroke:none"
         id="path300" /><path
         d="m 864.48,476.469 h 99.266 c 2.07,0 3.75,1.679 3.75,3.75 0,2.078 -1.68,3.75 -3.75,3.75 H 864.48 c -2.07,0 -3.75,-1.672 -3.75,-3.75 0,-2.071 1.68,-3.75 3.75,-3.75"
         style="fill:#0e0f0f;fill-opacity:1;fill-rule:nonzero;stroke:none"
         id="path302" /><path
         d="m 963.746,476.469 h 18.117 l 29.787,200 h 51.36 c 2.07,0 3.75,1.679 3.75,3.75 0,2.078 -1.68,3.75 -3.75,3.75 h -57.83 l -29.782,-200 h -11.652 c -2.07,0 -3.75,-1.672 -3.75,-3.75 0,-2.071 1.68,-3.75 3.75,-3.75 v 0"
         style="fill:#0e0f0f;fill-opacity:1;fill-rule:nonzero;stroke:none"
         id="path304" /><path
         d="m 1063.01,676.469 h 99.26 c 2.07,0 3.75,1.679 3.75,3.75 0,2.078 -1.68,3.75 -3.75,3.75 h -99.26 c -2.07,0 -3.75,-1.672 -3.75,-3.75 0,-2.071 1.68,-3.75 3.75,-3.75"
         style="fill:#0e0f0f;fill-opacity:1;fill-rule:nonzero;stroke:none"
         id="path306" /><path
         d="m 1162.27,676.469 h 11.66 l 29.77,-200 h 57.83 c 2.07,0 3.75,1.679 3.75,3.75 0,2.078 -1.68,3.75 -3.75,3.75 h -51.36 l -29.78,200 h -18.12 c -2.08,0 -3.75,-1.672 -3.75,-3.75 0,-2.071 1.67,-3.75 3.75,-3.75 v 0"
         style="fill:#0e0f0f;fill-opacity:1;fill-rule:nonzero;stroke:none"
         id="path308" /><path
         d="m 1261.53,476.469 h 99.26 c 2.07,0 3.75,1.679 3.75,3.75 0,2.078 -1.68,3.75 -3.75,3.75 h -99.26 c -2.07,0 -3.75,-1.672 -3.75,-3.75 0,-2.071 1.68,-3.75 3.75,-3.75"
         style="fill:#0e0f0f;fill-opacity:1;fill-rule:nonzero;stroke:none"
         id="path310" /><path
         d="m 1360.79,476.469 h 18.12 l 29.78,200 h 51.36 c 2.08,0 3.75,1.679 3.75,3.75 0,2.078 -1.67,3.75 -3.75,3.75 h -57.82 l -29.78,-200 h -11.66 c -2.07,0 -3.75,-1.672 -3.75,-3.75 0,-2.071 1.68,-3.75 3.75,-3.75 v 0"
         style="fill:#0e0f0f;fill-opacity:1;fill-rule:nonzero;stroke:none"
         id="path312" /><path
         d="m 1460.05,676.469 h 99.26 c 2.07,0 3.75,1.679 3.75,3.75 0,2.078 -1.68,3.75 -3.75,3.75 h -99.26 c -2.07,0 -3.75,-1.672 -3.75,-3.75 0,-2.071 1.68,-3.75 3.75,-3.75"
         style="fill:#0e0f0f;fill-opacity:1;fill-rule:nonzero;stroke:none"
         id="path314" /><path
         d="m 1559.31,676.469 h 11.66 l 29.78,-200 h 57.82 c 2.08,0 3.75,1.679 3.75,3.75 0,2.078 -1.67,3.75 -3.75,3.75 h -51.36 l -29.77,200 h -18.13 c -2.07,0 -3.75,-1.672 -3.75,-3.75 0,-2.071 1.68,-3.75 3.75,-3.75 v 0"
         style="fill:#0e0f0f;fill-opacity:1;fill-rule:nonzero;stroke:none"
         id="path316" /><path
         d="m 1658.57,476.469 h 99.27 c 2.07,0 3.75,1.679 3.75,3.75 0,2.078 -1.68,3.75 -3.75,3.75 h -99.27 c -2.07,0 -3.75,-1.672 -3.75,-3.75 0,-2.071 1.68,-3.75 3.75,-3.75"
         style="fill:#0e0f0f;fill-opacity:1;fill-rule:nonzero;stroke:none"
         id="path318" /><path
         d="m 1757.84,476.469 h 18.12 l 29.78,200 h 51.36 c 2.07,0 3.75,1.679 3.75,3.75 0,2.078 -1.68,3.75 -3.75,3.75 h -57.83 l -29.78,-200 h -11.65 c -2.07,0 -3.75,-1.672 -3.75,-3.75 0,-2.071 1.68,-3.75 3.75,-3.75 v 0"
         style="fill:#0e0f0f;fill-opacity:1;fill-rule:nonzero;stroke:none"
         id="path320" /><path
         d="m 1857.1,676.469 h 99.26 c 2.07,0 3.75,1.679 3.75,3.75 0,2.078 -1.68,3.75 -3.75,3.75 h -99.26 c -2.07,0 -3.75,-1.672 -3.75,-3.75 0,-2.071 1.68,-3.75 3.75,-3.75"
         style="fill:#0e0f0f;fill-opacity:1;fill-rule:nonzero;stroke:none"
         id="path322" /><path
         d="m 1956.36,676.469 h 11.66 l 29.77,-200 h 57.83 c 2.07,0 3.75,1.679 3.75,3.75 0,2.078 -1.68,3.75 -3.75,3.75 h -51.36 l -29.78,200 h -18.12 c -2.07,0 -3.75,-1.672 -3.75,-3.75 0,-2.071 1.68,-3.75 3.75,-3.75 v 0"
         style="fill:#0e0f0f;fill-opacity:1;fill-rule:nonzero;stroke:none"
         id="path324" /><path
         d="m 2055.62,476.469 h 99.26 c 2.07,0 3.75,1.679 3.75,3.75 0,2.078 -1.68,3.75 -3.75,3.75 h -99.26 c -2.07,0 -3.75,-1.672 -3.75,-3.75 0,-2.071 1.68,-3.75 3.75,-3.75"
         style="fill:#0e0f0f;fill-opacity:1;fill-rule:nonzero;stroke:none"
         id="path326" /><path
         d="M 2154.88,476.469 H 2173 l 29.78,200 h 51.37 c 2.07,0 3.75,1.679 3.75,3.75 0,2.078 -1.68,3.75 -3.75,3.75 h -57.83 l -29.78,-200 h -11.66 c -2.07,0 -3.75,-1.672 -3.75,-3.75 0,-2.071 1.68,-3.75 3.75,-3.75 v 0"
         style="fill:#0e0f0f;fill-opacity:1;fill-rule:nonzero;stroke:none"
         id="path328" /><path
         d="m 2254.15,676.469 h 99.26 c 2.07,0 3.75,1.679 3.75,3.75 0,2.078 -1.68,3.75 -3.75,3.75 h -99.26 c -2.08,0 -3.75,-1.672 -3.75,-3.75 0,-2.071 1.67,-3.75 3.75,-3.75"
         style="fill:#0e0f0f;fill-opacity:1;fill-rule:nonzero;stroke:none"
         id="path330" /><path
         d="m 2353.41,676.469 h 11.65 l 29.78,-200 h 57.83 c 2.07,0 3.75,1.679 3.75,3.75 0,2.078 -1.68,3.75 -3.75,3.75 h -51.37 l -29.77,200 h -18.12 c -2.07,0 -3.75,-1.672 -3.75,-3.75 0,-2.071 1.68,-3.75 3.75,-3.75 v 0"
         style="fill:#0e0f0f;fill-opacity:1;fill-rule:nonzero;stroke:none"
         id="path332" /><path
         d="m 2452.67,476.469 h 99.26 c 2.07,0 3.75,1.679 3.75,3.75 0,2.078 -1.68,3.75 -3.75,3.75 h -99.26 c -2.07,0 -3.75,-1.672 -3.75,-3.75 0,-2.071 1.68,-3.75 3.75,-3.75"
         style="fill:#0e0f0f;fill-opacity:1;fill-rule:nonzero;stroke:none"
         id="path334" /><path
         d="m 2551.93,476.469 h 18.12 l 29.78,200 h 51.36 c 2.07,0 3.75,1.679 3.75,3.75 0,2.078 -1.68,3.75 -3.75,3.75 h -57.83 l -29.78,-200 h -11.65 c -2.07,0 -3.75,-1.672 -3.75,-3.75 0,-2.071 1.68,-3.75 3.75,-3.75 v 0"
         style="fill:#0e0f0f;fill-opacity:1;fill-rule:nonzero;stroke:none"
         id="path336" /><path
         d="m 2651.19,676.469 h 99.26 c 2.08,0 3.75,1.679 3.75,3.75 0,2.078 -1.67,3.75 -3.75,3.75 h -99.26 c -2.07,0 -3.75,-1.672 -3.75,-3.75 0,-2.071 1.68,-3.75 3.75,-3.75"
         style="fill:#0e0f0f;fill-opacity:1;fill-rule:nonzero;stroke:none"
         id="path338" /><path
         d="m 2750.45,676.469 h 11.66 l 29.78,-200 h 57.82 c 2.07,0 3.75,1.679 3.75,3.75 0,2.078 -1.68,3.75 -3.75,3.75 h -51.36 l -29.78,200 h -18.12 c -2.07,0 -3.75,-1.672 -3.75,-3.75 0,-2.071 1.68,-3.75 3.75,-3.75 v 0"
         style="fill:#0e0f0f;fill-opacity:1;fill-rule:nonzero;stroke:none"
         id="path340" /><path
         d="m 2849.71,476.469 h 99.27 c 2.07,0 3.75,1.679 3.75,3.75 0,2.078 -1.68,3.75 -3.75,3.75 h -99.27 c -2.07,0 -3.75,-1.672 -3.75,-3.75 0,-2.071 1.68,-3.75 3.75,-3.75"
         style="fill:#0e0f0f;fill-opacity:1;fill-rule:nonzero;stroke:none"
         id="path342" /><path
         d="m 2948.98,476.469 h 18.12 l 29.78,200 h 51.36 c 2.07,0 3.75,1.679 3.75,3.75 0,2.078 -1.68,3.75 -3.75,3.75 h -57.83 l -29.78,-200 h -11.65 c -2.07,0 -3.75,-1.672 -3.75,-3.75 0,-2.071 1.68,-3.75 3.75,-3.75 v 0"
         style="fill:#0e0f0f;fill-opacity:1;fill-rule:nonzero;stroke:none"
         id="path344" /><path
         d="m 3048.24,676.469 h 99.26 c 2.07,0 3.75,1.679 3.75,3.75 0,2.078 -1.68,3.75 -3.75,3.75 h -99.26 c -2.07,0 -3.75,-1.672 -3.75,-3.75 0,-2.071 1.68,-3.75 3.75,-3.75"
         style="fill:#0e0f0f;fill-opacity:1;fill-rule:nonzero;stroke:none"
         id="path346" /><path
         d="m 3147.5,676.469 h 11.65 l 29.78,-200 h 57.83 c 2.07,0 3.75,1.679 3.75,3.75 0,2.078 -1.68,3.75 -3.75,3.75 h -51.36 l -29.78,200 h -18.12 c -2.08,0 -3.75,-1.672 -3.75,-3.75 0,-2.071 1.67,-3.75 3.75,-3.75 v 0"
         style="fill:#0e0f0f;fill-opacity:1;fill-rule:nonzero;stroke:none"
         id="path348" /><path
         d="m 3246.76,476.469 h 99.26 c 2.07,0 3.75,1.679 3.75,3.75 0,2.078 -1.68,3.75 -3.75,3.75 h -99.26 c -2.07,0 -3.75,-1.672 -3.75,-3.75 0,-2.071 1.68,-3.75 3.75,-3.75"
         style="fill:#0e0f0f;fill-opacity:1;fill-rule:nonzero;stroke:none"
         id="path350" /><path
         d="m 3346.02,476.469 h 18.13 l 29.77,200 h 51.36 c 2.07,0 3.75,1.679 3.75,3.75 0,2.078 -1.68,3.75 -3.75,3.75 h -57.83 l -29.77,-200 h -11.66 c -2.07,0 -3.75,-1.672 -3.75,-3.75 0,-2.071 1.68,-3.75 3.75,-3.75 v 0"
         style="fill:#0e0f0f;fill-opacity:1;fill-rule:nonzero;stroke:none"
         id="path352" /><path
         d="m 3445.28,676.469 h 99.27 c 2.07,0 3.75,1.679 3.75,3.75 0,2.078 -1.68,3.75 -3.75,3.75 h -99.27 c -2.07,0 -3.75,-1.672 -3.75,-3.75 0,-2.071 1.68,-3.75 3.75,-3.75"
         style="fill:#0e0f0f;fill-opacity:1;fill-rule:nonzero;stroke:none"
         id="path354" /><path
         d="m 3544.55,676.469 h 11.66 l 29.77,-200 h 57.82 c 2.07,0 3.75,1.679 3.75,3.75 0,2.078 -1.68,3.75 -3.75,3.75 h -51.35 l -29.78,200 h -18.12 c -2.08,0 -3.75,-1.672 -3.75,-3.75 0,-2.071 1.67,-3.75 3.75,-3.75 v 0"
         style="fill:#0e0f0f;fill-opacity:1;fill-rule:nonzero;stroke:none"
         id="path356" /><path
         d="m 3643.8,476.469 h 99.27 c 2.07,0 3.75,1.679 3.75,3.75 0,2.078 -1.68,3.75 -3.75,3.75 h -99.27 c -2.07,0 -3.75,-1.672 -3.75,-3.75 0,-2.071 1.68,-3.75 3.75,-3.75"
         style="fill:#0e0f0f;fill-opacity:1;fill-rule:nonzero;stroke:none"
         id="path358" /><path
         d="m 3743.07,476.469 h 18.12 l 29.78,200 h 51.36 c 2.07,0 3.75,1.679 3.75,3.75 0,2.078 -1.68,3.75 -3.75,3.75 h -57.82 l -29.79,-200 h -11.65 c -2.07,0 -3.75,-1.672 -3.75,-3.75 0,-2.071 1.68,-3.75 3.75,-3.75 v 0"
         style="fill:#0e0f0f;fill-opacity:1;fill-rule:nonzero;stroke:none"
         id="path360" /><path
         d="m 3842.33,676.469 h 99.26 c 2.07,0 3.75,1.679 3.75,3.75 0,2.078 -1.68,3.75 -3.75,3.75 h -99.26 c -2.07,0 -3.75,-1.672 -3.75,-3.75 0,-2.071 1.68,-3.75 3.75,-3.75"
         style="fill:#0e0f0f;fill-opacity:1;fill-rule:nonzero;stroke:none"
         id="path362" /><path
         d="m 3941.59,676.469 h 11.66 l 29.77,-200 h 57.83 c 2.08,0 3.75,1.679 3.75,3.75 0,2.078 -1.67,3.75 -3.75,3.75 h -51.36 l -29.78,200 h -18.12 c -2.07,0 -3.75,-1.672 -3.75,-3.75 0,-2.071 1.68,-3.75 3.75,-3.75 v 0"
         style="fill:#0e0f0f;fill-opacity:1;fill-rule:nonzero;stroke:none"
         id="path364" /><path
         d="m 4040.85,476.469 h 99.26 c 2.07,0 3.75,1.679 3.75,3.75 0,2.078 -1.68,3.75 -3.75,3.75 h -99.26 c -2.07,0 -3.75,-1.672 -3.75,-3.75 0,-2.071 1.68,-3.75 3.75,-3.75"
         style="fill:#0e0f0f;fill-opacity:1;fill-rule:nonzero;stroke:none"
         id="path366" /><path
         d="m 4140.11,476.469 h 18.13 l 29.77,200 h 51.37 c 2.07,0 3.75,1.679 3.75,3.75 0,2.078 -1.68,3.75 -3.75,3.75 h -57.83 l -29.78,-200 h -11.66 c -2.07,0 -3.75,-1.672 -3.75,-3.75 0,-2.071 1.68,-3.75 3.75,-3.75 v 0"
         style="fill:#0e0f0f;fill-opacity:1;fill-rule:nonzero;stroke:none"
         id="path368" /><path
         d="m 4239.38,676.469 h 99.26 c 2.07,0 3.75,1.679 3.75,3.75 0,2.078 -1.68,3.75 -3.75,3.75 h -99.26 c -2.08,0 -3.75,-1.672 -3.75,-3.75 0,-2.071 1.67,-3.75 3.75,-3.75"
         style="fill:#0e0f0f;fill-opacity:1;fill-rule:nonzero;stroke:none"
         id="path370" /><path
         d="m 4338.64,676.469 h 11.66 l 29.77,-200 h 57.83 c 2.07,0 3.75,1.679 3.75,3.75 0,2.078 -1.68,3.75 -3.75,3.75 h -51.36 l -29.78,200 h -18.12 c -2.07,0 -3.75,-1.672 -3.75,-3.75 0,-2.071 1.68,-3.75 3.75,-3.75 v 0"
         style="fill:#0e0f0f;fill-opacity:1;fill-rule:nonzero;stroke:none"
         id="path372" /><path
         d="m 4437.9,476.469 h 99.26 c 2.07,0 3.75,1.679 3.75,3.75 0,2.078 -1.68,3.75 -3.75,3.75 h -99.26 c -2.08,0 -3.75,-1.672 -3.75,-3.75 0,-2.071 1.67,-3.75 3.75,-3.75"
         style="fill:#0e0f0f;fill-opacity:1;fill-rule:nonzero;stroke:none"
         id="path374" /><path
         d="m 4537.16,476.469 h 18.12 l 29.78,200 h 51.36 c 2.07,0 3.75,1.679 3.75,3.75 0,2.078 -1.68,3.75 -3.75,3.75 h -57.82 l -29.79,-200 h -11.65 c -2.07,0 -3.75,-1.672 -3.75,-3.75 0,-2.071 1.68,-3.75 3.75,-3.75 v 0"
         style="fill:#0e0f0f;fill-opacity:1;fill-rule:nonzero;stroke:none"
         id="path376" /><path
         d="m 4636.42,676.469 h 99.26 c 2.07,0 3.75,1.679 3.75,3.758 0,2.07 -1.68,3.742 -3.75,3.742 h -99.26 c -2.07,0 -3.75,-1.672 -3.75,-3.742 0,-2.079 1.68,-3.758 3.75,-3.758"
         style="fill:#0e0f0f;fill-opacity:1;fill-rule:nonzero;stroke:none"
         id="path378" /><path
         d="m 4735.68,676.469 h 99.27 c 2.07,0 3.75,1.679 3.75,3.75 0,2.078 -1.68,3.75 -3.75,3.75 h -99.27 c -2.07,0 -3.75,-1.672 -3.75,-3.75 0,-2.071 1.68,-3.75 3.75,-3.75"
         style="fill:#0e0f0f;fill-opacity:1;fill-rule:nonzero;stroke:none"
         id="path380" /><path
         d="m 4834.95,676.469 h 99.25 c 2.08,0 3.75,1.679 3.75,3.758 0,2.07 -1.67,3.742 -3.75,3.742 h -99.25 c -2.07,0 -3.75,-1.672 -3.75,-3.742 0,-2.079 1.68,-3.758 3.75,-3.758"
         style="fill:#0e0f0f;fill-opacity:1;fill-rule:nonzero;stroke:none"
         id="path382" /><path
         d="m 1140.71,1160.22 h -32.13 c -40.16,0 -40.16,-240.001 -80.31,-240.001 h 32.12 c 40.16,0 40.16,240.001 80.32,240.001 v 0"
         style="fill:#ffffff;fill-opacity:1;fill-rule:nonzero;stroke:none"
         id="path384" /><path
         d="m 1028.27,915.219 c 3.78,-0.02 7.33,1.484 10.18,3.777 5.37,4.336 9.17,11.164 12.68,19.824 6.05,15.157 10.77,36.301 15.14,59.727 6.53,35.113 12.17,75.273 19.19,106.403 3.5,15.55 7.38,28.86 11.66,37.84 2.13,4.48 4.36,7.85 6.39,9.83 2.07,2.01 3.58,2.58 5.07,2.6 2.76,0 5,2.23 5,5 0,2.76 -2.24,5 -5,5 -3.79,0.02 -7.33,-1.49 -10.19,-3.78 -5.37,-4.35 -9.16,-11.16 -12.68,-19.83 -6.05,-15.16 -10.77,-36.29 -15.14,-59.73 -6.53,-35.1 -12.16,-75.27 -19.18,-106.4 -3.5,-15.546 -7.39,-28.855 -11.67,-37.832 -2.12,-4.48 -4.35,-7.851 -6.38,-9.832 -2.08,-2.011 -3.59,-2.578 -5.07,-2.597 -2.76,0 -5,-2.239 -5,-5 0,-2.766 2.24,-5 5,-5 v 0"
         style="fill:#0e0f0f;fill-opacity:1;fill-rule:nonzero;stroke:none"
         id="path386" /><path
         d="m 1060.39,915.219 c 3.79,-0.02 7.33,1.484 10.19,3.777 5.37,4.336 9.16,11.164 12.68,19.824 6.05,15.157 10.77,36.301 15.14,59.727 6.53,35.113 12.16,75.273 19.19,106.403 3.49,15.55 7.38,28.86 11.66,37.84 2.12,4.48 4.36,7.85 6.38,9.83 2.08,2.01 3.59,2.58 5.08,2.6 2.76,0 5,2.23 5,5 0,2.76 -2.24,5 -5,5 -3.79,0.02 -7.33,-1.49 -10.19,-3.78 -5.37,-4.35 -9.17,-11.16 -12.68,-19.83 -6.05,-15.16 -10.77,-36.29 -15.14,-59.73 -6.53,-35.1 -12.17,-75.27 -19.19,-106.4 -3.5,-15.546 -7.38,-28.855 -11.66,-37.832 -2.13,-4.48 -4.36,-7.851 -6.39,-9.832 -2.07,-2.011 -3.58,-2.578 -5.07,-2.597 -2.76,0 -5,-2.239 -5,-5 0,-2.766 2.24,-5 5,-5 v 0"
         style="fill:#0e0f0f;fill-opacity:1;fill-rule:nonzero;stroke:none"
         id="path388" /><path
         d="m 2339.46,1160.22 h -34.3 c -42.88,0 -42.88,-240.001 -85.76,-240.001 h 34.31 c 42.87,0 42.87,240.001 85.75,240.001 v 0"
         style="fill:#ffffff;fill-opacity:1;fill-rule:nonzero;stroke:none"
         id="path390" /><path
         d="m 2219.4,915.219 c 3.87,-0.02 7.53,1.414 10.54,3.679 5.68,4.29 9.77,11.145 13.52,19.817 6.47,15.183 11.51,36.336 16.18,59.773 6.97,35.122 12.99,75.282 20.49,106.402 3.73,15.53 7.87,28.82 12.43,37.78 2.27,4.47 4.64,7.83 6.82,9.84 2.23,2.03 3.97,2.69 5.78,2.71 2.76,0 5,2.23 5,5 0,2.76 -2.24,5 -5,5 -3.87,0.01 -7.53,-1.42 -10.54,-3.68 -5.67,-4.29 -9.77,-11.15 -13.52,-19.82 -6.47,-15.18 -11.51,-36.34 -16.18,-59.77 -6.97,-35.12 -12.99,-75.29 -20.48,-106.399 -3.73,-15.539 -7.88,-28.828 -12.44,-37.785 -2.26,-4.473 -4.64,-7.832 -6.82,-9.844 -2.23,-2.02 -3.97,-2.684 -5.78,-2.703 -2.76,0 -5,-2.239 -5,-5 0,-2.766 2.24,-5 5,-5 v 0"
         style="fill:#0e0f0f;fill-opacity:1;fill-rule:nonzero;stroke:none"
         id="path392" /><path
         d="m 2253.71,915.219 c 3.87,-0.02 7.52,1.414 10.54,3.679 5.67,4.29 9.76,11.145 13.51,19.817 6.47,15.183 11.52,36.336 16.18,59.773 6.98,35.122 12.99,75.282 20.49,106.402 3.73,15.53 7.87,28.82 12.43,37.78 2.27,4.47 4.64,7.83 6.83,9.84 2.23,2.03 3.96,2.69 5.77,2.71 2.76,0 5,2.23 5,5 0,2.76 -2.24,5 -5,5 -3.87,0.01 -7.53,-1.42 -10.54,-3.68 -5.67,-4.29 -9.77,-11.15 -13.52,-19.82 -6.47,-15.18 -11.51,-36.34 -16.18,-59.77 -6.97,-35.12 -12.99,-75.29 -20.48,-106.399 -3.73,-15.539 -7.88,-28.828 -12.44,-37.785 -2.26,-4.473 -4.64,-7.832 -6.82,-9.844 -2.23,-2.02 -3.97,-2.684 -5.77,-2.703 -2.77,0 -5,-2.239 -5,-5 0,-2.766 2.23,-5 5,-5 v 0"
         style="fill:#0e0f0f;fill-opacity:1;fill-rule:nonzero;stroke:none"
         id="path394" /><path
         d="m 3522.98,1170.22 h -32.13 c -40.15,0 -40.15,-240.001 -80.31,-240.001 h 32.13 c 40.16,0 40.16,240.001 80.31,240.001 v 0"
         style="fill:#ffffff;fill-opacity:1;fill-rule:nonzero;stroke:none"
         id="path396" /><path
         d="m 3410.54,925.219 c 3.79,-0.02 7.33,1.484 10.19,3.777 5.37,4.336 9.16,11.164 12.68,19.824 6.05,15.157 10.77,36.301 15.14,59.74 6.53,35.1 12.16,75.26 19.19,106.39 3.49,15.55 7.38,28.86 11.66,37.84 2.12,4.48 4.36,7.85 6.38,9.83 2.08,2.01 3.6,2.58 5.07,2.6 2.77,0 5,2.23 5,5 0,2.76 -2.23,5 -5,5 -3.78,0.02 -7.33,-1.49 -10.18,-3.78 -5.37,-4.35 -9.17,-11.16 -12.68,-19.83 -6.05,-15.16 -10.77,-36.29 -15.14,-59.73 -6.53,-35.1 -12.17,-75.27 -19.19,-106.4 -3.49,-15.546 -7.38,-28.855 -11.66,-37.832 -2.12,-4.48 -4.36,-7.851 -6.39,-9.832 -2.07,-2.011 -3.58,-2.578 -5.07,-2.597 -2.76,0 -5,-2.239 -5,-5 0,-2.766 2.24,-5 5,-5 v 0"
         style="fill:#0e0f0f;fill-opacity:1;fill-rule:nonzero;stroke:none"
         id="path398" /><path
         d="m 3442.67,925.219 c 3.79,-0.02 7.33,1.484 10.19,3.777 5.37,4.336 9.16,11.164 12.68,19.824 6.05,15.157 10.77,36.301 15.14,59.74 6.53,35.1 12.16,75.26 19.18,106.39 3.5,15.55 7.39,28.86 11.67,37.84 2.12,4.48 4.35,7.85 6.38,9.83 2.08,2.01 3.59,2.58 5.07,2.6 2.76,0 5,2.23 5,5 0,2.76 -2.24,5 -5,5 -3.78,0.02 -7.33,-1.49 -10.18,-3.78 -5.37,-4.35 -9.17,-11.16 -12.68,-19.83 -6.05,-15.16 -10.77,-36.29 -15.14,-59.73 -6.53,-35.1 -12.17,-75.27 -19.19,-106.4 -3.5,-15.546 -7.38,-28.855 -11.66,-37.832 -2.13,-4.48 -4.36,-7.851 -6.39,-9.832 -2.07,-2.011 -3.58,-2.578 -5.07,-2.597 -2.76,0 -5,-2.239 -5,-5 0,-2.766 2.24,-5 5,-5 v 0"
         style="fill:#0e0f0f;fill-opacity:1;fill-rule:nonzero;stroke:none"
         id="path400" /><path
         d="m 497.883,683.969 h -7.512 v 22.41 c 0,2.07 1.68,3.75 3.754,3.75 2.074,0 3.758,-1.68 3.758,-3.75 v -22.41 m -3.758,-21.348 c -2.074,0 -3.754,1.68 -3.754,3.758 v 10.09 h 7.512 v -10.09 c 0,-2.078 -1.684,-3.758 -3.758,-3.758 M 665.961,611.32 c -2.074,0 -3.754,1.68 -3.754,3.75 v 40 c 0,2.082 1.68,3.762 3.754,3.762 2.074,0 3.758,-1.68 3.758,-3.762 v -40 c 0,-2.07 -1.684,-3.75 -3.758,-3.75 M 494.125,582.621 c -2.074,0 -3.754,1.68 -3.754,3.75 v 40.008 c 0,2.07 1.68,3.75 3.754,3.75 2.074,0 3.758,-1.68 3.758,-3.75 v -40.008 c 0,-2.07 -1.684,-3.75 -3.758,-3.75 M 665.961,531.32 c -2.074,0 -3.754,1.68 -3.754,3.75 v 40 c 0,2.082 1.68,3.762 3.754,3.762 2.074,0 3.758,-1.68 3.758,-3.762 v -40 c 0,-2.07 -1.684,-3.75 -3.758,-3.75 M 494.125,502.621 c -2.074,0 -3.754,1.68 -3.754,3.758 v 40 c 0,2.07 1.68,3.75 3.754,3.75 2.074,0 3.758,-1.68 3.758,-3.75 v -40 c 0,-2.078 -1.684,-3.758 -3.758,-3.758 M 665.961,451.32 c -2.074,0 -3.754,1.68 -3.754,3.75 v 40 c 0,2.082 1.68,3.762 3.754,3.762 2.074,0 3.758,-1.68 3.758,-3.762 v -40 c 0,-2.07 -1.684,-3.75 -3.758,-3.75 M 494.125,422.621 c -2.074,0 -3.754,1.68 -3.754,3.758 v 39.992 c 0,2.078 1.68,3.758 3.754,3.758 2.074,0 3.758,-1.68 3.758,-3.758 v -39.992 c 0,-2.078 -1.684,-3.758 -3.758,-3.758 M 665.961,371.32 c -2.074,0 -3.754,1.68 -3.754,3.75 v 40 c 0,2.082 1.68,3.762 3.754,3.762 2.074,0 3.758,-1.68 3.758,-3.762 v -40 c 0,-2.07 -1.684,-3.75 -3.758,-3.75 M 494.125,342.621 c -2.074,0 -3.754,1.68 -3.754,3.758 v 40 c 0,2.07 1.68,3.75 3.754,3.75 2.074,0 3.758,-1.68 3.758,-3.75 v -40 c 0,-2.078 -1.684,-3.758 -3.758,-3.758 m 40,-39.465 h -40 c -2.074,0 -3.754,1.68 -3.754,3.75 0,2.082 1.68,3.762 3.754,3.762 h 40 c 2.074,0 3.758,-1.68 3.758,-3.762 0,-2.07 -1.684,-3.75 -3.758,-3.75 m 80,0 h -40 c -2.074,0 -3.754,1.68 -3.754,3.75 0,2.082 1.68,3.762 3.754,3.762 h 40 c 2.074,0 3.758,-1.68 3.758,-3.762 0,-2.07 -1.684,-3.75 -3.758,-3.75 m 51.836,0 h -11.836 c -2.074,0 -3.754,1.68 -3.754,3.75 0,2.082 1.68,3.762 3.754,3.762 h 8.082 v 24.402 c 0,2.082 1.68,3.762 3.754,3.762 2.074,0 3.758,-1.68 3.758,-3.762 v -28.164 c 0,-0.984 -0.403,-1.953 -1.102,-2.656 -0.695,-0.691 -1.664,-1.094 -2.656,-1.094"
         style="fill:#282423;fill-opacity:1;fill-rule:nonzero;stroke:none"
         id="path402" /><path
         d="m 490.371,676.469 h 7.51172 v 7.5 H 490.371 Z"
         style="fill:#10100f;fill-opacity:1;fill-rule:nonzero;stroke:none"
         id="path404" /><path
         d="m 545.691,1131.05 h -40 c -2.074,0 -3.753,1.69 -3.753,3.76 0,2.07 1.679,3.75 3.753,3.75 h 40 c 2.079,0 3.758,-1.68 3.758,-3.75 0,-2.07 -1.679,-3.76 -3.758,-3.76 m 80,0 h -40 c -2.074,0 -3.753,1.69 -3.753,3.76 0,2.07 1.679,3.75 3.753,3.75 h 40 c 2.079,0 3.758,-1.68 3.758,-3.75 0,-2.07 -1.679,-3.76 -3.758,-3.76 m 40.27,-39.73 c -2.074,0 -3.754,1.68 -3.754,3.75 v 38.34 c -0.172,0.43 -0.269,0.9 -0.269,1.4 0,2.07 1.683,3.75 3.753,3.75 h 0.27 c 0.992,0 1.961,-0.4 2.656,-1.1 0.699,-0.7 1.102,-1.67 1.102,-2.65 v -39.74 c 0,-2.07 -1.684,-3.75 -3.758,-3.75 m -171.836,-28.7 c -2.074,0 -3.754,1.68 -3.754,3.76 v 39.99 c 0,2.08 1.68,3.76 3.754,3.76 2.074,0 3.758,-1.68 3.758,-3.76 v -39.99 c 0,-2.08 -1.684,-3.76 -3.758,-3.76 m 171.836,-51.3 c -2.074,0 -3.754,1.68 -3.754,3.75 v 40 c 0,2.08 1.68,3.76 3.754,3.76 2.074,0 3.758,-1.68 3.758,-3.76 v -40 c 0,-2.07 -1.684,-3.75 -3.758,-3.75 M 494.125,982.621 c -2.074,0 -3.754,1.68 -3.754,3.758 v 39.991 c 0,2.08 1.68,3.76 3.754,3.76 2.074,0 3.758,-1.68 3.758,-3.76 v -39.991 c 0,-2.078 -1.684,-3.758 -3.758,-3.758 M 665.961,931.32 c -2.074,0 -3.754,1.68 -3.754,3.75 v 40 c 0,2.082 1.68,3.762 3.754,3.762 2.074,0 3.758,-1.68 3.758,-3.762 v -40 c 0,-2.07 -1.684,-3.75 -3.758,-3.75 M 494.125,902.621 c -2.074,0 -3.754,1.68 -3.754,3.75 v 40.008 c 0,2.07 1.68,3.75 3.754,3.75 2.074,0 3.758,-1.68 3.758,-3.75 v -40.008 c 0,-2.07 -1.684,-3.75 -3.758,-3.75 M 665.961,851.32 c -2.074,0 -3.754,1.68 -3.754,3.75 v 40 c 0,2.082 1.68,3.762 3.754,3.762 2.074,0 3.758,-1.68 3.758,-3.762 v -40 c 0,-2.07 -1.684,-3.75 -3.758,-3.75 M 494.125,822.621 c -2.074,0 -3.754,1.68 -3.754,3.758 v 40 c 0,2.07 1.68,3.75 3.754,3.75 2.074,0 3.758,-1.68 3.758,-3.75 v -40 c 0,-2.078 -1.684,-3.758 -3.758,-3.758 M 665.961,771.32 c -2.074,0 -3.754,1.68 -3.754,3.75 v 40 c 0,2.082 1.68,3.762 3.754,3.762 2.074,0 3.758,-1.68 3.758,-3.762 v -40 c 0,-2.07 -1.684,-3.75 -3.758,-3.75 M 494.125,742.621 c -2.074,0 -3.754,1.68 -3.754,3.758 v 39.992 c 0,2.078 1.68,3.758 3.754,3.758 2.074,0 3.758,-1.68 3.758,-3.758 v -39.992 c 0,-2.078 -1.684,-3.758 -3.758,-3.758 M 665.961,691.32 c -2.074,0 -3.754,1.68 -3.754,3.75 v 40 c 0,2.082 1.68,3.762 3.754,3.762 2.074,0 3.758,-1.68 3.758,-3.762 v -40 c 0,-2.07 -1.684,-3.75 -3.758,-3.75"
         style="fill:#282423;fill-opacity:1;fill-rule:nonzero;stroke:none"
         id="path406" /><g
         id="g408"
         transform="scale(10)"><text
           transform="matrix(1,0,0,-1,55.0473,35.0309)"
           style="font-variant:normal;font-weight:normal;font-size:11px;font-family:Arial;-inkscape-font-specification:ArialMT;writing-mode:lr-tb;fill:#231f20;fill-opacity:1;fill-rule:nonzero;stroke:none"
           id="text412"><tspan
             x="0"
             y="0"
             id="tspan410">S</tspan></text></g><path
         d="m 4766.41,1106.46 h -28.23 v 3.76 h -5 v -3.76 h -6.77 c -2.08,0 -3.76,1.69 -3.76,3.76 0,2.07 1.68,3.75 3.76,3.75 h 40 c 2.07,0 3.75,-1.68 3.75,-3.75 0,-2.07 -1.68,-3.76 -3.75,-3.76 m 80,0 h -40 c -2.08,0 -3.76,1.69 -3.76,3.76 0,2.07 1.68,3.75 3.76,3.75 h 40 c 2.07,0 3.75,-1.68 3.75,-3.75 0,-2.07 -1.68,-3.76 -3.75,-3.76 m -160.36,-39.64 c -2.07,0 -3.76,1.68 -3.76,3.76 v 39.64 c 0,0.98 0.41,1.95 1.1,2.66 0.7,0.69 1.67,1.09 2.66,1.09 h 0.36 c 2.07,0 3.75,-1.68 3.75,-3.75 0,-0.58 -0.13,-1.11 -0.36,-1.6 l 0.01,-38.04 c 0,-2.08 -1.68,-3.76 -3.76,-3.76 m 198.53,-2.19 c -2.08,0 -3.76,1.68 -3.76,3.75 v 40 c 0,2.08 1.68,3.76 3.76,3.76 2.07,0 3.75,-1.68 3.75,-3.76 v -40 c 0,-2.07 -1.68,-3.75 -3.75,-3.75 m -198.53,-77.81 c -2.07,0 -3.76,1.68 -3.76,3.75 v 40 c 0,2.08 1.69,3.76 3.76,3.76 2.08,0 3.75,-1.68 3.75,-3.76 v -40 c 0,-2.07 -1.67,-3.75 -3.75,-3.75 m 198.53,-2.187 c -2.08,0 -3.76,1.68 -3.76,3.75 v 39.997 c 0,2.08 1.68,3.76 3.76,3.76 2.07,0 3.75,-1.68 3.75,-3.76 v -39.997 c 0,-2.07 -1.68,-3.75 -3.75,-3.75 M 4686.05,906.82 c -2.07,0 -3.76,1.68 -3.76,3.75 v 40.008 c 0,2.07 1.69,3.75 3.76,3.75 2.08,0 3.75,-1.68 3.75,-3.75 V 910.57 c 0,-2.07 -1.67,-3.75 -3.75,-3.75 m 198.53,-2.187 c -2.08,0 -3.76,1.68 -3.76,3.75 v 40 c 0,2.078 1.68,3.758 3.76,3.758 2.07,0 3.75,-1.68 3.75,-3.758 v -40 c 0,-2.07 -1.68,-3.75 -3.75,-3.75 M 4689.8,843.969 h -7.51 v 26.601 c 0,2.078 1.69,3.758 3.76,3.758 2.08,0 3.75,-1.68 3.75,-3.758 v -26.601 m -3.75,-17.149 c -2.07,0 -3.76,1.68 -3.76,3.758 v 5.899 h 7.51 v -5.899 c 0,-2.078 -1.67,-3.758 -3.75,-3.758 m 198.53,-2.187 c -2.08,0 -3.76,1.68 -3.76,3.75 v 40 c 0,2.078 1.68,3.758 3.76,3.758 2.07,0 3.75,-1.68 3.75,-3.758 v -40 c 0,-2.07 -1.68,-3.75 -3.75,-3.75 M 4686.05,746.82 c -2.07,0 -3.76,1.68 -3.76,3.75 v 40 c 0,2.078 1.69,3.758 3.76,3.758 2.08,0 3.75,-1.68 3.75,-3.758 v -40 c 0,-2.07 -1.67,-3.75 -3.75,-3.75 m 198.53,-2.187 c -2.08,0 -3.76,1.68 -3.76,3.75 v 40 c 0,2.078 1.68,3.758 3.76,3.758 2.07,0 3.75,-1.68 3.75,-3.758 v -40 c 0,-2.07 -1.68,-3.75 -3.75,-3.75 M 4689.8,683.969 h -7.51 v 26.609 c 0,2.07 1.69,3.75 3.76,3.75 2.08,0 3.75,-1.68 3.75,-3.75 v -26.609 m 198.53,0 h -7.51 v 24.414 c 0,2.078 1.68,3.758 3.76,3.758 2.07,0 3.75,-1.68 3.75,-3.758 V 683.969 M 4686.05,666.82 c -2.07,0 -3.76,1.68 -3.76,3.75 v 5.899 h 7.51 v -5.899 c 0,-2.07 -1.67,-3.75 -3.75,-3.75 m 198.53,-2.187 c -2.08,0 -3.76,1.68 -3.76,3.758 v 8.078 h 7.51 v -8.078 c 0,-2.078 -1.68,-3.758 -3.75,-3.758 M 4686.05,586.82 c -2.07,0 -3.76,1.68 -3.76,3.758 v 39.992 c 0,2.078 1.69,3.758 3.76,3.758 2.08,0 3.75,-1.68 3.75,-3.758 v -39.992 c 0,-2.078 -1.67,-3.758 -3.75,-3.758 m 198.53,-2.187 c -2.08,0 -3.76,1.68 -3.76,3.75 v 40 c 0,2.078 1.68,3.758 3.76,3.758 2.07,0 3.75,-1.68 3.75,-3.758 v -40 c 0,-2.07 -1.68,-3.75 -3.75,-3.75 M 4686.05,506.82 c -2.07,0 -3.76,1.68 -3.76,3.75 v 40 c 0,2.078 1.69,3.758 3.76,3.758 2.08,0 3.75,-1.68 3.75,-3.758 v -40 c 0,-2.07 -1.67,-3.75 -3.75,-3.75 m 198.53,-2.187 c -2.08,0 -3.76,1.68 -3.76,3.75 v 40.008 c 0,2.07 1.68,3.75 3.76,3.75 2.07,0 3.75,-1.68 3.75,-3.75 v -40.008 c 0,-2.07 -1.68,-3.75 -3.75,-3.75 M 4686.05,426.82 c -2.07,0 -3.76,1.68 -3.76,3.75 v 40.008 c 0,2.07 1.69,3.75 3.76,3.75 2.08,0 3.75,-1.68 3.75,-3.75 V 430.57 c 0,-2.07 -1.67,-3.75 -3.75,-3.75 m 198.53,-2.187 c -2.08,0 -3.76,1.68 -3.76,3.75 v 40 c 0,2.078 1.68,3.758 3.76,3.758 2.07,0 3.75,-1.68 3.75,-3.758 v -40 c 0,-2.07 -1.68,-3.75 -3.75,-3.75 M 4686.05,346.82 c -2.07,0 -3.76,1.68 -3.76,3.758 v 39.992 c 0,2.078 1.69,3.758 3.76,3.758 2.08,0 3.75,-1.68 3.75,-3.758 v -39.992 c 0,-2.078 -1.67,-3.758 -3.75,-3.758 m 198.53,-2.187 c -2.08,0 -3.76,1.68 -3.76,3.75 v 40 c 0,2.078 1.68,3.758 3.76,3.758 2.07,0 3.75,-1.68 3.75,-3.758 v -40 c 0,-2.07 -1.68,-3.75 -3.75,-3.75 M 4682.29,310.57 v 0.008 -0.008 m 43.76,-7.414 h -40 c -0.99,0 -1.96,0.403 -2.66,1.106 -0.69,0.691 -1.1,1.66 -1.1,2.644 v 3.664 c 0,2.078 1.69,3.758 3.76,3.758 2.04,0 3.7,-1.629 3.75,-3.66 h 36.25 c 2.08,0 3.75,-1.68 3.75,-3.762 0,-2.07 -1.67,-3.75 -3.75,-3.75 m 80,0 h -40 c -2.07,0 -3.76,1.68 -3.76,3.75 0,2.082 1.69,3.762 3.76,3.762 h 40 c 2.08,0 3.75,-1.68 3.75,-3.762 0,-2.07 -1.67,-3.75 -3.75,-3.75 m 78.53,0 h -38.53 c -2.07,0 -3.76,1.68 -3.76,3.75 0,2.082 1.69,3.762 3.76,3.762 h 35.54 c 0.69,0.898 1.77,1.473 2.99,1.473 2.07,0 3.75,-1.68 3.75,-3.758 v -1.477 c 0,-0.984 -0.4,-1.953 -1.1,-2.644 -0.7,-0.703 -1.67,-1.106 -2.65,-1.106"
         style="fill:#282423;fill-opacity:1;fill-rule:nonzero;stroke:none"
         id="path414" /><path
         d="m 4733.18,1106.46 h 5 v 3.7617 h -5 z"
         style="fill:#1f1e1f;fill-opacity:1;fill-rule:nonzero;stroke:none"
         id="path416" /><path
         d="m 4682.29,836.477 h 7.5117 v 7.49219 h -7.5117 z"
         style="fill:#10100f;fill-opacity:1;fill-rule:nonzero;stroke:none"
         id="path418" /><path
         d="m 4682.29,676.469 h 7.5117 v 7.5 h -7.5117 z"
         style="fill:#10100f;fill-opacity:1;fill-rule:nonzero;stroke:none"
         id="path420" /><path
         d="m 4880.82,676.469 h 7.5117 v 7.5 h -7.5117 z"
         style="fill:#10100f;fill-opacity:1;fill-rule:nonzero;stroke:none"
         id="path422" /><g
         id="g424"
         transform="scale(10)"><text
           transform="matrix(1,0,0,-1,476.149,36.0309)"
           style="font-variant:normal;font-weight:normal;font-size:11px;font-family:Arial;-inkscape-font-specification:ArialMT;writing-mode:lr-tb;fill:#231f20;fill-opacity:1;fill-rule:nonzero;stroke:none"
           id="text428"><tspan
             x="0"
             y="0"
             id="tspan426">P</tspan></text><text
           transform="matrix(1,0,0,-1,42.258,16.0391)"
           style="font-variant:normal;font-weight:normal;font-size:9px;font-family:Arial;-inkscape-font-specification:ArialMT;writing-mode:lr-tb;fill:#231f20;fill-opacity:1;fill-rule:nonzero;stroke:none"
           id="text434"><tspan
             x="0 6.0029998 10.836 16.839001 23.179821 28.51527"
             y="0"
             sodipodi:role="line"
             id="tspan430">START </tspan><tspan
             x="0 4.5 9.5039997 14.508 19.511999 21.51 24.011999 26.01 31.023436"
             y="10.7969"
             sodipodi:role="line"
             id="tspan432">condition</tspan></text><text
           transform="matrix(1,0,0,-1,463.899,17.0391)"
           style="font-variant:normal;font-weight:normal;font-size:11px;font-family:Arial;-inkscape-font-specification:ArialMT;writing-mode:lr-tb;fill:#231f20;fill-opacity:1;fill-rule:nonzero;stroke:none"
           id="text446"><tspan
             x="0 7.3369999 13.859461 22.416094 29.562176"
             y="0"
             sodipodi:role="line"
             id="tspan436">STOP </tspan><tspan
             x="0 5.5 11.617172 17.735321 23.853468 26.296837 29.353468 31.796837 37.914009"
             y="13.2031"
             sodipodi:role="line"
             id="tspan438">condition</tspan><tspan
             x="-363.34399 -357.22632 -353.56314 -318.3396 -278.73431"
             y="-33.991798"
             sodipodi:role="line"
             id="tspan440">1-789</tspan><tspan
             x="-243.625 -237.50731 -233.84373 -198.73041 -160.73399 -124.62495 -118.50775 -114.84368 -80.733887"
             y="-35.991798"
             sodipodi:role="line"
             id="tspan442">1-7891-78</tspan><tspan
             x="-40.734001"
             y="-34.999611"
             id="tspan444">9</tspan></text></g><path
         d="m 864.48,289.691 h 397.05"
         style="fill:#231f20;fill-opacity:1;fill-rule:nonzero;stroke:none"
         id="path448" /><path
         d="m 864.48,285.941 h 397.051 v 7.5 H 864.48 Z"
         style="fill:#0e0f0f;fill-opacity:1;fill-rule:nonzero;stroke:none"
         id="path450" /><path
         d="M 864.48,399.594 V 279.691"
         style="fill:#231f20;fill-opacity:1;fill-rule:nonzero;stroke:none"
         id="path452" /><path
         d="m 860.73,279.691 h 7.5 v 119.902 h -7.5 z"
         style="fill:#0e0f0f;fill-opacity:1;fill-rule:nonzero;stroke:none"
         id="path454" /><path
         d="M 1263.29,408.977 V 289.074"
         style="fill:#231f20;fill-opacity:1;fill-rule:nonzero;stroke:none"
         id="path456" /><path
         d="m 1259.54,289.074 h 7.5 v 119.902 h -7.5 z"
         style="fill:#0e0f0f;fill-opacity:1;fill-rule:nonzero;stroke:none"
         id="path458" /><g
         id="g460"
         transform="scale(10)"><text
           transform="matrix(1,0,0,-1,86.2113,13.8281)"
           style="font-variant:normal;font-weight:normal;font-size:9px;font-family:Arial;-inkscape-font-specification:ArialMT;writing-mode:lr-tb;fill:#231f20;fill-opacity:1;fill-rule:nonzero;stroke:none"
           id="text464"><tspan
             x="0 6.0029998 12.501 18.999001 25.497 31.5 37.502998"
             y="0"
             sodipodi:role="line"
             id="tspan462">ADDRESS</tspan></text></g><path
         d="m 1318.88,289.691 h 329.93"
         style="fill:#231f20;fill-opacity:1;fill-rule:nonzero;stroke:none"
         id="path466" /><path
         d="m 1318.88,285.941 h 329.93 v 7.5 h -329.93 z"
         style="fill:#0e0f0f;fill-opacity:1;fill-rule:nonzero;stroke:none"
         id="path468" /><path
         d="M 1318.88,399.594 V 279.691"
         style="fill:#231f20;fill-opacity:1;fill-rule:nonzero;stroke:none"
         id="path470" /><path
         d="m 1315.13,279.691 h 7.5 v 119.902 h -7.5 z"
         style="fill:#0e0f0f;fill-opacity:1;fill-rule:nonzero;stroke:none"
         id="path472" /><path
         d="M 1658.57,408.977 V 289.074"
         style="fill:#231f20;fill-opacity:1;fill-rule:nonzero;stroke:none"
         id="path474" /><path
         d="m 1654.82,289.074 h 7.5 v 119.902 h -7.5 z"
         style="fill:#0e0f0f;fill-opacity:1;fill-rule:nonzero;stroke:none"
         id="path476" /><g
         id="g478"
         transform="scale(10)"><text
           transform="matrix(1,0,0,-1,142.04,12.9449)"
           style="font-variant:normal;font-weight:normal;font-size:9px;font-family:Arial;-inkscape-font-specification:ArialMT;writing-mode:lr-tb;fill:#231f20;fill-opacity:1;fill-rule:nonzero;stroke:none"
           id="text482"><tspan
             x="0 6.4995136 9.0070333"
             y="0"
             sodipodi:role="line"
             id="tspan480">R/W</tspan></text></g><path
         d="m 1509.68,224.109 h 71.97"
         style="fill:#231f20;fill-opacity:1;fill-rule:nonzero;stroke:none"
         id="path484" /><path
         d="m 1509.68,220.359 h 71.9688 v 7.5 H 1509.68 Z"
         style="fill:#0e0f0f;fill-opacity:1;fill-rule:nonzero;stroke:none"
         id="path486" /><path
         d="m 1713.44,289.691 h 329.92"
         style="fill:#231f20;fill-opacity:1;fill-rule:nonzero;stroke:none"
         id="path488" /><path
         d="m 1713.44,285.941 h 329.918 v 7.5 H 1713.44 Z"
         style="fill:#0e0f0f;fill-opacity:1;fill-rule:nonzero;stroke:none"
         id="path490" /><path
         d="M 1713.44,399.594 V 279.691"
         style="fill:#231f20;fill-opacity:1;fill-rule:nonzero;stroke:none"
         id="path492" /><path
         d="m 1709.69,279.691 h 7.5 v 119.902 h -7.5 z"
         style="fill:#0e0f0f;fill-opacity:1;fill-rule:nonzero;stroke:none"
         id="path494" /><path
         d="M 2053.13,408.977 V 289.074"
         style="fill:#231f20;fill-opacity:1;fill-rule:nonzero;stroke:none"
         id="path496" /><path
         d="m 2049.38,289.074 h 7.5 v 119.902 h -7.5 z"
         style="fill:#0e0f0f;fill-opacity:1;fill-rule:nonzero;stroke:none"
         id="path498" /><g
         id="g500"
         transform="scale(10)"><text
           transform="matrix(1,0,0,-1,180.047,13.8281)"
           style="font-variant:normal;font-weight:normal;font-size:9px;font-family:Arial;-inkscape-font-specification:ArialMT;writing-mode:lr-tb;fill:#231f20;fill-opacity:1;fill-rule:nonzero;stroke:none"
           id="text504"><tspan
             x="0 6.0029998 12.501"
             y="0"
             sodipodi:role="line"
             id="tspan502">ACK</tspan></text></g><path
         d="M 2839.71,408.977 V 289.074"
         style="fill:#231f20;fill-opacity:1;fill-rule:nonzero;stroke:none"
         id="path506" /><path
         d="m 2835.96,289.074 h 7.5 v 119.902 h -7.5 z"
         style="fill:#0e0f0f;fill-opacity:1;fill-rule:nonzero;stroke:none"
         id="path508" /><path
         d="m 2105.25,289.691 h 723.06"
         style="fill:#231f20;fill-opacity:1;fill-rule:nonzero;stroke:none"
         id="path510" /><path
         d="m 2105.25,285.941 h 723.059 v 7.5 H 2105.25 Z"
         style="fill:#0e0f0f;fill-opacity:1;fill-rule:nonzero;stroke:none"
         id="path512" /><path
         d="M 2105.25,399.594 V 279.691"
         style="fill:#231f20;fill-opacity:1;fill-rule:nonzero;stroke:none"
         id="path514" /><path
         d="m 2101.5,279.691 h 7.5 v 119.902 h -7.5 z"
         style="fill:#0e0f0f;fill-opacity:1;fill-rule:nonzero;stroke:none"
         id="path516" /><g
         id="g518"
         transform="scale(10)"><text
           transform="matrix(1,0,0,-1,238.04,13.8281)"
           style="font-variant:normal;font-weight:normal;font-size:9px;font-family:Arial;-inkscape-font-specification:ArialMT;writing-mode:lr-tb;fill:#231f20;fill-opacity:1;fill-rule:nonzero;stroke:none"
           id="text522"><tspan
             x="0 6.4995136 11.835158 16.666702"
             y="0"
             sodipodi:role="line"
             id="tspan520">DATA</tspan></text></g><path
         d="m 2903.44,289.691 h 329.92"
         style="fill:#231f20;fill-opacity:1;fill-rule:nonzero;stroke:none"
         id="path524" /><path
         d="m 2903.44,285.941 h 329.918 v 7.5 H 2903.44 Z"
         style="fill:#0e0f0f;fill-opacity:1;fill-rule:nonzero;stroke:none"
         id="path526" /><path
         d="M 2903.44,399.594 V 279.691"
         style="fill:#231f20;fill-opacity:1;fill-rule:nonzero;stroke:none"
         id="path528" /><path
         d="m 2899.69,279.691 h 7.5 v 119.902 h -7.5 z"
         style="fill:#0e0f0f;fill-opacity:1;fill-rule:nonzero;stroke:none"
         id="path530" /><path
         d="M 3243.13,408.977 V 289.074"
         style="fill:#231f20;fill-opacity:1;fill-rule:nonzero;stroke:none"
         id="path532" /><path
         d="m 3239.38,289.074 h 7.5 v 119.902 h -7.5 z"
         style="fill:#0e0f0f;fill-opacity:1;fill-rule:nonzero;stroke:none"
         id="path534" /><g
         id="g536"
         transform="scale(10)"><text
           transform="matrix(1,0,0,-1,299.04,13.8281)"
           style="font-variant:normal;font-weight:normal;font-size:9px;font-family:Arial;-inkscape-font-specification:ArialMT;writing-mode:lr-tb;fill:#231f20;fill-opacity:1;fill-rule:nonzero;stroke:none"
           id="text540"><tspan
             x="0 6.0029998 12.502026"
             y="0"
             sodipodi:role="line"
             id="tspan538">ACK</tspan></text></g><path
         d="m 3291.05,289.691 h 723.06"
         style="fill:#231f20;fill-opacity:1;fill-rule:nonzero;stroke:none"
         id="path542" /><path
         d="m 3291.05,285.941 h 723.059 v 7.5 H 3291.05 Z"
         style="fill:#0e0f0f;fill-opacity:1;fill-rule:nonzero;stroke:none"
         id="path544" /><path
         d="M 3291.05,399.594 V 279.691"
         style="fill:#231f20;fill-opacity:1;fill-rule:nonzero;stroke:none"
         id="path546" /><path
         d="m 3287.3,279.691 h 7.5 v 119.902 h -7.5 z"
         style="fill:#0e0f0f;fill-opacity:1;fill-rule:nonzero;stroke:none"
         id="path548" /><path
         d="M 4025.51,408.977 V 289.074"
         style="fill:#231f20;fill-opacity:1;fill-rule:nonzero;stroke:none"
         id="path550" /><path
         d="m 4021.76,289.074 h 7.5 v 119.902 h -7.5 z"
         style="fill:#0e0f0f;fill-opacity:1;fill-rule:nonzero;stroke:none"
         id="path552" /><g
         id="g554"
         transform="scale(10)"><text
           transform="matrix(1,0,0,-1,356.618,13.8281)"
           style="font-variant:normal;font-weight:normal;font-size:9px;font-family:Arial;-inkscape-font-specification:ArialMT;writing-mode:lr-tb;fill:#231f20;fill-opacity:1;fill-rule:nonzero;stroke:none"
           id="text558"><tspan
             x="0 6.5000019 11.842971 16.675003"
             y="0"
             sodipodi:role="line"
             id="tspan556">DATA</tspan></text></g><path
         d="m 4093.44,289.691 h 329.92"
         style="fill:#231f20;fill-opacity:1;fill-rule:nonzero;stroke:none"
         id="path560" /><path
         d="m 4093.44,285.941 h 329.918 v 7.5 H 4093.44 Z"
         style="fill:#0e0f0f;fill-opacity:1;fill-rule:nonzero;stroke:none"
         id="path562" /><path
         d="M 4093.44,399.594 V 279.691"
         style="fill:#231f20;fill-opacity:1;fill-rule:nonzero;stroke:none"
         id="path564" /><path
         d="m 4089.69,279.691 h 7.5 v 119.902 h -7.5 z"
         style="fill:#0e0f0f;fill-opacity:1;fill-rule:nonzero;stroke:none"
         id="path566" /><path
         d="M 4433.13,408.977 V 289.074"
         style="fill:#231f20;fill-opacity:1;fill-rule:nonzero;stroke:none"
         id="path568" /><path
         d="m 4429.38,289.074 h 7.5 v 119.902 h -7.5 z"
         style="fill:#0e0f0f;fill-opacity:1;fill-rule:nonzero;stroke:none"
         id="path570" /><g
         id="g572"
         transform="scale(10)"><text
           transform="matrix(1,0,0,-1,418.547,13.8281)"
           style="font-variant:normal;font-weight:normal;font-size:9px;font-family:Arial;-inkscape-font-specification:ArialMT;writing-mode:lr-tb;fill:#231f20;fill-opacity:1;fill-rule:nonzero;stroke:none"
           id="text576"><tspan
             x="0 6.0029998 12.502026"
             y="0"
             sodipodi:role="line"
             id="tspan574">ACK</tspan></text></g><path
         d="M 3.75391,3.76172 V 0 H 5162.81 c 0.99,0 1.95,0.398438 2.65,1.10156 0.7,0.69922 1.1,1.66797 1.1,2.66016 V 1246.7 c 0,0.99 -0.4,1.96 -1.1,2.66 -0.69,0.7 -1.66,1.1 -2.65,1.1 H 3.75391 c -0.99219,0 -1.95703,-0.4 -2.65625,-1.1 C 0.402344,1248.66 0,1247.69 0,1246.7 V 3.76172 C 0,2.76953 0.402344,1.80078 1.09766,1.10156 1.79688,0.398438 2.76172,0 3.75391,0 V 3.76172 H 7.51172 V 1242.94 H 5159.05 V 7.51172 H 3.75391 v -3.75 H 7.51172 3.75391 v 0"
         style="fill:#10100f;fill-opacity:1;fill-rule:nonzero;stroke:none"
         id="path578" /></g></g></svg>
