<?xml version="1.0" encoding="UTF-8" standalone="no"?>
<svg
   xmlns:dc="http://purl.org/dc/elements/1.1/"
   xmlns:cc="http://creativecommons.org/ns#"
   xmlns:rdf="http://www.w3.org/1999/02/22-rdf-syntax-ns#"
   xmlns:svg="http://www.w3.org/2000/svg"
   xmlns="http://www.w3.org/2000/svg"
   xmlns:sodipodi="http://sodipodi.sourceforge.net/DTD/sodipodi-0.dtd"
   xmlns:inkscape="http://www.inkscape.org/namespaces/inkscape"
   version="1.1"
   id="svg2"
   xml:space="preserve"
   width="692.65332"
   height="339.50668"
   viewBox="0 0 692.65332 339.50668"
   sodipodi:docname="Reset_top.svg"
   inkscape:version="1.0.1 (3bc2e813f5, 2020-09-07)"><metadata
     id="metadata8"><rdf:RDF><cc:Work
         rdf:about=""><dc:format>image/svg+xml</dc:format><dc:type
           rdf:resource="http://purl.org/dc/dcmitype/StillImage" /><dc:title></dc:title></cc:Work></rdf:RDF></metadata><defs
     id="defs6" /><sodipodi:namedview
     pagecolor="#ffffff"
     bordercolor="#666666"
     borderopacity="1"
     objecttolerance="10"
     gridtolerance="10"
     guidetolerance="10"
     inkscape:pageopacity="0"
     inkscape:pageshadow="2"
     inkscape:window-width="786"
     inkscape:window-height="480"
     id="namedview4"
     showgrid="false"
     inkscape:zoom="1.588096"
     inkscape:cx="346.32666"
     inkscape:cy="169.75334"
     inkscape:window-x="0"
     inkscape:window-y="0"
     inkscape:window-maximized="0"
     inkscape:current-layer="g10" /><g
     id="g10"
     inkscape:groupmode="layer"
     inkscape:label="ink_ext_XXXXXX"
     transform="matrix(1.3333333,0,0,-1.3333333,0,339.50667)"><g
       id="g12"
       transform="scale(0.1)"><g
         id="g14"
         transform="scale(10)"><text
           transform="matrix(1,0,0,-1,60.6863,232.48)"
           style="font-variant:normal;font-weight:normal;font-size:9px;font-family:Arial;-inkscape-font-specification:ArialMT;writing-mode:lr-tb;fill:#0e0f0e;fill-opacity:1;fill-rule:nonzero;stroke:none"
           id="text20"><tspan
             x="0 6.4621062 12.374993 15.380075 20.360155 27.309767 33.204296 35.679691 40.679695"
             y="0"
             sodipodi:role="line"
             id="tspan16">EXT_RST_N</tspan><tspan
             x="5.7800798 10.78408 15.78808 20.79208 25.79608 30.800079 35.804081 42.302078"
             y="11.1496"
             sodipodi:role="line"
             id="tspan18">ana_powb</tspan></text></g><path
         d="m 1735.27,2245.3 h 53.19 v -493.19 h 63.9"
         style="fill:none;stroke:#0e0f0e;stroke-width:10;stroke-linecap:round;stroke-linejoin:round;stroke-miterlimit:10;stroke-dasharray:none;stroke-opacity:1"
         id="path22" /><g
         id="g24"
         transform="scale(10)"><text
           transform="matrix(1,0,0,-1,26.9164,160.561)"
           style="font-variant:normal;font-weight:normal;font-size:9px;font-family:Arial;-inkscape-font-specification:ArialMT;writing-mode:lr-tb;fill:#0e0f0e;fill-opacity:1;fill-rule:nonzero;stroke:none"
           id="text28"><tspan
             x="0 3.2671871 7.921483 13.349607 18.349606 23.227732 25.386324 28.635544 32.030075 37 42.00547 48.739067 51.987896 56.993271 64.150009 69.150009 72.398842 76.781654"
             y="0"
             sodipodi:role="line"
             id="tspan26">reg_ctrl_pwron_rst</tspan></text></g><path
         d="m 1116.16,2356.51 h 106.3 v -45 h 116"
         style="fill:none;stroke:#0e0f0e;stroke-width:10;stroke-linecap:round;stroke-linejoin:round;stroke-miterlimit:10;stroke-dasharray:none;stroke-opacity:1"
         id="path30" /><path
         d="m 1118.46,2245.3 h 220"
         style="fill:none;stroke:#0e0f0e;stroke-width:10;stroke-linecap:round;stroke-linejoin:round;stroke-miterlimit:10;stroke-dasharray:none;stroke-opacity:1"
         id="path32" /><path
         d="m 1108.77,1638.71 h 55.29"
         style="fill:none;stroke:#0e0f0e;stroke-width:10;stroke-linecap:round;stroke-linejoin:round;stroke-miterlimit:10;stroke-dasharray:none;stroke-opacity:1"
         id="path34" /><path
         d="m 1919.46,1752.11 h -67.1"
         style="fill:none;stroke:#231f20;stroke-width:10;stroke-linecap:round;stroke-linejoin:round;stroke-miterlimit:10;stroke-dasharray:none;stroke-opacity:1"
         id="path36" /><path
         d="m 1919.46,1638.71 h -67.1"
         style="fill:none;stroke:#231f20;stroke-width:10;stroke-linecap:round;stroke-linejoin:round;stroke-miterlimit:10;stroke-dasharray:none;stroke-opacity:1"
         id="path38" /><path
         d="m 2154.57,1695.41 h 100.7"
         style="fill:none;stroke:#231f20;stroke-width:10;stroke-linecap:round;stroke-linejoin:round;stroke-miterlimit:10;stroke-dasharray:none;stroke-opacity:1"
         id="path40" /><path
         d="m 1919.46,1780.41 v -170 h 141.1 c 51.9,0 94.01,38 94.01,85 0,47 -42.11,85 -94.01,85 h -141.1"
         style="fill:#dddddd;fill-opacity:1;fill-rule:evenodd;stroke:none"
         id="path42" /><path
         d="m 1919.46,1780.41 v -170 h 141.1 c 51.9,0 94.01,38 94.01,85 0,47 -42.11,85 -94.01,85 z"
         style="fill:none;stroke:#231f20;stroke-width:10;stroke-linecap:round;stroke-linejoin:round;stroke-miterlimit:10;stroke-dasharray:none;stroke-opacity:1"
         id="path44" /><path
         d="m 1224.06,1638.71 h -58.1"
         style="fill:none;stroke:#231f20;stroke-width:10;stroke-linecap:round;stroke-linejoin:round;stroke-miterlimit:10;stroke-dasharray:none;stroke-opacity:1"
         id="path46" /><path
         d="m 1336.07,1638.71 h 56.7"
         style="fill:none;stroke:#231f20;stroke-width:10;stroke-linecap:round;stroke-linejoin:round;stroke-miterlimit:10;stroke-dasharray:none;stroke-opacity:1"
         id="path48" /><path
         d="m 1307.66,1638.71 c 0,7.8 6.4,14.2 14.21,14.2 7.79,0 14.2,-6.4 14.2,-14.2 0,-7.8 -6.41,-14.21 -14.2,-14.21 -7.81,0 -14.21,6.41 -14.21,14.21"
         style="fill:#dddddd;fill-opacity:1;fill-rule:evenodd;stroke:none"
         id="path50" /><path
         d="m 1307.66,1638.71 c 0,7.8 6.4,14.2 14.21,14.2 7.79,0 14.2,-6.4 14.2,-14.2 0,-7.8 -6.41,-14.21 -14.2,-14.21 -7.81,0 -14.21,6.41 -14.21,14.21 z"
         style="fill:none;stroke:#231f20;stroke-width:10;stroke-linecap:round;stroke-linejoin:round;stroke-miterlimit:10;stroke-dasharray:none;stroke-opacity:1"
         id="path52" /><path
         d="M 1224.06,1695.41 V 1582 l 83.6,56.71 z"
         style="fill:#dddddd;fill-opacity:1;fill-rule:evenodd;stroke:none"
         id="path54" /><path
         d="M 1224.06,1695.41 V 1582 l 83.6,56.71 z"
         style="fill:none;stroke:#231f20;stroke-width:10;stroke-linecap:round;stroke-linejoin:round;stroke-miterlimit:10;stroke-dasharray:none;stroke-opacity:1"
         id="path56" /><path
         d="m 1392.77,1638.71 h 459.59"
         style="fill:none;stroke:#0e0f0e;stroke-width:10;stroke-linecap:round;stroke-linejoin:round;stroke-miterlimit:10;stroke-dasharray:none;stroke-opacity:1"
         id="path58" /><path
         d="m 1100.47,490.41 h 357.1"
         style="fill:none;stroke:#0e0f0e;stroke-width:10;stroke-linecap:round;stroke-linejoin:round;stroke-miterlimit:10;stroke-dasharray:none;stroke-opacity:1"
         id="path60" /><path
         d="m 1735.27,2245.3 h 2728.8"
         style="fill:none;stroke:#0e0f0e;stroke-width:10;stroke-linecap:round;stroke-linejoin:round;stroke-miterlimit:10;stroke-dasharray:none;stroke-opacity:1"
         id="path62" /><g
         id="g64"
         transform="scale(10)"><text
           transform="matrix(1,0,0,-1,30.141,56.8809)"
           style="font-variant:normal;font-weight:normal;font-size:9px;font-family:Arial;-inkscape-font-specification:ArialMT;writing-mode:lr-tb;fill:#0e0f0e;fill-opacity:1;fill-rule:nonzero;stroke:none"
           id="text68"><tspan
             x="0 3.2402339 7.858592 13.325388 18.325388 23.185154 25.334761 28.574608 32.00547 37.005474 41.379303 46.437504 49.725006 54.705086 57.945324 62.563686 67.603531 72.221886"
             y="0"
             sodipodi:role="line"
             id="tspan66">reg_ctrl_sys_reset</tspan></text></g><path
         d="m 1232.36,603.809 h -58.1"
         style="fill:none;stroke:#231f20;stroke-width:10;stroke-linecap:round;stroke-linejoin:round;stroke-miterlimit:10;stroke-dasharray:none;stroke-opacity:1"
         id="path70" /><path
         d="m 1344.37,603.809 h 56.7"
         style="fill:none;stroke:#231f20;stroke-width:10;stroke-linecap:round;stroke-linejoin:round;stroke-miterlimit:10;stroke-dasharray:none;stroke-opacity:1"
         id="path72" /><path
         d="m 1316.07,603.809 c 0,7.8 6.29,14.101 14.09,14.101 7.9,0 14.21,-6.301 14.21,-14.101 0,-7.899 -6.31,-14.2 -14.21,-14.2 -7.8,0 -14.09,6.301 -14.09,14.2"
         style="fill:#dddddd;fill-opacity:1;fill-rule:evenodd;stroke:none"
         id="path74" /><path
         d="m 1316.07,603.809 c 0,7.8 6.29,14.101 14.09,14.101 7.9,0 14.21,-6.301 14.21,-14.101 0,-7.899 -6.31,-14.2 -14.21,-14.2 -7.8,0 -14.09,6.301 -14.09,14.2 z"
         style="fill:none;stroke:#231f20;stroke-width:10;stroke-linecap:round;stroke-linejoin:round;stroke-miterlimit:10;stroke-dasharray:none;stroke-opacity:1"
         id="path76" /><path
         d="M 1232.36,660.41 V 547.109 l 83.71,56.7 z"
         style="fill:#dddddd;fill-opacity:1;fill-rule:evenodd;stroke:none"
         id="path78" /><path
         d="M 1232.36,660.41 V 547.109 l 83.71,56.7 z"
         style="fill:none;stroke:#231f20;stroke-width:10;stroke-linecap:round;stroke-linejoin:round;stroke-miterlimit:10;stroke-dasharray:none;stroke-opacity:1"
         id="path80" /><path
         d="m 2255.27,1695.41 h 26.6 v 153.1 h 23.8"
         style="fill:none;stroke:#0e0f0e;stroke-width:10;stroke-linecap:round;stroke-linejoin:round;stroke-miterlimit:10;stroke-dasharray:none;stroke-opacity:1"
         id="path82" /><path
         d="m 1121.07,1961.91 h 643.69 c 0,13 10.6,23.59 23.7,23.59 13.01,0 23.61,-10.59 23.61,-23.59 h 493.6"
         style="fill:none;stroke:#0e0f0e;stroke-width:10;stroke-linecap:round;stroke-linejoin:round;stroke-miterlimit:10;stroke-dasharray:none;stroke-opacity:1"
         id="path84" /><path
         d="m 2372.77,1961.91 h -67.1"
         style="fill:none;stroke:#231f20;stroke-width:10;stroke-linecap:round;stroke-linejoin:round;stroke-miterlimit:10;stroke-dasharray:none;stroke-opacity:1"
         id="path86" /><path
         d="m 2372.77,1848.51 h -67.1"
         style="fill:none;stroke:#231f20;stroke-width:10;stroke-linecap:round;stroke-linejoin:round;stroke-miterlimit:10;stroke-dasharray:none;stroke-opacity:1"
         id="path88" /><path
         d="m 2607.87,1905.21 h 100.69"
         style="fill:none;stroke:#231f20;stroke-width:10;stroke-linecap:round;stroke-linejoin:round;stroke-miterlimit:10;stroke-dasharray:none;stroke-opacity:1"
         id="path90" /><path
         d="m 2372.77,1990.21 v -170.1 h 141 c 51.99,0 94.1,38.1 94.1,85.1 0,46.9 -42.11,85 -94.1,85 h -141"
         style="fill:#dddddd;fill-opacity:1;fill-rule:evenodd;stroke:none"
         id="path92" /><path
         d="m 2372.77,1990.21 v -170.1 h 141 c 51.99,0 94.1,38.1 94.1,85.1 0,46.9 -42.11,85 -94.1,85 z"
         style="fill:none;stroke:#231f20;stroke-width:10;stroke-linecap:round;stroke-linejoin:round;stroke-miterlimit:10;stroke-dasharray:none;stroke-opacity:1"
         id="path94" /><path
         d="m 1837.77,1321.91 h 821.09 c 0,12.99 10.61,23.6 23.61,23.6 13.09,0 23.7,-10.61 23.7,-23.6 h 94.39 c 0,12.99 10.61,23.6 23.7,23.6 13,0 23.61,-10.61 23.61,-23.6 h 231.49"
         style="fill:none;stroke:#0e0f0e;stroke-width:10;stroke-linecap:round;stroke-linejoin:round;stroke-miterlimit:10;stroke-dasharray:none;stroke-opacity:1"
         id="path96" /><path
         d="m 1760.76,1334.41 h 256.13 v 60 h -256.13 v -60"
         style="fill:#ffffff;fill-opacity:1;fill-rule:evenodd;stroke:none"
         id="path98" /><g
         id="g100"
         transform="scale(10)"><text
           transform="matrix(1,0,0,-1,176.346,134.581)"
           style="font-variant:normal;font-weight:normal;font-size:5.25px;font-family:Calibri;-inkscape-font-specification:Calibri;writing-mode:lr-tb;fill:#231f20;fill-opacity:1;fill-rule:nonzero;stroke:none"
           id="text104"><tspan
             x="0 2.2667949 4.5429664 7.3699198 9.8699179 12.859761 15.112888 16.618746 18.860937 20.51992 23.019918"
             y="0"
             sodipodi:role="line"
             id="tspan102">cpu_porst_n</tspan></text></g><path
         d="m 3476.17,1321.91 h 986.7"
         style="fill:none;stroke:#0e0f0e;stroke-width:10;stroke-linecap:round;stroke-linejoin:round;stroke-miterlimit:10;stroke-dasharray:none;stroke-opacity:1"
         id="path106" /><path
         d="m 2708.56,1905.21 h 115.7 v -517.2 h 255.1"
         style="fill:none;stroke:#0e0f0e;stroke-width:10;stroke-linecap:round;stroke-linejoin:round;stroke-miterlimit:10;stroke-dasharray:none;stroke-opacity:1"
         id="path108" /><g
         id="g110"
         transform="scale(10)"><text
           transform="matrix(1,0,0,-1,29.0664,135.86)"
           style="font-variant:normal;font-weight:normal;font-size:9px;font-family:Arial;-inkscape-font-specification:ArialMT;writing-mode:lr-tb;fill:#0e0f0e;fill-opacity:1;fill-rule:nonzero;stroke:none"
           id="text114"><tspan
             x="0 3.2402339 7.8582015 13.330075 18.330074 23.18984 25.339449 28.579685 32 36.98008 41.867191 46.872566 51.91993 56.900009 60.158215 64.803139 69.869934 74.515633"
             y="0"
             sodipodi:role="line"
             id="tspan112">reg_ctrl_cpu_reset</tspan></text></g><path
         d="m 1225.07,1388.01 h -58.11"
         style="fill:none;stroke:#231f20;stroke-width:10;stroke-linecap:round;stroke-linejoin:round;stroke-miterlimit:10;stroke-dasharray:none;stroke-opacity:1"
         id="path116" /><path
         d="m 1336.96,1388.01 h 56.7"
         style="fill:none;stroke:#231f20;stroke-width:10;stroke-linecap:round;stroke-linejoin:round;stroke-miterlimit:10;stroke-dasharray:none;stroke-opacity:1"
         id="path118" /><path
         d="m 1308.66,1388.01 c 0,7.8 6.3,14.19 14.2,14.19 7.81,0 14.1,-6.39 14.1,-14.19 0,-7.8 -6.29,-14.2 -14.1,-14.2 -7.9,0 -14.2,6.4 -14.2,14.2"
         style="fill:#dddddd;fill-opacity:1;fill-rule:evenodd;stroke:none"
         id="path120" /><path
         d="m 1308.66,1388.01 c 0,7.8 6.3,14.19 14.2,14.19 7.81,0 14.1,-6.39 14.1,-14.19 0,-7.8 -6.29,-14.2 -14.1,-14.2 -7.9,0 -14.2,6.4 -14.2,14.2 z"
         style="fill:none;stroke:#231f20;stroke-width:10;stroke-linecap:round;stroke-linejoin:round;stroke-miterlimit:10;stroke-dasharray:none;stroke-opacity:1"
         id="path122" /><path
         d="m 1225.07,1444.7 v -113.39 l 83.59,56.7 z"
         style="fill:#dddddd;fill-opacity:1;fill-rule:evenodd;stroke:none"
         id="path124" /><path
         d="m 1225.07,1444.7 v -113.39 l 83.59,56.7 z"
         style="fill:none;stroke:#231f20;stroke-width:10;stroke-linecap:round;stroke-linejoin:round;stroke-miterlimit:10;stroke-dasharray:none;stroke-opacity:1"
         id="path126" /><path
         d="m 1401.07,603.809 h 56.5"
         style="fill:none;stroke:#0e0f0e;stroke-width:10;stroke-linecap:round;stroke-linejoin:round;stroke-miterlimit:10;stroke-dasharray:none;stroke-opacity:1"
         id="path128" /><path
         d="m 2708.56,1905.21 h 712.21 v -152.5 h 454.89 v 106.3"
         style="fill:none;stroke:#0e0f0e;stroke-width:10;stroke-linecap:round;stroke-linejoin:round;stroke-miterlimit:10;stroke-dasharray:none;stroke-opacity:1"
         id="path130" /><path
         d="m 2667.66,1920.41 h 400.32 v 61.54 h -400.32 v -61.54"
         style="fill:#ffffff;fill-opacity:1;fill-rule:evenodd;stroke:none"
         id="path132" /><g
         id="g134"
         transform="scale(10)"><text
           transform="matrix(1,0,0,-1,267.146,193.331)"
           style="font-variant:normal;font-weight:normal;font-size:5.25px;font-family:Calibri;-inkscape-font-specification:Calibri;writing-mode:lr-tb;fill:#231f20;fill-opacity:1;fill-rule:nonzero;stroke:none"
           id="text138"><tspan
             x="0 2.2519569 5.2418008 7.4199295 9.9199276 12.175004 14.427746 16.239864"
             y="0"
             sodipodi:role="line"
             id="tspan136">ana_ext_</tspan></text><text
           transform="matrix(1,0,0,-1,285.8858,193.331)"
           style="font-variant:normal;font-weight:normal;font-size:5.25px;font-family:'Microsoft Sans Serif';-inkscape-font-specification:MicrosoftSansSerif;writing-mode:lr-tb;fill:#231f20;fill-opacity:1;fill-rule:nonzero;stroke:none"
           id="text142"><tspan
             x="0 2.9890685 6.7378936 8.0800886"
             y="0"
             sodipodi:role="line"
             id="tspan140">pwr_</tspan></text><text
           transform="matrix(1,0,0,-1,296.7159,193.331)"
           style="font-variant:normal;font-weight:normal;font-size:5.25px;font-family:Calibri;-inkscape-font-specification:Calibri;writing-mode:lr-tb;fill:#231f20;fill-opacity:1;fill-rule:nonzero;stroke:none"
           id="text146"><tspan
             x="0 1.5050774 3.7468657 5.4011722 7.8800764"
             y="0"
             sodipodi:role="line"
             id="tspan144">rst_n</tspan></text></g><g
         id="g148"
         transform="scale(10)"><text
           transform="matrix(1,0,0,-1,49.3965,192.93)"
           style="font-variant:normal;font-weight:normal;font-size:9px;font-family:Arial;-inkscape-font-specification:ArialMT;writing-mode:lr-tb;fill:#0e0f0e;fill-opacity:1;fill-rule:nonzero;stroke:none"
           id="text152"><tspan
             x="0 6.6976576 11.703032 16.300007 21.26993 24.582043 29.028137 32.050011 37.019936 41.465637 44.778141 48.669937"
             y="0"
             sodipodi:role="line"
             id="tspan150">wdt_rst_src_</tspan></text><text
           transform="matrix(1,0,0,-1,103.0461,192.93)"
           style="font-variant:normal;font-weight:normal;font-size:9.75px;font-family:Arial;-inkscape-font-specification:ArialMT;writing-mode:lr-tb;fill:#0e0f0e;fill-opacity:1;fill-rule:nonzero;stroke:none"
           id="text156"><tspan
             x="0"
             y="0"
             id="tspan154">n</tspan></text></g><path
         d="m 3476.17,613.211 h 991.59"
         style="fill:none;stroke:#0e0f0e;stroke-width:10;stroke-linecap:round;stroke-linejoin:round;stroke-miterlimit:10;stroke-dasharray:none;stroke-opacity:1"
         id="path158" /><path
         d="M 2824.26,1435.21 V 679.301 h 255.1"
         style="fill:none;stroke:#0e0f0e;stroke-width:10;stroke-linecap:round;stroke-linejoin:round;stroke-miterlimit:10;stroke-dasharray:none;stroke-opacity:1"
         id="path160" /><g
         id="g162"
         transform="scale(10)"><text
           transform="matrix(1,0,0,-1,451.436,129.43)"
           style="font-variant:normal;font-weight:normal;font-size:8.275px;font-family:'Microsoft Sans Serif';-inkscape-font-specification:MicrosoftSansSerif;writing-mode:lr-tb;fill:#0e0f0e;fill-opacity:1;fill-rule:nonzero;stroke:none"
           id="text166"><tspan
             x="0 3.7492187 8.250021 12.931293 17.330097 20.3512 24.124247 26.250038 30.681267"
             y="0"
             sodipodi:role="line"
             id="tspan164">cpu_rst_n</tspan></text></g><path
         d="m 3759.26,1859.01 h 232.9 v 93.54 h -232.9 v -93.54"
         style="fill:#dddddd;fill-opacity:1;fill-rule:evenodd;stroke:none"
         id="path168" /><path
         d="m 3759.26,1859.01 h 232.9 v 93.54 h -232.9 z"
         style="fill:none;stroke:#231f20;stroke-width:10;stroke-linecap:round;stroke-linejoin:round;stroke-miterlimit:10;stroke-dasharray:none;stroke-opacity:1"
         id="path170" /><path
         d="m 3992.16,1905.81 h 468.1"
         style="fill:none;stroke:#0e0f0e;stroke-width:10;stroke-linecap:round;stroke-linejoin:round;stroke-miterlimit:10;stroke-dasharray:none;stroke-opacity:1"
         id="path172" /><g
         id="g174"
         transform="scale(10)"><text
           transform="matrix(1,0,0,-1,451.016,187.93)"
           style="font-variant:normal;font-weight:normal;font-size:8.275px;font-family:'Microsoft Sans Serif';-inkscape-font-specification:MicrosoftSansSerif;writing-mode:lr-tb;fill:#0e0f0e;fill-opacity:1;fill-rule:nonzero;stroke:none"
           id="text178"><tspan
             x="0 4.5019741 10.492979 12.742988 17.244963 21.746937 24.742256 28.491085 30.73094 35.15123"
             y="0"
             sodipodi:role="line"
             id="tspan176">pwronrst_n</tspan></text></g><path
         d="m 2255.27,1695.41 h 427.2 V 319.211 h 390.8"
         style="fill:none;stroke:#0e0f0e;stroke-width:10;stroke-linecap:round;stroke-linejoin:round;stroke-miterlimit:10;stroke-dasharray:none;stroke-opacity:1"
         id="path180" /><path
         d="m 3476.17,262.512 h 978.4"
         style="fill:none;stroke:#0e0f0e;stroke-width:10;stroke-linecap:round;stroke-linejoin:round;stroke-miterlimit:10;stroke-dasharray:none;stroke-opacity:1"
         id="path182" /><g
         id="g184"
         transform="scale(10)"><text
           transform="matrix(1,0,0,-1,34.241,45.5012)"
           style="font-variant:normal;font-weight:normal;font-size:9px;font-family:Arial;-inkscape-font-specification:ArialMT;writing-mode:lr-tb;fill:#0e0f0e;fill-opacity:1;fill-rule:nonzero;stroke:none"
           id="text188"><tspan
             x="0 4.8781252 9.8834953 14.92539 19.925392 24.371096 28.943752 32.275002 37.275005 40.587116 45.033211 47.299614 50.611336 55.967979 61.745327"
             y="0"
             sodipodi:role="line"
             id="tspan186">cpu_sys_rstreq_</tspan></text><text
           transform="matrix(1,0,0,-1,100.9859,45.5012)"
           style="font-variant:normal;font-weight:normal;font-size:9.75px;font-family:Arial;-inkscape-font-specification:ArialMT;writing-mode:lr-tb;fill:#0e0f0e;fill-opacity:1;fill-rule:nonzero;stroke:none"
           id="text192"><tspan
             x="0"
             y="0"
             id="tspan190">n</tspan></text></g><path
         d="m 1860.47,547.109 h 798.39 c 0,13 10.61,23.602 23.61,23.602 13.09,0 23.7,-10.602 23.7,-23.602 h 373.19"
         style="fill:none;stroke:#0e0f0e;stroke-width:10;stroke-linecap:round;stroke-linejoin:round;stroke-miterlimit:10;stroke-dasharray:none;stroke-opacity:1"
         id="path194" /><path
         d="m 3140.47,319.211 h -67.2"
         style="fill:none;stroke:#231f20;stroke-width:10;stroke-linecap:round;stroke-linejoin:round;stroke-miterlimit:10;stroke-dasharray:none;stroke-opacity:1"
         id="path196" /><path
         d="m 3140.47,205.801 h -67.2"
         style="fill:none;stroke:#231f20;stroke-width:10;stroke-linecap:round;stroke-linejoin:round;stroke-miterlimit:10;stroke-dasharray:none;stroke-opacity:1"
         id="path198" /><path
         d="m 3375.47,262.512 h 100.7"
         style="fill:none;stroke:#231f20;stroke-width:10;stroke-linecap:round;stroke-linejoin:round;stroke-miterlimit:10;stroke-dasharray:none;stroke-opacity:1"
         id="path200" /><path
         d="M 3140.47,347.512 V 177.449 h 140.99 c 51.91,0 94.01,38.071 94.01,85.063 0,46.886 -42.1,85 -94.01,85 h -140.99"
         style="fill:#dddddd;fill-opacity:1;fill-rule:evenodd;stroke:none"
         id="path202" /><path
         d="M 3140.47,347.512 V 177.449 h 140.99 c 51.91,0 94.01,38.071 94.01,85.063 0,46.886 -42.1,85 -94.01,85 z"
         style="fill:none;stroke:#231f20;stroke-width:10;stroke-linecap:round;stroke-linejoin:round;stroke-miterlimit:10;stroke-dasharray:none;stroke-opacity:1"
         id="path204" /><path
         d="m 1860.47,547.109 h 173.59 V 205.801 h 1039.21"
         style="fill:none;stroke:#0e0f0e;stroke-width:10;stroke-linecap:round;stroke-linejoin:round;stroke-miterlimit:10;stroke-dasharray:none;stroke-opacity:1"
         id="path206" /><path
         d="m 1097.57,603.809 h 74.79"
         style="fill:none;stroke:#0e0f0e;stroke-width:10;stroke-linecap:round;stroke-linejoin:round;stroke-miterlimit:10;stroke-dasharray:none;stroke-opacity:1"
         id="path208" /><g
         id="g210"
         transform="scale(10)"><text
           transform="matrix(1,0,0,-1,31.016,122.43)"
           style="font-variant:normal;font-weight:normal;font-size:9px;font-family:Arial;-inkscape-font-specification:ArialMT;writing-mode:lr-tb;fill:#0e0f0e;fill-opacity:1;fill-rule:nonzero;stroke:none"
           id="text214"><tspan
             x="0 5.3472643 7.8476562 12.961328 17.398438 22.200392 27.170317 31.994535 37.089851 41.930477 46.930481 50.233608 54.670326 57.670322 63.200405 68.034782 70.034294"
             y="0"
             sodipodi:role="line"
             id="tspan212">efuse_cpu_rst_dis</tspan></text></g><path
         d="m 1109.26,1388.01 h 60"
         style="fill:none;stroke:#0e0f0e;stroke-width:10;stroke-linecap:round;stroke-linejoin:round;stroke-miterlimit:10;stroke-dasharray:none;stroke-opacity:1"
         id="path216" /><path
         d="m 1502.07,1388.01 h -61.11"
         style="fill:none;stroke:#231f20;stroke-width:10;stroke-linecap:round;stroke-linejoin:round;stroke-miterlimit:10;stroke-dasharray:none;stroke-opacity:1"
         id="path218" /><path
         d="m 1502.07,1255.71 h -61.11"
         style="fill:none;stroke:#231f20;stroke-width:10;stroke-linecap:round;stroke-linejoin:round;stroke-miterlimit:10;stroke-dasharray:none;stroke-opacity:1"
         id="path220" /><path
         d="m 1738.57,1321.91 h 99.2"
         style="fill:none;stroke:#231f20;stroke-width:10;stroke-linecap:round;stroke-linejoin:round;stroke-miterlimit:10;stroke-dasharray:none;stroke-opacity:1"
         id="path222" /><path
         d="m 1597.97,1421.11 c 59.19,-10.7 110.69,-47.1 140.6,-99.2 -28.3,-53.7 -80.51,-90.6 -140.6,-99.3 h -107.41 c 27.5,63.3 27.5,135.2 0,198.5 h 107.41"
         style="fill:#dddddd;fill-opacity:1;fill-rule:evenodd;stroke:none"
         id="path224" /><path
         d="m 1597.97,1421.11 c 59.19,-10.7 110.69,-47.1 140.6,-99.2 -28.3,-53.7 -80.51,-90.6 -140.6,-99.3 h -107.41 c 27.5,63.3 27.5,135.2 0,198.5 z"
         style="fill:none;stroke:#231f20;stroke-width:10;stroke-linecap:round;stroke-linejoin:round;stroke-miterlimit:10;stroke-dasharray:none;stroke-opacity:1"
         id="path226" /><path
         d="m 1107.26,1255.71 h 333.7"
         style="fill:none;stroke:#0e0f0e;stroke-width:10;stroke-linecap:round;stroke-linejoin:round;stroke-miterlimit:10;stroke-dasharray:none;stroke-opacity:1"
         id="path228" /><path
         d="m 1393.66,1388.01 h 47.3"
         style="fill:none;stroke:#0e0f0e;stroke-width:10;stroke-linecap:round;stroke-linejoin:round;stroke-miterlimit:10;stroke-dasharray:none;stroke-opacity:1"
         id="path230" /><path
         d="m 1106.27,925.012 h 263.8 v 66.199 h 87.5"
         style="fill:none;stroke:#0e0f0e;stroke-width:10;stroke-linecap:round;stroke-linejoin:round;stroke-miterlimit:10;stroke-dasharray:none;stroke-opacity:1"
         id="path232" /><path
         d="M 3.75,3.76172 H 5191.16 V 2542.55 H 3.75 Z"
         style="fill:none;stroke:#233e26;stroke-width:7.5075;stroke-linecap:round;stroke-linejoin:round;stroke-miterlimit:10;stroke-dasharray:none;stroke-opacity:1"
         id="path234" /><path
         d="m 1404.57,2311.51 h -66.11"
         style="fill:none;stroke:#231f20;stroke-width:10;stroke-linecap:round;stroke-linejoin:round;stroke-miterlimit:10;stroke-dasharray:none;stroke-opacity:1"
         id="path236" /><path
         d="m 1404.57,2179.21 h -66.11"
         style="fill:none;stroke:#231f20;stroke-width:10;stroke-linecap:round;stroke-linejoin:round;stroke-miterlimit:10;stroke-dasharray:none;stroke-opacity:1"
         id="path238" /><path
         d="m 1636.07,2245.3 h 99.2"
         style="fill:none;stroke:#231f20;stroke-width:10;stroke-linecap:round;stroke-linejoin:round;stroke-miterlimit:10;stroke-dasharray:none;stroke-opacity:1"
         id="path240" /><path
         d="m 1404.57,2344.5 v -198.39 h 138.89 c 51.11,0 92.61,44.39 92.61,99.19 0,54.81 -41.5,99.2 -92.61,99.2 h -138.89"
         style="fill:#dddddd;fill-opacity:1;fill-rule:evenodd;stroke:none"
         id="path242" /><path
         d="m 1404.57,2344.5 v -198.39 h 138.89 c 51.11,0 92.61,44.39 92.61,99.19 0,54.81 -41.5,99.2 -92.61,99.2 z"
         style="fill:none;stroke:#231f20;stroke-width:10;stroke-linecap:round;stroke-linejoin:round;stroke-miterlimit:10;stroke-dasharray:none;stroke-opacity:1"
         id="path244" /><path
         d="m 1404.57,2245.3 h -66.11"
         style="fill:none;stroke:#231f20;stroke-width:10;stroke-linecap:round;stroke-linejoin:round;stroke-miterlimit:10;stroke-dasharray:none;stroke-opacity:1"
         id="path246" /><path
         d="m 1118.46,2143.9 h 106.3 v 35.31 h 113.7"
         style="fill:none;stroke:#0e0f0e;stroke-width:10;stroke-linecap:round;stroke-linejoin:round;stroke-miterlimit:10;stroke-dasharray:none;stroke-opacity:1"
         id="path248" /><g
         id="g250"
         transform="scale(10)"><text
           transform="matrix(1,0,0,-1,49.9164,210.15)"
           style="font-variant:normal;font-weight:normal;font-size:9px;font-family:Arial;-inkscape-font-specification:ArialMT;writing-mode:lr-tb;fill:#0e0f0e;fill-opacity:1;fill-rule:nonzero;stroke:none"
           id="text254"><tspan
             x="0 5.0307622 9.8110323 14.591796 18.866693 23.646969 30.918938 32.693352 36.968742 41.243641 46.023914 48.796108 53.620716"
             y="0"
             sodipodi:role="line"
             id="tspan252">~pds_misc_rst</tspan></text></g><path
         d="m 3527.07,1859.01 h 232.9 v 93.54 h -232.9 v -93.54"
         style="fill:#dddddd;fill-opacity:1;fill-rule:evenodd;stroke:none"
         id="path256" /><path
         d="m 3527.07,1859.01 h 232.9 v 93.54 h -232.9 z"
         style="fill:none;stroke:#231f20;stroke-width:10;stroke-linecap:round;stroke-linejoin:round;stroke-miterlimit:10;stroke-dasharray:none;stroke-opacity:1"
         id="path258" /><g
         id="g260"
         transform="scale(10)"><text
           transform="matrix(1,0,0,-1,357.296,187.93)"
           style="font-variant:normal;font-weight:normal;font-size:8.275px;font-family:'Microsoft Sans Serif';-inkscape-font-specification:MicrosoftSansSerif;writing-mode:lr-tb;fill:#231f20;fill-opacity:1;fill-rule:nonzero;stroke:none"
           id="text264"><tspan
             x="0 6.7531338 11.255865"
             y="0"
             sodipodi:role="line"
             id="tspan262">Mux</tspan></text></g><path
         d="m 3527.07,2196.3 h 232.9 v 93.55 h -232.9 v -93.55"
         style="fill:#dddddd;fill-opacity:1;fill-rule:evenodd;stroke:none"
         id="path266" /><path
         d="m 3527.07,2196.3 h 232.9 v 93.55 h -232.9 z"
         style="fill:none;stroke:#231f20;stroke-width:10;stroke-linecap:round;stroke-linejoin:round;stroke-miterlimit:10;stroke-dasharray:none;stroke-opacity:1"
         id="path268" /><g
         id="g270"
         transform="scale(10)"><text
           transform="matrix(1,0,0,-1,357.296,221.711)"
           style="font-variant:normal;font-weight:normal;font-size:8.25px;font-family:'Microsoft Sans Serif';-inkscape-font-specification:MicrosoftSansSerif;writing-mode:lr-tb;fill:#231f20;fill-opacity:1;fill-rule:nonzero;stroke:none"
           id="text274"><tspan
             x="0 6.7480555 11.246115"
             y="0"
             sodipodi:role="line"
             id="tspan272">Mux</tspan></text></g><path
         d="m 3759.36,1275.11 h 232.9 v 93.54 h -232.9 v -93.54"
         style="fill:#dddddd;fill-opacity:1;fill-rule:evenodd;stroke:none"
         id="path276" /><path
         d="m 3759.36,1275.11 h 232.9 v 93.54 h -232.9 z"
         style="fill:none;stroke:#231f20;stroke-width:10;stroke-linecap:round;stroke-linejoin:round;stroke-miterlimit:10;stroke-dasharray:none;stroke-opacity:1"
         id="path278" /><path
         d="m 3527.16,1275.11 h 232.91 v 93.54 h -232.91 v -93.54"
         style="fill:#dddddd;fill-opacity:1;fill-rule:evenodd;stroke:none"
         id="path280" /><path
         d="m 3527.16,1275.11 h 232.91 v 93.54 h -232.91 z"
         style="fill:none;stroke:#231f20;stroke-width:10;stroke-linecap:round;stroke-linejoin:round;stroke-miterlimit:10;stroke-dasharray:none;stroke-opacity:1"
         id="path282" /><g
         id="g284"
         transform="scale(10)"><text
           transform="matrix(1,0,0,-1,357.296,129.43)"
           style="font-variant:normal;font-weight:normal;font-size:8.275px;font-family:'Microsoft Sans Serif';-inkscape-font-specification:MicrosoftSansSerif;writing-mode:lr-tb;fill:#231f20;fill-opacity:1;fill-rule:nonzero;stroke:none"
           id="text288"><tspan
             x="0 6.7531338 11.255865"
             y="0"
             sodipodi:role="line"
             id="tspan286">Mux</tspan></text></g><path
         d="m 3759.36,565.012 h 232.9 v 93.539 h -232.9 v -93.539"
         style="fill:#dddddd;fill-opacity:1;fill-rule:evenodd;stroke:none"
         id="path290" /><path
         d="m 3759.36,565.012 h 232.9 v 93.539 h -232.9 z"
         style="fill:none;stroke:#231f20;stroke-width:10;stroke-linecap:round;stroke-linejoin:round;stroke-miterlimit:10;stroke-dasharray:none;stroke-opacity:1"
         id="path292" /><path
         d="m 3527.16,565.012 h 232.91 v 93.539 h -232.91 v -93.539"
         style="fill:#dddddd;fill-opacity:1;fill-rule:evenodd;stroke:none"
         id="path294" /><path
         d="m 3527.16,565.012 h 232.91 v 93.539 h -232.91 z"
         style="fill:none;stroke:#231f20;stroke-width:10;stroke-linecap:round;stroke-linejoin:round;stroke-miterlimit:10;stroke-dasharray:none;stroke-opacity:1"
         id="path296" /><g
         id="g298"
         transform="scale(10)"><text
           transform="matrix(1,0,0,-1,357.296,58.2809)"
           style="font-variant:normal;font-weight:normal;font-size:8.275px;font-family:'Microsoft Sans Serif';-inkscape-font-specification:MicrosoftSansSerif;writing-mode:lr-tb;fill:#231f20;fill-opacity:1;fill-rule:nonzero;stroke:none"
           id="text302"><tspan
             x="0 6.7531338 11.255865"
             y="0"
             sodipodi:role="line"
             id="tspan300">Mux</tspan></text></g><path
         d="m 3759.36,216.359 h 232.9 v 93.539 h -232.9 v -93.539"
         style="fill:#dddddd;fill-opacity:1;fill-rule:evenodd;stroke:none"
         id="path304" /><path
         d="m 3759.36,216.359 h 232.9 v 93.539 h -232.9 z"
         style="fill:none;stroke:#231f20;stroke-width:10;stroke-linecap:round;stroke-linejoin:round;stroke-miterlimit:10;stroke-dasharray:none;stroke-opacity:1"
         id="path306" /><path
         d="m 3527.16,216.359 h 232.91 v 93.539 h -232.91 v -93.539"
         style="fill:#dddddd;fill-opacity:1;fill-rule:evenodd;stroke:none"
         id="path308" /><path
         d="m 3527.16,216.359 h 232.91 v 93.539 h -232.91 z"
         style="fill:none;stroke:#231f20;stroke-width:10;stroke-linecap:round;stroke-linejoin:round;stroke-miterlimit:10;stroke-dasharray:none;stroke-opacity:1"
         id="path310" /><g
         id="g312"
         transform="scale(10)"><text
           transform="matrix(1,0,0,-1,357.296,23.3551)"
           style="font-variant:normal;font-weight:normal;font-size:8.275px;font-family:'Microsoft Sans Serif';-inkscape-font-specification:MicrosoftSansSerif;writing-mode:lr-tb;fill:#231f20;fill-opacity:1;fill-rule:nonzero;stroke:none"
           id="text316"><tspan
             x="0 6.7531338 11.255865"
             y="0"
             sodipodi:role="line"
             id="tspan314">Mux</tspan></text></g><path
         d="m 3145.47,1388.01 h -66.11"
         style="fill:none;stroke:#231f20;stroke-width:10;stroke-linecap:round;stroke-linejoin:round;stroke-miterlimit:10;stroke-dasharray:none;stroke-opacity:1"
         id="path318" /><path
         d="m 3145.47,1255.71 h -66.11"
         style="fill:none;stroke:#231f20;stroke-width:10;stroke-linecap:round;stroke-linejoin:round;stroke-miterlimit:10;stroke-dasharray:none;stroke-opacity:1"
         id="path320" /><path
         d="m 3376.97,1321.91 h 99.2"
         style="fill:none;stroke:#231f20;stroke-width:10;stroke-linecap:round;stroke-linejoin:round;stroke-miterlimit:10;stroke-dasharray:none;stroke-opacity:1"
         id="path322" /><path
         d="m 3145.47,1421.11 v -198.5 h 138.89 c 51.2,0 92.61,44.5 92.61,99.3 0,54.8 -41.41,99.2 -92.61,99.2 h -138.89"
         style="fill:#dddddd;fill-opacity:1;fill-rule:evenodd;stroke:none"
         id="path324" /><path
         d="m 3145.47,1421.11 v -198.5 h 138.89 c 51.2,0 92.61,44.5 92.61,99.3 0,54.8 -41.41,99.2 -92.61,99.2 z"
         style="fill:none;stroke:#231f20;stroke-width:10;stroke-linecap:round;stroke-linejoin:round;stroke-miterlimit:10;stroke-dasharray:none;stroke-opacity:1"
         id="path326" /><path
         d="m 3145.47,1321.91 h -66.11"
         style="fill:none;stroke:#231f20;stroke-width:10;stroke-linecap:round;stroke-linejoin:round;stroke-miterlimit:10;stroke-dasharray:none;stroke-opacity:1"
         id="path328" /><path
         d="m 1860.47,797.512 h 168.99 V 613.211 h 629.4 c 0,13 10.61,23.59 23.61,23.59 13.09,0 23.7,-10.59 23.7,-23.59 h 373.19"
         style="fill:none;stroke:#0e0f0e;stroke-width:10;stroke-linecap:round;stroke-linejoin:round;stroke-miterlimit:10;stroke-dasharray:none;stroke-opacity:1"
         id="path330" /><g
         id="g332"
         transform="scale(10)"><text
           transform="matrix(1,0,0,-1,451.436,58.2809)"
           style="font-variant:normal;font-weight:normal;font-size:8.275px;font-family:'Microsoft Sans Serif';-inkscape-font-specification:MicrosoftSansSerif;writing-mode:lr-tb;fill:#0e0f0e;fill-opacity:1;fill-rule:nonzero;stroke:none"
           id="text336"><tspan
             x="0 4.5019741 6.7531548 11.253957 15.747316 20.24929 22.280161 26.70006"
             y="0"
             sodipodi:role="line"
             id="tspan334">hreset_n</tspan></text></g><path
         d="m 1524.66,603.809 h -67.09"
         style="fill:none;stroke:#231f20;stroke-width:10;stroke-linecap:round;stroke-linejoin:round;stroke-miterlimit:10;stroke-dasharray:none;stroke-opacity:1"
         id="path338" /><path
         d="m 1524.66,490.41 h -67.09"
         style="fill:none;stroke:#231f20;stroke-width:10;stroke-linecap:round;stroke-linejoin:round;stroke-miterlimit:10;stroke-dasharray:none;stroke-opacity:1"
         id="path340" /><path
         d="m 1759.76,547.109 h 100.71"
         style="fill:none;stroke:#231f20;stroke-width:10;stroke-linecap:round;stroke-linejoin:round;stroke-miterlimit:10;stroke-dasharray:none;stroke-opacity:1"
         id="path342" /><path
         d="M 1524.66,632.109 V 462.012 h 141.01 c 51.99,0 94.09,38.097 94.09,85.097 0,46.891 -42.1,85 -94.09,85 h -141.01"
         style="fill:#dddddd;fill-opacity:1;fill-rule:evenodd;stroke:none"
         id="path344" /><path
         d="M 1524.66,632.109 V 462.012 h 141.01 c 51.99,0 94.09,38.097 94.09,85.097 0,46.891 -42.1,85 -94.09,85 z"
         style="fill:none;stroke:#231f20;stroke-width:10;stroke-linecap:round;stroke-linejoin:round;stroke-miterlimit:10;stroke-dasharray:none;stroke-opacity:1"
         id="path346" /><path
         d="m 3145.47,679.301 h -66.11"
         style="fill:none;stroke:#231f20;stroke-width:10;stroke-linecap:round;stroke-linejoin:round;stroke-miterlimit:10;stroke-dasharray:none;stroke-opacity:1"
         id="path348" /><path
         d="m 3145.47,547.109 h -66.11"
         style="fill:none;stroke:#231f20;stroke-width:10;stroke-linecap:round;stroke-linejoin:round;stroke-miterlimit:10;stroke-dasharray:none;stroke-opacity:1"
         id="path350" /><path
         d="m 3376.97,613.211 h 99.2"
         style="fill:none;stroke:#231f20;stroke-width:10;stroke-linecap:round;stroke-linejoin:round;stroke-miterlimit:10;stroke-dasharray:none;stroke-opacity:1"
         id="path352" /><path
         d="M 3145.47,712.41 V 514 h 138.89 c 51.2,0 92.61,44.41 92.61,99.211 0,54.801 -41.41,99.199 -92.61,99.199 h -138.89"
         style="fill:#dddddd;fill-opacity:1;fill-rule:evenodd;stroke:none"
         id="path354" /><path
         d="M 3145.47,712.41 V 514 h 138.89 c 51.2,0 92.61,44.41 92.61,99.211 0,54.801 -41.41,99.199 -92.61,99.199 z"
         style="fill:none;stroke:#231f20;stroke-width:10;stroke-linecap:round;stroke-linejoin:round;stroke-miterlimit:10;stroke-dasharray:none;stroke-opacity:1"
         id="path356" /><path
         d="m 3145.47,613.211 h -66.11"
         style="fill:none;stroke:#231f20;stroke-width:10;stroke-linecap:round;stroke-linejoin:round;stroke-miterlimit:10;stroke-dasharray:none;stroke-opacity:1"
         id="path358" /><path
         d="m 1524.66,1104.51 h -67.09"
         style="fill:none;stroke:#231f20;stroke-width:10;stroke-linecap:round;stroke-linejoin:round;stroke-miterlimit:10;stroke-dasharray:none;stroke-opacity:1"
         id="path360" /><path
         d="m 1524.66,991.211 h -67.09"
         style="fill:none;stroke:#231f20;stroke-width:10;stroke-linecap:round;stroke-linejoin:round;stroke-miterlimit:10;stroke-dasharray:none;stroke-opacity:1"
         id="path362" /><path
         d="m 1759.76,1047.81 h 100.71"
         style="fill:none;stroke:#231f20;stroke-width:10;stroke-linecap:round;stroke-linejoin:round;stroke-miterlimit:10;stroke-dasharray:none;stroke-opacity:1"
         id="path364" /><path
         d="M 1524.66,1132.91 V 962.809 h 141.01 c 51.99,0 94.09,38.101 94.09,85.001 0,46.99 -42.1,85.1 -94.09,85.1 h -141.01"
         style="fill:#dddddd;fill-opacity:1;fill-rule:evenodd;stroke:none"
         id="path366" /><path
         d="M 1524.66,1132.91 V 962.809 h 141.01 c 51.99,0 94.09,38.101 94.09,85.001 0,46.99 -42.1,85.1 -94.09,85.1 z"
         style="fill:none;stroke:#231f20;stroke-width:10;stroke-linecap:round;stroke-linejoin:round;stroke-miterlimit:10;stroke-dasharray:none;stroke-opacity:1"
         id="path368" /><path
         d="m 1524.66,854.109 h -67.09"
         style="fill:none;stroke:#231f20;stroke-width:10;stroke-linecap:round;stroke-linejoin:round;stroke-miterlimit:10;stroke-dasharray:none;stroke-opacity:1"
         id="path370" /><path
         d="m 1524.66,740.809 h -67.09"
         style="fill:none;stroke:#231f20;stroke-width:10;stroke-linecap:round;stroke-linejoin:round;stroke-miterlimit:10;stroke-dasharray:none;stroke-opacity:1"
         id="path372" /><path
         d="m 1759.76,797.512 h 100.71"
         style="fill:none;stroke:#231f20;stroke-width:10;stroke-linecap:round;stroke-linejoin:round;stroke-miterlimit:10;stroke-dasharray:none;stroke-opacity:1"
         id="path374" /><path
         d="M 1524.66,882.512 V 712.41 h 141.01 c 51.99,0 94.09,38.102 94.09,85.102 0,46.886 -42.1,85 -94.09,85 h -141.01"
         style="fill:#dddddd;fill-opacity:1;fill-rule:evenodd;stroke:none"
         id="path376" /><path
         d="M 1524.66,882.512 V 712.41 h 141.01 c 51.99,0 94.09,38.102 94.09,85.102 0,46.886 -42.1,85 -94.09,85 z"
         style="fill:none;stroke:#231f20;stroke-width:10;stroke-linecap:round;stroke-linejoin:round;stroke-miterlimit:10;stroke-dasharray:none;stroke-opacity:1"
         id="path378" /><path
         d="m 1370.07,925.012 v -70.903 h 87.5"
         style="fill:none;stroke:#0e0f0e;stroke-width:10;stroke-linecap:round;stroke-linejoin:round;stroke-miterlimit:10;stroke-dasharray:none;stroke-opacity:1"
         id="path380" /><path
         d="m 1860.47,1047.81 h 168.99 v 207.9 h 629.4 c 0,13.1 10.61,23.59 23.61,23.59 13.09,0 23.7,-10.49 23.7,-23.59 h 94.39 c 0,13.1 10.61,23.59 23.7,23.59 13,0 23.61,-10.49 23.61,-23.59 h 231.49"
         style="fill:none;stroke:#0e0f0e;stroke-width:10;stroke-linecap:round;stroke-linejoin:round;stroke-miterlimit:10;stroke-dasharray:none;stroke-opacity:1"
         id="path382" /><path
         d="m 1099.37,1104.51 h 358.2"
         style="fill:none;stroke:#0e0f0e;stroke-width:10;stroke-linecap:round;stroke-linejoin:round;stroke-miterlimit:10;stroke-dasharray:none;stroke-opacity:1"
         id="path384" /><path
         d="m 1097.77,740.809 h 359.8"
         style="fill:none;stroke:#0e0f0e;stroke-width:10;stroke-linecap:round;stroke-linejoin:round;stroke-miterlimit:10;stroke-dasharray:none;stroke-opacity:1"
         id="path386" /><g
         id="g388"
         transform="scale(10)"><text
           transform="matrix(1,0,0,-1,52.9164,106.151)"
           style="font-variant:normal;font-weight:normal;font-size:9px;font-family:Arial;-inkscape-font-specification:ArialMT;writing-mode:lr-tb;fill:#0e0f0e;fill-opacity:1;fill-rule:nonzero;stroke:none"
           id="text396"><tspan
             x="0 5.0307622 9.8110323 14.591796 18.866693 23.646969 27.921869 32.702141 37.482903 42.263172 45.035175 49.859783"
             y="0"
             sodipodi:role="line"
             id="tspan390">~pds_cpu_rst</tspan><tspan
             x="-30 -25.21973 -22.944338 -18.16358 -13.888681 -9.1084118 -4.3281417 0.4521282 5.232892 7.5082812 12.288551 14.062962 18.843237 23.623995 28.40427 33.18454 37.964813 42.745087 47.525848"
             y="17"
             sodipodi:role="line"
             id="tspan392">efuse_autoload_done</tspan><tspan
             x="0 5.0307622 9.8110323 14.591796 18.866693 23.646969 27.921869 32.702141 36.977531 41.757801 44.53009 49.354698"
             y="35"
             sodipodi:role="line"
             id="tspan394">~pds_soc_rst</tspan></text></g><g
         id="g398"
         transform="scale(10)"><text
           transform="matrix(1,0,0,-1,379.296,129.43)"
           style="font-variant:normal;font-weight:normal;font-size:8.275px;font-family:'Microsoft Sans Serif';-inkscape-font-specification:MicrosoftSansSerif;writing-mode:lr-tb;fill:#231f20;fill-opacity:1;fill-rule:nonzero;stroke:none"
           id="text412"><tspan
             x="0 5.3788972 9.375967 13.837878"
             y="0"
             sodipodi:role="line"
             id="tspan400">Sync</tspan><tspan
             x="0 5.3788972 9.375967 13.837878"
             y="-59.085499"
             sodipodi:role="line"
             id="tspan402">Sync</tspan><tspan
             x="0 5.3788972 9.375967 13.837878"
             y="70.469498"
             sodipodi:role="line"
             id="tspan404">Sync</tspan><tspan
             x="0 5.3788972 9.375967 13.837878"
             y="106.0754"
             sodipodi:role="line"
             id="tspan406">Sync</tspan><tspan
             x="72.139801 76.601738 81.063667 85.525604 89.950386 94.412323 100.24728 102.86246 106.85954 109.01775 113.44254"
             y="-94.877602"
             sodipodi:role="line"
             id="tspan408">ana_pwrst_n</tspan><tspan
             x="70.719879 75.181816 81.016769 85.478699 87.636917 92.061699 96.523636 99.138824 103.60076 107.59783 112.05977 114.217 118.64178"
             y="106.0744"
             sodipodi:role="line"
             id="tspan410">nwdt_hreset_n</tspan></text></g></g></g></svg>
