<?xml version="1.0" encoding="UTF-8" standalone="no"?>
<svg
   xmlns:dc="http://purl.org/dc/elements/1.1/"
   xmlns:cc="http://creativecommons.org/ns#"
   xmlns:rdf="http://www.w3.org/1999/02/22-rdf-syntax-ns#"
   xmlns:svg="http://www.w3.org/2000/svg"
   xmlns="http://www.w3.org/2000/svg"
   xmlns:sodipodi="http://sodipodi.sourceforge.net/DTD/sodipodi-0.dtd"
   xmlns:inkscape="http://www.inkscape.org/namespaces/inkscape"
   version="1.1"
   id="svg2"
   xml:space="preserve"
   width="598.15997"
   height="86.293335"
   viewBox="0 0 598.15997 86.293335"
   sodipodi:docname="UART_data.svg"
   inkscape:version="1.0.1 (3bc2e813f5, 2020-09-07)"><metadata
     id="metadata8"><rdf:RDF><cc:Work
         rdf:about=""><dc:format>image/svg+xml</dc:format><dc:type
           rdf:resource="http://purl.org/dc/dcmitype/StillImage" /><dc:title></dc:title></cc:Work></rdf:RDF></metadata><defs
     id="defs6" /><sodipodi:namedview
     pagecolor="#ffffff"
     bordercolor="#666666"
     borderopacity="1"
     objecttolerance="10"
     gridtolerance="10"
     guidetolerance="10"
     inkscape:pageopacity="0"
     inkscape:pageshadow="2"
     inkscape:window-width="786"
     inkscape:window-height="480"
     id="namedview4"
     showgrid="false"
     inkscape:zoom="1.8389729"
     inkscape:cx="299.07999"
     inkscape:cy="43.146667"
     inkscape:window-x="0"
     inkscape:window-y="0"
     inkscape:window-maximized="0"
     inkscape:current-layer="g10" /><g
     id="g10"
     inkscape:groupmode="layer"
     inkscape:label="ink_ext_XXXXXX"
     transform="matrix(1.3333333,0,0,-1.3333333,0,86.293333)"><g
       id="g12"
       transform="scale(0.1)"><g
         id="g14"
         transform="scale(10)"><text
           transform="matrix(1,1e-8,-1e-8,-1,19.4625,51.9961)"
           style="font-variant:normal;font-weight:normal;font-size:8.275px;font-family:'Microsoft Sans Serif';-inkscape-font-specification:MicrosoftSansSerif;writing-mode:lr-tb;fill:#231f20;fill-opacity:1;fill-rule:nonzero;stroke:none"
           id="text18"><tspan
             x="0 4.7195311 9.2226562 11.457031 13.714845 15.953907 21.945314 23.443361 27.945704 33.176956 34.674614 39.906258 41.408993 46.639854 51.142982 53.400402 57.903141 60.142986 62.377361 66.880486 72.111351 76.61409 78.871506 83.374634 86.019554 91.290642 93.219551 99.987518 104.51535 109.04259 111.30666 116.56252 121.09064 124.10236 125.6254 127.90743"
             y="0"
             sodipodi:role="line"
             id="tspan16">8bit Single data length + Odd parity</tspan></text></g><path
         d="m 287.324,380.051 h 138.301 m 0,0 h 138.297 m 0.902,0 h 20.699 l 41.403,-188.098 h 76.199 m 0,0 h 138.297"
         style="fill:none;stroke:#100f0f;stroke-width:9.4073;stroke-linecap:round;stroke-linejoin:round;stroke-miterlimit:10;stroke-dasharray:none;stroke-opacity:1"
         id="path20" /><path
         d="M 907.324,381.953 H 1010.72 V 193.75 H 850.824 l 56.5,188.203"
         style="fill:#ffffff;fill-opacity:1;fill-rule:evenodd;stroke:none"
         id="path22" /><path
         d="m 864.922,193.75 56.5,188.203 H 1024.82 M 836.723,193.75 h 188.097"
         style="fill:none;stroke:#100f0f;stroke-width:9.4073;stroke-linecap:round;stroke-linejoin:round;stroke-miterlimit:10;stroke-dasharray:none;stroke-opacity:1"
         id="path24" /><path
         d="m 1020.12,193.75 h 118.61 m -118.61,188.203 h 118.61"
         style="fill:none;stroke:#100f0f;stroke-width:9.4073;stroke-linecap:round;stroke-linejoin:round;stroke-miterlimit:10;stroke-dasharray:none;stroke-opacity:1"
         id="path26" /><path
         d="m 1283.53,381.953 h 103.49 V 193.75 h -103.49 l -28.21,94.102 28.21,94.101"
         style="fill:#ffffff;fill-opacity:1;fill-rule:evenodd;stroke:none"
         id="path28" /><path
         d="m 1180.12,381.953 h -28.3 V 193.75 h 28.3 l 28.21,94.102 -28.21,94.101"
         style="fill:#ffffff;fill-opacity:1;fill-rule:evenodd;stroke:none"
         id="path30" /><path
         d="m 1142.42,381.953 h 28.3 l 56.4,-188.203 h 103.51 m -188.21,0 h 28.3 l 56.4,188.203 h 103.51"
         style="fill:none;stroke:#100f0f;stroke-width:9.4073;stroke-linecap:round;stroke-linejoin:round;stroke-miterlimit:10;stroke-dasharray:none;stroke-opacity:1"
         id="path32" /><path
         d="m 1387.02,193.75 h 188.15 V 381.906 H 1387.02 V 193.75"
         style="fill:#ffffff;fill-opacity:1;fill-rule:evenodd;stroke:none"
         id="path34" /><path
         d="m 1293.02,193.75 h 188.1 m -188.1,188.203 h 188.1"
         style="fill:none;stroke:#100f0f;stroke-width:9.4073;stroke-linecap:round;stroke-linejoin:round;stroke-miterlimit:10;stroke-dasharray:none;stroke-opacity:1"
         id="path36" /><path
         d="m 1659.82,381.953 h 103.51 V 193.75 h -103.51 l -28.2,94.102 28.2,94.101"
         style="fill:#ffffff;fill-opacity:1;fill-rule:evenodd;stroke:none"
         id="path38" /><path
         d="m 1537.53,381.953 h -28.21 V 193.75 h 28.21 l 28.3,94.102 -28.3,94.101"
         style="fill:#ffffff;fill-opacity:1;fill-rule:evenodd;stroke:none"
         id="path40" /><path
         d="m 1471.72,381.953 h 28.2 l 56.5,-188.203 h 103.4 m -188.1,0 h 28.2 l 56.5,188.203 h 103.4"
         style="fill:none;stroke:#100f0f;stroke-width:9.4073;stroke-linecap:round;stroke-linejoin:round;stroke-miterlimit:10;stroke-dasharray:none;stroke-opacity:1"
         id="path42" /><path
         d="m 1763.33,193.75 h 188.14 V 381.906 H 1763.33 V 193.75"
         style="fill:#ffffff;fill-opacity:1;fill-rule:evenodd;stroke:none"
         id="path44" /><path
         d="m 1650.43,193.75 h 137.39 m -137.39,188.203 h 137.39"
         style="fill:none;stroke:#100f0f;stroke-width:9.4073;stroke-linecap:round;stroke-linejoin:round;stroke-miterlimit:10;stroke-dasharray:none;stroke-opacity:1"
         id="path46" /><path
         d="m 2036.13,381.953 h 103.49 V 193.75 h -103.49 l -28.2,94.102 28.2,94.101"
         style="fill:#ffffff;fill-opacity:1;fill-rule:evenodd;stroke:none"
         id="path48" /><path
         d="m 1979.72,381.953 h -28.2 V 193.75 h 28.2 l 28.21,94.102 -28.21,94.101"
         style="fill:#ffffff;fill-opacity:1;fill-rule:evenodd;stroke:none"
         id="path50" /><path
         d="m 1791.52,381.953 h 28.3 l 56.41,-188.203 h 103.49 m -188.2,0 h 28.3 l 56.41,188.203 h 103.49"
         style="fill:none;stroke:#100f0f;stroke-width:9.4073;stroke-linecap:round;stroke-linejoin:round;stroke-miterlimit:10;stroke-dasharray:none;stroke-opacity:1"
         id="path52" /><path
         d="m 2139.62,193.75 h 188.15 V 381.906 H 2139.62 V 193.75"
         style="fill:#ffffff;fill-opacity:1;fill-rule:evenodd;stroke:none"
         id="path54" /><path
         d="m 1923.23,193.75 h 188.19 m -188.19,188.203 h 188.19"
         style="fill:none;stroke:#100f0f;stroke-width:9.4073;stroke-linecap:round;stroke-linejoin:round;stroke-miterlimit:10;stroke-dasharray:none;stroke-opacity:1"
         id="path56" /><path
         d="m 2412.43,381.953 h 103.49 V 193.75 h -103.49 l -28.21,94.102 28.21,94.101"
         style="fill:#ffffff;fill-opacity:1;fill-rule:evenodd;stroke:none"
         id="path58" /><path
         d="m 2356.02,381.953 h -28.19 V 193.75 h 28.19 l 28.2,94.102 -28.2,94.101"
         style="fill:#ffffff;fill-opacity:1;fill-rule:evenodd;stroke:none"
         id="path60" /><path
         d="m 2092.62,381.953 h 28.21 l 56.39,-188.203 h 103.51 m -188.11,0 h 28.21 l 56.39,188.203 h 103.51"
         style="fill:none;stroke:#100f0f;stroke-width:9.4073;stroke-linecap:round;stroke-linejoin:round;stroke-miterlimit:10;stroke-dasharray:none;stroke-opacity:1"
         id="path62" /><path
         d="m 2280.73,193.75 h 94.07 v 188.156 h -94.07 V 193.75"
         style="fill:#ffffff;fill-opacity:1;fill-rule:evenodd;stroke:none"
         id="path64" /><path
         d="m 2224.32,193.75 h 188.11 m -188.11,188.203 h 188.11"
         style="fill:none;stroke:#100f0f;stroke-width:9.4073;stroke-linecap:round;stroke-linejoin:round;stroke-miterlimit:10;stroke-dasharray:none;stroke-opacity:1"
         id="path66" /><path
         d="m 2788.73,381.953 h 103.49 V 193.75 h -103.49 l -28.21,94.102 28.21,94.101"
         style="fill:#ffffff;fill-opacity:1;fill-rule:evenodd;stroke:none"
         id="path68" /><path
         d="m 2732.32,381.953 h -28.3 V 193.75 h 28.3 l 28.2,94.102 -28.2,94.101"
         style="fill:#ffffff;fill-opacity:1;fill-rule:evenodd;stroke:none"
         id="path70" /><path
         d="m 2403.02,381.953 h 28.21 l 56.49,-188.203 h 103.51 m -188.21,0 h 28.21 l 56.49,188.203 h 103.51"
         style="fill:none;stroke:#100f0f;stroke-width:9.4073;stroke-linecap:round;stroke-linejoin:round;stroke-miterlimit:10;stroke-dasharray:none;stroke-opacity:1"
         id="path72" /><path
         d="m 2892.22,193.75 h 188.16 V 381.906 H 2892.22 V 193.75"
         style="fill:#ffffff;fill-opacity:1;fill-rule:evenodd;stroke:none"
         id="path74" /><path
         d="m 2544.13,193.75 h 156.2 m -156.2,188.203 h 156.2"
         style="fill:none;stroke:#100f0f;stroke-width:9.4073;stroke-linecap:round;stroke-linejoin:round;stroke-miterlimit:10;stroke-dasharray:none;stroke-opacity:1"
         id="path76" /><path
         d="m 3437.83,381.953 h 103.49 V 193.75 h -103.49 l -28.21,94.102 28.21,94.101"
         style="fill:#ffffff;fill-opacity:1;fill-rule:evenodd;stroke:none"
         id="path78" /><path
         d="m 3108.63,381.953 h -28.3 V 193.75 h 28.3 l 28.19,94.102 -28.19,94.101"
         style="fill:#ffffff;fill-opacity:1;fill-rule:evenodd;stroke:none"
         id="path80" /><path
         d="m 2694.62,381.953 h 28.31 l 56.39,-188.203 h 103.51 m -188.21,0 h 28.31 l 56.39,188.203 h 103.51"
         style="fill:none;stroke:#100f0f;stroke-width:9.4073;stroke-linecap:round;stroke-linejoin:round;stroke-miterlimit:10;stroke-dasharray:none;stroke-opacity:1"
         id="path82" /><path
         d="m 3541.32,193.75 h 188.16 V 381.906 H 3541.32 V 193.75"
         style="fill:#ffffff;fill-opacity:1;fill-rule:evenodd;stroke:none"
         id="path84" /><path
         d="m 2826.32,193.75 h 131.7 m -131.7,188.203 h 131.7"
         style="fill:none;stroke:#100f0f;stroke-width:9.4073;stroke-linecap:round;stroke-linejoin:round;stroke-miterlimit:10;stroke-dasharray:none;stroke-opacity:1"
         id="path86" /><path
         d="M 3729.42,381.953 V 193.75 h 28.3 l 56.41,188.203 h -84.71"
         style="fill:#ffffff;fill-opacity:1;fill-rule:evenodd;stroke:none"
         id="path88" /><path
         d="m 3538.52,381.953 h 63.91 M 3538.52,193.75 h 9.41 l 18.79,188.203 m 35.71,0 h 63.09 m 0,0 h 63.9 m 0,0 h 64"
         style="fill:none;stroke:#100f0f;stroke-width:9.4073;stroke-linecap:round;stroke-linejoin:round;stroke-miterlimit:10;stroke-dasharray:none;stroke-opacity:1"
         id="path90" /><g
         id="g92"
         transform="scale(10)"><text
           transform="matrix(1,1e-8,-1e-8,-1,95.3324,23.7156)"
           style="font-variant:normal;font-weight:normal;font-size:8.25px;font-family:'Microsoft Sans Serif';-inkscape-font-specification:MicrosoftSansSerif;writing-mode:lr-tb;fill:#100f0f;fill-opacity:1;fill-rule:nonzero;stroke:none"
           id="text96"><tspan
             x="0 4.4976568 6.7335949 8.9925852 11.250403 34.849609 39.34766 41.583591 43.842579 46.099617 65.929733 70.42778 72.663712 74.922699 77.179733"
             y="0"
             sodipodi:role="line"
             id="tspan94">bit 0bit 1bit 2</tspan></text></g><path
         d="M 3.75391,3.75 H 4482.5 V 643.453 H 3.75391 Z"
         style="fill:none;stroke:#111010;stroke-width:7.5075;stroke-linecap:round;stroke-linejoin:round;stroke-miterlimit:10;stroke-dasharray:none;stroke-opacity:1"
         id="path98" /><g
         id="g100"
         transform="scale(10)"><text
           transform="matrix(1,1e-8,-1e-8,-1,395.333,24.666)"
           style="font-variant:normal;font-weight:normal;font-size:8.275px;font-family:'Microsoft Sans Serif';-inkscape-font-specification:MicrosoftSansSerif;writing-mode:lr-tb;fill:#100f0f;fill-opacity:1;fill-rule:nonzero;stroke:none"
           id="text104"><tspan
             x="0 5.9906168 8.2488308 12.75078 15.738679 -329.85101 -323.85999 -321.60257 -317.09943 -314.11234"
             y="0"
             sodipodi:role="line"
             id="tspan102">StartStart</tspan></text></g><path
         d="m 2948.63,381.953 h 28.29 l 56.41,-188.203 h 103.49 m -188.19,0 h 28.29 l 56.41,188.203 h 103.49"
         style="fill:none;stroke:#100f0f;stroke-width:9.4073;stroke-linecap:round;stroke-linejoin:round;stroke-miterlimit:10;stroke-dasharray:none;stroke-opacity:1"
         id="path106" /><g
         id="g108"
         transform="scale(10)"><text
           transform="matrix(1,1e-8,-1e-8,-1,334.932,23.7156)"
           style="font-variant:normal;font-weight:normal;font-size:8.25px;font-family:'Microsoft Sans Serif';-inkscape-font-specification:MicrosoftSansSerif;writing-mode:lr-tb;fill:#100f0f;fill-opacity:1;fill-rule:nonzero;stroke:none"
           id="text112"><tspan
             x="0 4.4968877 9.7301035"
             y="0"
             sodipodi:role="line"
             id="tspan110">odd</tspan></text></g><path
         d="m 3366.32,193.75 h 175 m -175,188.203 h 175"
         style="fill:none;stroke:#100f0f;stroke-width:9.4073;stroke-linecap:round;stroke-linejoin:round;stroke-miterlimit:10;stroke-dasharray:none;stroke-opacity:1"
         id="path114" /><g
         id="g116"
         transform="scale(10)"><text
           transform="matrix(1,1e-8,-1e-8,-1,364.132,24.666)"
           style="font-variant:normal;font-weight:normal;font-size:8.275px;font-family:'Microsoft Sans Serif';-inkscape-font-specification:MicrosoftSansSerif;writing-mode:lr-tb;fill:#100f0f;fill-opacity:1;fill-rule:nonzero;stroke:none"
           id="text120"><tspan
             x="0 5.9917884 8.2488298 12.751952"
             y="0"
             sodipodi:role="line"
             id="tspan118">Stop</tspan></text></g><path
         d="m 3611.82,381.953 h 127 m 0,0 h 127.01 m 0,0 h 18.89 l 38.51,-188.203 h 69.6 m 0,0 h 126.99"
         style="fill:none;stroke:#100f0f;stroke-width:9.4073;stroke-linecap:round;stroke-linejoin:round;stroke-miterlimit:10;stroke-dasharray:none;stroke-opacity:1"
         id="path122" /><path
         d="m 3215.83,381.953 h 28.19 l 56.5,-188.203 h 103.4 m -188.09,0 h 28.19 l 56.5,188.203 h 103.4"
         style="fill:none;stroke:#100f0f;stroke-width:9.4073;stroke-linecap:round;stroke-linejoin:round;stroke-miterlimit:10;stroke-dasharray:none;stroke-opacity:1"
         id="path124" /><path
         d="m 3080.33,193.75 h 131.7 m -131.7,188.203 h 131.7"
         style="fill:none;stroke:#100f0f;stroke-width:9.4073;stroke-linecap:round;stroke-linejoin:round;stroke-miterlimit:10;stroke-dasharray:none;stroke-opacity:1"
         id="path126" /><path
         d="m 4138.73,193.75 56.39,188.203 h 103.51"
         style="fill:none;stroke:#100f0f;stroke-width:9.4073;stroke-linecap:round;stroke-linejoin:round;stroke-miterlimit:10;stroke-dasharray:none;stroke-opacity:1"
         id="path128" /><path
         d="m 4110.43,193.75 h 29.19"
         style="fill:none;stroke:#100f0f;stroke-width:9.4073;stroke-linecap:round;stroke-linejoin:round;stroke-miterlimit:10;stroke-dasharray:none;stroke-opacity:1"
         id="path130" /><g
         id="g132"
         transform="scale(10)"><text
           transform="matrix(1,1e-8,-1e-8,-1,306.682,23.7156)"
           style="font-variant:normal;font-weight:normal;font-size:8.25px;font-family:'Microsoft Sans Serif';-inkscape-font-specification:MicrosoftSansSerif;writing-mode:lr-tb;fill:#100f0f;fill-opacity:1;fill-rule:nonzero;stroke:none"
           id="text136"><tspan
             x="0 4.4968877 6.7339916 8.9921885 11.249994 -26.3801 -21.882822 -19.646109 -17.387913 -15.130106 -54.6199 -50.123013 -47.887081 -45.628101 -43.369907"
             y="0"
             sodipodi:role="line"
             id="tspan134">bit 7bit 6bit 5</tspan></text><text
           transform="matrix(1,1e-8,-1e-8,-1,224.732,24.666)"
           style="font-variant:normal;font-weight:normal;font-size:8.275px;font-family:'Microsoft Sans Serif';-inkscape-font-specification:MicrosoftSansSerif;writing-mode:lr-tb;fill:#100f0f;fill-opacity:1;fill-rule:nonzero;stroke:none"
           id="text140"><tspan
             x="0 4.5031219 6.737112 8.994935 11.250015 -29.198799 -24.69607 -22.462078 -20.203876 -17.948797"
             y="0"
             sodipodi:role="line"
             id="tspan138">bit 4bit 3</tspan></text></g></g></g></svg>
