<?xml version="1.0" encoding="UTF-8" standalone="no"?>
<svg
   xmlns:dc="http://purl.org/dc/elements/1.1/"
   xmlns:cc="http://creativecommons.org/ns#"
   xmlns:rdf="http://www.w3.org/1999/02/22-rdf-syntax-ns#"
   xmlns:svg="http://www.w3.org/2000/svg"
   xmlns="http://www.w3.org/2000/svg"
   xmlns:sodipodi="http://sodipodi.sourceforge.net/DTD/sodipodi-0.dtd"
   xmlns:inkscape="http://www.inkscape.org/namespaces/inkscape"
   version="1.1"
   id="svg1653"
   xml:space="preserve"
   width="597.83197"
   height="171.44553"
   viewBox="0 0 597.83197 171.44553"
   sodipodi:docname="EMACTiming_common.svg"
   inkscape:version="1.0.1 (3bc2e813f5, 2020-09-07)"><metadata
     id="metadata1659"><rdf:RDF><cc:Work
         rdf:about=""><dc:format>image/svg+xml</dc:format><dc:type
           rdf:resource="http://purl.org/dc/dcmitype/StillImage" /><dc:title /></cc:Work></rdf:RDF></metadata><defs
     id="defs1657"><pattern
       id="EMFhbasepattern"
       patternUnits="userSpaceOnUse"
       width="6"
       height="6"
       x="0"
       y="0" /></defs><sodipodi:namedview
     pagecolor="#ffffff"
     bordercolor="#666666"
     borderopacity="1"
     objecttolerance="10"
     gridtolerance="10"
     guidetolerance="10"
     inkscape:pageopacity="0"
     inkscape:pageshadow="2"
     inkscape:window-width="1920"
     inkscape:window-height="1017"
     id="namedview1655"
     showgrid="false"
     inkscape:zoom="1.8399982"
     inkscape:cx="300.56016"
     inkscape:cy="81.227499"
     inkscape:window-x="1912"
     inkscape:window-y="-8"
     inkscape:window-maximized="1"
     inkscape:current-layer="g1661"
     inkscape:document-rotation="0" /><g
     id="g1661"
     inkscape:groupmode="layer"
     inkscape:label="ink_ext_XXXXXX"
     transform="matrix(1.3333333,0,0,-1.3333333,0,305.17951)"><path
       d="M 448.124,100.55049 H 0.25 v 128.08415 h 447.874 z"
       style="fill:none;stroke:#0e0f0f;stroke-width:0.5;stroke-linecap:round;stroke-linejoin:round;stroke-miterlimit:10;stroke-dasharray:none;stroke-opacity:1"
       id="path1937" /><path
       style="fill:none;stroke:#0000ff;stroke-width:0.751181px;stroke-linecap:square;stroke-linejoin:miter;stroke-miterlimit:2;stroke-dasharray:none;stroke-opacity:1"
       d="m 96.193274,190.10441 h 14.225496 v 14.2255 h 14.17854 v -14.2255"
       id="path491" /><path
       style="fill:none;stroke:#0000ff;stroke-width:0.751181px;stroke-linecap:square;stroke-linejoin:miter;stroke-miterlimit:2;stroke-dasharray:none;stroke-opacity:1"
       d="m 124.59731,190.10441 h 14.17854 v 14.2255 h 14.22549 v -14.2255"
       id="path493" /><path
       style="fill:none;stroke:#0000ff;stroke-width:0.751181px;stroke-linecap:square;stroke-linejoin:miter;stroke-miterlimit:2;stroke-dasharray:none;stroke-opacity:1"
       d="m 153.00134,190.10441 h 14.17855 v 14.2255 h 14.22549 v -14.2255"
       id="path495" /><path
       style="fill:none;stroke:#0000ff;stroke-width:0.751181px;stroke-linecap:square;stroke-linejoin:miter;stroke-miterlimit:2;stroke-dasharray:none;stroke-opacity:1"
       d="m 181.40538,190.10441 h 14.17855 v 14.2255 h 14.17854 v -14.2255"
       id="path497" /><path
       style="fill:none;stroke:#0000ff;stroke-width:0.751181px;stroke-linecap:square;stroke-linejoin:miter;stroke-miterlimit:2;stroke-dasharray:none;stroke-opacity:1"
       d="m 209.76247,190.10441 h 14.22549 v 14.2255 h 14.17855 v -14.2255"
       id="path499" /><path
       style="fill:none;stroke:#0000ff;stroke-width:0.751181px;stroke-linecap:square;stroke-linejoin:miter;stroke-miterlimit:2;stroke-dasharray:none;stroke-opacity:1"
       d="m 238.16651,190.10441 h 14.17854 v 14.2255 h 14.22549 v -14.2255"
       id="path501" /><path
       style="fill:none;stroke:#0000ff;stroke-width:0.751181px;stroke-linecap:square;stroke-linejoin:miter;stroke-miterlimit:2;stroke-dasharray:none;stroke-opacity:1"
       d="m 266.57054,190.10441 h 14.17855 v 14.2255 h 14.17854 v -14.2255"
       id="path503" /><path
       style="fill:none;stroke:#0000ff;stroke-width:0.751181px;stroke-linecap:square;stroke-linejoin:miter;stroke-miterlimit:2;stroke-dasharray:none;stroke-opacity:1"
       d="m 294.92763,190.10441 h 14.2255 v 14.2255 h 14.17854 v -14.2255"
       id="path505" /><path
       style="fill:none;stroke:#0000ff;stroke-width:0.751181px;stroke-linecap:square;stroke-linejoin:miter;stroke-miterlimit:2;stroke-dasharray:none;stroke-opacity:1"
       d="m 323.33167,190.10441 h 14.22549 v 14.2255 h 14.17854 v -14.2255"
       id="path507" /><path
       style="fill:none;stroke:#0000ff;stroke-width:0.985925px;stroke-linecap:round;stroke-linejoin:round;stroke-miterlimit:10;stroke-dasharray:none;stroke-opacity:1"
       d="M 96.193274,175.92587 H 110.41877"
       id="path509" /><path
       style="fill:none;stroke:#0000ff;stroke-width:0.985925px;stroke-linecap:round;stroke-linejoin:round;stroke-miterlimit:10;stroke-dasharray:none;stroke-opacity:1"
       d="m 110.41877,175.92587 h 14.17854"
       id="path511" /><path
       style="fill:none;stroke:#0000ff;stroke-width:0.985925px;stroke-linecap:round;stroke-linejoin:round;stroke-miterlimit:10;stroke-dasharray:none;stroke-opacity:1"
       d="m 124.59731,175.92587 h 14.17854"
       id="path513" /><path
       style="fill:none;stroke:#0000ff;stroke-width:0.985925px;stroke-linecap:round;stroke-linejoin:round;stroke-miterlimit:10;stroke-dasharray:none;stroke-opacity:1"
       d="m 138.77585,175.92587 15.02363,-0.0939"
       id="path515" /><path
       style="fill:none;stroke:#0000ff;stroke-width:0.985925px;stroke-linecap:round;stroke-linejoin:round;stroke-miterlimit:10;stroke-dasharray:none;stroke-opacity:1"
       d="M 96.193274,161.74733 H 110.41877"
       id="path517" /><path
       style="fill:none;stroke:#0000ff;stroke-width:0.985925px;stroke-linecap:round;stroke-linejoin:round;stroke-miterlimit:10;stroke-dasharray:none;stroke-opacity:1"
       d="m 110.41877,161.74733 h 14.17854"
       id="path519" /><path
       style="fill:none;stroke:#0000ff;stroke-width:0.985925px;stroke-linecap:round;stroke-linejoin:round;stroke-miterlimit:10;stroke-dasharray:none;stroke-opacity:1"
       d="m 124.59731,161.74733 h 14.17854"
       id="path521" /><path
       style="fill:none;stroke:#0000ff;stroke-width:0.985925px;stroke-linecap:round;stroke-linejoin:round;stroke-miterlimit:10;stroke-dasharray:none;stroke-opacity:1"
       d="m 138.77585,161.74733 h 14.22549"
       id="path523" /><path
       style="fill:none;stroke:#0000ff;stroke-width:0.985925px;stroke-linecap:round;stroke-linejoin:round;stroke-miterlimit:10;stroke-dasharray:none;stroke-opacity:1"
       d="m 153.75253,175.92587 6.33809,-14.17854"
       id="path525" /><path
       style="fill:none;stroke:#0000ff;stroke-width:0.985925px;stroke-linecap:round;stroke-linejoin:round;stroke-miterlimit:10;stroke-dasharray:none;stroke-opacity:1"
       d="m 153.00134,161.74733 7.08928,14.17854"
       id="path527" /><path
       style="fill:none;stroke:#0000ff;stroke-width:0.985925px;stroke-linecap:round;stroke-linejoin:round;stroke-miterlimit:10;stroke-dasharray:none;stroke-opacity:1"
       d="m 160.09062,175.92587 h 13.89685"
       id="path529" /><path
       style="fill:none;stroke:#0000ff;stroke-width:0.985925px;stroke-linecap:round;stroke-linejoin:round;stroke-miterlimit:10;stroke-dasharray:none;stroke-opacity:1"
       d="m 160.09062,161.74733 h 15.63396"
       id="path531" /><path
       style="fill:none;stroke:#0000ff;stroke-width:0.985925px;stroke-linecap:round;stroke-linejoin:round;stroke-miterlimit:10;stroke-dasharray:none;stroke-opacity:1"
       d="m 175.72458,161.74733 h 5.21132"
       id="path533" /><path
       style="fill:none;stroke:#0000ff;stroke-width:0.985925px;stroke-linecap:round;stroke-linejoin:round;stroke-miterlimit:10;stroke-dasharray:none;stroke-opacity:1"
       d="m 188.40076,161.74733 h 15.6809"
       id="path535" /><path
       style="fill:none;stroke:#0000ff;stroke-width:0.985925px;stroke-linecap:round;stroke-linejoin:round;stroke-miterlimit:10;stroke-dasharray:none;stroke-opacity:1"
       d="m 204.08166,161.74733 h 5.68081"
       id="path537" /><path
       style="fill:#0000ff;fill-opacity:1;fill-rule:nonzero;stroke:#0000ff;stroke-width:0.0469488px;stroke-linecap:butt;stroke-linejoin:round;stroke-miterlimit:10;stroke-dasharray:none;stroke-opacity:1"
       d="m 160.60706,211.98256 v -0.98592 c 0,-0.2817 -0.23475,-0.51644 -0.51644,-0.51644 -0.28169,0 -0.51644,0.23474 -0.51644,0.51644 v 0.98592 c 0,0.2817 0.23475,0.51644 0.51644,0.51644 0.28169,0 0.51644,-0.23474 0.51644,-0.51644 z m 0,-3.00472 v -0.98593 c 0,-0.28169 -0.23475,-0.51643 -0.51644,-0.51643 -0.28169,0 -0.51644,0.23474 -0.51644,0.51643 v 0.98593 c 0,0.28169 0.23475,0.51644 0.51644,0.51644 0.28169,0 0.51644,-0.23475 0.51644,-0.51644 z m 0,-3.00473 v -0.98592 c 0,-0.28169 -0.23475,-0.51644 -0.51644,-0.51644 -0.28169,0 -0.51644,0.23475 -0.51644,0.51644 v 0.98592 c 0,0.2817 0.23475,0.51644 0.51644,0.51644 0.28169,0 0.51644,-0.23474 0.51644,-0.51644 z m 0,-3.00472 v -0.98593 c 0,-0.28169 -0.23475,-0.51643 -0.51644,-0.51643 -0.28169,0 -0.51644,0.23474 -0.51644,0.51643 v 0.98593 c 0,0.28169 0.23475,0.51644 0.51644,0.51644 0.28169,0 0.51644,-0.23475 0.51644,-0.51644 z m 0,-3.00472 v -0.98593 c 0,-0.28169 -0.23475,-0.51644 -0.51644,-0.51644 -0.28169,0 -0.51644,0.23475 -0.51644,0.51644 v 0.98593 c 0,0.28169 0.23475,0.51643 0.51644,0.51643 0.28169,0 0.51644,-0.23474 0.51644,-0.51643 z m 0,-3.00473 v -0.98592 c 0,-0.2817 -0.23475,-0.51644 -0.51644,-0.51644 -0.28169,0 -0.51644,0.23474 -0.51644,0.51644 v 0.98592 c 0,0.28169 0.23475,0.51644 0.51644,0.51644 0.28169,0 0.51644,-0.23475 0.51644,-0.51644 z m 0,-3.00472 v -0.98593 c 0,-0.28169 -0.23475,-0.51644 -0.51644,-0.51644 -0.28169,0 -0.51644,0.23475 -0.51644,0.51644 v 0.98593 c 0,0.28169 0.23475,0.51643 0.51644,0.51643 0.28169,0 0.51644,-0.23474 0.51644,-0.51643 z m 0,-3.00473 v -0.98592 c 0,-0.2817 -0.23475,-0.51644 -0.51644,-0.51644 -0.28169,0 -0.51644,0.23474 -0.51644,0.51644 v 0.98592 c 0,0.28169 0.23475,0.51644 0.51644,0.51644 0.28169,0 0.51644,-0.23475 0.51644,-0.51644 z m 0,-3.00472 v -0.98593 c 0,-0.28169 -0.23475,-0.51644 -0.51644,-0.51644 -0.28169,0 -0.51644,0.23475 -0.51644,0.51644 v 0.98593 c 0,0.28169 0.23475,0.51643 0.51644,0.51643 0.28169,0 0.51644,-0.23474 0.51644,-0.51643 z m 0,-3.00473 v -0.98592 c 0,-0.2817 -0.23475,-0.51644 -0.51644,-0.51644 -0.28169,0 -0.51644,0.23474 -0.51644,0.51644 v 0.98592 c 0,0.2817 0.23475,0.51644 0.51644,0.51644 0.28169,0 0.51644,-0.23474 0.51644,-0.51644 z m 0,-3.00472 v -0.98593 c 0,-0.28169 -0.23475,-0.51643 -0.51644,-0.51643 -0.28169,0 -0.51644,0.23474 -0.51644,0.51643 v 0.98593 c 0,0.28169 0.23475,0.51644 0.51644,0.51644 0.28169,0 0.51644,-0.23475 0.51644,-0.51644 z m 0,-3.00473 v -0.98592 c 0,-0.28169 -0.23475,-0.51644 -0.51644,-0.51644 -0.28169,0 -0.51644,0.23475 -0.51644,0.51644 v 0.98592 c 0,0.2817 0.23475,0.51644 0.51644,0.51644 0.28169,0 0.51644,-0.23474 0.51644,-0.51644 z m 0,-3.00472 v -0.98593 c 0,-0.28169 -0.23475,-0.51643 -0.51644,-0.51643 -0.28169,0 -0.51644,0.23474 -0.51644,0.51643 v 0.98593 c 0,0.28169 0.23475,0.51644 0.51644,0.51644 0.28169,0 0.51644,-0.23475 0.51644,-0.51644 z m 0,-3.00473 v -0.98592 c 0,-0.28169 -0.23475,-0.51644 -0.51644,-0.51644 -0.28169,0 -0.51644,0.23475 -0.51644,0.51644 v 0.98592 c 0,0.2817 0.23475,0.51644 0.51644,0.51644 0.28169,0 0.51644,-0.23474 0.51644,-0.51644 z m 0,-3.00472 v -0.98592 c 0,-0.2817 -0.23475,-0.51644 -0.51644,-0.51644 -0.28169,0 -0.51644,0.23474 -0.51644,0.51644 v 0.98592 c 0,0.28169 0.23475,0.51644 0.51644,0.51644 0.28169,0 0.51644,-0.23475 0.51644,-0.51644 z m 0,-3.00472 v -0.98593 c 0,-0.28169 -0.23475,-0.51644 -0.51644,-0.51644 -0.28169,0 -0.51644,0.23475 -0.51644,0.51644 v 0.98593 c 0,0.28169 0.23475,0.51643 0.51644,0.51643 0.28169,0 0.51644,-0.23474 0.51644,-0.51643 z m 0,-3.00473 v -0.98592 c 0,-0.2817 -0.23475,-0.51644 -0.51644,-0.51644 -0.28169,0 -0.51644,0.23474 -0.51644,0.51644 v 0.98592 c 0,0.28169 0.23475,0.51644 0.51644,0.51644 0.28169,0 0.51644,-0.23475 0.51644,-0.51644 z m 0,-3.00472 v -0.98593 c 0,-0.28169 -0.23475,-0.51644 -0.51644,-0.51644 -0.28169,0 -0.51644,0.23475 -0.51644,0.51644 v 0.98593 c 0,0.28169 0.23475,0.51643 0.51644,0.51643 0.28169,0 0.51644,-0.23474 0.51644,-0.51643 z m 0,-3.00473 v -0.98592 c 0,-0.2817 -0.23475,-0.51644 -0.51644,-0.51644 -0.28169,0 -0.51644,0.23474 -0.51644,0.51644 v 0.98592 c 0,0.28169 0.23475,0.51644 0.51644,0.51644 0.28169,0 0.51644,-0.23475 0.51644,-0.51644 z m 0,-3.00472 v -0.98593 c 0,-0.28169 -0.23475,-0.51643 -0.51644,-0.51643 -0.28169,0 -0.51644,0.23474 -0.51644,0.51643 v 0.98593 c 0,0.28169 0.23475,0.51643 0.51644,0.51643 0.28169,0 0.51644,-0.23474 0.51644,-0.51643 z m 0,-3.00473 v -0.98592 c 0,-0.28169 -0.23475,-0.51644 -0.51644,-0.51644 -0.28169,0 -0.51644,0.23475 -0.51644,0.51644 v 0.98592 c 0,0.2817 0.23475,0.51644 0.51644,0.51644 0.28169,0 0.51644,-0.23474 0.51644,-0.51644 z"
       id="path539" /><text
       xml:space="preserve"
       style="font-style:normal;font-variant:normal;font-weight:400;font-size:8.25px;line-height:125%;font-family:Calibri;text-align:start;letter-spacing:0px;word-spacing:0px;text-anchor:start;fill:#000000;fill-opacity:1;stroke:none;stroke-width:0.75"
       transform="scale(1,-1)"
       x="145.0936"
       y="-178.8412"
       id="text545"><tspan
         sodipodi:role="line"
         x="145.0936"
         y="-178.8412"
         id="tspan543"
         style="stroke-width:0.75"><tspan
           dx="0"
           dy="0"
           style="font-style:normal;font-variant:normal;font-weight:400;font-size:8.25px;font-family:Calibri;fill:#0000ff;stroke-width:0.75"
           id="tspan541">T</tspan></tspan></text><text
       xml:space="preserve"
       style="font-style:normal;font-variant:normal;font-weight:400;font-size:5.25px;line-height:125%;font-family:Calibri;text-align:start;letter-spacing:0px;word-spacing:0px;text-anchor:start;fill:#000000;fill-opacity:1;stroke:none;stroke-width:0.75"
       transform="scale(1,-1)"
       x="148.99823"
       y="-178.8412"
       id="text551"><tspan
         sodipodi:role="line"
         x="148.99823"
         y="-178.8412"
         id="tspan549"
         style="stroke-width:0.75"><tspan
           dx="0"
           dy="0"
           style="font-style:normal;font-variant:normal;font-weight:400;font-size:5.25px;font-family:Calibri;fill:#0000ff;stroke-width:0.75"
           id="tspan547">vld</tspan></tspan></text><path
       style="fill:#0000ff;fill-opacity:1;fill-rule:nonzero;stroke:#0000ff;stroke-width:0.0469488px;stroke-linecap:butt;stroke-linejoin:round;stroke-miterlimit:4;stroke-dasharray:none;stroke-opacity:1"
       d="m 139.29229,211.41918 v -1.03288 c 0,-0.23474 -0.23474,-0.46949 -0.51644,-0.46949 -0.23474,0 -0.46948,0.23475 -0.46948,0.46949 v 1.03288 c 0,0.28169 0.23474,0.46949 0.46948,0.46949 0.2817,0 0.51644,-0.1878 0.51644,-0.46949 z m 0,-3.00473 v -1.03287 c 0,-0.23475 -0.23474,-0.46949 -0.51644,-0.46949 -0.23474,0 -0.46948,0.23474 -0.46948,0.46949 v 1.03287 c 0,0.2817 0.23474,0.46949 0.46948,0.46949 0.2817,0 0.51644,-0.18779 0.51644,-0.46949 z m 0,-3.00472 v -1.03288 c 0,-0.23474 -0.23474,-0.46948 -0.51644,-0.46948 -0.23474,0 -0.46948,0.23474 -0.46948,0.46948 v 1.03288 c 0,0.28169 0.23474,0.46949 0.46948,0.46949 0.2817,0 0.51644,-0.1878 0.51644,-0.46949 z m 0,-3.00473 v -1.03287 c 0,-0.23474 -0.23474,-0.46949 -0.51644,-0.46949 -0.23474,0 -0.46948,0.23475 -0.46948,0.46949 v 1.03287 c 0,0.2817 0.23474,0.46949 0.46948,0.46949 0.2817,0 0.51644,-0.18779 0.51644,-0.46949 z m 0,-3.00472 v -1.03288 c 0,-0.23474 -0.23474,-0.46948 -0.51644,-0.46948 -0.23474,0 -0.46948,0.23474 -0.46948,0.46948 v 1.03288 c 0,0.28169 0.23474,0.46949 0.46948,0.46949 0.2817,0 0.51644,-0.1878 0.51644,-0.46949 z m 0,-3.00473 v -1.03287 c 0,-0.23474 -0.23474,-0.46949 -0.51644,-0.46949 -0.23474,0 -0.46948,0.23475 -0.46948,0.46949 v 1.03287 c 0,0.2817 0.23474,0.46949 0.46948,0.46949 0.2817,0 0.51644,-0.18779 0.51644,-0.46949 z m 0,-3.00472 v -1.03287 c 0,-0.23475 -0.23474,-0.46949 -0.51644,-0.46949 -0.23474,0 -0.46948,0.23474 -0.46948,0.46949 v 1.03287 c 0,0.28169 0.23474,0.46949 0.46948,0.46949 0.2817,0 0.51644,-0.1878 0.51644,-0.46949 z m 0,-3.00472 v -1.03288 c 0,-0.23474 -0.23474,-0.46949 -0.51644,-0.46949 -0.23474,0 -0.46948,0.23475 -0.46948,0.46949 v 1.03288 c 0,0.28169 0.23474,0.46948 0.46948,0.46948 0.2817,0 0.51644,-0.18779 0.51644,-0.46948 z m 0,-3.00473 v -1.03287 c 0,-0.23475 -0.23474,-0.46949 -0.51644,-0.46949 -0.23474,0 -0.46948,0.23474 -0.46948,0.46949 v 1.03287 c 0,0.28169 0.23474,0.46949 0.46948,0.46949 0.2817,0 0.51644,-0.1878 0.51644,-0.46949 z m 0,-3.00472 v -1.03288 c 0,-0.23474 -0.23474,-0.46949 -0.51644,-0.46949 -0.23474,0 -0.46948,0.23475 -0.46948,0.46949 v 1.03288 c 0,0.28169 0.23474,0.46949 0.46948,0.46949 0.2817,0 0.51644,-0.1878 0.51644,-0.46949 z m 0,-3.00473 v -1.03287 c 0,-0.23475 -0.23474,-0.46949 -0.51644,-0.46949 -0.23474,0 -0.46948,0.23474 -0.46948,0.46949 v 1.03287 c 0,0.2817 0.23474,0.46949 0.46948,0.46949 0.2817,0 0.51644,-0.18779 0.51644,-0.46949 z m 0,-3.00472 v -1.03288 c 0,-0.23474 -0.23474,-0.46948 -0.51644,-0.46948 -0.23474,0 -0.46948,0.23474 -0.46948,0.46948 v 1.03288 c 0,0.28169 0.23474,0.46949 0.46948,0.46949 0.2817,0 0.51644,-0.1878 0.51644,-0.46949 z m 0,-3.00473 v -1.03287 c 0,-0.23475 -0.23474,-0.46949 -0.51644,-0.46949 -0.23474,0 -0.46948,0.23474 -0.46948,0.46949 v 1.03287 c 0,0.2817 0.23474,0.46949 0.46948,0.46949 0.2817,0 0.51644,-0.18779 0.51644,-0.46949 z m 0,-3.00472 v -1.03288 c 0,-0.23474 -0.23474,-0.46948 -0.51644,-0.46948 -0.23474,0 -0.46948,0.23474 -0.46948,0.46948 v 1.03288 c 0,0.28169 0.23474,0.46949 0.46948,0.46949 0.2817,0 0.51644,-0.1878 0.51644,-0.46949 z m 0,-3.00473 v -1.03287 c 0,-0.23474 -0.23474,-0.46949 -0.51644,-0.46949 -0.23474,0 -0.46948,0.23475 -0.46948,0.46949 v 1.03287 c 0,0.2817 0.23474,0.46949 0.46948,0.46949 0.2817,0 0.51644,-0.18779 0.51644,-0.46949 z m 0,-3.00472 v -1.03287 c 0,-0.23475 -0.23474,-0.46949 -0.51644,-0.46949 -0.23474,0 -0.46948,0.23474 -0.46948,0.46949 v 1.03287 c 0,0.28169 0.23474,0.46949 0.46948,0.46949 0.2817,0 0.51644,-0.1878 0.51644,-0.46949 z m 0,-3.00472 v -1.03288 c 0,-0.23474 -0.23474,-0.46949 -0.51644,-0.46949 -0.23474,0 -0.46948,0.23475 -0.46948,0.46949 v 1.03288 c 0,0.28169 0.23474,0.46948 0.46948,0.46948 0.2817,0 0.51644,-0.18779 0.51644,-0.46948 z m 0,-3.00473 v -1.03287 c 0,-0.23475 -0.23474,-0.46949 -0.51644,-0.46949 -0.23474,0 -0.46948,0.23474 -0.46948,0.46949 v 1.03287 c 0,0.28169 0.23474,0.46949 0.46948,0.46949 0.2817,0 0.51644,-0.1878 0.51644,-0.46949 z m 0,-3.00472 v -1.03288 c 0,-0.23474 -0.23474,-0.46949 -0.51644,-0.46949 -0.23474,0 -0.46948,0.23475 -0.46948,0.46949 v 1.03288 c 0,0.28169 0.23474,0.46948 0.46948,0.46948 0.2817,0 0.51644,-0.18779 0.51644,-0.46948 z m 0,-3.00473 v -1.03287 c 0,-0.23475 -0.23474,-0.46949 -0.51644,-0.46949 -0.23474,0 -0.46948,0.23474 -0.46948,0.46949 v 1.03287 c 0,0.28169 0.23474,0.46949 0.46948,0.46949 0.2817,0 0.51644,-0.1878 0.51644,-0.46949 z m 0,-3.00472 v -1.03288 c 0,-0.23474 -0.23474,-0.46948 -0.51644,-0.46948 -0.23474,0 -0.46948,0.23474 -0.46948,0.46948 v 1.03288 c 0,0.28169 0.23474,0.46949 0.46948,0.46949 0.2817,0 0.51644,-0.1878 0.51644,-0.46949 z"
       id="path553" /><path
       style="fill:#0000ff;fill-opacity:1;fill-rule:nonzero;stroke:#0000ff;stroke-width:0.0469488px;stroke-linecap:butt;stroke-linejoin:round;stroke-miterlimit:4;stroke-dasharray:none;stroke-opacity:1"
       d="m 110.88826,210.01071 v -1.03287 c 0,-0.28169 -0.1878,-0.46949 -0.46949,-0.46949 -0.2817,0 -0.51644,0.1878 -0.51644,0.46949 v 1.03287 c 0,0.23475 0.23474,0.46949 0.51644,0.46949 0.28169,0 0.46949,-0.23474 0.46949,-0.46949 z m 0,-3.00472 v -1.03288 c 0,-0.28169 -0.1878,-0.46948 -0.46949,-0.46948 -0.2817,0 -0.51644,0.18779 -0.51644,0.46948 v 1.03288 c 0,0.23474 0.23474,0.46949 0.51644,0.46949 0.28169,0 0.46949,-0.23475 0.46949,-0.46949 z m 0,-3.00473 v -1.03287 c 0,-0.28169 -0.1878,-0.46949 -0.46949,-0.46949 -0.2817,0 -0.51644,0.1878 -0.51644,0.46949 v 1.03287 c 0,0.23475 0.23474,0.46949 0.51644,0.46949 0.28169,0 0.46949,-0.23474 0.46949,-0.46949 z m 0,-3.00472 v -1.03287 c 0,-0.2817 -0.1878,-0.46949 -0.46949,-0.46949 -0.2817,0 -0.51644,0.18779 -0.51644,0.46949 v 1.03287 c 0,0.23474 0.23474,0.46949 0.51644,0.46949 0.28169,0 0.46949,-0.23475 0.46949,-0.46949 z m 0,-3.00473 v -1.03287 c 0,-0.28169 -0.1878,-0.46949 -0.46949,-0.46949 -0.2817,0 -0.51644,0.1878 -0.51644,0.46949 v 1.03287 c 0,0.23475 0.23474,0.46949 0.51644,0.46949 0.28169,0 0.46949,-0.23474 0.46949,-0.46949 z m 0,-3.00472 v -1.03287 c 0,-0.2817 -0.1878,-0.46949 -0.46949,-0.46949 -0.2817,0 -0.51644,0.18779 -0.51644,0.46949 v 1.03287 c 0,0.23474 0.23474,0.46949 0.51644,0.46949 0.28169,0 0.46949,-0.23475 0.46949,-0.46949 z m 0,-3.00472 v -1.03288 c 0,-0.28169 -0.1878,-0.46949 -0.46949,-0.46949 -0.2817,0 -0.51644,0.1878 -0.51644,0.46949 v 1.03288 c 0,0.23474 0.23474,0.46948 0.51644,0.46948 0.28169,0 0.46949,-0.23474 0.46949,-0.46948 z m 0,-3.00473 v -1.03287 c 0,-0.2817 -0.1878,-0.46949 -0.46949,-0.46949 -0.2817,0 -0.51644,0.18779 -0.51644,0.46949 v 1.03287 c 0,0.23474 0.23474,0.46949 0.51644,0.46949 0.28169,0 0.46949,-0.23475 0.46949,-0.46949 z m 0,-3.00472 v -1.03288 c 0,-0.28169 -0.1878,-0.46949 -0.46949,-0.46949 -0.2817,0 -0.51644,0.1878 -0.51644,0.46949 v 1.03288 c 0,0.23474 0.23474,0.46948 0.51644,0.46948 0.28169,0 0.46949,-0.23474 0.46949,-0.46948 z m 0,-3.00473 v -1.03287 c 0,-0.28169 -0.1878,-0.46949 -0.46949,-0.46949 -0.2817,0 -0.51644,0.1878 -0.51644,0.46949 v 1.03287 c 0,0.23475 0.23474,0.46949 0.51644,0.46949 0.28169,0 0.46949,-0.23474 0.46949,-0.46949 z m 0,-3.00472 v -1.03288 c 0,-0.28169 -0.1878,-0.46948 -0.46949,-0.46948 -0.2817,0 -0.51644,0.18779 -0.51644,0.46948 v 1.03288 c 0,0.23474 0.23474,0.46949 0.51644,0.46949 0.28169,0 0.46949,-0.23475 0.46949,-0.46949 z m 0,-3.00473 v -1.03287 c 0,-0.28169 -0.1878,-0.46949 -0.46949,-0.46949 -0.2817,0 -0.51644,0.1878 -0.51644,0.46949 v 1.03287 c 0,0.23475 0.23474,0.46949 0.51644,0.46949 0.28169,0 0.46949,-0.23474 0.46949,-0.46949 z m 0,-3.00472 v -1.03288 c 0,-0.28169 -0.1878,-0.46948 -0.46949,-0.46948 -0.2817,0 -0.51644,0.18779 -0.51644,0.46948 v 1.03288 c 0,0.23474 0.23474,0.46949 0.51644,0.46949 0.28169,0 0.46949,-0.23475 0.46949,-0.46949 z m 0,-3.00473 v -1.03287 c 0,-0.28169 -0.1878,-0.46949 -0.46949,-0.46949 -0.2817,0 -0.51644,0.1878 -0.51644,0.46949 v 1.03287 c 0,0.23475 0.23474,0.46949 0.51644,0.46949 0.28169,0 0.46949,-0.23474 0.46949,-0.46949 z m 0,-3.00472 v -1.03287 c 0,-0.2817 -0.1878,-0.46949 -0.46949,-0.46949 -0.2817,0 -0.51644,0.18779 -0.51644,0.46949 v 1.03287 c 0,0.23474 0.23474,0.46949 0.51644,0.46949 0.28169,0 0.46949,-0.23475 0.46949,-0.46949 z m 0,-3.00473 v -1.03287 c 0,-0.28169 -0.1878,-0.46949 -0.46949,-0.46949 -0.2817,0 -0.51644,0.1878 -0.51644,0.46949 v 1.03287 c 0,0.23475 0.23474,0.46949 0.51644,0.46949 0.28169,0 0.46949,-0.23474 0.46949,-0.46949 z m 0,-3.00472 v -1.03287 c 0,-0.2817 -0.1878,-0.46949 -0.46949,-0.46949 -0.2817,0 -0.51644,0.18779 -0.51644,0.46949 v 1.03287 c 0,0.23474 0.23474,0.46949 0.51644,0.46949 0.28169,0 0.46949,-0.23475 0.46949,-0.46949 z m 0,-3.00472 v -1.03288 c 0,-0.28169 -0.1878,-0.46949 -0.46949,-0.46949 -0.2817,0 -0.51644,0.1878 -0.51644,0.46949 v 1.03288 c 0,0.23474 0.23474,0.46948 0.51644,0.46948 0.28169,0 0.46949,-0.23474 0.46949,-0.46948 z m 0,-3.00473 v -1.03287 c 0,-0.2817 -0.1878,-0.46949 -0.46949,-0.46949 -0.2817,0 -0.51644,0.18779 -0.51644,0.46949 v 1.03287 c 0,0.23475 0.23474,0.46949 0.51644,0.46949 0.28169,0 0.46949,-0.23474 0.46949,-0.46949 z m 0,-3.00472 v -1.03288 c 0,-0.28169 -0.1878,-0.46948 -0.46949,-0.46948 -0.2817,0 -0.51644,0.18779 -0.51644,0.46948 v 1.03288 c 0,0.23474 0.23474,0.46949 0.51644,0.46949 0.28169,0 0.46949,-0.23475 0.46949,-0.46949 z m 0,-3.00473 v -1.03287 c 0,-0.28169 -0.1878,-0.46949 -0.46949,-0.46949 -0.2817,0 -0.51644,0.1878 -0.51644,0.46949 v 1.03287 c 0,0.23475 0.23474,0.46949 0.51644,0.46949 0.28169,0 0.46949,-0.23474 0.46949,-0.46949 z"
       id="path555" /><path
       style="fill:none;stroke:#0000ff;stroke-width:0.751181px;stroke-linecap:round;stroke-linejoin:round;stroke-miterlimit:4;stroke-dasharray:none;stroke-opacity:1"
       d="m 110.41877,207.14683 h 28.35708"
       id="path557" /><path
       style="fill:none;stroke:#0000ff;stroke-width:0.751181px;stroke-linecap:round;stroke-linejoin:round;stroke-miterlimit:4;stroke-dasharray:none;stroke-opacity:1"
       d="m 113.18875,209.91681 -2.76998,-2.76998 2.76998,-2.76998"
       id="path559" /><path
       style="fill:none;stroke:#0000ff;stroke-width:0.751181px;stroke-linecap:round;stroke-linejoin:round;stroke-miterlimit:4;stroke-dasharray:none;stroke-opacity:1"
       d="m 136.00587,204.37685 2.76998,2.76998 -2.76998,2.76998"
       id="path561" /><text
       xml:space="preserve"
       style="font-style:normal;font-variant:normal;font-weight:400;font-size:6px;line-height:125%;font-family:Calibri;text-align:start;letter-spacing:0px;word-spacing:0px;text-anchor:start;fill:#000000;fill-opacity:1;stroke:none;stroke-width:0.75"
       transform="scale(1,-1)"
       x="66.568527"
       y="-169.88115"
       id="text567"><tspan
         sodipodi:role="line"
         x="66.568527"
         y="-169.88115"
         id="tspan565"
         style="stroke-width:0.75"><tspan
           dx="0"
           dy="0"
           style="font-style:normal;font-variant:normal;font-weight:400;font-size:6px;font-family:Calibri;fill:#0000ff;stroke-width:0.75"
           id="tspan563">TXD</tspan></tspan></text><text
       xml:space="preserve"
       style="font-style:normal;font-variant:normal;font-weight:400;font-size:6px;line-height:125%;font-family:Calibri;text-align:start;letter-spacing:0px;word-spacing:0px;text-anchor:start;fill:#000000;fill-opacity:1;stroke:none;stroke-width:0.75"
       transform="scale(1,-1)"
       x="76.313065"
       y="-169.88115"
       id="text573"><tspan
         sodipodi:role="line"
         x="76.313065"
         y="-169.88115"
         id="tspan571"
         style="stroke-width:0.75"><tspan
           dx="0"
           dy="0"
           style="font-style:normal;font-variant:normal;font-weight:400;font-size:6px;font-family:Calibri;fill:#0000ff;stroke-width:0.75"
           id="tspan569">[</tspan></tspan></text><text
       xml:space="preserve"
       style="font-style:normal;font-variant:normal;font-weight:400;font-size:6px;line-height:125%;font-family:Calibri;text-align:start;letter-spacing:0px;word-spacing:0px;text-anchor:start;fill:#000000;fill-opacity:1;stroke:none;stroke-width:0.75"
       transform="scale(1,-1)"
       x="78.155899"
       y="-169.88115"
       id="text579"><tspan
         sodipodi:role="line"
         x="78.155899"
         y="-169.88115"
         id="tspan577"
         style="stroke-width:0.75"><tspan
           dx="0"
           dy="0"
           style="font-style:normal;font-variant:normal;font-weight:400;font-size:6px;font-family:Calibri;fill:#0000ff;stroke-width:0.75"
           id="tspan575">1</tspan></tspan></text><text
       xml:space="preserve"
       style="font-style:normal;font-variant:normal;font-weight:400;font-size:6px;line-height:125%;font-family:Calibri;text-align:start;letter-spacing:0px;word-spacing:0px;text-anchor:start;fill:#000000;fill-opacity:1;stroke:none;stroke-width:0.75"
       transform="scale(1,-1)"
       x="81.201698"
       y="-169.88115"
       id="text585"><tspan
         sodipodi:role="line"
         x="81.201698"
         y="-169.88115"
         id="tspan583"
         style="stroke-width:0.75"><tspan
           dx="0"
           dy="0"
           style="font-style:normal;font-variant:normal;font-weight:400;font-size:6px;font-family:Calibri;fill:#0000ff;stroke-width:0.75"
           id="tspan581">:</tspan></tspan></text><text
       xml:space="preserve"
       style="font-style:normal;font-variant:normal;font-weight:400;font-size:6px;line-height:125%;font-family:Calibri;text-align:start;letter-spacing:0px;word-spacing:0px;text-anchor:start;fill:#000000;fill-opacity:1;stroke:none;stroke-width:0.75"
       transform="scale(1,-1)"
       x="82.809608"
       y="-169.88115"
       id="text591"><tspan
         sodipodi:role="line"
         x="82.809608"
         y="-169.88115"
         id="tspan589"
         style="stroke-width:0.75"><tspan
           dx="0"
           dy="0"
           style="font-style:normal;font-variant:normal;font-weight:400;font-size:6px;font-family:Calibri;fill:#0000ff;stroke-width:0.75"
           id="tspan587">0</tspan></tspan></text><text
       xml:space="preserve"
       style="font-style:normal;font-variant:normal;font-weight:400;font-size:6px;line-height:125%;font-family:Calibri;text-align:start;letter-spacing:0px;word-spacing:0px;text-anchor:start;fill:#000000;fill-opacity:1;stroke:none;stroke-width:0.75"
       transform="scale(1,-1)"
       x="85.855415"
       y="-169.88115"
       id="text597"><tspan
         sodipodi:role="line"
         x="85.855415"
         y="-169.88115"
         id="tspan595"
         style="stroke-width:0.75"><tspan
           dx="0"
           dy="0"
           style="font-style:normal;font-variant:normal;font-weight:400;font-size:6px;font-family:Calibri;fill:#0000ff;stroke-width:0.75"
           id="tspan593">]</tspan></tspan></text><text
       xml:space="preserve"
       style="font-style:normal;font-variant:normal;font-weight:400;font-size:6px;line-height:125%;font-family:Calibri;text-align:start;letter-spacing:0px;word-spacing:0px;text-anchor:start;fill:#000000;fill-opacity:1;stroke:none;stroke-width:0.75"
       transform="scale(1,-1)"
       x="70.702866"
       y="-162.66994"
       id="text603"><tspan
         sodipodi:role="line"
         x="70.702866"
         y="-162.66994"
         id="tspan601"
         style="stroke-width:0.75"><tspan
           dx="0"
           dy="0"
           style="font-style:normal;font-variant:normal;font-weight:400;font-size:6px;font-family:Calibri;fill:#0000ff;stroke-width:0.75"
           id="tspan599">TXEN</tspan></tspan></text><text
       xml:space="preserve"
       style="font-style:normal;font-variant:normal;font-weight:400;font-size:6px;line-height:125%;font-family:Calibri;text-align:start;letter-spacing:0px;word-spacing:0px;text-anchor:start;fill:#000000;fill-opacity:1;stroke:none;stroke-width:0.75"
       transform="scale(1,-1)"
       x="68.451797"
       y="-134.83241"
       id="text609"><tspan
         sodipodi:role="line"
         x="68.451797"
         y="-134.83241"
         id="tspan607"
         style="stroke-width:0.75"><tspan
           dx="0"
           dy="0"
           style="font-style:normal;font-variant:normal;font-weight:400;font-size:6px;font-family:Calibri;fill:#0000ff;stroke-width:0.75"
           id="tspan605">RXD</tspan></tspan></text><text
       xml:space="preserve"
       style="font-style:normal;font-variant:normal;font-weight:400;font-size:6px;line-height:125%;font-family:Calibri;text-align:start;letter-spacing:0px;word-spacing:0px;text-anchor:start;fill:#000000;fill-opacity:1;stroke:none;stroke-width:0.75"
       transform="scale(1,-1)"
       x="78.530846"
       y="-134.83241"
       id="text615"><tspan
         sodipodi:role="line"
         x="78.530846"
         y="-134.83241"
         id="tspan613"
         style="stroke-width:0.75"><tspan
           dx="0"
           dy="0"
           style="font-style:normal;font-variant:normal;font-weight:400;font-size:6px;font-family:Calibri;fill:#0000ff;stroke-width:0.75"
           id="tspan611">[</tspan></tspan></text><text
       xml:space="preserve"
       style="font-style:normal;font-variant:normal;font-weight:400;font-size:6px;line-height:125%;font-family:Calibri;text-align:start;letter-spacing:0px;word-spacing:0px;text-anchor:start;fill:#000000;fill-opacity:1;stroke:none;stroke-width:0.75"
       transform="scale(1,-1)"
       x="80.37368"
       y="-134.83241"
       id="text621"><tspan
         sodipodi:role="line"
         x="80.37368"
         y="-134.83241"
         id="tspan619"
         style="stroke-width:0.75"><tspan
           dx="0"
           dy="0"
           style="font-style:normal;font-variant:normal;font-weight:400;font-size:6px;font-family:Calibri;fill:#0000ff;stroke-width:0.75"
           id="tspan617">1</tspan></tspan></text><text
       xml:space="preserve"
       style="font-style:normal;font-variant:normal;font-weight:400;font-size:6px;line-height:125%;font-family:Calibri;text-align:start;letter-spacing:0px;word-spacing:0px;text-anchor:start;fill:#000000;fill-opacity:1;stroke:none;stroke-width:0.75"
       transform="scale(1,-1)"
       x="83.419479"
       y="-134.83241"
       id="text627"><tspan
         sodipodi:role="line"
         x="83.419479"
         y="-134.83241"
         id="tspan625"
         style="stroke-width:0.75"><tspan
           dx="0"
           dy="0"
           style="font-style:normal;font-variant:normal;font-weight:400;font-size:6px;font-family:Calibri;fill:#0000ff;stroke-width:0.75"
           id="tspan623">:</tspan></tspan></text><text
       xml:space="preserve"
       style="font-style:normal;font-variant:normal;font-weight:400;font-size:6px;line-height:125%;font-family:Calibri;text-align:start;letter-spacing:0px;word-spacing:0px;text-anchor:start;fill:#000000;fill-opacity:1;stroke:none;stroke-width:0.75"
       transform="scale(1,-1)"
       x="85.02739"
       y="-134.83241"
       id="text633"><tspan
         sodipodi:role="line"
         x="85.02739"
         y="-134.83241"
         id="tspan631"
         style="stroke-width:0.75"><tspan
           dx="0"
           dy="0"
           style="font-style:normal;font-variant:normal;font-weight:400;font-size:6px;font-family:Calibri;fill:#0000ff;stroke-width:0.75"
           id="tspan629">0</tspan></tspan></text><text
       xml:space="preserve"
       style="font-style:normal;font-variant:normal;font-weight:400;font-size:6px;line-height:125%;font-family:Calibri;text-align:start;letter-spacing:0px;word-spacing:0px;text-anchor:start;fill:#000000;fill-opacity:1;stroke:none;stroke-width:0.75"
       transform="scale(1,-1)"
       x="88.073189"
       y="-134.83241"
       id="text639"><tspan
         sodipodi:role="line"
         x="88.073189"
         y="-134.83241"
         id="tspan637"
         style="stroke-width:0.75"><tspan
           dx="0"
           dy="0"
           style="font-style:normal;font-variant:normal;font-weight:400;font-size:6px;font-family:Calibri;fill:#0000ff;stroke-width:0.75"
           id="tspan635">]</tspan></tspan></text><text
       xml:space="preserve"
       style="font-style:normal;font-variant:normal;font-weight:400;font-size:6px;line-height:125%;font-family:Calibri;text-align:start;letter-spacing:0px;word-spacing:0px;text-anchor:start;fill:#000000;fill-opacity:1;stroke:none;stroke-width:0.75"
       transform="scale(1,-1)"
       x="70.943016"
       y="-127.62119"
       id="text645"><tspan
         sodipodi:role="line"
         x="70.943016"
         y="-127.62119"
         id="tspan643"
         style="stroke-width:0.75"><tspan
           dx="0"
           dy="0"
           style="font-style:normal;font-variant:normal;font-weight:400;font-size:6px;font-family:Calibri;fill:#0000ff;stroke-width:0.75"
           id="tspan641">RX</tspan></tspan></text><text
       xml:space="preserve"
       style="font-style:normal;font-variant:normal;font-weight:400;font-size:6px;line-height:125%;font-family:Calibri;text-align:start;letter-spacing:0px;word-spacing:0px;text-anchor:start;fill:#000000;fill-opacity:1;stroke:none;stroke-width:0.75"
       transform="scale(1,-1)"
       x="77.324844"
       y="-127.62119"
       id="text651"><tspan
         sodipodi:role="line"
         x="77.324844"
         y="-127.62119"
         id="tspan649"
         style="stroke-width:0.75"><tspan
           dx="0"
           dy="0"
           style="font-style:normal;font-variant:normal;font-weight:400;font-size:6px;font-family:Calibri;fill:#0000ff;stroke-width:0.75"
           id="tspan647">_</tspan></tspan></text><text
       xml:space="preserve"
       style="font-style:normal;font-variant:normal;font-weight:400;font-size:6px;line-height:125%;font-family:Calibri;text-align:start;letter-spacing:0px;word-spacing:0px;text-anchor:start;fill:#000000;fill-opacity:1;stroke:none;stroke-width:0.75"
       transform="scale(1,-1)"
       x="80.317833"
       y="-127.62119"
       id="text657"><tspan
         sodipodi:role="line"
         x="80.317833"
         y="-127.62119"
         id="tspan655"
         style="stroke-width:0.75"><tspan
           dx="0"
           dy="0"
           style="font-style:normal;font-variant:normal;font-weight:400;font-size:6px;font-family:Calibri;fill:#0000ff;stroke-width:0.75"
           id="tspan653">DV</tspan></tspan></text><text
       xml:space="preserve"
       style="font-style:normal;font-variant:normal;font-weight:400;font-size:6px;line-height:125%;font-family:Calibri;text-align:start;letter-spacing:0px;word-spacing:0px;text-anchor:start;fill:#000000;fill-opacity:1;stroke:none;stroke-width:0.75"
       transform="scale(1,-1)"
       x="71.262947"
       y="-120.40967"
       id="text663"><tspan
         sodipodi:role="line"
         x="71.262947"
         y="-120.40967"
         id="tspan661"
         style="stroke-width:0.75"><tspan
           dx="0"
           dy="0"
           style="font-style:normal;font-variant:normal;font-weight:400;font-size:6px;font-family:Calibri;fill:#0000ff;stroke-width:0.75"
           id="tspan659">RXERR</tspan></tspan></text><path
       style="fill:none;stroke:#0000ff;stroke-width:0.985925px;stroke-linecap:round;stroke-linejoin:round;stroke-miterlimit:4;stroke-dasharray:none;stroke-opacity:1"
       d="m 167.08599,175.92587 h 14.97668"
       id="path665" /><path
       style="fill:none;stroke:#0000ff;stroke-width:0.985925px;stroke-linecap:round;stroke-linejoin:round;stroke-miterlimit:4;stroke-dasharray:none;stroke-opacity:1"
       d="m 167.08599,161.74733 h 14.17855"
       id="path667" /><path
       style="fill:none;stroke:#0000ff;stroke-width:0.985925px;stroke-linecap:round;stroke-linejoin:round;stroke-miterlimit:4;stroke-dasharray:none;stroke-opacity:1"
       d="m 182.06267,175.92587 6.33809,-14.17854"
       id="path669" /><path
       style="fill:none;stroke:#0000ff;stroke-width:0.985925px;stroke-linecap:round;stroke-linejoin:round;stroke-miterlimit:4;stroke-dasharray:none;stroke-opacity:1"
       d="m 181.26454,161.74733 7.23011,13.9438"
       id="path671" /><path
       style="fill:none;stroke:#0000ff;stroke-width:0.985925px;stroke-linecap:round;stroke-linejoin:round;stroke-miterlimit:4;stroke-dasharray:none;stroke-opacity:1"
       d="M 188.49465,175.92587 H 210.5606"
       id="path673" /><path
       style="fill:none;stroke:#0000ff;stroke-width:0.985925px;stroke-linecap:round;stroke-linejoin:round;stroke-miterlimit:4;stroke-dasharray:none;stroke-opacity:1"
       d="m 195.58393,161.74733 h 14.17854"
       id="path675" /><path
       style="fill:none;stroke:#0000ff;stroke-width:0.985925px;stroke-linecap:round;stroke-linejoin:round;stroke-miterlimit:4;stroke-dasharray:none;stroke-opacity:1"
       d="m 210.5606,175.92587 6.29114,-14.17854"
       id="path677" /><path
       style="fill:none;stroke:#0000ff;stroke-width:0.985925px;stroke-linecap:round;stroke-linejoin:round;stroke-miterlimit:4;stroke-dasharray:none;stroke-opacity:1"
       d="m 209.76247,161.74733 7.23012,13.9438"
       id="path679" /><path
       style="fill:none;stroke:#0000ff;stroke-width:0.985925px;stroke-linecap:round;stroke-linejoin:round;stroke-miterlimit:4;stroke-dasharray:none;stroke-opacity:1"
       d="m 216.85174,161.74733 h 15.72785"
       id="path681" /><path
       style="fill:none;stroke:#0000ff;stroke-width:0.985925px;stroke-linecap:round;stroke-linejoin:round;stroke-miterlimit:4;stroke-dasharray:none;stroke-opacity:1"
       d="m 232.57959,161.74733 h 5.68081"
       id="path683" /><path
       style="fill:none;stroke:#0000ff;stroke-width:0.985925px;stroke-linecap:round;stroke-linejoin:round;stroke-miterlimit:4;stroke-dasharray:none;stroke-opacity:1"
       d="m 216.99259,175.92587 h 22.06595"
       id="path685" /><path
       style="fill:none;stroke:#0000ff;stroke-width:0.985925px;stroke-linecap:round;stroke-linejoin:round;stroke-miterlimit:4;stroke-dasharray:none;stroke-opacity:1"
       d="M 224.08186,161.74733 H 238.2604"
       id="path687" /><path
       style="fill:none;stroke:#0000ff;stroke-width:0.985925px;stroke-linecap:round;stroke-linejoin:round;stroke-miterlimit:4;stroke-dasharray:none;stroke-opacity:1"
       d="m 239.05854,175.92587 6.29114,-14.17854"
       id="path689" /><path
       style="fill:none;stroke:#0000ff;stroke-width:0.985925px;stroke-linecap:round;stroke-linejoin:round;stroke-miterlimit:4;stroke-dasharray:none;stroke-opacity:1"
       d="m 238.2604,161.74733 7.18317,13.9438"
       id="path691" /><path
       style="fill:none;stroke:#0000ff;stroke-width:0.985925px;stroke-linecap:round;stroke-linejoin:round;stroke-miterlimit:4;stroke-dasharray:none;stroke-opacity:1"
       d="m 245.25578,161.74733 h 15.72785"
       id="path693" /><path
       style="fill:none;stroke:#0000ff;stroke-width:0.985925px;stroke-linecap:round;stroke-linejoin:round;stroke-miterlimit:4;stroke-dasharray:none;stroke-opacity:1"
       d="m 260.98363,161.74733 h 5.68081"
       id="path695" /><path
       style="fill:none;stroke:#0000ff;stroke-width:0.985925px;stroke-linecap:round;stroke-linejoin:round;stroke-miterlimit:4;stroke-dasharray:none;stroke-opacity:1"
       d="m 245.34968,175.92587 h 22.06595"
       id="path697" /><path
       style="fill:none;stroke:#0000ff;stroke-width:0.985925px;stroke-linecap:round;stroke-linejoin:round;stroke-miterlimit:4;stroke-dasharray:none;stroke-opacity:1"
       d="m 252.43895,161.74733 h 14.22549"
       id="path699" /><path
       style="fill:none;stroke:#0000ff;stroke-width:0.985925px;stroke-linecap:round;stroke-linejoin:round;stroke-miterlimit:4;stroke-dasharray:none;stroke-opacity:1"
       d="m 267.41563,175.92587 6.33808,-14.17854"
       id="path701" /><path
       style="fill:none;stroke:#0000ff;stroke-width:0.985925px;stroke-linecap:round;stroke-linejoin:round;stroke-miterlimit:4;stroke-dasharray:none;stroke-opacity:1"
       d="m 266.66444,161.74733 7.18317,13.9438"
       id="path703" /><path
       style="fill:none;stroke:#0000ff;stroke-width:0.985925px;stroke-linecap:round;stroke-linejoin:round;stroke-miterlimit:4;stroke-dasharray:none;stroke-opacity:1"
       d="m 273.75371,161.74733 h 15.72786"
       id="path705" /><path
       style="fill:none;stroke:#0000ff;stroke-width:0.985925px;stroke-linecap:round;stroke-linejoin:round;stroke-miterlimit:4;stroke-dasharray:none;stroke-opacity:1"
       d="m 289.48157,161.74733 h 5.6808"
       id="path707" /><path
       style="fill:none;stroke:#0000ff;stroke-width:0.985925px;stroke-linecap:round;stroke-linejoin:round;stroke-miterlimit:4;stroke-dasharray:none;stroke-opacity:1"
       d="m 273.84761,175.92587 h 22.06595"
       id="path709" /><path
       style="fill:none;stroke:#0000ff;stroke-width:0.985925px;stroke-linecap:round;stroke-linejoin:round;stroke-miterlimit:4;stroke-dasharray:none;stroke-opacity:1"
       d="m 280.93688,161.74733 h 14.22549"
       id="path711" /><path
       style="fill:none;stroke:#0000ff;stroke-width:0.985925px;stroke-linecap:round;stroke-linejoin:round;stroke-miterlimit:4;stroke-dasharray:none;stroke-opacity:1"
       d="m 295.91356,175.92587 6.33809,-14.17854"
       id="path713" /><path
       style="fill:none;stroke:#0000ff;stroke-width:0.985925px;stroke-linecap:round;stroke-linejoin:round;stroke-miterlimit:4;stroke-dasharray:none;stroke-opacity:1"
       d="m 295.16237,161.74733 7.18317,13.9438"
       id="path715" /><path
       style="fill:none;stroke:#0000ff;stroke-width:0.985925px;stroke-linecap:round;stroke-linejoin:round;stroke-miterlimit:4;stroke-dasharray:none;stroke-opacity:1"
       d="m 302.34554,175.64418 h 14.17855"
       id="path717" /><path
       style="fill:none;stroke:#0000ff;stroke-width:0.985925px;stroke-linecap:round;stroke-linejoin:round;stroke-miterlimit:4;stroke-dasharray:none;stroke-opacity:1"
       d="m 316.52409,175.64418 h 14.17854"
       id="path719" /><path
       style="fill:none;stroke:#0000ff;stroke-width:0.985925px;stroke-linecap:round;stroke-linejoin:round;stroke-miterlimit:4;stroke-dasharray:none;stroke-opacity:1"
       d="m 330.70263,175.64418 h 14.2255"
       id="path721" /><path
       style="fill:none;stroke:#0000ff;stroke-width:0.985925px;stroke-linecap:round;stroke-linejoin:round;stroke-miterlimit:4;stroke-dasharray:none;stroke-opacity:1"
       d="m 344.92813,175.64418 14.97666,-0.0939"
       id="path723" /><path
       style="fill:none;stroke:#0000ff;stroke-width:0.985925px;stroke-linecap:round;stroke-linejoin:round;stroke-miterlimit:4;stroke-dasharray:none;stroke-opacity:1"
       d="m 302.34554,161.41868 h 14.17855"
       id="path725" /><path
       style="fill:none;stroke:#0000ff;stroke-width:0.985925px;stroke-linecap:round;stroke-linejoin:round;stroke-miterlimit:4;stroke-dasharray:none;stroke-opacity:1"
       d="m 316.52409,161.41868 h 14.17854"
       id="path727" /><path
       style="fill:none;stroke:#0000ff;stroke-width:0.985925px;stroke-linecap:round;stroke-linejoin:round;stroke-miterlimit:4;stroke-dasharray:none;stroke-opacity:1"
       d="m 330.70263,161.41868 h 14.2255"
       id="path729" /><path
       style="fill:none;stroke:#0000ff;stroke-width:0.985925px;stroke-linecap:round;stroke-linejoin:round;stroke-miterlimit:4;stroke-dasharray:none;stroke-opacity:1"
       d="m 344.92813,161.41868 h 14.17854"
       id="path731" /><path
       style="fill:none;stroke:#0000ff;stroke-width:0.985925px;stroke-linecap:round;stroke-linejoin:round;stroke-miterlimit:4;stroke-dasharray:none;stroke-opacity:1"
       d="M 92.578215,139.30579 H 178.54151"
       id="path733" /><path
       style="fill:none;stroke:#0000ff;stroke-width:0.985925px;stroke-linecap:round;stroke-linejoin:round;stroke-miterlimit:4;stroke-dasharray:none;stroke-opacity:1"
       d="M 92.578215,125.17419 H 177.74337"
       id="path735" /><path
       style="fill:none;stroke:#0000ff;stroke-width:0.985925px;stroke-linecap:round;stroke-linejoin:round;stroke-miterlimit:4;stroke-dasharray:none;stroke-opacity:1"
       d="m 178.49456,139.35274 6.33809,-14.17855"
       id="path737" /><path
       style="fill:none;stroke:#0000ff;stroke-width:0.985925px;stroke-linecap:round;stroke-linejoin:round;stroke-miterlimit:4;stroke-dasharray:none;stroke-opacity:1"
       d="m 177.74337,125.17419 7.08928,14.17855"
       id="path739" /><path
       style="fill:none;stroke:#0000ff;stroke-width:0.985925px;stroke-linecap:round;stroke-linejoin:round;stroke-miterlimit:4;stroke-dasharray:none;stroke-opacity:1"
       d="M 184.83265,139.35274 H 198.7295"
       id="path741" /><path
       style="fill:none;stroke:#0000ff;stroke-width:0.985925px;stroke-linecap:round;stroke-linejoin:round;stroke-miterlimit:4;stroke-dasharray:none;stroke-opacity:1"
       d="M 184.83265,125.17419 H 200.4666"
       id="path743" /><path
       style="fill:none;stroke:#0000ff;stroke-width:0.985925px;stroke-linecap:round;stroke-linejoin:round;stroke-miterlimit:4;stroke-dasharray:none;stroke-opacity:1"
       d="m 200.4666,125.17419 h 5.21133"
       id="path745" /><path
       style="fill:none;stroke:#0000ff;stroke-width:0.985925px;stroke-linecap:round;stroke-linejoin:round;stroke-miterlimit:4;stroke-dasharray:none;stroke-opacity:1"
       d="m 213.14279,125.17419 h 15.6809"
       id="path747" /><path
       style="fill:none;stroke:#0000ff;stroke-width:0.985925px;stroke-linecap:round;stroke-linejoin:round;stroke-miterlimit:4;stroke-dasharray:none;stroke-opacity:1"
       d="m 228.82369,125.17419 h 5.68081"
       id="path749" /><text
       xml:space="preserve"
       style="font-style:normal;font-variant:normal;font-weight:400;font-size:6px;line-height:125%;font-family:Calibri;text-align:start;letter-spacing:0px;word-spacing:0px;text-anchor:start;fill:#000000;fill-opacity:1;stroke:none;stroke-width:0.75"
       transform="scale(1,-1)"
       x="214.36903"
       y="-151.44136"
       id="text755"><tspan
         sodipodi:role="line"
         x="214.36903"
         y="-151.44136"
         id="tspan753"
         style="stroke-width:0.75"><tspan
           dx="0"
           dy="0"
           style="font-style:normal;font-variant:normal;font-weight:400;font-size:6px;font-family:Calibri;fill:#0000ff;stroke-width:0.75"
           id="tspan751">T</tspan></tspan></text><text
       xml:space="preserve"
       style="font-style:normal;font-variant:normal;font-weight:400;font-size:3.75px;line-height:125%;font-family:Calibri;text-align:start;letter-spacing:0px;word-spacing:0px;text-anchor:start;fill:#000000;fill-opacity:1;stroke:none;stroke-width:0.75"
       transform="scale(1,-1)"
       x="217.29738"
       y="-151.44136"
       id="text761"><tspan
         sodipodi:role="line"
         x="217.29738"
         y="-151.44136"
         id="tspan759"
         style="stroke-width:0.75"><tspan
           dx="0"
           dy="0"
           style="font-style:normal;font-variant:normal;font-weight:400;font-size:3.75px;font-family:Calibri;fill:#0000ff;stroke-width:0.75"
           id="tspan757">su</tspan></tspan></text><path
       style="fill:none;stroke:#0000ff;stroke-width:0.985925px;stroke-linecap:round;stroke-linejoin:round;stroke-miterlimit:4;stroke-dasharray:none;stroke-opacity:1"
       d="M 191.82802,139.35274 H 206.8047"
       id="path763" /><path
       style="fill:none;stroke:#0000ff;stroke-width:0.985925px;stroke-linecap:round;stroke-linejoin:round;stroke-miterlimit:4;stroke-dasharray:none;stroke-opacity:1"
       d="m 191.82802,125.17419 h 14.17855"
       id="path765" /><path
       style="fill:none;stroke:#0000ff;stroke-width:0.985925px;stroke-linecap:round;stroke-linejoin:round;stroke-miterlimit:4;stroke-dasharray:none;stroke-opacity:1"
       d="m 206.8047,139.35274 6.33809,-14.17855"
       id="path767" /><path
       style="fill:none;stroke:#0000ff;stroke-width:0.985925px;stroke-linecap:round;stroke-linejoin:round;stroke-miterlimit:4;stroke-dasharray:none;stroke-opacity:1"
       d="m 206.00657,125.17419 7.23011,13.9438"
       id="path769" /><path
       style="fill:none;stroke:#0000ff;stroke-width:0.985925px;stroke-linecap:round;stroke-linejoin:round;stroke-miterlimit:4;stroke-dasharray:none;stroke-opacity:1"
       d="m 213.23668,139.35274 h 22.06595"
       id="path771" /><path
       style="fill:none;stroke:#0000ff;stroke-width:0.985925px;stroke-linecap:round;stroke-linejoin:round;stroke-miterlimit:4;stroke-dasharray:none;stroke-opacity:1"
       d="M 220.32596,125.17419 H 234.5045"
       id="path773" /><path
       style="fill:none;stroke:#0000ff;stroke-width:0.985925px;stroke-linecap:round;stroke-linejoin:round;stroke-miterlimit:4;stroke-dasharray:none;stroke-opacity:1"
       d="m 235.30263,139.35274 6.29114,-14.17855"
       id="path775" /><path
       style="fill:none;stroke:#0000ff;stroke-width:0.985925px;stroke-linecap:round;stroke-linejoin:round;stroke-miterlimit:4;stroke-dasharray:none;stroke-opacity:1"
       d="m 234.5045,125.17419 7.23012,13.9438"
       id="path777" /><path
       style="fill:none;stroke:#0000ff;stroke-width:0.985925px;stroke-linecap:round;stroke-linejoin:round;stroke-miterlimit:4;stroke-dasharray:none;stroke-opacity:1"
       d="m 241.59377,125.17419 h 15.72785"
       id="path779" /><path
       style="fill:none;stroke:#0000ff;stroke-width:0.985925px;stroke-linecap:round;stroke-linejoin:round;stroke-miterlimit:4;stroke-dasharray:none;stroke-opacity:1"
       d="m 257.32162,125.17419 h 5.68081"
       id="path781" /><path
       style="fill:none;stroke:#0000ff;stroke-width:0.985925px;stroke-linecap:round;stroke-linejoin:round;stroke-miterlimit:4;stroke-dasharray:none;stroke-opacity:1"
       d="m 241.73462,139.35274 h 22.06594"
       id="path783" /><path
       style="fill:none;stroke:#0000ff;stroke-width:0.985925px;stroke-linecap:round;stroke-linejoin:round;stroke-miterlimit:4;stroke-dasharray:none;stroke-opacity:1"
       d="m 248.82389,125.17419 h 14.17854"
       id="path785" /><path
       style="fill:none;stroke:#0000ff;stroke-width:0.985925px;stroke-linecap:round;stroke-linejoin:round;stroke-miterlimit:4;stroke-dasharray:none;stroke-opacity:1"
       d="m 263.80056,139.35274 6.29115,-14.17855"
       id="path787" /><path
       style="fill:none;stroke:#0000ff;stroke-width:0.985925px;stroke-linecap:round;stroke-linejoin:round;stroke-miterlimit:4;stroke-dasharray:none;stroke-opacity:1"
       d="m 263.00243,125.17419 7.18317,13.9438"
       id="path789" /><path
       style="fill:none;stroke:#0000ff;stroke-width:0.985925px;stroke-linecap:round;stroke-linejoin:round;stroke-miterlimit:4;stroke-dasharray:none;stroke-opacity:1"
       d="m 269.99781,125.17419 h 15.72785"
       id="path791" /><path
       style="fill:none;stroke:#0000ff;stroke-width:0.985925px;stroke-linecap:round;stroke-linejoin:round;stroke-miterlimit:4;stroke-dasharray:none;stroke-opacity:1"
       d="m 285.72566,125.17419 h 5.68081"
       id="path793" /><path
       style="fill:none;stroke:#0000ff;stroke-width:0.985925px;stroke-linecap:round;stroke-linejoin:round;stroke-miterlimit:4;stroke-dasharray:none;stroke-opacity:1"
       d="m 270.09171,139.35274 h 22.06594"
       id="path795" /><path
       style="fill:none;stroke:#0000ff;stroke-width:0.985925px;stroke-linecap:round;stroke-linejoin:round;stroke-miterlimit:4;stroke-dasharray:none;stroke-opacity:1"
       d="m 277.18098,125.17419 h 14.22549"
       id="path797" /><path
       style="fill:none;stroke:#0000ff;stroke-width:0.985925px;stroke-linecap:round;stroke-linejoin:round;stroke-miterlimit:4;stroke-dasharray:none;stroke-opacity:1"
       d="m 292.15765,139.35274 6.33809,-14.17855"
       id="path799" /><path
       style="fill:none;stroke:#0000ff;stroke-width:0.985925px;stroke-linecap:round;stroke-linejoin:round;stroke-miterlimit:4;stroke-dasharray:none;stroke-opacity:1"
       d="m 291.40647,125.17419 7.18317,13.9438"
       id="path801" /><path
       style="fill:none;stroke:#0000ff;stroke-width:0.985925px;stroke-linecap:round;stroke-linejoin:round;stroke-miterlimit:4;stroke-dasharray:none;stroke-opacity:1"
       d="M 298.49574,125.17419 H 314.2236"
       id="path803" /><path
       style="fill:none;stroke:#0000ff;stroke-width:0.985925px;stroke-linecap:round;stroke-linejoin:round;stroke-miterlimit:4;stroke-dasharray:none;stroke-opacity:1"
       d="m 314.2236,125.17419 h 5.6808"
       id="path805" /><path
       style="fill:none;stroke:#0000ff;stroke-width:0.985925px;stroke-linecap:round;stroke-linejoin:round;stroke-miterlimit:4;stroke-dasharray:none;stroke-opacity:1"
       d="m 298.58964,139.35274 h 22.06594"
       id="path807" /><path
       style="fill:none;stroke:#0000ff;stroke-width:0.985925px;stroke-linecap:round;stroke-linejoin:round;stroke-miterlimit:4;stroke-dasharray:none;stroke-opacity:1"
       d="M 305.67891,125.17419 H 319.9044"
       id="path809" /><path
       style="fill:none;stroke:#0000ff;stroke-width:0.985925px;stroke-linecap:round;stroke-linejoin:round;stroke-miterlimit:4;stroke-dasharray:none;stroke-opacity:1"
       d="m 320.65558,139.35274 6.3381,-14.17855"
       id="path811" /><path
       style="fill:none;stroke:#0000ff;stroke-width:0.985925px;stroke-linecap:round;stroke-linejoin:round;stroke-miterlimit:4;stroke-dasharray:none;stroke-opacity:1"
       d="m 319.9044,125.17419 7.18317,13.9438"
       id="path813" /><path
       style="fill:none;stroke:#0000ff;stroke-width:0.985925px;stroke-linecap:round;stroke-linejoin:round;stroke-miterlimit:4;stroke-dasharray:none;stroke-opacity:1"
       d="m 327.08757,139.07105 h 33.14587"
       id="path815" /><path
       style="fill:none;stroke:#0000ff;stroke-width:0.985925px;stroke-linecap:round;stroke-linejoin:round;stroke-miterlimit:4;stroke-dasharray:none;stroke-opacity:1"
       d="m 327.08757,124.8925 h 33.14587"
       id="path817" /><path
       style="fill:#0000ff;fill-opacity:1;fill-rule:nonzero;stroke:#0000ff;stroke-width:0.0469488px;stroke-linecap:butt;stroke-linejoin:round;stroke-miterlimit:4;stroke-dasharray:none;stroke-opacity:1"
       d="m 224.45745,209.11869 v -0.98593 c 0,-0.28169 -0.1878,-0.51644 -0.46949,-0.51644 -0.28169,0 -0.51643,0.23475 -0.51643,0.51644 v 0.98593 c 0,0.28169 0.23474,0.51643 0.51643,0.51643 0.28169,0 0.46949,-0.23474 0.46949,-0.51643 z m 0,-3.00473 v -0.98593 c 0,-0.28169 -0.1878,-0.51643 -0.46949,-0.51643 -0.28169,0 -0.51643,0.23474 -0.51643,0.51643 v 0.98593 c 0,0.28169 0.23474,0.51644 0.51643,0.51644 0.28169,0 0.46949,-0.23475 0.46949,-0.51644 z m 0,-3.00472 v -0.98593 c 0,-0.28169 -0.1878,-0.51644 -0.46949,-0.51644 -0.28169,0 -0.51643,0.23475 -0.51643,0.51644 v 0.98593 c 0,0.28169 0.23474,0.51643 0.51643,0.51643 0.28169,0 0.46949,-0.23474 0.46949,-0.51643 z m 0,-3.00473 v -0.98592 c 0,-0.2817 -0.1878,-0.51644 -0.46949,-0.51644 -0.28169,0 -0.51643,0.23474 -0.51643,0.51644 v 0.98592 c 0,0.28169 0.23474,0.51644 0.51643,0.51644 0.28169,0 0.46949,-0.23475 0.46949,-0.51644 z m 0,-3.00472 v -0.98593 c 0,-0.28169 -0.1878,-0.51644 -0.46949,-0.51644 -0.28169,0 -0.51643,0.23475 -0.51643,0.51644 v 0.98593 c 0,0.28169 0.23474,0.51643 0.51643,0.51643 0.28169,0 0.46949,-0.23474 0.46949,-0.51643 z m 0,-3.00473 v -0.98592 c 0,-0.2817 -0.1878,-0.51644 -0.46949,-0.51644 -0.28169,0 -0.51643,0.23474 -0.51643,0.51644 v 0.98592 c 0,0.2817 0.23474,0.51644 0.51643,0.51644 0.28169,0 0.46949,-0.23474 0.46949,-0.51644 z m 0,-3.00472 v -0.98593 c 0,-0.28169 -0.1878,-0.51643 -0.46949,-0.51643 -0.28169,0 -0.51643,0.23474 -0.51643,0.51643 v 0.98593 c 0,0.28169 0.23474,0.51644 0.51643,0.51644 0.28169,0 0.46949,-0.23475 0.46949,-0.51644 z m 0,-3.00473 v -0.98592 c 0,-0.28169 -0.1878,-0.51644 -0.46949,-0.51644 -0.28169,0 -0.51643,0.23475 -0.51643,0.51644 v 0.98592 c 0,0.2817 0.23474,0.51644 0.51643,0.51644 0.28169,0 0.46949,-0.23474 0.46949,-0.51644 z m 0,-3.00472 v -0.98593 c 0,-0.28169 -0.1878,-0.51643 -0.46949,-0.51643 -0.28169,0 -0.51643,0.23474 -0.51643,0.51643 v 0.98593 c 0,0.28169 0.23474,0.51644 0.51643,0.51644 0.28169,0 0.46949,-0.23475 0.46949,-0.51644 z m 0,-3.00473 v -0.98592 c 0,-0.28169 -0.1878,-0.51644 -0.46949,-0.51644 -0.28169,0 -0.51643,0.23475 -0.51643,0.51644 v 0.98592 c 0,0.2817 0.23474,0.51644 0.51643,0.51644 0.28169,0 0.46949,-0.23474 0.46949,-0.51644 z m 0,-3.00472 v -0.98592 c 0,-0.2817 -0.1878,-0.51644 -0.46949,-0.51644 -0.28169,0 -0.51643,0.23474 -0.51643,0.51644 v 0.98592 c 0,0.28169 0.23474,0.51644 0.51643,0.51644 0.28169,0 0.46949,-0.23475 0.46949,-0.51644 z m 0,-3.00472 v -0.98593 c 0,-0.28169 -0.1878,-0.51644 -0.46949,-0.51644 -0.28169,0 -0.51643,0.23475 -0.51643,0.51644 v 0.98593 c 0,0.28169 0.23474,0.51643 0.51643,0.51643 0.28169,0 0.46949,-0.23474 0.46949,-0.51643 z m 0,-3.00473 v -0.98592 c 0,-0.2817 -0.1878,-0.51644 -0.46949,-0.51644 -0.28169,0 -0.51643,0.23474 -0.51643,0.51644 v 0.98592 c 0,0.28169 0.23474,0.51644 0.51643,0.51644 0.28169,0 0.46949,-0.23475 0.46949,-0.51644 z m 0,-3.00472 v -0.98593 c 0,-0.28169 -0.1878,-0.51644 -0.46949,-0.51644 -0.28169,0 -0.51643,0.23475 -0.51643,0.51644 v 0.98593 c 0,0.28169 0.23474,0.51643 0.51643,0.51643 0.28169,0 0.46949,-0.23474 0.46949,-0.51643 z m 0,-3.00473 v -0.98592 c 0,-0.2817 -0.1878,-0.51644 -0.46949,-0.51644 -0.28169,0 -0.51643,0.23474 -0.51643,0.51644 v 0.98592 c 0,0.28169 0.23474,0.51644 0.51643,0.51644 0.28169,0 0.46949,-0.23475 0.46949,-0.51644 z m 0,-3.00472 v -0.98593 c 0,-0.28169 -0.1878,-0.51643 -0.46949,-0.51643 -0.28169,0 -0.51643,0.23474 -0.51643,0.51643 v 0.98593 c 0,0.28169 0.23474,0.51643 0.51643,0.51643 0.28169,0 0.46949,-0.23474 0.46949,-0.51643 z m 0,-3.00473 v -0.98592 c 0,-0.28169 -0.1878,-0.51644 -0.46949,-0.51644 -0.28169,0 -0.51643,0.23475 -0.51643,0.51644 v 0.98592 c 0,0.2817 0.23474,0.51644 0.51643,0.51644 0.28169,0 0.46949,-0.23474 0.46949,-0.51644 z m 0,-3.00472 v -0.98593 c 0,-0.28169 -0.1878,-0.51643 -0.46949,-0.51643 -0.28169,0 -0.51643,0.23474 -0.51643,0.51643 v 0.98593 c 0,0.28169 0.23474,0.51644 0.51643,0.51644 0.28169,0 0.46949,-0.23475 0.46949,-0.51644 z m 0,-3.00473 v -0.98592 c 0,-0.28169 -0.1878,-0.51644 -0.46949,-0.51644 -0.28169,0 -0.51643,0.23475 -0.51643,0.51644 v 0.98592 c 0,0.2817 0.23474,0.51644 0.51643,0.51644 0.28169,0 0.46949,-0.23474 0.46949,-0.51644 z m 0,-3.00472 v -0.98593 c 0,-0.28169 -0.1878,-0.51643 -0.46949,-0.51643 -0.28169,0 -0.51643,0.23474 -0.51643,0.51643 v 0.98593 c 0,0.28169 0.23474,0.51644 0.51643,0.51644 0.28169,0 0.46949,-0.23475 0.46949,-0.51644 z m 0,-3.00473 v -0.98592 c 0,-0.28169 -0.1878,-0.51644 -0.46949,-0.51644 -0.28169,0 -0.51643,0.23475 -0.51643,0.51644 v 0.98592 c 0,0.2817 0.23474,0.51644 0.51643,0.51644 0.28169,0 0.46949,-0.23474 0.46949,-0.51644 z m 0,-3.00472 v -0.98592 c 0,-0.2817 -0.1878,-0.51644 -0.46949,-0.51644 -0.28169,0 -0.51643,0.23474 -0.51643,0.51644 v 0.98592 c 0,0.28169 0.23474,0.51644 0.51643,0.51644 0.28169,0 0.46949,-0.23475 0.46949,-0.51644 z m 0,-3.00472 v -0.98593 c 0,-0.28169 -0.1878,-0.51644 -0.46949,-0.51644 -0.28169,0 -0.51643,0.23475 -0.51643,0.51644 v 0.98593 c 0,0.28169 0.23474,0.51643 0.51643,0.51643 0.28169,0 0.46949,-0.23474 0.46949,-0.51643 z"
       id="path819" /><path
       style="fill:none;stroke:#0000ff;stroke-width:0.751181px;stroke-linecap:round;stroke-linejoin:round;stroke-miterlimit:4;stroke-dasharray:none;stroke-opacity:1"
       d="m 138.77585,178.7428 h 21.31477"
       id="path821" /><path
       style="fill:none;stroke:#0000ff;stroke-width:0.751181px;stroke-linecap:round;stroke-linejoin:round;stroke-miterlimit:4;stroke-dasharray:none;stroke-opacity:1"
       d="m 141.59278,181.51278 -2.81693,-2.76998 2.81693,-2.76998"
       id="path823" /><path
       style="fill:none;stroke:#0000ff;stroke-width:0.751181px;stroke-linecap:round;stroke-linejoin:round;stroke-miterlimit:4;stroke-dasharray:none;stroke-opacity:1"
       d="m 157.32064,175.97282 2.76998,2.76998 -2.76998,2.76998"
       id="path825" /><text
       xml:space="preserve"
       style="font-style:normal;font-variant:normal;font-weight:400;font-size:8.25px;line-height:125%;font-family:Calibri;text-align:start;letter-spacing:0px;word-spacing:0px;text-anchor:start;fill:#000000;fill-opacity:1;stroke:none;stroke-width:0.75"
       transform="scale(1,-1)"
       x="228.86005"
       y="-145.16234"
       id="text831"><tspan
         sodipodi:role="line"
         x="228.86005"
         y="-145.16234"
         id="tspan829"
         style="stroke-width:0.75"><tspan
           dx="0"
           dy="0"
           style="font-style:normal;font-variant:normal;font-weight:400;font-size:8.25px;font-family:Calibri;fill:#0000ff;stroke-width:0.75"
           id="tspan827">T</tspan></tspan></text><text
       xml:space="preserve"
       style="font-style:normal;font-variant:normal;font-weight:400;font-size:3.75px;line-height:125%;font-family:Calibri;text-align:start;letter-spacing:0px;word-spacing:0px;text-anchor:start;fill:#000000;fill-opacity:1;stroke:none;stroke-width:0.75"
       transform="scale(1,-1)"
       x="232.76468"
       y="-145.16234"
       id="text837"><tspan
         sodipodi:role="line"
         x="232.76468"
         y="-145.16234"
         id="tspan835"
         style="stroke-width:0.75"><tspan
           dx="0"
           dy="0"
           style="font-style:normal;font-variant:normal;font-weight:400;font-size:3.75px;font-family:Calibri;fill:#0000ff;stroke-width:0.75"
           id="tspan833">h</tspan></tspan></text><path
       style="fill:#0000ff;fill-opacity:1;fill-rule:nonzero;stroke:#0000ff;stroke-width:0.0469488px;stroke-linecap:butt;stroke-linejoin:round;stroke-miterlimit:4;stroke-dasharray:none;stroke-opacity:1"
       d="m 210.70145,156.06652 v -1.03288 c 0,-0.28169 -0.1878,-0.46948 -0.46949,-0.46948 -0.2817,0 -0.51644,0.18779 -0.51644,0.46948 v 1.03288 c 0,0.23474 0.23474,0.46949 0.51644,0.46949 0.28169,0 0.46949,-0.23475 0.46949,-0.46949 z m 0,-3.00473 v -1.03287 c 0,-0.28169 -0.1878,-0.46949 -0.46949,-0.46949 -0.2817,0 -0.51644,0.1878 -0.51644,0.46949 v 1.03287 c 0,0.23475 0.23474,0.46949 0.51644,0.46949 0.28169,0 0.46949,-0.23474 0.46949,-0.46949 z m 0,-3.00472 v -1.03288 c 0,-0.28169 -0.1878,-0.46948 -0.46949,-0.46948 -0.2817,0 -0.51644,0.18779 -0.51644,0.46948 v 1.03288 c 0,0.23474 0.23474,0.46949 0.51644,0.46949 0.28169,0 0.46949,-0.23475 0.46949,-0.46949 z m 0,-3.00473 v -1.03287 c 0,-0.28169 -0.1878,-0.46949 -0.46949,-0.46949 -0.2817,0 -0.51644,0.1878 -0.51644,0.46949 v 1.03287 c 0,0.23475 0.23474,0.46949 0.51644,0.46949 0.28169,0 0.46949,-0.23474 0.46949,-0.46949 z m 0,-3.00472 v -1.03287 c 0,-0.2817 -0.1878,-0.46949 -0.46949,-0.46949 -0.2817,0 -0.51644,0.18779 -0.51644,0.46949 v 1.03287 c 0,0.23474 0.23474,0.46949 0.51644,0.46949 0.28169,0 0.46949,-0.23475 0.46949,-0.46949 z m 0,-3.00472 v -1.03288 c 0,-0.28169 -0.1878,-0.46949 -0.46949,-0.46949 -0.2817,0 -0.51644,0.1878 -0.51644,0.46949 v 1.03288 c 0,0.23474 0.23474,0.46948 0.51644,0.46948 0.28169,0 0.46949,-0.23474 0.46949,-0.46948 z m 0,-3.00473 v -1.03288 c 0,-0.28169 -0.1878,-0.46948 -0.46949,-0.46948 -0.2817,0 -0.51644,0.18779 -0.51644,0.46948 v 1.03288 c 0,0.23474 0.23474,0.46949 0.51644,0.46949 0.28169,0 0.46949,-0.23475 0.46949,-0.46949 z m 0,-3.00472 v -1.03287 c 0,-0.2817 -0.1878,-0.4695 -0.46949,-0.4695 -0.2817,0 -0.51644,0.1878 -0.51644,0.4695 v 1.03287 c 0,0.23474 0.23474,0.46948 0.51644,0.46948 0.28169,0 0.46949,-0.23474 0.46949,-0.46948 z m 0,-3.00473 v -1.03287 c 0,-0.28169 -0.1878,-0.46949 -0.46949,-0.46949 -0.2817,0 -0.51644,0.1878 -0.51644,0.46949 v 1.03287 c 0,0.23474 0.23474,0.46949 0.51644,0.46949 0.28169,0 0.46949,-0.23475 0.46949,-0.46949 z m 0,-3.00472 v -1.03287 c 0,-0.2817 -0.1878,-0.4695 -0.46949,-0.4695 -0.2817,0 -0.51644,0.1878 -0.51644,0.4695 v 1.03287 c 0,0.23474 0.23474,0.46949 0.51644,0.46949 0.28169,0 0.46949,-0.23475 0.46949,-0.46949 z m 0,-3.00473 v -1.03287 c 0,-0.28169 -0.1878,-0.46949 -0.46949,-0.46949 -0.2817,0 -0.51644,0.1878 -0.51644,0.46949 v 1.03287 c 0,0.23475 0.23474,0.46949 0.51644,0.46949 0.28169,0 0.46949,-0.23474 0.46949,-0.46949 z m 0,-3.00472 v -1.03287 c 0,-0.2817 -0.1878,-0.4695 -0.46949,-0.4695 -0.2817,0 -0.51644,0.1878 -0.51644,0.4695 v 1.03287 c 0,0.23475 0.23474,0.46949 0.51644,0.46949 0.28169,0 0.46949,-0.23474 0.46949,-0.46949 z"
       id="path839" /><path
       style="fill:#0000ff;fill-opacity:1;fill-rule:nonzero;stroke:#0000ff;stroke-width:0.0469488px;stroke-linecap:butt;stroke-linejoin:round;stroke-miterlimit:4;stroke-dasharray:none;stroke-opacity:1"
       d="m 238.68294,148.9303 v -0.98593 c 0,-0.28169 -0.23474,-0.51643 -0.51643,-0.51643 -0.28169,0 -0.51644,0.23474 -0.51644,0.51643 v 0.98593 c 0,0.28169 0.23475,0.51643 0.51644,0.51643 0.28169,0 0.51643,-0.23474 0.51643,-0.51643 z m 0,-3.00473 v -0.98592 c 0,-0.28169 -0.23474,-0.51644 -0.51643,-0.51644 -0.28169,0 -0.51644,0.23475 -0.51644,0.51644 v 0.98592 c 0,0.2817 0.23475,0.51644 0.51644,0.51644 0.28169,0 0.51643,-0.23474 0.51643,-0.51644 z m 0,-3.00472 v -0.98593 c 0,-0.28169 -0.23474,-0.51643 -0.51643,-0.51643 -0.28169,0 -0.51644,0.23474 -0.51644,0.51643 v 0.98593 c 0,0.28169 0.23475,0.51644 0.51644,0.51644 0.28169,0 0.51643,-0.23475 0.51643,-0.51644 z m 0,-3.00472 v -0.98593 c 0,-0.28169 -0.23474,-0.51644 -0.51643,-0.51644 -0.28169,0 -0.51644,0.23475 -0.51644,0.51644 v 0.98593 c 0,0.28169 0.23475,0.51643 0.51644,0.51643 0.28169,0 0.51643,-0.23474 0.51643,-0.51643 z m 0,-3.00473 v -0.98593 c 0,-0.28169 -0.23474,-0.51643 -0.51643,-0.51643 -0.28169,0 -0.51644,0.23474 -0.51644,0.51643 v 0.98593 c 0,0.28169 0.23475,0.51644 0.51644,0.51644 0.28169,0 0.51643,-0.23475 0.51643,-0.51644 z m 0,-3.00472 v -0.98593 c 0,-0.28169 -0.23474,-0.51644 -0.51643,-0.51644 -0.28169,0 -0.51644,0.23475 -0.51644,0.51644 v 0.98593 c 0,0.28169 0.23475,0.51643 0.51644,0.51643 0.28169,0 0.51643,-0.23474 0.51643,-0.51643 z m 0,-3.00473 v -0.98593 c 0,-0.28169 -0.23474,-0.51643 -0.51643,-0.51643 -0.28169,0 -0.51644,0.23474 -0.51644,0.51643 v 0.98593 c 0,0.28169 0.23475,0.51644 0.51644,0.51644 0.28169,0 0.51643,-0.23475 0.51643,-0.51644 z m 0,-3.00472 v -0.98593 c 0,-0.28169 -0.23474,-0.51644 -0.51643,-0.51644 -0.28169,0 -0.51644,0.23475 -0.51644,0.51644 v 0.98593 c 0,0.28169 0.23475,0.51643 0.51644,0.51643 0.28169,0 0.51643,-0.23474 0.51643,-0.51643 z m 0,-3.00473 v -0.98593 c 0,-0.28169 -0.23474,-0.51643 -0.51643,-0.51643 -0.28169,0 -0.51644,0.23474 -0.51644,0.51643 v 0.98593 c 0,0.28169 0.23475,0.51644 0.51644,0.51644 0.28169,0 0.51643,-0.23475 0.51643,-0.51644 z m 0,-3.00472 v -0.98593 c 0,-0.28169 -0.23474,-0.51644 -0.51643,-0.51644 -0.28169,0 -0.51644,0.23475 -0.51644,0.51644 v 0.98593 c 0,0.28169 0.23475,0.51643 0.51644,0.51643 0.28169,0 0.51643,-0.23474 0.51643,-0.51643 z"
       id="path841" /><path
       style="fill:none;stroke:#0000ff;stroke-width:0.751181px;stroke-linecap:round;stroke-linejoin:round;stroke-miterlimit:4;stroke-dasharray:none;stroke-opacity:1"
       d="m 210.23196,150.9491 13.756,0.18779"
       id="path843" /><path
       style="fill:none;stroke:#0000ff;stroke-width:0.751181px;stroke-linecap:round;stroke-linejoin:round;stroke-miterlimit:4;stroke-dasharray:none;stroke-opacity:1"
       d="m 212.95499,153.76603 -2.72303,-2.81693 2.81693,-2.72303"
       id="path845" /><path
       style="fill:none;stroke:#0000ff;stroke-width:0.751181px;stroke-linecap:round;stroke-linejoin:round;stroke-miterlimit:4;stroke-dasharray:none;stroke-opacity:1"
       d="m 221.26493,148.31996 2.72303,2.81693 -2.81692,2.72303"
       id="path847" /><path
       style="fill:none;stroke:#0000ff;stroke-width:0.751181px;stroke-linecap:round;stroke-linejoin:round;stroke-miterlimit:4;stroke-dasharray:none;stroke-opacity:1"
       d="m 224.4105,144.7049 h 13.75601"
       id="path849" /><path
       style="fill:none;stroke:#0000ff;stroke-width:0.751181px;stroke-linecap:round;stroke-linejoin:round;stroke-miterlimit:4;stroke-dasharray:none;stroke-opacity:1"
       d="m 227.18049,147.47488 -2.76999,-2.76998 2.76999,-2.76998"
       id="path851" /><path
       style="fill:none;stroke:#0000ff;stroke-width:0.751181px;stroke-linecap:round;stroke-linejoin:round;stroke-miterlimit:4;stroke-dasharray:none;stroke-opacity:1"
       d="m 235.39653,141.93492 2.76998,2.76998 -2.76998,2.76998"
       id="path853" /><text
       xml:space="preserve"
       style="font-style:normal;font-variant:normal;font-weight:400;font-size:8.25px;line-height:125%;font-family:Calibri;text-align:start;letter-spacing:0px;word-spacing:0px;text-anchor:start;fill:#000000;fill-opacity:1;stroke:none;stroke-width:0.75"
       transform="scale(1,-1)"
       x="119.54485"
       y="-208.82921"
       id="text859"><tspan
         sodipodi:role="line"
         x="119.54485"
         y="-208.82921"
         id="tspan857"
         style="stroke-width:0.75"><tspan
           dx="0"
           dy="0"
           style="font-style:normal;font-variant:normal;font-weight:400;font-size:8.25px;font-family:Calibri;fill:#0000ff;stroke-width:0.75"
           id="tspan855">T</tspan></tspan></text><text
       xml:space="preserve"
       style="font-style:normal;font-variant:normal;font-weight:400;font-size:6px;line-height:125%;font-family:Calibri;text-align:start;letter-spacing:0px;word-spacing:0px;text-anchor:start;fill:#000000;fill-opacity:1;stroke:none;stroke-width:0.75"
       transform="scale(1,-1)"
       x="123.44948"
       y="-208.82921"
       id="text865"><tspan
         sodipodi:role="line"
         x="123.44948"
         y="-208.82921"
         id="tspan863"
         style="stroke-width:0.75"><tspan
           dx="0"
           dy="0"
           style="font-style:normal;font-variant:normal;font-weight:400;font-size:6px;font-family:Calibri;fill:#0000ff;stroke-width:0.75"
           id="tspan861">cyc</tspan></tspan></text></g></svg>
