<?xml version="1.0" encoding="UTF-8" standalone="no"?>
<svg
   xmlns:dc="http://purl.org/dc/elements/1.1/"
   xmlns:cc="http://creativecommons.org/ns#"
   xmlns:rdf="http://www.w3.org/1999/02/22-rdf-syntax-ns#"
   xmlns:svg="http://www.w3.org/2000/svg"
   xmlns="http://www.w3.org/2000/svg"
   xmlns:sodipodi="http://sodipodi.sourceforge.net/DTD/sodipodi-0.dtd"
   xmlns:inkscape="http://www.inkscape.org/namespaces/inkscape"
   version="1.1"
   id="svg2"
   xml:space="preserve"
   width="688.88"
   height="255.30667"
   viewBox="0 0 688.88 255.30667"
   sodipodi:docname="WatchdogBlock_common.svg"
   inkscape:version="1.0.1 (3bc2e813f5, 2020-09-07)"><metadata
     id="metadata8"><rdf:RDF><cc:Work
         rdf:about=""><dc:format>image/svg+xml</dc:format><dc:type
           rdf:resource="http://purl.org/dc/dcmitype/StillImage" /><dc:title></dc:title></cc:Work></rdf:RDF></metadata><defs
     id="defs6" /><sodipodi:namedview
     pagecolor="#ffffff"
     bordercolor="#666666"
     borderopacity="1"
     objecttolerance="10"
     gridtolerance="10"
     guidetolerance="10"
     inkscape:pageopacity="0"
     inkscape:pageshadow="2"
     inkscape:window-width="788"
     inkscape:window-height="480"
     id="namedview4"
     showgrid="false"
     inkscape:zoom="1.5967948"
     inkscape:cx="344.44"
     inkscape:cy="127.65334"
     inkscape:window-x="0"
     inkscape:window-y="0"
     inkscape:window-maximized="0"
     inkscape:current-layer="g10" /><g
     id="g10"
     inkscape:groupmode="layer"
     inkscape:label="ink_ext_XXXXXX"
     transform="matrix(1.3333333,0,0,-1.3333333,0,255.30667)"><g
       id="g12"
       transform="scale(0.1)"><path
         d="M 3.76172,3.76172 H 5162.81 V 1911 H 3.76172 V 3.76172 v 0 0 z"
         style="fill:none;stroke:#0e0f0e;stroke-width:7.51407;stroke-linecap:round;stroke-linejoin:round;stroke-miterlimit:10;stroke-dasharray:none;stroke-opacity:1"
         id="path14" /><g
         id="g16"
         transform="scale(10)"><text
           transform="matrix(1,0,0,-0.99891119,450.082,174.489)"
           style="font-variant:normal;font-weight:normal;font-size:14.278px;font-family:'Microsoft Sans Serif';-inkscape-font-specification:MicrosoftSansSerif;writing-mode:lr-tb;fill:#0e0f0e;fill-opacity:1;fill-rule:nonzero;stroke:none"
           id="text20"><tspan
             x="0 9.0234098 17.164003 24.899343 38.420971 48.204136"
             y="0"
             sodipodi:role="line"
             id="tspan18">BL_WDT</tspan></text></g><path
         d="m 716.43,1460.61 h 312.53"
         style="fill:none;stroke:#0e0f0e;stroke-width:7.51407;stroke-linecap:round;stroke-linejoin:round;stroke-miterlimit:10;stroke-dasharray:none;stroke-opacity:1"
         id="path22" /><path
         d="m 1078.56,1460.61 -65.53,-32.73 c 10.32,20.61 10.32,44.85 0,65.46 l 65.53,-32.73 v 0 0 0"
         style="fill:#0e0f0e;fill-opacity:1;fill-rule:evenodd;stroke:none"
         id="path24" /><g
         id="g26"
         transform="scale(10)"><text
           transform="matrix(1,0,0,-0.99891119,36.2457,138.856)"
           style="font-variant:normal;font-weight:normal;font-size:15.781px;font-family:'Microsoft Sans Serif';-inkscape-font-specification:MicrosoftSansSerif;writing-mode:lr-tb;fill:#0e0f0e;fill-opacity:1;fill-rule:nonzero;stroke:none"
           id="text30"><tspan
             x="0 10.525915 21.05183"
             y="0"
             sodipodi:role="line"
             id="tspan28">APB</tspan></text></g><path
         d="m 1078.56,1201.72 h 944.38 v 517.77 h -944.38 v -517.77 0 0 z"
         style="fill:none;stroke:#0e0f0e;stroke-width:7.51407;stroke-linecap:round;stroke-linejoin:round;stroke-miterlimit:10;stroke-dasharray:none;stroke-opacity:1"
         id="path32" /><g
         id="g34"
         transform="scale(10)"><text
           transform="matrix(1,0,0,-0.99891119,138.144,141.246)"
           style="font-variant:normal;font-weight:normal;font-size:15.781px;font-family:'Microsoft Sans Serif';-inkscape-font-specification:MicrosoftSansSerif;writing-mode:lr-tb;fill:#0e0f0e;fill-opacity:1;fill-rule:nonzero;stroke:none"
           id="text42"><tspan
             x="0 11.286081 22.554661"
             y="0"
             sodipodi:role="line"
             id="tspan36">CSR</tspan><tspan
             x="312.31204 323.59811 332.61594 337.20578 346.11786 349.9216"
             y="95.353424"
             sodipodi:role="line"
             id="tspan38">wdt_ir</tspan><tspan
             x="355.31198"
             y="94.57132"
             id="tspan40">q</tspan></text></g><path
         d="M 960.137,85.332 H 4368.4 V 1081.87 H 960.137 v -996.538 0 0 z"
         style="fill:none;stroke:#0e0f0e;stroke-width:7.51407;stroke-linecap:round;stroke-linejoin:round;stroke-miterlimit:10;stroke-dasharray:none;stroke-opacity:1"
         id="path44" /><g
         id="g46"
         transform="scale(10)"><text
           transform="matrix(1,0,0,-0.99891119,318.886,89.7621)"
           style="font-variant:normal;font-weight:normal;font-size:15.781px;font-family:'Microsoft Sans Serif';-inkscape-font-specification:MicrosoftSansSerif;writing-mode:lr-tb;fill:#0e0f0e;fill-opacity:1;fill-rule:nonzero;stroke:none"
           id="text50"><tspan
             x="0 11.286106 20.305065 24.800186 33.047249 41.887074 47.219101 56.232754 65.24543 74.259087 78.024124 82.519241 86.274124 99.798538 108.82101"
             y="0"
             sodipodi:role="line"
             id="tspan48">watch-dog timer</tspan></text></g><path
         d="M 682.07,656.301 H 995.742"
         style="fill:none;stroke:#0e0f0e;stroke-width:7.51407;stroke-linecap:round;stroke-linejoin:round;stroke-miterlimit:10;stroke-dasharray:none;stroke-opacity:1"
         id="path52" /><path
         d="M 1045.34,656.301 979.809,623.57 c 10.32,20.602 10.32,44.86 0,65.461 l 65.531,-32.73 v 0 0 0"
         style="fill:#0e0f0e;fill-opacity:1;fill-rule:evenodd;stroke:none"
         id="path54" /><g
         id="g56"
         transform="scale(10)"><text
           transform="matrix(1,0,0,-0.99891119,40.0504,60.8172)"
           style="font-variant:normal;font-weight:normal;font-size:15.781px;font-family:'Microsoft Sans Serif';-inkscape-font-specification:MicrosoftSansSerif;writing-mode:lr-tb;fill:#0e0f0e;fill-opacity:1;fill-rule:nonzero;stroke:none"
           id="text60"><tspan
             x="0 4.4951148 12.749986 15.764633"
             y="0"
             sodipodi:role="line"
             id="tspan58">fclk</tspan></text></g><path
         d="m 1045.34,243.141 h 944.37 v 517.781 h -944.37 v -517.781 0 0 z"
         style="fill:none;stroke:#0e0f0e;stroke-width:7.51407;stroke-linecap:round;stroke-linejoin:round;stroke-miterlimit:10;stroke-dasharray:none;stroke-opacity:1"
         id="path62" /><g
         id="g64"
         transform="scale(10)"><text
           transform="matrix(1,0,0,-0.99891119,122.339,45.3871)"
           style="font-variant:normal;font-weight:normal;font-size:15.781px;font-family:'Microsoft Sans Serif';-inkscape-font-specification:MicrosoftSansSerif;writing-mode:lr-tb;fill:#0e0f0e;fill-opacity:1;fill-rule:nonzero;stroke:none"
           id="text68"><tspan
             x="0 8.2534065 12.016 19.685421 28.531994 42.056385 51.071037"
             y="0"
             sodipodi:role="line"
             id="tspan66">clk_mux</tspan></text></g><path
         d="m 2145.93,243.141 h 944.38 v 517.781 h -944.38 v -517.781 0 0 z"
         style="fill:none;stroke:#0e0f0e;stroke-width:7.51407;stroke-linecap:round;stroke-linejoin:round;stroke-miterlimit:10;stroke-dasharray:none;stroke-opacity:1"
         id="path70" /><g
         id="g72"
         transform="scale(10)"><text
           transform="matrix(1,0,0,-0.99891119,237.246,45.3871)"
           style="font-variant:normal;font-weight:normal;font-size:15.781px;font-family:'Microsoft Sans Serif';-inkscape-font-specification:MicrosoftSansSerif;writing-mode:lr-tb;fill:#0e0f0e;fill-opacity:1;fill-rule:nonzero;stroke:none"
           id="text76"><tspan
             x="0 8.2534065 12.007016 19.676437 28.530823 37.544479 41.303848"
             y="0"
             sodipodi:role="line"
             id="tspan74">clk_div</tspan></text></g><path
         d="m 3246.52,243.141 h 944.37 v 517.781 h -944.37 v -517.781 0 0 z"
         style="fill:none;stroke:#0e0f0e;stroke-width:7.51407;stroke-linecap:round;stroke-linejoin:round;stroke-miterlimit:10;stroke-dasharray:none;stroke-opacity:1"
         id="path78" /><g
         id="g80"
         transform="scale(10)"><text
           transform="matrix(1,0,0,-0.99891119,344.277,45.3871)"
           style="font-variant:normal;font-weight:normal;font-size:15.781px;font-family:'Microsoft Sans Serif';-inkscape-font-specification:MicrosoftSansSerif;writing-mode:lr-tb;fill:#0e0f0e;fill-opacity:1;fill-rule:nonzero;stroke:none"
           id="text84"><tspan
             x="0 11.286106 20.305065 25.005264 34.027718 42.233761 51.055042"
             y="0"
             sodipodi:role="line"
             id="tspan82">wdt_cnt</tspan></text></g><path
         d="m 1989.71,502.031 h 106.62"
         style="fill:none;stroke:#0e0f0e;stroke-width:7.51407;stroke-linecap:round;stroke-linejoin:round;stroke-miterlimit:10;stroke-dasharray:none;stroke-opacity:1"
         id="path86" /><path
         d="m 2145.93,502.031 -65.53,-32.73 c 10.32,20.597 10.32,44.859 0,65.449 l 65.53,-32.719 v 0 0 0"
         style="fill:#0e0f0e;fill-opacity:1;fill-rule:evenodd;stroke:none"
         id="path88" /><path
         d="m 3090.31,502.031 h 106.61"
         style="fill:none;stroke:#0e0f0e;stroke-width:7.51407;stroke-linecap:round;stroke-linejoin:round;stroke-miterlimit:10;stroke-dasharray:none;stroke-opacity:1"
         id="path90" /><path
         d="m 3246.52,502.031 -65.53,-32.73 c 10.31,20.597 10.31,44.859 0,65.449 l 65.53,-32.719 v 0 0 0"
         style="fill:#0e0f0e;fill-opacity:1;fill-rule:evenodd;stroke:none"
         id="path92" /><g
         id="g94"
         transform="scale(10)"><text
           transform="matrix(1,0,0,-0.99891119,14.277,45.3871)"
           style="font-variant:normal;font-weight:normal;font-size:15.781px;font-family:'Microsoft Sans Serif';-inkscape-font-specification:MicrosoftSansSerif;writing-mode:lr-tb;fill:#0e0f0e;fill-opacity:1;fill-rule:nonzero;stroke:none"
           id="text100"><tspan
             x="0 8.2534113 12.749987 21.021456 25.039034"
             y="0"
             sodipodi:role="line"
             id="tspan96">xtal_</tspan><tspan
             x="-3.2499986 1.1977468 10.218736 19.042944 27.054653"
             y="19.02071"
             sodipodi:role="line"
             id="tspan98">f32k_</tspan></text></g><path
         d="M 682.07,502.031 H 995.742"
         style="fill:none;stroke:#0e0f0e;stroke-width:7.51407;stroke-linecap:round;stroke-linejoin:round;stroke-miterlimit:10;stroke-dasharray:none;stroke-opacity:1"
         id="path102" /><path
         d="m 1045.34,502.031 -65.531,-32.73 c 10.32,20.597 10.32,44.859 0,65.449 l 65.531,-32.719 v 0 0 0"
         style="fill:#0e0f0e;fill-opacity:1;fill-rule:evenodd;stroke:none"
         id="path104" /><path
         d="M 682.07,315.852 H 995.742"
         style="fill:none;stroke:#0e0f0e;stroke-width:7.51407;stroke-linecap:round;stroke-linejoin:round;stroke-miterlimit:10;stroke-dasharray:none;stroke-opacity:1"
         id="path106" /><path
         d="m 1045.34,315.852 -65.531,-32.743 c 10.32,20.61 10.32,44.86 0,65.461 l 65.531,-32.718 v 0 0 0"
         style="fill:#0e0f0e;fill-opacity:1;fill-rule:evenodd;stroke:none"
         id="path108" /><path
         d="M 4190.89,502.031 H 4434.9"
         style="fill:none;stroke:#0e0f0e;stroke-width:7.51407;stroke-linecap:round;stroke-linejoin:round;stroke-miterlimit:10;stroke-dasharray:none;stroke-opacity:1"
         id="path110" /><path
         d="m 4484.49,502.031 -65.53,-32.73 c 10.32,20.597 10.32,44.859 0,65.449 l 65.53,-32.719 v 0 0 0"
         style="fill:#0e0f0e;fill-opacity:1;fill-rule:evenodd;stroke:none"
         id="path112" /><g
         id="g114"
         transform="scale(10)"><text
           transform="matrix(1,0,0,-0.99891119,48.0035,45.4891)"
           style="font-variant:normal;font-weight:normal;font-size:15.781px;font-family:'Microsoft Sans Serif';-inkscape-font-specification:MicrosoftSansSerif;writing-mode:lr-tb;fill:#0e0f0e;fill-opacity:1;fill-rule:nonzero;stroke:none"
           id="text120"><tspan
             x="0 8.2534113 11.265615"
             y="0"
             sodipodi:role="line"
             id="tspan116">clk</tspan><tspan
             x="1.2500011 9.5034122 12.515616"
             y="20.021799"
             sodipodi:role="line"
             id="tspan118">clk</tspan></text></g></g></g></svg>
