<?xml version="1.0" encoding="UTF-8" standalone="no"?>
<svg
   xmlns:dc="http://purl.org/dc/elements/1.1/"
   xmlns:cc="http://creativecommons.org/ns#"
   xmlns:rdf="http://www.w3.org/1999/02/22-rdf-syntax-ns#"
   xmlns:svg="http://www.w3.org/2000/svg"
   xmlns="http://www.w3.org/2000/svg"
   xmlns:sodipodi="http://sodipodi.sourceforge.net/DTD/sodipodi-0.dtd"
   xmlns:inkscape="http://www.inkscape.org/namespaces/inkscape"
   version="1.1"
   id="svg2"
   xml:space="preserve"
   width="598.16748"
   height="91.668549"
   viewBox="0 0 598.16748 91.668548"
   sodipodi:docname="UARTData_common.svg"
   inkscape:version="1.0.1 (3bc2e813f5, 2020-09-07)"><metadata
     id="metadata8"><rdf:RDF><cc:Work
         rdf:about=""><dc:format>image/svg+xml</dc:format><dc:type
           rdf:resource="http://purl.org/dc/dcmitype/StillImage" /><dc:title></dc:title></cc:Work></rdf:RDF></metadata><defs
     id="defs6" /><sodipodi:namedview
     pagecolor="#ffffff"
     bordercolor="#666666"
     borderopacity="1"
     objecttolerance="10"
     gridtolerance="10"
     guidetolerance="10"
     inkscape:pageopacity="0"
     inkscape:pageshadow="2"
     inkscape:window-width="1920"
     inkscape:window-height="1017"
     id="namedview4"
     showgrid="false"
     inkscape:zoom="1.8389318"
     inkscape:cx="299.08657"
     inkscape:cy="111.09007"
     inkscape:window-x="-8"
     inkscape:window-y="-8"
     inkscape:window-maximized="1"
     inkscape:current-layer="g10" /><g
     id="g10"
     inkscape:groupmode="layer"
     inkscape:label="ink_ext_XXXXXX"
     transform="matrix(1.3333333,0,0,-1.3333333,-1.0332856e-4,91.668136)"><g
       id="g12"
       transform="scale(0.1)"><g
         id="g14"
         transform="scale(10)"><text
           transform="matrix(1,0,0,-1,6.37305,55.6527)"
           style="font-variant:normal;font-weight:normal;font-size:9px;font-family:Arial;-inkscape-font-specification:ArialMT;writing-mode:lr-tb;fill:#000000;fill-opacity:1;fill-rule:nonzero;stroke:none"
           id="text18"><tspan
             x="0 5.0040002 10.008 12.006 14.508 17.01 23.013 25.011 30.014999 35.019001 37.016998 42.021 44.522999 49.527 54.530998 57.033001 62.036999 64.539001 66.537003 71.541 76.544998 81.549004 84.051003 89.055 91.556999 96.813004 99.315002 106.317 111.321 116.325 118.827 123.831 128.83501 131.832 133.83 136.332"
             y="0"
             sodipodi:role="line"
             id="tspan16">8bit Single data length + Odd parity</tspan></text></g><path
         d="m 606.004,203.754 h 147.32 m -294.64,200 h 22.101 l 44.195,-200 h 81.024 m -294.633,200 h 147.313 m -294.629,0 h 147.316"
         style="fill:none;stroke:#0e0f0e;stroke-width:10;stroke-linecap:round;stroke-linejoin:miter;stroke-miterlimit:4;stroke-dasharray:none;stroke-opacity:1"
         id="path20" /><path
         d="m 823.129,406.359 h 110 v -200 h -170 l 60,200 v 0"
         style="fill:#ffffff;fill-opacity:1;fill-rule:nonzero;stroke:none"
         id="path22" /><path
         d="m 748.129,206.359 h 200 m -170,0 60,200 h 110"
         style="fill:none;stroke:#0e0f0e;stroke-width:10;stroke-linecap:round;stroke-linejoin:miter;stroke-miterlimit:4;stroke-dasharray:none;stroke-opacity:1"
         id="path24" /><path
         d="m 943.129,406.359 h 126.381 m -126.381,-200 h 126.381"
         style="fill:none;stroke:#0e0f0e;stroke-width:10;stroke-linecap:round;stroke-linejoin:miter;stroke-miterlimit:4;stroke-dasharray:none;stroke-opacity:1"
         id="path26" /><path
         d="m 1223.13,406.359 h 110 v -200 h -110 l -30,100 30,100 v 0"
         style="fill:#ffffff;fill-opacity:1;fill-rule:nonzero;stroke:none"
         id="path28" /><path
         d="m 1113.13,406.359 h -30 v -200 h 30 l 30,100 -30,100 v 0"
         style="fill:#ffffff;fill-opacity:1;fill-rule:nonzero;stroke:none"
         id="path30" /><path
         d="m 1073.13,206.359 h 30 l 60,200 h 110 m -200,0 h 30 l 60,-200 h 110"
         style="fill:none;stroke:#0e0f0e;stroke-width:10;stroke-linecap:round;stroke-linejoin:miter;stroke-miterlimit:4;stroke-dasharray:none;stroke-opacity:1"
         id="path32" /><path
         d="m 1333.13,206.359 h 200 v 200 h -200 z"
         style="fill:#ffffff;fill-opacity:1;fill-rule:nonzero;stroke:none"
         id="path34" /><path
         d="m 1233.13,406.359 h 200 m -200,-200 h 200"
         style="fill:none;stroke:#0e0f0e;stroke-width:10;stroke-linecap:round;stroke-linejoin:miter;stroke-miterlimit:4;stroke-dasharray:none;stroke-opacity:1"
         id="path36" /><path
         d="m 1623.13,406.359 h 110 v -200 h -110 l -30,100 30,100 v 0"
         style="fill:#ffffff;fill-opacity:1;fill-rule:nonzero;stroke:none"
         id="path38" /><path
         d="m 1493.13,406.359 h -30 v -200 h 30 l 30,100 -30,100 v 0"
         style="fill:#ffffff;fill-opacity:1;fill-rule:nonzero;stroke:none"
         id="path40" /><path
         d="m 1423.13,206.359 h 30 l 60,200 h 110 m -200,0 h 30 l 60,-200 h 110"
         style="fill:none;stroke:#0e0f0e;stroke-width:10;stroke-linecap:round;stroke-linejoin:miter;stroke-miterlimit:4;stroke-dasharray:none;stroke-opacity:1"
         id="path42" /><path
         d="m 1733.13,206.359 h 199.992 v 200 H 1733.13 Z"
         style="fill:#ffffff;fill-opacity:1;fill-rule:nonzero;stroke:none"
         id="path44" /><path
         d="m 1613.13,406.359 h 146.38 m -146.38,-200 h 146.38"
         style="fill:none;stroke:#0e0f0e;stroke-width:10;stroke-linecap:round;stroke-linejoin:miter;stroke-miterlimit:4;stroke-dasharray:none;stroke-opacity:1"
         id="path46" /><path
         d="m 2023.12,406.359 h 110 v -200 h -110 l -30,100 30,100 v 0"
         style="fill:#ffffff;fill-opacity:1;fill-rule:nonzero;stroke:none"
         id="path48" /><path
         d="m 1963.12,406.359 h -30 v -200 h 30 l 30,100 -30,100 v 0"
         style="fill:#ffffff;fill-opacity:1;fill-rule:nonzero;stroke:none"
         id="path50" /><path
         d="m 1763.13,206.359 h 30 l 59.99,200 h 110 m -199.99,0 h 30 l 59.99,-200 h 110"
         style="fill:none;stroke:#0e0f0e;stroke-width:10;stroke-linecap:round;stroke-linejoin:miter;stroke-miterlimit:4;stroke-dasharray:none;stroke-opacity:1"
         id="path52" /><path
         d="m 2133.12,206.359 h 200 v 200 h -200 z"
         style="fill:#ffffff;fill-opacity:1;fill-rule:nonzero;stroke:none"
         id="path54" /><path
         d="m 1903.12,406.359 h 200 m -200,-200 h 200"
         style="fill:none;stroke:#0e0f0e;stroke-width:10;stroke-linecap:round;stroke-linejoin:miter;stroke-miterlimit:4;stroke-dasharray:none;stroke-opacity:1"
         id="path56" /><path
         d="m 2423.12,406.359 h 110 v -200 h -110 l -30,100 30,100 v 0"
         style="fill:#ffffff;fill-opacity:1;fill-rule:nonzero;stroke:none"
         id="path58" /><path
         d="m 2363.12,406.359 h -30 v -200 h 30 l 30,100 -30,100 v 0"
         style="fill:#ffffff;fill-opacity:1;fill-rule:nonzero;stroke:none"
         id="path60" /><path
         d="m 2083.12,206.359 h 30 l 60,200 h 110 m -200,0 h 30 l 60,-200 h 110"
         style="fill:none;stroke:#0e0f0e;stroke-width:10;stroke-linecap:round;stroke-linejoin:miter;stroke-miterlimit:4;stroke-dasharray:none;stroke-opacity:1"
         id="path62" /><path
         d="m 2283.12,206.359 h 100 v 200 h -100 z"
         style="fill:#ffffff;fill-opacity:1;fill-rule:nonzero;stroke:none"
         id="path64" /><path
         d="m 2223.12,406.359 h 200 m -200,-200 h 200"
         style="fill:none;stroke:#0e0f0e;stroke-width:10;stroke-linecap:round;stroke-linejoin:miter;stroke-miterlimit:4;stroke-dasharray:none;stroke-opacity:1"
         id="path66" /><path
         d="m 2823.12,406.359 h 110 v -200 h -110 l -30,100 30,100 v 0"
         style="fill:#ffffff;fill-opacity:1;fill-rule:nonzero;stroke:none"
         id="path68" /><path
         d="m 2763.12,406.359 h -30 v -200 h 30 l 30,100 -30,100 v 0"
         style="fill:#ffffff;fill-opacity:1;fill-rule:nonzero;stroke:none"
         id="path70" /><path
         d="m 2413.12,206.359 h 30 l 60,200 h 110 m -200,0 h 30 l 60,-200 h 110"
         style="fill:none;stroke:#0e0f0e;stroke-width:10;stroke-linecap:round;stroke-linejoin:miter;stroke-miterlimit:4;stroke-dasharray:none;stroke-opacity:1"
         id="path72" /><path
         d="m 2933.12,206.359 h 200 v 200 h -200 z"
         style="fill:#ffffff;fill-opacity:1;fill-rule:nonzero;stroke:none"
         id="path74" /><path
         d="m 2563.12,406.359 h 166.39 m -166.39,-200 h 166.39"
         style="fill:none;stroke:#0e0f0e;stroke-width:10;stroke-linecap:round;stroke-linejoin:miter;stroke-miterlimit:4;stroke-dasharray:none;stroke-opacity:1"
         id="path76" /><path
         d="m 3513.12,406.359 h 110 v -200 h -110 l -30,100 30,100 v 0"
         style="fill:#ffffff;fill-opacity:1;fill-rule:nonzero;stroke:none"
         id="path78" /><path
         d="m 3163.12,406.359 h -30 v -200 h 30 l 30,100 -30,100 v 0"
         style="fill:#ffffff;fill-opacity:1;fill-rule:nonzero;stroke:none"
         id="path80" /><path
         d="m 2723.12,206.359 h 30 l 60,200 h 110 m -200,0 h 30 l 60,-200 h 110"
         style="fill:none;stroke:#0e0f0e;stroke-width:10;stroke-linecap:round;stroke-linejoin:miter;stroke-miterlimit:4;stroke-dasharray:none;stroke-opacity:1"
         id="path82" /><path
         d="m 3623.12,206.359 h 200 v 200 h -200 z"
         style="fill:#ffffff;fill-opacity:1;fill-rule:nonzero;stroke:none"
         id="path84" /><path
         d="m 2863.12,406.359 h 139.72 m -139.72,-200 h 139.72"
         style="fill:none;stroke:#0e0f0e;stroke-width:10;stroke-linecap:round;stroke-linejoin:miter;stroke-miterlimit:4;stroke-dasharray:none;stroke-opacity:1"
         id="path86" /><path
         d="m 3823.12,406.359 v -200 h 30 l 60,200"
         style="fill:#ffffff;fill-opacity:1;fill-rule:nonzero;stroke:none"
         id="path88" /><path
         d="m 3823.12,406.359 h 67.5 m -135,0 h 67.5 m -135,0 h 67.5 m -135,-200 h 10.13 l 20.25,200 m -30.38,0 h 67.5"
         style="fill:none;stroke:#0e0f0e;stroke-width:10;stroke-linecap:round;stroke-linejoin:miter;stroke-miterlimit:4;stroke-dasharray:none;stroke-opacity:1"
         id="path90" /><g
         id="g92"
         transform="scale(10)"><text
           transform="matrix(1,0,0,-1,86.9148,25.6363)"
           style="font-variant:normal;font-weight:normal;font-size:9px;font-family:Arial;-inkscape-font-specification:ArialMT;writing-mode:lr-tb;fill:#0e0f0e;fill-opacity:1;fill-rule:nonzero;stroke:none"
           id="text96"><tspan
             x="0 5.0040002 7.0019999 9.5039997 12.006 36.999989 42.00399 44.001991 46.50399 49.005989 70.000023 75.004021 77.002022 79.504021 82.00602"
             y="0"
             sodipodi:role="line"
             id="tspan94">bit 0bit 1bit 2</tspan></text></g><path
         d="M 3.75781,3.75391 H 4482.5 V 683.754 H 3.75781 V 3.75391 Z"
         style="fill:none;stroke:#100f0f;stroke-width:7.51407;stroke-linecap:round;stroke-linejoin:round;stroke-miterlimit:10;stroke-dasharray:none;stroke-opacity:1"
         id="path98" /><g
         id="g100"
         transform="scale(10)"><text
           transform="matrix(1,0,0,-1,405.434,26.6363)"
           style="font-variant:normal;font-weight:normal;font-size:9px;font-family:Arial;-inkscape-font-specification:ArialMT;writing-mode:lr-tb;fill:#0e0f0e;fill-opacity:1;fill-rule:nonzero;stroke:none"
           id="text104"><tspan
             x="0 6.0029998 8.5050001 13.509 16.506001 -350.19901 -344.19601 -341.694 -336.69 -333.69299"
             y="0"
             sodipodi:role="line"
             id="tspan102">StartStart</tspan></text></g><path
         d="m 2993.12,206.359 h 30 l 60,200 h 110 m -200,0 h 30 l 60,-200 h 110"
         style="fill:none;stroke:#0e0f0e;stroke-width:10;stroke-linecap:round;stroke-linejoin:miter;stroke-miterlimit:4;stroke-dasharray:none;stroke-opacity:1"
         id="path106" /><g
         id="g108"
         transform="scale(10)"><text
           transform="matrix(1,0,0,-1,341.313,25.6363)"
           style="font-variant:normal;font-weight:normal;font-size:9px;font-family:Arial;-inkscape-font-specification:ArialMT;writing-mode:lr-tb;fill:#0e0f0e;fill-opacity:1;fill-rule:nonzero;stroke:none"
           id="text112"><tspan
             x="0 5.0040002 10.008"
             y="0"
             sodipodi:role="line"
             id="tspan110">odd</tspan></text></g><path
         d="m 3436.75,406.359 h 186.37 m -186.37,-200 h 186.37"
         style="fill:none;stroke:#0e0f0e;stroke-width:10;stroke-linecap:round;stroke-linejoin:miter;stroke-miterlimit:4;stroke-dasharray:none;stroke-opacity:1"
         id="path114" /><g
         id="g116"
         transform="scale(10)"><text
           transform="matrix(1,0,0,-1,372.313,26.6363)"
           style="font-variant:normal;font-weight:normal;font-size:9px;font-family:Arial;-inkscape-font-specification:ArialMT;writing-mode:lr-tb;fill:#0e0f0e;fill-opacity:1;fill-rule:nonzero;stroke:none"
           id="text120"><tspan
             x="0 6.0029998 8.5050001 13.509"
             y="0"
             sodipodi:role="line"
             id="tspan118">Stop</tspan></text></g><path
         d="m 4103.13,206.359 h 135 m -270.01,200 h 20.26 l 40.5,-200 h 74.25 m -270,200 h 134.99 m -270,0 h 135.01"
         style="fill:none;stroke:#0e0f0e;stroke-width:10;stroke-linecap:round;stroke-linejoin:miter;stroke-miterlimit:4;stroke-dasharray:none;stroke-opacity:1"
         id="path122" /><path
         d="m 3276.87,206.359 h 30 l 60,200 h 110 m -200,0 h 30 l 60,-200 h 110"
         style="fill:none;stroke:#0e0f0e;stroke-width:10;stroke-linecap:round;stroke-linejoin:miter;stroke-miterlimit:4;stroke-dasharray:none;stroke-opacity:1"
         id="path124" /><path
         d="m 3133.41,406.359 h 139.71 m -139.71,-200 h 139.71"
         style="fill:none;stroke:#0e0f0e;stroke-width:10;stroke-linecap:round;stroke-linejoin:miter;stroke-miterlimit:4;stroke-dasharray:none;stroke-opacity:1"
         id="path126" /><path
         d="m 4258.13,206.359 60,200 h 110"
         style="fill:none;stroke:#0e0f0e;stroke-width:10;stroke-linecap:round;stroke-linejoin:miter;stroke-miterlimit:4;stroke-dasharray:none;stroke-opacity:1"
         id="path128" /><path
         d="m 4228.13,206.359 c 10.42,0 20.85,0 31.27,0"
         style="fill:none;stroke:#0e0f0e;stroke-width:10;stroke-linecap:round;stroke-linejoin:miter;stroke-miterlimit:4;stroke-dasharray:none;stroke-opacity:1"
         id="path130" /><g
         id="g132"
         transform="scale(10)"><text
           transform="matrix(1,0,0,-1,311.313,25.6367)"
           style="font-variant:normal;font-weight:normal;font-size:9px;font-family:Arial;-inkscape-font-specification:ArialMT;writing-mode:lr-tb;fill:#0e0f0e;fill-opacity:1;fill-rule:nonzero;stroke:none"
           id="text138"><tspan
             x="0 5.0040002 7.0019999 9.5039997 12.006 -28 -22.996 -20.997999 -18.496 -15.994 -58 -52.995998 -50.998001 -48.495998 -45.993999"
             y="0"
             sodipodi:role="line"
             id="tspan134">bit 7bit 6bit 5</tspan><tspan
             x="-87 -81.996002 -79.998001 -77.496002 -74.994003 -118 -112.996 -110.998 -108.496 -105.994"
             y="-1"
             sodipodi:role="line"
             id="tspan136">bit 4bit 3</tspan></text></g></g></g></svg>
