<?xml version="1.0" encoding="UTF-8" standalone="no"?>
<svg
   xmlns:dc="http://purl.org/dc/elements/1.1/"
   xmlns:cc="http://creativecommons.org/ns#"
   xmlns:rdf="http://www.w3.org/1999/02/22-rdf-syntax-ns#"
   xmlns:svg="http://www.w3.org/2000/svg"
   xmlns="http://www.w3.org/2000/svg"
   xmlns:sodipodi="http://sodipodi.sourceforge.net/DTD/sodipodi-0.dtd"
   xmlns:inkscape="http://www.inkscape.org/namespaces/inkscape"
   width="184.86871mm"
   height="76.928253mm"
   viewBox="0 0 184.86871 76.928253"
   version="1.1"
   id="svg8"
   inkscape:version="1.0.1 (3bc2e813f5, 2020-09-07)"
   sodipodi:docname="DSILPM2HSCM_common.svg"
   inkscape:export-filename="C:\wu\git\bl808_docs\bl808doc_rm\picture\DSILPM2HSCM_common.png"
   inkscape:export-xdpi="96"
   inkscape:export-ydpi="96">
  <defs
     id="defs2">
    <marker
       style="overflow:visible"
       id="Arrow1Lstart"
       refX="0"
       refY="0"
       orient="auto"
       inkscape:stockid="Arrow1Lstart"
       inkscape:isstock="true">
      <path
         transform="matrix(0.8,0,0,0.8,10,0)"
         style="fill:#000000;fill-opacity:1;fill-rule:evenodd;stroke:#000000;stroke-width:1pt;stroke-opacity:1"
         d="M 0,0 5,-5 -12.5,0 5,5 Z"
         id="path1108" />
    </marker>
    <marker
       style="overflow:visible"
       id="Arrow1Lend"
       refX="0"
       refY="0"
       orient="auto"
       inkscape:stockid="Arrow1Lend"
       inkscape:isstock="true">
      <path
         transform="matrix(-0.8,0,0,-0.8,-10,0)"
         style="fill:#000000;fill-opacity:1;fill-rule:evenodd;stroke:#000000;stroke-width:1pt;stroke-opacity:1"
         d="M 0,0 5,-5 -12.5,0 5,5 Z"
         id="path1111" />
    </marker>
    <marker
       style="overflow:visible"
       id="Arrow1Lend-6"
       refX="0"
       refY="0"
       orient="auto"
       inkscape:stockid="Arrow1Lend"
       inkscape:isstock="true">
      <path
         transform="matrix(-0.8,0,0,-0.8,-10,0)"
         style="fill:#000000;fill-opacity:1;fill-rule:evenodd;stroke:#000000;stroke-width:1pt;stroke-opacity:1"
         d="M 0,0 5,-5 -12.5,0 5,5 Z"
         id="path1111-9" />
    </marker>
    <marker
       style="overflow:visible"
       id="Arrow1Lend-5"
       refX="0"
       refY="0"
       orient="auto"
       inkscape:stockid="Arrow1Lend"
       inkscape:isstock="true">
      <path
         transform="matrix(-0.8,0,0,-0.8,-10,0)"
         style="fill:#000000;fill-opacity:1;fill-rule:evenodd;stroke:#000000;stroke-width:1pt;stroke-opacity:1"
         d="M 0,0 5,-5 -12.5,0 5,5 Z"
         id="path1111-0" />
    </marker>
    <marker
       style="overflow:visible"
       id="Arrow1Lend-0"
       refX="0"
       refY="0"
       orient="auto"
       inkscape:stockid="Arrow1Lend"
       inkscape:isstock="true">
      <path
         transform="matrix(-0.8,0,0,-0.8,-10,0)"
         style="fill:#000000;fill-opacity:1;fill-rule:evenodd;stroke:#000000;stroke-width:1pt;stroke-opacity:1"
         d="M 0,0 5,-5 -12.5,0 5,5 Z"
         id="path1111-1" />
    </marker>
    <marker
       style="overflow:visible"
       id="Arrow1Lend-3"
       refX="0"
       refY="0"
       orient="auto"
       inkscape:stockid="Arrow1Lend"
       inkscape:isstock="true">
      <path
         transform="matrix(-0.8,0,0,-0.8,-10,0)"
         style="fill:#000000;fill-opacity:1;fill-rule:evenodd;stroke:#000000;stroke-width:1pt;stroke-opacity:1"
         d="M 0,0 5,-5 -12.5,0 5,5 Z"
         id="path1111-7" />
    </marker>
    <marker
       style="overflow:visible"
       id="Arrow1Lend-6-3"
       refX="0"
       refY="0"
       orient="auto"
       inkscape:stockid="Arrow1Lend"
       inkscape:isstock="true">
      <path
         transform="matrix(-0.8,0,0,-0.8,-10,0)"
         style="fill:#000000;fill-opacity:1;fill-rule:evenodd;stroke:#000000;stroke-width:1pt;stroke-opacity:1"
         d="M 0,0 5,-5 -12.5,0 5,5 Z"
         id="path1111-9-7" />
    </marker>
    <marker
       style="overflow:visible"
       id="Arrow1Lend-5-9"
       refX="0"
       refY="0"
       orient="auto"
       inkscape:stockid="Arrow1Lend"
       inkscape:isstock="true">
      <path
         transform="matrix(-0.8,0,0,-0.8,-10,0)"
         style="fill:#000000;fill-opacity:1;fill-rule:evenodd;stroke:#000000;stroke-width:1pt;stroke-opacity:1"
         d="M 0,0 5,-5 -12.5,0 5,5 Z"
         id="path1111-0-2" />
    </marker>
    <marker
       style="overflow:visible"
       id="Arrow1Lend-0-4"
       refX="0"
       refY="0"
       orient="auto"
       inkscape:stockid="Arrow1Lend"
       inkscape:isstock="true">
      <path
         transform="matrix(-0.8,0,0,-0.8,-10,0)"
         style="fill:#000000;fill-opacity:1;fill-rule:evenodd;stroke:#000000;stroke-width:1pt;stroke-opacity:1"
         d="M 0,0 5,-5 -12.5,0 5,5 Z"
         id="path1111-1-8" />
    </marker>
    <marker
       style="overflow:visible"
       id="Arrow1Lend-5-9-0"
       refX="0"
       refY="0"
       orient="auto"
       inkscape:stockid="Arrow1Lend"
       inkscape:isstock="true">
      <path
         transform="matrix(-0.8,0,0,-0.8,-10,0)"
         style="fill:#000000;fill-opacity:1;fill-rule:evenodd;stroke:#000000;stroke-width:1pt;stroke-opacity:1"
         d="M 0,0 5,-5 -12.5,0 5,5 Z"
         id="path1111-0-2-7" />
    </marker>
    <marker
       style="overflow:visible"
       id="Arrow1Lend-5-9-00"
       refX="0"
       refY="0"
       orient="auto"
       inkscape:stockid="Arrow1Lend"
       inkscape:isstock="true">
      <path
         transform="matrix(-0.8,0,0,-0.8,-10,0)"
         style="fill:#000000;fill-opacity:1;fill-rule:evenodd;stroke:#000000;stroke-width:1pt;stroke-opacity:1"
         d="M 0,0 5,-5 -12.5,0 5,5 Z"
         id="path1111-0-2-2" />
    </marker>
  </defs>
  <sodipodi:namedview
     id="base"
     pagecolor="#ffffff"
     bordercolor="#666666"
     borderopacity="1.0"
     inkscape:pageopacity="1"
     inkscape:pageshadow="2"
     inkscape:zoom="1.4"
     inkscape:cx="346.45368"
     inkscape:cy="168.01496"
     inkscape:document-units="mm"
     inkscape:current-layer="layer1"
     inkscape:document-rotation="0"
     showgrid="false"
     inkscape:window-width="1301"
     inkscape:window-height="964"
     inkscape:window-x="355"
     inkscape:window-y="18"
     inkscape:window-maximized="0"
     inkscape:object-paths="true" />
  <metadata
     id="metadata5">
    <rdf:RDF>
      <cc:Work
         rdf:about="">
        <dc:format>image/svg+xml</dc:format>
        <dc:type
           rdf:resource="http://purl.org/dc/dcmitype/StillImage" />
        <dc:title />
      </cc:Work>
    </rdf:RDF>
  </metadata>
  <g
     inkscape:label="图层 1"
     inkscape:groupmode="layer"
     id="layer1"
     transform="translate(18.162034,-45.541082)">
    <path
       style="fill:none;stroke:#000000;stroke-width:0.264583;stroke-linecap:butt;stroke-linejoin:miter;stroke-miterlimit:4;stroke-dasharray:1.05833, 1.05833;stroke-dashoffset:0;stroke-opacity:1"
       d="M 22.063785,69.119308 V 116.47871"
       id="path833-5" />
    <path
       style="fill:none;stroke:#000000;stroke-width:0.264583;stroke-linecap:butt;stroke-linejoin:miter;stroke-miterlimit:4;stroke-dasharray:1.05833, 1.05833;stroke-dashoffset:0;stroke-opacity:1"
       d="M 127.51191,69.119584 V 116.47898"
       id="path833-7-0" />
    <path
       style="fill:none;stroke:#000000;stroke-width:0.264583px;stroke-linecap:butt;stroke-linejoin:miter;stroke-opacity:1"
       d="m 22.063718,80.157683 h 0.356857 0.356857 0.356859 0.356857 0.356859 0.356856 0.356857 0.356858 0.356859 0.356857 0.356858 0.356857 0.356858 0.356858 0.356856 0.356858 0.356859 0.356857 0.356858 0.356857 0.356858 0.356858 0.356859 0.356856 0.356858 0.356857 0.356858 0.356858 0.08922 0.08922 0.08922 0.08922 0.08922 0.0446 0.04462 m 2.051959,0 h 0.0446 0.0446 0.04461 0.0446 0.04461 0.0446 0.356857 0.356858 0.356858 0.356857 0.356858 0.356858 0.356856 0.356859 0.356857 0.356857 0.356858 0.356857 0.35686 0.356858 0.356855 0.356858 0.356859 0.356857 0.356858 0.356856 0.356859 0.356858 0.356857 0.356858 0.356858 0.356857 0.356859 0.356856 0.356859 0.356857 0.356857 0.356858 0.356858 0.356858 0.356857 0.356858 0.356858 0.356857 0.356858 0.356857 0.356858 0.356858 0.356858 0.356858 0.356857 0.356858 0.356858 0.356857 0.356857 0.356857 0.356858 0.356858 0.356858 0.356858 0.356857 0.356858 0.356858 0.356857 0.356857 0.356858 0.356857 0.356859 0.356857 0.17843 m 1.962715,0 h 0.356859 0.356857 0.356858 m 2.141145,0 h 0.356855 0.356857 0.356862 0.356855 0.356855 0.356856 0.356863 0.356855 0.356855 0.356862 0.356856 0.356856 0.356862 0.356852 l 1.935496,3.738908 1.935502,3.738894 1.935515,3.738912 1.935497,3.738896 h 5.677828 5.677829 m 2.040477,0 h 0.08873 0.354873 0.354861 1.41946 1.419447 5.677836"
       id="path911-1"
       sodipodi:nodetypes="ccccccccccccccccccccccccccccccccccccccccccccccccccccccccccccccccccccccccccccccccccccccccccccccccccccccccccccccccccccccccccccccccccccccccccc" />
    <path
       style="fill:none;stroke:#000000;stroke-width:0.564999;stroke-linecap:butt;stroke-linejoin:miter;stroke-miterlimit:4;stroke-dasharray:3.38999, 3.38999;stroke-dashoffset:0;stroke-opacity:1"
       d="m 98.194886,95.113293 h -0.713711 -0.71371 -0.713729 -0.71371 -0.71372 -0.713701 -0.71372 -0.71372 -0.71372 -0.713702 -0.713723 -0.713716 -0.713723 m -2.141143,0 h -0.713722 -0.7137 -0.713721 -0.713711 -0.713716 -0.713717 -0.713723 -0.713716 -0.713699 -0.713721 -0.713718 -0.713716 -0.713716 -0.713711 -0.713722 -0.713716 -0.713711 -0.713722 -0.713711 -0.713716 -0.713717 -0.71371 -0.713722 -0.713706 -0.713717 -0.713721 -0.71371 -0.713715 -0.713719 -0.71371 -0.713718 -0.713718 -0.713712 m -2.141147,0 H 60.367976 59.65426 58.940544 58.226829 57.513114 56.799398 56.085683 55.371967 54.658252 53.944536 53.230822 52.517105 L 44.775106,80.157683 H 44.420242 44.065377 43.710512 43.355648 43.000784 42.64592 42.291055 41.93619 41.581326 41.226462 40.871599 40.516735 40.161869 39.807005 39.45214 39.097276 38.742413 38.387547 38.032683 37.677819 37.322956 36.968091 36.613226 36.258362 35.903497 35.548634 35.193769 34.838905 m -2.48405,0 H 31.99999 31.645126 31.290261 30.935398 30.580533 30.225669 29.870803 29.51594 29.161076 28.806212 28.451347 28.096482 27.741619 27.386754 27.03189 26.677027 26.32216 25.967298 25.612433 25.257568 24.902705 24.547839 24.192975 23.838111 23.483248 23.128383 22.773518 22.418654 22.06379"
       id="path911-5-0"
       sodipodi:nodetypes="cccccccccccccccccccccccccccccccccccccccccccccccccccccccccccccccccccccccccccccccccccccccccccccccccccccccccccccccccccccccc" />
    <path
       style="fill:none;stroke:#000000;stroke-width:0.264583px;stroke-linecap:butt;stroke-linejoin:miter;stroke-opacity:1"
       d="M 55.953378,100.02234 61.88891,74.819395"
       id="path928-1" />
    <path
       style="fill:none;stroke:#000000;stroke-width:0.264583px;stroke-linecap:butt;stroke-linejoin:miter;stroke-opacity:1"
       d="M 57.987434,100.02268 63.922967,74.819751"
       id="path928-5-4" />
    <path
       style="fill:none;stroke:#000000;stroke-width:0.264583px;stroke-linecap:butt;stroke-linejoin:miter;stroke-opacity:1"
       d="M 85.668151,100.02234 91.60368,74.819395"
       id="path928-9-2" />
    <path
       style="fill:none;stroke:#000000;stroke-width:0.264583px;stroke-linecap:butt;stroke-linejoin:miter;stroke-opacity:1"
       d="M 87.7022,100.0227 93.637735,74.819751"
       id="path928-5-1-6" />
    <path
       style="fill:none;stroke:#000000;stroke-width:0.264583px;stroke-linecap:butt;stroke-linejoin:miter;stroke-opacity:1"
       d="m 27.849462,100.02241 0.370973,-1.575184 0.37097,-1.575187 0.37097,-1.575179 0.370971,-1.575188 0.37097,-1.575179 0.370971,-1.575187 0.370971,-1.575181 0.370971,-1.575186 0.370969,-1.575186 0.370973,-1.575179 0.37097,-1.575186 0.37097,-1.575185 0.37097,-1.575188 0.370972,-1.575183 0.370971,-1.575185 0.370971,-1.575183"
       id="path928-4-1"
       sodipodi:nodetypes="ccccccccccccccccc" />
    <path
       style="fill:none;stroke:#000000;stroke-width:0.264583px;stroke-linecap:butt;stroke-linejoin:miter;stroke-opacity:1"
       d="m 29.883516,100.02276 0.370971,-1.575173 0.37097,-1.575195 0.37097,-1.575179 0.370972,-1.575187 0.370971,-1.57518 0.37097,-1.575187 0.37097,-1.57518 0.370973,-1.575192 0.37097,-1.57518 0.37097,-1.575185 0.370971,-1.575186 0.37097,-1.575185 0.370972,-1.575179 0.370971,-1.575193 0.370969,-1.575176 0.370972,-1.575192"
       id="path928-5-9-5"
       sodipodi:nodetypes="ccccccccccccccccc" />
    <path
       style="fill:none;stroke:#000000;stroke-width:0.264583;stroke-linecap:butt;stroke-linejoin:miter;stroke-miterlimit:4;stroke-dasharray:1.05833, 1.05833;stroke-dashoffset:0;stroke-opacity:1"
       d="m 44.663164,69.11964 v 35.45031"
       id="path833-1-61" />
    <path
       style="fill:none;stroke:#000000;stroke-width:0.264583;stroke-linecap:butt;stroke-linejoin:miter;stroke-miterlimit:4;stroke-dasharray:1.05833, 1.05833;stroke-dashoffset:0;stroke-opacity:1"
       d="m 67.728618,69.11964 v 35.45031"
       id="path833-1-5-7" />
    <path
       style="fill:none;stroke:#000000;stroke-width:0.264583;stroke-linecap:butt;stroke-linejoin:miter;stroke-miterlimit:4;stroke-dasharray:1.05833, 1.05833;stroke-dashoffset:0;stroke-opacity:1"
       d="m 52.932038,69.11964 v 35.45031"
       id="path833-1-6-4" />
    <path
       style="fill:none;stroke:#000000;stroke-width:0.264583;stroke-linecap:butt;stroke-linejoin:miter;stroke-miterlimit:4;stroke-dasharray:1.05833, 1.05833;stroke-dashoffset:0;stroke-opacity:1"
       d="m 75.655452,69.11964 v 35.45031"
       id="path833-1-0-3" />
    <path
       style="fill:none;stroke:#000000;stroke-width:0.264583px;stroke-linecap:butt;stroke-linejoin:miter;stroke-opacity:1;marker-end:url(#Arrow1Lend-3)"
       d="M 22.063785,102.35397 H 44.0792"
       id="path1106-8" />
    <path
       style="fill:none;stroke:#000000;stroke-width:0.264583px;stroke-linecap:butt;stroke-linejoin:miter;stroke-opacity:1;marker-end:url(#Arrow1Lend-6-3)"
       d="M 52.932038,102.35355 H 67.213624"
       id="path1106-2-0" />
    <path
       style="fill:none;stroke:#000000;stroke-width:0.264583px;stroke-linecap:butt;stroke-linejoin:miter;stroke-opacity:1;marker-end:url(#Arrow1Lend-5-9)"
       d="M 75.655452,102.35355 H 97.670867"
       id="path1106-21-9" />
    <text
       xml:space="preserve"
       style="font-style:normal;font-weight:normal;font-size:3.25365px;line-height:1.25;font-family:sans-serif;fill:#000000;fill-opacity:1;stroke:none;stroke-width:0.264583"
       x="27.542116"
       y="108.21309"
       id="text1553-6"
       transform="scale(1.0117048,0.9884306)"><tspan
         sodipodi:role="line"
         x="27.542116"
         y="108.21309"
         style="font-size:3.25365px;stroke-width:0.264583"
         id="tspan1555-6">LP-11</tspan><tspan
         sodipodi:role="line"
         x="27.542116"
         y="112.28015"
         style="font-size:3.25365px;stroke-width:0.264583"
         id="tspan1673-6"> LPM</tspan></text>
    <text
       xml:space="preserve"
       style="font-style:normal;font-weight:normal;font-size:3.25365px;line-height:1.25;font-family:sans-serif;fill:#000000;fill-opacity:1;stroke:none;stroke-width:0.264583"
       x="54.426182"
       y="108.21314"
       id="text1677-7"
       transform="scale(1.0117048,0.9884306)"><tspan
         sodipodi:role="line"
         id="tspan1675-6"
         x="54.426182"
         y="108.21314"
         style="font-size:3.25365px;stroke-width:0.264583">LP-01</tspan></text>
    <text
       xml:space="preserve"
       style="font-style:normal;font-weight:normal;font-size:3.25365px;line-height:1.25;font-family:sans-serif;fill:#000000;fill-opacity:1;stroke:none;stroke-width:0.264583"
       x="81.541344"
       y="108.17342"
       id="text1681-6"
       transform="scale(1.0117048,0.9884306)"><tspan
         sodipodi:role="line"
         x="81.541344"
         y="108.17342"
         style="font-size:3.25365px;stroke-width:0.264583"
         id="tspan1685-5">LP-00</tspan></text>
    <path
       style="fill:none;stroke:#000000;stroke-width:0.264583px;stroke-linecap:butt;stroke-linejoin:miter;stroke-opacity:1;marker-end:url(#Arrow1Lend-0-4)"
       d="M 22.063787,113.12852 H 127.18184"
       id="path1106-0-3" />
    <text
       xml:space="preserve"
       style="font-style:normal;font-weight:normal;font-size:3.25365px;line-height:1.25;font-family:sans-serif;fill:#000000;fill-opacity:1;stroke:none;stroke-width:0.264583"
       x="66.6119"
       y="118.15328"
       id="text1792-9"
       transform="scale(1.0117048,0.9884306)"><tspan
         sodipodi:role="line"
         id="tspan1790-3"
         x="66.6119"
         y="118.15328"
         style="font-size:3.25365px;stroke-width:0.264583">Time</tspan></text>
    <text
       xml:space="preserve"
       style="font-style:normal;font-weight:normal;font-size:3.25365px;line-height:1.25;font-family:sans-serif;fill:#000000;fill-opacity:1;stroke:none;stroke-width:0.264583"
       x="47.339008"
       y="79.788383"
       id="text1796-6"
       transform="scale(1.0117048,0.9884306)"><tspan
         sodipodi:role="line"
         id="tspan1794-6"
         x="47.339008"
         y="79.788383"
         style="font-size:3.25365px;stroke-width:0.264583">CLKN</tspan></text>
    <text
       xml:space="preserve"
       style="font-style:normal;font-weight:normal;font-size:3.25365px;line-height:1.25;font-family:sans-serif;fill:#000000;fill-opacity:1;stroke:none;stroke-width:0.264583"
       x="61.675694"
       y="94.732552"
       id="text1800-8"
       transform="scale(1.0117048,0.9884306)"><tspan
         sodipodi:role="line"
         id="tspan1798-7"
         x="61.675694"
         y="94.732552"
         style="font-size:3.25365px;stroke-width:0.264583">CLKP</tspan></text>
    <path
       style="fill:none;stroke:#000000;stroke-width:0.264583px;stroke-linecap:butt;stroke-linejoin:miter;stroke-opacity:1"
       d="m 98.194895,95.113293 2.303915,-9.44955"
       id="path4896" />
    <path
       style="fill:none;stroke:#000000;stroke-width:0.264583;stroke-linecap:butt;stroke-linejoin:miter;stroke-miterlimit:4;stroke-dasharray:1.05833, 1.05833;stroke-dashoffset:0;stroke-opacity:1"
       d="M 100.58714,69.119584 V 104.56989"
       id="path833-1-0-3-3" />
    <path
       style="fill:none;stroke:#000000;stroke-width:0.565;stroke-linecap:butt;stroke-linejoin:miter;stroke-miterlimit:4;stroke-dasharray:2.26001, 2.26001;stroke-dashoffset:0;stroke-opacity:1"
       d="m 98.194895,95.113293 0.299034,-0.206833 0.299034,-0.206834 0.299025,-0.206835 0.299034,-0.206834 0.299034,-0.206833 m 0.299025,-0.206834 0.299029,-0.206834 0.29903,-0.206834"
       id="path4913"
       sodipodi:nodetypes="ccccccccc" />
    <path
       style="fill:none;stroke:#000000;stroke-width:0.264583px;stroke-linecap:butt;stroke-linejoin:miter;stroke-opacity:1"
       d="m 100.49881,85.663743 h 1.56354 1.56354 1.56352 0.3909 0.39089 0.39087 m 2.05216,0 h 0.0977 0.0977 0.0977 0.39089 0.39088 0.39088 1.56355 1.56353"
       id="path4915"
       sodipodi:nodetypes="cccccccccccccccc" />
    <path
       style="fill:none;stroke:#000000;stroke-width:0.264583px;stroke-linecap:butt;stroke-linejoin:miter;stroke-opacity:1"
       d="m 113.00711,85.663743 3.33732,7.794379 1.39235,0.0039 1.39235,0.0039 0.69618,0.0015 m 1.91448,0.0054 0.17404,4.61e-4 1.39235,0.0039 1.39235,0.0039 1.39235,0.0039 1.39236,0.0039"
       id="path4919"
       sodipodi:nodetypes="ccccccccccc" />
    <path
       style="fill:none;stroke:#000000;stroke-width:0.565;stroke-linecap:butt;stroke-linejoin:miter;stroke-miterlimit:4;stroke-dasharray:2.26001, 2.26001;stroke-dashoffset:0;stroke-opacity:1"
       d="m 100.58714,93.458622 h 0.0977 0.0977 0.0977 0.0977 0.0977 0.0977 0.0977 0.0977 0.0977 0.0977 0.0977 0.0977 0.0977 0.0977 0.0977 0.0977 0.0977 0.0977 0.0977 0.0977 0.0977 0.0977 0.0977 0.0977 0.0977 0.0977 0.0977 0.0977 0.0977 0.0977 0.0977 0.0977 0.0977 0.0977 0.0977 0.0977 0.0977 0.0977 0.0977 0.0977 0.0977 0.0977 0.0977 0.0977 0.0977 0.0977 0.0977 0.0977 0.0977 0.0977 0.0977 0.0977 0.0977 m 0.78177,0 h 0.0977 0.0977 0.0977 0.0977 0.0977 0.0977 0.0977 0.0977 0.0977 0.0977 0.0977 0.0977 0.0977 0.0977 0.0977 0.0977 0.0977 0.0977 0.0977 0.0977 0.0977 0.0977 0.0977 0.0977 0.0977 0.0977 0.0977 0.0977 0.0977 0.0977 0.0977 0.0977 0.0977 0.0977 0.0977 0.0977 0.0977 0.0977 0.0977 0.0977 0.0977 0.0977 0.0977 0.0977 0.0977 0.0977 0.0977 0.0977 0.0977 0.0977 0.0977 0.0977 0.0977 0.0977 0.0977 0.0977 0.0977 0.0977 0.0977 0.0977 0.0977 0.0977 0.0977 0.0977 0.0977 0.0977 0.0977"
       id="path4915-2"
       sodipodi:nodetypes="cccccccccccccccccccccccccccccccccccccccccccccccccccccccccccccccccccccccccccccccccccccccccccccccccccccccccccccccccccccccccc" />
    <path
       style="fill:none;stroke:#000000;stroke-width:0.565;stroke-linecap:butt;stroke-linejoin:miter;stroke-miterlimit:4;stroke-dasharray:2.26001, 2.26001;stroke-dashoffset:0;stroke-opacity:1"
       d="m 113.09545,93.458622 3.33732,-7.794377 1.39235,-0.0036 1.39235,-0.0036 1.39235,-0.0036 0.69617,-0.0017 0.087,-2.83e-4 0.087,-2.89e-4 0.087,-2.83e-4 m 2.08852,-0.0059 0.087,-2.83e-4 0.34809,-5.73e-4 0.69617,-0.0017 1.39235,-0.0036 1.39235,-0.0036"
       id="path4919-4"
       sodipodi:nodetypes="ccccccccccccccc" />
    <path
       style="fill:none;stroke:#000000;stroke-width:0.264583;stroke-linecap:butt;stroke-linejoin:miter;stroke-miterlimit:4;stroke-dasharray:1.05833, 1.05833;stroke-dashoffset:0;stroke-opacity:1"
       d="M 113.00434,69.119584 V 104.56989"
       id="path833-1-0-3-3-4" />
    <path
       style="fill:none;stroke:#000000;stroke-width:0.264583;stroke-linecap:butt;stroke-linejoin:miter;stroke-miterlimit:4;stroke-dasharray:1.05833, 1.05833;stroke-dashoffset:0;stroke-opacity:1"
       d="M 98.160815,69.119584 V 104.5699"
       id="path833-1-0-3-3-0" />
    <path
       style="fill:none;stroke:#000000;stroke-width:0.565;stroke-linecap:butt;stroke-linejoin:miter;stroke-miterlimit:4;stroke-dasharray:none;stroke-opacity:1"
       d="m 62.291823,95.126412 1.403128,0.0039"
       id="path4966" />
    <path
       style="fill:none;stroke:#000000;stroke-width:0.264583px;stroke-linecap:butt;stroke-linejoin:miter;stroke-opacity:1"
       d="m 57.571103,80.157683 h 1.962716"
       id="path4972" />
    <path
       style="fill:none;stroke:#000000;stroke-width:0.264583px;stroke-linecap:butt;stroke-linejoin:miter;stroke-opacity:1"
       d="m 118.54413,98.615822 1.48389,-6.300735 1.48388,-6.300738 1.48388,-6.300734"
       id="path928-9-2-2"
       sodipodi:nodetypes="cccc" />
    <path
       style="fill:none;stroke:#000000;stroke-width:0.264583px;stroke-linecap:butt;stroke-linejoin:miter;stroke-opacity:1"
       d="m 120.57818,98.616175 1.48388,-6.300733 1.48389,-6.300732 1.48388,-6.300734"
       id="path928-5-1-6-3"
       sodipodi:nodetypes="cccc" />
    <path
       style="fill:none;stroke:#000000;stroke-width:0.264583px;stroke-linecap:butt;stroke-linejoin:miter;stroke-opacity:1"
       d="m 103.32337,98.615922 1.48389,-6.300734 1.48388,-6.300738 1.48388,-6.300745"
       id="path928-9-2-2-7"
       sodipodi:nodetypes="cccc" />
    <path
       style="fill:none;stroke:#000000;stroke-width:0.264583px;stroke-linecap:butt;stroke-linejoin:miter;stroke-opacity:1"
       d="m 105.35743,98.616275 1.48387,-6.300741 1.48389,-6.30073 1.48389,-6.30074"
       id="path928-5-1-6-3-4"
       sodipodi:nodetypes="cccc" />
    <path
       style="fill:none;stroke:#000000;stroke-width:0.264583px;stroke-linecap:butt;stroke-linejoin:miter;stroke-opacity:1;marker-end:url(#Arrow1Lend-5-9-0)"
       d="m 100.58714,102.3538 h 12.06071"
       id="path1106-21-9-4" />
    <path
       style="fill:none;stroke:#000000;stroke-width:0.264583px;stroke-linecap:butt;stroke-linejoin:miter;stroke-opacity:1;marker-end:url(#Arrow1Lend-5-9-00)"
       d="m 113.00434,102.3538 h 14.17351"
       id="path1106-21-9-0" />
    <text
       xml:space="preserve"
       style="font-style:normal;font-weight:normal;font-size:3.25365px;line-height:1.25;font-family:sans-serif;fill:#000000;fill-opacity:1;stroke:none;stroke-width:0.264583"
       x="101.21758"
       y="108.17359"
       id="text5311"
       transform="scale(1.0117048,0.9884306)"><tspan
         sodipodi:role="line"
         id="tspan5309"
         x="101.21758"
         y="108.17359"
         style="font-size:3.25365px;stroke-width:0.264583">HS-0</tspan></text>
    <text
       xml:space="preserve"
       style="font-style:normal;font-weight:normal;font-size:3.25365px;line-height:1.25;font-family:sans-serif;fill:#000000;fill-opacity:1;stroke:none;stroke-width:0.264583"
       x="112.76516"
       y="108.23237"
       id="text5315"
       transform="scale(1.0117048,0.9884306)"><tspan
         sodipodi:role="line"
         id="tspan5313"
         x="112.76516"
         y="108.23237"
         style="font-size:3.25365px;stroke-width:0.264583">HS-0/1</tspan><tspan
         sodipodi:role="line"
         x="112.76516"
         y="112.29943"
         style="font-size:3.25365px;stroke-width:0.264583"
         id="tspan5317"> HSCM</tspan></text>
    <path
       style="fill:none;stroke:#000000;stroke-width:0.264583;stroke-linecap:butt;stroke-linejoin:miter;stroke-miterlimit:4;stroke-dasharray:1.05833, 1.05833;stroke-dashoffset:0;stroke-opacity:1;marker-start:url(#Arrow1Lstart)"
       d="M 99.338354,64.994452 V 100.44475"
       id="path833-1-0-3-3-0-5" />
    <text
       xml:space="preserve"
       style="font-style:normal;font-weight:normal;font-size:3.25365px;line-height:1.25;font-family:sans-serif;fill:#000000;fill-opacity:1;stroke:none;stroke-width:0.264583"
       x="88.71814"
       y="56.645725"
       id="text5410"
       transform="scale(1.0117048,0.9884306)"><tspan
         sodipodi:role="line"
         id="tspan5408"
         x="88.71814"
         y="56.645725"
         style="font-size:3.25365px;stroke-width:0.264583">Termination</tspan><tspan
         sodipodi:role="line"
         x="88.71814"
         y="60.712788"
         style="font-size:3.25365px;stroke-width:0.264583"
         id="tspan5412">   Resistor</tspan><tspan
         sodipodi:role="line"
         x="88.71814"
         y="64.779854"
         style="font-size:3.25365px;stroke-width:0.264583"
         id="tspan5414">  is enable</tspan></text>
    <rect
       style="fill:none;fill-rule:evenodd;stroke:#000000;stroke-width:0.176389;stroke-miterlimit:4;stroke-dasharray:none;stroke-opacity:1"
       id="rect4008"
       width="184.69232"
       height="76.751862"
       x="-18.073839"
       y="45.629276" />
  </g>
</svg>
