<?xml version="1.0" encoding="UTF-8" standalone="no"?>
<svg
   xmlns:dc="http://purl.org/dc/elements/1.1/"
   xmlns:cc="http://creativecommons.org/ns#"
   xmlns:rdf="http://www.w3.org/1999/02/22-rdf-syntax-ns#"
   xmlns:svg="http://www.w3.org/2000/svg"
   xmlns="http://www.w3.org/2000/svg"
   xmlns:sodipodi="http://sodipodi.sourceforge.net/DTD/sodipodi-0.dtd"
   xmlns:inkscape="http://www.inkscape.org/namespaces/inkscape"
   version="1.1"
   id="svg2"
   xml:space="preserve"
   width="692.32001"
   height="291.33334"
   viewBox="0 0 692.32001 291.33334"
   sodipodi:docname="TimerBlock_common.svg"
   inkscape:version="1.0.1 (3bc2e813f5, 2020-09-07)"><metadata
     id="metadata8"><rdf:RDF><cc:Work
         rdf:about=""><dc:format>image/svg+xml</dc:format><dc:type
           rdf:resource="http://purl.org/dc/dcmitype/StillImage" /><dc:title></dc:title></cc:Work></rdf:RDF></metadata><defs
     id="defs6"><clipPath
       clipPathUnits="userSpaceOnUse"
       id="clipPath20"><path
         d="M 2.5,2182.5 V 2.5 h 5187.4 v 2180 z"
         id="path18" /></clipPath></defs><sodipodi:namedview
     pagecolor="#ffffff"
     bordercolor="#666666"
     borderopacity="1"
     objecttolerance="10"
     gridtolerance="10"
     guidetolerance="10"
     inkscape:pageopacity="0"
     inkscape:pageshadow="2"
     inkscape:window-width="1920"
     inkscape:window-height="1017"
     id="namedview4"
     showgrid="false"
     inkscape:zoom="1.5888606"
     inkscape:cx="346.16"
     inkscape:cy="145.66667"
     inkscape:window-x="-8"
     inkscape:window-y="-8"
     inkscape:window-maximized="1"
     inkscape:current-layer="g10" /><g
     id="g10"
     inkscape:groupmode="layer"
     inkscape:label="ink_ext_XXXXXX"
     transform="matrix(1.3333333,0,0,-1.3333333,0,291.33333)"><g
       id="g12"
       transform="scale(0.1)"><g
         id="g14"><g
           id="g16"
           clip-path="url(#clipPath20)"><path
             d="M 6.27344,5.33984 H 5186.12 V 2179.65 H 6.27344 V 5.33984 v 0 0 z"
             style="fill:none;stroke:#231f20;stroke-width:5;stroke-linecap:round;stroke-linejoin:round;stroke-miterlimit:10;stroke-dasharray:none;stroke-opacity:1"
             id="path22" /></g></g><path
         d="M 2.5,2182.5 V 2.5 h 5187.4 v 2180 z"
         style="fill:none;stroke:#231f20;stroke-width:5;stroke-linecap:butt;stroke-linejoin:miter;stroke-miterlimit:10;stroke-dasharray:none;stroke-opacity:1"
         id="path24" /><g
         id="g26"
         transform="scale(10)"><text
           transform="matrix(1,0,0,-0.99891119,425.347,193.266)"
           style="font-variant:normal;font-weight:normal;font-size:14.278px;font-family:'Microsoft Sans Serif';-inkscape-font-specification:MicrosoftSansSerif;writing-mode:lr-tb;fill:#0e0f0e;fill-opacity:1;fill-rule:nonzero;stroke:none"
           id="text30"><tspan
             x="0 9.0234098 17.156191 24.891531 33.179195 37.674271 48.952938 58.718529"
             y="0"
             sodipodi:role="line"
             id="tspan28">BL_TIMER</tspan></text></g><path
         d="M 550.449,1754.75 H 862.977"
         style="fill:none;stroke:#0e0f0e;stroke-width:7.51407;stroke-linecap:round;stroke-linejoin:round;stroke-miterlimit:10;stroke-dasharray:none;stroke-opacity:1"
         id="path32" /><path
         d="m 912.578,1754.75 -65.527,-32.74 c 10.316,20.61 10.316,44.85 0,65.46 l 65.527,-32.72 v 0 0 0"
         style="fill:#0e0f0e;fill-opacity:1;fill-rule:evenodd;stroke:none"
         id="path34" /><g
         id="g36"
         transform="scale(10)"><text
           transform="matrix(1,0,0,-0.99891119,19.6516,170.266)"
           style="font-variant:normal;font-weight:normal;font-size:15.781px;font-family:'Microsoft Sans Serif';-inkscape-font-specification:MicrosoftSansSerif;writing-mode:lr-tb;fill:#0e0f0e;fill-opacity:1;fill-rule:nonzero;stroke:none"
           id="text42"><tspan
             x="0 10.525915"
             y="0"
             sodipodi:role="line"
             id="tspan38">AP</tspan><tspan
             x="20.695333"
             y="0.21116792"
             id="tspan40">B</tspan></text></g><path
         d="m 912.578,1495.85 h 944.382 v 517.78 H 912.578 v -517.78 0 0 z"
         style="fill:none;stroke:#0e0f0e;stroke-width:7.51407;stroke-linecap:round;stroke-linejoin:round;stroke-miterlimit:10;stroke-dasharray:none;stroke-opacity:1"
         id="path44" /><g
         id="g46"
         transform="scale(10)"><text
           transform="matrix(1,0,0,-0.99891119,121.55,170.656)"
           style="font-variant:normal;font-weight:normal;font-size:15.781px;font-family:'Microsoft Sans Serif';-inkscape-font-specification:MicrosoftSansSerif;writing-mode:lr-tb;fill:#0e0f0e;fill-opacity:1;fill-rule:nonzero;stroke:none"
           id="text52"><tspan
             x="0 11.286081 22.553881"
             y="0"
             sodipodi:role="line"
             id="tspan48">CSR</tspan><tspan
             x="326.00797 330.50308 334.258 347.78241 356.05368 361.71872 370.57788 374.33374 379.58569"
             y="110.08086"
             sodipodi:role="line"
             id="tspan50">timer_irq</tspan></text></g><path
         d="M 938.512,238.441 H 4346.78 V 1234.99 H 938.512 v -996.549 0 0 z"
         style="fill:none;stroke:#0e0f0e;stroke-width:7.51407;stroke-linecap:round;stroke-linejoin:round;stroke-miterlimit:10;stroke-dasharray:none;stroke-opacity:1"
         id="path54" /><g
         id="g56"
         transform="scale(10)"><text
           transform="matrix(1,0,0,-0.99891119,350.495,105.07)"
           style="font-variant:normal;font-weight:normal;font-size:15.781px;font-family:'Microsoft Sans Serif';-inkscape-font-specification:MicrosoftSansSerif;writing-mode:lr-tb;fill:#0e0f0e;fill-opacity:1;fill-rule:nonzero;stroke:none"
           id="text60"><tspan
             x="0 9.0136557 17.828098 23.209925 32.112251 35.836853 40.347599 44.194859 48.68998 52.444859 65.969276 74.983932"
             y="0"
             sodipodi:role="line"
             id="tspan58">32-bit timer</tspan></text></g><path
         d="M 660.449,809.398 H 974.117"
         style="fill:none;stroke:#0e0f0e;stroke-width:7.51407;stroke-linecap:round;stroke-linejoin:round;stroke-miterlimit:10;stroke-dasharray:none;stroke-opacity:1"
         id="path62" /><path
         d="m 1023.72,809.398 -65.532,-32.707 c 10.324,20.598 10.324,44.848 0,65.457 l 65.532,-32.75 v 0 0 0"
         style="fill:#0e0f0e;fill-opacity:1;fill-rule:evenodd;stroke:none"
         id="path64" /><g
         id="g66"
         transform="scale(10)"><text
           transform="matrix(1,0,0,-0.99891119,37.8938,76.1328)"
           style="font-variant:normal;font-weight:normal;font-size:15.781px;font-family:'Microsoft Sans Serif';-inkscape-font-specification:MicrosoftSansSerif;writing-mode:lr-tb;fill:#0e0f0e;fill-opacity:1;fill-rule:nonzero;stroke:none"
           id="text70"><tspan
             x="0 4.4951148 12.749986 15.764633"
             y="0"
             sodipodi:role="line"
             id="tspan68">fclk</tspan></text></g><path
         d="m 1023.72,396.262 h 944.38 v 517.769 h -944.38 v -517.769 0 0 z"
         style="fill:none;stroke:#0e0f0e;stroke-width:7.51407;stroke-linecap:round;stroke-linejoin:round;stroke-miterlimit:10;stroke-dasharray:none;stroke-opacity:1"
         id="path72" /><g
         id="g74"
         transform="scale(10)"><text
           transform="matrix(1,0,0,-0.99891119,120.175,60.6949)"
           style="font-variant:normal;font-weight:normal;font-size:15.781px;font-family:'Microsoft Sans Serif';-inkscape-font-specification:MicrosoftSansSerif;writing-mode:lr-tb;fill:#0e0f0e;fill-opacity:1;fill-rule:nonzero;stroke:none"
           id="text78"><tspan
             x="0 8.2534065 12.007797 19.677219 28.539026 42.063416 51.078068"
             y="0"
             sodipodi:role="line"
             id="tspan76">clk_mux</tspan></text></g><path
         d="m 2124.31,396.262 h 944.38 v 517.769 h -944.38 v -517.769 0 0 z"
         style="fill:none;stroke:#0e0f0e;stroke-width:7.51407;stroke-linecap:round;stroke-linejoin:round;stroke-miterlimit:10;stroke-dasharray:none;stroke-opacity:1"
         id="path80" /><g
         id="g82"
         transform="scale(10)"><text
           transform="matrix(1,0,0,-0.99891119,235.089,60.6949)"
           style="font-variant:normal;font-weight:normal;font-size:15.781px;font-family:'Microsoft Sans Serif';-inkscape-font-specification:MicrosoftSansSerif;writing-mode:lr-tb;fill:#0e0f0e;fill-opacity:1;fill-rule:nonzero;stroke:none"
           id="text86"><tspan
             x="0 8.2534065 12.007797 19.677219 28.530823 37.544479 41.296818"
             y="0"
             sodipodi:role="line"
             id="tspan84">clk_div</tspan></text></g><path
         d="m 3224.9,396.262 h 944.37 V 914.031 H 3224.9 v -517.769 0 0 z"
         style="fill:none;stroke:#0e0f0e;stroke-width:7.51407;stroke-linecap:round;stroke-linejoin:round;stroke-miterlimit:10;stroke-dasharray:none;stroke-opacity:1"
         id="path88" /><g
         id="g90"
         transform="scale(10)"><text
           transform="matrix(1,0,0,-0.99891119,336.729,60.6949)"
           style="font-variant:normal;font-weight:normal;font-size:15.781px;font-family:'Microsoft Sans Serif';-inkscape-font-specification:MicrosoftSansSerif;writing-mode:lr-tb;fill:#0e0f0e;fill-opacity:1;fill-rule:nonzero;stroke:none"
           id="text94"><tspan
             x="0 4.495121 8.25 21.774366 30.047234 35.712261 44.563229 52.817123 61.82922"
             y="0"
             sodipodi:role="line"
             id="tspan92">timer_cnt</tspan></text></g><path
         d="m 1968.1,655.141 h 106.6"
         style="fill:none;stroke:#0e0f0e;stroke-width:7.51407;stroke-linecap:round;stroke-linejoin:round;stroke-miterlimit:10;stroke-dasharray:none;stroke-opacity:1"
         id="path96" /><path
         d="m 2124.31,655.141 -65.53,-32.719 c 10.31,20.598 10.31,44.848 0,65.457 l 65.53,-32.738 v 0 0 0"
         style="fill:#0e0f0e;fill-opacity:1;fill-rule:evenodd;stroke:none"
         id="path98" /><path
         d="m 3068.69,655.141 h 106.6"
         style="fill:none;stroke:#0e0f0e;stroke-width:7.51407;stroke-linecap:round;stroke-linejoin:round;stroke-miterlimit:10;stroke-dasharray:none;stroke-opacity:1"
         id="path100" /><path
         d="m 3224.9,655.141 -65.54,-32.719 c 10.33,20.598 10.33,44.848 0,65.457 l 65.54,-32.738 v 0 0 0"
         style="fill:#0e0f0e;fill-opacity:1;fill-rule:evenodd;stroke:none"
         id="path102" /><g
         id="g104"
         transform="scale(10)"><text
           transform="matrix(1,0,0,-0.99891119,12.1121,60.6949)"
           style="font-variant:normal;font-weight:normal;font-size:15.781px;font-family:'Microsoft Sans Serif';-inkscape-font-specification:MicrosoftSansSerif;writing-mode:lr-tb;fill:#0e0f0e;fill-opacity:1;fill-rule:nonzero;stroke:none"
           id="text112"><tspan
             x="0 8.2534113 12.749987 21.021456 25.047237"
             y="0"
             sodipodi:role="line"
             id="tspan106">xtal_</tspan><tspan
             x="-5.2417874 -0.79404193 8.2269487 17.051157"
             y="20.02961"
             sodipodi:role="line"
             id="tspan108">f32k</tspan><tspan
             x="25.062508"
             y="17.026339"
             id="tspan110">_</tspan></text></g><path
         d="M 660.449,655.141 H 974.117"
         style="fill:none;stroke:#0e0f0e;stroke-width:7.51407;stroke-linecap:round;stroke-linejoin:round;stroke-miterlimit:10;stroke-dasharray:none;stroke-opacity:1"
         id="path114" /><path
         d="m 1023.72,655.141 -65.532,-32.719 c 10.324,20.598 10.324,44.848 0,65.457 l 65.532,-32.738 v 0 0 0"
         style="fill:#0e0f0e;fill-opacity:1;fill-rule:evenodd;stroke:none"
         id="path116" /><path
         d="M 660.449,468.961 H 974.117"
         style="fill:none;stroke:#0e0f0e;stroke-width:7.51407;stroke-linecap:round;stroke-linejoin:round;stroke-miterlimit:10;stroke-dasharray:none;stroke-opacity:1"
         id="path118" /><path
         d="M 1023.72,468.961 958.188,436.23 c 10.324,20.598 10.324,44.84 0,65.461 l 65.532,-32.73 v 0 0 0"
         style="fill:#0e0f0e;fill-opacity:1;fill-rule:evenodd;stroke:none"
         id="path120" /><path
         d="m 4169.27,655.141 h 216.67"
         style="fill:none;stroke:#0e0f0e;stroke-width:7.51407;stroke-linecap:round;stroke-linejoin:round;stroke-miterlimit:10;stroke-dasharray:none;stroke-opacity:1"
         id="path122" /><path
         d="m 4435.54,655.141 -65.52,-32.719 c 10.31,20.598 10.31,44.848 0,65.457 l 65.52,-32.738 v 0 0 0"
         style="fill:#0e0f0e;fill-opacity:1;fill-rule:evenodd;stroke:none"
         id="path124" /><g
         id="g126"
         transform="scale(10)"><text
           transform="matrix(1,0,0,-0.99891119,442.62,31.859)"
           style="font-variant:normal;font-weight:normal;font-size:15.781px;font-family:'Microsoft Sans Serif';-inkscape-font-specification:MicrosoftSansSerif;writing-mode:lr-tb;fill:#0e0f0e;fill-opacity:1;fill-rule:nonzero;stroke:none"
           id="text134"><tspan
             x="0 10.699206"
             y="0"
             sodipodi:role="line"
             id="tspan128">X2</tspan><tspan
             x="-397.42972 -389.53925 -385.94116"
             y="-27.592943"
             sodipodi:role="line"
             id="tspan130">clk</tspan><tspan
             x="-397.42972 -389.53925 -385.94116"
             y="-9.5733232"
             sodipodi:role="line"
             id="tspan132">clk</tspan></text></g></g></g></svg>
