<?xml version="1.0" encoding="UTF-8" standalone="no"?>
<svg
   xmlns:dc="http://purl.org/dc/elements/1.1/"
   xmlns:cc="http://creativecommons.org/ns#"
   xmlns:rdf="http://www.w3.org/1999/02/22-rdf-syntax-ns#"
   xmlns:svg="http://www.w3.org/2000/svg"
   xmlns="http://www.w3.org/2000/svg"
   xmlns:sodipodi="http://sodipodi.sourceforge.net/DTD/sodipodi-0.dtd"
   xmlns:inkscape="http://www.inkscape.org/namespaces/inkscape"
   version="1.1"
   id="svg2"
   xml:space="preserve"
   width="598.17334"
   height="210.18668"
   viewBox="0 0 598.17334 210.18668"
   sodipodi:docname="I2CMasterTxSlaveRx_common.svg"
   inkscape:version="1.0.1 (3bc2e813f5, 2020-09-07)"><metadata
     id="metadata8"><rdf:RDF><cc:Work
         rdf:about=""><dc:format>image/svg+xml</dc:format><dc:type
           rdf:resource="http://purl.org/dc/dcmitype/StillImage" /><dc:title></dc:title></cc:Work></rdf:RDF></metadata><defs
     id="defs6" /><sodipodi:namedview
     pagecolor="#ffffff"
     bordercolor="#666666"
     borderopacity="1"
     objecttolerance="10"
     gridtolerance="10"
     guidetolerance="10"
     inkscape:pageopacity="0"
     inkscape:pageshadow="2"
     inkscape:window-width="1920"
     inkscape:window-height="1017"
     id="namedview4"
     showgrid="false"
     inkscape:zoom="1.8389318"
     inkscape:cx="299.08667"
     inkscape:cy="105.09334"
     inkscape:window-x="1912"
     inkscape:window-y="-8"
     inkscape:window-maximized="1"
     inkscape:current-layer="g10" /><g
     id="g10"
     inkscape:groupmode="layer"
     inkscape:label="ink_ext_XXXXXX"
     transform="matrix(1.3333333,0,0,-1.3333333,0,210.18667)"><g
       id="g12"
       transform="scale(0.1)"><path
         d="M 518.965,1402.44 H 747.637 V 1198.81 H 518.965 v 203.63 0 0"
         style="fill:#b5b5b7;fill-opacity:1;fill-rule:evenodd;stroke:none"
         id="path14" /><g
         id="g16"
         transform="scale(10)"><text
           transform="matrix(0.983756,0,0,-1,60.6953,126.201)"
           style="font-variant:normal;font-weight:normal;font-size:10.1762px;font-family:'Times New Roman';-inkscape-font-specification:TimesNewRomanPSMT;writing-mode:lr-tb;fill:#0e0f0e;fill-opacity:1;fill-rule:nonzero;stroke:none"
           id="text20"><tspan
             x="0"
             y="0"
             id="tspan18">S</tspan></text></g><path
         d="M 749.656,1402.44 H 1715.89 V 1202.33 H 749.656 v 200.11 0 0"
         style="fill:#b5b5b7;fill-opacity:1;fill-rule:evenodd;stroke:none"
         id="path22" /><path
         d="m 747.637,1202.33 h 968.253 v 200.11 H 747.637 v -200.11 0 0 z m -228.672,0 h 228.672 v 200.11 H 518.965 v -200.11 0 0 z"
         style="fill:none;stroke:#0e0f0e;stroke-width:7.51407;stroke-linecap:round;stroke-linejoin:round;stroke-miterlimit:10;stroke-dasharray:none;stroke-opacity:1"
         id="path24" /><g
         id="g26"
         transform="scale(10)"><text
           transform="matrix(1,0,0,-0.99891119,80.6641,127.091)"
           style="font-variant:normal;font-weight:normal;font-size:10.0109px;font-family:'Times New Roman';-inkscape-font-specification:TimesNewRomanPSMT;writing-mode:lr-tb;fill:#0e0f0e;fill-opacity:1;fill-rule:nonzero;stroke:none"
           id="text30"><tspan
             x="0 5.5660605 11.68272 18.910589 26.13846 32.255119 34.75898 41.98896 49.218456 56.447948 63.125217 69.23996 74.807831"
             y="0"
             sodipodi:role="line"
             id="tspan28">SLAVE ADDRESS</tspan></text></g><path
         d="m 1715.65,1400.55 h 228.68 v -203.64 h -228.68 v 203.64 0 0"
         style="fill:#b5b5b7;fill-opacity:1;fill-rule:evenodd;stroke:none"
         id="path32" /><g
         id="g34"
         transform="scale(10)"><text
           transform="matrix(0.983756,0,0,-1,173.359,127.013)"
           style="font-variant:normal;font-weight:normal;font-size:10.1762px;font-family:'Times New Roman';-inkscape-font-specification:TimesNewRomanPSMT;writing-mode:lr-tb;fill:#0e0f0e;fill-opacity:1;fill-rule:nonzero;stroke:none"
           id="text38"><tspan
             x="0 6.7875252 9.6171818"
             y="0"
             sodipodi:role="line"
             id="tspan36">R/W</tspan></text></g><path
         d="m 1715.65,1202.33 h 228.68 v 200.11 h -228.68 v -200.11 0 0 z"
         style="fill:none;stroke:#0e0f0e;stroke-width:7.51407;stroke-linecap:round;stroke-linejoin:round;stroke-miterlimit:10;stroke-dasharray:none;stroke-opacity:1"
         id="path40" /><path
         d="m 1829.99,1360.39 h 82.95"
         style="fill:#231f20;fill-opacity:1;fill-rule:nonzero;stroke:none"
         id="path42" /><path
         d="m 1829.99,1360.39 h 82.95"
         style="fill:none;stroke:#0e0f0e;stroke-width:7.5;stroke-linecap:butt;stroke-linejoin:miter;stroke-miterlimit:10;stroke-dasharray:none;stroke-opacity:1"
         id="path44" /><g
         id="g46"
         transform="scale(10)"><text
           transform="matrix(0.983756,0,0,-1,203.391,126.459)"
           style="font-variant:normal;font-weight:normal;font-size:10.1762px;font-family:'Times New Roman';-inkscape-font-specification:TimesNewRomanPSMT;writing-mode:lr-tb;fill:#0e0f0e;fill-opacity:1;fill-rule:nonzero;stroke:none"
           id="text50"><tspan
             x="0"
             y="0"
             id="tspan48">A</tspan></text></g><path
         d="m 1945.98,1202.33 h 228.67 v 200.11 h -228.67 v -200.11 0 0 z"
         style="fill:none;stroke:#0e0f0e;stroke-width:7.51407;stroke-linecap:round;stroke-linejoin:round;stroke-miterlimit:10;stroke-dasharray:none;stroke-opacity:1"
         id="path52" /><path
         d="m 2175.76,1400.55 h 406.13 v -203.64 h -406.13 v 203.64 0 0"
         style="fill:#b5b5b7;fill-opacity:1;fill-rule:evenodd;stroke:none"
         id="path54" /><g
         id="g56"
         transform="scale(10)"><text
           transform="matrix(0.983756,0,0,-1,225.367,126.005)"
           style="font-variant:normal;font-weight:normal;font-size:10.1762px;font-family:'Times New Roman';-inkscape-font-specification:TimesNewRomanPSMT;writing-mode:lr-tb;fill:#0e0f0e;fill-opacity:1;fill-rule:nonzero;stroke:none"
           id="text60"><tspan
             x="0 7.3472166 14.694433 20.91209"
             y="0"
             sodipodi:role="line"
             id="tspan58">DATA</tspan></text></g><path
         d="m 2175.76,1202.33 h 406.13 v 200.11 h -406.13 v -200.11 0 0 z"
         style="fill:none;stroke:#0e0f0e;stroke-width:7.51407;stroke-linecap:round;stroke-linejoin:round;stroke-miterlimit:10;stroke-dasharray:none;stroke-opacity:1"
         id="path62" /><g
         id="g64"
         transform="scale(10)"><text
           transform="matrix(0.983756,0,0,-1,267.477,126.349)"
           style="font-variant:normal;font-weight:normal;font-size:10.1762px;font-family:'Times New Roman';-inkscape-font-specification:TimesNewRomanPSMT;writing-mode:lr-tb;fill:#0e0f0e;fill-opacity:1;fill-rule:nonzero;stroke:none"
           id="text68"><tspan
             x="0"
             y="0"
             id="tspan66">A</tspan></text></g><path
         d="m 2586.89,1201.27 h 228.67 v 200.11 h -228.67 v -200.11 0 0 z"
         style="fill:none;stroke:#0e0f0e;stroke-width:7.51407;stroke-linecap:round;stroke-linejoin:round;stroke-miterlimit:10;stroke-dasharray:none;stroke-opacity:1"
         id="path70" /><path
         d="m 2816.67,1399.48 h 406.12 v -203.63 h -406.12 v 203.63 0 0"
         style="fill:#b5b5b7;fill-opacity:1;fill-rule:evenodd;stroke:none"
         id="path72" /><g
         id="g74"
         transform="scale(10)"><text
           transform="matrix(0.983756,0,0,-1,289.461,125.912)"
           style="font-variant:normal;font-weight:normal;font-size:10.1762px;font-family:'Times New Roman';-inkscape-font-specification:TimesNewRomanPSMT;writing-mode:lr-tb;fill:#0e0f0e;fill-opacity:1;fill-rule:nonzero;stroke:none"
           id="text78"><tspan
             x="0 7.3472166 14.694433 20.91209"
             y="0"
             sodipodi:role="line"
             id="tspan76">DATA</tspan></text></g><path
         d="m 2816.67,1201.27 h 406.12 v 200.11 h -406.12 v -200.11 0 0 z"
         style="fill:none;stroke:#0e0f0e;stroke-width:7.51407;stroke-linecap:round;stroke-linejoin:round;stroke-miterlimit:10;stroke-dasharray:none;stroke-opacity:1"
         id="path80" /><g
         id="g82"
         transform="scale(10)"><text
           transform="matrix(0.983756,0,0,-1,327.102,126.466)"
           style="font-variant:normal;font-weight:normal;font-size:10.1762px;font-family:'Times New Roman';-inkscape-font-specification:TimesNewRomanPSMT;writing-mode:lr-tb;fill:#0e0f0e;fill-opacity:1;fill-rule:nonzero;stroke:none"
           id="text86"><tspan
             x="0 7.3488545 10.172256"
             y="0"
             sodipodi:role="line"
             id="tspan84">A/A</tspan></text></g><path
         d="m 3229.26,1202.43 h 262.51 v 200.11 h -262.51 v -200.11 0 0 z"
         style="fill:none;stroke:#0e0f0e;stroke-width:7.51407;stroke-linecap:round;stroke-linejoin:round;stroke-miterlimit:10;stroke-dasharray:none;stroke-opacity:1"
         id="path88" /><path
         d="m 3492.88,1400.64 h 210.06 v -203.63 h -210.06 v 203.63 0 0"
         style="fill:#b5b5b7;fill-opacity:1;fill-rule:evenodd;stroke:none"
         id="path90" /><g
         id="g92"
         transform="scale(10)"><text
           transform="matrix(0.983756,0,0,-1,357.086,126.013)"
           style="font-variant:normal;font-weight:normal;font-size:10.1762px;font-family:'Times New Roman';-inkscape-font-specification:TimesNewRomanPSMT;writing-mode:lr-tb;fill:#0e0f0e;fill-opacity:1;fill-rule:nonzero;stroke:none"
           id="text96"><tspan
             x="0"
             y="0"
             id="tspan94">P</tspan></text></g><path
         d="m 3492.88,1202.43 h 210.06 v 200.11 h -210.06 v -200.11 0 0 z"
         style="fill:none;stroke:#0e0f0e;stroke-width:7.51407;stroke-linecap:round;stroke-linejoin:round;stroke-miterlimit:10;stroke-dasharray:none;stroke-opacity:1"
         id="path98" /><path
         d="m 3379.79,1361.65 h 59.05"
         style="fill:#231f20;fill-opacity:1;fill-rule:nonzero;stroke:none"
         id="path100" /><path
         d="m 3379.79,1361.65 h 59.05"
         style="fill:none;stroke:#0e0f0e;stroke-width:7.5;stroke-linecap:butt;stroke-linejoin:miter;stroke-miterlimit:10;stroke-dasharray:none;stroke-opacity:1"
         id="path102" /><path
         d="M 1829.99,1148.18 V 1001.65"
         style="fill:#231f20;fill-opacity:1;fill-rule:nonzero;stroke:none"
         id="path104" /><path
         d="M 1829.99,1148.18 V 1001.65"
         style="fill:none;stroke:#0e0f0e;stroke-width:7.5;stroke-linecap:butt;stroke-linejoin:miter;stroke-miterlimit:10;stroke-dasharray:none;stroke-opacity:1"
         id="path106" /><g
         id="g108"
         transform="scale(10)"><text
           transform="matrix(0.983756,0,0,-1,165.25,88.6148)"
           style="font-variant:normal;font-weight:normal;font-size:10.1762px;font-family:'Times New Roman';-inkscape-font-specification:TimesNewRomanPSMT;writing-mode:lr-tb;fill:#0e0f0e;fill-opacity:1;fill-rule:nonzero;stroke:none"
           id="text112"><tspan
             x="0 1.8317159 6.919816 8.7515316 12.14414 19.491356 22.880032 25.709015 28.537998 33.060066"
             y="0"
             sodipodi:role="line"
             id="tspan110">'0'(write)</tspan></text><text
           transform="matrix(1,0,0,-0.94501881,233.531,85.7242)"
           style="font-variant:normal;font-weight:normal;font-size:10.7683px;font-family:'Times New Roman';-inkscape-font-specification:TimesNewRomanPSMT;writing-mode:lr-tb;fill:#0e0f0e;fill-opacity:1;fill-rule:nonzero;stroke:none"
           id="text116"><tspan
             x="0 3.5858276 8.9699535 11.662016 17.046143 22.430878 25.422083 30.201357 34.392746 37.084171 43.157467 45.849529 50.628826 55.4081 60.792225 66.176964 71.561089 79.337425 82.329605 87.108879 92.493004 97.877762 102.65778"
             y="0"
             sodipodi:role="line"
             id="tspan114">(n bytes + acknowledge)</tspan></text></g><path
         d="M 2166.94,1146.07 V 999.551"
         style="fill:#231f20;fill-opacity:1;fill-rule:nonzero;stroke:none"
         id="path118" /><path
         d="M 2166.94,1146.07 V 999.551"
         style="fill:none;stroke:#0e0f0e;stroke-width:7.5;stroke-linecap:butt;stroke-linejoin:miter;stroke-miterlimit:10;stroke-dasharray:none;stroke-opacity:1"
         id="path120" /><path
         d="M 3486.94,1156.07 V 1009.55"
         style="fill:#231f20;fill-opacity:1;fill-rule:nonzero;stroke:none"
         id="path122" /><path
         d="m 3486.94,1009.55 -1320,-9.999 m 1320,156.519 v -146.52"
         style="fill:none;stroke:#0e0f0e;stroke-width:7.5;stroke-linecap:butt;stroke-linejoin:miter;stroke-miterlimit:10;stroke-dasharray:none;stroke-opacity:1"
         id="path124" /><path
         d="m 3222.79,929.023 h -767.96 v 156.627 h 767.96 v -156.627 0"
         style="fill:#ffffff;fill-opacity:1;fill-rule:nonzero;stroke:none"
         id="path126" /><g
         id="g128"
         transform="scale(10)"><text
           transform="matrix(1,0,0,-0.87433223,250.195,97.7168)"
           style="font-variant:normal;font-weight:normal;font-size:10.7683px;font-family:'Times New Roman';-inkscape-font-specification:TimesNewRomanPSMT;writing-mode:lr-tb;fill:#0e0f0e;fill-opacity:1;fill-rule:nonzero;stroke:none"
           id="text132"><tspan
             x="0 5.3841662 10.164452 13.15568 17.934988 20.627071 23.619276 27.20513 31.98444 37.368607 41.559048 45.144905 49.924236 53.51009 57.095947 61.875233"
             y="0"
             sodipodi:role="line"
             id="tspan130">data transferred</tspan></text></g><path
         d="M 572.605,634.629 H 801.277 V 430.988 H 572.605 v 203.641 0 0"
         style="fill:#b5b5b7;fill-opacity:1;fill-rule:evenodd;stroke:none"
         id="path134" /><path
         d="M 582.605,432.762 H 811.277 V 632.859 H 582.605 v -200.097 0 0 z"
         style="fill:none;stroke:#0e0f0e;stroke-width:7.51407;stroke-linecap:round;stroke-linejoin:round;stroke-miterlimit:10;stroke-dasharray:none;stroke-opacity:1"
         id="path136" /><g
         id="g138"
         transform="scale(10)"><text
           transform="matrix(1,0,0,-0.94500988,86.5391,50.6148)"
           style="font-variant:normal;font-weight:normal;font-size:10.5819px;font-family:'Times New Roman';-inkscape-font-specification:TimesNewRomanPSMT;writing-mode:lr-tb;fill:#0e0f0e;fill-opacity:1;fill-rule:nonzero;stroke:none"
           id="text142"><tspan
             x="0 3.5237727 7.0475454 12.338495 20.569138 23.214613 31.447332 36.145695 40.262054 43.203823 47.902187 51.425961 54.071434 57.013203 62.304153 64.949631 69.060936 72.002701 76.701065 81.983978"
             y="0"
             sodipodi:role="line"
             id="tspan140">from master to slave</tspan></text></g><path
         d="M 584.109,192.762 H 812.781 V 392.859 H 584.109 v -200.097 0 0 z"
         style="fill:none;stroke:#0e0f0e;stroke-width:7.51407;stroke-linecap:round;stroke-linejoin:round;stroke-miterlimit:10;stroke-dasharray:none;stroke-opacity:1"
         id="path144" /><g
         id="g146"
         transform="scale(10)"><text
           transform="matrix(1,0,0,-0.94500988,87.6797,26.623)"
           style="font-variant:normal;font-weight:normal;font-size:10.5819px;font-family:'Times New Roman';-inkscape-font-specification:TimesNewRomanPSMT;writing-mode:lr-tb;fill:#0e0f0e;fill-opacity:1;fill-rule:nonzero;stroke:none"
           id="text150"><tspan
             x="0 3.5237727 7.0475454 12.338495 20.569138 23.214613 27.330973 30.272741 34.971104 40.262054 44.960419 47.605892 50.547661 55.838612 58.484085 66.716805 71.415169 75.525391 78.467155 83.16552"
             y="0"
             sodipodi:role="line"
             id="tspan148">from slave to master</tspan></text><text
           transform="matrix(0.983756,0,0,-1,233.25,56.6148)"
           style="font-variant:normal;font-weight:normal;font-size:10.1762px;font-family:'Times New Roman';-inkscape-font-specification:TimesNewRomanPSMT;writing-mode:lr-tb;fill:#0e0f0e;fill-opacity:1;fill-rule:nonzero;stroke:none"
           id="text156"><tspan
             x="0 7.3488545 9.8929043 15.631636 18.175686 22.692406 27.209124 32.296654 37.384754 42.472282 49.822128 52.6493 57.166019 62.253548 67.341652 71.858368 75.246422 80.906723 88.255577 95.604431 98.14769 104.36388 111.71274 121.31798"
             y="0"
             sodipodi:role="line"
             id="tspan152">A = acknowledge(SDA LOW)</tspan><tspan
             x="0.28549701 7.6343513 10.178401 15.917133 18.461184 23.548712 28.636812 31.463984 34.008034 38.524754 43.041473 48.129002 53.217102 58.305202 65.654053 68.481224 72.997948 78.085472 83.173576 87.690292 91.078346 96.738647 104.0875 111.43636 113.97961 121.32946 124.71751 132.06638 139.41519"
             y="15"
             sodipodi:role="line"
             id="tspan154">A = not acknowledge(SDA HIGH)</tspan></text></g><path
         d="m 2337.41,482.809 h 59.05"
         style="fill:#231f20;fill-opacity:1;fill-rule:nonzero;stroke:none"
         id="path158" /><path
         d="m 2337.41,482.809 h 59.05"
         style="fill:none;stroke:#0e0f0e;stroke-width:7.5;stroke-linecap:butt;stroke-linejoin:miter;stroke-miterlimit:10;stroke-dasharray:none;stroke-opacity:1"
         id="path160" /><g
         id="g162"
         transform="scale(10)"><text
           transform="matrix(0.983756,0,0,-1,234.086,28.6148)"
           style="font-variant:normal;font-weight:normal;font-size:10.1762px;font-family:'Times New Roman';-inkscape-font-specification:TimesNewRomanPSMT;writing-mode:lr-tb;fill:#0e0f0e;fill-opacity:1;fill-rule:nonzero;stroke:none"
           id="text168"><tspan
             x="0 5.6593075 8.2033577 13.942089 16.486139 22.145447 28.361666 35.710518 42.498043 48.713295 51.257347 55.774063 60.862164 65.949669 71.037766 73.864944 76.692116 79.519287 84.606438"
             y="0"
             sodipodi:role="line"
             id="tspan164">S = START condition</tspan><tspan
             x="-0.34148499 5.3178225 7.8618722 13.600604 16.144653 21.803961 28.02018 35.369034 41.028316 43.572369 48.089085 53.177185 58.26469 63.352791 66.179962 69.007133 71.834305 76.920265"
             y="13.125"
             sodipodi:role="line"
             id="tspan166">P = STOP condition</tspan></text></g><path
         d="M 3.75391,3.76172 H 4482.5 V 1572.6 H 3.75391 V 3.76172 v 0 0 z"
         style="fill:none;stroke:#0e0f0e;stroke-width:7.51407;stroke-linecap:round;stroke-linejoin:round;stroke-miterlimit:10;stroke-dasharray:none;stroke-opacity:1"
         id="path170" /></g></g></svg>
