<?xml version="1.0" encoding="UTF-8" standalone="no"?>
<svg
   xmlns:dc="http://purl.org/dc/elements/1.1/"
   xmlns:cc="http://creativecommons.org/ns#"
   xmlns:rdf="http://www.w3.org/1999/02/22-rdf-syntax-ns#"
   xmlns:svg="http://www.w3.org/2000/svg"
   xmlns="http://www.w3.org/2000/svg"
   xmlns:sodipodi="http://sodipodi.sourceforge.net/DTD/sodipodi-0.dtd"
   xmlns:inkscape="http://www.inkscape.org/namespaces/inkscape"
   version="1.1"
   id="svg2"
   xml:space="preserve"
   width="597.82666"
   height="527.54669"
   viewBox="0 0 597.82666 527.54669"
   sodipodi:docname="DMA_LLI.svg"
   inkscape:version="1.0.1 (3bc2e813f5, 2020-09-07)"><metadata
     id="metadata8"><rdf:RDF><cc:Work
         rdf:about=""><dc:format>image/svg+xml</dc:format><dc:type
           rdf:resource="http://purl.org/dc/dcmitype/StillImage" /><dc:title></dc:title></cc:Work></rdf:RDF></metadata><defs
     id="defs6" /><sodipodi:namedview
     pagecolor="#ffffff"
     bordercolor="#666666"
     borderopacity="1"
     objecttolerance="10"
     gridtolerance="10"
     guidetolerance="10"
     inkscape:pageopacity="0"
     inkscape:pageshadow="2"
     inkscape:window-width="786"
     inkscape:window-height="480"
     id="namedview4"
     showgrid="false"
     inkscape:zoom="1.6093362"
     inkscape:cx="298.91333"
     inkscape:cy="263.77335"
     inkscape:window-x="0"
     inkscape:window-y="0"
     inkscape:window-maximized="0"
     inkscape:current-layer="g10" /><g
     id="g10"
     inkscape:groupmode="layer"
     inkscape:label="ink_ext_XXXXXX"
     transform="matrix(1.3333333,0,0,-1.3333333,0,527.54667)"><g
       id="g12"
       transform="scale(0.1)"><path
         d="m 1582.11,3101.27 h 848.22 v 144.79 h -848.22 v -144.79 0 z"
         style="fill:none;stroke:#0e0f0f;stroke-width:5;stroke-linecap:round;stroke-linejoin:round;stroke-miterlimit:10;stroke-dasharray:none;stroke-opacity:1"
         id="path14" /><g
         id="g16"
         transform="scale(10)"><text
           transform="matrix(1,0,0,-0.99579773,161.634,314.298)"
           style="font-variant:normal;font-weight:normal;font-size:10.2596px;font-family:'Microsoft Sans Serif';-inkscape-font-specification:MicrosoftSansSerif;writing-mode:lr-tb;fill:#0e0f0f;fill-opacity:1;fill-rule:nonzero;stroke:none"
           id="text20"><tspan
             x="0 7.0488386 12.816038 17.94808 21.785198 26.915005 32.682205 35.254082 42.302143 48.07011 53.201359 57.038074 62.806042 67.935852"
             y="0"
             sodipodi:role="line"
             id="tspan18">Source Address</tspan></text></g><path
         d="m 1582.11,2956.46 h 848.22 v 144.81 h -848.22 v -144.81 0 z"
         style="fill:none;stroke:#0e0f0f;stroke-width:5;stroke-linecap:round;stroke-linejoin:round;stroke-miterlimit:10;stroke-dasharray:none;stroke-opacity:1"
         id="path22" /><g
         id="g24"
         transform="scale(10)"><text
           transform="matrix(1,0,0,-0.99579773,161.634,299.821)"
           style="font-variant:normal;font-weight:normal;font-size:10.2596px;font-family:'Microsoft Sans Serif';-inkscape-font-specification:MicrosoftSansSerif;writing-mode:lr-tb;fill:#0e0f0f;fill-opacity:1;fill-rule:nonzero;stroke:none"
           id="text28"><tspan
             x="0 7.6859446 12.817986 17.947794 21.146622 23.718891 30.766951 36.53376 42.301739 45.512672 51.28064 56.41045"
             y="0"
             sodipodi:role="line"
             id="tspan26">Dest Address</tspan></text></g><path
         d="m 1582.11,2811.66 h 848.22 v 144.8 h -848.22 v -144.8 0 z"
         style="fill:none;stroke:#0e0f0f;stroke-width:5;stroke-linecap:round;stroke-linejoin:round;stroke-miterlimit:10;stroke-dasharray:none;stroke-opacity:1"
         id="path30" /><g
         id="g32"
         transform="scale(10)"><text
           transform="matrix(1,0,0,-0.99579773,161.634,285.345)"
           style="font-variant:normal;font-weight:normal;font-size:10.2596px;font-family:'Microsoft Sans Serif';-inkscape-font-specification:MicrosoftSansSerif;writing-mode:lr-tb;fill:#0e0f0f;fill-opacity:1;fill-rule:nonzero;stroke:none"
           id="text36"><tspan
             x="0 7.6859446 12.817986 17.947794 21.146622 23.718891 29.485701 35.253681"
             y="0"
             sodipodi:role="line"
             id="tspan34">Next LLI</tspan></text></g><path
         d="m 1582.11,2666.86 h 848.22 v 144.8 h -848.22 v -144.8 0 z"
         style="fill:none;stroke:#0e0f0f;stroke-width:5;stroke-linecap:round;stroke-linejoin:round;stroke-miterlimit:10;stroke-dasharray:none;stroke-opacity:1"
         id="path38" /><g
         id="g40"
         transform="scale(10)"><text
           transform="matrix(1,0,0,-0.99579773,161.634,270.861)"
           style="font-variant:normal;font-weight:normal;font-size:10.2596px;font-family:'Microsoft Sans Serif';-inkscape-font-specification:MicrosoftSansSerif;writing-mode:lr-tb;fill:#0e0f0f;fill-opacity:1;fill-rule:nonzero;stroke:none"
           id="text44"><tspan
             x="0 7.6859446 16.028149 23.076208 25.646914 32.708248 38.47506 44.243027 47.442245 50.653961 56.421146"
             y="0"
             sodipodi:role="line"
             id="tspan42">DMA Control</tspan></text></g><path
         d="m 2006.22,2425.52 h 848.23 v 144.81 h -848.23 v -144.81 0 z"
         style="fill:none;stroke:#0e0f0f;stroke-width:5;stroke-linecap:round;stroke-linejoin:round;stroke-miterlimit:10;stroke-dasharray:none;stroke-opacity:1"
         id="path46" /><g
         id="g48"
         transform="scale(10)"><text
           transform="matrix(1,0,0,-0.99579773,204.041,246.728)"
           style="font-variant:normal;font-weight:normal;font-size:10.2596px;font-family:'Microsoft Sans Serif';-inkscape-font-specification:MicrosoftSansSerif;writing-mode:lr-tb;fill:#0e0f0f;fill-opacity:1;fill-rule:nonzero;stroke:none"
           id="text52"><tspan
             x="0 7.0480456 12.814842 17.946873 21.785151 26.914957 32.682144 35.253242 42.301289 48.069256 53.201286 57.038002 62.805191 67.934998"
             y="0"
             sodipodi:role="line"
             id="tspan50">Source Address</tspan></text></g><path
         d="m 2006.22,2280.72 h 848.23 v 144.8 h -848.23 v -144.8 0 z"
         style="fill:none;stroke:#0e0f0f;stroke-width:5;stroke-linecap:round;stroke-linejoin:round;stroke-miterlimit:10;stroke-dasharray:none;stroke-opacity:1"
         id="path54" /><g
         id="g56"
         transform="scale(10)"><text
           transform="matrix(1,0,0,-0.99579773,204.041,232.251)"
           style="font-variant:normal;font-weight:normal;font-size:10.2596px;font-family:'Microsoft Sans Serif';-inkscape-font-specification:MicrosoftSansSerif;writing-mode:lr-tb;fill:#0e0f0f;fill-opacity:1;fill-rule:nonzero;stroke:none"
           id="text60"><tspan
             x="0 7.685957 12.817205 17.947012 21.147013 23.718111 30.766155 36.534122 42.301311 45.512245 51.280212 56.410019"
             y="0"
             sodipodi:role="line"
             id="tspan58">Dest Address</tspan></text></g><path
         d="m 2006.22,2135.92 h 848.23 v 144.8 h -848.23 v -144.8 0 z"
         style="fill:none;stroke:#0e0f0f;stroke-width:5;stroke-linecap:round;stroke-linejoin:round;stroke-miterlimit:10;stroke-dasharray:none;stroke-opacity:1"
         id="path62" /><g
         id="g64"
         transform="scale(10)"><text
           transform="matrix(1,0,0,-0.99579773,204.041,217.767)"
           style="font-variant:normal;font-weight:normal;font-size:10.2596px;font-family:'Microsoft Sans Serif';-inkscape-font-specification:MicrosoftSansSerif;writing-mode:lr-tb;fill:#0e0f0f;fill-opacity:1;fill-rule:nonzero;stroke:none"
           id="text68"><tspan
             x="0 7.685957 12.817205 17.947012 21.147013 23.718111 29.486078 35.253265"
             y="0"
             sodipodi:role="line"
             id="tspan66">Next LLI</tspan></text></g><path
         d="m 2006.22,1991.12 h 848.23 v 144.8 h -848.23 v -144.8 0 z"
         style="fill:none;stroke:#0e0f0f;stroke-width:5;stroke-linecap:round;stroke-linejoin:round;stroke-miterlimit:10;stroke-dasharray:none;stroke-opacity:1"
         id="path70" /><g
         id="g72"
         transform="scale(10)"><text
           transform="matrix(1,0,0,-0.99579773,204.041,203.283)"
           style="font-variant:normal;font-weight:normal;font-size:10.2596px;font-family:'Microsoft Sans Serif';-inkscape-font-specification:MicrosoftSansSerif;writing-mode:lr-tb;fill:#0e0f0f;fill-opacity:1;fill-rule:nonzero;stroke:none"
           id="text76"><tspan
             x="0 7.685957 16.026989 23.076208 25.646914 32.70787 38.47506 44.243027 47.442245 50.653961 56.421146"
             y="0"
             sodipodi:role="line"
             id="tspan74">DMA Control</tspan></text></g><path
         d="m 2284.92,1413.57 h 848.23 v 488.86 h -848.23 v -488.86 0 z"
         style="fill:none;stroke:#0e0f0f;stroke-width:5;stroke-linecap:round;stroke-linejoin:round;stroke-miterlimit:10;stroke-dasharray:none;stroke-opacity:1"
         id="path78" /><g
         id="g80"
         transform="scale(10)"><text
           transform="matrix(1,0,0,-0.99579773,269.908,173.673)"
           style="font-variant:normal;font-weight:normal;font-size:10.2596px;font-family:'Microsoft Sans Serif';-inkscape-font-specification:MicrosoftSansSerif;writing-mode:lr-tb;fill:#0e0f0f;fill-opacity:1;fill-rule:nonzero;stroke:none"
           id="text88"><tspan
             x="0"
             y="0"
             id="tspan82">·</tspan><tspan
             x="0"
             y="12.311938"
             id="tspan84">·</tspan><tspan
             x="0"
             y="24.622671"
             id="tspan86">·</tspan></text></g><path
         d="m 2612.09,1074.05 h 848.24 v 144.79 h -848.24 v -144.79 0 z"
         style="fill:none;stroke:#0e0f0f;stroke-width:5;stroke-linecap:round;stroke-linejoin:round;stroke-miterlimit:10;stroke-dasharray:none;stroke-opacity:1"
         id="path90" /><g
         id="g92"
         transform="scale(10)"><text
           transform="matrix(1,0,0,-0.99579773,264.626,111.572)"
           style="font-variant:normal;font-weight:normal;font-size:10.2596px;font-family:'Microsoft Sans Serif';-inkscape-font-specification:MicrosoftSansSerif;writing-mode:lr-tb;fill:#0e0f0f;fill-opacity:1;fill-rule:nonzero;stroke:none"
           id="text96"><tspan
             x="0 7.0480456 12.816014 17.947653 21.785933 26.915739 32.682533 35.253632 42.301678 48.069649 53.201675 57.038395 62.80558 67.935387"
             y="0"
             sodipodi:role="line"
             id="tspan94">Source Address</tspan></text></g><path
         d="m 2612.09,929.238 h 848.24 v 144.812 h -848.24 v -144.812 0 z"
         style="fill:none;stroke:#0e0f0f;stroke-width:5;stroke-linecap:round;stroke-linejoin:round;stroke-miterlimit:10;stroke-dasharray:none;stroke-opacity:1"
         id="path98" /><g
         id="g100"
         transform="scale(10)"><text
           transform="matrix(1,0,0,-0.99579773,264.626,97.1031)"
           style="font-variant:normal;font-weight:normal;font-size:10.2596px;font-family:'Microsoft Sans Serif';-inkscape-font-specification:MicrosoftSansSerif;writing-mode:lr-tb;fill:#0e0f0f;fill-opacity:1;fill-rule:nonzero;stroke:none"
           id="text104"><tspan
             x="0 7.6867385 12.817986 17.947794 21.147795 23.718891 30.766937 36.534904 42.302094 45.513027 51.280994 56.410801"
             y="0"
             sodipodi:role="line"
             id="tspan102">Dest Address</tspan></text></g><path
         d="m 2612.09,784.441 h 848.24 v 144.797 h -848.24 v -144.797 0 z"
         style="fill:none;stroke:#0e0f0f;stroke-width:5;stroke-linecap:round;stroke-linejoin:round;stroke-miterlimit:10;stroke-dasharray:none;stroke-opacity:1"
         id="path106" /><g
         id="g108"
         transform="scale(10)"><text
           transform="matrix(1,0,0,-0.99579773,264.626,82.6191)"
           style="font-variant:normal;font-weight:normal;font-size:10.2596px;font-family:'Microsoft Sans Serif';-inkscape-font-specification:MicrosoftSansSerif;writing-mode:lr-tb;fill:#0e0f0f;fill-opacity:1;fill-rule:nonzero;stroke:none"
           id="text112"><tspan
             x="0 7.6867385 12.817986 17.947794 21.147795 23.718891 29.48686 35.254047"
             y="0"
             sodipodi:role="line"
             id="tspan110">Next LLI</tspan></text></g><path
         d="m 2612.09,639.641 h 848.24 v 144.8 h -848.24 v -144.8 0 z"
         style="fill:none;stroke:#0e0f0f;stroke-width:5;stroke-linecap:round;stroke-linejoin:round;stroke-miterlimit:10;stroke-dasharray:none;stroke-opacity:1"
         id="path114" /><g
         id="g116"
         transform="scale(10)"><text
           transform="matrix(1,0,0,-0.99579773,264.626,68.134)"
           style="font-variant:normal;font-weight:normal;font-size:10.2596px;font-family:'Microsoft Sans Serif';-inkscape-font-specification:MicrosoftSansSerif;writing-mode:lr-tb;fill:#0e0f0f;fill-opacity:1;fill-rule:nonzero;stroke:none"
           id="text120"><tspan
             x="0 7.6867385 16.027771 23.075817 25.646915 32.707088 38.47506 44.243027 47.441856 50.65279 56.419975"
             y="0"
             sodipodi:role="line"
             id="tspan118">DMA Control</tspan></text></g><path
         d="m 2430.33,2884.06 h 169.65 v -271.59"
         style="fill:none;stroke:#0e0f0f;stroke-width:5;stroke-linecap:round;stroke-linejoin:round;stroke-miterlimit:10;stroke-dasharray:none;stroke-opacity:1"
         id="path122" /><path
         d="m 2599.98,2570.33 -27.96,55.68 c 17.6,-8.77 38.32,-8.77 55.91,0 l -27.95,-55.68 v 0 0"
         style="fill:#0e0f0f;fill-opacity:1;fill-rule:evenodd;stroke:none"
         id="path124" /><path
         d="m 2856.87,2208.32 h 169.65 v -271.59"
         style="fill:none;stroke:#0e0f0f;stroke-width:5;stroke-linecap:round;stroke-linejoin:round;stroke-miterlimit:10;stroke-dasharray:none;stroke-opacity:1"
         id="path126" /><path
         d="m 3026.52,1894.58 -27.96,55.69 c 17.6,-8.77 38.32,-8.77 55.92,0 l -27.96,-55.69 v 0 0"
         style="fill:#0e0f0f;fill-opacity:1;fill-rule:evenodd;stroke:none"
         id="path128" /><path
         d="M 3133.15,1532.58 H 3302.8 V 1260.99"
         style="fill:none;stroke:#0e0f0f;stroke-width:5;stroke-linecap:round;stroke-linejoin:round;stroke-miterlimit:10;stroke-dasharray:none;stroke-opacity:1"
         id="path130" /><path
         d="m 3302.8,1218.84 -27.96,55.69 c 17.59,-8.76 38.32,-8.76 55.92,0 l -27.96,-55.69 v 0 0"
         style="fill:#0e0f0f;fill-opacity:1;fill-rule:evenodd;stroke:none"
         id="path132" /><path
         d="m 1218.58,3473.99 h 848.23 v 170.28 h -848.23 v -170.28 0 z"
         style="fill:none;stroke:#0e0f0f;stroke-width:5;stroke-linecap:round;stroke-linejoin:round;stroke-miterlimit:10;stroke-dasharray:none;stroke-opacity:1"
         id="path134" /><g
         id="g136"
         transform="scale(10)"><text
           transform="matrix(1,0,0,-0.99579773,152.869,352.845)"
           style="font-variant:normal;font-weight:normal;font-size:10.2596px;font-family:'Microsoft Sans Serif';-inkscape-font-specification:MicrosoftSansSerif;writing-mode:lr-tb;fill:#0e0f0f;fill-opacity:1;fill-rule:nonzero;stroke:none"
           id="text140"><tspan
             x="0 2.5730464 10.258991 16.026972"
             y="0"
             sodipodi:role="line"
             id="tspan138">IDLE</tspan></text></g><path
         d="m 2066.81,3559.8 h 169.64 v -271.59"
         style="fill:none;stroke:#0e0f0f;stroke-width:5;stroke-linecap:round;stroke-linejoin:round;stroke-miterlimit:10;stroke-dasharray:none;stroke-opacity:1"
         id="path142" /><path
         d="m 2236.45,3246.06 -27.96,55.68 c 17.61,-8.76 38.32,-8.76 55.92,0 l -27.96,-55.68 v 0 0"
         style="fill:#0e0f0f;fill-opacity:1;fill-rule:evenodd;stroke:none"
         id="path144" /><g
         id="g146"
         transform="scale(10)"><text
           transform="matrix(1,0,0,-0.99579773,227.064,344.4)"
           style="font-variant:normal;font-weight:normal;font-size:10.2596px;font-family:'Microsoft Sans Serif';-inkscape-font-specification:MicrosoftSansSerif;writing-mode:lr-tb;fill:#0e0f0f;fill-opacity:1;fill-rule:nonzero;stroke:none"
           id="text162"><tspan
             x="0 5.129807 10.896604 16.664572 22.432541 28.199726 33.331757 35.886845 38.458721 44.226692 49.993877 55.761845 61.528641 64.084511"
             y="0"
             sodipodi:role="line"
             id="tspan148">channel enable</tspan><tspan
             x="36.351959 38.925007 44.691803 47.892975 54.303154 61.362156 68.41098 74.178947 79.946136 85.076996 87.632866 93.444969"
             y="61.705402"
             sodipodi:role="line"
             id="tspan150">IntTCEnable=</tspan><tspan
             x="36.351959"
             y="74.01413"
             id="tspan152">0</tspan><tspan
             x="79.976982 82.550034 88.316826 91.517998 97.928177 104.98718 112.036 117.80397 123.57116 128.70203 131.25789 137.06999"
             y="129.56046"
             sodipodi:role="line"
             id="tspan154">IntTCEnable=</tspan><tspan
             x="79.976982"
             y="141.877"
             id="tspan156">0</tspan><tspan
             x="107.85202 110.42507 116.19186 119.39304 125.80322 132.86221 139.91104 145.67902 151.4462 156.57706 159.13292 164.93723"
             y="197.42374"
             sodipodi:role="line"
             id="tspan158">IntTCEnable=</tspan><tspan
             x="107.85202"
             y="209.73326"
             id="tspan160">0</tspan></text></g><path
         d="M 3036.21,639.641 V 350.031 H 1097.41 V 3547.73 h 78.85"
         style="fill:none;stroke:#0e0f0f;stroke-width:5;stroke-linecap:round;stroke-linejoin:round;stroke-miterlimit:10;stroke-dasharray:none;stroke-opacity:1"
         id="path164" /><path
         d="m 1218.58,3547.73 -55.92,-27.84 c 8.81,17.53 8.81,38.16 0,55.68 l 55.92,-27.84 v 0 0"
         style="fill:#0e0f0f;fill-opacity:1;fill-rule:evenodd;stroke:none"
         id="path166" /><g
         id="g168"
         transform="scale(10)"><text
           transform="matrix(1,0,0,-0.99579773,43.9781,192.454)"
           style="font-variant:normal;font-weight:normal;font-size:10.2596px;font-family:'Microsoft Sans Serif';-inkscape-font-specification:MicrosoftSansSerif;writing-mode:lr-tb;fill:#0e0f0f;fill-opacity:1;fill-rule:nonzero;stroke:none"
           id="text174"><tspan
             x="0 2.5738304 8.3410234 11.540639 17.951195 25.011753 32.060204 37.827785 43.594978 48.727016 51.281704 57.077805"
             y="0"
             sodipodi:role="line"
             id="tspan170">IntTCEnable=</tspan><tspan
             x="0"
             y="12.308725"
             id="tspan172">1</tspan></text></g><path
         d="M 4481.24,2.5 H 2.5 v 3951.61 h 4478.74 z"
         style="fill:none;stroke:#231f20;stroke-width:5;stroke-linecap:butt;stroke-linejoin:miter;stroke-miterlimit:10;stroke-dasharray:none;stroke-opacity:1"
         id="path176" /></g></g></svg>
