<?xml version="1.0" encoding="UTF-8" standalone="no"?>
<svg
   xmlns:dc="http://purl.org/dc/elements/1.1/"
   xmlns:cc="http://creativecommons.org/ns#"
   xmlns:rdf="http://www.w3.org/1999/02/22-rdf-syntax-ns#"
   xmlns:svg="http://www.w3.org/2000/svg"
   xmlns="http://www.w3.org/2000/svg"
   xmlns:sodipodi="http://sodipodi.sourceforge.net/DTD/sodipodi-0.dtd"
   xmlns:inkscape="http://www.inkscape.org/namespaces/inkscape"
   version="1.1"
   id="svg2"
   xml:space="preserve"
   width="598.17334"
   height="286.98666"
   viewBox="0 0 598.17334 286.98666"
   sodipodi:docname="tx_rx_together.svg"
   inkscape:version="1.0.1 (3bc2e813f5, 2020-09-07)"><metadata
     id="metadata8"><rdf:RDF><cc:Work
         rdf:about=""><dc:format>image/svg+xml</dc:format><dc:type
           rdf:resource="http://purl.org/dc/dcmitype/StillImage" /><dc:title></dc:title></cc:Work></rdf:RDF></metadata><defs
     id="defs6" /><sodipodi:namedview
     pagecolor="#ffffff"
     bordercolor="#666666"
     borderopacity="1"
     objecttolerance="10"
     gridtolerance="10"
     guidetolerance="10"
     inkscape:pageopacity="0"
     inkscape:pageshadow="2"
     inkscape:window-width="786"
     inkscape:window-height="480"
     id="namedview4"
     showgrid="false"
     inkscape:zoom="1.8389318"
     inkscape:cx="299.08667"
     inkscape:cy="143.49333"
     inkscape:window-x="0"
     inkscape:window-y="0"
     inkscape:window-maximized="0"
     inkscape:current-layer="g10" /><g
     id="g10"
     inkscape:groupmode="layer"
     inkscape:label="ink_ext_XXXXXX"
     transform="matrix(1.3333333,0,0,-1.3333333,0,286.98667)"><g
       id="g12"
       transform="scale(0.1)"><g
         id="g14"
         transform="scale(10)"><text
           transform="matrix(1,0,0,-1,21.8984,163.579)"
           style="font-variant:normal;font-weight:normal;font-size:11px;font-family:Arial;-inkscape-font-specification:ArialMT;writing-mode:lr-tb;fill:#344ea9;fill-opacity:1;fill-rule:nonzero;stroke:none"
           id="text18"><tspan
             x="0 7.9438496 14.468749 20.37402 27.703125"
             y="0"
             sodipodi:role="line"
             id="tspan16">DATA1</tspan></text></g><path
         d="m 657.211,1780.77 h 200 c 2.766,0 5,2.23 5,5 0,2.75 -2.234,5 -5,5 h -200 c -2.758,0 -5,-2.25 -5,-5 0,-2.77 2.242,-5 5,-5"
         style="fill:#0e0f0f;fill-opacity:1;fill-rule:nonzero;stroke:none"
         id="path20" /><path
         d="m 857.211,1780.77 h 199.999 c 2.76,0 5,2.23 5,5 0,2.75 -2.24,5 -5,5 H 857.211 c -2.758,0 -5,-2.25 -5,-5 0,-2.77 2.242,-5 5,-5"
         style="fill:#0e0f0f;fill-opacity:1;fill-rule:nonzero;stroke:none"
         id="path22" /><path
         d="m 1057.21,1780.77 h 26.28 l 60,-200 h 113.72 c 2.76,0 5,2.23 5,5 0,2.75 -2.24,5 -5,5 h -106.28 l -60,200 h -33.72 c -2.76,0 -5,-2.25 -5,-5 0,-2.77 2.24,-5 5,-5 v 0"
         style="fill:#0e0f0f;fill-opacity:1;fill-rule:nonzero;stroke:none"
         id="path24" /><path
         d="m 1257.21,1580.77 h 200 c 2.76,0 5,2.23 5,5 0,2.75 -2.24,5 -5,5 h -200 c -2.76,0 -5,-2.25 -5,-5 0,-2.77 2.24,-5 5,-5"
         style="fill:#0e0f0f;fill-opacity:1;fill-rule:nonzero;stroke:none"
         id="path26" /><path
         d="m 1457.21,1580.77 h 33.72 l 60,200 h 106.28 c 2.76,0 5,2.23 5,5 0,2.75 -2.24,5 -5,5 h -113.72 l -60,-200 h -26.28 c -2.76,0 -5,-2.25 -5,-5 0,-2.77 2.24,-5 5,-5 v 0"
         style="fill:#0e0f0f;fill-opacity:1;fill-rule:nonzero;stroke:none"
         id="path28" /><path
         d="m 1657.21,1780.77 h 200 c 2.76,0 5,2.23 5,5 0,2.75 -2.24,5 -5,5 h -200 c -2.76,0 -5,-2.25 -5,-5 0,-2.77 2.24,-5 5,-5"
         style="fill:#0e0f0f;fill-opacity:1;fill-rule:nonzero;stroke:none"
         id="path30" /><path
         d="m 1857.21,1780.77 h 26.28 l 60,-200 h 113.72 c 2.76,0 5,2.23 5,5 0,2.75 -2.24,5 -5,5 h -106.28 l -60,200 h -33.72 c -2.76,0 -5,-2.25 -5,-5 0,-2.77 2.24,-5 5,-5 v 0"
         style="fill:#0e0f0f;fill-opacity:1;fill-rule:nonzero;stroke:none"
         id="path32" /><path
         d="m 2057.21,1580.77 h 200 c 2.76,0 5,2.23 5,5 0,2.75 -2.24,5 -5,5 h -200 c -2.76,0 -5,-2.25 -5,-5 0,-2.77 2.24,-5 5,-5"
         style="fill:#0e0f0f;fill-opacity:1;fill-rule:nonzero;stroke:none"
         id="path34" /><path
         d="m 2257.21,1580.77 h 33.72 l 60,200 h 106.28 c 2.76,0 5,2.23 5,5 0,2.75 -2.24,5 -5,5 h -113.72 l -60,-200 h -26.28 c -2.76,0 -5,-2.25 -5,-5 0,-2.77 2.24,-5 5,-5 v 0"
         style="fill:#0e0f0f;fill-opacity:1;fill-rule:nonzero;stroke:none"
         id="path36" /><path
         d="m 2457.21,1780.77 h 200 c 2.76,0 5,2.23 5,5 0,2.75 -2.24,5 -5,5 h -200 c -2.76,0 -5,-2.25 -5,-5 0,-2.77 2.24,-5 5,-5"
         style="fill:#0e0f0f;fill-opacity:1;fill-rule:nonzero;stroke:none"
         id="path38" /><path
         d="m 3027.21,1775.71 h 120 c 2.76,0 5,2.23 5,5 0,2.76 -2.24,5 -5,5 h -120 c -2.76,0 -5,-2.24 -5,-5 0,-2.77 2.24,-5 5,-5"
         style="fill:#0e0f0f;fill-opacity:1;fill-rule:nonzero;stroke:none"
         id="path40" /><path
         d="m 2753.13,1775.71 h 120 c 2.76,0 5,2.23 5,5 0,2.76 -2.24,5 -5,5 h -120 c -2.77,0 -5,-2.24 -5,-5 0,-2.77 2.23,-5 5,-5"
         style="fill:#0e0f0f;fill-opacity:1;fill-rule:nonzero;stroke:none"
         id="path42" /><path
         d="m 3273.13,1775.71 h 120 c 2.76,0 5,2.23 5,5 0,2.76 -2.24,5 -5,5 h -120 c -2.76,0 -5,-2.24 -5,-5 0,-2.77 2.24,-5 5,-5"
         style="fill:#0e0f0f;fill-opacity:1;fill-rule:nonzero;stroke:none"
         id="path44" /><path
         d="m 3493.13,1775.71 h 120 c 2.76,0 5,2.23 5,5 0,2.76 -2.24,5 -5,5 h -120 c -2.76,0 -5,-2.24 -5,-5 0,-2.77 2.24,-5 5,-5"
         style="fill:#0e0f0f;fill-opacity:1;fill-rule:nonzero;stroke:none"
         id="path46" /><path
         d="m 3703.13,1775.71 h 120 c 2.76,0 5,2.23 5,5 0,2.76 -2.24,5 -5,5 h -120 c -2.76,0 -5,-2.24 -5,-5 0,-2.77 2.24,-5 5,-5"
         style="fill:#0e0f0f;fill-opacity:1;fill-rule:nonzero;stroke:none"
         id="path48" /><g
         id="g50"
         transform="scale(10)"><text
           transform="matrix(1,0,0,-1,21.8984,121.579)"
           style="font-variant:normal;font-weight:normal;font-size:11px;font-family:Arial;-inkscape-font-specification:ArialMT;writing-mode:lr-tb;fill:#344ea9;fill-opacity:1;fill-rule:nonzero;stroke:none"
           id="text54"><tspan
             x="0 7.9438496 14.468749 20.37402 27.703125"
             y="0"
             sodipodi:role="line"
             id="tspan52">DATA2</tspan></text></g><path
         d="m 657.211,1360.77 h 200 c 2.766,0 5,2.23 5,5 0,2.75 -2.234,5 -5,5 h -200 c -2.758,0 -5,-2.25 -5,-5 0,-2.77 2.242,-5 5,-5"
         style="fill:#0e0f0f;fill-opacity:1;fill-rule:nonzero;stroke:none"
         id="path56" /><path
         d="m 857.211,1360.75 h 199.999 c 2.76,0 5,2.25 5,5 0,2.77 -2.24,5 -5,5 H 857.211 c -2.758,0 -5,-2.23 -5,-5 0,-2.75 2.242,-5 5,-5"
         style="fill:#0e0f0f;fill-opacity:1;fill-rule:nonzero;stroke:none"
         id="path58" /><path
         d="m 1067.21,1360.77 h 135.39 c 2.76,0 5,2.23 5,5 0,2.75 -2.24,5 -5,5 h -135.39 c -2.76,0 -5,-2.25 -5,-5 0,-2.77 2.24,-5 5,-5"
         style="fill:#0e0f0f;fill-opacity:1;fill-rule:nonzero;stroke:none"
         id="path60" /><path
         d="m 1207.21,1360.77 h 29.55 l 66.31,-200 h 125.18 c 2.76,0 5,2.23 5,5 0,2.75 -2.24,5 -5,5 h -117.96 l -66.31,199.98 h -36.77 c -2.76,0 -5,-2.23 -5,-5 0,-2.75 2.24,-5 5,-5 v 0.02"
         style="fill:#0e0f0f;fill-opacity:1;fill-rule:nonzero;stroke:none"
         id="path62" /><path
         d="m 1428.25,1160.77 h 148.96 c 2.76,0 5,2.23 5,5 0,2.75 -2.24,5 -5,5 h -148.96 c -2.76,0 -5,-2.25 -5,-5 0,-2.77 2.24,-5 5,-5"
         style="fill:#0e0f0f;fill-opacity:1;fill-rule:nonzero;stroke:none"
         id="path64" /><path
         d="m 1577.21,1160.77 h 33.72 l 60,200 h 106.28 c 2.76,0 5,2.23 5,5 0,2.75 -2.24,5 -5,5 h -113.72 l -60,-200 h -26.28 c -2.76,0 -5,-2.25 -5,-5 0,-2.77 2.24,-5 5,-5 v 0"
         style="fill:#0e0f0f;fill-opacity:1;fill-rule:nonzero;stroke:none"
         id="path66" /><path
         d="m 1757.21,1360.77 h 200 c 2.76,0 5,2.23 5,5 0,2.75 -2.24,5 -5,5 h -200 c -2.76,0 -5,-2.25 -5,-5 0,-2.77 2.24,-5 5,-5"
         style="fill:#0e0f0f;fill-opacity:1;fill-rule:nonzero;stroke:none"
         id="path68" /><path
         d="m 1947.21,1360.77 h 26.28 l 60,-200 h 113.72 c 2.76,0 5,2.23 5,5 0,2.75 -2.24,5 -5,5 h -106.28 l -60,200 h -33.72 c -2.76,0 -5,-2.25 -5,-5 0,-2.77 2.24,-5 5,-5 v 0"
         style="fill:#0e0f0f;fill-opacity:1;fill-rule:nonzero;stroke:none"
         id="path70" /><path
         d="m 2147.21,1160.77 h 200 c 2.76,0 5,2.23 5,5 0,2.75 -2.24,5 -5,5 h -200 c -2.76,0 -5,-2.25 -5,-5 0,-2.77 2.24,-5 5,-5"
         style="fill:#0e0f0f;fill-opacity:1;fill-rule:nonzero;stroke:none"
         id="path72" /><path
         d="m 2347.21,1160.77 h 200 c 2.76,0 5,2.23 5,5 0,2.75 -2.24,5 -5,5 h -200 c -2.76,0 -5,-2.25 -5,-5 0,-2.77 2.24,-5 5,-5"
         style="fill:#0e0f0f;fill-opacity:1;fill-rule:nonzero;stroke:none"
         id="path74" /><path
         d="m 2547.21,1160.77 h 200 c 2.76,0 5,2.23 5,5 0,2.75 -2.24,5 -5,5 h -200 c -2.76,0 -5,-2.25 -5,-5 0,-2.77 2.24,-5 5,-5"
         style="fill:#0e0f0f;fill-opacity:1;fill-rule:nonzero;stroke:none"
         id="path76" /><path
         d="m 2757.21,1160.77 h 33.72 l 60,200 h 106.28 c 2.76,0 5,2.23 5,5 0,2.75 -2.24,5 -5,5 h -113.72 l -60,-200 h -26.28 c -2.76,0 -5,-2.25 -5,-5 0,-2.77 2.24,-5 5,-5 v 0"
         style="fill:#0e0f0f;fill-opacity:1;fill-rule:nonzero;stroke:none"
         id="path78" /><path
         d="m 2967.21,1360.77 h 200 c 2.76,0 5,2.23 5,5 0,2.75 -2.24,5 -5,5 h -200 c -2.76,0 -5,-2.25 -5,-5 0,-2.77 2.24,-5 5,-5"
         style="fill:#0e0f0f;fill-opacity:1;fill-rule:nonzero;stroke:none"
         id="path80" /><path
         d="m 3177.21,1360.77 h 26.28 l 60,-200 h 113.72 c 2.76,0 5,2.23 5,5 0,2.75 -2.24,5 -5,5 h -106.28 l -60,200 h -33.72 c -2.76,0 -5,-2.25 -5,-5 0,-2.77 2.24,-5 5,-5 v 0"
         style="fill:#0e0f0f;fill-opacity:1;fill-rule:nonzero;stroke:none"
         id="path82" /><path
         d="m 3377.21,1160.77 h 480 c 2.76,0 5,2.23 5,5 0,2.75 -2.24,5 -5,5 h -480 c -2.76,0 -5,-2.25 -5,-5 0,-2.77 2.24,-5 5,-5"
         style="fill:#0e0f0f;fill-opacity:1;fill-rule:nonzero;stroke:none"
         id="path84" /><g
         id="g86"
         transform="scale(10)"><text
           transform="matrix(1,0,0,-1,33.1016,81.5789)"
           style="font-variant:normal;font-weight:normal;font-size:11px;font-family:Arial;-inkscape-font-specification:ArialMT;writing-mode:lr-tb;fill:#344ea9;fill-opacity:1;fill-rule:nonzero;stroke:none"
           id="text90"><tspan
             x="0 7.3369999 15.279"
             y="0"
             sodipodi:role="line"
             id="tspan88">SDA</tspan></text></g><path
         d="m 657.211,960.762 h 200 c 2.766,0 5,2.238 5,5 0,2.758 -2.234,5 -5,5 h -200 c -2.758,0 -5,-2.242 -5,-5 0,-2.762 2.242,-5 5,-5"
         style="fill:#0e0f0f;fill-opacity:1;fill-rule:nonzero;stroke:none"
         id="path92" /><path
         d="m 857.211,960.762 h 199.999 c 2.76,0 5,2.238 5,5 0,2.758 -2.24,5 -5,5 H 857.211 c -2.758,0 -5,-2.242 -5,-5 0,-2.762 2.242,-5 5,-5"
         style="fill:#0e0f0f;fill-opacity:1;fill-rule:nonzero;stroke:none"
         id="path94" /><path
         d="m 1057.21,960.762 h 26.28 l 60,-200 h 113.72 c 2.76,0 5,2.238 5,5 0,2.758 -2.24,5 -5,5 h -106.28 l -60,200 h -33.72 c -2.76,0 -5,-2.242 -5,-5 0,-2.762 2.24,-5 5,-5 v 0"
         style="fill:#0e0f0f;fill-opacity:1;fill-rule:nonzero;stroke:none"
         id="path96" /><path
         d="m 1257.21,760.762 h 200 c 2.76,0 5,2.238 5,5 0,2.758 -2.24,5 -5,5 h -200 c -2.76,0 -5,-2.242 -5,-5 0,-2.762 2.24,-5 5,-5"
         style="fill:#0e0f0f;fill-opacity:1;fill-rule:nonzero;stroke:none"
         id="path98" /><path
         d="m 1457.21,760.762 h 33.72 l 60,200 h 106.28 c 2.76,0 5,2.238 5,5 0,2.758 -2.24,5 -5,5 h -113.72 l -60,-200 h -26.28 c -2.76,0 -5,-2.242 -5,-5 0,-2.762 2.24,-5 5,-5 v 0"
         style="fill:#0e0f0f;fill-opacity:1;fill-rule:nonzero;stroke:none"
         id="path100" /><path
         d="m 1657.21,960.762 h 200 c 2.76,0 5,2.238 5,5 0,2.758 -2.24,5 -5,5 h -200 c -2.76,0 -5,-2.242 -5,-5 0,-2.762 2.24,-5 5,-5"
         style="fill:#0e0f0f;fill-opacity:1;fill-rule:nonzero;stroke:none"
         id="path102" /><path
         d="m 1857.21,960.762 h 26.28 l 60,-200 h 113.72 c 2.76,0 5,2.238 5,5 0,2.758 -2.24,5 -5,5 h -106.28 l -60,200 h -33.72 c -2.76,0 -5,-2.242 -5,-5 0,-2.762 2.24,-5 5,-5 v 0"
         style="fill:#0e0f0f;fill-opacity:1;fill-rule:nonzero;stroke:none"
         id="path104" /><path
         d="m 2057.21,760.762 h 200 c 2.76,0 5,2.238 5,5 0,2.758 -2.24,5 -5,5 h -200 c -2.76,0 -5,-2.242 -5,-5 0,-2.762 2.24,-5 5,-5"
         style="fill:#0e0f0f;fill-opacity:1;fill-rule:nonzero;stroke:none"
         id="path106" /><path
         d="m 2257.21,760.762 h 200 c 2.76,0 5,2.238 5,5 0,2.758 -2.24,5 -5,5 h -200 c -2.76,0 -5,-2.242 -5,-5 0,-2.762 2.24,-5 5,-5"
         style="fill:#0e0f0f;fill-opacity:1;fill-rule:nonzero;stroke:none"
         id="path108" /><path
         d="m 2457.21,760.762 h 200 c 2.76,0 5,2.238 5,5 0,2.758 -2.24,5 -5,5 h -200 c -2.76,0 -5,-2.242 -5,-5 0,-2.762 2.24,-5 5,-5"
         style="fill:#0e0f0f;fill-opacity:1;fill-rule:nonzero;stroke:none"
         id="path110" /><path
         d="m 2767.21,760.762 h 33.72 l 60,200 h 106.28 c 2.76,0 5,2.238 5,5 0,2.758 -2.24,5 -5,5 h -113.72 l -60,-200 h -26.28 c -2.76,0 -5,-2.242 -5,-5 0,-2.762 2.24,-5 5,-5 v 0"
         style="fill:#0e0f0f;fill-opacity:1;fill-rule:nonzero;stroke:none"
         id="path112" /><path
         d="m 2967.21,960.762 h 200 c 2.76,0 5,2.238 5,5 0,2.758 -2.24,5 -5,5 h -200 c -2.76,0 -5,-2.242 -5,-5 0,-2.762 2.24,-5 5,-5"
         style="fill:#0e0f0f;fill-opacity:1;fill-rule:nonzero;stroke:none"
         id="path114" /><path
         d="m 3177.21,960.762 h 26.28 l 60,-200 h 113.72 c 2.76,0 5,2.238 5,5 0,2.758 -2.24,5 -5,5 h -106.28 l -60,200 h -33.72 c -2.76,0 -5,-2.242 -5,-5 0,-2.762 2.24,-5 5,-5 v 0"
         style="fill:#0e0f0f;fill-opacity:1;fill-rule:nonzero;stroke:none"
         id="path116" /><path
         d="m 3377.21,760.762 h 480 c 2.76,0 5,2.238 5,5 0,2.758 -2.24,5 -5,5 h -480 c -2.76,0 -5,-2.242 -5,-5 0,-2.762 2.24,-5 5,-5"
         style="fill:#0e0f0f;fill-opacity:1;fill-rule:nonzero;stroke:none"
         id="path118" /><g
         id="g120"
         transform="scale(10)"><text
           transform="matrix(1,0,0,-1,34.3203,35.5789)"
           style="font-variant:normal;font-weight:normal;font-size:11px;font-family:Arial;-inkscape-font-specification:ArialMT;writing-mode:lr-tb;fill:#344ea9;fill-opacity:1;fill-rule:nonzero;stroke:none"
           id="text124"><tspan
             x="0 7.3369999 15.279"
             y="0"
             sodipodi:role="line"
             id="tspan122">SCL</tspan></text></g><path
         d="m 867.211,500.762 h 199.999 c 2.76,0 5,2.238 5,5 0,2.758 -2.24,5 -5,5 H 867.211 c -2.758,0 -5,-2.242 -5,-5 0,-2.762 2.242,-5 5,-5"
         style="fill:#0e0f0f;fill-opacity:1;fill-rule:nonzero;stroke:none"
         id="path126" /><path
         d="m 1067.21,500.762 h 200 c 2.76,0 5,2.238 5,5 0,2.758 -2.24,5 -5,5 h -200 c -2.76,0 -5,-2.242 -5,-5 0,-2.762 2.24,-5 5,-5"
         style="fill:#0e0f0f;fill-opacity:1;fill-rule:nonzero;stroke:none"
         id="path128" /><path
         d="m 1267.21,500.762 h 38.68 l 83.99,-200 h 157.33 c 2.76,0 5,2.238 5,5 0,2.758 -2.24,5 -5,5 h -150.68 l -84,200 h -45.32 c -2.76,0 -5,-2.242 -5,-5 0,-2.762 2.24,-5 5,-5 v 0"
         style="fill:#0e0f0f;fill-opacity:1;fill-rule:nonzero;stroke:none"
         id="path130" /><path
         d="m 1547.21,300.762 h 33.72 l 60,200 h 106.28 c 2.76,0 5,2.238 5,5 0,2.758 -2.24,5 -5,5 h -113.72 l -60,-200 h -26.28 c -2.76,0 -5,-2.242 -5,-5 0,-2.762 2.24,-5 5,-5 v 0"
         style="fill:#0e0f0f;fill-opacity:1;fill-rule:nonzero;stroke:none"
         id="path132" /><path
         d="m 1737.21,500.762 h 66.75 c 2.76,0 5,2.238 5,5 0,2.758 -2.24,5 -5,5 h -66.75 c -2.76,0 -5,-2.242 -5,-5 0,-2.762 2.24,-5 5,-5"
         style="fill:#0e0f0f;fill-opacity:1;fill-rule:nonzero;stroke:none"
         id="path134" /><path
         d="m 1807.21,500.762 h 26.28 l 60,-200 h 113.72 c 2.76,0 5,2.238 5,5 0,2.758 -2.24,5 -5,5 h -106.28 l -60,200 h -33.72 c -2.76,0 -5,-2.242 -5,-5 0,-2.762 2.24,-5 5,-5 v 0"
         style="fill:#0e0f0f;fill-opacity:1;fill-rule:nonzero;stroke:none"
         id="path136" /><path
         d="m 1947.21,300.762 h 110 c 2.76,0 5,2.238 5,5 0,2.758 -2.24,5 -5,5 h -110 c -2.76,0 -5,-2.242 -5,-5 0,-2.762 2.24,-5 5,-5"
         style="fill:#0e0f0f;fill-opacity:1;fill-rule:nonzero;stroke:none"
         id="path138" /><path
         d="m 2027.21,300.762 h 33.72 l 60,200 h 106.28 c 2.76,0 5,2.238 5,5 0,2.758 -2.24,5 -5,5 h -113.72 l -60,-200 h -26.28 c -2.76,0 -5,-2.242 -5,-5 0,-2.762 2.24,-5 5,-5 v 0"
         style="fill:#0e0f0f;fill-opacity:1;fill-rule:nonzero;stroke:none"
         id="path140" /><path
         d="m 2187.21,500.762 h 60 c 2.76,0 5,2.238 5,5 0,2.758 -2.24,5 -5,5 h -60 c -2.76,0 -5,-2.242 -5,-5 0,-2.762 2.24,-5 5,-5"
         style="fill:#0e0f0f;fill-opacity:1;fill-rule:nonzero;stroke:none"
         id="path142" /><path
         d="m 2247.21,500.762 h 26.28 l 60,-200 h 113.72 c 2.76,0 5,2.238 5,5 0,2.758 -2.24,5 -5,5 h -106.28 l -60,200 h -33.72 c -2.76,0 -5,-2.242 -5,-5 0,-2.762 2.24,-5 5,-5 v 0"
         style="fill:#0e0f0f;fill-opacity:1;fill-rule:nonzero;stroke:none"
         id="path144" /><path
         d="m 2447.21,300.762 h 33.72 l 60,200 h 106.28 c 2.76,0 5,2.238 5,5 0,2.758 -2.24,5 -5,5 h -113.72 l -60,-200 h -26.28 c -2.76,0 -5,-2.242 -5,-5 0,-2.762 2.24,-5 5,-5 v 0"
         style="fill:#0e0f0f;fill-opacity:1;fill-rule:nonzero;stroke:none"
         id="path146" /><path
         d="m 2647.21,500.762 h 47.82 c 2.77,0 5,2.238 5,5 0,2.758 -2.23,5 -5,5 h -47.82 c -2.76,0 -5,-2.242 -5,-5 0,-2.762 2.24,-5 5,-5"
         style="fill:#0e0f0f;fill-opacity:1;fill-rule:nonzero;stroke:none"
         id="path148" /><path
         d="m 2677.21,500.762 h 26.28 l 60,-200 h 113.72 c 2.76,0 5,2.238 5,5 0,2.758 -2.24,5 -5,5 h -106.28 l -60,200 h -33.72 c -2.76,0 -5,-2.242 -5,-5 0,-2.762 2.24,-5 5,-5 v 0"
         style="fill:#0e0f0f;fill-opacity:1;fill-rule:nonzero;stroke:none"
         id="path150" /><path
         d="m 2877.21,300.762 h 33.4 c 2.76,0 5,2.238 5,5 0,2.758 -2.24,5 -5,5 h -33.4 c -2.76,0 -5,-2.242 -5,-5 0,-2.762 2.24,-5 5,-5"
         style="fill:#0e0f0f;fill-opacity:1;fill-rule:nonzero;stroke:none"
         id="path152" /><path
         d="m 2877.21,300.762 h 45.33 l 83.99,200 h 150.68 c 2.76,0 5,2.238 5,5 0,2.758 -2.24,5 -5,5 h -157.32 l -84,-200 h -38.68 c -2.76,0 -5,-2.242 -5,-5 0,-2.762 2.24,-5 5,-5 v 0"
         style="fill:#0e0f0f;fill-opacity:1;fill-rule:nonzero;stroke:none"
         id="path154" /><path
         d="m 3147.21,500.762 h 26.28 l 60,-200 h 113.72 c 2.76,0 5,2.238 5,5 0,2.758 -2.24,5 -5,5 h -106.28 l -60,200 h -33.72 c -2.76,0 -5,-2.242 -5,-5 0,-2.762 2.24,-5 5,-5 v 0"
         style="fill:#0e0f0f;fill-opacity:1;fill-rule:nonzero;stroke:none"
         id="path156" /><path
         d="m 3347.21,300.762 h 33.72 l 60,200 h 106.28 c 2.76,0 5,2.238 5,5 0,2.758 -2.24,5 -5,5 h -113.72 l -60,-200 h -26.28 c -2.76,0 -5,-2.242 -5,-5 0,-2.762 2.24,-5 5,-5 v 0"
         style="fill:#0e0f0f;fill-opacity:1;fill-rule:nonzero;stroke:none"
         id="path158" /><path
         d="m 3517.21,500.762 h 100 c 2.76,0 5,2.238 5,5 0,2.758 -2.24,5 -5,5 h -100 c -2.76,0 -5,-2.242 -5,-5 0,-2.762 2.24,-5 5,-5"
         style="fill:#0e0f0f;fill-opacity:1;fill-rule:nonzero;stroke:none"
         id="path160" /><path
         d="m 3627.21,500.762 h 30.94 l 68.99,-200 h 130.07 c 2.76,0 5,2.238 5,5 0,2.758 -2.24,5 -5,5 h -122.94 l -68.99,200 h -38.07 c -2.76,0 -5,-2.242 -5,-5 0,-2.762 2.24,-5 5,-5 v 0"
         style="fill:#0e0f0f;fill-opacity:1;fill-rule:nonzero;stroke:none"
         id="path162" /><path
         d="m 2663.13,764.441 h 94.08 c 2.76,0 5,2.239 5,5 0,2.758 -2.24,5 -5,5 h -94.08 c -2.77,0 -5,-2.242 -5,-5 0,-2.761 2.23,-5 5,-5"
         style="fill:#0e0f0f;fill-opacity:1;fill-rule:nonzero;stroke:none"
         id="path164" /><path
         d="m 673.125,504.441 h 200 c 2.766,0 5,2.239 5,5 0,2.758 -2.234,5 -5,5 h -200 c -2.758,0 -5,-2.242 -5,-5 0,-2.761 2.242,-5 5,-5"
         style="fill:#0e0f0f;fill-opacity:1;fill-rule:nonzero;stroke:none"
         id="path166" /><path
         d="m 1040.96,2043.9 h -40 c -2.073,0 -3.757,1.68 -3.757,3.76 0,2.07 1.684,3.75 3.757,3.75 h 40 c 2.07,0 3.75,-1.68 3.75,-3.75 0,-2.08 -1.68,-3.76 -3.75,-3.76 m 80,0 h -40 c -2.07,0 -3.76,1.68 -3.76,3.76 0,2.07 1.69,3.75 3.76,3.75 h 40 c 2.07,0 3.75,-1.68 3.75,-3.75 0,-2.08 -1.68,-3.76 -3.75,-3.76 m 80,0 h -40 c -2.08,0 -3.76,1.68 -3.76,3.76 0,2.07 1.68,3.75 3.76,3.75 h 40 c 2.07,0 3.75,-1.68 3.75,-3.75 0,-2.08 -1.68,-3.76 -3.75,-3.76 m 80,0 h -40 c -2.08,0 -3.76,1.68 -3.76,3.76 0,2.07 1.68,3.75 3.76,3.75 h 40 c 2.07,0 3.75,-1.68 3.75,-3.75 0,-2.08 -1.68,-3.76 -3.75,-3.76 m -346.358,-13.64 c -2.079,0 -3.758,1.68 -3.758,3.76 v 13.64 c 0,0.98 0.402,1.95 1.097,2.64 0.7,0.71 1.668,1.11 2.661,1.11 h 26.355 c 2.074,0 3.754,-1.68 3.754,-3.75 0,-2.08 -1.68,-3.76 -3.754,-3.76 h -22.602 v -9.88 c 0,-2.08 -1.679,-3.76 -3.753,-3.76 m 374.438,-38.28 c -2.07,0 -3.75,1.68 -3.75,3.75 v 40 c 0,2.09 1.68,3.77 3.75,3.77 2.08,0 3.76,-1.68 3.76,-3.77 v -40 c 0,-2.07 -1.68,-3.75 -3.76,-3.75 m -374.438,-41.72 c -2.079,0 -3.758,1.68 -3.758,3.76 v 40 c 0,2.07 1.679,3.75 3.758,3.75 2.074,0 3.753,-1.68 3.753,-3.75 v -40 c 0,-2.08 -1.679,-3.76 -3.753,-3.76 m 374.438,-38.28 c -2.07,0 -3.75,1.68 -3.75,3.75 v 40 c 0,2.09 1.68,3.77 3.75,3.77 2.08,0 3.76,-1.68 3.76,-3.77 v -40 c 0,-2.07 -1.68,-3.75 -3.76,-3.75 m -374.438,-41.72 c -2.079,0 -3.758,1.68 -3.758,3.76 v 40 c 0,2.07 1.679,3.75 3.758,3.75 2.074,0 3.753,-1.68 3.753,-3.75 v -40 c 0,-2.08 -1.679,-3.76 -3.753,-3.76 m 374.438,-38.28 c -2.07,0 -3.75,1.68 -3.75,3.75 v 40 c 0,2.09 1.68,3.77 3.75,3.77 2.08,0 3.76,-1.68 3.76,-3.77 v -40 c 0,-2.07 -1.68,-3.75 -3.76,-3.75 m -372.563,-41.21 h -3.75 c -1.125,0.64 -1.883,1.85 -1.883,3.25 v 40 c 0,2.07 1.679,3.75 3.758,3.75 2.074,0 3.753,-1.68 3.753,-3.75 v -40 c 0,-1.4 -0.757,-2.61 -1.878,-3.25 m 372.563,-38.79 c -2.07,0 -3.75,1.68 -3.75,3.75 v 40 c 0,2.09 1.68,3.77 3.75,3.77 2.08,0 3.76,-1.68 3.76,-3.77 v -40 c 0,-2.07 -1.68,-3.75 -3.76,-3.75 m -374.438,-41.72 c -2.079,0 -3.758,1.68 -3.758,3.76 v 40 c 0,2.07 1.679,3.75 3.758,3.75 2.074,0 3.753,-1.68 3.753,-3.75 v -40 c 0,-2.08 -1.679,-3.76 -3.753,-3.76 m 374.438,-38.28 c -2.07,0 -3.75,1.68 -3.75,3.75 v 40 c 0,2.09 1.68,3.77 3.75,3.77 2.08,0 3.76,-1.68 3.76,-3.77 v -40 c 0,-2.07 -1.68,-3.75 -3.76,-3.75 m -374.438,-41.72 c -2.079,0 -3.758,1.68 -3.758,3.76 v 40 c 0,2.07 1.679,3.75 3.758,3.75 2.074,0 3.753,-1.68 3.753,-3.75 v -40 c 0,-2.08 -1.679,-3.76 -3.753,-3.76 m 374.438,-38.28 c -2.07,0 -3.75,1.68 -3.75,3.75 v 40 c 0,2.09 1.68,3.77 3.75,3.77 2.08,0 3.76,-1.68 3.76,-3.77 v -40 c 0,-2.07 -1.68,-3.75 -3.76,-3.75 m -374.438,-41.72 c -2.079,0 -3.758,1.68 -3.758,3.76 v 40 c 0,2.07 1.679,3.75 3.758,3.75 2.074,0 3.753,-1.68 3.753,-3.75 v -40 c 0,-2.08 -1.679,-3.76 -3.753,-3.76 m 374.438,-38.28 c -2.07,0 -3.75,1.68 -3.75,3.77 v 40 c 0,2.07 1.68,3.75 3.75,3.75 2.08,0 3.76,-1.68 3.76,-3.75 v -40 c 0,-2.09 -1.68,-3.77 -3.76,-3.77 m -374.438,-41.72 c -2.079,0 -3.758,1.69 -3.758,3.76 v 40 c 0,2.07 1.679,3.75 3.758,3.75 2.074,0 3.753,-1.68 3.753,-3.75 v -40 c 0,-2.07 -1.679,-3.76 -3.753,-3.76 m 374.438,-38.28 c -2.07,0 -3.75,1.68 -3.75,3.75 v 40 c 0,2.09 1.68,3.77 3.75,3.77 2.08,0 3.76,-1.68 3.76,-3.77 v -40 c 0,-2.07 -1.68,-3.75 -3.76,-3.75 m -374.438,-41.72 c -2.079,0 -3.758,1.68 -3.758,3.76 v 40 c 0,2.07 1.679,3.75 3.758,3.75 2.074,0 3.753,-1.68 3.753,-3.75 v -40 c 0,-2.08 -1.679,-3.76 -3.753,-3.76 m 374.438,-38.28 c -2.07,0 -3.75,1.68 -3.75,3.75 v 40 c 0,2.09 1.68,3.77 3.75,3.77 2.08,0 3.76,-1.68 3.76,-3.77 v -40 c 0,-2.07 -1.68,-3.75 -3.76,-3.75 m -374.438,-41.72 c -2.079,0 -3.758,1.68 -3.758,3.76 v 40 c 0,2.07 1.679,3.75 3.758,3.75 2.074,0 3.753,-1.68 3.753,-3.75 v -40 c 0,-2.08 -1.679,-3.76 -3.753,-3.76 m 374.438,-38.28 c -2.07,0 -3.75,1.68 -3.75,3.77 v 39.98 c 0,2.09 1.68,3.77 3.75,3.77 2.08,0 3.76,-1.68 3.76,-3.77 v -39.98 c 0,-2.09 -1.68,-3.77 -3.76,-3.77 m -374.438,-41.72 c -2.079,0 -3.758,1.68 -3.758,3.76 v 40 c 0,2.07 1.679,3.75 3.758,3.75 2.074,0 3.753,-1.68 3.753,-3.75 v -40 c 0,-2.08 -1.679,-3.76 -3.753,-3.76 m 374.438,-38.28 c -2.07,0 -3.75,1.68 -3.75,3.77 v 40 c 0,2.07 1.68,3.75 3.75,3.75 2.08,0 3.76,-1.68 3.76,-3.75 v -40 c 0,-2.09 -1.68,-3.77 -3.76,-3.77 m -374.438,-41.72 c -2.079,0 -3.758,1.68 -3.758,3.76 v 40 c 0,2.07 1.679,3.75 3.758,3.75 2.074,0 3.753,-1.68 3.753,-3.75 v -40 c 0,-2.08 -1.679,-3.76 -3.753,-3.76 m 374.438,-38.27 c -2.07,0 -3.75,1.68 -3.75,3.75 v 40.01 c 0,2.07 1.68,3.75 3.75,3.75 2.08,0 3.76,-1.68 3.76,-3.75 v -40.01 c 0,-2.07 -1.68,-3.75 -3.76,-3.75 m -374.438,-41.73 c -2.079,0 -3.758,1.68 -3.758,3.76 v 39.99 c 0,2.08 1.679,3.76 3.758,3.76 2.074,0 3.753,-1.68 3.753,-3.76 v -39.99 c 0,-2.08 -1.679,-3.76 -3.753,-3.76 m 374.438,-38.27 c -2.07,0 -3.75,1.68 -3.75,3.75 v 40 c 0,2.07 1.68,3.76 3.75,3.76 2.08,0 3.76,-1.69 3.76,-3.76 v -40 c 0,-2.07 -1.68,-3.75 -3.76,-3.75 M 934.602,990.262 c -2.079,0 -3.758,1.679 -3.758,3.758 v 40 c 0,2.07 1.679,3.75 3.758,3.75 2.074,0 3.753,-1.68 3.753,-3.75 v -40 c 0,-2.079 -1.679,-3.758 -3.753,-3.758 m 374.438,-38.274 c -2.07,0 -3.75,1.68 -3.75,3.75 v 40 c 0,2.071 1.68,3.762 3.75,3.762 2.08,0 3.76,-1.691 3.76,-3.762 v -40 c 0,-2.07 -1.68,-3.75 -3.76,-3.75 M 934.602,910.262 c -2.079,0 -3.758,1.679 -3.758,3.758 v 40 c 0,2.07 1.679,3.75 3.758,3.75 2.074,0 3.753,-1.68 3.753,-3.75 v -40 c 0,-2.079 -1.679,-3.758 -3.753,-3.758 m 374.438,-38.274 c -2.07,0 -3.75,1.68 -3.75,3.75 v 40 c 0,2.082 1.68,3.762 3.75,3.762 2.08,0 3.76,-1.68 3.76,-3.762 v -40 c 0,-2.07 -1.68,-3.75 -3.76,-3.75 M 934.602,830.262 c -2.079,0 -3.758,1.679 -3.758,3.758 v 40 c 0,2.07 1.679,3.75 3.758,3.75 2.074,0 3.753,-1.68 3.753,-3.75 v -40 c 0,-2.079 -1.679,-3.758 -3.753,-3.758 m 374.438,-38.274 c -2.07,0 -3.75,1.68 -3.75,3.75 v 40 c 0,2.082 1.68,3.762 3.75,3.762 2.08,0 3.76,-1.68 3.76,-3.762 v -40 c 0,-2.07 -1.68,-3.75 -3.76,-3.75 M 934.602,750.262 c -2.079,0 -3.758,1.679 -3.758,3.758 v 40 c 0,2.07 1.679,3.75 3.758,3.75 2.074,0 3.753,-1.68 3.753,-3.75 v -40 c 0,-2.079 -1.679,-3.758 -3.753,-3.758 m 374.438,-38.274 c -2.07,0 -3.75,1.68 -3.75,3.75 v 40 c 0,2.082 1.68,3.762 3.75,3.762 2.08,0 3.76,-1.68 3.76,-3.762 v -40 c 0,-2.07 -1.68,-3.75 -3.76,-3.75 M 934.602,670.262 c -2.079,0 -3.758,1.679 -3.758,3.758 v 40 c 0,2.07 1.679,3.75 3.758,3.75 2.074,0 3.753,-1.68 3.753,-3.75 v -40 c 0,-2.079 -1.679,-3.758 -3.753,-3.758 m 374.438,-38.274 c -2.07,0 -3.75,1.68 -3.75,3.75 v 40 c 0,2.082 1.68,3.762 3.75,3.762 2.08,0 3.76,-1.68 3.76,-3.762 v -40 c 0,-2.07 -1.68,-3.75 -3.76,-3.75 M 934.602,590.262 c -2.079,0 -3.758,1.679 -3.758,3.758 v 40 c 0,2.07 1.679,3.75 3.758,3.75 2.074,0 3.753,-1.68 3.753,-3.75 v -40 c 0,-2.079 -1.679,-3.758 -3.753,-3.758 m 374.438,-38.274 c -2.07,0 -3.75,1.68 -3.75,3.75 v 40 c 0,2.082 1.68,3.762 3.75,3.762 2.08,0 3.76,-1.68 3.76,-3.762 v -40 c 0,-2.07 -1.68,-3.75 -3.76,-3.75 M 936.477,510.762 h -3.75 c -1.125,0.648 -1.883,1.859 -1.883,3.258 v 40 c 0,2.07 1.679,3.75 3.758,3.75 2.074,0 3.753,-1.68 3.753,-3.75 v -40 c 0,-1.399 -0.757,-2.61 -1.878,-3.258 m 376.323,-0.633 -0.27,0.633 h -7.24 v 4.976 c 0,2.082 1.68,3.762 3.75,3.762 2.08,0 3.76,-1.68 3.76,-3.762 v -5.609 m -3.76,-38.141 c -2.07,0 -3.75,1.68 -3.75,3.75 v 25.024 h 0.6 l 6.91,-16.461 v -8.563 c 0,-2.07 -1.68,-3.75 -3.76,-3.75 M 934.602,430.262 c -2.079,0 -3.758,1.679 -3.758,3.758 v 40 c 0,2.07 1.679,3.75 3.758,3.75 2.074,0 3.753,-1.68 3.753,-3.75 v -40 c 0,-2.079 -1.679,-3.758 -3.753,-3.758 m 374.438,-38.274 c -2.07,0 -3.75,1.68 -3.75,3.75 v 40 c 0,2.082 1.68,3.762 3.75,3.762 2.08,0 3.76,-1.68 3.76,-3.762 v -40 c 0,-2.07 -1.68,-3.75 -3.76,-3.75 M 934.602,350.262 c -2.079,0 -3.758,1.679 -3.758,3.758 v 40 c 0,2.07 1.679,3.75 3.758,3.75 2.074,0 3.753,-1.68 3.753,-3.75 v -40 c 0,-2.079 -1.679,-3.758 -3.753,-3.758 m 374.438,-38.274 c -2.07,0 -3.75,1.68 -3.75,3.75 v 40 c 0,2.082 1.68,3.762 3.75,3.762 2.08,0 3.76,-1.68 3.76,-3.762 v -40 c 0,-2.07 -1.68,-3.75 -3.76,-3.75 M 934.602,270.262 c -2.079,0 -3.758,1.679 -3.758,3.758 v 40 c 0,2.07 1.679,3.75 3.758,3.75 2.074,0 3.753,-1.68 3.753,-3.75 v -40 c 0,-2.079 -1.679,-3.758 -3.753,-3.758 m 374.438,-38.274 c -2.07,0 -3.75,1.68 -3.75,3.75 v 40 c 0,2.082 1.68,3.762 3.75,3.762 2.08,0 3.76,-1.68 3.76,-3.762 v -40 c 0,-2.07 -1.68,-3.75 -3.76,-3.75 M 934.602,190.262 c -2.079,0 -3.758,1.679 -3.758,3.758 v 40 c 0,2.07 1.679,3.75 3.758,3.75 2.074,0 3.753,-1.68 3.753,-3.75 v -40 c 0,-2.079 -1.679,-3.758 -3.753,-3.758 m 374.438,-38.274 c -2.07,0 -3.75,1.68 -3.75,3.75 v 40 c 0,2.082 1.68,3.762 3.75,3.762 2.08,0 3.76,-1.68 3.76,-3.762 v -40 c 0,-2.07 -1.68,-3.75 -3.76,-3.75 M 974.602,126.43 h -40 c -0.993,0 -1.961,0.398 -2.661,1.101 -0.695,0.699 -1.097,1.668 -1.097,2.649 v 23.84 c 0,2.07 1.679,3.75 3.758,3.75 2.074,0 3.753,-1.68 3.753,-3.75 v -20.079 h 36.247 c 2.074,0 3.753,-1.679 3.753,-3.761 0,-2.071 -1.679,-3.75 -3.753,-3.75 m 79.998,0 h -40 c -2.07,0 -3.75,1.679 -3.75,3.75 0,2.082 1.68,3.761 3.75,3.761 h 40 c 2.07,0 3.76,-1.679 3.76,-3.761 0,-2.071 -1.69,-3.75 -3.76,-3.75 m 80,0 h -40 c -2.07,0 -3.76,1.679 -3.76,3.75 0,2.082 1.69,3.761 3.76,3.761 h 40 c 2.07,0 3.75,-1.679 3.75,-3.761 0,-2.071 -1.68,-3.75 -3.75,-3.75 m 80,0 h -40 c -2.07,0 -3.76,1.679 -3.76,3.75 0,2.082 1.69,3.761 3.76,3.761 h 40 c 2.07,0 3.75,-1.679 3.75,-3.761 0,-2.071 -1.68,-3.75 -3.75,-3.75 m 80,0 h -40 c -2.07,0 -3.76,1.679 -3.76,3.75 0,2.082 1.69,3.761 3.76,3.761 h 40 c 2.07,0 3.75,-1.679 3.75,-3.761 0,-2.071 -1.68,-3.75 -3.75,-3.75"
         style="fill:#282423;fill-opacity:1;fill-rule:nonzero;stroke:none"
         id="path168" /><path
         d="m 934.602,1790.26 c -0.684,0 -1.325,0.18 -1.875,0.51 h 3.75 c -0.555,-0.33 -1.196,-0.51 -1.875,-0.51"
         style="fill:#10100f;fill-opacity:1;fill-rule:nonzero;stroke:none"
         id="path170" /><path
         d="m 934.602,510.262 c -0.684,0 -1.325,0.179 -1.875,0.5 h 3.75 c -0.555,-0.321 -1.196,-0.5 -1.875,-0.5"
         style="fill:#10100f;fill-opacity:1;fill-rule:nonzero;stroke:none"
         id="path172" /><path
         d="m 1312.8,484.301 -6.91,16.461 h -0.6 v 10 h 7.24 l 0.27,-0.633 v -25.828"
         style="fill:#10100f;fill-opacity:1;fill-rule:nonzero;stroke:none"
         id="path174" /><path
         d="M 1885.21,2037.66 1899.86,120.18"
         style="fill:#231f20;fill-opacity:1;fill-rule:nonzero;stroke:none"
         id="path176" /><path
         d="m 1881.46,2037.63 14.65,-1917.47 c 0.01,-2.082 1.71,-3.75 3.78,-3.73 2.08,0.019 3.74,1.711 3.73,3.781 l -14.66,1917.469 c -0.01,2.08 -1.7,3.75 -3.78,3.73 -2.07,-0.02 -3.74,-1.71 -3.72,-3.78"
         style="fill:#10100f;fill-opacity:1;fill-rule:nonzero;stroke:none"
         id="path178" /><path
         d="M 2525.8,2028.19 2540.45,110.711"
         style="fill:#231f20;fill-opacity:1;fill-rule:nonzero;stroke:none"
         id="path180" /><path
         d="M 2522.05,2028.16 2536.7,110.68 c 0.02,-2.071 1.71,-3.739 3.78,-3.719 2.08,0.008 3.74,1.707 3.73,3.777 l -14.65,1917.472 c -0.02,2.08 -1.71,3.75 -3.79,3.73 -2.07,-0.02 -3.74,-1.71 -3.72,-3.78"
         style="fill:#10100f;fill-opacity:1;fill-rule:nonzero;stroke:none"
         id="path182" /><path
         d="m 2781.92,1428.63 5.85,-765.501"
         style="fill:#231f20;fill-opacity:1;fill-rule:nonzero;stroke:none"
         id="path184" /><path
         d="m 2778.16,1428.6 5.85,-765.491 c 0.02,-2.078 1.71,-3.75 3.79,-3.73 2.07,0.012 3.74,1.711 3.72,3.781 l -5.85,765.5 c -0.01,2.07 -1.71,3.73 -3.78,3.73 -2.07,-0.02 -3.74,-1.72 -3.73,-3.79"
         style="fill:#10100f;fill-opacity:1;fill-rule:nonzero;stroke:none"
         id="path186" /><path
         d="m 3210.2,1432.19 5.85,-765.491"
         style="fill:#231f20;fill-opacity:1;fill-rule:nonzero;stroke:none"
         id="path188" /><path
         d="m 3206.45,1432.16 5.84,-765.488 c 0.02,-2.07 1.71,-3.742 3.79,-3.731 2.07,0.02 3.74,1.707 3.72,3.789 l -5.84,765.48 c -0.02,2.08 -1.71,3.75 -3.79,3.73 -2.07,-0.02 -3.74,-1.71 -3.72,-3.78"
         style="fill:#10100f;fill-opacity:1;fill-rule:nonzero;stroke:none"
         id="path190" /><g
         id="g192"
         transform="scale(10)"><text
           transform="matrix(1,0,0,-1,107.711,19.0172)"
           style="font-variant:normal;font-weight:normal;font-size:11px;font-family:Arial;-inkscape-font-specification:ArialMT;writing-mode:lr-tb;fill:#231f20;fill-opacity:1;fill-rule:nonzero;stroke:none"
           id="text200"><tspan
             x="0"
             y="0"
             id="tspan194">S</tspan><tspan
             x="166.828 175.991 182.10918 187.60918 190.66483 196.783 200.44513 203.50175 209.61896 212.67558 215.11896 221.23712 226.73712 232.85527 238.35527 241.41093 247.5291 251.19122 257.30939 259.75375 262.80939 266.47238 272.5896 275.64624 278.0896 284.20776"
             y="-180"
             sodipodi:role="line"
             id="tspan196">master 1 loses arbitration</tspan><tspan
             x="166.828 200.44508 208.38942 214.90604 220.81131 227.53883 230.59547 236.71266 239.7693 245.80643 248.86208 256.19907 264.14792"
             y="-166.79691"
             sodipodi:role="line"
             id="tspan198"> DATA 1 ≠ SDA</tspan></text></g><path
         d="m 2567.21,1848.54 147.82,101.84"
         style="fill:#231f20;fill-opacity:1;fill-rule:nonzero;stroke:none"
         id="path202" /><path
         d="m 2612.94,1875.49 104.22,71.8 -4.25,6.18 -104.22,-71.81"
         style="fill:#0e0f0f;fill-opacity:1;fill-rule:nonzero;stroke:none"
         id="path204" /><path
         d="m 2567.21,1848.54 78.75,17.23 -31.88,15.05 -2.72,35.15 -44.15,-67.43 v 0"
         style="fill:#0e0f0f;fill-opacity:1;fill-rule:nonzero;stroke:none"
         id="path206" /><path
         d="M 3.75391,3.76172 V 0 H 4482.5 c 0.98,0 1.95,0.398438 2.65,1.10156 0.7,0.69922 1.1,1.66797 1.1,2.66016 V 2148.61 c 0,0.98 -0.4,1.95 -1.1,2.65 -0.7,0.7 -1.67,1.1 -2.65,1.1 H 3.75391 c -0.99219,0 -1.95703,-0.4 -2.65625,-1.1 C 0.402344,2150.56 0,2149.59 0,2148.61 V 3.76172 C 0,2.76953 0.402344,1.80078 1.09766,1.10156 1.79688,0.398438 2.76172,0 3.75391,0 V 3.76172 H 7.51172 V 2144.85 H 4478.74 V 7.51953 H 3.75391 V 3.76172 H 7.51172 3.75391 v 0"
         style="fill:#0e0f0e;fill-opacity:1;fill-rule:nonzero;stroke:none"
         id="path208" /></g></g></svg>
