<?xml version="1.0" encoding="UTF-8" standalone="no"?>
<svg
   xmlns:dc="http://purl.org/dc/elements/1.1/"
   xmlns:cc="http://creativecommons.org/ns#"
   xmlns:rdf="http://www.w3.org/1999/02/22-rdf-syntax-ns#"
   xmlns:svg="http://www.w3.org/2000/svg"
   xmlns="http://www.w3.org/2000/svg"
   xmlns:sodipodi="http://sodipodi.sourceforge.net/DTD/sodipodi-0.dtd"
   xmlns:inkscape="http://www.inkscape.org/namespaces/inkscape"
   version="1.1"
   id="svg2"
   xml:space="preserve"
   width="692.65332"
   height="847.61334"
   viewBox="0 0 692.65332 847.61334"
   sodipodi:docname="usb_it.svg"
   inkscape:version="1.0.1 (3bc2e813f5, 2020-09-07)"><metadata
     id="metadata8"><rdf:RDF><cc:Work
         rdf:about=""><dc:format>image/svg+xml</dc:format><dc:type
           rdf:resource="http://purl.org/dc/dcmitype/StillImage" /><dc:title></dc:title></cc:Work></rdf:RDF></metadata><defs
     id="defs6" /><sodipodi:namedview
     pagecolor="#ffffff"
     bordercolor="#666666"
     borderopacity="1"
     objecttolerance="10"
     gridtolerance="10"
     guidetolerance="10"
     inkscape:pageopacity="0"
     inkscape:pageshadow="2"
     inkscape:window-width="786"
     inkscape:window-height="480"
     id="namedview4"
     showgrid="false"
     inkscape:zoom="1.001636"
     inkscape:cx="346.32666"
     inkscape:cy="423.80667"
     inkscape:window-x="0"
     inkscape:window-y="0"
     inkscape:window-maximized="0"
     inkscape:current-layer="g10" /><g
     id="g10"
     inkscape:groupmode="layer"
     inkscape:label="ink_ext_XXXXXX"
     transform="matrix(1.3333333,0,0,-1.3333333,0,847.61333)"><g
       id="g12"
       transform="scale(0.1)"><path
         d="m 1421.05,1411.65 h 623.62 v 425.22 h -623.62 z"
         style="fill:none;stroke:#231f20;stroke-width:7.5075;stroke-linecap:round;stroke-linejoin:round;stroke-miterlimit:10;stroke-dasharray:none;stroke-opacity:1"
         id="path14" /><g
         id="g16"
         transform="scale(10)"><text
           transform="matrix(1,1e-8,-1e-8,-1,168.226,158.427)"
           style="font-variant:normal;font-weight:normal;font-size:12px;font-family:Calibri;-inkscape-font-specification:Calibri;writing-mode:lr-tb;fill:#231f20;fill-opacity:1;fill-rule:nonzero;stroke:none"
           id="text20"><tspan
             x="0 3.0109384"
             y="0"
             sodipodi:role="line"
             id="tspan18">IN</tspan></text></g><path
         d="m 2327.45,1624.26 v 357.4"
         style="fill:none;stroke:#231f20;stroke-width:7.5075;stroke-linecap:round;stroke-linejoin:round;stroke-miterlimit:10;stroke-dasharray:none;stroke-opacity:1"
         id="path22" /><path
         d="m 2327.45,2030.75 32.41,-64.8 c -20.4,10.2 -44.41,10.2 -64.81,0 l 32.4,64.8"
         style="fill:#231f20;fill-opacity:1;fill-rule:evenodd;stroke:none"
         id="path24" /><path
         d="m 3688.85,1624.26 v 334.99"
         style="fill:none;stroke:#231f20;stroke-width:7.5075;stroke-linecap:round;stroke-linejoin:round;stroke-miterlimit:10;stroke-dasharray:none;stroke-opacity:1"
         id="path26" /><path
         d="m 3688.85,2008.36 32.4,-64.8 c -20.4,10.2 -44.4,10.2 -64.8,0 l 32.4,64.8"
         style="fill:#231f20;fill-opacity:1;fill-rule:evenodd;stroke:none"
         id="path28" /><path
         d="m 1846.25,2025.86 h 901.42 v 416.5 h -901.42 z"
         style="fill:none;stroke:#231f20;stroke-width:15;stroke-linecap:round;stroke-linejoin:round;stroke-miterlimit:10;stroke-dasharray:15, 30;stroke-dashoffset:0;stroke-opacity:1"
         id="path30" /><g
         id="g32"
         transform="scale(10)"><text
           transform="matrix(1,1e-8,-1e-8,-1,196.905,233.876)"
           style="font-variant:normal;font-weight:normal;font-size:12.025px;font-family:Calibri;-inkscape-font-specification:Calibri;writing-mode:lr-tb;fill:#231f20;fill-opacity:1;fill-rule:nonzero;stroke:none"
           id="text36"><tspan
             x="0 5.9800758 9.7398376 12.715999 18.700769 23.964058 29.946867 34.439835 36.689053 42.673035 49.412086 54.642933 59.150749 62.127693 65.889809"
             y="0"
             sodipodi:role="line"
             id="tspan34">Trigger epxcit </tspan></text><text
           transform="matrix(1,1e-8,-1e-8,-1,208.025,219.446)"
           style="font-variant:normal;font-weight:normal;font-size:12px;font-family:Calibri;-inkscape-font-specification:Calibri;writing-mode:lr-tb;fill:#231f20;fill-opacity:1;fill-rule:nonzero;stroke:none"
           id="text42"><tspan
             x="0 2.9820335 8.987112 12.742976 18.712896 23.221113 27.703938 33.70882 39.714092 44.201206"
             y="0"
             sodipodi:role="line"
             id="tspan38">interrupt </tspan><tspan
             x="2.16992 5.8210812 11.019914 16.99999 23.080059 26.109846 29.139143 32.180843 38.269897"
             y="14.3902"
             sodipodi:role="line"
             id="tspan40">(x=1...7)</tspan></text></g><path
         d="m 2610.05,1411.65 h 755.61 v 425.22 h -755.61 z"
         style="fill:none;stroke:#231f20;stroke-width:7.5075;stroke-linecap:round;stroke-linejoin:round;stroke-miterlimit:10;stroke-dasharray:none;stroke-opacity:1"
         id="path44" /><g
         id="g46"
         transform="scale(10)"><text
           transform="matrix(1,1e-8,-1e-8,-1,285.645,158.427)"
           style="font-variant:normal;font-weight:normal;font-size:12px;font-family:Calibri;-inkscape-font-specification:Calibri;writing-mode:lr-tb;fill:#231f20;fill-opacity:1;fill-rule:nonzero;stroke:none"
           id="text50"><tspan
             x="0 7.4789014 14.242184 20.222267"
             y="0"
             sodipodi:role="line"
             id="tspan48">DATA</tspan></text></g><path
         d="m 4057.36,1411.65 h 708.65 v 425.22 h -708.65 z"
         style="fill:none;stroke:#231f20;stroke-width:7.5075;stroke-linecap:round;stroke-linejoin:round;stroke-miterlimit:10;stroke-dasharray:none;stroke-opacity:1"
         id="path52" /><g
         id="g54"
         transform="scale(10)"><text
           transform="matrix(1,1e-8,-1e-8,-1,431.925,158.427)"
           style="font-variant:normal;font-weight:normal;font-size:12px;font-family:Calibri;-inkscape-font-specification:Calibri;writing-mode:lr-tb;fill:#231f20;fill-opacity:1;fill-rule:nonzero;stroke:none"
           id="text58"><tspan
             x="0 6.7640638 13.498053"
             y="0"
             sodipodi:role="line"
             id="tspan56">ACK</tspan></text></g><path
         d="m 3263.66,2025.86 h 892.91 v 416.5 h -892.91 z"
         style="fill:none;stroke:#231f20;stroke-width:15;stroke-linecap:round;stroke-linejoin:round;stroke-miterlimit:10;stroke-dasharray:15, 30;stroke-dashoffset:0;stroke-opacity:1"
         id="path60" /><g
         id="g62"
         transform="scale(10)"><text
           transform="matrix(1,1e-8,-1e-8,-1,337.725,233.876)"
           style="font-variant:normal;font-weight:normal;font-size:12.025px;font-family:Calibri;-inkscape-font-specification:Calibri;writing-mode:lr-tb;fill:#231f20;fill-opacity:1;fill-rule:nonzero;stroke:none"
           id="text66"><tspan
             x="0 5.9808574 9.7390575 12.716 18.699989 23.964058 29.946867 34.439835 36.689831 42.673035 49.410915 54.644108 60.648785 63.624947 67.38784"
             y="0"
             sodipodi:role="line"
             id="tspan64">Trigger epxdit </tspan></text><text
           transform="matrix(1,1e-8,-1e-8,-1,349.456,219.446)"
           style="font-variant:normal;font-weight:normal;font-size:12px;font-family:Calibri;-inkscape-font-specification:Calibri;writing-mode:lr-tb;fill:#231f20;fill-opacity:1;fill-rule:nonzero;stroke:none"
           id="text72"><tspan
             x="0 2.9812524 8.986331 12.742195 18.712116 23.220331 27.704327 33.709209 39.71331 44.201206"
             y="0"
             sodipodi:role="line"
             id="tspan68">interrupt </tspan><tspan
             x="2.1691401 5.8203011 11.019134 16.999992 23.089045 26.093929 29.099983 32.199986 38.269115"
             y="14.3902"
             sodipodi:role="line"
             id="tspan70">(x=1...7)</tspan></text></g><path
         d="M 1421.05,181.148 H 2039 v 425.223 h -617.95 z"
         style="fill:none;stroke:#231f20;stroke-width:7.5075;stroke-linecap:round;stroke-linejoin:round;stroke-miterlimit:10;stroke-dasharray:none;stroke-opacity:1"
         id="path74" /><g
         id="g76"
         transform="scale(10)"><text
           transform="matrix(1,1e-8,-1e-8,-1,162.576,35.2961)"
           style="font-variant:normal;font-weight:normal;font-size:12.025px;font-family:Calibri;-inkscape-font-specification:Calibri;writing-mode:lr-tb;fill:#231f20;fill-opacity:1;fill-rule:nonzero;stroke:none"
           id="text80"><tspan
             x="0 8.2257843 15.736728"
             y="0"
             sodipodi:role="line"
             id="tspan78">OUT</tspan></text></g><path
         d="M 2320.65,393.75 V 762.559"
         style="fill:none;stroke:#231f20;stroke-width:7.5075;stroke-linecap:round;stroke-linejoin:round;stroke-miterlimit:10;stroke-dasharray:none;stroke-opacity:1"
         id="path82" /><path
         d="m 2320.65,811.648 32.4,-64.789 c -20.4,10.192 -44.39,10.192 -64.79,0 l 32.39,64.789"
         style="fill:#231f20;fill-opacity:1;fill-rule:evenodd;stroke:none"
         id="path84" /><path
         d="M 3688.85,393.75 V 762.559"
         style="fill:none;stroke:#231f20;stroke-width:7.5075;stroke-linecap:round;stroke-linejoin:round;stroke-miterlimit:10;stroke-dasharray:none;stroke-opacity:1"
         id="path86" /><path
         d="m 3688.85,811.648 32.4,-64.789 c -20.4,10.192 -44.4,10.192 -64.8,0 l 32.4,64.789"
         style="fill:#231f20;fill-opacity:1;fill-rule:evenodd;stroke:none"
         id="path88" /><path
         d="m 1846.25,811.648 h 907.09 v 403.202 h -907.09 z"
         style="fill:none;stroke:#231f20;stroke-width:15;stroke-linecap:round;stroke-linejoin:round;stroke-miterlimit:10;stroke-dasharray:15, 30;stroke-dashoffset:0;stroke-opacity:1"
         id="path90" /><g
         id="g92"
         transform="scale(10)"><text
           transform="matrix(1,1e-8,-1e-8,-1,197.175,111.696)"
           style="font-variant:normal;font-weight:normal;font-size:12.025px;font-family:Calibri;-inkscape-font-specification:Calibri;writing-mode:lr-tb;fill:#231f20;fill-opacity:1;fill-rule:nonzero;stroke:none"
           id="text96"><tspan
             x="0 6.0039043 9.7878857 12.799985 18.808975 24.09609 30.103899 34.608974 36.882019 42.88905 49.63982 54.896061 59.428093 62.4398 66.228088"
             y="0"
             sodipodi:role="line"
             id="tspan94">Trigger epxcit </tspan></text><text
           transform="matrix(1,1e-8,-1e-8,-1,208.306,97.2762)"
           style="font-variant:normal;font-weight:normal;font-size:12px;font-family:Calibri;-inkscape-font-specification:Calibri;writing-mode:lr-tb;fill:#231f20;fill-opacity:1;fill-rule:nonzero;stroke:none"
           id="text102"><tspan
             x="0 2.9820335 9.0101576 12.766023 18.773052 23.280388 27.787128 33.816425 39.845329 44.357056"
             y="0"
             sodipodi:role="line"
             id="tspan98">interrupt </tspan><tspan
             x="2.17031 5.8191276 11.020303 16.99999 23.090216 26.095587 29.099981 32.199203 38.270287"
             y="14.4"
             sodipodi:role="line"
             id="tspan100">(x=1...7)</tspan></text></g><path
         d="m 2602.15,181.148 h 746.47 v 425.223 h -746.47 z"
         style="fill:none;stroke:#231f20;stroke-width:7.5075;stroke-linecap:round;stroke-linejoin:round;stroke-miterlimit:10;stroke-dasharray:none;stroke-opacity:1"
         id="path104" /><g
         id="g106"
         transform="scale(10)"><text
           transform="matrix(1,1e-8,-1e-8,-1,284.395,35.2961)"
           style="font-variant:normal;font-weight:normal;font-size:12.025px;font-family:Calibri;-inkscape-font-specification:Calibri;writing-mode:lr-tb;fill:#231f20;fill-opacity:1;fill-rule:nonzero;stroke:none"
           id="text110"><tspan
             x="0 7.4820204 14.235146 20.216003"
             y="0"
             sodipodi:role="line"
             id="tspan108">DATA</tspan></text></g><path
         d="M 4114.06,181.148 H 4780.2 V 606.371 H 4114.06 Z"
         style="fill:none;stroke:#231f20;stroke-width:7.5075;stroke-linecap:round;stroke-linejoin:round;stroke-miterlimit:10;stroke-dasharray:none;stroke-opacity:1"
         id="path112" /><g
         id="g114"
         transform="scale(10)"><text
           transform="matrix(1,1e-8,-1e-8,-1,435.475,35.2961)"
           style="font-variant:normal;font-weight:normal;font-size:12.025px;font-family:Calibri;-inkscape-font-specification:Calibri;writing-mode:lr-tb;fill:#231f20;fill-opacity:1;fill-rule:nonzero;stroke:none"
           id="text118"><tspan
             x="0 6.7531486 13.478148"
             y="0"
             sodipodi:role="line"
             id="tspan116">ACK</tspan></text></g><path
         d="m 3206.96,811.648 h 907.09 v 382.692 h -907.09 z"
         style="fill:none;stroke:#231f20;stroke-width:15;stroke-linecap:round;stroke-linejoin:round;stroke-miterlimit:10;stroke-dasharray:15, 30;stroke-dashoffset:0;stroke-opacity:1"
         id="path120" /><g
         id="g122"
         transform="scale(10)"><text
           transform="matrix(1,1e-8,-1e-8,-1,332.755,110.677)"
           style="font-variant:normal;font-weight:normal;font-size:12.025px;font-family:Calibri;-inkscape-font-specification:Calibri;writing-mode:lr-tb;fill:#231f20;fill-opacity:1;fill-rule:nonzero;stroke:none"
           id="text126"><tspan
             x="0 5.9808574 9.7398386 12.716 18.700771 23.964058 29.94804 34.439835 36.689835 42.673035 49.412086 54.643715 60.648785 63.624947 67.38784"
             y="0"
             sodipodi:role="line"
             id="tspan124">Trigger epxdit </tspan></text><text
           transform="matrix(1,1e-8,-1e-8,-1,344.505,96.2461)"
           style="font-variant:normal;font-weight:normal;font-size:12px;font-family:Calibri;-inkscape-font-specification:Calibri;writing-mode:lr-tb;fill:#231f20;fill-opacity:1;fill-rule:nonzero;stroke:none"
           id="text132"><tspan
             x="0 2.9820335 8.987112 12.742976 18.712896 23.221113 27.703938 33.70882 39.714092 44.201988"
             y="0"
             sodipodi:role="line"
             id="tspan128">interrupt </tspan><tspan
             x="2.16992 5.7898312 10.999991 16.99999 23.071075 26.07596 29.080843 32.169907 38.249977"
             y="14.3891"
             sodipodi:role="line"
             id="tspan130">(x=1...7)</tspan></text></g><path
         d="m 1397.86,5180.06 h 613.48 v 425.21 h -613.48 z"
         style="fill:none;stroke:#231f20;stroke-width:7.5075;stroke-linecap:round;stroke-linejoin:round;stroke-miterlimit:10;stroke-dasharray:none;stroke-opacity:1"
         id="path134" /><g
         id="g136"
         transform="scale(10)"><text
           transform="matrix(1,1e-8,-1e-8,-1,155.195,535.556)"
           style="font-variant:normal;font-weight:normal;font-size:12.025px;font-family:Calibri;-inkscape-font-specification:Calibri;writing-mode:lr-tb;fill:#231f20;fill-opacity:1;fill-rule:nonzero;stroke:none"
           id="text140"><tspan
             x="0 5.2609425 11.24102 17.221096 24.732038"
             y="0"
             sodipodi:role="line"
             id="tspan138">SETUP</tspan></text></g><path
         d="m 2309.55,5392.66 v 429.79"
         style="fill:none;stroke:#231f20;stroke-width:7.5075;stroke-linecap:round;stroke-linejoin:round;stroke-miterlimit:10;stroke-dasharray:none;stroke-opacity:1"
         id="path142" /><path
         d="m 2309.55,5871.46 32.41,-64.8 c -20.4,10.2 -44.41,10.2 -64.81,0 l 32.4,64.8"
         style="fill:#231f20;fill-opacity:1;fill-rule:evenodd;stroke:none"
         id="path144" /><path
         d="m 3688.85,5392.66 v 429.79"
         style="fill:none;stroke:#231f20;stroke-width:7.5075;stroke-linecap:round;stroke-linejoin:round;stroke-miterlimit:10;stroke-dasharray:none;stroke-opacity:1"
         id="path146" /><path
         d="m 3688.85,5871.46 32.4,-64.8 c -20.4,10.2 -44.4,10.2 -64.8,0 l 32.4,64.8"
         style="fill:#231f20;fill-opacity:1;fill-rule:evenodd;stroke:none"
         id="path148" /><path
         d="m 1846.25,5871.46 h 939.49 v 318.3 h -939.49 z"
         style="fill:none;stroke:#231f20;stroke-width:15;stroke-linecap:round;stroke-linejoin:round;stroke-miterlimit:10;stroke-dasharray:15, 30;stroke-dashoffset:0;stroke-opacity:1"
         id="path150" /><g
         id="g152"
         transform="scale(10)"><text
           transform="matrix(1,1e-8,-1e-8,-1,199.175,606.576)"
           style="font-variant:normal;font-weight:normal;font-size:12px;font-family:Calibri;-inkscape-font-specification:Calibri;writing-mode:lr-tb;fill:#231f20;fill-opacity:1;fill-rule:nonzero;stroke:none"
           id="text158"><tspan
             x="0 5.9800835 9.732048 12.714082 18.698065 23.962124 29.933218 34.44104 36.698063 42.950012 49.050003 53.551186 58.782043 61.764076 65.519157"
             y="0"
             sodipodi:role="line"
             id="tspan154">Trigger e0scit </tspan><tspan
             x="10.75 13.732034 19.737112 23.492195 29.462898 33.971111 38.453938 44.45882 50.464092"
             y="14.4"
             sodipodi:role="line"
             id="tspan156">interrupt</tspan></text></g><path
         d="m 2607.55,5180.06 h 656.02 v 425.21 h -656.02 z"
         style="fill:none;stroke:#231f20;stroke-width:7.5075;stroke-linecap:round;stroke-linejoin:round;stroke-miterlimit:10;stroke-dasharray:none;stroke-opacity:1"
         id="path160" /><g
         id="g162"
         transform="scale(10)"><text
           transform="matrix(1,1e-8,-1e-8,-1,280.425,535.526)"
           style="font-variant:normal;font-weight:normal;font-size:12px;font-family:Calibri;-inkscape-font-specification:Calibri;writing-mode:lr-tb;fill:#231f20;fill-opacity:1;fill-rule:nonzero;stroke:none"
           id="text166"><tspan
             x="0 7.4789014 14.242184 20.221878"
             y="0"
             sodipodi:role="line"
             id="tspan164">DATA</tspan></text></g><path
         d="m 4024.95,5180.06 h 656.01 v 425.21 h -656.01 z"
         style="fill:none;stroke:#231f20;stroke-width:7.5075;stroke-linecap:round;stroke-linejoin:round;stroke-miterlimit:10;stroke-dasharray:none;stroke-opacity:1"
         id="path168" /><g
         id="g170"
         transform="scale(10)"><text
           transform="matrix(1,1e-8,-1e-8,-1,426.055,535.526)"
           style="font-variant:normal;font-weight:normal;font-size:12px;font-family:Calibri;-inkscape-font-specification:Calibri;writing-mode:lr-tb;fill:#231f20;fill-opacity:1;fill-rule:nonzero;stroke:none"
           id="text174"><tspan
             x="0 6.7640638 13.498053"
             y="0"
             sodipodi:role="line"
             id="tspan172">ACK</tspan></text></g><path
         d="m 3263.66,5871.46 h 956.69 v 318.3 h -956.69 z"
         style="fill:none;stroke:#231f20;stroke-width:15;stroke-linecap:round;stroke-linejoin:round;stroke-miterlimit:10;stroke-dasharray:15, 30;stroke-dashoffset:0;stroke-opacity:1"
         id="path176" /><g
         id="g178"
         transform="scale(10)"><text
           transform="matrix(1,1e-8,-1e-8,-1,341.276,606.576)"
           style="font-variant:normal;font-weight:normal;font-size:12px;font-family:Calibri;-inkscape-font-specification:Calibri;writing-mode:lr-tb;fill:#231f20;fill-opacity:1;fill-rule:nonzero;stroke:none"
           id="text184"><tspan
             x="0 5.9789124 9.7308769 12.712911 18.696894 23.961735 29.932045 34.439869 36.696892 42.948841 49.050007 53.550797 60.287903 62.537907 67.025024"
             y="0"
             sodipodi:role="line"
             id="tspan180">Trigger e0sdit </tspan><tspan
             x="11.3687 14.349953 20.354639 24.110893 30.081987 34.589809 39.072636 45.077518 51.08279"
             y="14.4"
             sodipodi:role="line"
             id="tspan182">interrupt</tspan></text></g><path
         d="m 1421.05,3939.45 h 619.98 v 425.21 h -619.98 z"
         style="fill:none;stroke:#231f20;stroke-width:7.5075;stroke-linecap:round;stroke-linejoin:round;stroke-miterlimit:10;stroke-dasharray:none;stroke-opacity:1"
         id="path186" /><g
         id="g188"
         transform="scale(10)"><text
           transform="matrix(1,1e-8,-1e-8,-1,168.025,411.406)"
           style="font-variant:normal;font-weight:normal;font-size:12.025px;font-family:Calibri;-inkscape-font-specification:Calibri;writing-mode:lr-tb;fill:#231f20;fill-opacity:1;fill-rule:nonzero;stroke:none"
           id="text192"><tspan
             x="0 3.0297873"
             y="0"
             sodipodi:role="line"
             id="tspan190">IN</tspan></text></g><path
         d="m 2353.56,4152.06 v 379.89"
         style="fill:none;stroke:#231f20;stroke-width:7.5075;stroke-linecap:round;stroke-linejoin:round;stroke-miterlimit:10;stroke-dasharray:none;stroke-opacity:1"
         id="path194" /><path
         d="m 2353.56,4580.95 32.39,-64.8 c -20.4,10.2 -44.39,10.2 -64.79,0 l 32.4,64.8"
         style="fill:#231f20;fill-opacity:1;fill-rule:evenodd;stroke:none"
         id="path196" /><path
         d="m 3688.85,4152.06 v 357.5"
         style="fill:none;stroke:#231f20;stroke-width:7.5075;stroke-linecap:round;stroke-linejoin:round;stroke-miterlimit:10;stroke-dasharray:none;stroke-opacity:1"
         id="path198" /><path
         d="m 3688.85,4558.65 32.4,-64.8 c -20.4,10.2 -44.4,10.2 -64.8,0 l 32.4,64.8"
         style="fill:#231f20;fill-opacity:1;fill-rule:evenodd;stroke:none"
         id="path200" /><path
         d="m 1917.15,4586.26 h 921.26 v 318.3 h -921.26 z"
         style="fill:none;stroke:#231f20;stroke-width:15;stroke-linecap:round;stroke-linejoin:round;stroke-miterlimit:10;stroke-dasharray:15, 30;stroke-dashoffset:0;stroke-opacity:1"
         id="path202" /><g
         id="g204"
         transform="scale(10)"><text
           transform="matrix(1,1e-8,-1e-8,-1,206.326,477.976)"
           style="font-variant:normal;font-weight:normal;font-size:12.025px;font-family:Calibri;-inkscape-font-specification:Calibri;writing-mode:lr-tb;fill:#231f20;fill-opacity:1;fill-rule:nonzero;stroke:none"
           id="text208"><tspan
             x="0 5.9796863 9.7386675 12.714828 18.699989 23.963667 29.946867 34.43866 36.68866 42.949986 49.048809 52.025753 56.532787 59.508945 63.271843"
             y="0"
             sodipodi:role="line"
             id="tspan206">Trigger e0icit </tspan></text><text
           transform="matrix(1,1e-8,-1e-8,-1,216.096,463.556)"
           style="font-variant:normal;font-weight:normal;font-size:12px;font-family:Calibri;-inkscape-font-specification:Calibri;writing-mode:lr-tb;fill:#231f20;fill-opacity:1;fill-rule:nonzero;stroke:none"
           id="text212"><tspan
             x="0 3.0058608 9.0339851 12.825788 18.832037 23.339861 27.848063 33.876385 39.905094"
             y="0"
             sodipodi:role="line"
             id="tspan210">interrupt</tspan></text></g><path
         d="m 2599.25,3939.45 h 761.71 v 425.21 h -761.71 z"
         style="fill:none;stroke:#231f20;stroke-width:7.5075;stroke-linecap:round;stroke-linejoin:round;stroke-miterlimit:10;stroke-dasharray:none;stroke-opacity:1"
         id="path214" /><g
         id="g216"
         transform="scale(10)"><text
           transform="matrix(1,1e-8,-1e-8,-1,284.875,411.406)"
           style="font-variant:normal;font-weight:normal;font-size:12.025px;font-family:Calibri;-inkscape-font-specification:Calibri;writing-mode:lr-tb;fill:#231f20;fill-opacity:1;fill-rule:nonzero;stroke:none"
           id="text220"><tspan
             x="0 7.4831924 14.235926 20.216002"
             y="0"
             sodipodi:role="line"
             id="tspan218">DATA</tspan></text></g><path
         d="m 4020.05,3939.45 h 754.83 v 425.21 h -754.83 z"
         style="fill:none;stroke:#231f20;stroke-width:7.5075;stroke-linecap:round;stroke-linejoin:round;stroke-miterlimit:10;stroke-dasharray:none;stroke-opacity:1"
         id="path222" /><g
         id="g224"
         transform="scale(10)"><text
           transform="matrix(1,1e-8,-1e-8,-1,430.505,411.406)"
           style="font-variant:normal;font-weight:normal;font-size:12.025px;font-family:Calibri;-inkscape-font-specification:Calibri;writing-mode:lr-tb;fill:#231f20;fill-opacity:1;fill-rule:nonzero;stroke:none"
           id="text228"><tspan
             x="0 6.7531486 13.478148"
             y="0"
             sodipodi:role="line"
             id="tspan226">ACK</tspan></text></g><path
         d="m 3263.66,4586.26 h 903.63 v 318.3 h -903.63 z"
         style="fill:none;stroke:#231f20;stroke-width:15;stroke-linecap:round;stroke-linejoin:round;stroke-miterlimit:10;stroke-dasharray:15, 30;stroke-dashoffset:0;stroke-opacity:1"
         id="path230" /><g
         id="g232"
         transform="scale(10)"><text
           transform="matrix(1,1e-8,-1e-8,-1,339.595,477.976)"
           style="font-variant:normal;font-weight:normal;font-size:12.025px;font-family:Calibri;-inkscape-font-specification:Calibri;writing-mode:lr-tb;fill:#231f20;fill-opacity:1;fill-rule:nonzero;stroke:none"
           id="text236"><tspan
             x="0 5.9812484 9.7390575 12.716 18.699989 23.964058 29.947258 34.440224 36.690224 42.949986 49.03006 52.04216 58.072227 61.083935 64.871048"
             y="0"
             sodipodi:role="line"
             id="tspan234">Trigger e0idit </tspan></text><text
           transform="matrix(1,1e-8,-1e-8,-1,350.005,463.556)"
           style="font-variant:normal;font-weight:normal;font-size:12px;font-family:Calibri;-inkscape-font-specification:Calibri;writing-mode:lr-tb;fill:#231f20;fill-opacity:1;fill-rule:nonzero;stroke:none"
           id="text240"><tspan
             x="0 2.9820335 8.987112 12.742976 18.712896 23.221113 27.703938 33.70882 39.714092"
             y="0"
             sodipodi:role="line"
             id="tspan238">interrupt</tspan></text></g><path
         d="m 1421.05,2698.76 h 637.8 v 425.21 h -637.8 z"
         style="fill:none;stroke:#231f20;stroke-width:7.5075;stroke-linecap:round;stroke-linejoin:round;stroke-miterlimit:10;stroke-dasharray:none;stroke-opacity:1"
         id="path242" /><g
         id="g244"
         transform="scale(10)"><text
           transform="matrix(1,1e-8,-1e-8,-1,163.556,287.226)"
           style="font-variant:normal;font-weight:normal;font-size:12px;font-family:Calibri;-inkscape-font-specification:Calibri;writing-mode:lr-tb;fill:#231f20;fill-opacity:1;fill-rule:nonzero;stroke:none"
           id="text248"><tspan
             x="0 8.2570372 15.788282"
             y="0"
             sodipodi:role="line"
             id="tspan246">OUT</tspan></text></g><path
         d="m 2335.36,2911.35 v 392.41"
         style="fill:none;stroke:#231f20;stroke-width:7.5075;stroke-linecap:round;stroke-linejoin:round;stroke-miterlimit:10;stroke-dasharray:none;stroke-opacity:1"
         id="path250" /><path
         d="m 2335.36,3352.76 32.4,-64.8 c -20.4,10.2 -44.41,10.2 -64.81,0 l 32.41,64.8"
         style="fill:#231f20;fill-opacity:1;fill-rule:evenodd;stroke:none"
         id="path252" /><path
         d="m 3688.85,2911.35 v 407.3"
         style="fill:none;stroke:#231f20;stroke-width:7.5075;stroke-linecap:round;stroke-linejoin:round;stroke-miterlimit:10;stroke-dasharray:none;stroke-opacity:1"
         id="path254" /><path
         d="m 3688.85,3367.66 32.4,-64.81 c -20.4,10.21 -44.4,10.21 -64.8,0 l 32.4,64.81"
         style="fill:#231f20;fill-opacity:1;fill-rule:evenodd;stroke:none"
         id="path256" /><path
         d="m 1940.25,3362.85 h 898.18 v 318.3 h -898.18 z"
         style="fill:none;stroke:#231f20;stroke-width:15;stroke-linecap:round;stroke-linejoin:round;stroke-miterlimit:10;stroke-dasharray:15, 30;stroke-dashoffset:0;stroke-opacity:1"
         id="path258" /><g
         id="g260"
         transform="scale(10)"><text
           transform="matrix(1,1e-8,-1e-8,-1,205.695,355.556)"
           style="font-variant:normal;font-weight:normal;font-size:12.025px;font-family:Calibri;-inkscape-font-specification:Calibri;writing-mode:lr-tb;fill:#231f20;fill-opacity:1;fill-rule:nonzero;stroke:none"
           id="text264"><tspan
             x="0 5.9800758 9.7402287 12.716 18.70116 23.964058 29.947258 34.440224 36.690224 42.960922 49.03006 55.058178 60.324196 63.335903 67.124191"
             y="0"
             sodipodi:role="line"
             id="tspan262">Trigger e0ocit </tspan></text><text
           transform="matrix(1,1e-8,-1e-8,-1,217.275,341.126)"
           style="font-variant:normal;font-weight:normal;font-size:12px;font-family:Calibri;-inkscape-font-specification:Calibri;writing-mode:lr-tb;fill:#231f20;fill-opacity:1;fill-rule:nonzero;stroke:none"
           id="text268"><tspan
             x="0 2.9820335 8.987112 12.742976 18.712896 23.221113 27.703938 33.70882 39.714092"
             y="0"
             sodipodi:role="line"
             id="tspan266">interrupt</tspan></text></g><path
         d="m 2611.65,2698.76 h 754.03 v 425.21 h -754.03 z"
         style="fill:none;stroke:#231f20;stroke-width:7.5075;stroke-linecap:round;stroke-linejoin:round;stroke-miterlimit:10;stroke-dasharray:none;stroke-opacity:1"
         id="path270" /><g
         id="g272"
         transform="scale(10)"><text
           transform="matrix(1,1e-8,-1e-8,-1,285.725,287.226)"
           style="font-variant:normal;font-weight:normal;font-size:12px;font-family:Calibri;-inkscape-font-specification:Calibri;writing-mode:lr-tb;fill:#231f20;fill-opacity:1;fill-rule:nonzero;stroke:none"
           id="text276"><tspan
             x="0 7.4789014 14.242184 20.221878"
             y="0"
             sodipodi:role="line"
             id="tspan274">DATA</tspan></text></g><path
         d="m 4028.95,2698.76 h 737.01 v 425.21 h -737.01 z"
         style="fill:none;stroke:#231f20;stroke-width:7.5075;stroke-linecap:round;stroke-linejoin:round;stroke-miterlimit:10;stroke-dasharray:none;stroke-opacity:1"
         id="path278" /><g
         id="g280"
         transform="scale(10)"><text
           transform="matrix(1,1e-8,-1e-8,-1,430.505,287.226)"
           style="font-variant:normal;font-weight:normal;font-size:12px;font-family:Calibri;-inkscape-font-specification:Calibri;writing-mode:lr-tb;fill:#231f20;fill-opacity:1;fill-rule:nonzero;stroke:none"
           id="text284"><tspan
             x="0 6.7640638 13.498053"
             y="0"
             sodipodi:role="line"
             id="tspan282">ACK</tspan></text></g><path
         d="m 3263.66,3362.85 h 953.04 v 318.3 h -953.04 z"
         style="fill:none;stroke:#231f20;stroke-width:15;stroke-linecap:round;stroke-linejoin:round;stroke-miterlimit:10;stroke-dasharray:15, 30;stroke-dashoffset:0;stroke-opacity:1"
         id="path286" /><g
         id="g288"
         transform="scale(10)"><text
           transform="matrix(1,1e-8,-1e-8,-1,340.276,355.556)"
           style="font-variant:normal;font-weight:normal;font-size:12.025px;font-family:Calibri;-inkscape-font-specification:Calibri;writing-mode:lr-tb;fill:#231f20;fill-opacity:1;fill-rule:nonzero;stroke:none"
           id="text292"><tspan
             x="0 6.0039043 9.7867136 12.799985 18.807802 24.095699 30.102728 34.607803 36.88163 42.888657 49.268726 55.379658 61.384727 64.360886 68.123787"
             y="0"
             sodipodi:role="line"
             id="tspan290">Trigger ep0dit </tspan></text><text
           transform="matrix(1,1e-8,-1e-8,-1,352.475,341.126)"
           style="font-variant:normal;font-weight:normal;font-size:12px;font-family:Calibri;-inkscape-font-specification:Calibri;writing-mode:lr-tb;fill:#231f20;fill-opacity:1;fill-rule:nonzero;stroke:none"
           id="text296"><tspan
             x="0 2.9820335 8.98594 12.742194 18.712896 23.221111 27.703936 33.70882 39.714092"
             y="0"
             sodipodi:role="line"
             id="tspan294">interrupt</tspan></text></g><path
         d="m 450.652,5162.85 h 523.461 v 464.53 H 450.652 Z"
         style="fill:none;stroke:#231f20;stroke-width:10;stroke-linecap:round;stroke-linejoin:round;stroke-miterlimit:10;stroke-dasharray:none;stroke-opacity:1"
         id="path298" /><g
         id="g300"
         transform="scale(10)"><text
           transform="matrix(1,1e-8,-1e-8,-1,57.7258,533.976)"
           style="font-variant:normal;font-weight:bold;font-size:18px;font-family:Calibri;-inkscape-font-specification:Calibri-Bold;writing-mode:lr-tb;fill:#231f20;fill-opacity:1;fill-rule:nonzero;stroke:none"
           id="text304"><tspan
             x="0 8.9960899 18.379683"
             y="0"
             sodipodi:role="line"
             id="tspan302">EP0</tspan></text></g><path
         d="M 428.953,2667.96 H 953.02 v 464.52 H 428.953 Z"
         style="fill:none;stroke:#231f20;stroke-width:10;stroke-linecap:round;stroke-linejoin:round;stroke-miterlimit:10;stroke-dasharray:none;stroke-opacity:1"
         id="path306" /><g
         id="g308"
         transform="scale(10)"><text
           transform="matrix(1,1e-8,-1e-8,-1,55.5758,284.326)"
           style="font-variant:normal;font-weight:bold;font-size:18.025px;font-family:Calibri;-inkscape-font-specification:Calibri-Bold;writing-mode:lr-tb;fill:#231f20;fill-opacity:1;fill-rule:nonzero;stroke:none"
           id="text312"><tspan
             x="0 8.9906263 18.379688"
             y="0"
             sodipodi:role="line"
             id="tspan310">EP0</tspan></text></g><path
         d="m 428.953,3989.66 h 566.93 v 464.52 h -566.93 z"
         style="fill:none;stroke:#231f20;stroke-width:10;stroke-linecap:round;stroke-linejoin:round;stroke-miterlimit:10;stroke-dasharray:none;stroke-opacity:1"
         id="path314" /><g
         id="g316"
         transform="scale(10)"><text
           transform="matrix(1,1e-8,-1e-8,-1,57.7258,416.576)"
           style="font-variant:normal;font-weight:bold;font-size:18px;font-family:Calibri;-inkscape-font-specification:Calibri-Bold;writing-mode:lr-tb;fill:#231f20;fill-opacity:1;fill-rule:nonzero;stroke:none"
           id="text320"><tspan
             x="0 8.9960899 18.379683"
             y="0"
             sodipodi:role="line"
             id="tspan318">EP0</tspan></text></g><path
         d="m 182.555,1397.45 h 776.304 v 465.77 H 182.555 Z"
         style="fill:none;stroke:#231f20;stroke-width:10;stroke-linecap:round;stroke-linejoin:round;stroke-miterlimit:10;stroke-dasharray:none;stroke-opacity:1"
         id="path322" /><g
         id="g324"
         transform="scale(10)"><text
           transform="matrix(1,1e-8,-1e-8,-1,21.2258,157.227)"
           style="font-variant:normal;font-weight:bold;font-size:18px;font-family:Calibri;-inkscape-font-specification:Calibri-Bold;writing-mode:lr-tb;fill:#231f20;fill-opacity:1;fill-rule:nonzero;stroke:none"
           id="text328"><tspan
             x="0 8.9960938 18.369921 27.385155 31.580078 40.549606 44.629684 53.625778 62.999996"
             y="0"
             sodipodi:role="line"
             id="tspan326">EP1 – EP7</tspan></text></g><path
         d="M 166.953,153.559 H 974.434 V 619.328 H 166.953 Z"
         style="fill:none;stroke:#231f20;stroke-width:10;stroke-linecap:round;stroke-linejoin:round;stroke-miterlimit:10;stroke-dasharray:none;stroke-opacity:1"
         id="path330" /><g
         id="g332"
         transform="scale(10)"><text
           transform="matrix(1,1e-8,-1e-8,-1,21.2258,32.7461)"
           style="font-variant:normal;font-weight:bold;font-size:18px;font-family:Calibri;-inkscape-font-specification:Calibri-Bold;writing-mode:lr-tb;fill:#231f20;fill-opacity:1;fill-rule:nonzero;stroke:none"
           id="text336"><tspan
             x="0 8.9960938 18.369921 27.385155 31.580078 40.549606 44.629684 53.625778 62.999996"
             y="0"
             sodipodi:role="line"
             id="tspan334">EP1 – EP7</tspan></text></g><path
         d="m 995.852,5402.26 h 296.098 v 44 l 110.2,-110.2 -110.2,-110.2 v 44.09 H 995.852 v 132.31"
         style="fill:#ffffff;fill-opacity:1;fill-rule:evenodd;stroke:none"
         id="path338" /><path
         d="m 995.852,5402.26 h 296.098 v 44 l 110.2,-110.2 -110.2,-110.2 v 44.09 H 995.852"
         style="fill:none;stroke:#231f20;stroke-width:15;stroke-linecap:square;stroke-linejoin:miter;stroke-miterlimit:2;stroke-dasharray:none;stroke-opacity:1"
         id="path340" /><path
         d="m 1046.95,4289.05 h 263.9 v 44.11 l 110.2,-110.2 -110.2,-110.2 v 43.99 h -263.9 v 132.3"
         style="fill:#ffffff;fill-opacity:1;fill-rule:evenodd;stroke:none"
         id="path342" /><path
         d="m 1046.95,4289.05 h 263.9 v 44.11 l 110.2,-110.2 -110.2,-110.2 v 43.99 h -263.9"
         style="fill:none;stroke:#231f20;stroke-width:15;stroke-linecap:square;stroke-linejoin:miter;stroke-miterlimit:2;stroke-dasharray:none;stroke-opacity:1"
         id="path344" /><path
         d="m 995.852,2970.26 h 314.998 v 44.1 l 110.2,-110.2 -110.2,-110.31 v 44.11 H 995.852 v 132.3"
         style="fill:#ffffff;fill-opacity:1;fill-rule:evenodd;stroke:none"
         id="path346" /><path
         d="m 995.852,2970.26 h 314.998 v 44.1 l 110.2,-110.2 -110.2,-110.31 v 44.11 H 995.852"
         style="fill:none;stroke:#231f20;stroke-width:15;stroke-linecap:square;stroke-linejoin:miter;stroke-miterlimit:2;stroke-dasharray:none;stroke-opacity:1"
         id="path348" /><path
         d="m 995.852,1693.75 h 314.998 v 44.1 l 110.2,-110.19 -110.2,-110.3 v 44.1 H 995.852 v 132.29"
         style="fill:#ffffff;fill-opacity:1;fill-rule:evenodd;stroke:none"
         id="path350" /><path
         d="m 995.852,1693.75 h 314.998 v 44.1 l 110.2,-110.19 -110.2,-110.3 v 44.1 H 995.852"
         style="fill:none;stroke:#231f20;stroke-width:15;stroke-linecap:square;stroke-linejoin:miter;stroke-miterlimit:2;stroke-dasharray:none;stroke-opacity:1"
         id="path352" /><path
         d="m 995.852,446.762 h 314.998 v 44.09 l 110.2,-110.192 -110.2,-110.211 v 44.102 H 995.852 v 132.211"
         style="fill:#ffffff;fill-opacity:1;fill-rule:evenodd;stroke:none"
         id="path354" /><path
         d="m 995.852,446.762 h 314.998 v 44.09 l 110.2,-110.192 -110.2,-110.211 v 44.102 H 995.852"
         style="fill:none;stroke:#231f20;stroke-width:15;stroke-linecap:square;stroke-linejoin:miter;stroke-miterlimit:2;stroke-dasharray:none;stroke-opacity:1"
         id="path356" /><path
         d="m 2011.35,5392.66 h 596.2"
         style="fill:none;stroke:#231f20;stroke-width:22.5;stroke-linecap:round;stroke-linejoin:round;stroke-miterlimit:2;stroke-dasharray:none;stroke-opacity:1"
         id="path358" /><path
         d="m 2041.05,4152.06 h 558.2"
         style="fill:none;stroke:#231f20;stroke-width:22.5;stroke-linecap:round;stroke-linejoin:round;stroke-miterlimit:2;stroke-dasharray:none;stroke-opacity:1"
         id="path360" /><path
         d="m 2058.85,2911.35 h 552.8"
         style="fill:none;stroke:#231f20;stroke-width:22.5;stroke-linecap:round;stroke-linejoin:round;stroke-miterlimit:2;stroke-dasharray:none;stroke-opacity:1"
         id="path362" /><path
         d="m 2044.75,1624.26 h 565.3"
         style="fill:none;stroke:#231f20;stroke-width:22.5;stroke-linecap:round;stroke-linejoin:round;stroke-miterlimit:2;stroke-dasharray:none;stroke-opacity:1"
         id="path364" /><path
         d="m 2039.05,393.75 h 563.1"
         style="fill:none;stroke:#231f20;stroke-width:22.5;stroke-linecap:round;stroke-linejoin:round;stroke-miterlimit:2;stroke-dasharray:none;stroke-opacity:1"
         id="path366" /><path
         d="m 3348.66,393.75 h 765.4"
         style="fill:none;stroke:#231f20;stroke-width:22.5;stroke-linecap:round;stroke-linejoin:round;stroke-miterlimit:2;stroke-dasharray:none;stroke-opacity:1"
         id="path368" /><path
         d="m 3365.66,1624.26 h 691.7"
         style="fill:none;stroke:#231f20;stroke-width:22.5;stroke-linecap:round;stroke-linejoin:round;stroke-miterlimit:2;stroke-dasharray:none;stroke-opacity:1"
         id="path370" /><path
         d="m 3365.66,2911.35 h 663.29"
         style="fill:none;stroke:#231f20;stroke-width:22.5;stroke-linecap:round;stroke-linejoin:round;stroke-miterlimit:2;stroke-dasharray:none;stroke-opacity:1"
         id="path372" /><path
         d="m 3361.06,4152.06 h 658.99"
         style="fill:none;stroke:#231f20;stroke-width:22.5;stroke-linecap:round;stroke-linejoin:round;stroke-miterlimit:2;stroke-dasharray:none;stroke-opacity:1"
         id="path374" /><path
         d="m 3263.66,5392.66 h 761.29"
         style="fill:none;stroke:#231f20;stroke-width:22.5;stroke-linecap:round;stroke-linejoin:round;stroke-miterlimit:2;stroke-dasharray:none;stroke-opacity:1"
         id="path376" /><g
         id="g378"
         transform="scale(10)"><text
           transform="matrix(1,1e-8,-1e-8,-1,148.105,563.126)"
           style="font-variant:normal;font-weight:normal;font-size:8.25px;font-family:Calibri;-inkscape-font-specification:Calibri;writing-mode:lr-tb;fill:#231f20;fill-opacity:1;fill-rule:nonzero;stroke:none"
           id="text386"><tspan
             x="0 4.5078125 8.2898397 11.31797 14.337115 16.069925 18.519926 22.273836 24.319927 28.803131 32.562119 36.287895 37.809776 41.553921"
             y="0"
             sodipodi:role="line"
             id="tspan380">host -&gt; device</tspan><tspan
             x="1.15 5.6328125 9.3898392 12.393751 15.387897 17.189848 19.650003 23.403913 25.450787 29.93399 33.691807 37.417976 38.939854 42.68478"
             y="119.07"
             sodipodi:role="line"
             id="tspan382">host -&gt; device</tspan><tspan
             x="1.15 5.6328125 9.3898392 12.393751 15.387897 17.189848 19.650003 23.403913 25.450787 29.93399 33.691807 37.417976 38.939854 42.68478"
             y="248.88"
             sodipodi:role="line"
             id="tspan384">host -&gt; device</tspan></text><text
           transform="matrix(1,1e-8,-1e-8,-1,149.255,186.446)"
           style="font-variant:normal;font-weight:normal;font-size:8.275px;font-family:Calibri;-inkscape-font-specification:Calibri;writing-mode:lr-tb;fill:#231f20;fill-opacity:1;fill-rule:nonzero;stroke:none"
           id="text390"><tspan
             x="0 4.4890652 8.2398462 11.244926 14.239854 16.03985 18.500004 22.257818 24.300783 28.789066 32.541805 36.28009 37.78986 41.528919"
             y="0"
             sodipodi:role="line"
             id="tspan388">host -&gt; device</tspan></text><text
           transform="matrix(1,1e-8,-1e-8,-1,149.255,62.5262)"
           style="font-variant:normal;font-weight:normal;font-size:8.25px;font-family:Calibri;-inkscape-font-specification:Calibri;writing-mode:lr-tb;fill:#231f20;fill-opacity:1;fill-rule:nonzero;stroke:none"
           id="text406"><tspan
             x="0 4.4828124 8.2398396 11.243751 14.237896 16.039846 18.500004 22.253914 24.300787 28.783991 32.541805 36.267975 37.789852 41.534779"
             y="0"
             sodipodi:role="line"
             id="tspan392">host -&gt; device</tspan><tspan
             x="125.401 129.8842 133.64006 136.64395 139.63928 141.45099 143.89005 147.64395 149.69122 154.17403 157.93224 161.65918 163.18027 166.92403"
             y="-500.60001"
             sodipodi:role="line"
             id="tspan394">host -&gt; device</tspan><tspan
             x="126.52131 131.02913 134.78615 137.78926 140.78419 142.5713 145.04004 148.79434 150.82129 155.32832 159.1123 162.8791 164.40996 168.17831"
             y="-251.97"
             sodipodi:role="line"
             id="tspan396">host -&gt; device</tspan><tspan
             x="158.87012 163.3541 167.10995 170.11424 173.10916 174.9201 177.37009 181.12401 183.17009 187.65408 191.41228 195.13806 196.65993 200.40407"
             y="-2.8421709e-14"
             sodipodi:role="line"
             id="tspan398">host -&gt; device</tspan><tspan
             x="267.25012 271.75793 275.54114 279.30908 280.83917 284.60791 288.39111 290.0712 292.55011 296.30402 298.3212 302.82822 306.60986 309.638"
             y="-501.10001"
             sodipodi:role="line"
             id="tspan400">device -&gt; host</tspan><tspan
             x="126.52111 131.02892 134.78712 138.51291 140.03595 143.78009 147.53712 149.3508 151.78984 155.56993 157.60078 162.10899 165.86601 168.86992"
             y="-376.92001"
             sodipodi:role="line"
             id="tspan402">device -&gt; host</tspan><tspan
             x="268.40112 272.88431 276.64212 280.36908 281.89017 285.63431 289.39331 291.22025 293.67023 297.42413 299.47025 303.95343 307.70929 310.71323"
             y="-251.97"
             sodipodi:role="line"
             id="tspan404">device -&gt; host</tspan></text><text
           transform="matrix(1,1e-8,-1e-8,-1,276.925,186.446)"
           style="font-variant:normal;font-weight:normal;font-size:8.275px;font-family:Calibri;-inkscape-font-specification:Calibri;writing-mode:lr-tb;fill:#231f20;fill-opacity:1;fill-rule:nonzero;stroke:none"
           id="text410"><tspan
             x="0 4.4890528 8.2421808 11.978891 13.489834 17.228905 20.982033 22.830088 25.280865 29.037117 31.080095 35.569149 39.319942 42.325024 141.85094 146.33881 150.08997 153.09464 156.08995 157.90088 160.35089 164.10793 166.15088 170.63876 174.39189 178.12863 179.63957 183.37862"
             y="0"
             sodipodi:role="line"
             id="tspan408">device -&gt; hosthost -&gt; device</tspan></text><text
           transform="matrix(1,1e-8,-1e-8,-1,418.776,63.0262)"
           style="font-variant:normal;font-weight:normal;font-size:8.25px;font-family:Calibri;-inkscape-font-specification:Calibri;writing-mode:lr-tb;fill:#231f20;fill-opacity:1;fill-rule:nonzero;stroke:none"
           id="text416"><tspan
             x="0 4.4828124 8.2410192 11.967968 13.489054 17.232807 20.991796 22.818747 25.278893 29.032803 31.068737 35.552723 39.307796 42.311722"
             y="0"
             sodipodi:role="line"
             id="tspan412">device -&gt; host</tspan><tspan
             x="-1.1203099 3.3628933 7.1187487 10.122673 13.117966 14.929683 17.379671 21.133972 23.179674 27.662876 31.420692 35.146862 36.668728 40.412872"
             y="-376.42001"
             sodipodi:role="line"
             id="tspan414">host -&gt; device</tspan></text></g><path
         d="M 3.75391,3.75 H 5191.16 V 6353.36 H 3.75391 Z"
         style="fill:none;stroke:#231f20;stroke-width:7.5075;stroke-linecap:round;stroke-linejoin:round;stroke-miterlimit:2;stroke-dasharray:none;stroke-opacity:1"
         id="path418" /></g></g></svg>
