<?xml version="1.0" encoding="UTF-8" standalone="no"?>
<svg
   xmlns:dc="http://purl.org/dc/elements/1.1/"
   xmlns:cc="http://creativecommons.org/ns#"
   xmlns:rdf="http://www.w3.org/1999/02/22-rdf-syntax-ns#"
   xmlns:svg="http://www.w3.org/2000/svg"
   xmlns="http://www.w3.org/2000/svg"
   xmlns:sodipodi="http://sodipodi.sourceforge.net/DTD/sodipodi-0.dtd"
   xmlns:inkscape="http://www.inkscape.org/namespaces/inkscape"
   version="1.1"
   id="svg2"
   xml:space="preserve"
   width="718"
   height="474"
   viewBox="0 0 718 474"
   sodipodi:docname="ADCBasicStruct_common.svg"
   inkscape:version="1.0.1 (3bc2e813f5, 2020-09-07)"><metadata
     id="metadata8"><rdf:RDF><cc:Work
         rdf:about=""><dc:format>image/svg+xml</dc:format><dc:type
           rdf:resource="http://purl.org/dc/dcmitype/StillImage" /><dc:title></dc:title></cc:Work></rdf:RDF></metadata><defs
     id="defs6" /><sodipodi:namedview
     pagecolor="#ffffff"
     bordercolor="#666666"
     borderopacity="1"
     objecttolerance="10"
     gridtolerance="10"
     guidetolerance="10"
     inkscape:pageopacity="0"
     inkscape:pageshadow="2"
     inkscape:window-width="1920"
     inkscape:window-height="1017"
     id="namedview4"
     showgrid="false"
     inkscape:zoom="1.5320334"
     inkscape:cx="359"
     inkscape:cy="237"
     inkscape:window-x="-8"
     inkscape:window-y="-8"
     inkscape:window-maximized="1"
     inkscape:current-layer="g10" /><g
     id="g10"
     inkscape:groupmode="layer"
     inkscape:label="ink_ext_XXXXXX"
     transform="matrix(1.3333333,0,0,-1.3333333,0,474)"><path
       d="m 317.707,238.565 v -88.674 h -63.685 l -21.229,44.337 21.229,44.337 z"
       style="fill:none;stroke:#0e0f0f;stroke-width:0.5;stroke-linecap:round;stroke-linejoin:round;stroke-miterlimit:10;stroke-dasharray:none;stroke-opacity:1"
       id="path14" /><path
       d="m 250.742,203.098 h 49.016 v -17.74 h -49.016 v 17.74 0"
       style="fill:#ffffff;fill-opacity:1;fill-rule:evenodd;stroke:none;stroke-width:0.1"
       id="path16" /><g
       id="g18"><text
         transform="matrix(0.871065,0,0,-1,254.681,196.445)"
         style="font-variant:normal;font-weight:normal;font-size:7.2069px;font-family:Arial;-inkscape-font-specification:ArialMT;writing-mode:lr-tb;fill:#0e0f0f;fill-opacity:1;fill-rule:nonzero;stroke:none"
         id="text24"><tspan
           x="0 4.9871655 9.9743309 14.969102 19.956266 25.499935 31.043602 32.70734 36.584145 40.470383 43.236828"
           y="0"
           sodipodi:role="line"
           id="tspan20">SARADC core</tspan><tspan
           x="-4.5185299 -2.0606148 1.8256217 6.1661329 10.052369 11.71116 13.968189 16.022074 22.119146 26.552935 29.989815 34.096237 40.19376 45.737427 49.294041"
           y="8.8648396"
           sodipodi:role="line"
           id="tspan22">(12bit,max2MHz)</tspan></text></g><path
       d="m 164.503,238.565 v -88.674 l 53.914,44.337 z"
       style="fill:none;stroke:#0e0f0f;stroke-width:0.5;stroke-linecap:round;stroke-linejoin:round;stroke-miterlimit:10;stroke-dasharray:none;stroke-opacity:1"
       id="path26" /><path
       d="m 167.079,203.098 h 25.764 v -17.74 h -25.764 v 17.74 0"
       style="fill:#ffffff;fill-opacity:1;fill-rule:evenodd;stroke:none;stroke-width:0.1"
       id="path28" /><g
       id="g30"><text
         transform="matrix(0.871065,0,0,-1,168.86929,196.445)"
         style="font-variant:normal;font-weight:normal;font-size:7.2069px;font-family:Arial;-inkscape-font-specification:ArialMT;writing-mode:lr-tb;fill:#0e0f0f;fill-opacity:1;fill-rule:nonzero;stroke:none"
         id="text36"><tspan
           x="0 4.9867163 10.535331"
           y="0"
           sodipodi:role="line"
           id="tspan32">PGA</tspan><tspan
           x="-2.0529873 0.40494201 4.5185261 6.9773521 10.854157 12.517895 16.951668 20.837442 25.058653"
           y="8.8648396"
           sodipodi:role="line"
           id="tspan34">(2-stage)</tspan></text></g><path
       d="m 99.8074,238.565 v -88.674 h 28.7536 v 88.674 z"
       style="fill:none;stroke:#0e0f0f;stroke-width:0.5;stroke-linecap:round;stroke-linejoin:round;stroke-miterlimit:10;stroke-dasharray:none;stroke-opacity:1"
       id="path38" /><path
       d="m 105.599,199.55 h 17.17 v -10.644 h -17.17 v 10.644 0"
       style="fill:#ffffff;fill-opacity:1;fill-rule:evenodd;stroke:none;stroke-width:0.1"
       id="path40" /><g
       id="g42"><text
         transform="matrix(0.871066,0,0,-1,105.604,191.562)"
         style="font-variant:normal;font-weight:normal;font-size:8.87003px;font-family:Arial;-inkscape-font-specification:ArialMT;writing-mode:lr-tb;fill:#0e0f0f;fill-opacity:1;fill-rule:nonzero;stroke:none"
         id="text46"><tspan
           x="0 7.2109966 13.855609"
           y="0"
           sodipodi:role="line"
           id="tspan44">MUX</tspan></text></g><path
       d="m 193.257,215.851 h 43.201"
       style="fill:none;stroke:#0e0f0f;stroke-width:0.5;stroke-linecap:round;stroke-linejoin:round;stroke-miterlimit:10;stroke-dasharray:none;stroke-opacity:1"
       id="path48" /><path
       d="m 235.811,218.822 7.765,-2.971 -7.765,-2.972 z"
       style="fill:#0e0f0f;fill-opacity:1;fill-rule:evenodd;stroke:none;stroke-width:0.1"
       id="path50" /><path
       d="m 193.859,173.56 h 42.362"
       style="fill:none;stroke:#0e0f0f;stroke-width:0.5;stroke-linecap:round;stroke-linejoin:round;stroke-miterlimit:10;stroke-dasharray:none;stroke-opacity:1"
       id="path52" /><path
       d="m 235.574,176.532 7.765,-2.972 -7.765,-2.971 z"
       style="fill:#0e0f0f;fill-opacity:1;fill-rule:evenodd;stroke:none;stroke-width:0.1"
       id="path54" /><path
       d="m 128.561,215.374 h 28.824"
       style="fill:none;stroke:#0e0f0f;stroke-width:0.5;stroke-linecap:round;stroke-linejoin:round;stroke-miterlimit:10;stroke-dasharray:none;stroke-opacity:1"
       id="path56" /><path
       d="m 156.738,218.345 7.765,-2.971 -7.765,-2.972 z"
       style="fill:#0e0f0f;fill-opacity:1;fill-rule:evenodd;stroke:none;stroke-width:0.1"
       id="path58" /><path
       d="m 128.991,173.083 h 28.225"
       style="fill:none;stroke:#0e0f0f;stroke-width:0.5;stroke-linecap:round;stroke-linejoin:round;stroke-miterlimit:10;stroke-dasharray:none;stroke-opacity:1"
       id="path60" /><path
       d="m 156.569,176.054 7.765,-2.971 -7.765,-2.972 z"
       style="fill:#0e0f0f;fill-opacity:1;fill-rule:evenodd;stroke:none;stroke-width:0.1"
       id="path62" /><path
       d="M 99.8074,154.324 H 89.0246"
       style="fill:none;stroke:#0e0f0f;stroke-width:0.5;stroke-linecap:round;stroke-linejoin:round;stroke-miterlimit:10;stroke-dasharray:none;stroke-opacity:1"
       id="path64" /><path
       d="M 99.8074,169.843 H 89.0246"
       style="fill:none;stroke:#0e0f0f;stroke-width:0.5;stroke-linecap:round;stroke-linejoin:round;stroke-miterlimit:10;stroke-dasharray:none;stroke-opacity:1"
       id="path66" /><path
       d="M 99.8074,185.361 H 89.0246"
       style="fill:none;stroke:#0e0f0f;stroke-width:0.5;stroke-linecap:round;stroke-linejoin:round;stroke-miterlimit:10;stroke-dasharray:none;stroke-opacity:1"
       id="path68" /><path
       d="m 362.859,238.565 v -88.674 h 38.638 v 88.674 z"
       style="fill:none;stroke:#0e0f0f;stroke-width:0.5;stroke-linecap:round;stroke-linejoin:round;stroke-miterlimit:10;stroke-dasharray:none;stroke-opacity:1"
       id="path70" /><path
       d="m 368.651,204.872 h 27.055 v -21.288 h -27.055 v 21.288 0"
       style="fill:#ffffff;fill-opacity:1;fill-rule:evenodd;stroke:none;stroke-width:0.1"
       id="path72" /><g
       id="g74"><text
         transform="matrix(0.871066,0,0,-1,374.017,196.886)"
         style="font-variant:normal;font-weight:normal;font-size:8.87003px;font-family:Arial;-inkscape-font-specification:ArialMT;writing-mode:lr-tb;fill:#0e0f0f;fill-opacity:1;fill-rule:nonzero;stroke:none"
         id="text80"><tspan
           x="0 6.6446123 11.080622 13.848433 18.832891"
           y="0"
           sodipodi:role="line"
           id="tspan76">Data </tspan><tspan
           x="-6.1602898 -1.1735908 1.602293 6.5880952 11.024119 16.009026 20.445049"
           y="10.6418"
           sodipodi:role="line"
           id="tspan78">process</tspan></text></g><path
       d="m 99.8074,129.939 v -22.168 h 28.7536 v 22.168 z"
       style="fill:none;stroke:#0e0f0f;stroke-width:0.5;stroke-linecap:round;stroke-linejoin:round;stroke-miterlimit:10;stroke-dasharray:none;stroke-opacity:1"
       id="path82" /><path
       d="m 104.52,126.838 h 19.328 V 110.872 H 104.52 v 15.966 0"
       style="fill:#ffffff;fill-opacity:1;fill-rule:evenodd;stroke:none;stroke-width:0.1"
       id="path84" /><g
       id="g86"><text
         transform="matrix(0.871065,0,0,-1,104.521,120.851)"
         style="font-variant:normal;font-weight:normal;font-size:6.65252px;font-family:Arial;-inkscape-font-specification:ArialMT;writing-mode:lr-tb;fill:#0e0f0f;fill-opacity:1;fill-rule:nonzero;stroke:none"
         id="text92"><tspan
           x="0 1.6691113 5.5481591 7.2163734 11.096767 13.311188 17.191582 20.518593"
           y="0"
           sodipodi:role="line"
           id="tspan88">Internal</tspan><tspan
           x="3.70102 7.5850005 10.912018 14.791065"
           y="7.9839802"
           sodipodi:role="line"
           id="tspan90">Tsen</tspan></text></g><path
       d="m 135.749,129.939 v -22.168 h 28.754 v 22.168 z"
       style="fill:none;stroke:#0e0f0f;stroke-width:0.5;stroke-linecap:round;stroke-linejoin:round;stroke-miterlimit:10;stroke-dasharray:none;stroke-opacity:1"
       id="path94" /><path
       d="m 138.674,125.951 h 22.905 v -14.192 h -22.905 v 14.192 0"
       style="fill:#ffffff;fill-opacity:1;fill-rule:evenodd;stroke:none;stroke-width:0.1"
       id="path96" /><g
       id="g98"><text
         transform="matrix(0.871064,0,0,-1,138.669,120.633)"
         style="font-variant:normal;font-weight:normal;font-size:6.09815px;font-family:Arial;-inkscape-font-specification:ArialMT;writing-mode:lr-tb;fill:#0e0f0f;fill-opacity:1;fill-rule:nonzero;stroke:none"
         id="text104"><tspan
           x="0 3.8848784 8.3182087 13.143489 16.432838 19.762995 23.094498"
           y="0"
           sodipodi:role="line"
           id="tspan100">VCM_gen</tspan><tspan
           x="3.45752 5.1212602 8.4514179 10.116044 11.780681 16.774576 18.438316"
           y="7.1023402"
           sodipodi:role="line"
           id="tspan102">for MIC</tspan></text></g><path
       d="M 99.8074,216.396 H 89.0246"
       style="fill:none;stroke:#0e0f0f;stroke-width:0.5;stroke-linecap:round;stroke-linejoin:round;stroke-miterlimit:10;stroke-dasharray:none;stroke-opacity:1"
       id="path106" /><g
       id="g108"><text
         transform="matrix(0.871065,0,0,-1,76.8215,152.33)"
         style="font-variant:normal;font-weight:normal;font-size:6.65252px;font-family:Arial;-inkscape-font-specification:ArialMT;writing-mode:lr-tb;fill:#0e0f0f;fill-opacity:1;fill-rule:nonzero;stroke:none"
         id="text116"><tspan
           x="0 3.8839808"
           y="0"
           sodipodi:role="line"
           id="tspan110">Ts</tspan><tspan
           x="-3.14764 1.2895908 5.1686387 8.4960995"
           y="-15.5188"
           sodipodi:role="line"
           id="tspan112">Vbat</tspan><tspan
           x="-22.377439 -17.382656 -13.503609 -9.6236639 -6.2966518 -2.7768037 0.9179334 4.6265721 6.470129"
           y="-31.037901"
           sodipodi:role="line"
           id="tspan114">Gpdac_a/b</tspan></text></g><path
       d="M 99.8074,118.855 H 89.0246 v 35.469"
       style="fill:none;stroke:#0e0f0f;stroke-width:0.5;stroke-linecap:round;stroke-linejoin:round;stroke-miterlimit:10;stroke-dasharray:none;stroke-opacity:1"
       id="path118" /><path
       d="m 142.027,166.518 v 3.522 c -1.505,0 -2.725,1.4 -2.725,3.128 0,1.728 1.22,3.128 2.725,3.128 v 3.522"
       style="fill:none;stroke:#0e0f0f;stroke-width:0.5;stroke-linecap:round;stroke-linejoin:round;stroke-miterlimit:10;stroke-dasharray:none;stroke-opacity:1"
       id="path120" /><path
       d="m 142.027,179.818 v 35.556"
       style="fill:none;stroke:#0e0f0f;stroke-width:0.5;stroke-linecap:round;stroke-linejoin:round;stroke-miterlimit:10;stroke-dasharray:none;stroke-opacity:1"
       id="path122" /><path
       d="m 362.859,194.228 -8.761,-5.867 v 2.933 h -36.391 v 5.868 h 36.391 v 2.933 z"
       style="fill:none;stroke:#0e0f0f;stroke-width:0.5;stroke-linecap:round;stroke-linejoin:round;stroke-miterlimit:10;stroke-dasharray:none;stroke-opacity:1"
       id="path124" /><g
       id="g126"><text
         transform="matrix(0.871065,0,0,-1,318.953,207.746)"
         style="font-variant:normal;font-weight:normal;font-size:6.65252px;font-family:Arial;-inkscape-font-specification:ArialMT;writing-mode:lr-tb;fill:#0e0f0f;fill-opacity:1;fill-rule:nonzero;stroke:none"
         id="text130"><tspan
           x="0 4.9835625 8.3105745 10.525009 14.047992 17.750353 19.965641 23.845587 28.469944 30.32069 34.199738 37.715996 39.566742 43.2691"
           y="0"
           sodipodi:role="line"
           id="tspan128">Data_raw[11:0]</tspan></text></g><path
       d="m 211.228,299.182 v -32.56 H 259.3 v 32.56 z"
       style="fill:none;stroke:#0e0f0f;stroke-width:0.5;stroke-linecap:round;stroke-linejoin:round;stroke-miterlimit:10;stroke-dasharray:none;stroke-opacity:1"
       id="path132" /><path
       d="m 224.384,293.546 h 21.761 v -21.288 h -21.761 v 21.288 0"
       style="fill:#ffffff;fill-opacity:1;fill-rule:evenodd;stroke:none;stroke-width:0.1"
       id="path134" /><g
       id="g136"><text
         transform="matrix(0.871064,0,0,-1,226.958,288.23)"
         style="font-variant:normal;font-weight:normal;font-size:6.09815px;font-family:Arial;-inkscape-font-specification:ArialMT;writing-mode:lr-tb;fill:#0e0f0f;fill-opacity:1;fill-rule:nonzero;stroke:none"
         id="text144"><tspan
           x="0 1.6637263 5.5486188 9.4321661 11.095892 14.980784"
           y="0"
           sodipodi:role="line"
           id="tspan138">IVBIAS</tspan><tspan
           x="3.4512401 6.7814112 11.216536"
           y="7.1015601"
           sodipodi:role="line"
           id="tspan140">LDO</tspan><tspan
           x="-2.95929 1.4753859 5.3593817 8.8689203 12.157835 15.488007 18.818626"
           y="14.19609"
           sodipodi:role="line"
           id="tspan142">REF_gen</tspan></text></g><path
       d="m 259.301,284.169 h 21.565 v -45.604"
       style="fill:none;stroke:#0e0f0f;stroke-width:0.5;stroke-linecap:round;stroke-linejoin:round;stroke-miterlimit:10;stroke-dasharray:none;stroke-opacity:1"
       id="path146" /><path
       d="M 211.228,282.359 H 187.311 V 220.83"
       style="fill:none;stroke:#0e0f0f;stroke-width:0.5;stroke-linecap:round;stroke-linejoin:round;stroke-miterlimit:10;stroke-dasharray:none;stroke-opacity:1"
       id="path148" /><path
       d="m 114.184,238.565 v 35.47 H 99.8074"
       style="fill:none;stroke:#0e0f0f;stroke-width:0.5;stroke-linecap:round;stroke-linejoin:round;stroke-miterlimit:10;stroke-dasharray:none;stroke-opacity:1"
       id="path150" /><path
       d="M 114.184,260.734 H 99.8074"
       style="fill:none;stroke:#0e0f0f;stroke-width:0.5;stroke-linecap:round;stroke-linejoin:round;stroke-miterlimit:10;stroke-dasharray:none;stroke-opacity:1"
       id="path152" /><g
       id="g154"><text
         transform="matrix(0.871065,0,0,-1,64.5422,272.04)"
         style="font-variant:normal;font-weight:normal;font-size:6.65252px;font-family:Arial;-inkscape-font-specification:ArialMT;writing-mode:lr-tb;fill:#0e0f0f;fill-opacity:1;fill-rule:nonzero;stroke:none"
         id="text160"><tspan
           x="0 4.4372311 8.3162785 11.462572 13.313304 17.192801 20.519812 24.417246 28.111982 31.438244 35.317738"
           y="0"
           sodipodi:role="line"
           id="tspan156">Pos/neg_sel</tspan><tspan
           x="10.7326 15.169831 18.49609 22.375139"
           y="13.3012"
           sodipodi:role="line"
           id="tspan158">Scan</tspan></text></g><path
       d="m 171.692,233.86 v 48.499 h -14.377"
       style="fill:none;stroke:#0e0f0f;stroke-width:0.5;stroke-linecap:round;stroke-linejoin:round;stroke-miterlimit:10;stroke-dasharray:none;stroke-opacity:1"
       id="path162" /><g
       id="g164"><text
         transform="matrix(0.871065,0,0,-1,128.449,280.905)"
         style="font-variant:normal;font-weight:normal;font-size:6.65252px;font-family:Arial;-inkscape-font-specification:ArialMT;writing-mode:lr-tb;fill:#0e0f0f;fill-opacity:1;fill-rule:nonzero;stroke:none"
         id="text168"><tspan
           x="0 4.4372311 8.3162785 11.840607 15.534896 19.415289 22.7423 24.400206"
           y="0"
           sodipodi:role="line"
           id="tspan166">Pga_gain</tspan></text></g><path
       d="M 171.692,265.168 H 157.315"
       style="fill:none;stroke:#0e0f0f;stroke-width:0.5;stroke-linecap:round;stroke-linejoin:round;stroke-miterlimit:10;stroke-dasharray:none;stroke-opacity:1"
       id="path170" /><g
       id="g172"><text
         transform="matrix(0.871065,0,0,-1,127.973,265.386)"
         style="font-variant:normal;font-weight:normal;font-size:6.65252px;font-family:Arial;-inkscape-font-specification:ArialMT;writing-mode:lr-tb;fill:#0e0f0f;fill-opacity:1;fill-rule:nonzero;stroke:none"
         id="text176"><tspan
           x="0 4.9835763 6.0961723 8.309248 9.9819469 11.826849 15.152521 16.810427 20.138334 24.017832 25.674391"
           y="0"
           sodipodi:role="line"
           id="tspan174">Diff/single</tspan></text></g><path
       d="M 142.027,166.518 V 129.939"
       style="fill:none;stroke:#0e0f0f;stroke-width:0.5;stroke-linecap:round;stroke-linejoin:round;stroke-miterlimit:10;stroke-dasharray:none;stroke-opacity:1"
       id="path178" /><path
       d="m 153.72,129.939 v 43.144"
       style="fill:none;stroke:#0e0f0f;stroke-width:0.5;stroke-linecap:round;stroke-linejoin:round;stroke-miterlimit:10;stroke-dasharray:none;stroke-opacity:1"
       id="path180" /><path
       d="M 99.8074,76.0422 V 43.482 h 35.9416 v 32.5602 z"
       style="fill:none;stroke:#0e0f0f;stroke-width:0.5;stroke-linecap:round;stroke-linejoin:round;stroke-miterlimit:10;stroke-dasharray:none;stroke-opacity:1"
       id="path182" /><path
       d="m 107.223,64.1969 h 21.111 V 55.327 h -21.111 v 8.8699 0"
       style="fill:#ffffff;fill-opacity:1;fill-rule:evenodd;stroke:none;stroke-width:0.1"
       id="path184" /><g
       id="g186"><text
         transform="matrix(0.871065,0,0,-1,107.228,57.5469)"
         style="font-variant:normal;font-weight:normal;font-size:7.2069px;font-family:Arial;-inkscape-font-specification:ArialMT;writing-mode:lr-tb;fill:#0e0f0f;fill-opacity:1;fill-rule:nonzero;stroke:none"
         id="text190"><tspan
           x="0 5.542336 7.2015886 10.670757 14.778512 18.663389 20.322193"
           y="0"
           sodipodi:role="line"
           id="tspan188">Clk_div</tspan></text></g><path
       d="M 135.749,56.7828 H 268.736 V 141.72"
       style="fill:none;stroke:#0e0f0f;stroke-width:0.5;stroke-linecap:round;stroke-linejoin:round;stroke-miterlimit:10;stroke-dasharray:none;stroke-opacity:1"
       id="path192" /><path
       d="m 266.147,140.977 2.589,8.914 2.588,-8.914 h -5.177 v 0 0"
       style="fill:#0e0f0f;fill-opacity:1;fill-rule:evenodd;stroke:none;stroke-width:0.1"
       id="path194" /><path
       d="M 99.8074,56.7828 57.575,56.8371"
       style="fill:none;stroke:#0e0f0f;stroke-width:0.5;stroke-linecap:round;stroke-linejoin:round;stroke-miterlimit:10;stroke-dasharray:none;stroke-opacity:1"
       id="path196" /><path
       d="M 372.967,149.891 V 83.3859 h 17.972"
       style="fill:none;stroke:#0e0f0f;stroke-width:0.5;stroke-linecap:round;stroke-linejoin:round;stroke-miterlimit:10;stroke-dasharray:none;stroke-opacity:1"
       id="path198" /><path
       d="m 372.967,101.12 h 17.972"
       style="fill:none;stroke:#0e0f0f;stroke-width:0.5;stroke-linecap:round;stroke-linejoin:round;stroke-miterlimit:10;stroke-dasharray:none;stroke-opacity:1"
       id="path200" /><path
       d="m 372.967,118.855 h 17.972"
       style="fill:none;stroke:#0e0f0f;stroke-width:0.5;stroke-linecap:round;stroke-linejoin:round;stroke-miterlimit:10;stroke-dasharray:none;stroke-opacity:1"
       id="path202" /><g
       id="g204"><text
         transform="matrix(0.871065,0,0,-1,390.374,85.3762)"
         style="font-variant:normal;font-weight:normal;font-size:6.65252px;font-family:Arial;-inkscape-font-specification:ArialMT;writing-mode:lr-tb;fill:#0e0f0f;fill-opacity:1;fill-rule:nonzero;stroke:none"
         id="text214"><tspan
           x="0 4.9826655 8.3105745 11.825938 15.528299 18.853971 22.733496"
           y="0"
           sodipodi:role="line"
           id="tspan206">Res_sel</tspan><tspan
           x="0 2.2152891 6.094337 9.6119385 13.490986 14.602222 16.636381 18.485783 22.364859 25.889214 29.76829 30.880899 32.912819 34.764462 38.643986 42.160271 46.039345 47.151955 49.185219"
           y="7.9773402"
           sodipodi:role="line"
           id="tspan208">(12bit/14bit/16bit)</tspan><tspan
           x="1.5453399 5.9825706 7.6400137 10.967026 14.847419 16.503965 20.039953 21.883524 25.209784 29.08886 32.416798 34.631229 36.299458 41.841007 45.721432 49.04847"
           y="-13.74886"
           sodipodi:role="line"
           id="tspan210">Single/cont mode</tspan><tspan
           x="1.5453399 5.9825706 9.3095875 13.188636 16.702648 18.92514 22.250784 26.13031 29.458246 33.337322 37.216846 40.544785 42.201359 43.870483 45.528404 49.407478 51.076603 54.798725"
           y="-31.47896"
           sodipodi:role="line"
           id="tspan212">Scan(channel info)</tspan></text></g><path
       d="m 446.649,238.565 v -61.528 h 28.754 v 61.528 z"
       style="fill:none;stroke:#0e0f0f;stroke-width:0.5;stroke-linecap:round;stroke-linejoin:round;stroke-miterlimit:10;stroke-dasharray:none;stroke-opacity:1"
       id="path216" /><path
       d="m 452.228,218.445 h 17.596 v -21.288 h -17.596 v 21.288 0"
       style="fill:#ffffff;fill-opacity:1;fill-rule:evenodd;stroke:none;stroke-width:0.1"
       id="path218" /><g
       id="g220"><text
         transform="matrix(0.871066,0,0,-1,452.439,210.458)"
         style="font-variant:normal;font-weight:normal;font-size:8.87003px;font-family:Arial;-inkscape-font-specification:ArialMT;writing-mode:lr-tb;fill:#0e0f0f;fill-opacity:1;fill-rule:nonzero;stroke:none"
         id="text226"><tspan
           x="0 6.6445837 13.856463"
           y="0"
           sodipodi:role="line"
           id="tspan222">DMA</tspan><tspan
           x="-0.243506 5.2992926 7.5240092 13.066808"
           y="10.6348"
           sodipodi:role="line"
           id="tspan224">FIFO</tspan></text></g><path
       d="m 446.649,172.06 v -22.169 h 28.754 v 22.169 z"
       style="fill:none;stroke:#0e0f0f;stroke-width:0.5;stroke-linecap:round;stroke-linejoin:round;stroke-miterlimit:10;stroke-dasharray:none;stroke-opacity:1"
       id="path228" /><path
       d="m 449.754,169.845 h 22.544 v -17.74 h -22.544 v 17.74 0"
       style="fill:#ffffff;fill-opacity:1;fill-rule:evenodd;stroke:none;stroke-width:0.1"
       id="path230" /><g
       id="g232"><text
         transform="matrix(0.871065,0,0,-1,455.663,163.195)"
         style="font-variant:normal;font-weight:normal;font-size:7.2069px;font-family:Arial;-inkscape-font-specification:ArialMT;writing-mode:lr-tb;fill:#0e0f0f;fill-opacity:1;fill-rule:nonzero;stroke:none"
         id="text238"><tspan
           x="0 4.9858198 7.1984253"
           y="0"
           sodipodi:role="line"
           id="tspan234">PIR</tspan><tspan
           x="-6.7813902 -2.8951535 -0.12825955 3.7575288 7.6357074 11.521944 15.398777"
           y="8.8710899"
           sodipodi:role="line"
           id="tspan236">process</tspan></text></g><path
       d="m 446.649,214.18 -8.76,-5.867 v 2.934 h -36.392 v 5.866 h 36.392 v 2.933 z"
       style="fill:none;stroke:#0e0f0f;stroke-width:0.5;stroke-linecap:round;stroke-linejoin:round;stroke-miterlimit:10;stroke-dasharray:none;stroke-opacity:1"
       id="path240" /><g
       id="g242"><text
         transform="matrix(0.871065,0,0,-1,404.118,221.053)"
         style="font-variant:normal;font-weight:normal;font-size:6.65252px;font-family:Arial;-inkscape-font-specification:ArialMT;writing-mode:lr-tb;fill:#0e0f0f;fill-opacity:1;fill-rule:nonzero;stroke:none"
         id="text246"><tspan
           x="0 4.9826655 8.3106031 10.525038 14.055223 17.750885 19.419113 21.076584 24.95566 28.282701 29.954521 31.806164 35.685242 39.201973 41.04644 44.754658"
           y="0"
           sodipodi:role="line"
           id="tspan244">Data_final[25:0]</tspan></text></g><path
       d="m 425.084,211.076 v -43.45 h 17.971"
       style="fill:none;stroke:#0e0f0f;stroke-width:0.5;stroke-linecap:round;stroke-linejoin:round;stroke-miterlimit:10;stroke-dasharray:none;stroke-opacity:1"
       id="path248" /><path
       d="m 421.49,211.076 v -47.884 h 21.565"
       style="fill:none;stroke:#0e0f0f;stroke-width:0.5;stroke-linecap:round;stroke-linejoin:round;stroke-miterlimit:10;stroke-dasharray:none;stroke-opacity:1"
       id="path250" /><path
       d="m 443.055,167.626 v 2.589 l 3.594,-4.806"
       style="fill:none;stroke:#0e0f0f;stroke-width:0.5;stroke-linecap:round;stroke-linejoin:round;stroke-miterlimit:10;stroke-dasharray:none;stroke-opacity:1"
       id="path252" /><path
       d="m 443.055,163.192 v -2.478 l 3.594,4.695"
       style="fill:none;stroke:#0e0f0f;stroke-width:0.5;stroke-linecap:round;stroke-linejoin:round;stroke-miterlimit:10;stroke-dasharray:none;stroke-opacity:1"
       id="path254" /><g
       id="g256"><text
         transform="matrix(0.871065,0,0,-1,420.809,155.219)"
         style="font-variant:normal;font-weight:normal;font-size:4.43502px;font-family:Arial;-inkscape-font-specification:ArialMT;writing-mode:lr-tb;fill:#0e0f0f;fill-opacity:1;fill-rule:nonzero;stroke:none"
         id="text260"><tspan
           x="0 3.3234448 5.5405412 6.6526766 9.3747215 11.840593 14.058586 15.163119 16.764538 18.000893 20.218885 22.93824 24.166971 26.631609"
           y="0"
           sodipodi:role="line"
           id="tspan258">Data_pir[15:2]</tspan></text></g><path
       d="m 372.967,134.373 h 17.972"
       style="fill:none;stroke:#0e0f0f;stroke-width:0.5;stroke-linecap:round;stroke-linejoin:round;stroke-miterlimit:10;stroke-dasharray:none;stroke-opacity:1"
       id="path262" /><g
       id="g264"><text
         transform="matrix(0.871065,0,0,-1,391.72,132.375)"
         style="font-variant:normal;font-weight:normal;font-size:6.65252px;font-family:Arial;-inkscape-font-specification:ArialMT;writing-mode:lr-tb;fill:#0e0f0f;fill-opacity:1;fill-rule:nonzero;stroke:none"
         id="text268"><tspan
           x="0 4.9952178 8.3208895 12.201283 14.414806 16.265104 20.1446 23.472536 27.351612 31.231138 33.446426 35.114655 36.783779 38.4417 42.320774"
           y="0"
           sodipodi:role="line"
           id="tspan266">Over/under flow</tspan></text></g><path
       d="m 502.36,214.18 -8.761,-5.867 v 2.934 h -18.196 v 5.866 h 18.196 v 2.933 z"
       style="fill:none;stroke:#0e0f0f;stroke-width:0.5;stroke-linecap:round;stroke-linejoin:round;stroke-miterlimit:10;stroke-dasharray:none;stroke-opacity:1"
       id="path270" /><g
       id="g272"><text
         transform="matrix(0.871065,0,0,-1,479.562,221.053)"
         style="font-variant:normal;font-weight:normal;font-size:6.65252px;font-family:Arial;-inkscape-font-specification:ArialMT;writing-mode:lr-tb;fill:#0e0f0f;fill-opacity:1;fill-rule:nonzero;stroke:none"
         id="text276"><tspan
           x="0 4.4372311 9.4207935"
           y="0"
           sodipodi:role="line"
           id="tspan274">BUS</tspan></text></g><path
       d="m 475.403,160.976 h 5.462"
       style="fill:none;stroke:#0e0f0f;stroke-width:0.5;stroke-linecap:round;stroke-linejoin:round;stroke-miterlimit:10;stroke-dasharray:none;stroke-opacity:1"
       id="path278" /><path
       d="m 480.218,163.946 7.765,-2.97 -7.765,-2.972 z"
       style="fill:#0e0f0f;fill-opacity:1;fill-rule:evenodd;stroke:none;stroke-width:0.1"
       id="path280" /><g
       id="g282"><text
         transform="matrix(0.871065,0,0,-1,488.317,158.977)"
         style="font-variant:normal;font-weight:normal;font-size:6.65252px;font-family:Arial;-inkscape-font-specification:ArialMT;writing-mode:lr-tb;fill:#0e0f0f;fill-opacity:1;fill-rule:nonzero;stroke:none"
         id="text286"><tspan
           x="0 1.6677802 5.5482016 7.2164302 11.095506 13.311299 15.527093 19.40617 22.734106"
           y="0"
           sodipodi:role="line"
           id="tspan284">Interrupt</tspan></text></g><path
       d="M 518.534,16.8801 H 51.2852 V 330.564 H 518.534 Z"
       style="fill:none;stroke:#0e0f0f;stroke-width:0.5;stroke-linecap:round;stroke-linejoin:round;stroke-miterlimit:10;stroke-dasharray:none;stroke-opacity:1"
       id="path288" /><path
       d="m 51.2852,219.516 h 3.7644 l 2.5254,-3.066 -2.5254,-3.173 h -3.7644 z"
       style="fill:none;stroke:#0e0f0f;stroke-width:0.5;stroke-linecap:round;stroke-linejoin:round;stroke-miterlimit:10;stroke-dasharray:none;stroke-opacity:1"
       id="path290" /><path
       d="M 89.0246,216.396 57.575,216.45"
       style="fill:none;stroke:#0e0f0f;stroke-width:0.5;stroke-linecap:round;stroke-linejoin:round;stroke-miterlimit:10;stroke-dasharray:none;stroke-opacity:1"
       id="path292" /><g
       id="g294"><text
         transform="matrix(0.871065,0,0,-1,7.28359,213.294)"
         style="font-variant:normal;font-weight:normal;font-size:6.65252px;font-family:Arial;-inkscape-font-specification:ArialMT;writing-mode:lr-tb;fill:#0e0f0f;fill-opacity:1;fill-rule:nonzero;stroke:none"
         id="text298"><tspan
           x="0 4.9952302 9.4324608 11.646435 15.899938 19.594677 24.578695 29.206648 31.050203 34.929703 38.45269 40.303871 43.998611"
           y="0"
           sodipodi:role="line"
           id="tspan296">GPIP_CH[11:0]</tspan></text></g><path
       d="m 51.2852,59.902 h 3.7644 l 2.5254,-3.0649 -2.5254,-3.173 h -3.7644 z"
       style="fill:none;stroke:#0e0f0f;stroke-width:0.5;stroke-linecap:round;stroke-linejoin:round;stroke-miterlimit:10;stroke-dasharray:none;stroke-opacity:1"
       id="path300" /><g
       id="g302"><text
         transform="matrix(0.871065,0,0,-1,25.8813,59.3301)"
         style="font-variant:normal;font-weight:normal;font-size:6.65252px;font-family:Arial;-inkscape-font-specification:ArialMT;writing-mode:lr-tb;fill:#0e0f0f;fill-opacity:1;fill-rule:nonzero;stroke:none"
         id="text308"><tspan
           x="0 4.9840183 8.3114824"
           y="0"
           sodipodi:role="line"
           id="tspan304">CLK</tspan><tspan
           x="-12.5632 -8.6832533 -5.1602693 0.38128006 5.3652983 8.5106916 10.725981 16.26753 20.14703 23.288836"
           y="7.9761701"
           sodipodi:role="line"
           id="tspan306">32MHz(max)</tspan></text></g><path
       d="m 236.67,330.564 v -4.643 l -2.485,-3.115 -2.573,3.115 v 4.643 z"
       style="fill:none;stroke:#0e0f0f;stroke-width:0.5;stroke-linecap:round;stroke-linejoin:round;stroke-miterlimit:10;stroke-dasharray:none;stroke-opacity:1"
       id="path310" /><path
       d="M 234.185,322.806 V 299.182"
       style="fill:none;stroke:#0e0f0f;stroke-width:0.5;stroke-linecap:round;stroke-linejoin:round;stroke-miterlimit:10;stroke-dasharray:none;stroke-opacity:1"
       id="path312" /><g
       id="g314"><text
         transform="matrix(0.871065,0,0,-1,218.833,336.328)"
         style="font-variant:normal;font-weight:normal;font-size:6.65252px;font-family:Arial;-inkscape-font-specification:ArialMT;writing-mode:lr-tb;fill:#0e0f0f;fill-opacity:1;fill-rule:nonzero;stroke:none"
         id="text318"><tspan
           x="0 4.4372311 9.4207935 14.041564 17.920612 21.444941 23.660229 27.362589 29.212887 32.907177 36.791153 40.492168 42.336189 46.038548 50.47578"
           y="0"
           sodipodi:role="line"
           id="tspan316">VDD33(1.7~3.6V)</tspan></text></g><path
       d="M 284.909,149.891 V 83.3859 h 17.972"
       style="fill:none;stroke:#0e0f0f;stroke-width:0.5;stroke-linecap:round;stroke-linejoin:round;stroke-miterlimit:10;stroke-dasharray:none;stroke-opacity:1"
       id="path320" /><g
       id="g322"><text
         transform="matrix(0.871065,0,0,-1,305.456,81.3809)"
         style="font-variant:normal;font-weight:normal;font-size:6.65252px;font-family:Arial;-inkscape-font-specification:ArialMT;writing-mode:lr-tb;fill:#0e0f0f;fill-opacity:1;fill-rule:nonzero;stroke:none"
         id="text328"><tspan
           x="0 4.9835625 8.3105745 12.189622 15.535025 19.236488 22.56216 24.231287 28.110783 30.326071"
           y="0"
           sodipodi:role="line"
           id="tspan324">Conv_start</tspan><tspan
           x="0 4.4372311 6.6516509 10.530699 12.198928 15.907118 19.23279 23.111837"
           y="-15.5262"
           sodipodi:role="line"
           id="tspan326">Vref_sel</tspan></text></g><path
       d="m 284.909,100.012 h 17.972"
       style="fill:none;stroke:#0e0f0f;stroke-width:0.5;stroke-linecap:round;stroke-linejoin:round;stroke-miterlimit:10;stroke-dasharray:none;stroke-opacity:1"
       id="path330" /><path
       d="m 538.25,0.25 h -538 v 355 h 538 z"
       style="fill:none;stroke:#231f20;stroke-width:0.5;stroke-linecap:butt;stroke-linejoin:miter;stroke-miterlimit:10;stroke-dasharray:none;stroke-opacity:1"
       id="path332" /></g></svg>
