<?xml version="1.0" encoding="UTF-8" standalone="no"?>
<svg
   version="1.1"
   id="svg2"
   xml:space="preserve"
   width="598.17334"
   height="286.98666"
   viewBox="0 0 598.17334 286.98666"
   sodipodi:docname="I2CTxRxTogether_common.svg"
   inkscape:version="1.1 (c68e22c387, 2021-05-23)"
   xmlns:inkscape="http://www.inkscape.org/namespaces/inkscape"
   xmlns:sodipodi="http://sodipodi.sourceforge.net/DTD/sodipodi-0.dtd"
   xmlns="http://www.w3.org/2000/svg"
   xmlns:svg="http://www.w3.org/2000/svg"
   xmlns:rdf="http://www.w3.org/1999/02/22-rdf-syntax-ns#"
   xmlns:cc="http://creativecommons.org/ns#"
   xmlns:dc="http://purl.org/dc/elements/1.1/"><metadata
     id="metadata8"><rdf:RDF><cc:Work
         rdf:about=""><dc:format>image/svg+xml</dc:format><dc:type
           rdf:resource="http://purl.org/dc/dcmitype/StillImage" /><dc:title /></cc:Work></rdf:RDF></metadata><defs
     id="defs6" /><sodipodi:namedview
     pagecolor="#ffffff"
     bordercolor="#666666"
     borderopacity="1"
     objecttolerance="10"
     gridtolerance="10"
     guidetolerance="10"
     inkscape:pageopacity="0"
     inkscape:pageshadow="2"
     inkscape:window-width="1920"
     inkscape:window-height="1017"
     id="namedview4"
     showgrid="false"
     inkscape:zoom="1.8389318"
     inkscape:cx="269.44991"
     inkscape:cy="84.288063"
     inkscape:window-x="-8"
     inkscape:window-y="-8"
     inkscape:window-maximized="1"
     inkscape:current-layer="g10"
     inkscape:pagecheckerboard="0" /><g
     id="g10"
     inkscape:groupmode="layer"
     inkscape:label="ink_ext_XXXXXX"
     transform="matrix(1.3333333,0,0,-1.3333333,0,286.98667)"><g
       id="g14"
       transform="translate(0.40784548)"><text
         transform="matrix(1,0,0,-1,21.8984,163.579)"
         style="font-variant:normal;font-weight:normal;font-size:11px;font-family:Arial;-inkscape-font-specification:ArialMT;writing-mode:lr-tb;fill:#344ea9;fill-opacity:1;fill-rule:nonzero;stroke:none"
         id="text18"><tspan
           x="0 7.9438496 14.468749 20.37402 27.703125"
           y="0"
           sodipodi:role="line"
           id="tspan16">DATA1</tspan></text></g><path
       d="m 66.128945,178.077 h 20 c 0.2766,0 0.5,0.223 0.5,0.5 0,0.275 -0.2234,0.5 -0.5,0.5 h -20 c -0.2758,0 -0.5,-0.225 -0.5,-0.5 0,-0.277 0.2242,-0.5 0.5,-0.5"
       style="fill:#0e0f0f;fill-opacity:1;fill-rule:nonzero;stroke:none;stroke-width:0.1"
       id="path20" /><path
       d="m 86.128945,178.077 h 19.999905 c 0.276,0 0.5,0.223 0.5,0.5 0,0.275 -0.224,0.5 -0.5,0.5 H 86.128945 c -0.2758,0 -0.5,-0.225 -0.5,-0.5 0,-0.277 0.2242,-0.5 0.5,-0.5"
       style="fill:#0e0f0f;fill-opacity:1;fill-rule:nonzero;stroke:none;stroke-width:0.1"
       id="path22" /><path
       d="m 106.12885,178.077 h 2.628 l 6,-20 h 11.372 c 0.276,0 0.5,0.223 0.5,0.5 0,0.275 -0.224,0.5 -0.5,0.5 h -10.628 l -6,20 h -3.372 c -0.276,0 -0.5,-0.225 -0.5,-0.5 0,-0.277 0.224,-0.5 0.5,-0.5 v 0"
       style="fill:#0e0f0f;fill-opacity:1;fill-rule:nonzero;stroke:none;stroke-width:0.1"
       id="path24" /><path
       d="m 126.12885,158.077 h 20 c 0.276,0 0.5,0.223 0.5,0.5 0,0.275 -0.224,0.5 -0.5,0.5 h -20 c -0.276,0 -0.5,-0.225 -0.5,-0.5 0,-0.277 0.224,-0.5 0.5,-0.5"
       style="fill:#0e0f0f;fill-opacity:1;fill-rule:nonzero;stroke:none;stroke-width:0.1"
       id="path26" /><path
       d="m 146.12885,158.077 h 3.372 l 6,20 h 10.628 c 0.276,0 0.5,0.223 0.5,0.5 0,0.275 -0.224,0.5 -0.5,0.5 h -11.372 l -6,-20 h -2.628 c -0.276,0 -0.5,-0.225 -0.5,-0.5 0,-0.277 0.224,-0.5 0.5,-0.5 v 0"
       style="fill:#0e0f0f;fill-opacity:1;fill-rule:nonzero;stroke:none;stroke-width:0.1"
       id="path28" /><path
       d="m 166.12885,178.077 h 20 c 0.276,0 0.5,0.223 0.5,0.5 0,0.275 -0.224,0.5 -0.5,0.5 h -20 c -0.276,0 -0.5,-0.225 -0.5,-0.5 0,-0.277 0.224,-0.5 0.5,-0.5"
       style="fill:#0e0f0f;fill-opacity:1;fill-rule:nonzero;stroke:none;stroke-width:0.1"
       id="path30" /><path
       d="m 186.12885,178.077 h 2.628 l 6,-20 h 11.372 c 0.276,0 0.5,0.223 0.5,0.5 0,0.275 -0.224,0.5 -0.5,0.5 h -10.628 l -6,20 h -3.372 c -0.276,0 -0.5,-0.225 -0.5,-0.5 0,-0.277 0.224,-0.5 0.5,-0.5 v 0"
       style="fill:#0e0f0f;fill-opacity:1;fill-rule:nonzero;stroke:none;stroke-width:0.1"
       id="path32" /><path
       d="m 206.12885,158.077 h 20 c 0.276,0 0.5,0.223 0.5,0.5 0,0.275 -0.224,0.5 -0.5,0.5 h -20 c -0.276,0 -0.5,-0.225 -0.5,-0.5 0,-0.277 0.224,-0.5 0.5,-0.5"
       style="fill:#0e0f0f;fill-opacity:1;fill-rule:nonzero;stroke:none;stroke-width:0.1"
       id="path34" /><path
       d="m 226.12885,158.077 h 3.372 l 6,20 h 10.628 c 0.276,0 0.5,0.223 0.5,0.5 0,0.275 -0.224,0.5 -0.5,0.5 h -11.372 l -6,-20 h -2.628 c -0.276,0 -0.5,-0.225 -0.5,-0.5 0,-0.277 0.224,-0.5 0.5,-0.5 v 0"
       style="fill:#0e0f0f;fill-opacity:1;fill-rule:nonzero;stroke:none;stroke-width:0.1"
       id="path36" /><path
       d="m 246.12885,178.077 h 20 c 0.276,0 0.5,0.223 0.5,0.5 0,0.275 -0.224,0.5 -0.5,0.5 h -20 c -0.276,0 -0.5,-0.225 -0.5,-0.5 0,-0.277 0.224,-0.5 0.5,-0.5"
       style="fill:#0e0f0f;fill-opacity:1;fill-rule:nonzero;stroke:none;stroke-width:0.1"
       id="path38" /><path
       d="m 303.12885,177.571 h 12 c 0.276,0 0.5,0.223 0.5,0.5 0,0.276 -0.224,0.5 -0.5,0.5 h -12 c -0.276,0 -0.5,-0.224 -0.5,-0.5 0,-0.277 0.224,-0.5 0.5,-0.5"
       style="fill:#0e0f0f;fill-opacity:1;fill-rule:nonzero;stroke:none;stroke-width:0.1"
       id="path40" /><path
       d="m 275.72085,177.571 h 12 c 0.276,0 0.5,0.223 0.5,0.5 0,0.276 -0.224,0.5 -0.5,0.5 h -12 c -0.277,0 -0.5,-0.224 -0.5,-0.5 0,-0.277 0.223,-0.5 0.5,-0.5"
       style="fill:#0e0f0f;fill-opacity:1;fill-rule:nonzero;stroke:none;stroke-width:0.1"
       id="path42" /><path
       d="m 327.72085,177.571 h 12 c 0.276,0 0.5,0.223 0.5,0.5 0,0.276 -0.224,0.5 -0.5,0.5 h -12 c -0.276,0 -0.5,-0.224 -0.5,-0.5 0,-0.277 0.224,-0.5 0.5,-0.5"
       style="fill:#0e0f0f;fill-opacity:1;fill-rule:nonzero;stroke:none;stroke-width:0.1"
       id="path44" /><path
       d="m 349.72085,177.571 h 12 c 0.276,0 0.5,0.223 0.5,0.5 0,0.276 -0.224,0.5 -0.5,0.5 h -12 c -0.276,0 -0.5,-0.224 -0.5,-0.5 0,-0.277 0.224,-0.5 0.5,-0.5"
       style="fill:#0e0f0f;fill-opacity:1;fill-rule:nonzero;stroke:none;stroke-width:0.1"
       id="path46" /><path
       d="m 370.72085,177.571 h 12 c 0.276,0 0.5,0.223 0.5,0.5 0,0.276 -0.224,0.5 -0.5,0.5 h -12 c -0.276,0 -0.5,-0.224 -0.5,-0.5 0,-0.277 0.224,-0.5 0.5,-0.5"
       style="fill:#0e0f0f;fill-opacity:1;fill-rule:nonzero;stroke:none;stroke-width:0.1"
       id="path48" /><g
       id="g50"
       transform="translate(0.40784548)"><text
         transform="matrix(1,0,0,-1,21.8984,121.579)"
         style="font-variant:normal;font-weight:normal;font-size:11px;font-family:Arial;-inkscape-font-specification:ArialMT;writing-mode:lr-tb;fill:#344ea9;fill-opacity:1;fill-rule:nonzero;stroke:none"
         id="text54"><tspan
           x="0 7.9438496 14.468749 20.37402 27.703125"
           y="0"
           sodipodi:role="line"
           id="tspan52">DATA2</tspan></text></g><path
       d="m 66.149165,136.077 h 20.808999 c 0.287789,0 0.520224,0.223 0.520224,0.5 0,0.275 -0.232435,0.5 -0.520224,0.5 H 66.149165 c -0.286957,0 -0.520225,-0.225 -0.520225,-0.5 0,-0.277 0.233268,-0.5 0.520225,-0.5"
       style="fill:#0e0f0f;fill-opacity:1;fill-rule:nonzero;stroke:none;stroke-width:0.1"
       id="path56" /><path
       d="m 87.628945,136.075 h 19.999905 c 0.276,0 0.5,0.225 0.5,0.5 0,0.277 -0.224,0.5 -0.5,0.5 H 87.628945 c -0.2758,0 -0.5,-0.223 -0.5,-0.5 0,-0.275 0.2242,-0.5 0.5,-0.5"
       style="fill:#0e0f0f;fill-opacity:1;fill-rule:nonzero;stroke:none;stroke-width:0.1"
       id="path58" /><path
       d="m 107.62885,136.077 h 2.955 l 6.631,-20 h 12.518 c 0.276,0 0.5,0.223 0.5,0.5 0,0.275 -0.224,0.5 -0.5,0.5 h -11.796 l -6.631,19.998 h -3.677 c -0.276,0 -0.5,-0.223 -0.5,-0.5 0,-0.275 0.224,-0.5 0.5,-0.5 v 0.002"
       style="fill:#0e0f0f;fill-opacity:1;fill-rule:nonzero;stroke:none;stroke-width:0.1"
       id="path62" /><path
       d="m 129.73285,116.077 h 14.896 c 0.276,0 0.5,0.223 0.5,0.5 0,0.275 -0.224,0.5 -0.5,0.5 h -14.896 c -0.276,0 -0.5,-0.225 -0.5,-0.5 0,-0.277 0.224,-0.5 0.5,-0.5"
       style="fill:#0e0f0f;fill-opacity:1;fill-rule:nonzero;stroke:none;stroke-width:0.1"
       id="path64" /><path
       d="m 144.62885,116.077 h 3.372 l 6,20 h 10.628 c 0.276,0 0.5,0.223 0.5,0.5 0,0.275 -0.224,0.5 -0.5,0.5 h -11.372 l -6,-20 h -2.628 c -0.276,0 -0.5,-0.225 -0.5,-0.5 0,-0.277 0.224,-0.5 0.5,-0.5 v 0"
       style="fill:#0e0f0f;fill-opacity:1;fill-rule:nonzero;stroke:none;stroke-width:0.1"
       id="path66" /><path
       d="m 164.92293,136.077 h 20.53904 c 0.28343,0 0.51347,0.223 0.51347,0.5 0,0.275 -0.23004,0.5 -0.51347,0.5 h -20.53904 c -0.28343,0 -0.51348,-0.225 -0.51348,-0.5 0,-0.277 0.23005,-0.5 0.51348,-0.5"
       style="fill:#0e0f0f;fill-opacity:1;fill-rule:nonzero;stroke:none;stroke-width:0.1"
       id="path68" /><path
       d="m 186.12885,136.077 h 2.628 l 6,-20 h 11.372 c 0.276,0 0.5,0.223 0.5,0.5 0,0.275 -0.224,0.5 -0.5,0.5 h -10.628 l -6,20 h -3.372 c -0.276,0 -0.5,-0.225 -0.5,-0.5 0,-0.277 0.224,-0.5 0.5,-0.5 v 0"
       style="fill:#0e0f0f;fill-opacity:1;fill-rule:nonzero;stroke:none;stroke-width:0.1"
       id="path70" /><path
       d="m 206.12885,116.077 h 20 c 0.276,0 0.5,0.223 0.5,0.5 0,0.275 -0.224,0.5 -0.5,0.5 h -20 c -0.276,0 -0.5,-0.225 -0.5,-0.5 0,-0.277 0.224,-0.5 0.5,-0.5"
       style="fill:#0e0f0f;fill-opacity:1;fill-rule:nonzero;stroke:none;stroke-width:0.1"
       id="path72" /><path
       d="m 226.12885,116.077 h 20 c 0.276,0 0.5,0.223 0.5,0.5 0,0.275 -0.224,0.5 -0.5,0.5 h -20 c -0.276,0 -0.5,-0.225 -0.5,-0.5 0,-0.277 0.224,-0.5 0.5,-0.5"
       style="fill:#0e0f0f;fill-opacity:1;fill-rule:nonzero;stroke:none;stroke-width:0.1"
       id="path74" /><path
       d="m 246.35826,116.077 h 29.17792 c 0.40266,0 0.72947,0.223 0.72947,0.5 0,0.275 -0.32681,0.5 -0.72947,0.5 h -29.17792 c -0.40267,0 -0.72946,-0.225 -0.72946,-0.5 0,-0.277 0.32679,-0.5 0.72946,-0.5"
       style="fill:#0e0f0f;fill-opacity:1;fill-rule:nonzero;stroke:none;stroke-width:0.0999999"
       id="path76" /><path
       d="m 276.12885,116.077 h 3.372 l 6,20 h 10.628 c 0.276,0 0.5,0.223 0.5,0.5 0,0.275 -0.224,0.5 -0.5,0.5 h -11.372 l -6,-20 h -2.628 c -0.276,0 -0.5,-0.225 -0.5,-0.5 0,-0.277 0.224,-0.5 0.5,-0.5 v 0"
       style="fill:#0e0f0f;fill-opacity:1;fill-rule:nonzero;stroke:none;stroke-width:0.1"
       id="path78" /><path
       d="m 296.02853,136.077 h 21.34894 c 0.29462,0 0.53372,0.223 0.53372,0.5 0,0.275 -0.2391,0.5 -0.53372,0.5 h -21.34894 c -0.29461,0 -0.53372,-0.225 -0.53372,-0.5 0,-0.277 0.23911,-0.5 0.53372,-0.5"
       style="fill:#0e0f0f;fill-opacity:1;fill-rule:nonzero;stroke:none;stroke-width:0.1"
       id="path80" /><path
       d="m 318.12885,136.077 h 2.628 l 6,-20 h 11.372 c 0.276,0 0.5,0.223 0.5,0.5 0,0.275 -0.224,0.5 -0.5,0.5 h -10.628 l -6,20 h -3.372 c -0.276,0 -0.5,-0.225 -0.5,-0.5 0,-0.277 0.224,-0.5 0.5,-0.5 v 0"
       style="fill:#0e0f0f;fill-opacity:1;fill-rule:nonzero;stroke:none;stroke-width:0.1"
       id="path82" /><path
       d="m 338.12885,116.077 h 48 c 0.276,0 0.5,0.223 0.5,0.5 0,0.275 -0.224,0.5 -0.5,0.5 h -48 c -0.276,0 -0.5,-0.225 -0.5,-0.5 0,-0.277 0.224,-0.5 0.5,-0.5"
       style="fill:#0e0f0f;fill-opacity:1;fill-rule:nonzero;stroke:none;stroke-width:0.1"
       id="path84" /><g
       id="g86"
       transform="translate(0.40784548)"><text
         transform="matrix(1,0,0,-1,33.1016,81.5789)"
         style="font-variant:normal;font-weight:normal;font-size:11px;font-family:Arial;-inkscape-font-specification:ArialMT;writing-mode:lr-tb;fill:#344ea9;fill-opacity:1;fill-rule:nonzero;stroke:none"
         id="text90"><tspan
           x="0 7.3369999 15.279"
           y="0"
           sodipodi:role="line"
           id="tspan88">SDA</tspan></text></g><path
       d="m 66.128945,96.0762 h 20 c 0.2766,0 0.5,0.2238 0.5,0.5 0,0.2758 -0.2234,0.5 -0.5,0.5 h -20 c -0.2758,0 -0.5,-0.2242 -0.5,-0.5 0,-0.2762 0.2242,-0.5 0.5,-0.5"
       style="fill:#0e0f0f;fill-opacity:1;fill-rule:nonzero;stroke:none;stroke-width:0.1"
       id="path92" /><path
       d="m 86.128945,96.0762 h 19.999905 c 0.276,0 0.5,0.2238 0.5,0.5 0,0.2758 -0.224,0.5 -0.5,0.5 H 86.128945 c -0.2758,0 -0.5,-0.2242 -0.5,-0.5 0,-0.2762 0.2242,-0.5 0.5,-0.5"
       style="fill:#0e0f0f;fill-opacity:1;fill-rule:nonzero;stroke:none;stroke-width:0.1"
       id="path94" /><path
       d="m 106.12885,96.0762 h 2.628 l 6,-20 h 11.372 c 0.276,0 0.5,0.2238 0.5,0.5 0,0.2758 -0.224,0.5 -0.5,0.5 h -10.628 l -6,20 h -3.372 c -0.276,0 -0.5,-0.2242 -0.5,-0.5 0,-0.2762 0.224,-0.5 0.5,-0.5 v 0"
       style="fill:#0e0f0f;fill-opacity:1;fill-rule:nonzero;stroke:none;stroke-width:0.1"
       id="path96" /><path
       d="m 126.12885,76.0762 h 20 c 0.276,0 0.5,0.2238 0.5,0.5 0,0.2758 -0.224,0.5 -0.5,0.5 h -20 c -0.276,0 -0.5,-0.2242 -0.5,-0.5 0,-0.2762 0.224,-0.5 0.5,-0.5"
       style="fill:#0e0f0f;fill-opacity:1;fill-rule:nonzero;stroke:none;stroke-width:0.1"
       id="path98" /><path
       d="m 146.12885,76.0762 h 3.372 l 6,20 h 10.628 c 0.276,0 0.5,0.2238 0.5,0.5 0,0.2758 -0.224,0.5 -0.5,0.5 h -11.372 l -6,-20 h -2.628 c -0.276,0 -0.5,-0.2242 -0.5,-0.5 0,-0.2762 0.224,-0.5 0.5,-0.5 v 0"
       style="fill:#0e0f0f;fill-opacity:1;fill-rule:nonzero;stroke:none;stroke-width:0.1"
       id="path100" /><path
       d="m 166.12885,96.0762 h 20 c 0.276,0 0.5,0.2238 0.5,0.5 0,0.2758 -0.224,0.5 -0.5,0.5 h -20 c -0.276,0 -0.5,-0.2242 -0.5,-0.5 0,-0.2762 0.224,-0.5 0.5,-0.5"
       style="fill:#0e0f0f;fill-opacity:1;fill-rule:nonzero;stroke:none;stroke-width:0.1"
       id="path102" /><path
       d="m 186.12885,96.0762 h 2.628 l 6,-20 h 11.372 c 0.276,0 0.5,0.2238 0.5,0.5 0,0.2758 -0.224,0.5 -0.5,0.5 h -10.628 l -6,20 h -3.372 c -0.276,0 -0.5,-0.2242 -0.5,-0.5 0,-0.2762 0.224,-0.5 0.5,-0.5 v 0"
       style="fill:#0e0f0f;fill-opacity:1;fill-rule:nonzero;stroke:none;stroke-width:0.1"
       id="path104" /><path
       d="m 206.12885,76.0762 h 20 c 0.276,0 0.5,0.2238 0.5,0.5 0,0.2758 -0.224,0.5 -0.5,0.5 h -20 c -0.276,0 -0.5,-0.2242 -0.5,-0.5 0,-0.2762 0.224,-0.5 0.5,-0.5"
       style="fill:#0e0f0f;fill-opacity:1;fill-rule:nonzero;stroke:none;stroke-width:0.1"
       id="path106" /><path
       d="m 226.12885,76.0762 h 20 c 0.276,0 0.5,0.2238 0.5,0.5 0,0.2758 -0.224,0.5 -0.5,0.5 h -20 c -0.276,0 -0.5,-0.2242 -0.5,-0.5 0,-0.2762 0.224,-0.5 0.5,-0.5"
       style="fill:#0e0f0f;fill-opacity:1;fill-rule:nonzero;stroke:none;stroke-width:0.1"
       id="path108" /><path
       d="m 246.12885,76.0762 h 20 c 0.276,0 0.5,0.2238 0.5,0.5 0,0.2758 -0.224,0.5 -0.5,0.5 h -20 c -0.276,0 -0.5,-0.2242 -0.5,-0.5 0,-0.2762 0.224,-0.5 0.5,-0.5"
       style="fill:#0e0f0f;fill-opacity:1;fill-rule:nonzero;stroke:none;stroke-width:0.1"
       id="path110" /><path
       d="m 277.12885,76.0762 h 3.372 l 6,20 h 10.628 c 0.276,0 0.5,0.2238 0.5,0.5 0,0.2758 -0.224,0.5 -0.5,0.5 h -11.372 l -6,-20 h -2.628 c -0.276,0 -0.5,-0.2242 -0.5,-0.5 0,-0.2762 0.224,-0.5 0.5,-0.5 v 0"
       style="fill:#0e0f0f;fill-opacity:1;fill-rule:nonzero;stroke:none;stroke-width:0.1"
       id="path112" /><path
       d="m 297.12885,96.0762 h 20 c 0.276,0 0.5,0.2238 0.5,0.5 0,0.2758 -0.224,0.5 -0.5,0.5 h -20 c -0.276,0 -0.5,-0.2242 -0.5,-0.5 0,-0.2762 0.224,-0.5 0.5,-0.5"
       style="fill:#0e0f0f;fill-opacity:1;fill-rule:nonzero;stroke:none;stroke-width:0.1"
       id="path114" /><path
       d="m 318.12885,96.0762 h 2.628 l 6,-20 h 11.372 c 0.276,0 0.5,0.2238 0.5,0.5 0,0.2758 -0.224,0.5 -0.5,0.5 h -10.628 l -6,20 h -3.372 c -0.276,0 -0.5,-0.2242 -0.5,-0.5 0,-0.2762 0.224,-0.5 0.5,-0.5 v 0"
       style="fill:#0e0f0f;fill-opacity:1;fill-rule:nonzero;stroke:none;stroke-width:0.1"
       id="path116" /><path
       d="m 338.12885,76.0762 h 48 c 0.276,0 0.5,0.2238 0.5,0.5 0,0.2758 -0.224,0.5 -0.5,0.5 h -48 c -0.276,0 -0.5,-0.2242 -0.5,-0.5 0,-0.2762 0.224,-0.5 0.5,-0.5"
       style="fill:#0e0f0f;fill-opacity:1;fill-rule:nonzero;stroke:none;stroke-width:0.1"
       id="path118" /><g
       id="g120"
       transform="translate(0.40784548)"><text
         transform="matrix(1,0,0,-1,34.3203,35.5789)"
         style="font-variant:normal;font-weight:normal;font-size:11px;font-family:Arial;-inkscape-font-specification:ArialMT;writing-mode:lr-tb;fill:#344ea9;fill-opacity:1;fill-rule:nonzero;stroke:none"
         id="text124"><tspan
           x="0 7.3369999 15.279"
           y="0"
           sodipodi:role="line"
           id="tspan122">SCL</tspan></text></g><path
       d="m 87.128945,50.0762 h 19.999905 c 0.276,0 0.5,0.2238 0.5,0.5 0,0.2758 -0.224,0.5 -0.5,0.5 H 87.128945 c -0.2758,0 -0.5,-0.2242 -0.5,-0.5 0,-0.2762 0.2242,-0.5 0.5,-0.5"
       style="fill:#0e0f0f;fill-opacity:1;fill-rule:nonzero;stroke:none;stroke-width:0.1"
       id="path126" /><path
       d="m 107.12885,50.0762 h 20 c 0.276,0 0.5,0.2238 0.5,0.5 0,0.2758 -0.224,0.5 -0.5,0.5 h -20 c -0.276,0 -0.5,-0.2242 -0.5,-0.5 0,-0.2762 0.224,-0.5 0.5,-0.5"
       style="fill:#0e0f0f;fill-opacity:1;fill-rule:nonzero;stroke:none;stroke-width:0.1"
       id="path128" /><path
       d="m 127.12885,50.0762 h 3.868 l 8.399,-20 h 15.733 c 0.276,0 0.5,0.2238 0.5,0.5 0,0.2758 -0.224,0.5 -0.5,0.5 h -15.068 l -8.4,20 h -4.532 c -0.276,0 -0.5,-0.2242 -0.5,-0.5 0,-0.2762 0.224,-0.5 0.5,-0.5 v 0"
       style="fill:#0e0f0f;fill-opacity:1;fill-rule:nonzero;stroke:none;stroke-width:0.1"
       id="path130" /><path
       d="m 155.12885,30.0762 h 3.372 l 6,20 h 10.628 c 0.276,0 0.5,0.2238 0.5,0.5 0,0.2758 -0.224,0.5 -0.5,0.5 h -11.372 l -6,-20 h -2.628 c -0.276,0 -0.5,-0.2242 -0.5,-0.5 0,-0.2762 0.224,-0.5 0.5,-0.5 v 0"
       style="fill:#0e0f0f;fill-opacity:1;fill-rule:nonzero;stroke:none;stroke-width:0.1"
       id="path132" /><path
       d="m 174.12885,50.0762 h 6.675 c 0.276,0 0.5,0.2238 0.5,0.5 0,0.2758 -0.224,0.5 -0.5,0.5 h -6.675 c -0.276,0 -0.5,-0.2242 -0.5,-0.5 0,-0.2762 0.224,-0.5 0.5,-0.5"
       style="fill:#0e0f0f;fill-opacity:1;fill-rule:nonzero;stroke:none;stroke-width:0.1"
       id="path134" /><path
       d="m 181.12885,50.0762 h 2.628 l 6,-20 h 11.372 c 0.276,0 0.5,0.2238 0.5,0.5 0,0.2758 -0.224,0.5 -0.5,0.5 h -10.628 l -6,20 h -3.372 c -0.276,0 -0.5,-0.2242 -0.5,-0.5 0,-0.2762 0.224,-0.5 0.5,-0.5 v 0"
       style="fill:#0e0f0f;fill-opacity:1;fill-rule:nonzero;stroke:none;stroke-width:0.1"
       id="path136" /><path
       d="m 195.12885,30.0762 h 11 c 0.276,0 0.5,0.2238 0.5,0.5 0,0.2758 -0.224,0.5 -0.5,0.5 h -11 c -0.276,0 -0.5,-0.2242 -0.5,-0.5 0,-0.2762 0.224,-0.5 0.5,-0.5"
       style="fill:#0e0f0f;fill-opacity:1;fill-rule:nonzero;stroke:none;stroke-width:0.1"
       id="path138" /><path
       d="m 203.12885,30.0762 h 3.372 l 6,20 h 10.628 c 0.276,0 0.5,0.2238 0.5,0.5 0,0.2758 -0.224,0.5 -0.5,0.5 h -11.372 l -6,-20 h -2.628 c -0.276,0 -0.5,-0.2242 -0.5,-0.5 0,-0.2762 0.224,-0.5 0.5,-0.5 v 0"
       style="fill:#0e0f0f;fill-opacity:1;fill-rule:nonzero;stroke:none;stroke-width:0.1"
       id="path140" /><path
       d="m 219.12885,50.0762 h 6 c 0.276,0 0.5,0.2238 0.5,0.5 0,0.2758 -0.224,0.5 -0.5,0.5 h -6 c -0.276,0 -0.5,-0.2242 -0.5,-0.5 0,-0.2762 0.224,-0.5 0.5,-0.5"
       style="fill:#0e0f0f;fill-opacity:1;fill-rule:nonzero;stroke:none;stroke-width:0.1"
       id="path142" /><path
       d="m 225.12885,50.0762 h 2.628 l 6,-20 h 11.372 c 0.276,0 0.5,0.2238 0.5,0.5 0,0.2758 -0.224,0.5 -0.5,0.5 h -10.628 l -6,20 h -3.372 c -0.276,0 -0.5,-0.2242 -0.5,-0.5 0,-0.2762 0.224,-0.5 0.5,-0.5 v 0"
       style="fill:#0e0f0f;fill-opacity:1;fill-rule:nonzero;stroke:none;stroke-width:0.1"
       id="path144" /><path
       d="m 245.12885,30.0762 h 3.372 l 6,20 h 10.628 c 0.276,0 0.5,0.2238 0.5,0.5 0,0.2758 -0.224,0.5 -0.5,0.5 h -11.372 l -6,-20 h -2.628 c -0.276,0 -0.5,-0.2242 -0.5,-0.5 0,-0.2762 0.224,-0.5 0.5,-0.5 v 0"
       style="fill:#0e0f0f;fill-opacity:1;fill-rule:nonzero;stroke:none;stroke-width:0.1"
       id="path146" /><path
       d="m 265.12885,50.0762 h 4.782 c 0.277,0 0.5,0.2238 0.5,0.5 0,0.2758 -0.223,0.5 -0.5,0.5 h -4.782 c -0.276,0 -0.5,-0.2242 -0.5,-0.5 0,-0.2762 0.224,-0.5 0.5,-0.5"
       style="fill:#0e0f0f;fill-opacity:1;fill-rule:nonzero;stroke:none;stroke-width:0.1"
       id="path148" /><path
       d="m 268.12885,50.0762 h 2.628 l 6,-20 h 11.372 c 0.276,0 0.5,0.2238 0.5,0.5 0,0.2758 -0.224,0.5 -0.5,0.5 h -10.628 l -6,20 h -3.372 c -0.276,0 -0.5,-0.2242 -0.5,-0.5 0,-0.2762 0.224,-0.5 0.5,-0.5 v 0"
       style="fill:#0e0f0f;fill-opacity:1;fill-rule:nonzero;stroke:none;stroke-width:0.1"
       id="path150" /><path
       d="m 288.12885,30.0762 h 3.34 c 0.276,0 0.5,0.2238 0.5,0.5 0,0.2758 -0.224,0.5 -0.5,0.5 h -3.34 c -0.276,0 -0.5,-0.2242 -0.5,-0.5 0,-0.2762 0.224,-0.5 0.5,-0.5"
       style="fill:#0e0f0f;fill-opacity:1;fill-rule:nonzero;stroke:none;stroke-width:0.1"
       id="path152" /><path
       d="m 288.12885,30.0762 h 4.533 l 8.399,20 h 15.068 c 0.276,0 0.5,0.2238 0.5,0.5 0,0.2758 -0.224,0.5 -0.5,0.5 h -15.732 l -8.4,-20 h -3.868 c -0.276,0 -0.5,-0.2242 -0.5,-0.5 0,-0.2762 0.224,-0.5 0.5,-0.5 v 0"
       style="fill:#0e0f0f;fill-opacity:1;fill-rule:nonzero;stroke:none;stroke-width:0.1"
       id="path154" /><path
       d="m 315.12885,50.0762 h 2.628 l 6,-20 h 11.372 c 0.276,0 0.5,0.2238 0.5,0.5 0,0.2758 -0.224,0.5 -0.5,0.5 h -10.628 l -6,20 h -3.372 c -0.276,0 -0.5,-0.2242 -0.5,-0.5 0,-0.2762 0.224,-0.5 0.5,-0.5 v 0"
       style="fill:#0e0f0f;fill-opacity:1;fill-rule:nonzero;stroke:none;stroke-width:0.1"
       id="path156" /><path
       d="m 335.12885,30.0762 h 3.372 l 6,20 h 10.628 c 0.276,0 0.5,0.2238 0.5,0.5 0,0.2758 -0.224,0.5 -0.5,0.5 h -11.372 l -6,-20 h -2.628 c -0.276,0 -0.5,-0.2242 -0.5,-0.5 0,-0.2762 0.224,-0.5 0.5,-0.5 v 0"
       style="fill:#0e0f0f;fill-opacity:1;fill-rule:nonzero;stroke:none;stroke-width:0.1"
       id="path158" /><path
       d="m 352.12885,50.0762 h 10 c 0.276,0 0.5,0.2238 0.5,0.5 0,0.2758 -0.224,0.5 -0.5,0.5 h -10 c -0.276,0 -0.5,-0.2242 -0.5,-0.5 0,-0.2762 0.224,-0.5 0.5,-0.5"
       style="fill:#0e0f0f;fill-opacity:1;fill-rule:nonzero;stroke:none;stroke-width:0.1"
       id="path160" /><path
       d="m 363.12885,50.0762 h 3.094 l 6.899,-20 h 13.007 c 0.276,0 0.5,0.2238 0.5,0.5 0,0.2758 -0.224,0.5 -0.5,0.5 h -12.294 l -6.899,20 h -3.807 c -0.276,0 -0.5,-0.2242 -0.5,-0.5 0,-0.2762 0.224,-0.5 0.5,-0.5 v 0"
       style="fill:#0e0f0f;fill-opacity:1;fill-rule:nonzero;stroke:none;stroke-width:0.1"
       id="path162" /><path
       d="m 266.72085,75.909296 h 9.408 c 0.276,0 0.5,0.2239 0.5,0.5 0,0.2758 -0.224,0.5 -0.5,0.5 h -9.408 c -0.277,0 -0.5,-0.2242 -0.5,-0.5 0,-0.2761 0.223,-0.5 0.5,-0.5"
       style="fill:#0e0f0f;fill-opacity:1;fill-rule:nonzero;stroke:none;stroke-width:0.1"
       id="path164" /><path
       d="m 67.720345,50.017642 h 20 c 0.2766,0 0.5,0.2239 0.5,0.5 0,0.2758 -0.2234,0.5 -0.5,0.5 h -20 c -0.2758,0 -0.5,-0.2242 -0.5,-0.5 0,-0.2761 0.2242,-0.5 0.5,-0.5"
       style="fill:#0e0f0f;fill-opacity:1;fill-rule:nonzero;stroke:none;stroke-width:0.1"
       id="path166" /><path
       d="m 104.50385,204.39 h -4 c -0.2073,0 -0.3757,0.168 -0.3757,0.376 0,0.207 0.1684,0.375 0.3757,0.375 h 4 c 0.207,0 0.375,-0.168 0.375,-0.375 0,-0.208 -0.168,-0.376 -0.375,-0.376 m 8,0 h -4 c -0.207,0 -0.376,0.168 -0.376,0.376 0,0.207 0.169,0.375 0.376,0.375 h 4 c 0.207,0 0.375,-0.168 0.375,-0.375 0,-0.208 -0.168,-0.376 -0.375,-0.376 m 8,0 h -4 c -0.208,0 -0.376,0.168 -0.376,0.376 0,0.207 0.168,0.375 0.376,0.375 h 4 c 0.207,0 0.375,-0.168 0.375,-0.375 0,-0.208 -0.168,-0.376 -0.375,-0.376 m 8,0 h -4 c -0.208,0 -0.376,0.168 -0.376,0.376 0,0.207 0.168,0.375 0.376,0.375 h 4 c 0.207,0 0.375,-0.168 0.375,-0.375 0,-0.208 -0.168,-0.376 -0.375,-0.376 m -34.635805,-1.364 c -0.2079,0 -0.3758,0.168 -0.3758,0.376 v 1.364 c 0,0.098 0.0402,0.195 0.1097,0.264 0.07,0.071 0.1668,0.111 0.2661,0.111 h 2.6355 c 0.2074,0 0.3754,-0.168 0.3754,-0.375 0,-0.208 -0.168,-0.376 -0.3754,-0.376 h -2.2602 v -0.988 c 0,-0.208 -0.1679,-0.376 -0.3753,-0.376 m 37.443805,-3.828 c -0.207,0 -0.375,0.168 -0.375,0.375 v 4 c 0,0.209 0.168,0.377 0.375,0.377 0.208,0 0.376,-0.168 0.376,-0.377 v -4 c 0,-0.207 -0.168,-0.375 -0.376,-0.375 m -37.443805,-4.172 c -0.2079,0 -0.3758,0.168 -0.3758,0.376 v 4 c 0,0.207 0.1679,0.375 0.3758,0.375 0.2074,0 0.3753,-0.168 0.3753,-0.375 v -4 c 0,-0.208 -0.1679,-0.376 -0.3753,-0.376 m 37.443805,-3.828 c -0.207,0 -0.375,0.168 -0.375,0.375 v 4 c 0,0.209 0.168,0.377 0.375,0.377 0.208,0 0.376,-0.168 0.376,-0.377 v -4 c 0,-0.207 -0.168,-0.375 -0.376,-0.375 m -37.443805,-4.172 c -0.2079,0 -0.3758,0.168 -0.3758,0.376 v 4 c 0,0.207 0.1679,0.375 0.3758,0.375 0.2074,0 0.3753,-0.168 0.3753,-0.375 v -4 c 0,-0.208 -0.1679,-0.376 -0.3753,-0.376 m 37.443805,-3.828 c -0.207,0 -0.375,0.168 -0.375,0.375 v 4 c 0,0.209 0.168,0.377 0.375,0.377 0.208,0 0.376,-0.168 0.376,-0.377 v -4 c 0,-0.207 -0.168,-0.375 -0.376,-0.375 m -37.256305,-4.121 h -0.375 c -0.1125,0.064 -0.1883,0.185 -0.1883,0.325 v 4 c 0,0.207 0.1679,0.375 0.3758,0.375 0.2074,0 0.3753,-0.168 0.3753,-0.375 v -4 c 0,-0.14 -0.0757,-0.261 -0.1878,-0.325 m 37.256305,-3.879 c -0.207,0 -0.375,0.168 -0.375,0.375 v 4 c 0,0.209 0.168,0.377 0.375,0.377 0.208,0 0.376,-0.168 0.376,-0.377 v -4 c 0,-0.207 -0.168,-0.375 -0.376,-0.375 m -37.443805,-4.172 c -0.2079,0 -0.3758,0.168 -0.3758,0.376 v 4 c 0,0.207 0.1679,0.375 0.3758,0.375 0.2074,0 0.3753,-0.168 0.3753,-0.375 v -4 c 0,-0.208 -0.1679,-0.376 -0.3753,-0.376 m 37.443805,-3.828 c -0.207,0 -0.375,0.168 -0.375,0.375 v 4 c 0,0.209 0.168,0.377 0.375,0.377 0.208,0 0.376,-0.168 0.376,-0.377 v -4 c 0,-0.207 -0.168,-0.375 -0.376,-0.375 m -37.443805,-4.172 c -0.2079,0 -0.3758,0.168 -0.3758,0.376 v 4 c 0,0.207 0.1679,0.375 0.3758,0.375 0.2074,0 0.3753,-0.168 0.3753,-0.375 v -4 c 0,-0.208 -0.1679,-0.376 -0.3753,-0.376 m 37.443805,-3.828 c -0.207,0 -0.375,0.168 -0.375,0.375 v 4 c 0,0.209 0.168,0.377 0.375,0.377 0.208,0 0.376,-0.168 0.376,-0.377 v -4 c 0,-0.207 -0.168,-0.375 -0.376,-0.375 m -37.443805,-4.172 c -0.2079,0 -0.3758,0.168 -0.3758,0.376 v 4 c 0,0.207 0.1679,0.375 0.3758,0.375 0.2074,0 0.3753,-0.168 0.3753,-0.375 v -4 c 0,-0.208 -0.1679,-0.376 -0.3753,-0.376 m 37.443805,-3.828 c -0.207,0 -0.375,0.168 -0.375,0.377 v 4 c 0,0.207 0.168,0.375 0.375,0.375 0.208,0 0.376,-0.168 0.376,-0.375 v -4 c 0,-0.209 -0.168,-0.377 -0.376,-0.377 m -37.443805,-4.172 c -0.2079,0 -0.3758,0.169 -0.3758,0.376 v 4 c 0,0.207 0.1679,0.375 0.3758,0.375 0.2074,0 0.3753,-0.168 0.3753,-0.375 v -4 c 0,-0.207 -0.1679,-0.376 -0.3753,-0.376 m 37.443805,-3.828 c -0.207,0 -0.375,0.168 -0.375,0.375 v 4 c 0,0.209 0.168,0.377 0.375,0.377 0.208,0 0.376,-0.168 0.376,-0.377 v -4 c 0,-0.207 -0.168,-0.375 -0.376,-0.375 m -37.443805,-4.172 c -0.2079,0 -0.3758,0.168 -0.3758,0.376 v 4 c 0,0.207 0.1679,0.375 0.3758,0.375 0.2074,0 0.3753,-0.168 0.3753,-0.375 v -4 c 0,-0.208 -0.1679,-0.376 -0.3753,-0.376 m 37.443805,-3.828 c -0.207,0 -0.375,0.168 -0.375,0.375 v 4 c 0,0.209 0.168,0.377 0.375,0.377 0.208,0 0.376,-0.168 0.376,-0.377 v -4 c 0,-0.207 -0.168,-0.375 -0.376,-0.375 m -37.443805,-4.172 c -0.2079,0 -0.3758,0.168 -0.3758,0.376 v 4 c 0,0.207 0.1679,0.375 0.3758,0.375 0.2074,0 0.3753,-0.168 0.3753,-0.375 v -4 c 0,-0.208 -0.1679,-0.376 -0.3753,-0.376 m 37.443805,-3.828 c -0.207,0 -0.375,0.168 -0.375,0.377 v 3.998 c 0,0.209 0.168,0.377 0.375,0.377 0.208,0 0.376,-0.168 0.376,-0.377 v -3.998 c 0,-0.209 -0.168,-0.377 -0.376,-0.377 m -37.443805,-4.172 c -0.2079,0 -0.3758,0.168 -0.3758,0.376 v 4 c 0,0.207 0.1679,0.375 0.3758,0.375 0.2074,0 0.3753,-0.168 0.3753,-0.375 v -4 c 0,-0.208 -0.1679,-0.376 -0.3753,-0.376 m 37.443805,-3.828 c -0.207,0 -0.375,0.168 -0.375,0.377 v 4 c 0,0.207 0.168,0.375 0.375,0.375 0.208,0 0.376,-0.168 0.376,-0.375 v -4 c 0,-0.209 -0.168,-0.377 -0.376,-0.377 m -37.443805,-4.172 c -0.2079,0 -0.3758,0.168 -0.3758,0.376 v 4 c 0,0.207 0.1679,0.375 0.3758,0.375 0.2074,0 0.3753,-0.168 0.3753,-0.375 v -4 c 0,-0.208 -0.1679,-0.376 -0.3753,-0.376 m 37.443805,-3.827 c -0.207,0 -0.375,0.168 -0.375,0.375 v 4.001 c 0,0.207 0.168,0.375 0.375,0.375 0.208,0 0.376,-0.168 0.376,-0.375 v -4.001 c 0,-0.207 -0.168,-0.375 -0.376,-0.375 m -37.443805,-4.173 c -0.2079,0 -0.3758,0.168 -0.3758,0.376 v 3.999 c 0,0.208 0.1679,0.376 0.3758,0.376 0.2074,0 0.3753,-0.168 0.3753,-0.376 v -3.999 c 0,-0.208 -0.1679,-0.376 -0.3753,-0.376 m 37.443805,-3.827 c -0.207,0 -0.375,0.168 -0.375,0.375 v 4 c 0,0.207 0.168,0.376 0.375,0.376 0.208,0 0.376,-0.169 0.376,-0.376 v -4 c 0,-0.207 -0.168,-0.375 -0.376,-0.375 M 93.868045,99.0262 c -0.2079,0 -0.3758,0.1679 -0.3758,0.3758 v 4 c 0,0.207 0.1679,0.375 0.3758,0.375 0.2074,0 0.3753,-0.168 0.3753,-0.375 v -4 c 0,-0.2079 -0.1679,-0.3758 -0.3753,-0.3758 m 37.443805,-3.8274 c -0.207,0 -0.375,0.168 -0.375,0.375 v 4 c 0,0.2071 0.168,0.3762 0.375,0.3762 0.208,0 0.376,-0.1691 0.376,-0.3762 v -4 c 0,-0.207 -0.168,-0.375 -0.376,-0.375 M 93.868045,91.0262 c -0.2079,0 -0.3758,0.1679 -0.3758,0.3758 v 4 c 0,0.207 0.1679,0.375 0.3758,0.375 0.2074,0 0.3753,-0.168 0.3753,-0.375 v -4 c 0,-0.2079 -0.1679,-0.3758 -0.3753,-0.3758 m 37.443805,-3.8274 c -0.207,0 -0.375,0.168 -0.375,0.375 v 4 c 0,0.2082 0.168,0.3762 0.375,0.3762 0.208,0 0.376,-0.168 0.376,-0.3762 v -4 c 0,-0.207 -0.168,-0.375 -0.376,-0.375 M 93.868045,83.0262 c -0.2079,0 -0.3758,0.1679 -0.3758,0.3758 v 4 c 0,0.207 0.1679,0.375 0.3758,0.375 0.2074,0 0.3753,-0.168 0.3753,-0.375 v -4 c 0,-0.2079 -0.1679,-0.3758 -0.3753,-0.3758 m 37.443805,-3.8274 c -0.207,0 -0.375,0.168 -0.375,0.375 v 4 c 0,0.2082 0.168,0.3762 0.375,0.3762 0.208,0 0.376,-0.168 0.376,-0.3762 v -4 c 0,-0.207 -0.168,-0.375 -0.376,-0.375 M 93.868045,75.0262 c -0.2079,0 -0.3758,0.1679 -0.3758,0.3758 v 4 c 0,0.207 0.1679,0.375 0.3758,0.375 0.2074,0 0.3753,-0.168 0.3753,-0.375 v -4 c 0,-0.2079 -0.1679,-0.3758 -0.3753,-0.3758 m 37.443805,-3.8274 c -0.207,0 -0.375,0.168 -0.375,0.375 v 4 c 0,0.2082 0.168,0.3762 0.375,0.3762 0.208,0 0.376,-0.168 0.376,-0.3762 v -4 c 0,-0.207 -0.168,-0.375 -0.376,-0.375 M 93.868045,67.0262 c -0.2079,0 -0.3758,0.1679 -0.3758,0.3758 v 4 c 0,0.207 0.1679,0.375 0.3758,0.375 0.2074,0 0.3753,-0.168 0.3753,-0.375 v -4 c 0,-0.2079 -0.1679,-0.3758 -0.3753,-0.3758 m 37.443805,-3.8274 c -0.207,0 -0.375,0.168 -0.375,0.375 v 4 c 0,0.2082 0.168,0.3762 0.375,0.3762 0.208,0 0.376,-0.168 0.376,-0.3762 v -4 c 0,-0.207 -0.168,-0.375 -0.376,-0.375 M 93.868045,59.0262 c -0.2079,0 -0.3758,0.1679 -0.3758,0.3758 v 4 c 0,0.207 0.1679,0.375 0.3758,0.375 0.2074,0 0.3753,-0.168 0.3753,-0.375 v -4 c 0,-0.2079 -0.1679,-0.3758 -0.3753,-0.3758 m 37.443805,-3.8274 c -0.207,0 -0.375,0.168 -0.375,0.375 v 4 c 0,0.2082 0.168,0.3762 0.375,0.3762 0.208,0 0.376,-0.168 0.376,-0.3762 v -4 c 0,-0.207 -0.168,-0.375 -0.376,-0.375 M 94.055545,51.0762 h -0.375 c -0.1125,0.0648 -0.1883,0.1859 -0.1883,0.3258 v 4 c 0,0.207 0.1679,0.375 0.3758,0.375 0.2074,0 0.3753,-0.168 0.3753,-0.375 v -4 c 0,-0.1399 -0.0757,-0.261 -0.1878,-0.3258 m 37.632305,-0.0633 -0.027,0.0633 h -0.724 v 0.4976 c 0,0.2082 0.168,0.3762 0.375,0.3762 0.208,0 0.376,-0.168 0.376,-0.3762 v -0.5609 m -0.376,-3.8141 c -0.207,0 -0.375,0.168 -0.375,0.375 v 2.5024 h 0.06 l 0.691,-1.6461 v -0.8563 c 0,-0.207 -0.168,-0.375 -0.376,-0.375 M 93.868045,43.0262 c -0.2079,0 -0.3758,0.1679 -0.3758,0.3758 v 4 c 0,0.207 0.1679,0.375 0.3758,0.375 0.2074,0 0.3753,-0.168 0.3753,-0.375 v -4 c 0,-0.2079 -0.1679,-0.3758 -0.3753,-0.3758 m 37.443805,-3.8274 c -0.207,0 -0.375,0.168 -0.375,0.375 v 4 c 0,0.2082 0.168,0.3762 0.375,0.3762 0.208,0 0.376,-0.168 0.376,-0.3762 v -4 c 0,-0.207 -0.168,-0.375 -0.376,-0.375 M 93.868045,35.0262 c -0.2079,0 -0.3758,0.1679 -0.3758,0.3758 v 4 c 0,0.207 0.1679,0.375 0.3758,0.375 0.2074,0 0.3753,-0.168 0.3753,-0.375 v -4 c 0,-0.2079 -0.1679,-0.3758 -0.3753,-0.3758 m 37.443805,-3.8274 c -0.207,0 -0.375,0.168 -0.375,0.375 v 4 c 0,0.2082 0.168,0.3762 0.375,0.3762 0.208,0 0.376,-0.168 0.376,-0.3762 v -4 c 0,-0.207 -0.168,-0.375 -0.376,-0.375 M 93.868045,27.0262 c -0.2079,0 -0.3758,0.1679 -0.3758,0.3758 v 4 c 0,0.207 0.1679,0.375 0.3758,0.375 0.2074,0 0.3753,-0.168 0.3753,-0.375 v -4 c 0,-0.2079 -0.1679,-0.3758 -0.3753,-0.3758 m 37.443805,-3.8274 c -0.207,0 -0.375,0.168 -0.375,0.375 v 4 c 0,0.2082 0.168,0.3762 0.375,0.3762 0.208,0 0.376,-0.168 0.376,-0.3762 v -4 c 0,-0.207 -0.168,-0.375 -0.376,-0.375 M 93.868045,19.0262 c -0.2079,0 -0.3758,0.1679 -0.3758,0.3758 v 4 c 0,0.207 0.1679,0.375 0.3758,0.375 0.2074,0 0.3753,-0.168 0.3753,-0.375 v -4 c 0,-0.2079 -0.1679,-0.3758 -0.3753,-0.3758 m 37.443805,-3.8274 c -0.207,0 -0.375,0.168 -0.375,0.375 v 4 c 0,0.2082 0.168,0.3762 0.375,0.3762 0.208,0 0.376,-0.168 0.376,-0.3762 v -4 c 0,-0.207 -0.168,-0.375 -0.376,-0.375 M 97.868045,12.643 h -4 c -0.0993,0 -0.1961,0.0398 -0.2661,0.1101 -0.0695,0.0699 -0.1097,0.1668 -0.1097,0.2649 v 2.384 c 0,0.207 0.1679,0.375 0.3758,0.375 0.2074,0 0.3753,-0.168 0.3753,-0.375 v -2.0079 h 3.6247 c 0.2074,0 0.3753,-0.1679 0.3753,-0.3761 0,-0.2071 -0.1679,-0.375 -0.3753,-0.375 m 7.999805,0 h -4 c -0.207,0 -0.375,0.1679 -0.375,0.375 0,0.2082 0.168,0.3761 0.375,0.3761 h 4 c 0.207,0 0.376,-0.1679 0.376,-0.3761 0,-0.2071 -0.169,-0.375 -0.376,-0.375 m 8,0 h -4 c -0.207,0 -0.376,0.1679 -0.376,0.375 0,0.2082 0.169,0.3761 0.376,0.3761 h 4 c 0.207,0 0.375,-0.1679 0.375,-0.3761 0,-0.2071 -0.168,-0.375 -0.375,-0.375 m 8,0 h -4 c -0.207,0 -0.376,0.1679 -0.376,0.375 0,0.2082 0.169,0.3761 0.376,0.3761 h 4 c 0.207,0 0.375,-0.1679 0.375,-0.3761 0,-0.2071 -0.168,-0.375 -0.375,-0.375 m 8,0 h -4 c -0.207,0 -0.376,0.1679 -0.376,0.375 0,0.2082 0.169,0.3761 0.376,0.3761 h 4 c 0.207,0 0.375,-0.1679 0.375,-0.3761 0,-0.2071 -0.168,-0.375 -0.375,-0.375"
       style="fill:#282423;fill-opacity:1;fill-rule:nonzero;stroke:none;stroke-width:0.1"
       id="path168" /><path
       d="m 93.868045,179.026 c -0.0684,0 -0.1325,0.018 -0.1875,0.051 h 0.375 c -0.0555,-0.033 -0.1196,-0.051 -0.1875,-0.051"
       style="fill:#10100f;fill-opacity:1;fill-rule:nonzero;stroke:none;stroke-width:0.1"
       id="path170" /><path
       d="m 93.868045,51.0262 c -0.0684,0 -0.1325,0.0179 -0.1875,0.05 h 0.375 c -0.0555,-0.0321 -0.1196,-0.05 -0.1875,-0.05"
       style="fill:#10100f;fill-opacity:1;fill-rule:nonzero;stroke:none;stroke-width:0.1"
       id="path172" /><path
       d="m 131.68785,48.4301 -0.691,1.6461 h -0.06 v 1 h 0.724 l 0.027,-0.0633 v -2.5828"
       style="fill:#10100f;fill-opacity:1;fill-rule:nonzero;stroke:none;stroke-width:0.1"
       id="path174" /><path
       d="m 188.92885,203.766 1.465,-191.748"
       style="fill:#231f20;fill-opacity:1;fill-rule:nonzero;stroke:none;stroke-width:0.1"
       id="path176" /><path
       d="m 188.55385,203.763 1.465,-191.747 c 0.001,-0.2082 0.171,-0.375 0.378,-0.373 0.208,0.0019 0.374,0.1711 0.373,0.3781 l -1.466,191.7469 c -0.001,0.208 -0.17,0.375 -0.378,0.373 -0.207,-0.002 -0.374,-0.171 -0.372,-0.378"
       style="fill:#10100f;fill-opacity:1;fill-rule:nonzero;stroke:none;stroke-width:0.1"
       id="path178" /><path
       d="m 252.98785,202.819 1.465,-191.7479"
       style="fill:#231f20;fill-opacity:1;fill-rule:nonzero;stroke:none;stroke-width:0.1"
       id="path180" /><path
       d="m 252.61285,202.816 1.465,-191.748 c 0.002,-0.2071 0.171,-0.3739 0.378,-0.3719 0.208,8e-4 0.374,0.1707 0.373,0.3777 l -1.465,191.7472 c -0.002,0.208 -0.171,0.375 -0.379,0.373 -0.207,-0.002 -0.374,-0.171 -0.372,-0.378"
       style="fill:#10100f;fill-opacity:1;fill-rule:nonzero;stroke:none;stroke-width:0.1"
       id="path182" /><path
       d="m 278.59985,142.863 0.585,-76.5501"
       style="fill:#231f20;fill-opacity:1;fill-rule:nonzero;stroke:none;stroke-width:0.1"
       id="path184" /><path
       d="m 276.72385,142.86 0.585,-76.5491 c 0.002,-0.2078 0.171,-0.375 0.379,-0.373 0.207,0.0012 0.374,0.1711 0.372,0.3781 l -0.585,76.55 c -10e-4,0.207 -0.171,0.373 -0.378,0.373 -0.207,-0.002 -0.374,-0.172 -0.373,-0.379"
       style="fill:#10100f;fill-opacity:1;fill-rule:nonzero;stroke:none;stroke-width:0.1"
       id="path186" /><path
       d="m 321.42785,143.219 0.585,-76.5491"
       style="fill:#231f20;fill-opacity:1;fill-rule:nonzero;stroke:none;stroke-width:0.1"
       id="path188" /><path
       d="m 321.05285,143.216 0.584,-76.5488 c 0.002,-0.207 0.171,-0.3742 0.379,-0.3731 0.207,0.002 0.374,0.1707 0.372,0.3789 l -0.584,76.548 c -0.002,0.208 -0.171,0.375 -0.379,0.373 -0.207,-0.002 -0.374,-0.171 -0.372,-0.378"
       style="fill:#10100f;fill-opacity:1;fill-rule:nonzero;stroke:none;stroke-width:0.1"
       id="path190" /><g
       id="g192"
       transform="translate(0.40784548)"><text
         transform="matrix(1,0,0,-1,107.711,19.0172)"
         style="font-variant:normal;font-weight:normal;font-size:11px;font-family:Arial;-inkscape-font-specification:ArialMT;writing-mode:lr-tb;fill:#231f20;fill-opacity:1;fill-rule:nonzero;stroke:none"
         id="text200"><tspan
           x="0"
           y="0"
           id="tspan194">S</tspan><tspan
           x="166.828 175.991 182.10918 187.60918 190.66483 196.783 200.44513 203.50175 209.61896 212.67558 215.11896 221.23712 226.73712 232.85527 238.35527 241.41093 247.5291 251.19122 257.30939 259.75375 262.80939 266.47238 272.5896 275.64624 278.0896 284.20776"
           y="-180"
           sodipodi:role="line"
           id="tspan196">master 1 loses arbitration</tspan><tspan
           x="166.828 200.44508 208.38942 214.90604 220.81131 227.53883 230.59547 236.71266 239.7693 245.80643 248.86208 256.19907 264.14792"
           y="-166.79691"
           sodipodi:role="line"
           id="tspan198"> DATA 1 ≠ SDA</tspan></text></g><path
       d="m 257.12885,184.854 14.782,10.184"
       style="fill:#231f20;fill-opacity:1;fill-rule:nonzero;stroke:none;stroke-width:0.1"
       id="path202" /><path
       d="m 261.70185,187.549 10.422,7.18 -0.425,0.618 -10.422,-7.181"
       style="fill:#0e0f0f;fill-opacity:1;fill-rule:nonzero;stroke:none;stroke-width:0.1"
       id="path204" /><path
       d="m 257.12885,184.854 7.875,1.723 -3.188,1.505 -0.272,3.515 -4.415,-6.743 v 0"
       style="fill:#0e0f0f;fill-opacity:1;fill-rule:nonzero;stroke:none;stroke-width:0.1"
       id="path206" /><path
       d="M 0.78323648,0.376172 V 0 H 448.65785 c 0.098,0 0.195,0.0398438 0.265,0.110156 0.07,0.069922 0.11,0.166797 0.11,0.266016 V 214.861 c 0,0.098 -0.04,0.195 -0.11,0.265 -0.07,0.07 -0.167,0.11 -0.265,0.11 H 0.78323648 c -0.099219,0 -0.195703,-0.04 -0.265625,-0.11 -0.0695316,-0.07 -0.109766,-0.167 -0.109766,-0.265 V 0.376172 c 0,-0.099219 0.0402344,-0.196094 0.109766,-0.266016 C 0.58753348,0.0398438 0.68401748,0 0.78323648,0 V 0.376172 H 1.1590175 V 214.485 H 448.28185 V 0.751953 H 0.78323648 V 0.376172 H 1.1590175 0.78323648 v 0"
       style="fill:#0e0f0e;fill-opacity:1;fill-rule:nonzero;stroke:none;stroke-width:0.1"
       id="path208" /><path
       d="m 169.58794,204.269 h -2.1893 c -0.11341,0 -0.2056,0.168 -0.2056,0.376 0,0.207 0.0922,0.375 0.2056,0.375 h 2.1893 c 0.11332,0 0.20529,-0.168 0.20529,-0.375 0,-0.208 -0.092,-0.376 -0.20529,-0.376 m 4.37859,0 h -2.18929 c -0.11332,0 -0.20581,0.168 -0.20581,0.376 0,0.207 0.0925,0.375 0.20581,0.375 h 2.18929 c 0.11324,0 0.20521,-0.168 0.20521,-0.375 0,-0.208 -0.0918,-0.376 -0.20521,-0.376 m 4.37851,0 h -2.18925 c -0.11384,0 -0.20582,0.168 -0.20582,0.376 0,0.207 0.0919,0.375 0.20582,0.375 h 2.18925 c 0.11329,0 0.20526,-0.168 0.20526,-0.375 0,-0.208 -0.092,-0.376 -0.20526,-0.376 m 4.37857,0 h -2.18926 c -0.11387,0 -0.20581,0.168 -0.20581,0.376 0,0.207 0.0919,0.375 0.20581,0.375 h 2.18926 c 0.11329,0 0.20524,-0.168 0.20524,-0.375 0,-0.208 -0.0919,-0.376 -0.20524,-0.376 m -18.95683,-1.364 c -0.11381,0 -0.20566,0.168 -0.20566,0.376 v 1.364 c 0,0.098 0.0219,0.195 0.06,0.264 0.0385,0.071 0.0912,0.111 0.14564,0.111 h 1.44242 c 0.11353,0 0.20549,-0.168 0.20549,-0.375 0,-0.208 -0.0918,-0.376 -0.20549,-0.376 h -1.23701 v -0.988 c 0,-0.208 -0.0918,-0.376 -0.20541,-0.376 m 20.49371,-3.828 c -0.11331,0 -0.20524,0.168 -0.20524,0.375 v 4 c 0,0.209 0.0919,0.377 0.20524,0.377 0.11382,0 0.2058,-0.168 0.2058,-0.377 v -4 c 0,-0.207 -0.0918,-0.375 -0.2058,-0.375 m -20.49371,-4.172 c -0.11381,0 -0.20566,0.168 -0.20566,0.376 v 4 c 0,0.207 0.0916,0.375 0.20566,0.375 0.11348,0 0.20541,-0.168 0.20541,-0.375 v -4 c 0,-0.208 -0.0918,-0.376 -0.20541,-0.376 m 20.49371,-3.828 c -0.11331,0 -0.20524,0.168 -0.20524,0.375 v 4 c 0,0.209 0.0919,0.377 0.20524,0.377 0.11382,0 0.2058,-0.168 0.2058,-0.377 v -4 c 0,-0.207 -0.0918,-0.375 -0.2058,-0.375 m -20.49371,-4.172 c -0.11381,0 -0.20566,0.168 -0.20566,0.376 v 4 c 0,0.207 0.0916,0.375 0.20566,0.375 0.11348,0 0.20541,-0.168 0.20541,-0.375 v -4 c 0,-0.208 -0.0918,-0.376 -0.20541,-0.376 m 20.49371,-3.828 c -0.11331,0 -0.20524,0.168 -0.20524,0.375 v 4 c 0,0.209 0.0919,0.377 0.20524,0.377 0.11382,0 0.2058,-0.168 0.2058,-0.377 v -4 c 0,-0.207 -0.0918,-0.375 -0.2058,-0.375 m -20.39107,-4.121 h -0.2053 c -0.0615,0.064 -0.10297,0.185 -0.10297,0.325 v 4 c 0,0.207 0.0915,0.375 0.20568,0.375 0.11346,0 0.20539,-0.168 0.20539,-0.375 v -4 c 0,-0.14 -0.0412,-0.261 -0.10276,-0.325 m 20.39108,-3.879 c -0.11332,0 -0.20525,0.168 -0.20525,0.375 v 4 c 0,0.209 0.0917,0.377 0.20525,0.377 0.11382,0 0.20579,-0.168 0.20579,-0.377 v -4 c 0,-0.207 -0.0918,-0.375 -0.20579,-0.375 m -20.4937,-4.172 c -0.11382,0 -0.20568,0.168 -0.20568,0.376 v 4 c 0,0.207 0.0916,0.375 0.20568,0.375 0.11346,0 0.20539,-0.168 0.20539,-0.375 v -4 c 0,-0.208 -0.0918,-0.376 -0.20539,-0.376 m 20.4937,-3.828 c -0.11332,0 -0.20525,0.168 -0.20525,0.375 v 4 c 0,0.209 0.0917,0.377 0.20525,0.377 0.11382,0 0.20579,-0.168 0.20579,-0.377 v -4 c 0,-0.207 -0.0918,-0.375 -0.20579,-0.375 m -20.4937,-4.172 c -0.11382,0 -0.20568,0.168 -0.20568,0.376 v 4 c 0,0.207 0.0916,0.375 0.20568,0.375 0.11346,0 0.20539,-0.168 0.20539,-0.375 v -4 c 0,-0.208 -0.0918,-0.376 -0.20539,-0.376 m 20.4937,-3.828 c -0.11332,0 -0.20525,0.168 -0.20525,0.375 v 4 c 0,0.209 0.0917,0.377 0.20525,0.377 0.11382,0 0.20579,-0.168 0.20579,-0.377 v -4 c 0,-0.207 -0.0918,-0.375 -0.20579,-0.375 m -20.4937,-4.172 c -0.11382,0 -0.20568,0.168 -0.20568,0.376 v 4 c 0,0.207 0.0916,0.375 0.20568,0.375 0.11346,0 0.20539,-0.168 0.20539,-0.375 v -4 c 0,-0.208 -0.0918,-0.376 -0.20539,-0.376 m 20.4937,-3.828 c -0.11332,0 -0.20525,0.168 -0.20525,0.377 v 4 c 0,0.207 0.0917,0.375 0.20525,0.375 0.11382,0 0.20579,-0.168 0.20579,-0.375 v -4 c 0,-0.209 -0.0918,-0.377 -0.20579,-0.377 m -20.4937,-4.172 c -0.11382,0 -0.20568,0.169 -0.20568,0.376 v 4 c 0,0.207 0.0916,0.375 0.20568,0.375 0.11346,0 0.20539,-0.168 0.20539,-0.375 v -4 c 0,-0.207 -0.0918,-0.376 -0.20539,-0.376 m 20.4937,-3.828 c -0.11332,0 -0.20525,0.168 -0.20525,0.375 v 4 c 0,0.209 0.0917,0.377 0.20525,0.377 0.11382,0 0.20579,-0.168 0.20579,-0.377 v -4 c 0,-0.207 -0.0918,-0.375 -0.20579,-0.375 m -20.4937,-4.172 c -0.11382,0 -0.20568,0.168 -0.20568,0.376 v 4 c 0,0.207 0.0916,0.375 0.20568,0.375 0.11346,0 0.20539,-0.168 0.20539,-0.375 v -4 c 0,-0.208 -0.0918,-0.376 -0.20539,-0.376 m 20.4937,-3.828 c -0.11332,0 -0.20525,0.168 -0.20525,0.375 v 4 c 0,0.209 0.0917,0.377 0.20525,0.377 0.11382,0 0.20579,-0.168 0.20579,-0.377 v -4 c 0,-0.207 -0.0918,-0.375 -0.20579,-0.375 m -20.4937,-4.172 c -0.11382,0 -0.20568,0.168 -0.20568,0.376 v 4 c 0,0.207 0.0916,0.375 0.20568,0.375 0.11346,0 0.20539,-0.168 0.20539,-0.375 v -4 c 0,-0.208 -0.0918,-0.376 -0.20539,-0.376 m 20.4937,-3.828 c -0.11332,0 -0.20525,0.168 -0.20525,0.377 v 3.998 c 0,0.209 0.0917,0.377 0.20525,0.377 0.11382,0 0.20579,-0.168 0.20579,-0.377 v -3.998 c 0,-0.209 -0.0918,-0.377 -0.20579,-0.377 m -20.4937,-4.172 c -0.11382,0 -0.20568,0.168 -0.20568,0.376 v 4 c 0,0.207 0.0916,0.375 0.20568,0.375 0.11346,0 0.20539,-0.168 0.20539,-0.375 v -4 c 0,-0.208 -0.0918,-0.376 -0.20539,-0.376 m 20.4937,-3.828 c -0.11332,0 -0.20525,0.168 -0.20525,0.377 v 4 c 0,0.207 0.0917,0.375 0.20525,0.375 0.11382,0 0.20579,-0.168 0.20579,-0.375 v -4 c 0,-0.209 -0.0918,-0.377 -0.20579,-0.377 m -20.4937,-4.172 c -0.11382,0 -0.20568,0.168 -0.20568,0.376 v 4 c 0,0.207 0.0916,0.375 0.20568,0.375 0.11346,0 0.20539,-0.168 0.20539,-0.375 v -4 c 0,-0.208 -0.0918,-0.376 -0.20539,-0.376 m 20.4937,-3.827 c -0.11332,0 -0.20525,0.168 -0.20525,0.375 v 4.001 c 0,0.207 0.0917,0.375 0.20525,0.375 0.11382,0 0.20579,-0.168 0.20579,-0.375 v -4.001 c 0,-0.207 -0.0918,-0.375 -0.20579,-0.375 m -20.4937,-4.173 c -0.11382,0 -0.20568,0.168 -0.20568,0.376 v 3.999 c 0,0.208 0.0916,0.376 0.20568,0.376 0.11346,0 0.20539,-0.168 0.20539,-0.376 v -3.999 c 0,-0.208 -0.0918,-0.376 -0.20539,-0.376 m 20.4937,-3.827 c -0.11332,0 -0.20525,0.168 -0.20525,0.375 v 4 c 0,0.207 0.0917,0.376 0.20525,0.376 0.11382,0 0.20579,-0.169 0.20579,-0.376 v -4 c 0,-0.207 -0.0918,-0.375 -0.20579,-0.375 m -20.4937,-4.1728 c -0.11382,0 -0.20568,0.1679 -0.20568,0.3758 v 4 c 0,0.207 0.0916,0.375 0.20568,0.375 0.11346,0 0.20539,-0.168 0.20539,-0.375 v -4 c 0,-0.2079 -0.0918,-0.3758 -0.20539,-0.3758 m 20.4937,-3.8274 c -0.11332,0 -0.20525,0.168 -0.20525,0.375 v 4 c 0,0.2071 0.0917,0.3762 0.20525,0.3762 0.11382,0 0.20579,-0.1691 0.20579,-0.3762 v -4 c 0,-0.207 -0.0918,-0.375 -0.20579,-0.375 m -20.49368,-4.1726 c -0.11382,0 -0.20568,0.1679 -0.20568,0.3758 v 4 c 0,0.207 0.0916,0.375 0.20568,0.375 0.11346,0 0.20539,-0.168 0.20539,-0.375 v -4 c 0,-0.2079 -0.0918,-0.3758 -0.20539,-0.3758 m 20.4937,-3.8274 c -0.11332,0 -0.20525,0.168 -0.20525,0.375 v 4 c 0,0.2082 0.0917,0.3762 0.20525,0.3762 0.11381,0 0.20579,-0.168 0.20579,-0.3762 v -4 c 0,-0.207 -0.0919,-0.375 -0.20579,-0.375 m -20.4937,-4.1726 c -0.11382,0 -0.20568,0.1679 -0.20568,0.3758 v 4 c 0,0.207 0.0916,0.375 0.20568,0.375 0.11346,0 0.20539,-0.168 0.20539,-0.375 v -4 c 0,-0.2079 -0.0918,-0.3758 -0.20539,-0.3758 m 20.4937,-3.8274 c -0.11332,0 -0.20525,0.168 -0.20525,0.375 v 4 c 0,0.2082 0.0917,0.3762 0.20525,0.3762 0.11381,0 0.20579,-0.168 0.20579,-0.3762 v -4 c 0,-0.207 -0.0919,-0.375 -0.20579,-0.375 m -20.4937,-4.1726 c -0.11382,0 -0.20568,0.1679 -0.20568,0.3758 v 4 c 0,0.207 0.0916,0.375 0.20568,0.375 0.11346,0 0.20539,-0.168 0.20539,-0.375 v -4 c 0,-0.2079 -0.0918,-0.3758 -0.20539,-0.3758 m 20.4937,-3.8274 c -0.11332,0 -0.20525,0.168 -0.20525,0.375 v 4 c 0,0.2082 0.0917,0.3762 0.20525,0.3762 0.11381,0 0.20579,-0.168 0.20579,-0.3762 v -4 c 0,-0.207 -0.0919,-0.375 -0.20579,-0.375 m -20.4937,-4.1726 c -0.11382,0 -0.20568,0.1679 -0.20568,0.3758 v 4 c 0,0.207 0.0916,0.375 0.20568,0.375 0.11346,0 0.20539,-0.168 0.20539,-0.375 v -4 c 0,-0.2079 -0.0918,-0.3758 -0.20539,-0.3758 m 20.4937,-3.8274 c -0.11332,0 -0.20525,0.168 -0.20525,0.375 v 4 c 0,0.2082 0.0917,0.3762 0.20525,0.3762 0.11381,0 0.20579,-0.168 0.20579,-0.3762 v -4 c 0,-0.207 -0.0919,-0.375 -0.20579,-0.375 m -20.4937,-4.1726 c -0.11382,0 -0.20568,0.1679 -0.20568,0.3758 v 4 c 0,0.207 0.0916,0.375 0.20568,0.375 0.11346,0 0.20539,-0.168 0.20539,-0.375 v -4 c 0,-0.2079 -0.0918,-0.3758 -0.20539,-0.3758 m 20.4937,-3.827399 c -0.11332,0 -0.20525,0.168 -0.20525,0.375 V 59.4528 c 0,0.2082 0.0917,0.3762 0.20525,0.3762 0.11381,0 0.20579,-0.168 0.20579,-0.3762 v -3.999999 c 0,-0.207 -0.0919,-0.375 -0.20579,-0.375 m -20.39109,-4.1226 h -0.20528 c -0.0615,0.0648 -0.10298,0.1859 -0.10298,0.3258 v 4 c 0,0.207 0.0915,0.375 0.20568,0.375 0.11346,0 0.20539,-0.168 0.20539,-0.375 v -4 c 0,-0.1399 -0.0412,-0.261 -0.10277,-0.3258 m 20.59688,-0.0633 -0.0148,0.0633 h -0.39627 v 0.4976 c 0,0.2082 0.0917,0.3762 0.20525,0.3762 0.11382,0 0.2058,-0.168 0.2058,-0.3762 v -0.5609 m -0.2058,-3.8141 c -0.11332,0 -0.20525,0.168 -0.20525,0.375 v 2.5024 h 0.0327 l 0.37824,-1.6461 v -0.8563 c 0,-0.207 -0.0918,-0.375 -0.20579,-0.375 m -20.4937,-4.1726 c -0.11384,0 -0.20568,0.1679 -0.20568,0.3758 v 4 c 0,0.207 0.0915,0.375 0.20568,0.375 0.1135,0 0.20539,-0.168 0.20539,-0.375 v -4 c 0,-0.2079 -0.0918,-0.3758 -0.20539,-0.3758 m 20.4937,-3.8274 c -0.11331,0 -0.20523,0.168 -0.20523,0.375 v 4 c 0,0.2082 0.0919,0.3762 0.20523,0.3762 0.11384,0 0.20579,-0.168 0.20579,-0.3762 v -4 c 0,-0.207 -0.0918,-0.375 -0.20579,-0.375 m -20.4937,-4.1726 c -0.11384,0 -0.20568,0.1679 -0.20568,0.3758 v 4 c 0,0.207 0.0915,0.375 0.20568,0.375 0.1135,0 0.20539,-0.168 0.20539,-0.375 v -4 c 0,-0.2079 -0.0918,-0.3758 -0.20539,-0.3758 m 20.4937,-3.8274 c -0.11331,0 -0.20523,0.168 -0.20523,0.375 v 4 c 0,0.2082 0.0919,0.3762 0.20523,0.3762 0.11384,0 0.20579,-0.168 0.20579,-0.3762 v -4 c 0,-0.207 -0.0918,-0.375 -0.20579,-0.375 m -20.4937,-4.1726 c -0.11384,0 -0.20568,0.1679 -0.20568,0.3758 v 4 c 0,0.207 0.0915,0.375 0.20568,0.375 0.1135,0 0.20539,-0.168 0.20539,-0.375 v -4 c 0,-0.2079 -0.0918,-0.3758 -0.20539,-0.3758 m 20.4937,-3.8274 c -0.11331,0 -0.20523,0.168 -0.20523,0.375 v 4 c 0,0.2082 0.0919,0.3762 0.20523,0.3762 0.11384,0 0.20579,-0.168 0.20579,-0.3762 v -4 c 0,-0.207 -0.0918,-0.375 -0.20579,-0.375 m -20.4937,-4.1726 c -0.11384,0 -0.20568,0.1679 -0.20568,0.3758 v 4 c 0,0.207 0.0915,0.375 0.20568,0.375 0.1135,0 0.20539,-0.168 0.20539,-0.375 v -4 c 0,-0.2079 -0.0918,-0.3758 -0.20539,-0.3758 m 20.4937,-3.8274 c -0.11331,0 -0.20523,0.168 -0.20523,0.375 v 4 c 0,0.2082 0.0919,0.3762 0.20523,0.3762 0.11384,0 0.20579,-0.168 0.20579,-0.3762 v -4 c 0,-0.207 -0.0918,-0.375 -0.20579,-0.375 m -18.30443,-2.5558 h -2.18927 c -0.0546,0 -0.10736,0.0398 -0.14566,0.1101 -0.0383,0.0699 -0.0603,0.1668 -0.0603,0.2649 v 2.384 c 0,0.207 0.0917,0.375 0.20564,0.375 0.11353,0 0.20548,-0.168 0.20548,-0.375 v -2.0079 h 1.98384 c 0.11352,0 0.2054,-0.1679 0.2054,-0.3761 0,-0.2071 -0.0918,-0.375 -0.2054,-0.375 m 4.37843,0 h -2.18922 c -0.11334,0 -0.20529,0.1679 -0.20529,0.375 0,0.2082 0.0918,0.3761 0.20529,0.3761 h 2.18925 c 0.11331,0 0.20578,-0.1679 0.20578,-0.3761 0,-0.2071 -0.0926,-0.375 -0.20578,-0.375 m 4.37859,0 h -2.18936 c -0.11329,0 -0.20576,0.1679 -0.20576,0.375 0,0.2082 0.0924,0.3761 0.20576,0.3761 h 2.18934 c 0.11328,0 0.20518,-0.1679 0.20518,-0.3761 0,-0.2071 -0.0919,-0.375 -0.20518,-0.375 m 4.37851,0 h -2.18927 c -0.11331,0 -0.2058,0.1679 -0.2058,0.375 0,0.2082 0.0925,0.3761 0.2058,0.3761 h 2.18927 c 0.11333,0 0.20524,-0.1679 0.20524,-0.3761 0,-0.2071 -0.0919,-0.375 -0.20524,-0.375 m 4.37856,0 h -2.18926 c -0.11334,0 -0.20579,0.1679 -0.20579,0.375 0,0.2082 0.0923,0.3761 0.20579,0.3761 h 2.18926 c 0.1133,0 0.20526,-0.1679 0.20526,-0.3761 0,-0.2071 -0.0919,-0.375 -0.20526,-0.375"
       style="fill:#282423;fill-opacity:1;fill-rule:nonzero;stroke:none;stroke-width:0.0999994"
       id="path168-0" /><path
       d="m 216.18522,204.769 h -1.86272 c -0.0966,0 -0.17493,0.168 -0.17493,0.376 0,0.20699 0.0782,0.375 0.17493,0.375 h 1.86272 c 0.0965,0 0.17467,-0.16801 0.17467,-0.375 0,-0.208 -0.0784,-0.376 -0.17467,-0.376 m 3.72542,0 h -1.86271 c -0.0965,0 -0.17511,0.168 -0.17511,0.376 0,0.20699 0.0786,0.375 0.17511,0.375 h 1.86271 c 0.0964,0 0.17458,-0.16801 0.17458,-0.375 0,-0.208 -0.0781,-0.376 -0.17458,-0.376 m 3.72534,0 h -1.86267 c -0.097,0 -0.17513,0.168 -0.17513,0.376 0,0.20699 0.0784,0.375 0.17513,0.375 h 1.86267 c 0.0964,0 0.17465,-0.16801 0.17465,-0.375 0,-0.208 -0.0782,-0.376 -0.17465,-0.376 m 3.7254,0 h -1.86268 c -0.097,0 -0.17512,0.168 -0.17512,0.376 0,0.20699 0.0782,0.375 0.17512,0.375 h 1.86268 c 0.0965,0 0.1746,-0.16801 0.1746,-0.375 0,-0.208 -0.0784,-0.376 -0.1746,-0.376 m -16.12894,-1.36401 c -0.0968,0 -0.17499,0.168 -0.17499,0.376 v 1.36401 c 0,0.098 0.0186,0.19499 0.0512,0.264 0.033,0.071 0.078,0.111 0.12389,0.111 h 1.22727 c 0.0967,0 0.17482,-0.16801 0.17482,-0.375 0,-0.208 -0.0784,-0.376 -0.17482,-0.376 h -1.05247 v -0.98801 c 0,-0.208 -0.0783,-0.376 -0.1748,-0.376 M 228.6691,199.577 c -0.0965,0 -0.17464,0.168 -0.17464,0.375 v 4 c 0,0.20899 0.0785,0.37699 0.17464,0.37699 0.0968,0 0.1751,-0.168 0.1751,-0.37699 v -4 c 0,-0.207 -0.0783,-0.375 -0.1751,-0.375 m -17.43658,-4.17201 c -0.0967,0 -0.17498,0.168 -0.17498,0.376 v 4 c 0,0.207 0.0783,0.375 0.17498,0.375 0.0966,0 0.17479,-0.168 0.17479,-0.375 v -4 c 0,-0.208 -0.0782,-0.376 -0.17479,-0.376 M 228.6691,191.577 c -0.0965,0 -0.17464,0.168 -0.17464,0.375 v 4 c 0,0.20899 0.0785,0.37699 0.17464,0.37699 0.0968,0 0.1751,-0.168 0.1751,-0.37699 v -4 c 0,-0.207 -0.0783,-0.375 -0.1751,-0.375 m -17.43658,-4.17201 c -0.0967,0 -0.17498,0.168 -0.17498,0.376 v 4 c 0,0.207 0.0783,0.375 0.17498,0.375 0.0966,0 0.17479,-0.168 0.17479,-0.375 v -4 c 0,-0.208 -0.0782,-0.376 -0.17479,-0.376 M 228.6691,183.577 c -0.0965,0 -0.17464,0.168 -0.17464,0.375 v 4 c 0,0.20899 0.0785,0.37699 0.17464,0.37699 0.0968,0 0.1751,-0.168 0.1751,-0.37699 v -4 c 0,-0.207 -0.0783,-0.375 -0.1751,-0.375 m -17.34928,-4.12101 h -0.17462 c -0.0527,0.064 -0.0876,0.185 -0.0876,0.325 v 4 c 0,0.207 0.0782,0.375 0.175,0.375 0.0966,0 0.17478,-0.168 0.17478,-0.375 v -4 c 0,-0.14 -0.0348,-0.26099 -0.0874,-0.325 m 17.34926,-3.87899 c -0.0965,0 -0.17465,0.168 -0.17465,0.375 v 4 c 0,0.20899 0.0782,0.37699 0.17465,0.37699 0.0969,0 0.1751,-0.168 0.1751,-0.37699 v -4 c 0,-0.207 -0.0783,-0.375 -0.1751,-0.375 m -17.43657,-4.17201 c -0.0969,0 -0.175,0.168 -0.175,0.376 v 4 c 0,0.207 0.0782,0.375 0.175,0.375 0.0966,0 0.17478,-0.168 0.17478,-0.375 v -4 c 0,-0.208 -0.0783,-0.376 -0.17478,-0.376 m 17.43658,-3.82799 c -0.0965,0 -0.17465,0.168 -0.17465,0.375 v 4 c 0,0.20899 0.0781,0.37699 0.17465,0.37699 0.0969,0 0.17509,-0.168 0.17509,-0.37699 v -4 c 0,-0.207 -0.0783,-0.375 -0.17509,-0.375 m -17.43657,-4.17201 c -0.0969,0 -0.175,0.168 -0.175,0.376 v 4 c 0,0.207 0.0782,0.375 0.175,0.375 0.0966,0 0.17478,-0.168 0.17478,-0.375 v -4 c 0,-0.208 -0.0784,-0.376 -0.17478,-0.376 m 17.43657,-3.828 c -0.0965,0 -0.17465,0.168 -0.17465,0.375 v 4 c 0,0.209 0.0781,0.377 0.17465,0.377 0.0969,0 0.17509,-0.168 0.17509,-0.377 v -4 c 0,-0.207 -0.0783,-0.375 -0.17509,-0.375 m -17.43657,-4.172 c -0.0969,0 -0.175,0.168 -0.175,0.376 v 4 c 0,0.207 0.0782,0.375 0.175,0.375 0.0966,0 0.17478,-0.168 0.17478,-0.375 v -4 c 0,-0.208 -0.0784,-0.376 -0.17478,-0.376 m 17.43657,-3.828 c -0.0965,0 -0.17465,0.168 -0.17465,0.377 v 4 c 0,0.207 0.0781,0.375 0.17465,0.375 0.0969,0 0.17509,-0.168 0.17509,-0.375 v -4 c 0,-0.209 -0.0783,-0.377 -0.17509,-0.377 m -17.43657,-4.172 c -0.0969,0 -0.175,0.16901 -0.175,0.376 v 4 c 0,0.207 0.0782,0.375 0.175,0.375 0.0966,0 0.17478,-0.168 0.17478,-0.375 v -4 c 0,-0.20699 -0.0784,-0.376 -0.17478,-0.376 m 17.43657,-3.828 c -0.0965,0 -0.17465,0.168 -0.17465,0.375 v 4 c 0,0.209 0.0781,0.377 0.17465,0.377 0.0969,0 0.17509,-0.168 0.17509,-0.377 v -4 c 0,-0.207 -0.0783,-0.375 -0.17509,-0.375 m -17.43657,-4.172 c -0.0969,0 -0.175,0.168 -0.175,0.376 v 4 c 0,0.207 0.0782,0.375 0.175,0.375 0.0966,0 0.17478,-0.168 0.17478,-0.375 v -4 c 0,-0.208 -0.0784,-0.376 -0.17478,-0.376 m 17.43657,-3.828 c -0.0965,0 -0.17465,0.168 -0.17465,0.375 v 4 c 0,0.209 0.0781,0.377 0.17465,0.377 0.0969,0 0.17509,-0.168 0.17509,-0.377 v -4 c 0,-0.207 -0.0783,-0.375 -0.17509,-0.375 m -17.43657,-4.172 c -0.0969,0 -0.175,0.168 -0.175,0.376 v 4 c 0,0.207 0.0782,0.375 0.175,0.375 0.0966,0 0.17478,-0.168 0.17478,-0.375 v -4 c 0,-0.208 -0.0784,-0.376 -0.17478,-0.376 m 17.43657,-3.828 c -0.0965,0 -0.17465,0.168 -0.17465,0.377 v 3.998 c 0,0.209 0.0781,0.377 0.17465,0.377 0.0969,0 0.17509,-0.168 0.17509,-0.377 v -3.998 c 0,-0.209 -0.0783,-0.377 -0.17509,-0.377 m -17.43657,-4.172 c -0.0969,0 -0.175,0.168 -0.175,0.376 v 4 c 0,0.207 0.0782,0.375 0.175,0.375 0.0966,0 0.17478,-0.168 0.17478,-0.375 v -4 c 0,-0.208 -0.0784,-0.376 -0.17478,-0.376 m 17.43657,-3.828 c -0.0965,0 -0.17465,0.168 -0.17465,0.377 v 4 c 0,0.207 0.0781,0.375 0.17465,0.375 0.0969,0 0.17509,-0.168 0.17509,-0.375 v -4 c 0,-0.209 -0.0783,-0.377 -0.17509,-0.377 m -17.43657,-4.172 c -0.0969,0 -0.175,0.168 -0.175,0.376 v 4 c 0,0.207 0.0782,0.375 0.175,0.375 0.0966,0 0.17478,-0.168 0.17478,-0.375 v -4 c 0,-0.208 -0.0784,-0.376 -0.17478,-0.376 m 17.43657,-3.827 c -0.0965,0 -0.17465,0.168 -0.17465,0.375 v 4.001 c 0,0.207 0.0781,0.375 0.17465,0.375 0.0969,0 0.17509,-0.168 0.17509,-0.375 v -4.001 c 0,-0.207 -0.0783,-0.375 -0.17509,-0.375 m -17.43657,-4.173 c -0.0969,0 -0.175,0.168 -0.175,0.376 v 3.999 c 0,0.208 0.0782,0.376 0.175,0.376 0.0966,0 0.17478,-0.168 0.17478,-0.376 v -3.999 c 0,-0.208 -0.0784,-0.376 -0.17478,-0.376 m 17.43657,-3.827 c -0.0965,0 -0.17465,0.168 -0.17465,0.375 v 4 c 0,0.207 0.0781,0.376 0.17465,0.376 0.0969,0 0.17509,-0.169 0.17509,-0.376 v -4 c 0,-0.207 -0.0783,-0.375 -0.17509,-0.375 m -17.43657,-4.1728 c -0.0969,0 -0.175,0.16791 -0.175,0.3758 v 4 c 0,0.207 0.0782,0.375 0.175,0.375 0.0966,0 0.17478,-0.168 0.17478,-0.375 v -4 c 0,-0.20789 -0.0784,-0.3758 -0.17478,-0.3758 m 17.43657,-3.8274 c -0.0965,0 -0.17465,0.168 -0.17465,0.375 v 4 c 0,0.20711 0.0781,0.3762 0.17465,0.3762 0.0969,0 0.17509,-0.16909 0.17509,-0.3762 v -4 c 0,-0.207 -0.0783,-0.375 -0.17509,-0.375 m -17.43655,-4.1726 c -0.0968,0 -0.175,0.16791 -0.175,0.3758 v 4 c 0,0.207 0.0782,0.375 0.175,0.375 0.0966,0 0.17478,-0.168 0.17478,-0.375 v -4 c 0,-0.20789 -0.0784,-0.3758 -0.17478,-0.3758 m 17.43657,-3.8274 c -0.0965,0 -0.17465,0.168 -0.17465,0.375 v 4 c 0,0.20821 0.0782,0.3762 0.17465,0.3762 0.0968,0 0.17508,-0.168 0.17508,-0.3762 v -4 c 0,-0.207 -0.0782,-0.375 -0.17508,-0.375 m -17.43657,-4.1726 c -0.0968,0 -0.175,0.16791 -0.175,0.3758 v 4 c 0,0.207 0.0782,0.375 0.175,0.375 0.0966,0 0.17478,-0.168 0.17478,-0.375 v -4 c 0,-0.20789 -0.0784,-0.3758 -0.17478,-0.3758 m 17.43657,-3.8274 c -0.0965,0 -0.17465,0.168 -0.17465,0.375 v 4 c 0,0.20821 0.0782,0.3762 0.17465,0.3762 0.0968,0 0.17508,-0.168 0.17508,-0.3762 v -4 c 0,-0.207 -0.0782,-0.375 -0.17508,-0.375 m -17.43657,-4.1726 c -0.0968,0 -0.175,0.16791 -0.175,0.3758 v 4 c 0,0.207 0.0782,0.375 0.175,0.375 0.0966,0 0.17478,-0.168 0.17478,-0.375 v -4 c 0,-0.20789 -0.0784,-0.3758 -0.17478,-0.3758 m 17.43657,-3.8274 c -0.0965,0 -0.17465,0.168 -0.17465,0.375 v 4 c 0,0.20821 0.0782,0.3762 0.17465,0.3762 0.0968,0 0.17508,-0.168 0.17508,-0.3762 v -4 c 0,-0.207 -0.0782,-0.375 -0.17508,-0.375 m -17.43657,-4.1726 c -0.0968,0 -0.175,0.16791 -0.175,0.3758 v 4 c 0,0.207 0.0782,0.375 0.175,0.375 0.0966,0 0.17478,-0.168 0.17478,-0.375 v -4 c 0,-0.20789 -0.0784,-0.3758 -0.17478,-0.3758 m 17.43657,-3.8274 c -0.0965,0 -0.17465,0.168 -0.17465,0.375 v 4 c 0,0.20821 0.0782,0.3762 0.17465,0.3762 0.0968,0 0.17508,-0.168 0.17508,-0.3762 v -4 c 0,-0.207 -0.0782,-0.375 -0.17508,-0.375 m -17.43657,-4.1726 c -0.0968,0 -0.175,0.16791 -0.175,0.3758 v 4 c 0,0.207 0.0782,0.375 0.175,0.375 0.0966,0 0.17478,-0.168 0.17478,-0.375 v -4 c 0,-0.20789 -0.0784,-0.3758 -0.17478,-0.3758 m 17.43657,-3.82739 c -0.0965,0 -0.17465,0.168 -0.17465,0.375 v 3.99999 c 0,0.2082 0.0782,0.3762 0.17465,0.3762 0.0968,0 0.17508,-0.168 0.17508,-0.3762 V 55.9528 c 0,-0.207 -0.0782,-0.375 -0.17508,-0.375 M 211.32,51.4552 h -0.17465 c -0.0527,0.0648 -0.0876,0.1859 -0.0876,0.3258 v 4 c 0,0.207 0.0782,0.375 0.175,0.375 0.0966,0 0.17479,-0.168 0.17479,-0.375 v -4 c 0,-0.1399 -0.035,-0.261 -0.0874,-0.3258 m 17.52433,-0.0633 -0.0126,0.0633 h -0.33716 v 0.4976 c 0,0.2082 0.0782,0.3762 0.17465,0.3762 0.0969,0 0.17508,-0.168 0.17508,-0.3762 v -0.5609 m -0.17508,-3.8141 c -0.0965,0 -0.17465,0.168 -0.17465,0.375 v 2.5024 h 0.028 l 0.32183,-1.6461 v -0.8563 c 0,-0.207 -0.0782,-0.375 -0.17509,-0.375 m -17.43654,-4.1726 c -0.0969,0 -0.17499,0.1679 -0.17499,0.3758 v 4 c 0,0.207 0.078,0.375 0.17499,0.375 0.0966,0 0.17475,-0.168 0.17475,-0.375 v -4 c 0,-0.2079 -0.0782,-0.3758 -0.17475,-0.3758 m 17.43654,-3.8274 c -0.0965,0 -0.17462,0.168 -0.17462,0.375 v 4 c 0,0.2082 0.0784,0.3762 0.17462,0.3762 0.0969,0 0.17509,-0.168 0.17509,-0.3762 v -4 c 0,-0.207 -0.0782,-0.375 -0.17509,-0.375 m -17.43654,-4.1726 c -0.0969,0 -0.17499,0.1679 -0.17499,0.3758 v 4 c 0,0.207 0.078,0.375 0.17499,0.375 0.0966,0 0.17475,-0.168 0.17475,-0.375 v -4 c 0,-0.2079 -0.0782,-0.3758 -0.17475,-0.3758 m 17.43654,-3.8274 c -0.0965,0 -0.17462,0.168 -0.17462,0.375 v 4 c 0,0.2082 0.0784,0.3762 0.17462,0.3762 0.0969,0 0.17509,-0.168 0.17509,-0.3762 v -4 c 0,-0.207 -0.0782,-0.375 -0.17509,-0.375 m -17.43654,-4.1726 c -0.0969,0 -0.17499,0.1679 -0.17499,0.3758 v 4 c 0,0.207 0.078,0.375 0.17499,0.375 0.0966,0 0.17475,-0.168 0.17475,-0.375 v -4 c 0,-0.2079 -0.0782,-0.3758 -0.17475,-0.3758 m 17.43654,-3.8274 c -0.0965,0 -0.17462,0.168 -0.17462,0.375 v 4 c 0,0.2082 0.0784,0.3762 0.17462,0.3762 0.0969,0 0.17509,-0.168 0.17509,-0.3762 v -4 c 0,-0.207 -0.0782,-0.375 -0.17509,-0.375 m -17.43654,-4.1726 c -0.0969,0 -0.17499,0.1679 -0.17499,0.3758 v 4 c 0,0.207 0.078,0.375 0.17499,0.375 0.0966,0 0.17475,-0.168 0.17475,-0.375 v -4 c 0,-0.2079 -0.0782,-0.3758 -0.17475,-0.3758 m 17.43654,-3.8274 c -0.0965,0 -0.17462,0.168 -0.17462,0.375 v 4 c 0,0.2082 0.0784,0.3762 0.17462,0.3762 0.0969,0 0.17509,-0.168 0.17509,-0.3762 v -4 c 0,-0.207 -0.0782,-0.375 -0.17509,-0.375 m -15.5743,-2.5558 h -1.86268 c -0.0465,0 -0.0911,0.0398 -0.12393,0.1101 -0.0328,0.0699 -0.0515,0.1668 -0.0515,0.2649 v 2.384 c 0,0.207 0.0781,0.375 0.17495,0.375 0.0967,0 0.17483,-0.168 0.17483,-0.375 v -2.0079 h 1.68792 c 0.0967,0 0.17475,-0.1679 0.17475,-0.3761 0,-0.2071 -0.0784,-0.375 -0.17475,-0.375 m 3.72526,0 h -1.86264 c -0.0965,0 -0.17465,0.1679 -0.17465,0.375 0,0.2082 0.0782,0.3761 0.17465,0.3761 h 1.86266 c 0.0965,0 0.17508,-0.1679 0.17508,-0.3761 0,-0.2071 -0.0785,-0.375 -0.17508,-0.375 m 3.72544,0 h -1.86278 c -0.0965,0 -0.17505,0.1679 -0.17505,0.375 0,0.2082 0.0784,0.3761 0.17505,0.3761 h 1.86276 c 0.0964,0 0.17456,-0.1679 0.17456,-0.3761 0,-0.2071 -0.0782,-0.375 -0.17456,-0.375 m 3.72532,0 h -1.86266 c -0.0965,0 -0.17511,0.1679 -0.17511,0.375 0,0.2082 0.0786,0.3761 0.17511,0.3761 h 1.86266 c 0.0965,0 0.17464,-0.1679 0.17464,-0.3761 0,-0.2071 -0.0784,-0.375 -0.17464,-0.375 m 3.7254,0 h -1.86266 c -0.0965,0 -0.1751,0.1679 -0.1751,0.375 0,0.2082 0.0784,0.3761 0.1751,0.3761 h 1.86266 c 0.0965,0 0.17465,-0.1679 0.17465,-0.3761 0,-0.2071 -0.0782,-0.375 -0.17465,-0.375"
       style="fill:#282423;fill-opacity:1;fill-rule:nonzero;stroke:none;stroke-width:0.0999991"
       id="path168-0-2" /></g></svg>
