<?xml version="1.0" encoding="UTF-8" standalone="no"?>
<svg
   xmlns:dc="http://purl.org/dc/elements/1.1/"
   xmlns:cc="http://creativecommons.org/ns#"
   xmlns:rdf="http://www.w3.org/1999/02/22-rdf-syntax-ns#"
   xmlns:svg="http://www.w3.org/2000/svg"
   xmlns="http://www.w3.org/2000/svg"
   xmlns:sodipodi="http://sodipodi.sourceforge.net/DTD/sodipodi-0.dtd"
   xmlns:inkscape="http://www.inkscape.org/namespaces/inkscape"
   version="1.1"
   id="svg2"
   xml:space="preserve"
   width="688.88"
   height="282.93332"
   viewBox="0 0 688.88 282.93332"
   sodipodi:docname="Cam_Frame_FIFO.svg"
   inkscape:version="1.0.1 (3bc2e813f5, 2020-09-07)"><metadata
     id="metadata8"><rdf:RDF><cc:Work
         rdf:about=""><dc:format>image/svg+xml</dc:format><dc:type
           rdf:resource="http://purl.org/dc/dcmitype/StillImage" /><dc:title></dc:title></cc:Work></rdf:RDF></metadata><defs
     id="defs6" /><sodipodi:namedview
     pagecolor="#ffffff"
     bordercolor="#666666"
     borderopacity="1"
     objecttolerance="10"
     gridtolerance="10"
     guidetolerance="10"
     inkscape:pageopacity="0"
     inkscape:pageshadow="2"
     inkscape:window-width="788"
     inkscape:window-height="480"
     id="namedview4"
     showgrid="false"
     inkscape:zoom="1.5967948"
     inkscape:cx="344.44"
     inkscape:cy="141.46666"
     inkscape:window-x="0"
     inkscape:window-y="0"
     inkscape:window-maximized="0"
     inkscape:current-layer="g10" /><g
     id="g10"
     inkscape:groupmode="layer"
     inkscape:label="ink_ext_XXXXXX"
     transform="matrix(1.3333333,0,0,-1.3333333,0,282.93333)"><g
       id="g12"
       transform="scale(0.1)"><path
         d="M 51.5781,1784.55 H 941.473 v -231.7 H 51.5781 v 231.7 0"
         style="fill:#757980;fill-opacity:1;fill-rule:evenodd;stroke:none"
         id="path14" /><path
         d="m 941.473,1784.55 h 167.157 v -231.7 H 941.473 v 231.7 0"
         style="fill:#757980;fill-opacity:1;fill-rule:evenodd;stroke:none"
         id="path16" /><path
         d="M 941.473,2019.55 V 158.16"
         style="fill:none;stroke:#0e0f0e;stroke-width:9.30932;stroke-linecap:round;stroke-linejoin:round;stroke-miterlimit:10;stroke-dasharray:none;stroke-opacity:1"
         id="path18" /><path
         d="M 51.5781,1784.55 H 1108.63"
         style="fill:none;stroke:#0e0f0e;stroke-width:9.30932;stroke-linecap:round;stroke-linejoin:round;stroke-miterlimit:10;stroke-dasharray:none;stroke-opacity:1"
         id="path20" /><path
         d="M 51.5781,1552.85 H 1108.63"
         style="fill:none;stroke:#0e0f0e;stroke-width:9.30932;stroke-linecap:round;stroke-linejoin:round;stroke-miterlimit:10;stroke-dasharray:none;stroke-opacity:1"
         id="path22" /><path
         d="M 51.5781,1321.15 H 1108.63"
         style="fill:none;stroke:#0e0f0e;stroke-width:9.30932;stroke-linecap:round;stroke-linejoin:round;stroke-miterlimit:10;stroke-dasharray:none;stroke-opacity:1"
         id="path24" /><path
         d="M 51.5781,1089.46 H 1108.63"
         style="fill:none;stroke:#0e0f0e;stroke-width:9.30932;stroke-linecap:round;stroke-linejoin:round;stroke-miterlimit:10;stroke-dasharray:none;stroke-opacity:1"
         id="path26" /><path
         d="M 51.5781,857.762 H 1108.63"
         style="fill:none;stroke:#0e0f0e;stroke-width:9.30932;stroke-linecap:round;stroke-linejoin:round;stroke-miterlimit:10;stroke-dasharray:none;stroke-opacity:1"
         id="path28" /><path
         d="M 51.5781,626.059 H 1108.63"
         style="fill:none;stroke:#0e0f0e;stroke-width:9.30932;stroke-linecap:round;stroke-linejoin:round;stroke-miterlimit:10;stroke-dasharray:none;stroke-opacity:1"
         id="path30" /><path
         d="M 51.5781,394.359 H 1108.63"
         style="fill:none;stroke:#0e0f0e;stroke-width:9.30932;stroke-linecap:round;stroke-linejoin:round;stroke-miterlimit:10;stroke-dasharray:none;stroke-opacity:1"
         id="path32" /><path
         d="M 51.5781,2020.15 V 158.77"
         style="fill:none;stroke:#0e0f0e;stroke-width:9.30932;stroke-linecap:round;stroke-linejoin:round;stroke-miterlimit:10;stroke-dasharray:none;stroke-opacity:1"
         id="path34" /><path
         d="M 1108.63,2019.55 V 158.16"
         style="fill:none;stroke:#0e0f0e;stroke-width:9.30932;stroke-linecap:round;stroke-linejoin:round;stroke-miterlimit:10;stroke-dasharray:none;stroke-opacity:1"
         id="path36" /><path
         d="M 51.5781,2016.25 H 1108.63"
         style="fill:none;stroke:#0e0f0e;stroke-width:9.30932;stroke-linecap:round;stroke-linejoin:round;stroke-miterlimit:10;stroke-dasharray:none;stroke-opacity:1"
         id="path38" /><path
         d="M 51.5781,162.672 H 1108.63"
         style="fill:none;stroke:#0e0f0e;stroke-width:9.30932;stroke-linecap:round;stroke-linejoin:round;stroke-miterlimit:10;stroke-dasharray:none;stroke-opacity:1"
         id="path40" /><g
         id="g42"
         transform="scale(10)"><text
           transform="matrix(0.791199,0,0,-1,19.148,184.193)"
           style="font-variant:normal;font-weight:normal;font-size:12px;font-family:Calibri;-inkscape-font-specification:Calibri;writing-mode:lr-tb;fill:#0e0f0e;fill-opacity:1;fill-rule:nonzero;stroke:none"
           id="text48"><tspan
             x="0 5.2259498 9.4086847 15.156685 24.550556 30.571877 37.68924 42.916672 48.664673 51.274441 54.400139 65.036194 72.153069 77.359268 83.627937 102.83034"
             y="0"
             sodipodi:role="line"
             id="tspan44">Frame_valid_cnt0</tspan><tspan
             x="-9.6219702 -4.3960204 -0.2127936 5.5352063 14.929571 20.951385 28.061344 32.755074 36.414467 42.162468 46.346188 51.243816 57.090855 62.838856 69.108025 75.376198 78.864769 85.975227"
             y="46.332001"
             sodipodi:role="line"
             id="tspan46">Frame_start_addr_0</tspan></text><text
           transform="matrix(0.791197,0,0,-1,100.508,137.819)"
           style="font-variant:normal;font-weight:normal;font-size:14.4845px;font-family:Calibri;-inkscape-font-specification:Calibri;writing-mode:lr-tb;fill:#0e0f0e;fill-opacity:1;fill-rule:nonzero;stroke:none"
           id="text52"><tspan
             x="0"
             y="0"
             id="tspan50">-</tspan></text><text
           transform="matrix(0.791199,0,0,-1,12.7035,114.701)"
           style="font-variant:normal;font-weight:normal;font-size:12px;font-family:Calibri;-inkscape-font-specification:Calibri;writing-mode:lr-tb;fill:#0e0f0e;fill-opacity:1;fill-rule:nonzero;stroke:none"
           id="text58"><tspan
             x="0 5.2259498 9.4091768 15.157176 24.55154"
             y="0"
             sodipodi:role="line"
             id="tspan54">Frame</tspan><tspan
             x="31.6243 37.470352 42.164082 45.823479 51.571476 55.755196 60.652824 66.499863 72.247864 78.517029 84.78521 87.00988 94.120331"
             y="0.0093750004"
             sodipodi:role="line"
             id="tspan56">_start_addr_1</tspan></text><text
           transform="matrix(0.791197,0,0,-1,100.508,114.65)"
           style="font-variant:normal;font-weight:normal;font-size:14.4845px;font-family:Calibri;-inkscape-font-specification:Calibri;writing-mode:lr-tb;fill:#0e0f0e;fill-opacity:1;fill-rule:nonzero;stroke:none"
           id="text62"><tspan
             x="0"
             y="0"
             id="tspan60">-</tspan></text><text
           transform="matrix(0.791199,0,0,-1,14.5453,90.9859)"
           style="font-variant:normal;font-weight:normal;font-size:12px;font-family:Calibri;-inkscape-font-specification:Calibri;writing-mode:lr-tb;fill:#0e0f0e;fill-opacity:1;fill-rule:nonzero;stroke:none"
           id="text68"><tspan
             x="0 5.2259498 9.4091768 15.157176 24.55154 30.323542 36.170582 40.863815 44.523212 50.271214 54.454929"
             y="0"
             sodipodi:role="line"
             id="tspan64">Frame_start</tspan><tspan
             x="58.751301 64.171776 69.919777 76.188942 82.457115 85.108353 91.792236"
             y="-0.53593802"
             sodipodi:role="line"
             id="tspan66">_addr_2</tspan></text><text
           transform="matrix(0.791197,0,0,-1,100.508,91.4801)"
           style="font-variant:normal;font-weight:normal;font-size:14.4845px;font-family:Calibri;-inkscape-font-specification:Calibri;writing-mode:lr-tb;fill:#0e0f0e;fill-opacity:1;fill-rule:nonzero;stroke:none"
           id="text72"><tspan
             x="0"
             y="0"
             id="tspan70">-</tspan></text><text
           transform="matrix(0.791199,0,0,-1,13.7035,68.3102)"
           style="font-variant:normal;font-weight:normal;font-size:12px;font-family:Calibri;-inkscape-font-specification:Calibri;writing-mode:lr-tb;fill:#0e0f0e;fill-opacity:1;fill-rule:nonzero;stroke:none"
           id="text78"><tspan
             x="0 5.2259498 9.4091768 15.157176 24.55154 30.597054 36.4436 41.137329 44.796726 50.544724 54.728443"
             y="0"
             sodipodi:role="line"
             id="tspan74">Frame_start</tspan><tspan
             x="58.7878 63.369953 69.11795 75.387115 81.655296 84.908371 92.01783"
             y="-0.0417969"
             sodipodi:role="line"
             id="tspan76">_addr_3</tspan></text><text
           transform="matrix(0.791197,0,0,-1,100.508,68.3102)"
           style="font-variant:normal;font-weight:normal;font-size:14.4845px;font-family:Calibri;-inkscape-font-specification:Calibri;writing-mode:lr-tb;fill:#0e0f0e;fill-opacity:1;fill-rule:nonzero;stroke:none"
           id="text82"><tspan
             x="0"
             y="0"
             id="tspan80">-</tspan></text><text
           transform="matrix(0.791199,0,0,-1,70.5219,45.1828)"
           style="font-variant:normal;font-weight:normal;font-size:12px;font-family:Calibri;-inkscape-font-specification:Calibri;writing-mode:lr-tb;fill:#0e0f0e;fill-opacity:1;fill-rule:nonzero;stroke:none"
           id="text94"><tspan
             x="0 3.6623571 7.3237271 10.986084 14.647454 18.309317"
             y="0"
             sodipodi:role="line"
             id="tspan84">------</tspan><tspan
             x="-82.057999 -76.832054 -72.648827 -66.900826 -57.506462"
             y="23.159"
             sodipodi:role="line"
             id="tspan86">Frame</tspan><tspan
             x="-51.097801 -43.980438 -39.287201 -35.627312 -29.879313 -25.695589"
             y="23.209782"
             sodipodi:role="line"
             id="tspan88">_start</tspan><tspan
             x="-21.4153 -14.305342 -8.5573416 -2.2886696 3.9800029"
             y="23.159"
             sodipodi:role="line"
             id="tspan90">_addr</tspan><tspan
             x="8.1709003 15.28777 21.034094"
             y="23.167984"
             sodipodi:role="line"
             id="tspan92">_15</tspan></text><text
           transform="matrix(0.791197,0,0,-1,100.508,21.973)"
           style="font-variant:normal;font-weight:normal;font-size:14.4845px;font-family:Calibri;-inkscape-font-specification:Calibri;writing-mode:lr-tb;fill:#0e0f0e;fill-opacity:1;fill-rule:nonzero;stroke:none"
           id="text98"><tspan
             x="0"
             y="0"
             id="tspan96">-</tspan></text></g><path
         d="m 1142.01,1234.27 h 191.65 v 26.9 l 49.83,-53.79 -49.83,-53.79 v 26.89 h -191.65 v 53.79 0 0"
         style="fill:#0e0f0e;fill-opacity:1;fill-rule:evenodd;stroke:none"
         id="path100" /><path
         d="m 1142.01,1234.27 h 191.65 v 26.9 l 49.83,-53.79 -49.83,-53.79 v 26.89 h -191.65 v 53.79 0 z"
         style="fill:none;stroke:#0e0f0e;stroke-width:7.51407;stroke-linecap:round;stroke-linejoin:round;stroke-miterlimit:10;stroke-dasharray:none;stroke-opacity:1"
         id="path102" /><g
         id="g104"
         transform="scale(10)"><text
           transform="matrix(0.926345,0,0,-1,116.634,86.1332)"
           style="font-variant:normal;font-weight:normal;font-size:10.0718px;font-family:Calibri;-inkscape-font-specification:Calibri;writing-mode:lr-tb;fill:#0e0f0e;fill-opacity:1;fill-rule:nonzero;stroke:none"
           id="text108"><tspan
             x="0 5.2617745 10.523128 13.799618"
             y="0"
             sodipodi:role="line"
             id="tspan106">push</tspan></text><text
           transform="matrix(0.917593,0,0,-1,112.392,101.394)"
           style="font-variant:normal;font-weight:normal;font-size:10px;font-family:Calibri;-inkscape-font-specification:Calibri;writing-mode:lr-tb;fill:#0e0f0e;fill-opacity:1;fill-rule:nonzero;stroke:none"
           id="text112"><tspan
             x="0 4.3545451 7.841073 12.631073 20.460236"
             y="0"
             sodipodi:role="line"
             id="tspan110">Frame</tspan></text></g><path
         d="m 1405.7,1784.24 h 897.69 V 1552.55 H 1405.7 v 231.69 0"
         style="fill:#757980;fill-opacity:1;fill-rule:evenodd;stroke:none"
         id="path114" /><path
         d="m 2303.39,1784.24 h 158.31 v -231.69 h -158.31 v 231.69 0"
         style="fill:#757980;fill-opacity:1;fill-rule:evenodd;stroke:none"
         id="path116" /><path
         d="M 2303.39,2019.66 V 158.281"
         style="fill:none;stroke:#0e0f0e;stroke-width:9.30932;stroke-linecap:round;stroke-linejoin:round;stroke-miterlimit:10;stroke-dasharray:none;stroke-opacity:1"
         id="path118" /><path
         d="m 1405.7,1784.24 h 1056"
         style="fill:none;stroke:#0e0f0e;stroke-width:9.30932;stroke-linecap:round;stroke-linejoin:round;stroke-miterlimit:10;stroke-dasharray:none;stroke-opacity:1"
         id="path120" /><path
         d="m 1405.7,1552.55 h 1056"
         style="fill:none;stroke:#0e0f0e;stroke-width:9.30932;stroke-linecap:round;stroke-linejoin:round;stroke-miterlimit:10;stroke-dasharray:none;stroke-opacity:1"
         id="path122" /><path
         d="m 1405.7,1320.85 h 1056"
         style="fill:none;stroke:#0e0f0e;stroke-width:9.30932;stroke-linecap:round;stroke-linejoin:round;stroke-miterlimit:10;stroke-dasharray:none;stroke-opacity:1"
         id="path124" /><path
         d="m 1405.7,1089.16 h 1056"
         style="fill:none;stroke:#0e0f0e;stroke-width:9.30932;stroke-linecap:round;stroke-linejoin:round;stroke-miterlimit:10;stroke-dasharray:none;stroke-opacity:1"
         id="path126" /><path
         d="m 1405.7,857.461 h 1056"
         style="fill:none;stroke:#0e0f0e;stroke-width:9.30932;stroke-linecap:round;stroke-linejoin:round;stroke-miterlimit:10;stroke-dasharray:none;stroke-opacity:1"
         id="path128" /><path
         d="m 1405.7,625.762 h 1056"
         style="fill:none;stroke:#0e0f0e;stroke-width:9.30932;stroke-linecap:round;stroke-linejoin:round;stroke-miterlimit:10;stroke-dasharray:none;stroke-opacity:1"
         id="path130" /><path
         d="m 1405.7,394.07 h 1056"
         style="fill:none;stroke:#0e0f0e;stroke-width:9.30932;stroke-linecap:round;stroke-linejoin:round;stroke-miterlimit:10;stroke-dasharray:none;stroke-opacity:1"
         id="path132" /><path
         d="M 1405.7,2020.15 V 158.77"
         style="fill:none;stroke:#0e0f0e;stroke-width:9.30932;stroke-linecap:round;stroke-linejoin:round;stroke-miterlimit:10;stroke-dasharray:none;stroke-opacity:1"
         id="path134" /><path
         d="M 2461.7,2019.15 V 157.77"
         style="fill:none;stroke:#0e0f0e;stroke-width:9.30932;stroke-linecap:round;stroke-linejoin:round;stroke-miterlimit:10;stroke-dasharray:none;stroke-opacity:1"
         id="path136" /><path
         d="m 1405.7,2015.94 h 1056"
         style="fill:none;stroke:#0e0f0e;stroke-width:9.30932;stroke-linecap:round;stroke-linejoin:round;stroke-miterlimit:10;stroke-dasharray:none;stroke-opacity:1"
         id="path138" /><path
         d="m 1405.7,162.371 h 1056"
         style="fill:none;stroke:#0e0f0e;stroke-width:9.30932;stroke-linecap:round;stroke-linejoin:round;stroke-miterlimit:10;stroke-dasharray:none;stroke-opacity:1"
         id="path140" /><g
         id="g142"
         transform="scale(10)"><text
           transform="matrix(0.791199,0,0,-1,157.897,184.111)"
           style="font-variant:normal;font-weight:normal;font-size:12px;font-family:Calibri;-inkscape-font-specification:Calibri;writing-mode:lr-tb;fill:#0e0f0e;fill-opacity:1;fill-rule:nonzero;stroke:none"
           id="text162"><tspan
             x="0 5.2264452 9.4086905 15.156691 24.551048"
             y="0"
             sodipodi:role="line"
             id="tspan144">Frame</tspan><tspan
             x="29.867599"
             y="-0.051171899"
             id="tspan146">_</tspan><tspan
             x="38.287369 43.516277 49.264275 51.873051 54.999729"
             y="0"
             sodipodi:role="line"
             id="tspan148">valid</tspan><tspan
             x="61.803871 68.920746 74.12693 80.395615 100.86198"
             y="-0.051171899"
             sodipodi:role="line"
             id="tspan150">_cnt1</tspan><tspan
             x="-10.79363 -5.5671849 -1.3839523 4.364048 13.757418 18.982372 26.091829 30.784569 34.444962 40.192963 44.376194 48.009926 55.120865 60.868862 67.138039 73.405731 75.62989 82.740845"
             y="46.280827"
             sodipodi:role="line"
             id="tspan152">Frame_start_addr_0</tspan><tspan
             x="-10.806466 -5.5800214 -1.396295 4.3505168 13.744874"
             y="69.501129"
             sodipodi:role="line"
             id="tspan154">Frame</tspan><tspan
             x="20.246534 27.355989 32.048729 35.709122 41.457123 45.640354"
             y="69.449959"
             sodipodi:role="line"
             id="tspan156">_start</tspan><tspan
             x="50.065834 57.176769 62.92477 69.193451 75.461143"
             y="69.501129"
             sodipodi:role="line"
             id="tspan158">_addr</tspan><tspan
             x="78.158531 82.741684"
             y="69.449959"
             sodipodi:role="line"
             id="tspan160">_1</tspan></text><text
           transform="matrix(0.791197,0,0,-1,237.942,114.661)"
           style="font-variant:normal;font-weight:normal;font-size:14.4845px;font-family:Calibri;-inkscape-font-specification:Calibri;writing-mode:lr-tb;fill:#0e0f0e;fill-opacity:1;fill-rule:nonzero;stroke:none"
           id="text166"><tspan
             x="0"
             y="0"
             id="tspan164">-</tspan></text><text
           transform="matrix(0.791199,0,0,-1,149.347,91.4922)"
           style="font-variant:normal;font-weight:normal;font-size:12px;font-family:Calibri;-inkscape-font-specification:Calibri;writing-mode:lr-tb;fill:#0e0f0e;fill-opacity:1;fill-rule:nonzero;stroke:none"
           id="text170"><tspan
             x="0 5.2264452 9.4101715 15.156983 24.55134 28.949821 36.060757 40.754978 44.413891 50.161888 54.345123 59.24276 66.353699 72.101692 78.370377 84.638069 88.127617 93.547607"
             y="0"
             sodipodi:role="line"
             id="tspan168">Frame_start_addr_2</tspan></text><text
           transform="matrix(0.791197,0,0,-1,237.942,91.4922)"
           style="font-variant:normal;font-weight:normal;font-size:14.4845px;font-family:Calibri;-inkscape-font-specification:Calibri;writing-mode:lr-tb;fill:#0e0f0e;fill-opacity:1;fill-rule:nonzero;stroke:none"
           id="text174"><tspan
             x="0"
             y="0"
             id="tspan172">-</tspan></text><text
           transform="matrix(0.791199,0,0,-1,147.179,68.2691)"
           style="font-variant:normal;font-weight:normal;font-size:12px;font-family:Calibri;-inkscape-font-specification:Calibri;writing-mode:lr-tb;fill:#0e0f0e;fill-opacity:1;fill-rule:nonzero;stroke:none"
           id="text182"><tspan
             x="0 5.2249646 9.4086905 15.156691 24.551048"
             y="0"
             sodipodi:role="line"
             id="tspan176">Frame</tspan><tspan
             x="30.2379 37.348343 42.041576 45.700489 51.44849 55.631721 60.056873 67.16732 72.915321 79.184494 85.452187"
             y="-0.00078125001"
             sodipodi:role="line"
             id="tspan178">_start_addr</tspan><tspan
             x="89.604401 95.449966"
             y="-0.052734349"
             sodipodi:role="line"
             id="tspan180">_3</tspan></text><text
           transform="matrix(0.791197,0,0,-1,237.942,68.3219)"
           style="font-variant:normal;font-weight:normal;font-size:14.4845px;font-family:Calibri;-inkscape-font-specification:Calibri;writing-mode:lr-tb;fill:#0e0f0e;fill-opacity:1;fill-rule:nonzero;stroke:none"
           id="text186"><tspan
             x="0"
             y="0"
             id="tspan184">-</tspan></text><text
           transform="matrix(0.791199,0,0,-1,206.713,45.1531)"
           style="font-variant:normal;font-weight:normal;font-size:12px;font-family:Calibri;-inkscape-font-specification:Calibri;writing-mode:lr-tb;fill:#0e0f0e;fill-opacity:1;fill-rule:nonzero;stroke:none"
           id="text192"><tspan
             x="0 3.6618788 7.3232641 10.986131 14.647515 18.308901"
             y="0"
             sodipodi:role="line"
             id="tspan188">------</tspan><tspan
             x="-80.781303 -75.554855 -71.372612 -65.624611 -56.230251 -49.743862 -42.625519 -37.932281 -34.272385 -28.524385 -24.340658 -19.443024 -12.333567 -6.585567 -0.31688693 5.9508057 8.1705294 15.287407 21.033245"
             y="23.1691"
             sodipodi:role="line"
             id="tspan190">Frame_start_addr_15</tspan></text><text
           transform="matrix(0.791197,0,0,-1,237.942,21.984)"
           style="font-variant:normal;font-weight:normal;font-size:14.4845px;font-family:Calibri;-inkscape-font-specification:Calibri;writing-mode:lr-tb;fill:#0e0f0e;fill-opacity:1;fill-rule:nonzero;stroke:none"
           id="text196"><tspan
             x="0"
             y="0"
             id="tspan194">-</tspan></text></g><path
         d="m 2504.12,1236.08 h 186.64 v 25.18 l 48.51,-50.36 -48.51,-50.36 v 25.18 h -186.64 v 50.36 0 0"
         style="fill:#0e0f0e;fill-opacity:1;fill-rule:evenodd;stroke:none"
         id="path198" /><path
         d="m 2504.12,1236.08 h 186.64 v 25.18 l 48.51,-50.36 -48.51,-50.36 v 25.18 h -186.64 v 50.36 0 z"
         style="fill:none;stroke:#0e0f0e;stroke-width:7.51407;stroke-linecap:round;stroke-linejoin:round;stroke-miterlimit:10;stroke-dasharray:none;stroke-opacity:1"
         id="path200" /><g
         id="g202"
         transform="scale(10)"><text
           transform="matrix(0.963534,0,0,-1,252.78,88.6922)"
           style="font-variant:normal;font-weight:normal;font-size:9.42986px;font-family:Calibri;-inkscape-font-specification:Calibri;writing-mode:lr-tb;fill:#0e0f0e;fill-opacity:1;fill-rule:nonzero;stroke:none"
           id="text206"><tspan
             x="0 4.9257183 9.8522482 12.919985"
             y="0"
             sodipodi:role="line"
             id="tspan204">push</tspan></text><text
           transform="matrix(0.655447,0,0,-1,251.1,101.403)"
           style="font-variant:normal;font-weight:normal;font-size:12.4836px;font-family:Calibri;-inkscape-font-specification:Calibri;writing-mode:lr-tb;fill:#0e0f0e;fill-opacity:1;fill-rule:nonzero;stroke:none"
           id="text210"><tspan
             x="0 5.4376125 9.788765 15.768409 25.539879"
             y="0"
             sodipodi:role="line"
             id="tspan208">Frame</tspan></text><text
           transform="matrix(0.791199,0,0,-1,235.7,137.83)"
           style="font-variant:normal;font-weight:normal;font-size:12px;font-family:Calibri;-inkscape-font-specification:Calibri;writing-mode:lr-tb;fill:#0e0f0e;fill-opacity:1;fill-rule:nonzero;stroke:none"
           id="text214"><tspan
             x="0"
             y="0"
             id="tspan212">A</tspan></text></g><path
         d="m 2749.92,1792.65 h 881.26 v -231.69 h -881.26 v 231.69 0"
         style="fill:#757980;fill-opacity:1;fill-rule:evenodd;stroke:none"
         id="path216" /><path
         d="m 3631.19,1792.65 h 149.46 v -231.69 h -149.46 v 231.69 0"
         style="fill:#757980;fill-opacity:1;fill-rule:evenodd;stroke:none"
         id="path218" /><path
         d="M 3631.19,2028.07 V 166.68"
         style="fill:none;stroke:#0e0f0e;stroke-width:9.30932;stroke-linecap:round;stroke-linejoin:round;stroke-miterlimit:10;stroke-dasharray:none;stroke-opacity:1"
         id="path220" /><path
         d="M 2749.92,1792.65 H 3780.65"
         style="fill:none;stroke:#0e0f0e;stroke-width:9.30932;stroke-linecap:round;stroke-linejoin:round;stroke-miterlimit:10;stroke-dasharray:none;stroke-opacity:1"
         id="path222" /><path
         d="M 2749.92,1560.96 H 3780.65"
         style="fill:none;stroke:#0e0f0e;stroke-width:9.30932;stroke-linecap:round;stroke-linejoin:round;stroke-miterlimit:10;stroke-dasharray:none;stroke-opacity:1"
         id="path224" /><path
         d="M 2749.92,1329.26 H 3780.65"
         style="fill:none;stroke:#0e0f0e;stroke-width:9.30932;stroke-linecap:round;stroke-linejoin:round;stroke-miterlimit:10;stroke-dasharray:none;stroke-opacity:1"
         id="path226" /><path
         d="M 2749.92,1097.56 H 3780.65"
         style="fill:none;stroke:#0e0f0e;stroke-width:9.30932;stroke-linecap:round;stroke-linejoin:round;stroke-miterlimit:10;stroke-dasharray:none;stroke-opacity:1"
         id="path228" /><path
         d="M 2749.92,865.859 H 3780.65"
         style="fill:none;stroke:#0e0f0e;stroke-width:9.30932;stroke-linecap:round;stroke-linejoin:round;stroke-miterlimit:10;stroke-dasharray:none;stroke-opacity:1"
         id="path230" /><path
         d="M 2749.92,634.172 H 3780.65"
         style="fill:none;stroke:#0e0f0e;stroke-width:9.30932;stroke-linecap:round;stroke-linejoin:round;stroke-miterlimit:10;stroke-dasharray:none;stroke-opacity:1"
         id="path232" /><path
         d="M 2749.92,402.48 H 3780.65"
         style="fill:none;stroke:#0e0f0e;stroke-width:9.30932;stroke-linecap:round;stroke-linejoin:round;stroke-miterlimit:10;stroke-dasharray:none;stroke-opacity:1"
         id="path234" /><path
         d="M 2749.92,2028.07 V 166.68"
         style="fill:none;stroke:#0e0f0e;stroke-width:9.30932;stroke-linecap:round;stroke-linejoin:round;stroke-miterlimit:10;stroke-dasharray:none;stroke-opacity:1"
         id="path236" /><path
         d="M 3780.65,2023.34 V 161.949"
         style="fill:none;stroke:#0e0f0e;stroke-width:9.30932;stroke-linecap:round;stroke-linejoin:round;stroke-miterlimit:10;stroke-dasharray:none;stroke-opacity:1"
         id="path238" /><path
         d="M 2749.92,2024.35 H 3780.65"
         style="fill:none;stroke:#0e0f0e;stroke-width:9.30932;stroke-linecap:round;stroke-linejoin:round;stroke-miterlimit:10;stroke-dasharray:none;stroke-opacity:1"
         id="path240" /><path
         d="M 2749.92,170.781 H 3780.65"
         style="fill:none;stroke:#0e0f0e;stroke-width:9.30932;stroke-linecap:round;stroke-linejoin:round;stroke-miterlimit:10;stroke-dasharray:none;stroke-opacity:1"
         id="path242" /><g
         id="g244"
         transform="scale(10)"><text
           transform="matrix(0.791199,0,0,-1,293.729,185.085)"
           style="font-variant:normal;font-weight:normal;font-size:12px;font-family:Calibri;-inkscape-font-specification:Calibri;writing-mode:lr-tb;fill:#0e0f0e;fill-opacity:1;fill-rule:nonzero;stroke:none"
           id="text260"><tspan
             x="0 5.2264295 9.41014 15.15814 24.551525"
             y="0"
             sodipodi:role="line"
             id="tspan246">Frame</tspan><tspan
             x="31.065901 38.181297 43.410217 49.158218 51.767979 54.893669 63.001926"
             y="0.081640601"
             sodipodi:role="line"
             id="tspan248">_valid_</tspan><tspan
             x="68.540703 73.746391 80.015564"
             y="0"
             sodipodi:role="line"
             id="tspan250">cnt</tspan><tspan
             x="94.476898"
             y="0.081640601"
             id="tspan252">2</tspan><tspan
             x="-15.9011 -10.675165 -6.4924412 -0.74444133 8.650425 13.387605 20.497076 25.191298 28.850208 34.598209 38.781425 43.680542 50.791004 56.539001 62.808178 69.075867 71.77301 78.883965 93.5196"
             y="46.412842"
             sodipodi:role="line"
             id="tspan254">Frame_start_addr_0A</tspan><tspan
             x="-15.9011 -10.675165 -6.4924412 -0.74444133 8.650425 13.387605 20.497076 25.191298 28.850208 34.598209 38.781425 42.842712 49.953171 55.701172 61.970345 68.238037 71.77301 78.883965 94.783493"
             y="69.58194"
             sodipodi:role="line"
             id="tspan256">Frame_start_addr_1B</tspan><tspan
             x="-15.9011 -10.675165 -6.4924412 -0.74444133 8.650425 13.387605 20.498064 25.191299 28.851196 34.599197 38.782906 43.680542 50.791004 56.538322 62.807003 69.07618 70.936478 78.88427"
             y="92.751839"
             sodipodi:role="line"
             id="tspan258">Frame_start_addr_2</tspan></text><text
           transform="matrix(0.791197,0,0,-1,369.722,92.3328)"
           style="font-variant:normal;font-weight:normal;font-size:14.4845px;font-family:Calibri;-inkscape-font-specification:Calibri;writing-mode:lr-tb;fill:#0e0f0e;fill-opacity:1;fill-rule:nonzero;stroke:none"
           id="text264"><tspan
             x="0"
             y="0"
             id="tspan262">-</tspan></text><text
           transform="matrix(0.791199,0,0,-1,281.148,69.1629)"
           style="font-variant:normal;font-weight:normal;font-size:12px;font-family:Calibri;-inkscape-font-specification:Calibri;writing-mode:lr-tb;fill:#0e0f0e;fill-opacity:1;fill-rule:nonzero;stroke:none"
           id="text272"><tspan
             x="0 5.225935 9.408659 15.156658 24.551525 29.288704 36.399166 41.0924 44.752296 50.500298 54.684006"
             y="0"
             sodipodi:role="line"
             id="tspan266">Frame_start</tspan><tspan
             x="58.742401 65.853355 71.601357 77.870033 84.137726"
             y="-0.082031302"
             sodipodi:role="line"
             id="tspan268">_addr</tspan><tspan
             x="86.837601 93.947075"
             y="0"
             sodipodi:role="line"
             id="tspan270">_3</tspan></text><text
           transform="matrix(0.791197,0,0,-1,369.722,69.1629)"
           style="font-variant:normal;font-weight:normal;font-size:14.4845px;font-family:Calibri;-inkscape-font-specification:Calibri;writing-mode:lr-tb;fill:#0e0f0e;fill-opacity:1;fill-rule:nonzero;stroke:none"
           id="text276"><tspan
             x="0"
             y="0"
             id="tspan274">-</tspan></text><text
           transform="matrix(0.791199,0,0,-1,339.493,45.9941)"
           style="font-variant:normal;font-weight:normal;font-size:12px;font-family:Calibri;-inkscape-font-specification:Calibri;writing-mode:lr-tb;fill:#0e0f0e;fill-opacity:1;fill-rule:nonzero;stroke:none"
           id="text286"><tspan
             x="0 3.6613851 7.3232641 10.986131 14.647515 18.308901"
             y="0"
             sodipodi:role="line"
             id="tspan278">------</tspan><tspan
             x="-78.226799 -73.000374 -68.818138 -63.070141 -53.67577 -48.013371 -40.895012 -36.202271 -32.541878 -26.79505 -22.610352"
             y="23.167999"
             sodipodi:role="line"
             id="tspan280">Frame_start</tspan><tspan
             x="-19.8181 -12.708628 -6.960628 -0.69145417 5.5772257"
             y="23.078156"
             sodipodi:role="line"
             id="tspan282">_addr</tspan><tspan
             x="8.1715002 15.286897 21.034214"
             y="23.169172"
             sodipodi:role="line"
             id="tspan284">_15</tspan></text><text
           transform="matrix(0.791197,0,0,-1,369.722,22.825)"
           style="font-variant:normal;font-weight:normal;font-size:14.4845px;font-family:Calibri;-inkscape-font-specification:Calibri;writing-mode:lr-tb;fill:#0e0f0e;fill-opacity:1;fill-rule:nonzero;stroke:none"
           id="text290"><tspan
             x="0"
             y="0"
             id="tspan288">-</tspan></text></g><path
         d="m 3825.65,1230.45 h 164.62 v 25.18 l 42.8,-50.36 -42.8,-50.36 v 25.18 h -164.62 v 50.36 0 0"
         style="fill:#0e0f0e;fill-opacity:1;fill-rule:evenodd;stroke:none"
         id="path292" /><path
         d="m 3825.65,1230.45 h 164.62 v 25.18 l 42.8,-50.36 -42.8,-50.36 v 25.18 h -164.62 v 50.36 0 z"
         style="fill:none;stroke:#0e0f0e;stroke-width:7.51407;stroke-linecap:round;stroke-linejoin:round;stroke-miterlimit:10;stroke-dasharray:none;stroke-opacity:1"
         id="path294" /><g
         id="g296"
         transform="scale(10)"><text
           transform="matrix(0.849909,0,0,-1,384.654,88.1281)"
           style="font-variant:normal;font-weight:normal;font-size:9.42986px;font-family:Calibri;-inkscape-font-specification:Calibri;writing-mode:lr-tb;fill:#0e0f0e;fill-opacity:1;fill-rule:nonzero;stroke:none"
           id="text300"><tspan
             x="0 4.925168 9.8981228"
             y="0"
             sodipodi:role="line"
             id="tspan298">pop</tspan></text><text
           transform="matrix(0.578154,0,0,-1,383.172,100.84)"
           style="font-variant:normal;font-weight:normal;font-size:12.4836px;font-family:Calibri;-inkscape-font-specification:Calibri;writing-mode:lr-tb;fill:#0e0f0e;fill-opacity:1;fill-rule:nonzero;stroke:none"
           id="text304"><tspan
             x="0 5.4362369 9.7900572 15.769702 25.542208"
             y="0"
             sodipodi:role="line"
             id="tspan302">Frame</tspan></text></g><path
         d="m 4043.72,1788.14 h 874.96 v -231.69 h -874.96 v 231.69 0"
         style="fill:#757980;fill-opacity:1;fill-rule:evenodd;stroke:none"
         id="path306" /><path
         d="m 4918.68,1788.14 h 150.72 v -231.69 h -150.72 v 231.69 0"
         style="fill:#757980;fill-opacity:1;fill-rule:evenodd;stroke:none"
         id="path308" /><path
         d="M 4918.68,2023.57 V 162.18"
         style="fill:none;stroke:#0e0f0e;stroke-width:9.30932;stroke-linecap:round;stroke-linejoin:round;stroke-miterlimit:10;stroke-dasharray:none;stroke-opacity:1"
         id="path310" /><path
         d="M 4043.72,1788.14 H 5069.4"
         style="fill:none;stroke:#0e0f0e;stroke-width:9.30932;stroke-linecap:round;stroke-linejoin:round;stroke-miterlimit:10;stroke-dasharray:none;stroke-opacity:1"
         id="path312" /><path
         d="M 4043.72,1556.45 H 5069.4"
         style="fill:none;stroke:#0e0f0e;stroke-width:9.30932;stroke-linecap:round;stroke-linejoin:round;stroke-miterlimit:10;stroke-dasharray:none;stroke-opacity:1"
         id="path314" /><path
         d="M 4043.72,1324.75 H 5069.4"
         style="fill:none;stroke:#0e0f0e;stroke-width:9.30932;stroke-linecap:round;stroke-linejoin:round;stroke-miterlimit:10;stroke-dasharray:none;stroke-opacity:1"
         id="path316" /><path
         d="M 4043.72,1093.06 H 5069.4"
         style="fill:none;stroke:#0e0f0e;stroke-width:9.30932;stroke-linecap:round;stroke-linejoin:round;stroke-miterlimit:10;stroke-dasharray:none;stroke-opacity:1"
         id="path318" /><path
         d="M 4043.72,861.359 H 5069.4"
         style="fill:none;stroke:#0e0f0e;stroke-width:9.30932;stroke-linecap:round;stroke-linejoin:round;stroke-miterlimit:10;stroke-dasharray:none;stroke-opacity:1"
         id="path320" /><path
         d="M 4043.72,629.66 H 5069.4"
         style="fill:none;stroke:#0e0f0e;stroke-width:9.30932;stroke-linecap:round;stroke-linejoin:round;stroke-miterlimit:10;stroke-dasharray:none;stroke-opacity:1"
         id="path322" /><path
         d="M 4043.72,397.961 H 5069.4"
         style="fill:none;stroke:#0e0f0e;stroke-width:9.30932;stroke-linecap:round;stroke-linejoin:round;stroke-miterlimit:10;stroke-dasharray:none;stroke-opacity:1"
         id="path324" /><path
         d="M 4043.72,2014.74 V 153.352"
         style="fill:none;stroke:#0e0f0e;stroke-width:9.30932;stroke-linecap:round;stroke-linejoin:round;stroke-miterlimit:10;stroke-dasharray:none;stroke-opacity:1"
         id="path326" /><path
         d="M 5069.4,2023.57 V 162.18"
         style="fill:none;stroke:#0e0f0e;stroke-width:9.30932;stroke-linecap:round;stroke-linejoin:round;stroke-miterlimit:10;stroke-dasharray:none;stroke-opacity:1"
         id="path328" /><path
         d="M 4043.72,2019.84 H 5069.4"
         style="fill:none;stroke:#0e0f0e;stroke-width:9.30932;stroke-linecap:round;stroke-linejoin:round;stroke-miterlimit:10;stroke-dasharray:none;stroke-opacity:1"
         id="path330" /><path
         d="M 4043.72,166.27 H 5069.4"
         style="fill:none;stroke:#0e0f0e;stroke-width:9.30932;stroke-linecap:round;stroke-linejoin:round;stroke-miterlimit:10;stroke-dasharray:none;stroke-opacity:1"
         id="path332" /><g
         id="g334"
         transform="scale(10)"><text
           transform="matrix(0.791199,0,0,-1,424.782,183.67)"
           style="font-variant:normal;font-weight:normal;font-size:12px;font-family:Calibri;-inkscape-font-specification:Calibri;writing-mode:lr-tb;fill:#0e0f0e;fill-opacity:1;fill-rule:nonzero;stroke:none"
           id="text358"><tspan
             x="0 5.2264609 9.409709 15.156536 24.551371"
             y="0"
             sodipodi:role="line"
             id="tspan336">Frame</tspan><tspan
             x="30.527201 37.644047 42.871487 48.619488 51.229248 54.354939"
             y="-0.0808594"
             sodipodi:role="line"
             id="tspan338">_valid</tspan><tspan
             x="59.542702 66.659546 71.865761 78.134415"
             y="-0.97343743"
             sodipodi:role="line"
             id="tspan340">_cnt</tspan><tspan
             x="91.565903"
             y="-0.88242179"
             id="tspan342">1</tspan><tspan
             x="-18.1731 -12.947134 -8.7633915 -3.0153918 6.3779621 11.05537 18.166292 22.859032 26.519424 32.267426 36.450672"
             y="45.449177"
             sodipodi:role="line"
             id="tspan344">Frame_start</tspan><tspan
             x="40.770302 47.88073 53.628048 59.896698 66.16584"
             y="46.292538"
             sodipodi:role="line"
             id="tspan346">_addr</tspan><tspan
             x="68.862999 75.973923"
             y="45.44957"
             sodipodi:role="line"
             id="tspan348">_0</tspan><tspan
             x="-18.1721 -12.94564 -8.7633781 -3.0153787 6.378963"
             y="68.618271"
             sodipodi:role="line"
             id="tspan350">Frame</tspan><tspan
             x="11.0572 18.166641 22.860863 26.519773 32.267773 36.451019"
             y="69.501083"
             sodipodi:role="line"
             id="tspan352">_start</tspan><tspan
             x="41.194901 48.30582 54.053822 60.322472 66.591614"
             y="68.058113"
             sodipodi:role="line"
             id="tspan354">_addr</tspan><tspan
             x="68.862999 75.973923"
             y="68.61866"
             sodipodi:role="line"
             id="tspan356">_1</tspan></text><text
           transform="matrix(0.791197,0,0,-1,498.472,115.052)"
           style="font-variant:normal;font-weight:normal;font-size:14.4845px;font-family:Calibri;-inkscape-font-specification:Calibri;writing-mode:lr-tb;fill:#0e0f0e;fill-opacity:1;fill-rule:nonzero;stroke:none"
           id="text362"><tspan
             x="0"
             y="0"
             id="tspan360">-</tspan></text><text
           transform="matrix(0.791199,0,0,-1,410.404,92.0391)"
           style="font-variant:normal;font-weight:normal;font-size:12px;font-family:Calibri;-inkscape-font-specification:Calibri;writing-mode:lr-tb;fill:#0e0f0e;fill-opacity:1;fill-rule:nonzero;stroke:none"
           id="text370"><tspan
             x="0 5.2264609 9.408721 15.156721 24.551064"
             y="0"
             sodipodi:role="line"
             id="tspan364">Frame</tspan><tspan
             x="29.2293 36.339729 41.032963 44.693356 50.441357 54.625095 59.367214 66.478134 72.226135 78.494781 84.762444"
             y="0.14687499"
             sodipodi:role="line"
             id="tspan366">_start_addr</tspan><tspan
             x="86.198303 94.146065"
             y="0.1570313"
             sodipodi:role="line"
             id="tspan368">_2</tspan></text><text
           transform="matrix(0.791197,0,0,-1,498.472,91.882)"
           style="font-variant:normal;font-weight:normal;font-size:14.4845px;font-family:Calibri;-inkscape-font-specification:Calibri;writing-mode:lr-tb;fill:#0e0f0e;fill-opacity:1;fill-rule:nonzero;stroke:none"
           id="text374"><tspan
             x="0"
             y="0"
             id="tspan372">-</tspan></text><text
           transform="matrix(0.791199,0,0,-1,410.404,67.9109)"
           style="font-variant:normal;font-weight:normal;font-size:12px;font-family:Calibri;-inkscape-font-specification:Calibri;writing-mode:lr-tb;fill:#0e0f0e;fill-opacity:1;fill-rule:nonzero;stroke:none"
           id="text384"><tspan
             x="0 5.2264609 9.408721 15.156721 24.551064"
             y="0"
             sodipodi:role="line"
             id="tspan376">Frame</tspan><tspan
             x="29.2293 36.339729 41.032963 44.693356 50.441357 54.625095"
             y="0.082812503"
             sodipodi:role="line"
             id="tspan378">_start</tspan><tspan
             x="58.104599 65.214043 70.962044 77.23069 83.499832"
             y="-0.80195349"
             sodipodi:role="line"
             id="tspan380">_addr</tspan><tspan
             x="86.198303 93.307739"
             y="-0.80117226"
             sodipodi:role="line"
             id="tspan382">_3</tspan></text><text
           transform="matrix(0.791197,0,0,-1,498.472,68.7121)"
           style="font-variant:normal;font-weight:normal;font-size:14.4845px;font-family:Calibri;-inkscape-font-specification:Calibri;writing-mode:lr-tb;fill:#0e0f0e;fill-opacity:1;fill-rule:nonzero;stroke:none"
           id="text388"><tspan
             x="0"
             y="0"
             id="tspan386">-</tspan></text><text
           transform="matrix(0.791199,0,0,-1,468.243,45.543)"
           style="font-variant:normal;font-weight:normal;font-size:12px;font-family:Calibri;-inkscape-font-specification:Calibri;writing-mode:lr-tb;fill:#0e0f0e;fill-opacity:1;fill-rule:nonzero;stroke:none"
           id="text398"><tspan
             x="0 3.6618788 7.3232641 10.986131 14.647515 18.308901"
             y="0"
             sodipodi:role="line"
             id="tspan390">------</tspan><tspan
             x="-78.226799 -73.000336 -68.818077 -63.07008 -53.675735 -48.697159 -41.580315 -36.886093 -33.22718 -27.479181 -23.295441"
             y="23.167999"
             sodipodi:role="line"
             id="tspan392">Frame_start</tspan><tspan
             x="-19.8181 -12.707178 -6.9591784 -0.69052911 5.5771327"
             y="23.068001"
             sodipodi:role="line"
             id="tspan394">_addr</tspan><tspan
             x="8.1715002 15.286865 21.034153"
             y="23.169172"
             sodipodi:role="line"
             id="tspan396">_15</tspan></text><text
           transform="matrix(0.791197,0,0,-1,498.472,22.3738)"
           style="font-variant:normal;font-weight:normal;font-size:14.4845px;font-family:Calibri;-inkscape-font-specification:Calibri;writing-mode:lr-tb;fill:#0e0f0e;fill-opacity:1;fill-rule:nonzero;stroke:none"
           id="text402"><tspan
             x="0"
             y="0"
             id="tspan400">-</tspan></text><text
           transform="matrix(0.791199,0,0,-1,496.229,138.221)"
           style="font-variant:normal;font-weight:normal;font-size:12px;font-family:Calibri;-inkscape-font-specification:Calibri;writing-mode:lr-tb;fill:#0e0f0e;fill-opacity:1;fill-rule:nonzero;stroke:none"
           id="text406"><tspan
             x="0"
             y="0"
             id="tspan404">B</tspan></text></g><path
         d="M 5162.81,3.76172 H 3.75 V 2118.28 h 5159.06 z"
         style="fill:none;stroke:#0e0f0e;stroke-width:7.5;stroke-linecap:round;stroke-linejoin:round;stroke-miterlimit:10;stroke-dasharray:none;stroke-opacity:1"
         id="path408" /></g></g></svg>
