<?xml version="1.0" encoding="UTF-8" standalone="no"?>
<svg
   xmlns:dc="http://purl.org/dc/elements/1.1/"
   xmlns:cc="http://creativecommons.org/ns#"
   xmlns:rdf="http://www.w3.org/1999/02/22-rdf-syntax-ns#"
   xmlns:svg="http://www.w3.org/2000/svg"
   xmlns="http://www.w3.org/2000/svg"
   xmlns:sodipodi="http://sodipodi.sourceforge.net/DTD/sodipodi-0.dtd"
   xmlns:inkscape="http://www.inkscape.org/namespaces/inkscape"
   version="1.1"
   id="svg2"
   xml:space="preserve"
   width="689.33331"
   height="293.33334"
   viewBox="0 0 689.33331 293.33334"
   sodipodi:docname="Cam_Mem.svg"
   inkscape:version="1.0.1 (3bc2e813f5, 2020-09-07)"><metadata
     id="metadata8"><rdf:RDF><cc:Work
         rdf:about=""><dc:format>image/svg+xml</dc:format><dc:type
           rdf:resource="http://purl.org/dc/dcmitype/StillImage" /><dc:title></dc:title></cc:Work></rdf:RDF></metadata><defs
     id="defs6"><clipPath
       clipPathUnits="userSpaceOnUse"
       id="clipPath156"><path
         d="m 1174.02,1611.29 h 662.66 v 332.93 h -662.66 z"
         id="path154" /></clipPath></defs><sodipodi:namedview
     pagecolor="#ffffff"
     bordercolor="#666666"
     borderopacity="1"
     objecttolerance="10"
     gridtolerance="10"
     guidetolerance="10"
     inkscape:pageopacity="0"
     inkscape:pageshadow="2"
     inkscape:window-width="788"
     inkscape:window-height="480"
     id="namedview4"
     showgrid="false"
     inkscape:zoom="1.5957447"
     inkscape:cx="344.66666"
     inkscape:cy="146.66667"
     inkscape:window-x="0"
     inkscape:window-y="0"
     inkscape:window-maximized="0"
     inkscape:current-layer="g10" /><g
     id="g10"
     inkscape:groupmode="layer"
     inkscape:label="ink_ext_XXXXXX"
     transform="matrix(1.3333333,0,0,-1.3333333,0,293.33333)"><g
       id="g12"
       transform="scale(0.1)"><path
         d="m 218.629,791.879 h 604.18 v 815.66 h -604.18 z"
         style="fill:#d1d1d1;fill-opacity:1;fill-rule:evenodd;stroke:none"
         id="path14" /><path
         d="m 218.629,1607.54 v -3.75 h 610.43 V 795.621 h -606.68 v 811.919 h -3.75 v -3.75 3.75 h -3.75 V 791.871 c 0,-0.973 0.391,-1.949 1.101,-2.652 0.7,-0.699 1.68,-1.098 2.649,-1.098 h 614.18 c 1.019,0 1.961,0.399 2.66,1.098 0.703,0.703 1.09,1.679 1.09,2.652 v 815.669 c 0,0.98 -0.387,1.95 -1.09,2.66 -0.699,0.7 -1.641,1.09 -2.66,1.09 h -614.18 c -0.969,0 -1.949,-0.39 -2.649,-1.09 -0.71,-0.71 -1.101,-1.68 -1.101,-2.66 h 3.75"
         style="fill:#0e0f0e;fill-opacity:1;fill-rule:nonzero;stroke:none"
         id="path16" /><g
         id="g18"
         transform="scale(10)"><text
           transform="matrix(1,0,0,-0.99891119,24.509,113.187)"
           style="font-variant:normal;font-weight:normal;font-size:12.0131px;font-family:Calibri;-inkscape-font-specification:Calibri;writing-mode:lr-tb;fill:#0e0f0e;fill-opacity:1;fill-rule:nonzero;stroke:none"
           id="text22"><tspan
             x="0 5.2255635 12.01304 18.812597 28.747581 36.327785"
             y="0"
             sodipodi:role="line"
             id="tspan20">FRAMEN</tspan></text></g><path
         d="m 208.629,308.121 h 624.18 v 483.75 h -624.18 z"
         style="fill:#9b9ca0;fill-opacity:1;fill-rule:evenodd;stroke:none"
         id="path24" /><path
         d="m 218.629,791.871 v -3.75 h 610.43 v -476.25 h -606.68 v 480 h -3.75 v -3.75 3.75 h -3.75 v -483.75 c 0,-0.973 0.391,-1.949 1.101,-2.652 0.7,-0.699 1.68,-1.098 2.649,-1.098 h 614.18 c 1.019,0 1.961,0.399 2.66,1.098 0.703,0.703 1.09,1.679 1.09,2.652 v 483.75 c 0,0.981 -0.387,1.957 -1.09,2.66 -0.699,0.699 -1.641,1.09 -2.66,1.09 h -614.18 c -0.969,0 -1.949,-0.391 -2.649,-1.09 -0.71,-0.703 -1.101,-1.679 -1.101,-2.66 h 3.75"
         style="fill:#0e0f0e;fill-opacity:1;fill-rule:nonzero;stroke:none"
         id="path26" /><g
         id="g28"
         transform="scale(10)"><text
           transform="matrix(1,0,0,-0.99891119,22.9934,49.4527)"
           style="font-variant:normal;font-weight:normal;font-size:12.0131px;font-family:Calibri;-inkscape-font-specification:Calibri;writing-mode:lr-tb;fill:#0e0f0e;fill-opacity:1;fill-rule:nonzero;stroke:none"
           id="text32"><tspan
             x="0 5.2255635 12.01304 18.812597 28.747581 35.61919 44.629002 51.115929"
             y="0"
             sodipodi:role="line"
             id="tspan30">FRAMEN+1</tspan></text></g><path
         d="m 218.629,1948 h 614.18 v 113.48 h -614.18 z"
         style="fill:#9b9ca0;fill-opacity:1;fill-rule:evenodd;stroke:none"
         id="path34" /><path
         d="m 218.629,2061.48 v -3.75 h 610.43 v -105.97 h -606.68 v 109.72 h -3.75 v -3.75 3.75 h -3.75 v -113.47 c 0,-1.02 0.391,-1.96 1.101,-2.66 0.7,-0.7 1.68,-1.09 2.649,-1.09 h 614.18 c 1.019,0 1.961,0.39 2.66,1.09 0.703,0.7 1.09,1.64 1.09,2.66 v 113.47 c 0,0.98 -0.387,1.96 -1.09,2.66 -0.699,0.7 -1.641,1.09 -2.66,1.09 h -614.18 c -0.969,0 -1.949,-0.39 -2.649,-1.09 -0.71,-0.7 -1.101,-1.68 -1.101,-2.66 h 3.75"
         style="fill:#0e0f0e;fill-opacity:1;fill-rule:nonzero;stroke:none"
         id="path36" /><g
         id="g38"
         transform="scale(10)"><text
           transform="matrix(1,0,0,-0.99891119,23.9934,195.969)"
           style="font-variant:normal;font-weight:normal;font-size:12.0131px;font-family:Calibri;-inkscape-font-specification:Calibri;writing-mode:lr-tb;fill:#0e0f0e;fill-opacity:1;fill-rule:nonzero;stroke:none"
           id="text42"><tspan
             x="0 5.2255635 12.01304 18.812597 28.747581 36.616066 45.625874 52.112801"
             y="0"
             sodipodi:role="line"
             id="tspan40">FRAMEN+1</tspan></text></g><path
         d="m 218.629,2061.48 v -3.75 h 610.43 V 311.871 H 222.379 V 2061.48 h -3.75 v -3.75 3.75 h -3.75 V 308.121 c 0,-0.973 0.391,-1.949 1.101,-2.652 0.7,-0.699 1.68,-1.098 2.649,-1.098 h 614.18 c 1.019,0 1.961,0.399 2.66,1.098 0.703,0.703 1.09,1.679 1.09,2.652 V 2061.48 c 0,0.98 -0.387,1.96 -1.09,2.66 -0.699,0.7 -1.641,1.09 -2.66,1.09 h -614.18 c -0.969,0 -1.949,-0.39 -2.649,-1.09 -0.71,-0.7 -1.101,-1.68 -1.101,-2.66 h 3.75"
         style="fill:#0e0f0e;fill-opacity:1;fill-rule:nonzero;stroke:none"
         id="path44" /><g
         id="g46"
         transform="scale(10)"><text
           transform="matrix(1,0,0,-0.99891119,23.3367,142.305)"
           style="font-variant:normal;font-weight:normal;font-size:7.00763px;font-family:Calibri;-inkscape-font-specification:Calibri;writing-mode:lr-tb;fill:#0e0f0e;fill-opacity:1;fill-rule:nonzero;stroke:none"
           id="text50"><tspan
             x="0 2.3335407 4.6740036 7.9466314 13.545728 16.614992 20.272867 23.068947 25.416504 28.682081 31.022545 33.727505 37.392406 40.665035 44.393158 48.121277 50.721107 54.378979"
             y="0"
             sodipodi:role="line"
             id="tspan48">frame_start_addr_0</tspan></text></g><path
         d="m 259.879,1523.32 -41.25,48.75 63.48,3.13 z m 111.41,-21.29 -110.508,47.89 3.129,6.64 110.5,-47.89 -3.121,-6.64"
         style="fill:#0e0f0e;fill-opacity:1;fill-rule:evenodd;stroke:none"
         id="path52" /><path
         d="m 259.879,1523.32 2.891,2.42 -36.36,42.93 49.879,2.46 -19.84,-46.33 3.43,-1.48 2.891,2.42 -2.891,-2.42 3.48,-1.48 22.192,51.87 c 0.5,1.17 0.347,2.54 -0.391,3.63 -0.711,1.06 -1.961,1.64 -3.25,1.61 l -63.469,-3.13 c -1.41,-0.08 -2.703,-0.94 -3.242,-2.27 -0.59,-1.28 -0.359,-2.81 0.539,-3.9 l 41.293,-48.75 c 0.86,-1.02 2.149,-1.49 3.438,-1.29 1.293,0.19 2.383,1.01 2.89,2.23 z m 111.41,-21.29 1.481,3.44 -106.95,46.37 1.481,3.12 -3.391,1.6 -1.531,-3.44 106.961,-46.36 -1.449,-3.13 3.398,-1.6 1.481,3.44 -1.481,-3.44 3.402,-1.56 3.118,6.64 c 0.429,0.9 0.472,1.95 0.082,2.89 -0.352,0.98 -1.051,1.72 -1.993,2.15 L 265.391,1560 c -1.871,0.82 -4.02,0 -4.879,-1.84 l -3.133,-6.68 c -0.43,-0.89 -0.469,-1.95 -0.109,-2.89 0.39,-0.97 1.089,-1.72 2.031,-2.11 l 110.5,-47.89 c 1.84,-0.82 4.027,0 4.89,1.88 l -3.402,1.56"
         style="fill:#0e0f0e;fill-opacity:1;fill-rule:nonzero;stroke:none"
         id="path54" /><path
         d="m 860.23,1365.51 h 188.87 v 18.59 l 47.85,-37.23 -47.85,-37.22 v 18.59 H 860.23 v 37.27"
         style="fill:#5d92cc;fill-opacity:1;fill-rule:evenodd;stroke:none"
         id="path56" /><path
         d="m 860.23,1365.51 v -3.75 h 188.87 c 1.02,0 1.99,0.39 2.7,1.09 0.66,0.7 1.09,1.64 1.09,2.66 v 10.94 l 37.97,-29.58 -37.97,-29.53 v 10.9 c 0,1.02 -0.43,1.99 -1.09,2.7 -0.71,0.66 -1.68,1.09 -2.7,1.09 H 864.02 v 33.48 h -3.79 v -3.75 3.75 h -3.75 v -37.27 c 0,-0.97 0.399,-1.95 1.098,-2.62 0.703,-0.74 1.684,-1.13 2.652,-1.13 h 185.12 v -14.84 c 0,-1.45 0.82,-2.74 2.11,-3.4 1.29,-0.63 2.81,-0.47 3.99,0.43 l 47.81,37.23 c 0.94,0.7 1.44,1.79 1.44,2.96 0,1.18 -0.5,2.27 -1.44,2.97 l -47.81,37.23 c -1.18,0.9 -2.7,1.05 -3.99,0.43 -1.29,-0.63 -2.11,-1.95 -2.11,-3.4 v -14.84 H 860.23 c -0.968,0 -1.949,-0.39 -2.652,-1.1 -0.699,-0.7 -1.098,-1.68 -1.098,-2.65 h 3.75"
         style="fill:#496d9a;fill-opacity:1;fill-rule:nonzero;stroke:none"
         id="path58" /><g
         id="g60"
         transform="scale(10)"><text
           transform="matrix(1,0,0,-0.99891119,87.782,114.969)"
           style="font-variant:normal;font-weight:normal;font-size:7.00763px;font-family:'Microsoft YaHei';-inkscape-font-specification:MicrosoftYaHei;writing-mode:lr-tb;fill:#0e0f0e;fill-opacity:1;fill-rule:nonzero;stroke:none"
           id="text64"><tspan
             x="0 7.0076299 14.01526"
             y="0"
             sodipodi:role="line"
             id="tspan62">准备写</tspan></text><text
           transform="matrix(1,0,0,-0.99891119,83.954262,106.35923)"
           style="font-variant:normal;font-weight:normal;font-size:7.00763px;font-family:Calibri;-inkscape-font-specification:Calibri;writing-mode:lr-tb;fill:#0e0f0e;fill-opacity:1;fill-rule:nonzero;stroke:none"
           id="text68"><tspan
             x="0 3.1115341 5.8375435 8.9558744 14.407858 19.474234 23.61558"
             y="0"
             sodipodi:role="line"
             id="tspan66">FrameN+</tspan></text><text
           transform="matrix(1,0,0,-0.99890121,116.282,93.359)"
           style="font-variant:normal;font-weight:normal;font-size:13.5267px;font-family:Calibri;-inkscape-font-specification:Calibri;writing-mode:lr-tb;fill:#0e0f0e;fill-opacity:1;fill-rule:nonzero;stroke:none"
           id="text72"><tspan
             x="0"
             y="0"
             id="tspan70">2</tspan></text></g><path
         d="m 1878.52,1333.98 h 173.78 v 17.5 l 44.07,-35.03 -44.07,-35.08 v 17.54 h -173.78 v 35.07"
         style="fill:#5d92cc;fill-opacity:1;fill-rule:evenodd;stroke:none"
         id="path74" /><path
         d="m 1878.52,1333.98 v -3.78 h 173.78 c 1.02,0 1.96,0.42 2.66,1.13 0.7,0.66 1.09,1.64 1.09,2.65 v 9.73 l 34.26,-27.26 -34.26,-27.31 v 9.77 c 0,0.97 -0.39,1.95 -1.09,2.65 -0.7,0.71 -1.64,1.1 -2.66,1.1 h -170.03 v 31.32 h -3.75 v -3.78 3.78 h -3.79 v -35.07 c 0,-1.02 0.43,-1.96 1.13,-2.66 0.66,-0.7 1.64,-1.09 2.66,-1.09 h 170.03 v -13.79 c 0,-1.45 0.83,-2.78 2.15,-3.4 1.29,-0.63 2.82,-0.43 3.95,0.47 l 44.02,35.04 c 0.9,0.74 1.45,1.79 1.45,2.97 0,1.13 -0.55,2.22 -1.45,2.92 l -44.02,35.08 c -1.13,0.86 -2.66,1.06 -3.95,0.43 -1.32,-0.62 -2.15,-1.95 -2.15,-3.4 v -13.75 h -170.03 c -1.02,0 -2,-0.43 -2.66,-1.13 -0.7,-0.66 -1.13,-1.64 -1.13,-2.62 h 3.79"
         style="fill:#496d9a;fill-opacity:1;fill-rule:nonzero;stroke:none"
         id="path76" /><g
         id="g78"
         transform="scale(10)"><text
           transform="matrix(1,0,0,-0.99891119,185.337,115.32)"
           style="font-variant:normal;font-weight:normal;font-size:7.00763px;font-family:'Microsoft YaHei';-inkscape-font-specification:MicrosoftYaHei;writing-mode:lr-tb;fill:#0e0f0e;fill-opacity:1;fill-rule:nonzero;stroke:none"
           id="text82"><tspan
             x="0 7.0076299 14.01526 21.02289 28.030519"
             y="0"
             sodipodi:role="line"
             id="tspan80">发现会覆盖</tspan></text><text
           transform="matrix(1,0,0,-0.99891119,185.25106,105.85203)"
           style="font-variant:normal;font-weight:normal;font-size:7.00763px;font-family:Calibri;-inkscape-font-specification:Calibri;writing-mode:lr-tb;fill:#0e0f0e;fill-opacity:1;fill-rule:nonzero;stroke:none"
           id="text90"><tspan
             x="0 2.3335309 4.6739941 7.9466281 13.545724"
             y="0"
             sodipodi:role="line"
             id="tspan84">frame</tspan><tspan
             x="16.601576"
             y="-1.00109"
             id="tspan86">_</tspan><tspan
             x="20.257437 23.053524 25.401079 28.66667 31.007133 33.712086 36.375027 39.647648 43.375774 47.103905"
             y="0"
             sodipodi:role="line"
             id="tspan88">start_addr</tspan></text><text
           transform="matrix(1,0,0,-0.99891119,238.96202,90.85203)"
           style="font-variant:normal;font-weight:normal;font-size:11.2721px;font-family:Calibri;-inkscape-font-specification:Calibri;writing-mode:lr-tb;fill:#0e0f0e;fill-opacity:1;fill-rule:nonzero;stroke:none"
           id="text94"><tspan
             x="0"
             y="0"
             id="tspan92">0</tspan></text><text
           transform="matrix(1,0,0,-0.99891119,185.3058,98.23406)"
           style="font-variant:normal;font-weight:normal;font-size:7.00763px;font-family:'Microsoft YaHei';-inkscape-font-specification:MicrosoftYaHei;writing-mode:lr-tb;fill:#0e0f0e;fill-opacity:1;fill-rule:nonzero;stroke:none"
           id="text98"><tspan
             x="0 7.0076299"
             y="0"
             sodipodi:role="line"
             id="tspan96">放弃</tspan></text><text
           transform="matrix(1,0,0,-0.99891119,199.57334,98.23406)"
           style="font-variant:normal;font-weight:normal;font-size:7.00763px;font-family:Calibri;-inkscape-font-specification:Calibri;writing-mode:lr-tb;fill:#0e0f0e;fill-opacity:1;fill-rule:nonzero;stroke:none"
           id="text104"><tspan
             x="0 3.1115341 5.8375435 8.9558678 14.407845"
             y="0"
             sodipodi:role="line"
             id="tspan100">Frame</tspan><tspan
             x="18.966452 24.691769 29.407841"
             y="1.00109"
             sodipodi:role="line"
             id="tspan102">N+2</tspan></text></g><path
         d="m 1170.27,791.879 h 670.199 v 815.66 H 1170.27 Z"
         style="fill:#d1d1d1;fill-opacity:1;fill-rule:evenodd;stroke:none"
         id="path106" /><path
         d="m 1170.27,1607.54 v -3.75 h 666.45 V 795.621 h -662.7 v 811.919 h -3.75 v -3.75 3.75 h -3.75 V 791.871 c 0,-0.973 0.39,-1.949 1.1,-2.652 0.7,-0.699 1.68,-1.098 2.65,-1.098 h 670.2 c 0.98,0 1.95,0.399 2.66,1.098 0.7,0.703 1.09,1.679 1.09,2.652 v 815.669 c 0,0.98 -0.39,1.95 -1.09,2.66 -0.71,0.7 -1.68,1.09 -2.66,1.09 h -670.2 c -0.97,0 -1.95,-0.39 -2.65,-1.09 -0.71,-0.71 -1.1,-1.68 -1.1,-2.66 h 3.75"
         style="fill:#0e0f0e;fill-opacity:1;fill-rule:nonzero;stroke:none"
         id="path108" /><g
         id="g110"
         transform="scale(10)"><text
           transform="matrix(1,0,0,-0.99891119,122.985,117.187)"
           style="font-variant:normal;font-weight:normal;font-size:12.0131px;font-family:Calibri;-inkscape-font-specification:Calibri;writing-mode:lr-tb;fill:#0e0f0e;fill-opacity:1;fill-rule:nonzero;stroke:none"
           id="text114"><tspan
             x="0 5.2255635 12.013033 18.81259 28.74758 36.339893"
             y="0"
             sodipodi:role="line"
             id="tspan112">FRAMEN</tspan></text></g><path
         d="m 1170.27,308.121 h 670.199 v 483.75 H 1170.27 Z"
         style="fill:#9b9ca0;fill-opacity:1;fill-rule:evenodd;stroke:none"
         id="path116" /><path
         d="m 1170.27,791.871 v -3.75 h 666.45 v -476.25 h -662.7 v 480 h -3.75 v -3.75 3.75 h -3.75 v -483.75 c 0,-0.973 0.39,-1.949 1.1,-2.652 0.7,-0.699 1.68,-1.098 2.65,-1.098 h 670.2 c 0.98,0 1.95,0.399 2.66,1.098 0.7,0.703 1.09,1.679 1.09,2.652 v 483.75 c 0,0.981 -0.39,1.957 -1.09,2.66 -0.71,0.699 -1.68,1.09 -2.66,1.09 h -670.2 c -0.97,0 -1.95,-0.391 -2.65,-1.09 -0.71,-0.703 -1.1,-1.679 -1.1,-2.66 h 3.75"
         style="fill:#0e0f0e;fill-opacity:1;fill-rule:nonzero;stroke:none"
         id="path118" /><g
         id="g120"
         transform="scale(10)"><text
           transform="matrix(1,0,0,-0.99891119,120.47,50.4527)"
           style="font-variant:normal;font-weight:normal;font-size:12.0131px;font-family:Calibri;-inkscape-font-specification:Calibri;writing-mode:lr-tb;fill:#0e0f0e;fill-opacity:1;fill-rule:nonzero;stroke:none"
           id="text124"><tspan
             x="0 5.2255635 12.013033 18.81259 28.74758 38.622307 47.632118 54.119049"
             y="0"
             sodipodi:role="line"
             id="tspan122">FRAMEN+1</tspan></text></g><path
         d="m 1170.27,1948 h 670.199 v 113.48 H 1170.27 Z"
         style="fill:#9b9ca0;fill-opacity:1;fill-rule:evenodd;stroke:none"
         id="path126" /><path
         d="m 1170.27,2061.48 v -3.75 h 666.45 v -105.97 h -662.7 v 109.72 h -3.75 v -3.75 3.75 h -3.75 v -113.47 c 0,-1.02 0.39,-1.96 1.1,-2.66 0.7,-0.7 1.68,-1.09 2.65,-1.09 h 670.2 c 0.98,0 1.95,0.39 2.66,1.09 0.7,0.7 1.09,1.64 1.09,2.66 v 113.47 c 0,0.98 -0.39,1.96 -1.09,2.66 -0.71,0.7 -1.68,1.09 -2.66,1.09 h -670.2 c -0.97,0 -1.95,-0.39 -2.65,-1.09 -0.71,-0.7 -1.1,-1.68 -1.1,-2.66 h 3.75"
         style="fill:#0e0f0e;fill-opacity:1;fill-rule:nonzero;stroke:none"
         id="path128" /><g
         id="g130"
         transform="scale(10)"><text
           transform="matrix(1,0,0,-0.99891119,120.47,195.969)"
           style="font-variant:normal;font-weight:normal;font-size:12.0131px;font-family:Calibri;-inkscape-font-specification:Calibri;writing-mode:lr-tb;fill:#0e0f0e;fill-opacity:1;fill-rule:nonzero;stroke:none"
           id="text134"><tspan
             x="0 5.2255635 12.013033 18.81259 28.74758 36.616062 45.63797 51.115917"
             y="0"
             sodipodi:role="line"
             id="tspan132">FRAMEN+1</tspan></text></g><path
         d="m 1170.27,2061.48 v -3.75 h 666.45 V 311.871 h -662.7 V 2061.48 h -3.75 v -3.75 3.75 h -3.75 V 308.121 c 0,-0.973 0.39,-1.949 1.1,-2.652 0.7,-0.699 1.68,-1.098 2.65,-1.098 h 670.2 c 0.98,0 1.95,0.399 2.66,1.098 0.7,0.703 1.09,1.679 1.09,2.652 V 2061.48 c 0,0.98 -0.39,1.96 -1.09,2.66 -0.71,0.7 -1.68,1.09 -2.66,1.09 h -670.2 c -0.97,0 -1.95,-0.39 -2.65,-1.09 -0.71,-0.7 -1.1,-1.68 -1.1,-2.66 h 3.75"
         style="fill:#0e0f0e;fill-opacity:1;fill-rule:nonzero;stroke:none"
         id="path136" /><g
         id="g138"
         transform="scale(10)"><text
           transform="matrix(1,0,0,-0.99891119,119.924,141.747)"
           style="font-variant:normal;font-weight:normal;font-size:7.00763px;font-family:Calibri;-inkscape-font-specification:Calibri;writing-mode:lr-tb;fill:#0e0f0e;fill-opacity:1;fill-rule:nonzero;stroke:none"
           id="text144"><tspan
             x="0 2.3335309 4.6739941 7.9466281 13.545724"
             y="0"
             sodipodi:role="line"
             id="tspan140">frame</tspan><tspan
             x="17.499254 22.152447 24.948532 27.296089 30.561666 32.90213 36.616081 41.276302 44.548939 48.277065 52.005192 54.612061 58.269939"
             y="-0.55881143"
             sodipodi:role="line"
             id="tspan142">_start_addr_0</tspan></text></g><path
         d="m 1211.56,1523.32 -41.29,48.75 63.48,3.13 -22.19,-51.88 m 111.37,-21.29 -110.51,47.89 3.13,6.64 110.5,-47.89 -3.12,-6.64"
         style="fill:#0e0f0e;fill-opacity:1;fill-rule:evenodd;stroke:none"
         id="path146" /><path
         d="m 1211.56,1523.32 2.85,2.42 -36.36,42.97 49.88,2.42 -19.84,-46.33 3.47,-1.48 2.85,2.42 -2.85,-2.42 3.44,-1.48 22.19,51.87 c 0.51,1.17 0.39,2.54 -0.35,3.63 -0.75,1.06 -2,1.64 -3.29,1.61 l -63.47,-3.13 c -1.41,-0.08 -2.7,-0.94 -3.24,-2.27 -0.59,-1.28 -0.36,-2.81 0.58,-3.9 l 41.25,-48.75 c 0.86,-1.02 2.15,-1.49 3.44,-1.29 1.29,0.19 2.38,1.01 2.89,2.23 l -3.44,1.48 m 111.37,-21.29 1.48,3.48 -106.95,46.33 1.49,3.12 -3.4,1.6 -1.49,-3.44 106.96,-46.36 -1.49,-3.13 3.4,-1.6 1.48,3.48 -1.48,-3.48 3.4,-1.6 3.12,6.68 c 0.43,0.9 0.47,1.95 0.12,2.89 -0.35,0.98 -1.09,1.72 -2.03,2.15 L 1217.03,1560 c -1.83,0.82 -4.02,0 -4.88,-1.84 l -3.13,-6.64 c -0.43,-0.93 -0.47,-1.99 -0.11,-2.93 0.39,-0.97 1.09,-1.72 2.03,-2.11 l 110.51,-47.89 c 1.87,-0.82 4.02,0 4.88,1.84 l -3.4,1.6"
         style="fill:#0e0f0e;fill-opacity:1;fill-rule:nonzero;stroke:none"
         id="path148" /><g
         id="g150"><g
           id="g152"
           clip-path="url(#clipPath156)"><path
             d="m 1174.02,1611.29 h 662.66 v 332.93 h -662.66 z"
             style="fill:#58504e;fill-opacity:1;fill-rule:nonzero;stroke:none"
             id="path158" /></g></g><path
         d="m 1836.72,1511.8 h -508.56 c -0.19,0.11 -0.39,0.23 -0.62,0.35 l -98.44,42.62 8.09,18.94 c 0.51,1.17 0.39,2.54 -0.35,3.63 -0.71,1.02 -1.88,1.61 -3.09,1.61 -0.08,0 -0.12,0 -0.2,0 l -59.53,-2.93 v 27.77 h 662.7 v -91.99"
         style="fill:#4d4848;fill-opacity:1;fill-rule:nonzero;stroke:none"
         id="path160" /><path
         d="m 1836.72,1511.8 v 91.99 h -662.7 v 7.5 h 662.7 v -99.49"
         style="fill:#121212;fill-opacity:1;fill-rule:nonzero;stroke:none"
         id="path162" /><path
         d="m 1174.02,1944.26 h 662.66 v 7.2969 h -662.66 z"
         style="fill:#121212;fill-opacity:1;fill-rule:nonzero;stroke:none"
         id="path164" /><path
         d="m 1840.47,1511.8 h -3.75 v 439.72 h 3.75 V 1511.8 m -673.75,61.48 v 378.24 h 7.3 v -375.5 l -3.94,-0.2 c -1.41,-0.08 -2.7,-0.94 -3.24,-2.27 -0.04,-0.07 -0.08,-0.15 -0.12,-0.27"
         style="fill:#121212;fill-opacity:1;fill-rule:nonzero;stroke:none"
         id="path166" /><path
         d="m 1290.98,1511.8 h -116.96 v 50.04 l 34.65,-40.94 c 0.74,-0.86 1.8,-1.37 2.89,-1.37 0.16,0 0.35,0.04 0.55,0.08 1.29,0.19 2.38,1.01 2.89,2.23 l 8.24,19.29 67.74,-29.33"
         style="fill:#4d4848;fill-opacity:1;fill-rule:nonzero;stroke:none"
         id="path168" /><path
         d="m 1174.02,1511.8 h -7.3 v 59.06 c 0.16,-0.43 0.39,-0.86 0.7,-1.21 l 6.6,-7.81 v -50.04"
         style="fill:#121212;fill-opacity:1;fill-rule:nonzero;stroke:none"
         id="path170" /><path
         d="m 1210.51,1530.39 -32.46,38.32 49.88,2.42 -5.74,-13.36 -5.16,2.23 c -0.47,0.2 -0.98,0.31 -1.48,0.31 -1.41,0 -2.78,-0.82 -3.4,-2.15 l -3.13,-6.64 c -0.43,-0.93 -0.47,-1.99 -0.11,-2.93 0.39,-0.97 1.09,-1.72 2.03,-2.11 l 5.43,-2.38 -5.86,-13.71"
         style="fill:#121212;fill-opacity:1;fill-rule:nonzero;stroke:none"
         id="path172" /><path
         d="m 1328.16,1511.8 h -37.18 l -67.74,29.33 -8.24,-19.29 c -0.51,-1.22 -1.6,-2.04 -2.89,-2.23 -0.2,-0.04 -0.39,-0.08 -0.55,-0.08 -1.09,0 -2.15,0.51 -2.89,1.37 l -34.65,40.94 -6.6,7.81 c -0.31,0.35 -0.54,0.78 -0.7,1.21 v 2.42 c 0.04,0.12 0.08,0.2 0.12,0.27 0.54,1.33 1.83,2.19 3.24,2.27 l 3.94,0.2 59.53,2.93 c 0.08,0 0.12,0 0.2,0 1.21,0 2.38,-0.59 3.09,-1.61 0.74,-1.09 0.86,-2.46 0.35,-3.63 l -8.09,-18.94 98.44,-42.62 c 0.23,-0.12 0.43,-0.24 0.62,-0.35 m -116.6,11.52 2.85,2.42 -2.85,-2.42 m 16.37,47.81 -49.88,-2.42 32.46,-38.32 5.86,13.71 -5.43,2.38 c -0.94,0.39 -1.64,1.14 -2.03,2.11 -0.36,0.94 -0.32,2 0.11,2.93 l 3.13,6.64 c 0.62,1.33 1.99,2.15 3.4,2.15 0.5,0 1.01,-0.11 1.48,-0.31 l 5.16,-2.23 5.74,13.36"
         style="fill:#121212;fill-opacity:1;fill-rule:nonzero;stroke:none"
         id="path174" /><g
         id="g176"
         transform="scale(10)"><text
           transform="matrix(1,0,0,-0.99891119,120.454,171.141)"
           style="font-variant:normal;font-weight:normal;font-size:12.0131px;font-family:Calibri;-inkscape-font-specification:Calibri;writing-mode:lr-tb;fill:#0e0f0e;fill-opacity:1;fill-rule:nonzero;stroke:none"
           id="text180"><tspan
             x="0 5.2255635 12.013033 18.81259 28.74758 36.62817 45.637981 52.113194"
             y="0"
             sodipodi:role="line"
             id="tspan178">FRAMEN+2</tspan></text></g><path
         d="m 2361.76,791.879 h 614.18 v 815.66 h -614.18 z"
         style="fill:#d1d1d1;fill-opacity:1;fill-rule:evenodd;stroke:none"
         id="path182" /><path
         d="m 2361.76,1607.54 v -3.75 h 610.43 V 795.621 h -606.68 v 811.919 h -3.75 v -3.75 3.75 h -3.75 V 791.871 c 0,-0.973 0.39,-1.949 1.09,-2.652 0.7,-0.699 1.64,-1.098 2.66,-1.098 h 614.18 c 0.97,0 1.95,0.399 2.65,1.098 0.71,0.703 1.1,1.679 1.1,2.652 v 815.669 c 0,0.98 -0.39,1.95 -1.1,2.66 -0.7,0.7 -1.68,1.09 -2.65,1.09 h -614.18 c -1.02,0 -1.96,-0.39 -2.66,-1.09 -0.7,-0.71 -1.09,-1.68 -1.09,-2.66 h 3.75"
         style="fill:#0e0f0e;fill-opacity:1;fill-rule:nonzero;stroke:none"
         id="path184" /><g
         id="g186"
         transform="scale(10)"><text
           transform="matrix(1,0,0,-0.99891119,238.837,113.187)"
           style="font-variant:normal;font-weight:normal;font-size:12.0131px;font-family:Calibri;-inkscape-font-specification:Calibri;writing-mode:lr-tb;fill:#0e0f0e;fill-opacity:1;fill-rule:nonzero;stroke:none"
           id="text190"><tspan
             x="0 5.2255516 12.013033 18.812601 28.74758 36.339893"
             y="0"
             sodipodi:role="line"
             id="tspan188">FRAMEN</tspan></text></g><path
         d="m 2361.76,308.121 h 614.18 v 483.75 h -614.18 z"
         style="fill:#9b9ca0;fill-opacity:1;fill-rule:evenodd;stroke:none"
         id="path192" /><path
         d="m 2361.76,791.871 v -3.75 h 610.43 v -476.25 h -606.68 v 480 h -3.75 v -3.75 3.75 h -3.75 v -483.75 c 0,-0.973 0.39,-1.949 1.09,-2.652 0.7,-0.699 1.64,-1.098 2.66,-1.098 h 614.18 c 0.97,0 1.95,0.399 2.65,1.098 0.71,0.703 1.1,1.679 1.1,2.652 v 483.75 c 0,0.981 -0.39,1.957 -1.1,2.66 -0.7,0.699 -1.68,1.09 -2.65,1.09 h -614.18 c -1.02,0 -1.96,-0.391 -2.66,-1.09 -0.7,-0.703 -1.09,-1.679 -1.09,-2.66 h 3.75"
         style="fill:#0e0f0e;fill-opacity:1;fill-rule:nonzero;stroke:none"
         id="path194" /><g
         id="g196"
         transform="scale(10)"><text
           transform="matrix(1,0,0,-0.99891119,239.313,48.4527)"
           style="font-variant:normal;font-weight:normal;font-size:12.0131px;font-family:Calibri;-inkscape-font-specification:Calibri;writing-mode:lr-tb;fill:#0e0f0e;fill-opacity:1;fill-rule:nonzero;stroke:none"
           id="text200"><tspan
             x="0 5.2255516 12.013033 18.812601 28.74758 35.61919 44.641109 51.116322"
             y="0"
             sodipodi:role="line"
             id="tspan198">FRAMEN+1</tspan></text></g><path
         d="m 2361.76,1948 h 614.18 v 113.48 h -614.18 z"
         style="fill:#9b9ca0;fill-opacity:1;fill-rule:evenodd;stroke:none"
         id="path202" /><path
         d="m 2361.76,2061.48 v -3.75 h 610.43 v -105.97 h -606.68 v 109.72 h -3.75 v -3.75 3.75 h -3.75 v -113.47 c 0,-1.02 0.39,-1.96 1.09,-2.66 0.7,-0.7 1.64,-1.09 2.66,-1.09 h 614.18 c 0.97,0 1.95,0.39 2.65,1.09 0.71,0.7 1.1,1.64 1.1,2.66 v 113.47 c 0,0.98 -0.39,1.96 -1.1,2.66 -0.7,0.7 -1.68,1.09 -2.65,1.09 h -614.18 c -1.02,0 -1.96,-0.39 -2.66,-1.09 -0.7,-0.7 -1.09,-1.68 -1.09,-2.66 h 3.75"
         style="fill:#0e0f0e;fill-opacity:1;fill-rule:nonzero;stroke:none"
         id="path204" /><g
         id="g206"
         transform="scale(10)"><text
           transform="matrix(1,0,0,-0.99891119,239.313,195.969)"
           style="font-variant:normal;font-weight:normal;font-size:12.0131px;font-family:Calibri;-inkscape-font-specification:Calibri;writing-mode:lr-tb;fill:#0e0f0e;fill-opacity:1;fill-rule:nonzero;stroke:none"
           id="text210"><tspan
             x="0 5.2255516 12.013033 18.812601 28.74758 36.616062 44.64072 50.118668"
             y="0"
             sodipodi:role="line"
             id="tspan208">FRAMEN+1</tspan></text></g><path
         d="m 2361.76,2061.48 v -3.75 h 610.43 V 311.871 H 2365.51 V 2061.48 h -3.75 v -3.75 3.75 h -3.75 V 308.121 c 0,-0.973 0.39,-1.949 1.09,-2.652 0.7,-0.699 1.64,-1.098 2.66,-1.098 h 614.18 c 0.97,0 1.95,0.399 2.65,1.098 0.71,0.703 1.1,1.679 1.1,2.652 V 2061.48 c 0,0.98 -0.39,1.96 -1.1,2.66 -0.7,0.7 -1.68,1.09 -2.65,1.09 h -614.18 c -1.02,0 -1.96,-0.39 -2.66,-1.09 -0.7,-0.7 -1.09,-1.68 -1.09,-2.66 h 3.75"
         style="fill:#0e0f0e;fill-opacity:1;fill-rule:nonzero;stroke:none"
         id="path212" /><g
         id="g214"
         transform="scale(10)"><text
           transform="matrix(1,0,0,-0.99891119,238.673,142.305)"
           style="font-variant:normal;font-weight:normal;font-size:7.00763px;font-family:Calibri;-inkscape-font-specification:Calibri;writing-mode:lr-tb;fill:#0e0f0e;fill-opacity:1;fill-rule:nonzero;stroke:none"
           id="text218"><tspan
             x="0 2.3335407 4.6740036 7.9466252 13.545721 16.600925 20.265823 23.061911 25.409466 28.675056 31.01552 33.720474 36.376385 39.649006 43.377136 47.105263 49.712132 53.369995"
             y="0"
             sodipodi:role="line"
             id="tspan216">frame_start_addr_0</tspan></text></g><path
         d="m 2403.01,1523.32 -41.25,48.75 63.44,3.13 z m 111.4,-21.29 -110.5,47.89 3.08,6.64 110.55,-47.89 -3.13,-6.64"
         style="fill:#0e0f0e;fill-opacity:1;fill-rule:evenodd;stroke:none"
         id="path220" /><path
         d="m 2403.01,1523.32 2.89,2.42 -36.37,42.93 49.85,2.46 -19.81,-46.33 3.44,-1.48 2.89,2.42 -2.89,-2.42 3.47,-1.48 22.19,51.87 c 0.51,1.17 0.35,2.54 -0.39,3.63 -0.74,1.06 -1.95,1.64 -3.24,1.61 l -63.48,-3.13 c -1.4,-0.08 -2.69,-0.94 -3.28,-2.27 -0.55,-1.28 -0.31,-2.81 0.59,-3.9 l 41.29,-48.75 c 0.86,-1.02 2.14,-1.49 3.43,-1.29 1.29,0.19 2.39,1.01 2.89,2.23 z m 111.4,-21.29 1.49,3.44 -106.95,46.37 1.48,3.12 -3.44,1.6 -1.48,-3.44 106.95,-46.36 -1.44,-3.13 3.39,-1.6 1.49,3.44 -1.49,-3.44 3.4,-1.56 3.13,6.64 c 0.43,0.9 0.47,1.95 0.08,2.89 -0.36,0.98 -1.1,1.72 -2,2.15 l -110.5,47.85 c -1.88,0.82 -4.07,0 -4.93,-1.84 l -3.08,-6.68 c -0.43,-0.89 -0.47,-1.95 -0.12,-2.89 0.35,-0.97 1.09,-1.72 2.03,-2.11 l 110.51,-47.89 c 1.84,-0.82 4.02,0 4.88,1.88 l -3.4,1.56"
         style="fill:#0e0f0e;fill-opacity:1;fill-rule:nonzero;stroke:none"
         id="path222" /><path
         d="m 2998.2,1304.96 h 153.6 v 16.88 l 38.9,-33.79 -38.9,-33.79 v 16.87 h -153.6 v 33.83"
         style="fill:#5d92cc;fill-opacity:1;fill-rule:evenodd;stroke:none"
         id="path224" /><path
         d="m 2998.2,1304.96 v -3.79 h 153.6 c 0.97,0 1.95,0.43 2.65,1.13 0.71,0.71 1.1,1.65 1.1,2.66 v 8.63 l 29.41,-25.54 -29.41,-25.55 v 8.63 c 0,1.02 -0.39,1.99 -1.1,2.7 -0.7,0.66 -1.68,1.09 -2.65,1.09 h -149.85 v 30.04 h -3.75 v -3.79 3.79 h -3.75 v -33.83 c 0,-0.97 0.39,-1.91 1.1,-2.65 0.7,-0.71 1.68,-1.1 2.65,-1.1 h 149.85 v -13.12 c 0,-1.49 0.86,-2.81 2.18,-3.44 1.33,-0.59 2.93,-0.35 4.03,0.59 l 38.9,33.82 c 0.82,0.71 1.29,1.72 1.29,2.82 0,1.09 -0.47,2.11 -1.29,2.85 l -38.9,33.79 c -1.1,0.97 -2.7,1.21 -4.03,0.58 -1.32,-0.62 -2.18,-1.95 -2.18,-3.43 v -13.13 H 2998.2 c -0.97,0 -1.95,-0.39 -2.65,-1.09 -0.71,-0.71 -1.1,-1.68 -1.1,-2.66 h 3.75"
         style="fill:#496d9a;fill-opacity:1;fill-rule:nonzero;stroke:none"
         id="path226" /><g
         id="g228"
         transform="scale(10)"><text
           transform="matrix(1,0,0,-0.99891119,299.821,117.82)"
           style="font-variant:normal;font-weight:normal;font-size:7.00763px;font-family:Calibri;-inkscape-font-specification:Calibri;writing-mode:lr-tb;fill:#0e0f0e;fill-opacity:1;fill-rule:nonzero;stroke:none"
           id="text234"><tspan
             x="0 3.1115215 5.8375311 8.9558554 14.407833"
             y="0"
             sodipodi:role="line"
             id="tspan230">Frame</tspan><tspan
             x="1.1019498 4.612956 9.2801561"
             y="7.3278985"
             sodipodi:role="line"
             id="tspan232">POP</tspan></text></g><path
         d="m 3205,308.121 h 614.219 v 483.75 H 3205 Z"
         style="fill:#9b9ca0;fill-opacity:1;fill-rule:evenodd;stroke:none"
         id="path236" /><path
         d="m 3205,791.871 v -3.75 h 610.43 v -476.25 h -606.68 v 480 H 3205 v -3.75 3.75 h -3.75 v -483.75 c 0,-0.973 0.39,-1.949 1.09,-2.652 0.71,-0.699 1.68,-1.098 2.66,-1.098 h 614.22 c 0.98,0 1.91,0.399 2.62,1.098 0.7,0.703 1.13,1.679 1.13,2.652 v 483.75 c 0,0.981 -0.43,1.957 -1.13,2.66 -0.71,0.699 -1.64,1.09 -2.62,1.09 H 3205 c -0.98,0 -1.95,-0.391 -2.66,-1.09 -0.7,-0.703 -1.09,-1.679 -1.09,-2.66 h 3.75"
         style="fill:#0e0f0e;fill-opacity:1;fill-rule:nonzero;stroke:none"
         id="path238" /><g
         id="g240"
         transform="scale(10)"><text
           transform="matrix(1,0,0,-0.99891119,321.767,48.4527)"
           style="font-variant:normal;font-weight:normal;font-size:12.0131px;font-family:Calibri;-inkscape-font-specification:Calibri;writing-mode:lr-tb;fill:#0e0f0e;fill-opacity:1;fill-rule:nonzero;stroke:none"
           id="text244"><tspan
             x="0 5.2255516 12.013033 18.812601 28.74758 35.61919 43.631737 49.109688"
             y="0"
             sodipodi:role="line"
             id="tspan242">FRAMEN+1</tspan></text></g><path
         d="m 3205,1948 h 614.219 v 113.48 H 3205 Z"
         style="fill:#9b9ca0;fill-opacity:1;fill-rule:evenodd;stroke:none"
         id="path246" /><path
         d="m 3205,2061.48 v -3.75 h 610.43 v -105.97 h -606.68 v 109.72 H 3205 v -3.75 3.75 h -3.75 v -113.47 c 0,-1.02 0.39,-1.96 1.09,-2.66 0.71,-0.7 1.68,-1.09 2.66,-1.09 h 614.22 c 0.98,0 1.91,0.39 2.62,1.09 0.7,0.7 1.13,1.64 1.13,2.66 v 113.47 c 0,0.98 -0.43,1.96 -1.13,2.66 -0.71,0.7 -1.64,1.09 -2.62,1.09 H 3205 c -0.98,0 -1.95,-0.39 -2.66,-1.09 -0.7,-0.7 -1.09,-1.68 -1.09,-2.66 h 3.75"
         style="fill:#0e0f0e;fill-opacity:1;fill-rule:nonzero;stroke:none"
         id="path248" /><g
         id="g250"
         transform="scale(10)"><text
           transform="matrix(1,0,0,-0.99891119,323.767,195.969)"
           style="font-variant:normal;font-weight:normal;font-size:12.0131px;font-family:Calibri;-inkscape-font-specification:Calibri;writing-mode:lr-tb;fill:#0e0f0e;fill-opacity:1;fill-rule:nonzero;stroke:none"
           id="text254"><tspan
             x="0 5.2255516 12.013033 18.812601 28.74758 37.625439 45.626266 51.116325"
             y="0"
             sodipodi:role="line"
             id="tspan252">FRAMEN+1</tspan></text></g><path
         d="m 3205,2061.48 v -3.75 h 610.43 V 311.871 H 3208.75 V 2061.48 H 3205 v -3.75 3.75 h -3.75 V 308.121 c 0,-0.973 0.39,-1.949 1.09,-2.652 0.71,-0.699 1.68,-1.098 2.66,-1.098 h 614.22 c 0.98,0 1.91,0.399 2.62,1.098 0.7,0.703 1.13,1.679 1.13,2.652 V 2061.48 c 0,0.98 -0.43,1.96 -1.13,2.66 -0.71,0.7 -1.64,1.09 -2.62,1.09 H 3205 c -0.98,0 -1.95,-0.39 -2.66,-1.09 -0.7,-0.7 -1.09,-1.68 -1.09,-2.66 h 3.75"
         style="fill:#0e0f0e;fill-opacity:1;fill-rule:nonzero;stroke:none"
         id="path256" /><g
         id="g258"
         transform="scale(10)"><text
           transform="matrix(1,0,0,-0.99891119,321.884,61.8277)"
           style="font-variant:normal;font-weight:normal;font-size:7.00763px;font-family:Calibri;-inkscape-font-specification:Calibri;writing-mode:lr-tb;fill:#0e0f0e;fill-opacity:1;fill-rule:nonzero;stroke:none"
           id="text262"><tspan
             x="0 2.3335407 4.6740036 7.9466252 13.545721 16.600925 20.265823 23.054878 25.402435 28.675056 31.01552 33.727505 36.376389 39.64901 43.377136 47.105263 49.712132 52.382111"
             y="0"
             sodipodi:role="line"
             id="tspan260">frame_start_addr_0</tspan></text></g><path
         d="m 3253.36,700.551 -41.25,48.75 63.44,3.121 z m 111.41,-21.289 -110.51,47.886 3.08,6.641 110.51,-47.848 -3.08,-6.679"
         style="fill:#0e0f0e;fill-opacity:1;fill-rule:evenodd;stroke:none"
         id="path264" /><path
         d="m 3253.36,700.551 2.85,2.418 -36.33,42.972 49.85,2.418 -19.81,-46.328 3.44,-1.48 2.85,2.418 -2.85,-2.418 3.48,-1.492 22.18,51.882 c 0.51,1.168 0.36,2.579 -0.39,3.629 -0.74,1.051 -1.99,1.68 -3.28,1.602 l -63.44,-3.121 c -1.4,-0.039 -2.69,-0.942 -3.28,-2.27 -0.54,-1.293 -0.31,-2.812 0.59,-3.91 l 41.29,-48.75 c 0.82,-1.012 2.11,-1.48 3.4,-1.281 1.32,0.191 2.42,1.012 2.93,2.219 z m 111.41,-21.289 1.48,3.437 -106.95,46.36 1.44,3.132 -3.4,1.598 -1.48,-3.437 106.95,-46.332 -1.44,-3.161 3.4,-1.597 1.48,3.437 -1.48,-3.437 3.39,-1.602 3.13,6.68 c 0.43,0.89 0.47,1.949 0.08,2.93 -0.35,0.929 -1.06,1.679 -1.99,2.101 l -110.51,47.859 c -1.88,0.821 -4.07,0 -4.92,-1.839 l -3.09,-6.641 c -0.43,-0.941 -0.47,-1.988 -0.12,-2.93 0.35,-0.98 1.1,-1.718 2.03,-2.109 l 110.47,-47.891 c 1.88,-0.82 4.06,0.039 4.92,1.84 l -3.39,1.602"
         style="fill:#0e0f0e;fill-opacity:1;fill-rule:nonzero;stroke:none"
         id="path266" /><path
         d="m 4104.34,308.121 h 614.18 v 483.75 h -614.18 z"
         style="fill:#9b9ca0;fill-opacity:1;fill-rule:evenodd;stroke:none"
         id="path268" /><path
         d="m 4104.34,791.871 v -3.75 h 610.43 v -476.25 h -606.68 v 480 h -3.75 v -3.75 3.75 h -3.75 v -483.75 c 0,-0.973 0.39,-1.949 1.09,-2.652 0.7,-0.699 1.68,-1.098 2.66,-1.098 h 614.18 c 1.01,0 1.99,0.399 2.65,1.098 0.71,0.703 1.13,1.679 1.13,2.652 v 483.75 c 0,0.981 -0.42,1.957 -1.13,2.66 -0.66,0.699 -1.64,1.09 -2.65,1.09 h -614.18 c -0.98,0 -1.96,-0.391 -2.66,-1.09 -0.7,-0.703 -1.09,-1.679 -1.09,-2.66 h 3.75"
         style="fill:#0e0f0e;fill-opacity:1;fill-rule:nonzero;stroke:none"
         id="path270" /><g
         id="g272"
         transform="scale(10)"><text
           transform="matrix(1,0,0,-0.99891119,411.063,42.4527)"
           style="font-variant:normal;font-weight:normal;font-size:12.0131px;font-family:Calibri;-inkscape-font-specification:Calibri;writing-mode:lr-tb;fill:#0e0f0e;fill-opacity:1;fill-rule:nonzero;stroke:none"
           id="text276"><tspan
             x="0 5.2255769 12.013035 18.812603 28.747604 36.628197 44.640747 53.121788"
             y="0"
             sodipodi:role="line"
             id="tspan274">FRAMEN+1</tspan></text></g><path
         d="m 4104.34,1948 h 614.18 v 113.48 h -614.18 z"
         style="fill:#9b9ca0;fill-opacity:1;fill-rule:evenodd;stroke:none"
         id="path278" /><path
         d="m 4104.34,2061.48 v -3.75 h 610.43 v -105.97 h -606.68 v 109.72 h -3.75 v -3.75 3.75 h -3.75 v -113.47 c 0,-1.02 0.39,-1.96 1.09,-2.66 0.7,-0.7 1.68,-1.09 2.66,-1.09 h 614.18 c 1.01,0 1.99,0.39 2.65,1.09 0.71,0.7 1.13,1.64 1.13,2.66 v 113.47 c 0,0.98 -0.42,1.96 -1.13,2.66 -0.66,0.7 -1.64,1.09 -2.65,1.09 h -614.18 c -0.98,0 -1.96,-0.39 -2.66,-1.09 -0.7,-0.7 -1.09,-1.68 -1.09,-2.66 h 3.75"
         style="fill:#0e0f0e;fill-opacity:1;fill-rule:nonzero;stroke:none"
         id="path280" /><g
         id="g282"
         transform="scale(10)"><text
           transform="matrix(1,0,0,-0.99891119,411.063,195.969)"
           style="font-variant:normal;font-weight:normal;font-size:12.0131px;font-family:Calibri;-inkscape-font-specification:Calibri;writing-mode:lr-tb;fill:#0e0f0e;fill-opacity:1;fill-rule:nonzero;stroke:none"
           id="text286"><tspan
             x="0 5.2255769 12.013035 18.812603 28.747604 37.625462 46.635273 53.122181"
             y="0"
             sodipodi:role="line"
             id="tspan284">FRAMEN+1</tspan></text></g><path
         d="m 4104.34,2061.48 v -3.75 h 610.43 V 311.871 H 4108.09 V 2061.48 h -3.75 v -3.75 3.75 h -3.75 V 308.121 c 0,-0.973 0.39,-1.949 1.09,-2.652 0.7,-0.699 1.68,-1.098 2.66,-1.098 h 614.18 c 1.01,0 1.99,0.399 2.65,1.098 0.71,0.703 1.13,1.679 1.13,2.652 V 2061.48 c 0,0.98 -0.42,1.96 -1.13,2.66 -0.66,0.7 -1.64,1.09 -2.65,1.09 h -614.18 c -0.98,0 -1.96,-0.39 -2.66,-1.09 -0.7,-0.7 -1.09,-1.68 -1.09,-2.66 h 3.75"
         style="fill:#0e0f0e;fill-opacity:1;fill-rule:nonzero;stroke:none"
         id="path288" /><g
         id="g290"
         transform="scale(10)"><text
           transform="matrix(1,0,0,-0.99891119,412.181,61.8277)"
           style="font-variant:normal;font-weight:normal;font-size:7.00763px;font-family:Calibri;-inkscape-font-specification:Calibri;writing-mode:lr-tb;fill:#0e0f0e;fill-opacity:1;fill-rule:nonzero;stroke:none"
           id="text294"><tspan
             x="0 2.3335183 4.674005 7.9466267 13.545723 17.610279 21.261114 24.057201 26.404757 29.670347 32.010834 34.722843 37.385784 40.651375 44.379501 48.107628 50.721554 53.377464"
             y="0"
             sodipodi:role="line"
             id="tspan292">frame_start_addr_0</tspan></text></g><path
         d="m 4159.8,700.551 -41.25,48.75 63.44,3.121 z m 111.41,-21.289 -110.51,47.886 3.13,6.641 110.47,-47.848 -3.09,-6.679"
         style="fill:#0e0f0e;fill-opacity:1;fill-rule:evenodd;stroke:none"
         id="path296" /><path
         d="m 4159.8,700.551 2.9,2.418 -36.37,42.972 49.84,2.418 -19.8,-46.328 3.43,-1.48 2.9,2.418 -2.9,-2.418 3.48,-1.492 22.19,51.882 c 0.51,1.168 0.35,2.579 -0.39,3.629 -0.74,1.051 -1.95,1.68 -3.24,1.602 l -63.48,-3.121 c -1.45,-0.039 -2.7,-0.942 -3.24,-2.27 -0.59,-1.293 -0.35,-2.812 0.54,-3.91 l 41.29,-48.75 c 0.82,-1.012 2.11,-1.48 3.4,-1.281 1.29,0.191 2.38,1.012 2.93,2.219 z m 111.41,-21.289 1.49,3.437 -106.96,46.36 1.49,3.132 -3.4,1.598 -1.53,-3.437 106.96,-46.332 -1.49,-3.161 3.44,-1.597 1.49,3.437 -1.49,-3.437 3.4,-1.563 3.09,6.641 c 0.43,0.89 0.46,1.949 0.11,2.93 -0.35,0.929 -1.09,1.679 -2.03,2.101 l -110.47,47.859 c -1.87,0.821 -4.06,0 -4.92,-1.839 l -3.09,-6.641 c -0.42,-0.941 -0.46,-1.988 -0.11,-2.93 0.35,-0.98 1.09,-1.718 2.03,-2.109 l 110.51,-47.891 c 1.83,-0.82 4.02,0.039 4.88,1.879 l -3.4,1.563"
         style="fill:#0e0f0e;fill-opacity:1;fill-rule:nonzero;stroke:none"
         id="path298" /><path
         d="m 4108.09,1405.39 h 606.68 v 538.871 h -606.68 z"
         style="fill:#453f3e;fill-opacity:1;fill-rule:nonzero;stroke:none"
         id="path300" /><path
         d="m 4108.09,1944.26 h 606.68 v 7.2969 h -606.68 z"
         style="fill:#121312;fill-opacity:1;fill-rule:nonzero;stroke:none"
         id="path302" /><path
         d="m 4718.52,1405.39 h -3.75 v 546.13 h 3.75 v -546.13 m -610.43,0 h -0.2 v 546.13 h 0.2 v -546.13"
         style="fill:#121312;fill-opacity:1;fill-rule:nonzero;stroke:none"
         id="path304" /><g
         id="g306"
         transform="scale(10)"><text
           transform="matrix(1,0,0,-0.99891119,411.259,162.961)"
           style="font-variant:normal;font-weight:normal;font-size:12.0131px;font-family:Calibri;-inkscape-font-specification:Calibri;writing-mode:lr-tb;fill:#0e0f0e;fill-opacity:1;fill-rule:nonzero;stroke:none"
           id="text310"><tspan
             x="0 5.2255769 12.013035 18.812603 28.747604 35.619213 43.631763 50.118671"
             y="0"
             sodipodi:role="line"
             id="tspan308">FRAMEN+3</tspan></text></g><path
         d="m 3845.39,1285.86 h 183.09 v 15.98 l 47.65,-32 -47.65,-31.99 v 15.98 h -183.09 v 32.03"
         style="fill:#5d92cc;fill-opacity:1;fill-rule:evenodd;stroke:none"
         id="path312" /><path
         d="m 3845.39,1285.86 v -3.75 h 183.09 c 0.97,0 1.95,0.39 2.65,1.09 0.71,0.71 1.1,1.64 1.1,2.66 v 8.94 l 37.18,-24.96 -37.18,-24.96 v 8.95 c 0,1.01 -0.39,1.95 -1.1,2.65 -0.7,0.71 -1.68,1.14 -2.65,1.14 h -179.3 v 28.24 h -3.79 v -3.75 3.75 h -3.75 v -32.03 c 0,-0.98 0.39,-1.96 1.09,-2.66 0.71,-0.7 1.68,-1.09 2.66,-1.09 h 179.34 v -12.23 c 0,-1.4 0.78,-2.65 1.99,-3.32 1.21,-0.66 2.69,-0.58 3.87,0.2 l 47.65,31.99 c 1.06,0.7 1.64,1.87 1.64,3.12 0,1.25 -0.58,2.43 -1.64,3.13 l -47.65,31.99 c -1.18,0.78 -2.66,0.86 -3.87,0.2 -1.21,-0.67 -1.99,-1.92 -1.99,-3.32 v -12.23 h -179.34 c -0.98,0 -1.95,-0.39 -2.66,-1.09 -0.7,-0.71 -1.09,-1.68 -1.09,-2.66 h 3.75"
         style="fill:#496d9a;fill-opacity:1;fill-rule:nonzero;stroke:none"
         id="path314" /><g
         id="g316"
         transform="scale(10)"><text
           transform="matrix(1,0,0,-0.99891119,383.681,113.914)"
           style="font-variant:normal;font-weight:normal;font-size:7.00763px;font-family:'Microsoft YaHei';-inkscape-font-specification:MicrosoftYaHei;writing-mode:lr-tb;fill:#0e0f0e;fill-opacity:1;fill-rule:nonzero;stroke:none"
           id="text320"><tspan
             x="0"
             y="0"
             id="tspan318">写</tspan></text><text
           transform="matrix(1,0,0,-0.99891119,391.22827,113.914)"
           style="font-variant:normal;font-weight:normal;font-size:7.00763px;font-family:Calibri;-inkscape-font-specification:Calibri;writing-mode:lr-tb;fill:#0e0f0e;fill-opacity:1;fill-rule:nonzero;stroke:none"
           id="text326"><tspan
             x="0 3.1115215 5.8375311 8.9558554 14.407833"
             y="0"
             sodipodi:role="line"
             id="tspan322">Frame</tspan><tspan
             x="-5.1882792 2.5202401 8.2386551"
             y="8.6113262"
             sodipodi:role="line"
             id="tspan324">N+3</tspan></text></g><path
         d="M 3.75,11.6797 V 7.89063 h 5159.06 c 0.98,0 1.96,0.39062 2.66,1.08984 0.7,0.71094 1.09,1.67973 1.09,2.69923 V 2196.25 c 0,0.98 -0.39,1.95 -1.09,2.66 -0.7,0.7 -1.68,1.09 -2.66,1.09 H 3.75 c -0.98047,0 -1.94922,-0.39 -2.66016,-1.09 C 0.390625,2198.2 0,2197.23 0,2196.25 V 11.6797 C 0,10.6602 0.390625,9.69141 1.08984,8.98047 1.80078,8.28125 2.76953,7.89063 3.75,7.89063 V 11.6797 H 7.5 V 2192.5 H 5159.06 V 15.4297 H 3.75 v -3.75 H 7.5 3.75"
         style="fill:#0e0f0e;fill-opacity:1;fill-rule:nonzero;stroke:none"
         id="path328" /><g
         id="g330"
         transform="scale(10)"><text
           transform="matrix(1,0,0,-0.99891119,110.672,107.032)"
           style="font-variant:normal;font-weight:normal;font-size:7.00763px;font-family:Calibri;-inkscape-font-specification:Calibri;writing-mode:lr-tb;fill:#0e0f0e;fill-opacity:1;fill-rule:nonzero;stroke:none"
           id="text334"><tspan
             x="0"
             y="0"
             id="tspan332">2</tspan></text></g></g></g></svg>
