<?xml version="1.0" encoding="UTF-8" standalone="no"?>
<svg
   xmlns:dc="http://purl.org/dc/elements/1.1/"
   xmlns:cc="http://creativecommons.org/ns#"
   xmlns:rdf="http://www.w3.org/1999/02/22-rdf-syntax-ns#"
   xmlns:svg="http://www.w3.org/2000/svg"
   xmlns="http://www.w3.org/2000/svg"
   xmlns:sodipodi="http://sodipodi.sourceforge.net/DTD/sodipodi-0.dtd"
   xmlns:inkscape="http://www.inkscape.org/namespaces/inkscape"
   version="1.1"
   id="svg2"
   xml:space="preserve"
   width="692.65332"
   height="673.50665"
   viewBox="0 0 692.65332 673.50665"
   sodipodi:docname="emac.svg"
   inkscape:version="1.0.1 (3bc2e813f5, 2020-09-07)"><metadata
     id="metadata8"><rdf:RDF><cc:Work
         rdf:about=""><dc:format>image/svg+xml</dc:format><dc:type
           rdf:resource="http://purl.org/dc/dcmitype/StillImage" /><dc:title></dc:title></cc:Work></rdf:RDF></metadata><defs
     id="defs6" /><sodipodi:namedview
     pagecolor="#ffffff"
     bordercolor="#666666"
     borderopacity="1"
     objecttolerance="10"
     gridtolerance="10"
     guidetolerance="10"
     inkscape:pageopacity="0"
     inkscape:pageshadow="2"
     inkscape:window-width="786"
     inkscape:window-height="480"
     id="namedview4"
     showgrid="false"
     inkscape:zoom="1.2605666"
     inkscape:cx="346.32666"
     inkscape:cy="336.75333"
     inkscape:window-x="0"
     inkscape:window-y="0"
     inkscape:window-maximized="0"
     inkscape:current-layer="g10" /><g
     id="g10"
     inkscape:groupmode="layer"
     inkscape:label="ink_ext_XXXXXX"
     transform="matrix(1.3333333,0,0,-1.3333333,0,673.50667)"><g
       id="g12"
       transform="scale(0.1)"><path
         d="M 293.684,163.75 H 3614.59 v 4580 H 293.684 Z"
         style="fill:none;stroke:#231f20;stroke-width:15;stroke-linecap:round;stroke-linejoin:round;stroke-miterlimit:10;stroke-dasharray:15, 30;stroke-dashoffset:0;stroke-opacity:1"
         id="path14" /><path
         d="m 1910.84,3206.93 h 767.08 v 968.74 h -767.08 z"
         style="fill:none;stroke:#231f20;stroke-width:7.5075;stroke-linecap:round;stroke-linejoin:round;stroke-miterlimit:10;stroke-dasharray:none;stroke-opacity:1"
         id="path16" /><g
         id="g18"
         transform="scale(10)"><text
           transform="matrix(1,0,0,-1,23.759,493.149)"
           style="font-variant:normal;font-weight:normal;font-size:9px;font-family:Arial;-inkscape-font-specification:ArialMT;writing-mode:lr-tb;fill:#231f20;fill-opacity:1;fill-rule:nonzero;stroke:none"
           id="text24"><tspan
             x="0 6.0752015 8.6474714 13.724619 18.801769 21.871109 26.948259 32.026394"
             y="0"
             sodipodi:role="line"
             id="tspan20">Ethernet</tspan><tspan
             x="0 6.5712881 11.648438 14.717777"
             y="10.8"
             sodipodi:role="line"
             id="tspan22">Core</tspan></text></g><path
         d="M 503.094,317.09 H 1241.25 V 4443.75 H 503.094 Z"
         style="fill:none;stroke:#231f20;stroke-width:10;stroke-linecap:round;stroke-linejoin:round;stroke-miterlimit:10;stroke-dasharray:none;stroke-opacity:1"
         id="path26" /><path
         d="M 3.75391,3.75 H 5191.15 V 5047.59 H 3.75391 Z"
         style="fill:none;stroke:#231f20;stroke-width:7.5075;stroke-linecap:round;stroke-linejoin:round;stroke-miterlimit:2;stroke-dasharray:none;stroke-opacity:1"
         id="path28" /><path
         d="M 133.867,2494.2 H 453.492"
         style="fill:none;stroke:#100f0f;stroke-width:7.51407;stroke-linecap:round;stroke-linejoin:round;stroke-miterlimit:10;stroke-dasharray:none;stroke-opacity:1"
         id="path30" /><path
         d="m 503.094,2494.2 -65.528,-32.73 c 10.317,20.59 10.317,44.86 0,65.46 l 65.528,-32.73 v 0 0 0"
         style="fill:#100f0f;fill-opacity:1;fill-rule:evenodd;stroke:none"
         id="path32" /><path
         d="m 71.5352,2492.55 65.5308,-32.74 c -10.32,20.6 -10.32,44.87 0,65.47 l -65.5308,-32.73 v 0 0 0"
         style="fill:#100f0f;fill-opacity:1;fill-rule:evenodd;stroke:none"
         id="path34" /><g
         id="g36"
         transform="scale(10)"><text
           transform="matrix(1,0,0,-1,57.0918,257.816)"
           style="font-variant:normal;font-weight:normal;font-size:9px;font-family:Arial;-inkscape-font-specification:ArialMT;writing-mode:lr-tb;fill:#231f20;fill-opacity:1;fill-rule:nonzero;stroke:none"
           id="text40"><tspan
             x="0 6.571291 11.648441 16.220713 18.792984 21.366217 23.938486 29.015638 31.587908 36.666042 39.734402 42.307644 47.384789 51.956078"
             y="0"
             sodipodi:role="line"
             id="tspan38">Host Interface</tspan></text></g><path
         d="m 1346.25,4063.75 h 538.42"
         style="fill:none;stroke:#100f0f;stroke-width:7.51407;stroke-linecap:round;stroke-linejoin:round;stroke-miterlimit:10;stroke-dasharray:none;stroke-opacity:1"
         id="path42" /><path
         d="m 1241.25,4062.11 110.39,-32.74 c -17.38,20.6 -17.38,44.86 0,65.46 l -110.39,-32.72 v 0 0 0"
         style="fill:#100f0f;fill-opacity:1;fill-rule:evenodd;stroke:none"
         id="path44" /><path
         d="m 1900.84,4063.75 -110.39,-32.73 c 17.38,20.6 17.38,44.86 0,65.46 l 110.39,-32.73 v 0 0 0"
         style="fill:#100f0f;fill-opacity:1;fill-rule:evenodd;stroke:none"
         id="path46" /><path
         d="m 1353.2,3710.79 h 541.38"
         style="fill:none;stroke:#100f0f;stroke-width:7.51407;stroke-linecap:round;stroke-linejoin:round;stroke-miterlimit:10;stroke-dasharray:none;stroke-opacity:1"
         id="path48" /><path
         d="m 1247.62,3709.13 111,-32.72 c -17.49,20.6 -17.49,44.85 0,65.45 l -111,-32.73 v 0 0 0"
         style="fill:#100f0f;fill-opacity:1;fill-rule:evenodd;stroke:none"
         id="path50" /><path
         d="m 1910.84,3710.79 -111,-32.73 c 17.48,20.6 17.48,44.85 0,65.45 l 111,-32.72 v 0 0 0"
         style="fill:#100f0f;fill-opacity:1;fill-rule:evenodd;stroke:none"
         id="path52" /><g
         id="g54"
         transform="scale(10)"><text
           transform="matrix(1,0,0,-1,128.402,417.566)"
           style="font-variant:normal;font-weight:normal;font-size:9px;font-family:Arial;-inkscape-font-specification:ArialMT;writing-mode:lr-tb;fill:#231f20;fill-opacity:1;fill-rule:nonzero;stroke:none"
           id="text68"><tspan
             x="0 5.5693369 10.141615 12.713879 19.28517 24.363302 26.935566"
             y="0"
             sodipodi:role="line"
             id="tspan56">Tx Data</tspan><tspan
             x="65.690201 71.259537 77.334732 79.907021 85.982208 88.554474 93.631615 98.70974 101.7781 106.85622 111.93336 114.50565 117.07792 124.64725 130.72244"
             y="49.926601"
             sodipodi:role="line"
             id="tspan58">TX Ethernet MAC</tspan><tspan
             x="-1.0059 4.563437 9.1357145 11.707978 18.27927 23.357403 28.434547 31.006811 34.076149 39.153294 41.224598"
             y="25.750401"
             sodipodi:role="line"
             id="tspan60">Tx Control </tspan><tspan
             x="6.3851199 12.460313 14.531604 19.608761 24.685905 29.764027 31.835318"
             y="36.5504"
             sodipodi:role="line"
             id="tspan62">Signals</tspan><tspan
             x="-1.0059 4.563437 9.1357145 11.707978 18.27927 23.357403 28.434547 31.006811 34.076149 39.153294 41.224598"
             y="65.417603"
             sodipodi:role="line"
             id="tspan64">Tx Control </tspan><tspan
             x="6.3851199 12.460313 14.531604 19.608761 24.685905 29.764027 31.835318"
             y="76.217598"
             sodipodi:role="line"
             id="tspan66">Signals</tspan></text></g><path
         d="m 1347.84,3307.08 h 546.58"
         style="fill:none;stroke:#100f0f;stroke-width:7.51407;stroke-linecap:round;stroke-linejoin:round;stroke-miterlimit:10;stroke-dasharray:none;stroke-opacity:1"
         id="path70" /><path
         d="m 1241.25,3305.43 112.06,-32.73 c -17.64,20.6 -17.64,44.86 0,65.46 l -112.06,-32.73 v 0 0 0"
         style="fill:#100f0f;fill-opacity:1;fill-rule:evenodd;stroke:none"
         id="path72" /><path
         d="m 1910.84,3307.08 -112.06,-32.73 c 17.65,20.61 17.65,44.87 0,65.46 l 112.06,-32.73 v 0 0 0"
         style="fill:#100f0f;fill-opacity:1;fill-rule:evenodd;stroke:none"
         id="path74" /><path
         d="m 1354.21,2677.08 h 546.58"
         style="fill:none;stroke:#100f0f;stroke-width:7.51407;stroke-linecap:round;stroke-linejoin:round;stroke-miterlimit:10;stroke-dasharray:none;stroke-opacity:1"
         id="path76" /><path
         d="m 1247.62,2675.43 112.06,-32.73 c -17.65,20.6 -17.65,44.86 0,65.46 l -112.06,-32.73 v 0 0 0"
         style="fill:#100f0f;fill-opacity:1;fill-rule:evenodd;stroke:none"
         id="path78" /><path
         d="m 1917.2,2677.08 -112.06,-32.73 c 17.65,20.61 17.65,44.87 0,65.46 l 112.06,-32.73 v 0 0 0"
         style="fill:#100f0f;fill-opacity:1;fill-rule:evenodd;stroke:none"
         id="path80" /><path
         d="m 1333.05,1873.61 h 546.58"
         style="fill:none;stroke:#100f0f;stroke-width:7.51407;stroke-linecap:round;stroke-linejoin:round;stroke-miterlimit:10;stroke-dasharray:none;stroke-opacity:1"
         id="path82" /><path
         d="m 1226.46,1871.96 112.06,-32.73 c -17.65,20.6 -17.65,44.86 0,65.46 l -112.06,-32.73 v 0 0 0"
         style="fill:#100f0f;fill-opacity:1;fill-rule:evenodd;stroke:none"
         id="path84" /><path
         d="m 1896.04,1873.61 -112.05,-32.73 c 17.64,20.6 17.64,44.86 0,65.46 l 112.05,-32.73 v 0 0 0"
         style="fill:#100f0f;fill-opacity:1;fill-rule:evenodd;stroke:none"
         id="path86" /><path
         d="m 1354.21,1010.42 h 546.58"
         style="fill:none;stroke:#100f0f;stroke-width:7.51407;stroke-linecap:round;stroke-linejoin:round;stroke-miterlimit:10;stroke-dasharray:none;stroke-opacity:1"
         id="path88" /><path
         d="m 1247.62,1008.77 112.06,-32.739 c -17.65,20.61 -17.65,44.869 0,65.459 l -112.06,-32.72 v 0 0 0"
         style="fill:#100f0f;fill-opacity:1;fill-rule:evenodd;stroke:none"
         id="path90" /><path
         d="m 1917.2,1010.42 -112.06,-32.74 c 17.65,20.609 17.65,44.87 0,65.47 l 112.06,-32.73 v 0 0 0"
         style="fill:#100f0f;fill-opacity:1;fill-rule:evenodd;stroke:none"
         id="path92" /><g
         id="g94"
         transform="scale(10)"><text
           transform="matrix(1,0,0,-1,128.063,286.482)"
           style="font-variant:normal;font-weight:normal;font-size:9px;font-family:Arial;-inkscape-font-specification:ArialMT;writing-mode:lr-tb;fill:#231f20;fill-opacity:1;fill-rule:nonzero;stroke:none"
           id="text108"><tspan
             x="0 5.5693369 10.141615 12.713879 19.28517 24.363302 29.440447 32.012711 35.08205 40.159195 42.230499"
             y="0"
             sodipodi:role="line"
             id="tspan96">Tx Control </tspan><tspan
             x="7.3910198 13.466212 15.537503 20.61466 25.691805 30.769926 32.841217"
             y="10.8"
             sodipodi:role="line"
             id="tspan98">Signals</tspan><tspan
             x="0 5.5693369 10.141615 12.713879 19.28517 24.363302 29.440447 32.012711 35.08205 40.159195 42.230499"
             y="79.440201"
             sodipodi:role="line"
             id="tspan100">Tx Control </tspan><tspan
             x="7.3910198 13.466212 15.537503 20.61466 25.691805 30.769926 32.841217"
             y="90.239799"
             sodipodi:role="line"
             id="tspan102">Signals</tspan><tspan
             x="5.33321 10.902547 15.474825 18.047089 24.61838 29.696512 34.773659 37.345921 40.41526 45.492405 47.563709"
             y="166.666"
             sodipodi:role="line"
             id="tspan104">Tx Control </tspan><tspan
             x="12.72423 18.799423 20.870714 25.94787 31.025015 36.103134 38.174427"
             y="177.466"
             sodipodi:role="line"
             id="tspan106">Signals</tspan></text></g><path
         d="m 1920.84,2350.42 h 767.08 v 655.25 h -767.08 z"
         style="fill:none;stroke:#231f20;stroke-width:7.5075;stroke-linecap:round;stroke-linejoin:round;stroke-miterlimit:10;stroke-dasharray:none;stroke-opacity:1"
         id="path110" /><g
         id="g112"
         transform="scale(10)"><text
           transform="matrix(1,0,0,-1,195.777,270.64)"
           style="font-variant:normal;font-weight:normal;font-size:7.5px;font-family:Arial;-inkscape-font-specification:ArialMT;writing-mode:lr-tb;fill:#231f20;fill-opacity:1;fill-rule:nonzero;stroke:none"
           id="text118"><tspan
             x="0 6.3076196 11.37013 16.846703 18.990246 24.465843 28.697292 32.928741 35.072289 37.629894 41.86137 43.586964 45.731487 52.038116 56.269569 60.501019 64.732468 66.458061"
             y="0"
             sodipodi:role="line"
             id="tspan114">MAC Control Module</tspan><tspan
             x="12.2121 14.769708 19.411314 21.136909 25.368361 30.844933 32.988476 36.798046 41.029499 45.260971 47.404491 49.962101 54.193573 55.91917"
             y="9"
             sodipodi:role="line"
             id="tspan116">(Flow control)</tspan></text></g><path
         d="m 1890.84,1630.42 h 767.08 v 520 h -767.08 z"
         style="fill:none;stroke:#231f20;stroke-width:7.5075;stroke-linecap:round;stroke-linejoin:round;stroke-miterlimit:10;stroke-dasharray:none;stroke-opacity:1"
         id="path120" /><g
         id="g122"
         transform="scale(10)"><text
           transform="matrix(1,0,0,-1,191.092,184.64)"
           style="font-variant:normal;font-weight:normal;font-size:9px;font-family:Arial;-inkscape-font-specification:ArialMT;writing-mode:lr-tb;fill:#231f20;fill-opacity:1;fill-rule:nonzero;stroke:none"
           id="text126"><tspan
             x="0 6.571291 12.646483 15.218747 21.293964 23.866228 28.943373 34.021492 37.089855 42.167976 47.245121 49.817387 52.389671 59.959011 66.034203"
             y="0"
             sodipodi:role="line"
             id="tspan124">RX Ethernet MAC</tspan></text></g><path
         d="m 1910.84,690.422 h 767.08 v 655.248 h -767.08 z"
         style="fill:none;stroke:#231f20;stroke-width:7.5075;stroke-linecap:round;stroke-linejoin:round;stroke-miterlimit:10;stroke-dasharray:none;stroke-opacity:1"
         id="path128" /><g
         id="g130"
         transform="scale(10)"><text
           transform="matrix(1,0,0,-1,201.564,104.64)"
           style="font-variant:normal;font-weight:normal;font-size:7.5px;font-family:Arial;-inkscape-font-specification:ArialMT;writing-mode:lr-tb;fill:#231f20;fill-opacity:1;fill-rule:nonzero;stroke:none"
           id="text136"><tspan
             x="0 6.3076072 8.4511518 10.594697 12.739219 19.045849 23.2773 27.508751 31.7402 35.970673 40.202126 46.509754 50.741207 54.97168"
             y="0"
             sodipodi:role="line"
             id="tspan132">MII Management</tspan><tspan
             x="18.194099 24.501707 28.733158 32.963631 37.195107"
             y="9"
             sodipodi:role="line"
             id="tspan134">Modul</tspan></text></g><path
         d="m 1734.59,1503.75 h 1160 v 2866.67 h -1160 z"
         style="fill:none;stroke:#231f20;stroke-width:15;stroke-linecap:round;stroke-linejoin:round;stroke-miterlimit:10;stroke-dasharray:15, 30;stroke-dashoffset:0;stroke-opacity:1"
         id="path138" /><g
         id="g140"
         transform="scale(10)"><text
           transform="matrix(1,0,0,-1,173.458,445.816)"
           style="font-variant:normal;font-weight:normal;font-size:9px;font-family:Arial;-inkscape-font-specification:ArialMT;writing-mode:lr-tb;fill:#231f20;fill-opacity:1;fill-rule:nonzero;stroke:none"
           id="text144"><tspan
             x="0 7.5693388 13.643555"
             y="0"
             sodipodi:role="line"
             id="tspan142">MAC</tspan></text></g><path
         d="m 2823.76,3437.23 h 884.16"
         style="fill:none;stroke:#100f0f;stroke-width:7.51407;stroke-linecap:round;stroke-linejoin:round;stroke-miterlimit:10;stroke-dasharray:none;stroke-opacity:1"
         id="path146" /><path
         d="m 2687.92,3435.58 142.81,-32.73 c -22.49,20.6 -22.49,44.86 0,65.46 l -142.81,-32.73 v 0 0 0"
         style="fill:#100f0f;fill-opacity:1;fill-rule:evenodd;stroke:none"
         id="path148" /><path
         d="m 3811.26,3437.23 -142.82,-32.73 c 22.49,20.6 22.49,44.86 0,65.46 l 142.82,-32.73 v 0 0 0"
         style="fill:#100f0f;fill-opacity:1;fill-rule:evenodd;stroke:none"
         id="path150" /><path
         d="m 2677.92,3885.43 h 1030"
         style="fill:none;stroke:#100f0f;stroke-width:7.51407;stroke-linecap:round;stroke-linejoin:round;stroke-miterlimit:10;stroke-dasharray:none;stroke-opacity:1"
         id="path152" /><path
         d="m 3820.33,3885.43 -167.68,-32.73 c 26.41,20.6 26.41,44.86 0,65.46 l 167.68,-32.73 v 0 0 0"
         style="fill:#100f0f;fill-opacity:1;fill-rule:evenodd;stroke:none"
         id="path154" /><path
         d="m 3833.09,187.09 h 738.17 v 4126.66 h -738.17 z"
         style="fill:none;stroke:#231f20;stroke-width:10;stroke-linecap:round;stroke-linejoin:round;stroke-miterlimit:10;stroke-dasharray:none;stroke-opacity:1"
         id="path156" /><g
         id="g158"
         transform="scale(10)"><text
           transform="matrix(1,0,0,-1,395.092,238.816)"
           style="font-variant:normal;font-weight:normal;font-size:9px;font-family:Arial;-inkscape-font-specification:ArialMT;writing-mode:lr-tb;fill:#231f20;fill-opacity:1;fill-rule:nonzero;stroke:none"
           id="text170"><tspan
             x="0 6.0751925 8.6474562 13.724601 18.801744 21.871059 26.948204 32.026325 34.598637 37.170902 43.246117 49.81741"
             y="0"
             sodipodi:role="line"
             id="tspan160">Ethernet PHY</tspan><tspan
             x="-87.691002 -82.121666 -77.5494 -74.977112 -68.405815 -63.327698 -60.755432"
             y="-158.418"
             sodipodi:role="line"
             id="tspan162">Tx Data</tspan><tspan
             x="-87.691002 -82.121666 -77.5494 -74.977112 -68.901917 -62.330627"
             y="-133.3141"
             sodipodi:role="line"
             id="tspan164">Tx PHY</tspan><tspan
             x="-87.691002 -81.119705 -76.042564 -70.964447 -68.392181 -65.322815 -60.24567"
             y="-122.5141"
             sodipodi:role="line"
             id="tspan166">Control</tspan><tspan
             x="-87.691002 -81.615807 -79.544518 -74.467369 -69.390228 -64.31208 -62.240791"
             y="-111.7141"
             sodipodi:role="line"
             id="tspan168">Signals</tspan></text></g><path
         d="m 2817.61,1677.23 h 909.22"
         style="fill:none;stroke:#100f0f;stroke-width:7.51407;stroke-linecap:round;stroke-linejoin:round;stroke-miterlimit:10;stroke-dasharray:none;stroke-opacity:1"
         id="path172" /><path
         d="m 2677.92,1675.58 146.86,-32.73 c -23.13,20.6 -23.13,44.86 0,65.46 l -146.86,-32.73 v 0 0 0"
         style="fill:#100f0f;fill-opacity:1;fill-rule:evenodd;stroke:none"
         id="path174" /><path
         d="m 3833.09,1677.23 -146.85,-32.73 c 23.12,20.6 23.12,44.86 0,65.46 l 146.85,-32.73 v 0 0 0"
         style="fill:#100f0f;fill-opacity:1;fill-rule:evenodd;stroke:none"
         id="path176" /><path
         d="m 2787.92,2115.43 h 1030"
         style="fill:none;stroke:#100f0f;stroke-width:7.51407;stroke-linecap:round;stroke-linejoin:round;stroke-miterlimit:10;stroke-dasharray:none;stroke-opacity:1"
         id="path178" /><path
         d="m 2652.65,2115.43 167.68,-32.73 c -26.41,20.6 -26.41,44.86 0,65.46 l -167.68,-32.73 v 0 0 0"
         style="fill:#100f0f;fill-opacity:1;fill-rule:evenodd;stroke:none"
         id="path180" /><g
         id="g182"
         transform="scale(10)"><text
           transform="matrix(1,0,0,-1,306.401,220.234)"
           style="font-variant:normal;font-weight:normal;font-size:9px;font-family:Arial;-inkscape-font-specification:ArialMT;writing-mode:lr-tb;fill:#231f20;fill-opacity:1;fill-rule:nonzero;stroke:none"
           id="text194"><tspan
             x="0 6.571291 11.143557 13.71582 20.287111 25.365257 27.937521"
             y="0"
             sodipodi:role="line"
             id="tspan184">Rx Data</tspan><tspan
             x="0 6.571291 11.143557 13.71582 19.791037 26.362328"
             y="25.103901"
             sodipodi:role="line"
             id="tspan186">Rx PHY</tspan><tspan
             x="0 6.571291 11.648436 16.726557 19.29882 22.368183 27.445328"
             y="35.9039"
             sodipodi:role="line"
             id="tspan188">Control</tspan><tspan
             x="0 6.0751925 8.1464834 13.223628 18.300772 23.378918 25.450209"
             y="46.703899"
             sodipodi:role="line"
             id="tspan190">Signals</tspan><tspan
             x="-299.24799 -294.17084 -289.09369"
             y="-36.473801"
             sodipodi:role="line"
             id="tspan192">bus</tspan></text></g><path
         d="m 2827.95,939.66 h 909.22"
         style="fill:none;stroke:#100f0f;stroke-width:7.51407;stroke-linecap:round;stroke-linejoin:round;stroke-miterlimit:10;stroke-dasharray:none;stroke-opacity:1"
         id="path196" /><path
         d="m 2688.25,938.012 146.86,-32.731 c -23.13,20.598 -23.13,44.86 0,65.457 l -146.86,-32.726 v 0 0 0"
         style="fill:#100f0f;fill-opacity:1;fill-rule:evenodd;stroke:none"
         id="path198" /><path
         d="m 3843.42,939.66 -146.85,-32.73 c 23.12,20.601 23.12,44.859 0,65.461 l 146.85,-32.731 v 0 0 0"
         style="fill:#100f0f;fill-opacity:1;fill-rule:evenodd;stroke:none"
         id="path200" /><g
         id="g202"
         transform="scale(10)"><text
           transform="matrix(1,0,0,-1,290.145,110.64)"
           style="font-variant:normal;font-weight:normal;font-size:9px;font-family:Arial;-inkscape-font-specification:ArialMT;writing-mode:lr-tb;fill:#231f20;fill-opacity:1;fill-rule:nonzero;stroke:none"
           id="text208"><tspan
             x="0 7.5693388 12.646483 17.723627 22.800772 27.878918 32.956062 40.525402 45.602547 50.679691"
             y="0"
             sodipodi:role="line"
             id="tspan204">Management</tspan><tspan
             x="16.976999 23.54829 28.625435 31.198675"
             y="10.7988"
             sodipodi:role="line"
             id="tspan206">Data</tspan></text></g><path
         d="m 4656.37,2367.08 h 455.1"
         style="fill:none;stroke:#100f0f;stroke-width:7.51407;stroke-linecap:round;stroke-linejoin:round;stroke-miterlimit:10;stroke-dasharray:none;stroke-opacity:1"
         id="path210" /><path
         d="m 4567.62,2365.43 93.3,-32.73 c -14.69,20.6 -14.69,44.86 0,65.46 l -93.3,-32.73 v 0 0 0"
         style="fill:#100f0f;fill-opacity:1;fill-rule:evenodd;stroke:none"
         id="path212" /><path
         d="m 5125.14,2367.08 -93.31,-32.73 c 14.7,20.61 14.7,44.87 0,65.46 l 93.31,-32.73 v 0 0 0"
         style="fill:#100f0f;fill-opacity:1;fill-rule:evenodd;stroke:none"
         id="path214" /><g
         id="g216"
         transform="scale(10)"><text
           transform="matrix(1,0,0,-1,465.637,246.708)"
           style="font-variant:normal;font-weight:normal;font-size:9px;font-family:Arial;-inkscape-font-specification:ArialMT;writing-mode:lr-tb;fill:#231f20;fill-opacity:1;fill-rule:nonzero;stroke:none"
           id="text220"><tspan
             x="0 6.0752168 8.64748 13.724625 18.801769 21.871084 26.948229 32.026348"
             y="0"
             sodipodi:role="line"
             id="tspan218">Ethernet</tspan></text></g></g></g></svg>
