<?xml version="1.0" encoding="UTF-8" standalone="no"?>
<svg
   xmlns:dc="http://purl.org/dc/elements/1.1/"
   xmlns:cc="http://creativecommons.org/ns#"
   xmlns:rdf="http://www.w3.org/1999/02/22-rdf-syntax-ns#"
   xmlns:svg="http://www.w3.org/2000/svg"
   xmlns="http://www.w3.org/2000/svg"
   xmlns:sodipodi="http://sodipodi.sourceforge.net/DTD/sodipodi-0.dtd"
   xmlns:inkscape="http://www.inkscape.org/namespaces/inkscape"
   version="1.1"
   id="svg2"
   xml:space="preserve"
   width="688.88"
   height="140.45332"
   viewBox="0 0 688.88 140.45332"
   sodipodi:docname="stop_start.svg"
   inkscape:version="1.0.1 (3bc2e813f5, 2020-09-07)"><metadata
     id="metadata8"><rdf:RDF><cc:Work
         rdf:about=""><dc:format>image/svg+xml</dc:format><dc:type
           rdf:resource="http://purl.org/dc/dcmitype/StillImage" /><dc:title></dc:title></cc:Work></rdf:RDF></metadata><defs
     id="defs6" /><sodipodi:namedview
     pagecolor="#ffffff"
     bordercolor="#666666"
     borderopacity="1"
     objecttolerance="10"
     gridtolerance="10"
     guidetolerance="10"
     inkscape:pageopacity="0"
     inkscape:pageshadow="2"
     inkscape:window-width="788"
     inkscape:window-height="480"
     id="namedview4"
     showgrid="false"
     inkscape:zoom="1.5967948"
     inkscape:cx="344.44"
     inkscape:cy="70.226662"
     inkscape:window-x="0"
     inkscape:window-y="0"
     inkscape:window-maximized="0"
     inkscape:current-layer="g10" /><g
     id="g10"
     inkscape:groupmode="layer"
     inkscape:label="ink_ext_XXXXXX"
     transform="matrix(1.3333333,0,0,-1.3333333,0,140.45333)"><g
       id="g12"
       transform="scale(0.1)"><path
         d="m 529.469,292.082 v -0.012 h 5 v 0.012 z m 0,40 v -10 h 5 v 10 z m 0,40 v -10 h 5 v 10 z m 0,40 v -10 h 5 v 10 z m 0,40 v -10 h 5 v 10 z m 0,40 v -10 h 5 v 10 z m 0,40 v -10 h 5 v 10 z m 0,39.988 v -9.988 h 5 v 9.988 z m 0,40 v -10 h 5 v 10 z m 0,40 v -10 h 5 v 10 z m 0,40 v -10 h 5 v 10 z m 0,40 v -10 h 5 v 10 z m 0,40 v -10 h 5 v 10 z m 0,40 v -10 h 5 v 10 z m 0,40 v -10 h 5 v 10 z m 0,40 v -10 h 5 v 10 h -5"
         style="fill:#7f8288;fill-opacity:1;fill-rule:nonzero;stroke:none"
         id="path14" /><path
         d="m 929.469,292.082 v -0.012 h 5 v 0.012 h -5 m 0,40 V 322.07 h 5 v 10.012 h -5 m 0,40 v -10 h 5 v 10 h -5 m 0,39.988 v -9.988 h 5 v 9.988 h -5 m 0,40.012 v -10 h 5 v 10 h -5 m 0,40 V 482.07 h 5 v 10.012 h -5 m 0,39.988 v -9.988 h 5 v 9.988 h -5 m 0,40 v -9.988 h 5 v 9.988 h -5 m 0,40.012 V 602.07 h 5 v 10.012 h -5 m 0,39.988 v -9.988 h 5 v 9.988 h -5 m 0,40 v -9.988 h 5 v 9.988 h -5 m 0,40.012 V 722.07 h 5 v 10.012 h -5 m 0,39.988 v -10 h 5 v 10 h -5 m 0,40 v -9.988 h 5 v 9.988 h -5 m 0,40.012 V 842.07 h 5 v 10.012 h -5 m 0,40 V 882.07 h 5 v 10.012 h -5"
         style="fill:#7f8288;fill-opacity:1;fill-rule:nonzero;stroke:none"
         id="path16" /><path
         d="m 1329.47,292.082 v -0.012 h 5 v 0.012 z m 0,40 v -10 h 5 v 10 z m 0,40 v -10 h 5 v 10 z m 0,40 v -10 h 5 v 10 z m 0,40 v -10 h 5 v 10 z m 0,40 v -10 h 5 v 10 z m 0,40 v -10 h 5 v 10 z m 0,39.988 v -9.988 h 5 v 9.988 z m 0,40 v -10 h 5 v 10 z m 0,40 v -10 h 5 v 10 z m 0,40 v -10 h 5 v 10 z m 0,40 v -10 h 5 v 10 z m 0,40 v -10 h 5 v 10 z m 0,40 v -10 h 5 v 10 z m 0,40 v -10 h 5 v 10 z m 0,40 v -10 h 5 v 10 h -5"
         style="fill:#7f8288;fill-opacity:1;fill-rule:nonzero;stroke:none"
         id="path18" /><path
         d="m 1729.47,292.082 v -0.012 h 5 v 0.012 z m 0,40 v -10 h 5 v 10 z m 0,40 v -10 h 5 v 10 z m 0,40 v -10 h 5 v 10 z m 0,40 v -10 h 5 v 10 z m 0,40 v -10 h 5 v 10 z m 0,40 v -10 h 5 v 10 z m 0,39.988 v -9.988 h 5 v 9.988 z m 0,40 v -10 h 5 v 10 z m 0,40 v -10 h 5 v 10 z m 0,40 v -10 h 5 v 10 z m 0,40 v -10 h 5 v 10 z m 0,40 v -10 h 5 v 10 z m 0,40 v -10 h 5 v 10 z m 0,40 v -10 h 5 v 10 z m 0,40 v -10 h 5 v 10 h -5"
         style="fill:#7f8288;fill-opacity:1;fill-rule:nonzero;stroke:none"
         id="path20" /><path
         d="m 2129.47,292.082 v -0.012 h 5 v 0.012 z m 0,40 v -10 h 5 v 10 z m 0,40 v -10 h 5 v 10 z m 0,40 v -10 h 5 v 10 z m 0,40 v -10 h 5 v 10 z m 0,40 v -10 h 5 v 10 z m 0,40 v -10 h 5 v 10 z m 0,39.988 v -9.988 h 5 v 9.988 z m 0,40 v -10 h 5 v 10 z m 0,40 v -10 h 5 v 10 z m 0,40 v -10 h 5 v 10 z m 0,40 v -10 h 5 v 10 z m 0,40 v -10 h 5 v 10 z m 0,40 v -10 h 5 v 10 z m 0,40 v -10 h 5 v 10 z m 0,40 v -10 h 5 v 10 h -5"
         style="fill:#7f8288;fill-opacity:1;fill-rule:nonzero;stroke:none"
         id="path22" /><path
         d="m 2529.47,292.082 v -0.012 h 5 v 0.012 z m 0,40 v -10 h 5 v 10 z m 0,40 v -10 h 5 v 10 z m 0,40 v -10 h 5 v 10 z m 0,40 v -10 h 5 v 10 z m 0,40 v -10 h 5 v 10 z m 0,40 v -10 h 5 v 10 z m 0,39.988 v -9.988 h 5 v 9.988 z m 0,40 v -10 h 5 v 10 z m 0,40 v -10 h 5 v 10 z m 0,40 v -10 h 5 v 10 z m 0,40 v -10 h 5 v 10 z m 0,40 v -10 h 5 v 10 z m 0,40 v -10 h 5 v 10 z m 0,40 v -10 h 5 v 10 z m 0,40 v -10 h 5 v 10 h -5"
         style="fill:#7f8288;fill-opacity:1;fill-rule:nonzero;stroke:none"
         id="path24" /><path
         d="m 2929.46,292.082 v -0.012 h 5 v 0.012 z m 0,40 v -10 h 5 v 10 z m 0,40 v -10 h 5 v 10 z m 0,40 v -10 h 5 v 10 z m 0,40 v -10 h 5 v 10 z m 0,40 v -10 h 5 v 10 z m 0,40 v -10 h 5 v 10 z m 0,39.988 v -9.988 h 5 v 9.988 z m 0,40 v -10 h 5 v 10 z m 0,40 v -10 h 5 v 10 z m 0,40 v -10 h 5 v 10 z m 0,40 v -10 h 5 v 10 z m 0,40 v -10 h 5 v 10 z m 0,40 v -10 h 5 v 10 z m 0,40 v -10 h 5 v 10 z m 0,40 v -10 h 5 v 10 h -5"
         style="fill:#7f8288;fill-opacity:1;fill-rule:nonzero;stroke:none"
         id="path26" /><path
         d="m 3329.46,292.082 v -0.012 h 5 v 0.012 z m 0,40 v -10 h 5 v 10 z m 0,40 v -10 h 5 v 10 z m 0,40 v -10 h 5 v 10 z m 0,40 v -10 h 5 v 10 z m 0,40 v -10 h 5 v 10 z m 0,40 v -10 h 5 v 10 z m 0,39.988 v -9.988 h 5 v 9.988 z m 0,40 v -10 h 5 v 10 z m 0,40 v -10 h 5 v 10 z m 0,40 v -10 h 5 v 10 z m 0,40 v -10 h 5 v 10 z m 0,40 v -10 h 5 v 10 z m 0,40 v -10 h 5 v 10 z m 0,40 v -10 h 5 v 10 z m 0,40 v -10 h 5 v 10 h -5"
         style="fill:#7f8288;fill-opacity:1;fill-rule:nonzero;stroke:none"
         id="path28" /><path
         d="m 3729.46,292.082 v -0.012 h 5 v 0.012 z m 0,40 v -10 h 5 v 10 z m 0,40 v -10 h 5 v 10 z m 0,40 v -10 h 5 v 10 z m 0,40 v -10 h 5 v 10 z m 0,40 v -10 h 5 v 10 z m 0,40 v -10 h 5 v 10 z m 0,39.988 v -9.988 h 5 v 9.988 z m 0,40 v -10 h 5 v 10 z m 0,40 v -10 h 5 v 10 z m 0,40 v -10 h 5 v 10 z m 0,40 v -10 h 5 v 10 z m 0,40 v -10 h 5 v 10 z m 0,40 v -10 h 5 v 10 z m 0,40 v -10 h 5 v 10 z m 0,40 v -10 h 5 v 10 h -5"
         style="fill:#7f8288;fill-opacity:1;fill-rule:nonzero;stroke:none"
         id="path30" /><path
         d="m 4129.46,292.082 v -0.012 h 5 v 0.012 z m 0,40 v -10 h 5 v 10 z m 0,40 v -10 h 5 v 10 z m 0,40 v -10 h 5 v 10 z m 0,40 v -10 h 5 v 10 z m 0,40 v -10 h 5 v 10 z m 0,40 v -10 h 5 v 10 z m 0,39.988 v -9.988 h 5 v 9.988 z m 0,40 v -10 h 5 v 10 z m 0,40 v -10 h 5 v 10 z m 0,40 v -10 h 5 v 10 z m 0,40 v -10 h 5 v 10 z m 0,40 v -10 h 5 v 10 z m 0,40 v -10 h 5 v 10 z m 0,40 v -10 h 5 v 10 z m 0,40 v -10 h 5 v 10 h -5"
         style="fill:#7f8288;fill-opacity:1;fill-rule:nonzero;stroke:none"
         id="path32" /><path
         d="m 4529.47,292.082 v -0.012 h 4.99 v 0.012 h -4.99 m 0,40 V 322.07 h 4.99 v 10.012 h -4.99 m 0,40 v -10 h 4.99 v 10 h -4.99 m 0,39.988 v -9.988 h 4.99 v 9.988 h -4.99 m 0,40.012 v -10 h 4.99 v 10 h -4.99 m 0,40 V 482.07 h 4.99 v 10.012 h -4.99 m 0,39.988 v -9.988 h 4.99 v 9.988 h -4.99 m 0,40 v -9.988 h 4.99 v 9.988 h -4.99 m 0,40.012 V 602.07 h 4.99 v 10.012 h -4.99 m 0,39.988 v -9.988 h 4.99 v 9.988 h -4.99 m 0,40 v -9.988 h 4.99 v 9.988 h -4.99 m 0,40.012 V 722.07 h 4.99 v 10.012 h -4.99 m 0,39.988 v -10 h 4.99 v 10 h -4.99 m 0,40 v -9.988 h 4.99 v 9.988 h -4.99 m 0,40.012 V 842.07 h 4.99 v 10.012 h -4.99 m 0,40 V 882.07 h 4.99 v 10.012 h -4.99"
         style="fill:#7f8288;fill-opacity:1;fill-rule:nonzero;stroke:none"
         id="path34" /><path
         d="m 4929.46,292.082 v -0.012 h 5 v 0.012 z m 0,40 v -10 h 5 v 10 z m 0,40 v -10 h 5 v 10 z m 0,40 v -10 h 5 v 10 z m 0,40 v -10 h 5 v 10 z m 0,40 v -10 h 5 v 10 z m 0,40 v -10 h 5 v 10 z m 0,39.988 v -9.988 h 5 v 9.988 z m 0,40 v -10 h 5 v 10 z m 0,40 v -10 h 5 v 10 z m 0,40 v -10 h 5 v 10 z m 0,40 v -10 h 5 v 10 z m 0,40 v -10 h 5 v 10 z m 0,40 v -10 h 5 v 10 z m 0,40 v -10 h 5 v 10 z m 0,40 v -10 h 5 v 10 h -5"
         style="fill:#7f8288;fill-opacity:1;fill-rule:nonzero;stroke:none"
         id="path36" /><g
         id="g38"
         transform="scale(10)"><text
           transform="matrix(1,0,0,-1,20.5785,69.2098)"
           style="font-variant:normal;font-weight:normal;font-size:11px;font-family:Arial;-inkscape-font-specification:ArialMT;writing-mode:lr-tb;fill:#231f20;fill-opacity:1;fill-rule:nonzero;stroke:none"
           id="text42"><tspan
             x="0 7.3369999 15.279"
             y="0"
             sodipodi:role="line"
             id="tspan40">SDA</tspan></text></g><path
         d="m 531.969,837.07 h 200 c 2.761,0 5,2.246 5,5 0,2.766 -2.239,5 -5,5 h -200 c -2.758,0 -5,-2.234 -5,-5 0,-2.754 2.242,-5 5,-5"
         style="fill:#0e0f0f;fill-opacity:1;fill-rule:nonzero;stroke:none"
         id="path44" /><path
         d="m 731.969,837.07 h 200 c 2.761,0 5,2.246 5,5 0,2.766 -2.239,5.012 -5,5.012 h -200 c -2.758,0 -5,-2.246 -5,-5.012 0,-2.754 2.242,-5 5,-5"
         style="fill:#0e0f0f;fill-opacity:1;fill-rule:nonzero;stroke:none"
         id="path46" /><path
         d="m 931.969,837.07 h 26.277 l 60.004,-200 h 113.72 c 2.76,0 5,2.246 5,5 0,2.766 -2.24,5 -5,5 h -106.28 l -60.002,200 h -33.719 c -2.758,0 -5,-2.234 -5,-5 0,-2.754 2.242,-5 5,-5 v 0"
         style="fill:#0e0f0f;fill-opacity:1;fill-rule:nonzero;stroke:none"
         id="path48" /><path
         d="m 1131.97,637.07 h 200 c 2.76,0 5,2.246 5,5 0,2.766 -2.24,5 -5,5 h -200 c -2.76,0 -5,-2.234 -5,-5 0,-2.754 2.24,-5 5,-5"
         style="fill:#0e0f0f;fill-opacity:1;fill-rule:nonzero;stroke:none"
         id="path50" /><path
         d="m 1331.97,637.07 h 200 c 2.76,0 5,2.246 5,5 0,2.766 -2.24,5 -5,5 h -200 c -2.76,0 -5,-2.234 -5,-5 0,-2.754 2.24,-5 5,-5"
         style="fill:#0e0f0f;fill-opacity:1;fill-rule:nonzero;stroke:none"
         id="path52" /><path
         d="m 1531.97,637.07 h 200 c 2.76,0 5,2.246 5,5 0,2.766 -2.24,5 -5,5 h -200 c -2.76,0 -5,-2.234 -5,-5 0,-2.754 2.24,-5 5,-5"
         style="fill:#0e0f0f;fill-opacity:1;fill-rule:nonzero;stroke:none"
         id="path54" /><path
         d="m 1731.97,637.07 h 33.72 l 60,200 h 106.28 c 2.76,0 5,2.246 5,5 0,2.766 -2.24,5 -5,5 h -113.72 l -60,-200 h -26.28 c -2.76,0 -5,-2.234 -5,-5 0,-2.754 2.24,-5 5,-5 v 0"
         style="fill:#0e0f0f;fill-opacity:1;fill-rule:nonzero;stroke:none"
         id="path56" /><path
         d="m 1931.97,837.07 h 200 c 2.76,0 5,2.246 5,5 0,2.766 -2.24,5 -5,5 h -200 c -2.76,0 -5,-2.234 -5,-5 0,-2.754 2.24,-5 5,-5"
         style="fill:#0e0f0f;fill-opacity:1;fill-rule:nonzero;stroke:none"
         id="path58" /><path
         d="m 2131.97,837.07 h 200 c 2.76,0 5,2.246 5,5 0,2.766 -2.24,5 -5,5 h -200 c -2.76,0 -5,-2.234 -5,-5 0,-2.754 2.24,-5 5,-5"
         style="fill:#0e0f0f;fill-opacity:1;fill-rule:nonzero;stroke:none"
         id="path60" /><path
         d="m 2331.97,837.07 h 200 c 2.76,0 5,2.246 5,5 0,2.766 -2.24,5 -5,5 h -200 c -2.76,0 -5,-2.234 -5,-5 0,-2.754 2.24,-5 5,-5"
         style="fill:#0e0f0f;fill-opacity:1;fill-rule:nonzero;stroke:none"
         id="path62" /><path
         d="m 2531.97,837.07 h 199.99 c 2.77,0 5,2.246 5,5 0,2.766 -2.23,5 -5,5 h -199.99 c -2.76,0 -5,-2.234 -5,-5 0,-2.754 2.24,-5 5,-5"
         style="fill:#0e0f0f;fill-opacity:1;fill-rule:nonzero;stroke:none"
         id="path64" /><path
         d="m 2731.96,837.07 h 200 c 2.77,0 5,2.246 5,5 0,2.766 -2.23,5 -5,5 h -200 c -2.76,0 -5,-2.234 -5,-5 0,-2.754 2.24,-5 5,-5"
         style="fill:#0e0f0f;fill-opacity:1;fill-rule:nonzero;stroke:none"
         id="path66" /><path
         d="m 2931.96,837.07 h 200 c 2.77,0 5,2.246 5,5 0,2.766 -2.23,5 -5,5 h -200 c -2.76,0 -5,-2.234 -5,-5 0,-2.754 2.24,-5 5,-5"
         style="fill:#0e0f0f;fill-opacity:1;fill-rule:nonzero;stroke:none"
         id="path68" /><path
         d="m 3131.96,837.07 h 200 c 2.77,0 5,2.246 5,5 0,2.766 -2.23,5 -5,5 h -200 c -2.76,0 -5,-2.234 -5,-5 0,-2.754 2.24,-5 5,-5"
         style="fill:#0e0f0f;fill-opacity:1;fill-rule:nonzero;stroke:none"
         id="path70" /><path
         d="m 3331.96,837.07 h 26.28 l 60,-200 h 113.72 c 2.77,0 5,2.246 5,5 0,2.766 -2.23,5 -5,5 h -106.28 l -60,200 h -33.72 c -2.76,0 -5,-2.234 -5,-5 0,-2.754 2.24,-5 5,-5 v 0"
         style="fill:#0e0f0f;fill-opacity:1;fill-rule:nonzero;stroke:none"
         id="path72" /><path
         d="m 3531.96,637.07 h 200 c 2.77,0 5,2.246 5,5 0,2.766 -2.23,5 -5,5 h -200 c -2.76,0 -5,-2.234 -5,-5 0,-2.754 2.24,-5 5,-5"
         style="fill:#0e0f0f;fill-opacity:1;fill-rule:nonzero;stroke:none"
         id="path74" /><path
         d="m 3731.96,637.07 h 200 c 2.77,0 5,2.246 5,5 0,2.766 -2.23,5 -5,5 h -200 c -2.76,0 -5,-2.234 -5,-5 0,-2.754 2.24,-5 5,-5"
         style="fill:#0e0f0f;fill-opacity:1;fill-rule:nonzero;stroke:none"
         id="path76" /><path
         d="m 3931.96,637.07 h 200 c 2.77,0 5,2.246 5,5 0,2.766 -2.23,5 -5,5 h -200 c -2.76,0 -5,-2.234 -5,-5 0,-2.754 2.24,-5 5,-5"
         style="fill:#0e0f0f;fill-opacity:1;fill-rule:nonzero;stroke:none"
         id="path78" /><path
         d="m 4131.96,637.07 h 200 c 2.77,0 5,2.246 5,5 0,2.766 -2.23,5 -5,5 h -200 c -2.76,0 -5,-2.234 -5,-5 0,-2.754 2.24,-5 5,-5"
         style="fill:#0e0f0f;fill-opacity:1;fill-rule:nonzero;stroke:none"
         id="path80" /><path
         d="m 4331.96,637.082 h 200 c 2.77,0 5,2.234 5,4.988 0,2.766 -2.23,5 -5,5 h -200 c -2.76,0 -5,-2.234 -5,-5 0,-2.754 2.24,-4.988 5,-4.988"
         style="fill:#0e0f0f;fill-opacity:1;fill-rule:nonzero;stroke:none"
         id="path82" /><path
         d="m 4531.96,637.082 h 33.72 l 60,199.988 h 106.28 c 2.77,0 5,2.246 5,5 0,2.766 -2.23,5.012 -5,5.012 h -113.72 l -60,-200.012 h -26.28 c -2.76,0 -4.99,-2.234 -4.99,-5 0,-2.754 2.23,-4.988 4.99,-4.988"
         style="fill:#0e0f0f;fill-opacity:1;fill-rule:nonzero;stroke:none"
         id="path84" /><path
         d="m 4731.96,837.07 h 200.01 c 2.76,0 4.99,2.246 4.99,5 0,2.766 -2.23,5.012 -4.99,5.012 h -200.01 c -2.76,0 -5,-2.246 -5,-5.012 0,-2.754 2.24,-5 5,-5"
         style="fill:#0e0f0f;fill-opacity:1;fill-rule:nonzero;stroke:none"
         id="path86" /><g
         id="g88"
         transform="scale(10)"><text
           transform="matrix(1,0,0,-1,21.8051,37.2098)"
           style="font-variant:normal;font-weight:normal;font-size:11px;font-family:Arial;-inkscape-font-specification:ArialMT;writing-mode:lr-tb;fill:#231f20;fill-opacity:1;fill-rule:nonzero;stroke:none"
           id="text100"><tspan
             x="0 7.3369999 15.279"
             y="0"
             sodipodi:role="line"
             id="tspan90">SCL</tspan><tspan
             x="72.078102"
             y="-1.625"
             id="tspan92">S</tspan><tspan
             x="45.078098 52.4151 58.320381 65.657379 73.40641 79.927406 82.984924 88.484924 94.600922 100.71692 106.83292 109.27493 112.33292 114.77493 120.89092"
             y="23.375"
             sodipodi:role="line"
             id="tspan94">START condition</tspan><tspan
             x="431.39111"
             y="0"
             id="tspan96">P</tspan><tspan
             x="396.6098 403.94681 410.46887 419.02551 426.16415 429.22079 434.72079 440.83798 446.95514 453.0733 455.51764 458.5733 461.01764 467.1348"
             y="23.375"
             sodipodi:role="line"
             id="tspan98">STOP condition</tspan></text></g><path
         d="m 531.969,517.07 h 200 c 2.761,0 5,2.246 5,5 0,2.766 -2.239,5 -5,5 h -200 c -2.758,0 -5,-2.234 -5,-5 0,-2.754 2.242,-5 5,-5"
         style="fill:#0e0f0f;fill-opacity:1;fill-rule:nonzero;stroke:none"
         id="path102" /><path
         d="m 731.969,517.082 h 200 c 2.761,0 5,2.234 5,5 0,2.754 -2.239,4.988 -5,4.988 h -200 c -2.758,0 -5,-2.234 -5,-4.988 0,-2.766 2.242,-5 5,-5"
         style="fill:#0e0f0f;fill-opacity:1;fill-rule:nonzero;stroke:none"
         id="path104" /><path
         d="m 931.969,517.07 h 200.001 c 2.76,0 5,2.246 5,5 0,2.766 -2.24,5 -5,5 H 931.969 c -2.758,0 -5,-2.234 -5,-5 0,-2.754 2.242,-5 5,-5"
         style="fill:#0e0f0f;fill-opacity:1;fill-rule:nonzero;stroke:none"
         id="path106" /><path
         d="m 1131.97,517.082 h 200 c 2.76,0 5,2.234 5,5 0,2.754 -2.24,4.988 -5,4.988 h -200 c -2.76,0 -5,-2.234 -5,-4.988 0,-2.766 2.24,-5 5,-5"
         style="fill:#0e0f0f;fill-opacity:1;fill-rule:nonzero;stroke:none"
         id="path108" /><path
         d="m 1331.97,517.07 h 26.28 l 60,-200 h 113.72 c 2.76,0 5,2.246 5,5 0,2.766 -2.24,5 -5,5 h -106.28 l -60,200 h -33.72 c -2.76,0 -5,-2.234 -5,-5 0,-2.754 2.24,-5 5,-5 v 0"
         style="fill:#0e0f0f;fill-opacity:1;fill-rule:nonzero;stroke:none"
         id="path110" /><path
         d="m 1531.97,317.07 h 200 c 2.76,0 5,2.246 5,5 0,2.766 -2.24,5 -5,5 h -200 c -2.76,0 -5,-2.234 -5,-5 0,-2.754 2.24,-5 5,-5"
         style="fill:#0e0f0f;fill-opacity:1;fill-rule:nonzero;stroke:none"
         id="path112" /><path
         d="m 1731.97,317.07 h 200 c 2.76,0 5,2.246 5,5 0,2.766 -2.24,5 -5,5 h -200 c -2.76,0 -5,-2.234 -5,-5 0,-2.754 2.24,-5 5,-5"
         style="fill:#0e0f0f;fill-opacity:1;fill-rule:nonzero;stroke:none"
         id="path114" /><path
         d="m 1931.97,317.07 h 200 c 2.76,0 5,2.246 5,5 0,2.766 -2.24,5 -5,5 h -200 c -2.76,0 -5,-2.234 -5,-5 0,-2.754 2.24,-5 5,-5"
         style="fill:#0e0f0f;fill-opacity:1;fill-rule:nonzero;stroke:none"
         id="path116" /><path
         d="m 2131.97,317.07 h 33.72 l 60,200 h 106.28 c 2.76,0 5,2.246 5,5 0,2.766 -2.24,5 -5,5 h -113.72 l -60,-200 h -26.28 c -2.76,0 -5,-2.234 -5,-5 0,-2.754 2.24,-5 5,-5 v 0"
         style="fill:#0e0f0f;fill-opacity:1;fill-rule:nonzero;stroke:none"
         id="path118" /><path
         d="m 2331.97,517.07 h 200 c 2.76,0 5,2.246 5,5 0,2.766 -2.24,5 -5,5 h -200 c -2.76,0 -5,-2.234 -5,-5 0,-2.754 2.24,-5 5,-5"
         style="fill:#0e0f0f;fill-opacity:1;fill-rule:nonzero;stroke:none"
         id="path120" /><path
         d="m 2531.97,517.07 h 199.99 c 2.77,0 5,2.246 5,5 0,2.766 -2.23,5 -5,5 h -199.99 c -2.76,0 -5,-2.234 -5,-5 0,-2.754 2.24,-5 5,-5"
         style="fill:#0e0f0f;fill-opacity:1;fill-rule:nonzero;stroke:none"
         id="path122" /><path
         d="m 2731.96,517.07 h 200 c 2.77,0 5,2.246 5,5 0,2.766 -2.23,5 -5,5 h -200 c -2.76,0 -5,-2.234 -5,-5 0,-2.754 2.24,-5 5,-5"
         style="fill:#0e0f0f;fill-opacity:1;fill-rule:nonzero;stroke:none"
         id="path124" /><path
         d="m 2931.96,517.07 h 26.28 l 60,-200 h 113.72 c 2.77,0 5,2.246 5,5 0,2.766 -2.23,5 -5,5 h -106.28 l -60,200 h -33.72 c -2.76,0 -5,-2.234 -5,-5 0,-2.754 2.24,-5 5,-5 v 0"
         style="fill:#0e0f0f;fill-opacity:1;fill-rule:nonzero;stroke:none"
         id="path126" /><path
         d="m 3131.96,317.07 h 200 c 2.77,0 5,2.246 5,5 0,2.766 -2.23,5 -5,5 h -200 c -2.76,0 -5,-2.234 -5,-5 0,-2.754 2.24,-5 5,-5"
         style="fill:#0e0f0f;fill-opacity:1;fill-rule:nonzero;stroke:none"
         id="path128" /><path
         d="m 3331.96,317.07 h 200 c 2.77,0 5,2.246 5,5 0,2.766 -2.23,5 -5,5 h -200 c -2.76,0 -5,-2.234 -5,-5 0,-2.754 2.24,-5 5,-5"
         style="fill:#0e0f0f;fill-opacity:1;fill-rule:nonzero;stroke:none"
         id="path130" /><path
         d="m 3531.96,317.07 h 200 c 2.77,0 5,2.246 5,5 0,2.766 -2.23,5 -5,5 h -200 c -2.76,0 -5,-2.234 -5,-5 0,-2.754 2.24,-5 5,-5"
         style="fill:#0e0f0f;fill-opacity:1;fill-rule:nonzero;stroke:none"
         id="path132" /><path
         d="m 3731.96,317.07 h 33.72 l 60,200 h 106.28 c 2.77,0 5,2.246 5,5 0,2.766 -2.23,5 -5,5 h -113.72 l -60,-200 h -26.28 c -2.76,0 -5,-2.234 -5,-5 0,-2.754 2.24,-5 5,-5 v 0"
         style="fill:#0e0f0f;fill-opacity:1;fill-rule:nonzero;stroke:none"
         id="path134" /><path
         d="m 3931.96,517.07 h 200 c 2.77,0 5,2.246 5,5 0,2.766 -2.23,5 -5,5 h -200 c -2.76,0 -5,-2.234 -5,-5 0,-2.754 2.24,-5 5,-5"
         style="fill:#0e0f0f;fill-opacity:1;fill-rule:nonzero;stroke:none"
         id="path136" /><path
         d="m 4131.96,517.07 h 200 c 2.77,0 5,2.246 5,5 0,2.766 -2.23,5 -5,5 h -200 c -2.76,0 -5,-2.234 -5,-5 0,-2.754 2.24,-5 5,-5"
         style="fill:#0e0f0f;fill-opacity:1;fill-rule:nonzero;stroke:none"
         id="path138" /><path
         d="m 4331.96,517.082 h 200 c 2.77,0 5,2.234 5,5 0,2.754 -2.23,4.988 -5,4.988 h -200 c -2.76,0 -5,-2.234 -5,-4.988 0,-2.766 2.24,-5 5,-5"
         style="fill:#0e0f0f;fill-opacity:1;fill-rule:nonzero;stroke:none"
         id="path140" /><path
         d="m 4531.96,517.082 h 200 c 2.77,0 5,2.234 5,5 0,2.754 -2.23,4.988 -5,4.988 h -200 c -2.76,0 -4.99,-2.234 -4.99,-4.988 0,-2.766 2.23,-5 4.99,-5"
         style="fill:#0e0f0f;fill-opacity:1;fill-rule:nonzero;stroke:none"
         id="path142" /><path
         d="m 4731.96,517.082 h 200.01 c 2.76,0 4.99,2.234 4.99,5 0,2.754 -2.23,4.988 -4.99,4.988 h -200.01 c -2.76,0 -5,-2.234 -5,-4.988 0,-2.766 2.24,-5 5,-5"
         style="fill:#0e0f0f;fill-opacity:1;fill-rule:nonzero;stroke:none"
         id="path144" /><path
         d="m 2801.96,862.07 h -40 c -50,0 -50,-240 -99.99,-240 h 39.99 c 50,0 50,240 100,240 v 0"
         style="fill:#ffffff;fill-opacity:1;fill-rule:nonzero;stroke:none"
         id="path146" /><path
         d="m 2661.97,617.07 c 4.14,-0.007 8.08,1.289 11.5,3.489 6.42,4.14 11.3,11.054 15.66,19.746 7.58,15.242 13.46,36.445 18.91,59.89 8.14,35.137 15.15,75.301 23.88,106.368 4.34,15.519 9.16,28.761 14.46,37.675 2.63,4.465 5.38,7.813 8,9.883 2.65,2.082 5,2.942 7.58,2.949 2.77,0 5,2.246 5,5 0,2.766 -2.23,5 -5,5 -4.13,0.02 -8.08,-1.277 -11.5,-3.476 -6.42,-4.141 -11.29,-11.055 -15.66,-19.754 -7.58,-15.235 -13.46,-36.438 -18.91,-59.883 -8.14,-35.137 -15.15,-75.305 -23.88,-106.367 -4.34,-15.52 -9.16,-28.762 -14.46,-37.676 -2.63,-4.465 -5.38,-7.812 -8,-9.883 -2.65,-2.082 -5,-2.941 -7.58,-2.961 -2.76,0 -5,-2.234 -5,-5 0,-2.754 2.24,-5 5,-5 v 0"
         style="fill:#0e0f0f;fill-opacity:1;fill-rule:nonzero;stroke:none"
         id="path148" /><path
         d="m 2701.96,617.07 c 4.14,-0.007 8.09,1.289 11.5,3.489 6.43,4.14 11.3,11.054 15.67,19.746 7.58,15.242 13.46,36.445 18.91,59.89 8.14,35.137 15.15,75.301 23.88,106.368 4.34,15.519 9.16,28.761 14.46,37.675 2.63,4.465 5.38,7.813 8,9.883 2.65,2.082 5,2.942 7.58,2.949 2.77,0 5,2.246 5,5 0,2.766 -2.23,5 -5,5 -4.13,0.02 -8.08,-1.277 -11.5,-3.476 -6.42,-4.141 -11.29,-11.055 -15.66,-19.754 -7.58,-15.235 -13.46,-36.438 -18.91,-59.883 -8.14,-35.137 -15.15,-75.305 -23.88,-106.367 -4.34,-15.52 -9.16,-28.762 -14.46,-37.676 -2.64,-4.465 -5.38,-7.812 -8,-9.883 -2.65,-2.082 -5,-2.941 -7.59,-2.961 -2.76,0 -5,-2.234 -5,-5 0,-2.754 2.24,-5 5,-5 v 0"
         style="fill:#0e0f0f;fill-opacity:1;fill-rule:nonzero;stroke:none"
         id="path150" /><path
         d="m 2801.96,552.07 h -40 c -50,0 -50,-240 -99.99,-240 h 39.99 c 50,0 50,240 100,240 v 0"
         style="fill:#ffffff;fill-opacity:1;fill-rule:nonzero;stroke:none"
         id="path152" /><path
         d="m 2661.97,307.07 c 4.14,-0.007 8.08,1.289 11.5,3.489 6.42,4.14 11.3,11.054 15.66,19.746 7.58,15.242 13.46,36.445 18.91,59.89 8.14,35.137 15.15,75.305 23.88,106.368 4.34,15.519 9.16,28.761 14.46,37.675 2.63,4.465 5.38,7.813 8,9.883 2.65,2.082 5,2.942 7.58,2.949 2.77,0 5,2.246 5,5 0,2.766 -2.23,5 -5,5 -4.13,0.02 -8.08,-1.277 -11.5,-3.476 -6.42,-4.141 -11.29,-11.055 -15.66,-19.754 -7.58,-15.235 -13.46,-36.438 -18.91,-59.883 -8.14,-35.137 -15.15,-75.305 -23.88,-106.367 -4.34,-15.52 -9.16,-28.762 -14.46,-37.676 -2.63,-4.465 -5.38,-7.812 -8,-9.883 -2.65,-2.082 -5,-2.941 -7.58,-2.961 -2.76,0 -5,-2.234 -5,-5 0,-2.754 2.24,-5 5,-5 v 0"
         style="fill:#0e0f0f;fill-opacity:1;fill-rule:nonzero;stroke:none"
         id="path154" /><path
         d="m 2701.96,307.07 c 4.14,-0.007 8.09,1.289 11.5,3.489 6.43,4.14 11.3,11.054 15.67,19.746 7.58,15.242 13.46,36.445 18.91,59.89 8.14,35.137 15.15,75.305 23.88,106.368 4.34,15.519 9.16,28.761 14.46,37.675 2.63,4.465 5.38,7.813 8,9.883 2.65,2.082 5,2.942 7.58,2.949 2.77,0 5,2.246 5,5 0,2.766 -2.23,5 -5,5 -4.13,0.02 -8.08,-1.277 -11.5,-3.476 -6.42,-4.141 -11.29,-11.055 -15.66,-19.754 -7.58,-15.235 -13.46,-36.438 -18.91,-59.883 -8.14,-35.137 -15.15,-75.305 -23.88,-106.367 -4.34,-15.52 -9.16,-28.762 -14.46,-37.676 -2.64,-4.465 -5.38,-7.812 -8,-9.883 -2.65,-2.082 -5,-2.941 -7.59,-2.961 -2.76,0 -5,-2.234 -5,-5 0,-2.754 2.24,-5 5,-5 v 0"
         style="fill:#0e0f0f;fill-opacity:1;fill-rule:nonzero;stroke:none"
         id="path156" /><path
         d="M 3.75391,3.76172 V 0 H 5162.81 c 0.99,0 1.96,0.398438 2.66,1.10156 0.7,0.69922 1.1,1.66797 1.1,2.66016 V 1049.65 c 0,0.99 -0.4,1.96 -1.1,2.65 -0.7,0.71 -1.67,1.11 -2.66,1.11 H 3.75391 c -0.98438,0 -1.95703,-0.4 -2.65625,-1.11 C 0.402344,1051.61 0,1050.64 0,1049.65 V 3.76172 C 0,2.76953 0.402344,1.80078 1.09766,1.10156 1.80078,0.398438 2.76953,0 3.75391,0 V 3.76172 H 7.51563 V 1045.9 H 5159.06 V 7.51172 H 3.75391 v -3.75 H 7.51563 3.75391 v 0"
         style="fill:#10100f;fill-opacity:1;fill-rule:nonzero;stroke:none"
         id="path158" /><path
         d="m 971.969,318.32 h -40 c -2.071,0 -3.754,1.68 -3.754,3.75 0,1.114 0.484,2.121 1.254,2.805 v -2.805 h 5 v 3.762 h 37.5 c 2.074,0 3.754,-1.68 3.754,-3.762 0,-2.07 -1.68,-3.75 -3.754,-3.75 m 80.001,0 h -40 c -2.07,0 -3.76,1.68 -3.76,3.75 0,2.082 1.69,3.762 3.76,3.762 h 40 c 2.07,0 3.76,-1.68 3.76,-3.762 0,-2.07 -1.69,-3.75 -3.76,-3.75 m 80,0 h -40 c -2.07,0 -3.76,1.68 -3.76,3.75 0,2.082 1.69,3.762 3.76,3.762 h 40 c 2.07,0 3.75,-1.68 3.75,-3.762 0,-2.07 -1.68,-3.75 -3.75,-3.75"
         style="fill:#282423;fill-opacity:1;fill-rule:nonzero;stroke:none"
         id="path160" /><path
         d="m 934.469,322.07 h -5 v 2.805 c 0.664,0.594 1.543,0.957 2.5,0.957 h 2.5 v -3.762"
         style="fill:#1f1e1f;fill-opacity:1;fill-rule:nonzero;stroke:none"
         id="path162" /><path
         d="m 851.969,475.801 c -2.074,0 -3.754,1.679 -3.754,3.762 v 37.519 h 7.508 v -37.519 c 0,-2.083 -1.68,-3.762 -3.754,-3.762 M 1151.97,418.32 c -2.07,0 -3.76,1.68 -3.76,3.762 v 39.988 c 0,2.082 1.69,3.762 3.76,3.762 2.07,0 3.75,-1.68 3.75,-3.762 v -39.988 c 0,-2.082 -1.68,-3.762 -3.75,-3.762 M 851.969,395.801 c -2.074,0 -3.754,1.679 -3.754,3.75 v 40 c 0,2.082 1.68,3.762 3.754,3.762 2.074,0 3.754,-1.68 3.754,-3.762 v -40 c 0,-2.071 -1.68,-3.75 -3.754,-3.75 M 1151.97,338.32 c -2.07,0 -3.76,1.68 -3.76,3.75 v 40 c 0,2.082 1.69,3.762 3.76,3.762 2.07,0 3.75,-1.68 3.75,-3.762 v -40 c 0,-2.07 -1.68,-3.75 -3.75,-3.75 m -260.001,-20 h -40 c -0.989,0 -1.953,0.403 -2.656,1.106 -0.7,0.691 -1.098,1.66 -1.098,2.644 v 37.493 c 0,2.07 1.68,3.75 3.754,3.75 2.074,0 3.754,-1.68 3.754,-3.75 v -33.731 h 36.246 c 2.074,0 3.754,-1.68 3.754,-3.762 0,-2.07 -1.68,-3.75 -3.754,-3.75"
         style="fill:#282423;fill-opacity:1;fill-rule:nonzero;stroke:none"
         id="path164" /><path
         d="m 855.723,517.082 h -7.508 v 2.469 c 0,2.082 1.68,3.762 3.754,3.762 2.074,0 3.754,-1.68 3.754,-3.762 v -2.469"
         style="fill:#10100f;fill-opacity:1;fill-rule:nonzero;stroke:none"
         id="path166" /><path
         d="m 1155.72,527.07 h -7.51 v 15.012 c 0,2.07 1.69,3.75 3.76,3.75 2.07,0 3.75,-1.68 3.75,-3.75 V 527.07 m -3.75,-28.75 c -2.07,0 -3.76,1.68 -3.76,3.75 v 15.012 h 7.51 V 502.07 c 0,-2.07 -1.68,-3.75 -3.75,-3.75"
         style="fill:#282423;fill-opacity:1;fill-rule:nonzero;stroke:none"
         id="path168" /><path
         d="m 1148.21,517.082 h 7.5078 v 9.98828 h -7.5078 z"
         style="fill:#10100f;fill-opacity:1;fill-rule:nonzero;stroke:none"
         id="path170" /><path
         d="m 851.969,795.801 c -2.074,0 -3.754,1.679 -3.754,3.762 v 37.507 h 7.508 v -37.507 c 0,-2.083 -1.68,-3.762 -3.754,-3.762 M 1151.97,738.32 c -2.07,0 -3.76,1.68 -3.76,3.75 v 40 c 0,2.082 1.69,3.762 3.76,3.762 2.07,0 3.75,-1.68 3.75,-3.762 v -40 c 0,-2.07 -1.68,-3.75 -3.75,-3.75 M 851.969,715.801 c -2.074,0 -3.754,1.679 -3.754,3.75 v 40.012 c 0,2.07 1.68,3.75 3.754,3.75 2.074,0 3.754,-1.68 3.754,-3.75 v -40.012 c 0,-2.071 -1.68,-3.75 -3.754,-3.75 M 1151.97,658.32 c -2.07,0 -3.76,1.68 -3.76,3.762 v 40 c 0,2.07 1.69,3.75 3.76,3.75 2.07,0 3.75,-1.68 3.75,-3.75 v -40 c 0,-2.082 -1.68,-3.762 -3.75,-3.762 M 851.969,635.801 c -2.074,0 -3.754,1.679 -3.754,3.762 v 39.988 c 0,2.082 1.68,3.762 3.754,3.762 2.074,0 3.754,-1.68 3.754,-3.762 v -39.988 c 0,-2.083 -1.68,-3.762 -3.754,-3.762 M 1151.97,578.32 c -2.07,0 -3.76,1.68 -3.76,3.75 v 40 c 0,2.082 1.69,3.762 3.76,3.762 2.07,0 3.75,-1.68 3.75,-3.762 v -40 c 0,-2.07 -1.68,-3.75 -3.75,-3.75 M 851.969,555.801 c -2.074,0 -3.754,1.679 -3.754,3.75 v 40 c 0,2.082 1.68,3.762 3.754,3.762 2.074,0 3.754,-1.68 3.754,-3.762 v -40 c 0,-2.071 -1.68,-3.75 -3.754,-3.75"
         style="fill:#282423;fill-opacity:1;fill-rule:nonzero;stroke:none"
         id="path172" /><path
         d="m 855.723,837.07 h -7.508 v 2.481 c 0,2.082 1.68,3.762 3.754,3.762 2.074,0 3.754,-1.68 3.754,-3.762 v -2.481"
         style="fill:#10100f;fill-opacity:1;fill-rule:nonzero;stroke:none"
         id="path174" /><path
         d="m 930.707,917.063 h -40 c -2.07,0 -3.754,1.679 -3.754,3.757 0,2.071 1.684,3.75 3.754,3.75 h 40 c 2.074,0 3.758,-1.679 3.758,-3.75 0,-2.078 -1.684,-3.757 -3.758,-3.757 m 80.003,0 h -40.003 c -2.074,0 -3.754,1.679 -3.754,3.757 0,2.071 1.68,3.75 3.754,3.75 h 40.003 c 2.07,0 3.75,-1.679 3.75,-3.75 0,-2.078 -1.68,-3.757 -3.75,-3.757 m 80,0 h -40 c -2.07,0 -3.76,1.679 -3.76,3.757 0,2.071 1.69,3.75 3.76,3.75 h 40 c 2.07,0 3.75,-1.679 3.75,-3.75 0,-2.078 -1.68,-3.757 -3.75,-3.757 m 61.26,-18.743 c -2.07,0 -3.76,1.68 -3.76,3.75 v 14.993 h -17.5 c -2.07,0 -3.75,1.679 -3.75,3.757 0,2.071 1.68,3.75 3.75,3.75 h 21.26 c 0.99,0 1.95,-0.398 2.65,-1.101 0.7,-0.696 1.1,-1.66 1.1,-2.649 v -18.75 c 0,-2.07 -1.68,-3.75 -3.75,-3.75 M 851.969,875.801 c -2.074,0 -3.754,1.679 -3.754,3.75 v 40.012 c 0,2.07 1.68,3.75 3.754,3.75 2.074,0 3.754,-1.68 3.754,-3.75 v -40.012 c 0,-2.071 -1.68,-3.75 -3.754,-3.75 M 1151.97,818.32 c -2.07,0 -3.76,1.68 -3.76,3.762 v 39.988 c 0,2.082 1.69,3.762 3.76,3.762 2.07,0 3.75,-1.68 3.75,-3.762 v -39.988 c 0,-2.082 -1.68,-3.762 -3.75,-3.762"
         style="fill:#282423;fill-opacity:1;fill-rule:nonzero;stroke:none"
         id="path176" /><path
         d="m 4513.6,913.262 h -40 c -2.07,0 -3.76,1.691 -3.76,3.761 0,2.071 1.69,3.758 3.76,3.758 h 40 c 2.07,0 3.76,-1.687 3.76,-3.758 0,-2.07 -1.69,-3.761 -3.76,-3.761 m 80,0 h -40 c -2.07,0 -3.75,1.691 -3.75,3.761 0,2.071 1.68,3.758 3.75,3.758 h 40 c 2.07,0 3.76,-1.687 3.76,-3.758 0,-2.07 -1.69,-3.761 -3.76,-3.761 m 80,0 h -40 c -2.07,0 -3.75,1.691 -3.75,3.761 0,2.071 1.68,3.758 3.75,3.758 h 40 c 2.07,0 3.75,-1.687 3.75,-3.758 0,-2.07 -1.68,-3.761 -3.75,-3.761 m 61.26,-18.731 c -2.07,0 -3.75,1.68 -3.75,3.75 v 14.981 h -17.51 c -2.07,0 -3.76,1.691 -3.76,3.761 0,2.071 1.69,3.758 3.76,3.758 h 21.26 c 0.99,0 1.96,-0.41 2.66,-1.101 0.7,-0.703 1.1,-1.672 1.1,-2.657 v -18.742 c 0,-2.07 -1.68,-3.75 -3.76,-3.75 m -300,-22.527 c -2.07,0 -3.75,1.68 -3.75,3.75 v 40.008 c 0,2.07 1.68,3.75 3.75,3.75 2.08,0 3.76,-1.68 3.76,-3.75 v -40.008 c 0,-2.07 -1.68,-3.75 -3.76,-3.75 m 303.76,-24.922 h -6.66 v 0 h -0.85 v 11.199 c 0,2.082 1.68,3.762 3.75,3.762 2.08,0 3.76,-1.68 3.76,-3.762 v -11.199 m -3.76,-32.551 c -2.07,0 -3.75,1.68 -3.75,3.75 v 18.789 h 0.85 v 0 h 6.66 v -18.789 c 0,-2.07 -1.68,-3.75 -3.76,-3.75 m -300,-22.527 c -2.07,0 -3.75,1.68 -3.75,3.758 v 39.992 c 0,2.078 1.68,3.758 3.75,3.758 2.08,0 3.76,-1.68 3.76,-3.758 v -39.992 c 0,-2.078 -1.68,-3.758 -3.76,-3.758 m 300,-57.473 c -2.07,0 -3.75,1.68 -3.75,3.762 v 39.988 c 0,2.082 1.68,3.762 3.75,3.762 2.08,0 3.76,-1.68 3.76,-3.762 v -39.988 c 0,-2.082 -1.68,-3.762 -3.76,-3.762 m -300,-22.527 c -2.07,0 -3.75,1.68 -3.75,3.75 v 40 c 0,2.078 1.68,3.758 3.75,3.758 2.08,0 3.76,-1.68 3.76,-3.758 v -40 c 0,-2.07 -1.68,-3.75 -3.76,-3.75 m 300,-57.473 c -2.07,0 -3.75,1.68 -3.75,3.75 v 40 c 0,2.082 1.68,3.762 3.75,3.762 2.08,0 3.76,-1.68 3.76,-3.762 v -40 c 0,-2.07 -1.68,-3.75 -3.76,-3.75 m -296.24,-7.461 h -7.51 v 28.684 c 0,2.078 1.68,3.758 3.75,3.758 2.08,0 3.76,-1.68 3.76,-3.758 V 647.07 m -3.76,-15.066 c -2.07,0 -3.75,1.68 -3.75,3.758 v 1.32 h 7.51 v -1.32 c 0,-2.078 -1.68,-3.758 -3.76,-3.758 m 300,-57.473 c -2.07,0 -3.75,1.68 -3.75,3.75 v 40.012 c 0,2.07 1.68,3.75 3.75,3.75 2.08,0 3.76,-1.68 3.76,-3.75 v -40.012 c 0,-2.07 -1.68,-3.75 -3.76,-3.75 m -300,-22.527 c -2.07,0 -3.75,1.68 -3.75,3.75 v 40 c 0,2.078 1.68,3.758 3.75,3.758 2.08,0 3.76,-1.68 3.76,-3.758 v -40 c 0,-2.07 -1.68,-3.75 -3.76,-3.75 m 303.76,-24.934 h -6.66 v 0 h -0.85 v 11.211 c 0,2.082 1.68,3.762 3.75,3.762 2.08,0 3.76,-1.68 3.76,-3.762 V 527.07 m -3.76,-32.539 c -2.07,0 -3.75,1.68 -3.75,3.762 v 18.789 h 0.85 v 0 h 6.66 v -18.789 c 0,-2.082 -1.68,-3.762 -3.76,-3.762 m -300,-22.527 c -2.07,0 -3.75,1.68 -3.75,3.75 v 40.008 c 0,0.461 0.08,0.91 0.24,1.32 h 7.03 c 0.16,-0.41 0.24,-0.859 0.24,-1.32 v -40.008 c 0,-2.07 -1.68,-3.75 -3.76,-3.75 m 300,-57.473 c -2.07,0 -3.75,1.68 -3.75,3.75 v 40.012 c 0,2.07 1.68,3.75 3.75,3.75 2.08,0 3.76,-1.68 3.76,-3.75 v -40.012 c 0,-2.07 -1.68,-3.75 -3.76,-3.75 m -300,-22.527 c -2.07,0 -3.75,1.68 -3.75,3.758 v 39.992 c 0,2.078 1.68,3.758 3.75,3.758 2.08,0 3.76,-1.68 3.76,-3.758 v -39.992 c 0,-2.078 -1.68,-3.758 -3.76,-3.758 m 300,-57.473 c -2.07,0 -3.75,1.68 -3.75,3.762 v 39.988 c 0,2.082 1.68,3.762 3.75,3.762 2.08,0 3.76,-1.68 3.76,-3.762 v -39.988 c 0,-2.082 -1.68,-3.762 -3.76,-3.762 m -260,-20 h -40 c -0.98,0 -1.95,0.403 -2.65,1.106 -0.7,0.691 -1.1,1.66 -1.1,2.644 v 37.481 c 0,2.07 1.68,3.75 3.75,3.75 2.08,0 3.76,-1.68 3.76,-3.75 v -33.719 h 36.24 c 2.08,0 3.76,-1.68 3.76,-3.762 0,-2.07 -1.68,-3.75 -3.76,-3.75 m 80,0 h -39.99 c -2.08,0 -3.76,1.68 -3.76,3.75 0,2.082 1.68,3.762 3.76,3.762 h 39.99 c 2.08,0 3.76,-1.68 3.76,-3.762 0,-2.07 -1.68,-3.75 -3.76,-3.75 m 80,0 h -40 c -2.07,0 -3.75,1.68 -3.75,3.75 0,2.082 1.68,3.762 3.75,3.762 h 40 c 2.08,0 3.76,-1.68 3.76,-3.762 0,-2.07 -1.68,-3.75 -3.76,-3.75 m 80,0 h -40 c -2.07,0 -3.75,1.68 -3.75,3.75 0,2.082 1.68,3.762 3.75,3.762 h 40 c 2.08,0 3.76,-1.68 3.76,-3.762 0,-2.07 -1.68,-3.75 -3.76,-3.75"
         style="fill:#282423;fill-opacity:1;fill-rule:nonzero;stroke:none"
         id="path178" /><path
         d="m 4431.11,637.082 h 7.5117 v 9.98828 h -7.5117 z"
         style="fill:#10100f;fill-opacity:1;fill-rule:nonzero;stroke:none"
         id="path180" /><path
         d="m 4731.11,847.004 v 0.078 h 0.85 v 0 c -0.29,0 -0.57,-0.031 -0.85,-0.078 m 0.85,-9.934 h -0.85 v 0.078 c 0.28,-0.046 0.56,-0.078 0.85,-0.078"
         style="fill:#10100f;fill-opacity:1;fill-rule:nonzero;stroke:none"
         id="path182" /><path
         d="m 4738.62,837.07 h -6.66 v 0 c -0.29,0 -0.57,0.032 -0.85,0.078 v 9.856 c 0.28,0.047 0.56,0.078 0.85,0.078 v 0 h 6.66 V 837.07"
         style="fill:#10100f;fill-opacity:1;fill-rule:nonzero;stroke:none"
         id="path184" /><path
         d="m 4438.38,517.082 h -7.03 c 0.53,1.414 1.91,2.43 3.51,2.43 1.6,0 2.99,-1.016 3.52,-2.43"
         style="fill:#10100f;fill-opacity:1;fill-rule:nonzero;stroke:none"
         id="path186" /><path
         d="m 4731.11,527.004 v 0.066 h 0.85 v 0 c -0.29,0 -0.57,-0.019 -0.85,-0.066 m 0.85,-9.922 h -0.85 v 0.066 c 0.28,-0.046 0.56,-0.066 0.85,-0.066"
         style="fill:#10100f;fill-opacity:1;fill-rule:nonzero;stroke:none"
         id="path188" /><path
         d="m 4738.62,517.082 h -6.66 v 0 c -0.29,0 -0.57,0.02 -0.85,0.066 v 9.856 c 0.28,0.047 0.56,0.066 0.85,0.066 v 0 h 6.66 v -9.988"
         style="fill:#10100f;fill-opacity:1;fill-rule:nonzero;stroke:none"
         id="path190" /></g></g></svg>
