<?xml version="1.0" encoding="UTF-8" standalone="no"?>
<svg
   xmlns:dc="http://purl.org/dc/elements/1.1/"
   xmlns:cc="http://creativecommons.org/ns#"
   xmlns:rdf="http://www.w3.org/1999/02/22-rdf-syntax-ns#"
   xmlns:svg="http://www.w3.org/2000/svg"
   xmlns="http://www.w3.org/2000/svg"
   xmlns:sodipodi="http://sodipodi.sourceforge.net/DTD/sodipodi-0.dtd"
   xmlns:inkscape="http://www.inkscape.org/namespaces/inkscape"
   version="1.1"
   id="svg2"
   xml:space="preserve"
   width="693.98669"
   height="644.66669"
   viewBox="0 0 693.98669 644.66669"
   sodipodi:docname="L1C_Arch.svg"
   inkscape:version="1.0.1 (3bc2e813f5, 2020-09-07)"><metadata
     id="metadata8"><rdf:RDF><cc:Work
         rdf:about=""><dc:format>image/svg+xml</dc:format><dc:type
           rdf:resource="http://purl.org/dc/dcmitype/StillImage" /><dc:title></dc:title></cc:Work></rdf:RDF></metadata><defs
     id="defs6"><clipPath
       clipPathUnits="userSpaceOnUse"
       id="clipPath30"><path
         d="M 38.3008,4742.5 V 13.3008 H 5204.87 V 4742.5 Z"
         id="path28" /></clipPath><clipPath
       clipPathUnits="userSpaceOnUse"
       id="clipPath46"><path
         d="M 38.3008,4742.5 V 13.3008 H 5204.87 V 4742.5 Z"
         id="path44" /></clipPath><clipPath
       clipPathUnits="userSpaceOnUse"
       id="clipPath62"><path
         d="M 38.3008,4742.5 V 13.3008 H 5204.87 V 4742.5 Z"
         id="path60" /></clipPath></defs><sodipodi:namedview
     pagecolor="#ffffff"
     bordercolor="#666666"
     borderopacity="1"
     objecttolerance="10"
     gridtolerance="10"
     guidetolerance="10"
     inkscape:pageopacity="0"
     inkscape:pageshadow="2"
     inkscape:window-width="786"
     inkscape:window-height="480"
     id="namedview4"
     showgrid="false"
     inkscape:zoom="1.3169596"
     inkscape:cx="346.99335"
     inkscape:cy="565.31725"
     inkscape:window-x="0"
     inkscape:window-y="0"
     inkscape:window-maximized="0"
     inkscape:current-layer="g10" /><g
     id="g10"
     inkscape:groupmode="layer"
     inkscape:label="ink_ext_XXXXXX"
     transform="matrix(1.3333333,0,0,-1.3333333,0,644.66667)"><g
       id="g12"
       transform="scale(0.1)"><path
         d="m 2326.15,2927.38 h 778.68 V 1847.23 h -778.68 v 1080.15 0 0"
         style="fill:#b5b5b7;fill-opacity:1;fill-rule:evenodd;stroke:none"
         id="path14" /><path
         d="m 2327.68,1847.23 h 797.91 v 1080.15 h -797.91 v -1080.15 0 0 z"
         style="fill:none;stroke:#0e0f0e;stroke-width:7.51407;stroke-linecap:round;stroke-linejoin:round;stroke-miterlimit:10;stroke-dasharray:none;stroke-opacity:1"
         id="path16" /><g
         id="g18"
         transform="scale(10)"><text
           transform="matrix(1,0,0,-0.99890121,250.432,234.126)"
           style="font-variant:normal;font-weight:normal;font-size:20.022px;font-family:'Microsoft Sans Serif';-inkscape-font-specification:MicrosoftSansSerif;writing-mode:lr-tb;fill:#0e0f0e;fill-opacity:1;fill-rule:nonzero;stroke:none"
           id="text22"><tspan
             x="0"
             y="0"
             id="tspan20">L</tspan></text></g><g
         id="g24"><g
           id="g26"
           clip-path="url(#clipPath30)"><path
             d="m 2609.02,2358.28 h -69.67 v 126.33 h -19.01 v -143.35 h 88.68 z"
             style="fill:none;stroke:#0e0f0e;stroke-width:6.86314;stroke-linecap:butt;stroke-linejoin:miter;stroke-miterlimit:10;stroke-dasharray:none;stroke-opacity:1"
             id="path32" /></g></g><g
         id="g34"
         transform="scale(10)"><text
           transform="matrix(1,0,0,-0.99890121,263.823,234.126)"
           style="font-variant:normal;font-weight:normal;font-size:20.022px;font-family:'Microsoft Sans Serif';-inkscape-font-specification:MicrosoftSansSerif;writing-mode:lr-tb;fill:#0e0f0e;fill-opacity:1;fill-rule:nonzero;stroke:none"
           id="text38"><tspan
             x="0"
             y="0"
             id="tspan36">1</tspan></text></g><g
         id="g40"><g
           id="g42"
           clip-path="url(#clipPath46)"><path
             d="m 2713.31,2487.01 h -14.22 c -3.2,-17.42 -16.22,-26.03 -38.64,-26.03 v -14.41 c 15.62,0 27.03,2.39 34.44,7.41 v -112.72 h 18.42 z"
             style="fill:none;stroke:#0e0f0e;stroke-width:6.86314;stroke-linecap:butt;stroke-linejoin:miter;stroke-miterlimit:10;stroke-dasharray:none;stroke-opacity:1"
             id="path48" /></g></g><g
         id="g50"
         transform="scale(10)"><text
           transform="matrix(1,0,0,-0.99890121,277.213,234.126)"
           style="font-variant:normal;font-weight:normal;font-size:20.022px;font-family:'Microsoft Sans Serif';-inkscape-font-specification:MicrosoftSansSerif;writing-mode:lr-tb;fill:#0e0f0e;fill-opacity:1;fill-rule:nonzero;stroke:none"
           id="text54"><tspan
             x="0"
             y="0"
             id="tspan52">C</tspan></text></g><g
         id="g56"><g
           id="g58"
           clip-path="url(#clipPath62)"><path
             d="m 2888.44,2351.28 c 10.61,8.4 16.63,20.22 18.02,35.43 h -19.61 c -0.8,-10.21 -4.81,-18.03 -11.61,-23.43 -7.02,-5.41 -16.02,-8.21 -27.24,-8.21 -14.4,0 -25.82,5 -34.23,15.02 -8.41,10.02 -12.61,24.22 -12.61,42.84 0,18.63 4.2,32.83 12.61,42.85 8.61,10.01 20.02,15.01 34.64,15.01 10.81,0 19.61,-2.61 26.63,-8.01 7.2,-5.39 11.01,-12.61 11.81,-21.61 h 19.61 c -1.39,13.81 -7.6,24.81 -18.41,33.23 -11.01,8.41 -24.23,12.61 -39.84,12.61 -20.22,0 -36.44,-6.61 -48.66,-20.01 -12,-13.22 -18.01,-31.24 -18.01,-54.07 0,-22.82 6.01,-40.84 18.01,-54.04 12.22,-13.43 28.44,-20.03 48.66,-20.03 16.22,0 29.62,4.2 40.23,12.42 z"
             style="fill:none;stroke:#0e0f0e;stroke-width:6.86314;stroke-linecap:butt;stroke-linejoin:miter;stroke-miterlimit:10;stroke-dasharray:none;stroke-opacity:1"
             id="path64" /></g></g><path
         d="m 1716.86,998.922 h 710.06 v -613.07 h -710.06 v 613.07 0 0"
         style="fill:#b5b5b7;fill-opacity:1;fill-rule:evenodd;stroke:none"
         id="path66" /><path
         d="m 1716.86,385.852 h 710.06 v 613.07 h -710.06 v -613.07 0 0 z"
         style="fill:none;stroke:#0e0f0e;stroke-width:7.51407;stroke-linecap:round;stroke-linejoin:round;stroke-miterlimit:10;stroke-dasharray:none;stroke-opacity:1"
         id="path68" /><g
         id="g70"
         transform="scale(10)"><text
           transform="matrix(1,0,0,-0.99891119,184.034,74.0398)"
           style="font-variant:normal;font-weight:normal;font-size:15.781px;font-family:'Microsoft Sans Serif';-inkscape-font-specification:MicrosoftSansSerif;writing-mode:lr-tb;fill:#0e0f0e;fill-opacity:1;fill-rule:nonzero;stroke:none"
           id="text76"><tspan
             x="0 11.286081 21.053881 33.066086"
             y="0"
             sodipodi:role="line"
             id="tspan72">RTCM</tspan><tspan
             x="3.5390635 12.552242 21.38319"
             y="19.239748"
             sodipodi:role="line"
             id="tspan74">16M</tspan></text></g><path
         d="M 187.531,2042.53 H 1426.98 V 2707.9 H 187.531 v -665.37 0 0 z"
         style="fill:none;stroke:#0e0f0e;stroke-width:7.51407;stroke-linecap:round;stroke-linejoin:round;stroke-miterlimit:10;stroke-dasharray:none;stroke-opacity:1"
         id="path78" /><path
         d="m 3972.31,2012.53 h 969.27 v 706.5 h -969.27 v -706.5 0 0 z"
         style="fill:none;stroke:#0e0f0e;stroke-width:7.51407;stroke-linecap:round;stroke-linejoin:round;stroke-miterlimit:10;stroke-dasharray:none;stroke-opacity:1"
         id="path80" /><g
         id="g82"
         transform="scale(10)"><text
           transform="matrix(1,0,0,-0.99891119,412.346,233.134)"
           style="font-variant:normal;font-weight:normal;font-size:16.0174px;font-family:'Microsoft Sans Serif';-inkscape-font-specification:MicrosoftSansSerif;writing-mode:lr-tb;fill:#0e0f0e;fill-opacity:1;fill-rule:nonzero;stroke:none"
           id="text86"><tspan
             x="0 10.515957 20.523754 24.538984 36.538925 46.054928 57.570889"
             y="0"
             sodipodi:role="line"
             id="tspan84">SF CTRL</tspan></text></g><path
         d="M 1726.6,1330.74 H 4358.27"
         style="fill:none;stroke:#0e0f0e;stroke-width:30.0262;stroke-linecap:round;stroke-linejoin:round;stroke-miterlimit:10;stroke-dasharray:none;stroke-opacity:1"
         id="path88" /><path
         d="m 1591.58,2365.28 h 603.26"
         style="fill:none;stroke:#0e0f0e;stroke-width:60.0525;stroke-linecap:round;stroke-linejoin:round;stroke-miterlimit:10;stroke-dasharray:none;stroke-opacity:1"
         id="path90" /><path
         d="m 1426.98,2365.28 170.74,85.27 c -26.87,-53.68 -26.87,-116.86 0,-170.54 l -170.74,85.27 v 0 0 0"
         style="fill:#0e0f0e;fill-opacity:1;fill-rule:evenodd;stroke:none"
         id="path92" /><path
         d="m 2324.08,2365.28 -170.73,-85.27 c 26.87,53.68 26.87,116.86 0,170.54 l 170.73,-85.27 v 0 0 0"
         style="fill:#0e0f0e;fill-opacity:1;fill-rule:evenodd;stroke:none"
         id="path94" /><path
         d="m 3265.44,2403.46 h 520.69"
         style="fill:none;stroke:#0e0f0e;stroke-width:60.0525;stroke-linecap:round;stroke-linejoin:round;stroke-miterlimit:10;stroke-dasharray:none;stroke-opacity:1"
         id="path96" /><path
         d="m 3136.2,2403.46 170.75,85.27 c -26.88,-53.68 -26.88,-116.86 0,-170.54 l -170.75,85.27 v 0 0 0"
         style="fill:#0e0f0e;fill-opacity:1;fill-rule:evenodd;stroke:none"
         id="path98" /><path
         d="m 3972.31,2403.46 -170.74,-85.27 c 26.86,53.68 26.86,116.86 0,170.54 l 170.74,-85.27 v 0 0 0"
         style="fill:#0e0f0e;fill-opacity:1;fill-rule:evenodd;stroke:none"
         id="path100" /><path
         d="M 2725.14,1727.7 V 1437.1"
         style="fill:none;stroke:#0e0f0e;stroke-width:45.0886;stroke-linecap:round;stroke-linejoin:round;stroke-miterlimit:10;stroke-dasharray:none;stroke-opacity:1"
         id="path102" /><path
         d="m 2725.14,1859.53 70.34,-140.51 c -44.28,22.12 -96.4,22.12 -140.66,0 l 70.32,140.51 v 0 0 0"
         style="fill:#0e0f0e;fill-opacity:1;fill-rule:evenodd;stroke:none"
         id="path104" /><path
         d="m 2725.14,1330.74 -70.32,140.52 c 44.26,-22.12 96.38,-22.12 140.66,0 l -70.34,-140.52 v 0 0 0"
         style="fill:#0e0f0e;fill-opacity:1;fill-rule:evenodd;stroke:none"
         id="path106" /><path
         d="m 3921.45,1127.16 v 123.73"
         style="fill:none;stroke:#0e0f0e;stroke-width:30.0591;stroke-linecap:round;stroke-linejoin:round;stroke-miterlimit:10;stroke-dasharray:none;stroke-opacity:1"
         id="path108" /><path
         d="m 3921.45,1043.53 -55.32,110.49 c 34.81,-17.4 75.81,-17.4 110.61,0 l -55.29,-110.49 v 0 0 0"
         style="fill:#0e0f0e;fill-opacity:1;fill-rule:evenodd;stroke:none"
         id="path110" /><path
         d="m 3921.45,1334.53 55.29,-110.49 c -34.8,17.4 -75.8,17.4 -110.61,0 l 55.32,110.49 v 0 0 0"
         style="fill:#0e0f0e;fill-opacity:1;fill-rule:evenodd;stroke:none"
         id="path112" /><path
         d="M 2071.89,1082.55 V 1247.1"
         style="fill:none;stroke:#0e0f0e;stroke-width:30.0591;stroke-linecap:round;stroke-linejoin:round;stroke-miterlimit:10;stroke-dasharray:none;stroke-opacity:1"
         id="path114" /><path
         d="m 2071.89,998.922 -55.31,110.488 c 34.82,-17.4 75.81,-17.4 110.62,0 l -55.31,-110.488 v 0 0 0"
         style="fill:#0e0f0e;fill-opacity:1;fill-rule:evenodd;stroke:none"
         id="path116" /><path
         d="m 2071.89,1330.74 55.31,-110.5 c -34.81,17.39 -75.8,17.39 -110.62,0 l 55.31,110.5 v 0 0 0"
         style="fill:#0e0f0e;fill-opacity:1;fill-rule:evenodd;stroke:none"
         id="path118" /><path
         d="M 3470.77,1083.79 V 1247.1"
         style="fill:none;stroke:#0e0f0e;stroke-width:30.0591;stroke-linecap:round;stroke-linejoin:round;stroke-miterlimit:10;stroke-dasharray:none;stroke-opacity:1"
         id="path120" /><path
         d="m 3470.77,1000.16 -55.3,110.49 c 34.82,-17.39 75.8,-17.39 110.63,0 l -55.33,-110.49 v 0 0 0"
         style="fill:#0e0f0e;fill-opacity:1;fill-rule:evenodd;stroke:none"
         id="path122" /><path
         d="m 3470.77,1330.74 55.33,-110.5 c -34.83,17.39 -75.81,17.39 -110.63,0 l 55.3,110.5 v 0 0 0"
         style="fill:#0e0f0e;fill-opacity:1;fill-rule:evenodd;stroke:none"
         id="path124" /><path
         d="m 2715.14,3269.55 v -235.8"
         style="fill:none;stroke:#0e0f0e;stroke-width:45.0886;stroke-linecap:round;stroke-linejoin:round;stroke-miterlimit:10;stroke-dasharray:none;stroke-opacity:1"
         id="path126" /><path
         d="m 2725.14,3375.92 70.34,-140.53 c -44.28,22.12 -96.4,22.12 -140.66,0 l 70.32,140.53 v 0 0 0"
         style="fill:#0e0f0e;fill-opacity:1;fill-rule:evenodd;stroke:none"
         id="path128" /><path
         d="m 2715.14,2917.38 -70.33,140.52 c 44.27,-22.12 96.39,-22.12 140.67,0 l -70.34,-140.52 v 0 0 0"
         style="fill:#0e0f0e;fill-opacity:1;fill-rule:evenodd;stroke:none"
         id="path130" /><path
         d="m 3205.59,1046.1 h 476.92 V 858.148 h -476.92 v 187.952 0 0"
         style="fill:#d0d0d0;fill-opacity:1;fill-rule:evenodd;stroke:none"
         id="path132" /><path
         d="m 3205.59,858.148 h 476.92 V 1046.1 h -476.92 v -187.952 0 0 z"
         style="fill:none;stroke:#0e0f0e;stroke-width:7.51407;stroke-linecap:round;stroke-linejoin:round;stroke-miterlimit:10;stroke-dasharray:none;stroke-opacity:1"
         id="path134" /><g
         id="g136"
         transform="scale(10)"><text
           transform="matrix(1,0,0,-0.99891119,329.346,91.6102)"
           style="font-variant:normal;font-weight:normal;font-size:12.0236px;font-family:'Times New Roman';-inkscape-font-specification:TimesNewRomanPSMT;writing-mode:lr-tb;fill:#0e0f0e;fill-opacity:1;fill-rule:nonzero;stroke:none"
           id="text140"><tspan
             x="0 3.7636702 11.273822 19.533573"
             y="0"
             sodipodi:role="line"
             id="tspan138">ITCM</tspan></text></g><path
         d="m 3682.97,116.672 h 476.93 v 926.858 h -476.93 v -926.858 0 0 z"
         style="fill:none;stroke:#0e0f0e;stroke-width:7.51407;stroke-linecap:round;stroke-linejoin:round;stroke-miterlimit:10;stroke-dasharray:none;stroke-opacity:1"
         id="path142" /><g
         id="g144"
         transform="scale(10)"><text
           transform="matrix(1,0,0,-0.99891119,372.268,91.5398)"
           style="font-variant:normal;font-weight:normal;font-size:12.0236px;font-family:'Times New Roman';-inkscape-font-specification:TimesNewRomanPSMT;writing-mode:lr-tb;fill:#3fb252;fill-opacity:1;fill-rule:nonzero;stroke:none"
           id="text148"><tspan
             x="0 6.0117955"
             y="0"
             sodipodi:role="line"
             id="tspan146">$ </tspan></text></g><g
         id="g150"
         transform="scale(10)"><text
           transform="matrix(1,0,0,-0.99891119,381.292,91.5398)"
           style="font-variant:normal;font-weight:normal;font-size:12.0236px;font-family:'Times New Roman';-inkscape-font-specification:TimesNewRomanPSMT;writing-mode:lr-tb;fill:#0e0f0e;fill-opacity:1;fill-rule:nonzero;stroke:none"
           id="text154"><tspan
             x="0 8.2597504 15.03084 23.29059"
             y="0"
             sodipodi:role="line"
             id="tspan152">CTRL</tspan></text></g><path
         d="m 3967.37,518.16 h 86.29"
         style="fill:none;stroke:#0e0f0e;stroke-width:7.51407;stroke-linecap:round;stroke-linejoin:round;stroke-miterlimit:10;stroke-dasharray:95345.3, 190691;stroke-dashoffset:0;stroke-opacity:1"
         id="path156" /><g
         id="g158"
         transform="scale(10)"><text
           transform="matrix(1,0,0,-0.99891119,383.213,19.4539)"
           style="font-variant:normal;font-weight:normal;font-size:9.00981px;font-family:'Times New Roman';-inkscape-font-specification:TimesNewRomanPSMT;writing-mode:lr-tb;fill:#0e0f0e;fill-opacity:1;fill-rule:nonzero;stroke:none"
           id="text162"><tspan
             x="0 4.5049052 7.8679833 11.254692 14.624997 18.011707 21.390997 24.777706"
             y="0"
             sodipodi:role="line"
             id="tspan160">prefetch</tspan></text></g><path
         d="m 3787.82,549.422 h 86.31 V 285.82 h -86.31 v 263.602 0 0"
         style="fill:#e2e9f4;fill-opacity:1;fill-rule:evenodd;stroke:none"
         id="path164" /><path
         d="m 3787.82,316.582 h 86.31 m -86.31,65.887 h 86.31 m -86.31,65.902 h 86.31 m -86.31,65.899 h 86.31 m -86.31,-162.551 h 86.31 m -86.31,131.812 h 86.31 m -86.31,-65.91 h 86.31 M 3787.82,285.82 h 86.31 v 263.602 h -86.31 v -263.602 0 0 z"
         style="fill:none;stroke:#0e0f0e;stroke-width:7.51407;stroke-linecap:round;stroke-linejoin:round;stroke-miterlimit:10;stroke-dasharray:none;stroke-opacity:1"
         id="path166" /><path
         d="m 3967.37,549.961 h 86.29 v -263.59 h -86.29 v 263.59 0 0"
         style="fill:#e2e9f4;fill-opacity:1;fill-rule:evenodd;stroke:none"
         id="path168" /><path
         d="m 3967.37,320.461 h 86.29 m -86.29,65.898 h 86.29 m -86.29,65.911 h 86.29 m -86.29,-96.649 h 86.29 m -86.29,131.789 h 86.29 m -86.29,-69.238 h 86.29 m -86.29,-131.801 h 86.29 v 263.59 h -86.29 v -263.59 0 0 z"
         style="fill:none;stroke:#0e0f0e;stroke-width:7.51407;stroke-linecap:round;stroke-linejoin:round;stroke-miterlimit:10;stroke-dasharray:95345.3, 190691;stroke-dashoffset:0;stroke-opacity:1"
         id="path170" /><path
         d="M 3206.1,857.77 H 3683 V 670.141 h -476.9 v 187.629 0 0"
         style="fill:#d0d0d0;fill-opacity:1;fill-rule:evenodd;stroke:none"
         id="path172" /><path
         d="M 3206.1,670.141 H 3683 V 857.77 h -476.9 v -187.629 0 0 z"
         style="fill:none;stroke:#0e0f0e;stroke-width:7.51407;stroke-linecap:round;stroke-linejoin:round;stroke-miterlimit:10;stroke-dasharray:none;stroke-opacity:1"
         id="path174" /><path
         d="M 3206.1,672.711 H 3683 V 485.09 h -476.9 v 187.621 0 0"
         style="fill:#d0d0d0;fill-opacity:1;fill-rule:evenodd;stroke:none"
         id="path176" /><path
         d="M 3206.1,485.09 H 3683 v 187.621 h -476.9 v -187.621 0 0 z"
         style="fill:none;stroke:#0e0f0e;stroke-width:7.51407;stroke-linecap:round;stroke-linejoin:round;stroke-miterlimit:10;stroke-dasharray:none;stroke-opacity:1"
         id="path178" /><path
         d="M 3206.1,487.672 H 3683 V 300.031 h -476.9 v 187.641 0 0"
         style="fill:#d0d0d0;fill-opacity:1;fill-rule:evenodd;stroke:none"
         id="path180" /><path
         d="M 3206.1,300.031 H 3683 v 187.641 h -476.9 v -187.641 0 0 z"
         style="fill:none;stroke:#0e0f0e;stroke-width:7.51407;stroke-linecap:round;stroke-linejoin:round;stroke-miterlimit:10;stroke-dasharray:none;stroke-opacity:1"
         id="path182" /><path
         d="M 3206.1,302.602 H 3683 V 114.969 h -476.9 v 187.633 0 0"
         style="fill:#d0d0d0;fill-opacity:1;fill-rule:evenodd;stroke:none"
         id="path184" /><path
         d="M 3206.1,114.969 H 3683 v 187.633 h -476.9 v -187.633 0 0 z"
         style="fill:none;stroke:#0e0f0e;stroke-width:7.51407;stroke-linecap:round;stroke-linejoin:round;stroke-miterlimit:10;stroke-dasharray:none;stroke-opacity:1"
         id="path186" /><g
         id="g188"
         transform="scale(10)"><text
           transform="matrix(1,0,0,-0.99891119,334.37,72.7898)"
           style="font-variant:normal;font-weight:normal;font-size:12.0236px;font-family:'Times New Roman';-inkscape-font-specification:TimesNewRomanPSMT;writing-mode:lr-tb;fill:#0e0f0e;fill-opacity:1;fill-rule:nonzero;stroke:none"
           id="text198"><tspan
             x="0 9.0078154 14.273046 20.032816"
             y="0"
             sodipodi:role="line"
             id="tspan190">way0</tspan><tspan
             x="0 9.0078154 14.273046 20.032816"
             y="18.536182"
             sodipodi:role="line"
             id="tspan192">way1</tspan><tspan
             x="0 9.0078154 14.273046 20.032816"
             y="38.244343"
             sodipodi:role="line"
             id="tspan194">way2</tspan><tspan
             x="0 9.0078154 14.273046 20.032816"
             y="56.780521"
             sodipodi:role="line"
             id="tspan196">way3</tspan></text></g><path
         d="m 1589.06,4345.95 h 710.05 v -613.06 h -710.05 v 613.06 0 0"
         style="fill:#b5b5b7;fill-opacity:1;fill-rule:evenodd;stroke:none"
         id="path200" /><path
         d="m 1589.06,3732.89 h 710.05 v 613.06 h -710.05 v -613.06 0 0 z"
         style="fill:none;stroke:#0e0f0e;stroke-width:7.51407;stroke-linecap:round;stroke-linejoin:round;stroke-miterlimit:10;stroke-dasharray:none;stroke-opacity:1"
         id="path202" /><g
         id="g204"
         transform="scale(10)"><text
           transform="matrix(1,0,0,-0.99891119,171.26,408.751)"
           style="font-variant:normal;font-weight:normal;font-size:15.781px;font-family:'Microsoft Sans Serif';-inkscape-font-specification:MicrosoftSansSerif;writing-mode:lr-tb;fill:#0e0f0e;fill-opacity:1;fill-rule:nonzero;stroke:none"
           id="text210"><tspan
             x="0 11.286081 21.04685 33.059029"
             y="0"
             sodipodi:role="line"
             id="tspan206">RTCM</tspan><tspan
             x="3.5386729 12.551851 21.366783"
             y="19.240049"
             sodipodi:role="line"
             id="tspan208">16M</tspan></text></g><path
         d="M 1376.04,3352.95 H 4007.72"
         style="fill:none;stroke:#0e0f0e;stroke-width:30.0262;stroke-linecap:round;stroke-linejoin:round;stroke-miterlimit:10;stroke-dasharray:none;stroke-opacity:1"
         id="path212" /><path
         d="m 3495.4,3409.13 v 257.01"
         style="fill:none;stroke:#0e0f0e;stroke-width:30.0591;stroke-linecap:round;stroke-linejoin:round;stroke-miterlimit:10;stroke-dasharray:none;stroke-opacity:1"
         id="path214" /><path
         d="m 3495.4,3325.5 -55.31,110.5 c 34.81,-17.4 75.8,-17.4 110.62,0 l -55.31,-110.5 v 0 0 0"
         style="fill:#0e0f0e;fill-opacity:1;fill-rule:evenodd;stroke:none"
         id="path216" /><path
         d="m 3495.4,3749.79 55.31,-110.5 c -34.82,17.39 -75.81,17.39 -110.62,0 l 55.31,110.5 v 0 0 0"
         style="fill:#0e0f0e;fill-opacity:1;fill-rule:evenodd;stroke:none"
         id="path218" /><path
         d="M 1944.08,3649.25 V 3436.59"
         style="fill:none;stroke:#0e0f0e;stroke-width:30.0591;stroke-linecap:round;stroke-linejoin:round;stroke-miterlimit:10;stroke-dasharray:none;stroke-opacity:1"
         id="path220" /><path
         d="m 1944.08,3732.89 55.31,-110.5 c -34.82,17.4 -75.8,17.4 -110.62,0 l 55.31,110.5 v 0 0 0"
         style="fill:#0e0f0e;fill-opacity:1;fill-rule:evenodd;stroke:none"
         id="path222" /><path
         d="m 1944.08,3352.95 -55.31,110.5 c 34.82,-17.39 75.8,-17.39 110.62,0 l -55.31,-110.5 v 0 0 0"
         style="fill:#0e0f0e;fill-opacity:1;fill-rule:evenodd;stroke:none"
         id="path224" /><path
         d="m 3016.54,3664.48 -5.39,-227.91"
         style="fill:none;stroke:#0e0f0e;stroke-width:30.059;stroke-linecap:round;stroke-linejoin:round;stroke-miterlimit:10;stroke-dasharray:none;stroke-opacity:1"
         id="path226" /><path
         d="m 3018.52,3748.1 52.67,-111.78 c -34.39,18.21 -75.37,19.18 -110.58,2.62 l 57.91,109.16 v 0 0 0"
         style="fill:#0e0f0e;fill-opacity:1;fill-rule:evenodd;stroke:none"
         id="path228" /><path
         d="m 3009.16,3352.95 -52.66,111.77 c 34.38,-18.21 75.36,-19.17 110.57,-2.61 l -57.91,-109.16 v 0 0 0"
         style="fill:#0e0f0e;fill-opacity:1;fill-rule:evenodd;stroke:none"
         id="path230" /><path
         d="m 2779.55,4679.21 h 476.94 v -187.95 h -476.94 v 187.95 0 0"
         style="fill:#d0d0d0;fill-opacity:1;fill-rule:evenodd;stroke:none"
         id="path232" /><path
         d="m 2779.55,4491.26 h 476.94 v 187.95 h -476.94 v -187.95 0 0 z"
         style="fill:none;stroke:#0e0f0e;stroke-width:7.51407;stroke-linecap:round;stroke-linejoin:round;stroke-miterlimit:10;stroke-dasharray:none;stroke-opacity:1"
         id="path234" /><g
         id="g236"
         transform="scale(10)"><text
           transform="matrix(1,0,0,-0.99891119,287.768,454.923)"
           style="font-variant:normal;font-weight:normal;font-size:12.0236px;font-family:'Times New Roman';-inkscape-font-specification:TimesNewRomanPSMT;writing-mode:lr-tb;fill:#0e0f0e;fill-opacity:1;fill-rule:nonzero;stroke:none"
           id="text240"><tspan
             x="0 9.0078154 14.274218 20.033987"
             y="0"
             sodipodi:role="line"
             id="tspan238">way3</tspan></text></g><path
         d="m 3256.95,3749.79 h 476.91 v 926.84 h -476.91 v -926.84 0 0 z"
         style="fill:none;stroke:#0e0f0e;stroke-width:7.51407;stroke-linecap:round;stroke-linejoin:round;stroke-miterlimit:10;stroke-dasharray:none;stroke-opacity:1"
         id="path242" /><g
         id="g244"
         transform="scale(10)"><text
           transform="matrix(1,0,0,-0.99891119,329.659,454.845)"
           style="font-variant:normal;font-weight:normal;font-size:12.0236px;font-family:'Times New Roman';-inkscape-font-specification:TimesNewRomanPSMT;writing-mode:lr-tb;fill:#3fb252;fill-opacity:1;fill-rule:nonzero;stroke:none"
           id="text248"><tspan
             x="0 6.0117955"
             y="0"
             sodipodi:role="line"
             id="tspan246">$ </tspan></text></g><g
         id="g250"
         transform="scale(10)"><text
           transform="matrix(1,0,0,-0.99891119,338.698,454.845)"
           style="font-variant:normal;font-weight:normal;font-size:12.0236px;font-family:'Times New Roman';-inkscape-font-specification:TimesNewRomanPSMT;writing-mode:lr-tb;fill:#0e0f0e;fill-opacity:1;fill-rule:nonzero;stroke:none"
           id="text254"><tspan
             x="0 8.2597504 15.023027 23.282778"
             y="0"
             sodipodi:role="line"
             id="tspan252">CTRL</tspan></text></g><path
         d="m 3541.32,4151.27 h 86.31"
         style="fill:none;stroke:#0e0f0e;stroke-width:7.51407;stroke-linecap:round;stroke-linejoin:round;stroke-miterlimit:10;stroke-dasharray:95345.3, 190691;stroke-dashoffset:0;stroke-opacity:1"
         id="path256" /><g
         id="g258"
         transform="scale(10)"><text
           transform="matrix(1,0,0,-0.99891119,342.604,382.774)"
           style="font-variant:normal;font-weight:normal;font-size:9.00981px;font-family:'Times New Roman';-inkscape-font-specification:TimesNewRomanPSMT;writing-mode:lr-tb;fill:#0e0f0e;fill-opacity:1;fill-rule:nonzero;stroke:none"
           id="text262"><tspan
             x="0 4.5049052 7.8750143 11.261724 14.624997 18.011707 21.390997 24.777706"
             y="0"
             sodipodi:role="line"
             id="tspan260">prefetch</tspan></text></g><path
         d="m 3361.79,4182.53 h 86.32 v -263.58 h -86.32 v 263.58 0 0"
         style="fill:#e2e9f4;fill-opacity:1;fill-rule:evenodd;stroke:none"
         id="path264" /><path
         d="m 3361.79,3949.69 h 86.32 m -86.32,65.9 h 86.32 m -86.32,65.9 h 86.32 m -86.32,65.89 h 86.32 m -86.32,-162.54 h 86.32 m -86.32,131.79 h 86.32 m -86.32,-65.89 h 86.32 m -86.32,-131.79 h 86.32 v 263.58 h -86.32 v -263.58 0 0 z"
         style="fill:none;stroke:#0e0f0e;stroke-width:7.51407;stroke-linecap:round;stroke-linejoin:round;stroke-miterlimit:10;stroke-dasharray:none;stroke-opacity:1"
         id="path266" /><path
         d="m 3541.32,4183.07 h 86.31 v -263.58 h -86.31 v 263.58 0 0"
         style="fill:#e2e9f4;fill-opacity:1;fill-rule:evenodd;stroke:none"
         id="path268" /><path
         d="m 3541.32,3953.57 h 86.31 m -86.31,65.9 h 86.31 m -86.31,65.9 h 86.31 m -86.31,-96.65 h 86.31 m -86.31,131.8 h 86.31 m -86.31,-69.24 h 86.31 m -86.31,-131.79 h 86.31 v 263.58 h -86.31 v -263.58 0 0 z"
         style="fill:none;stroke:#0e0f0e;stroke-width:7.51407;stroke-linecap:round;stroke-linejoin:round;stroke-miterlimit:10;stroke-dasharray:95345.3, 190691;stroke-dashoffset:0;stroke-opacity:1"
         id="path270" /><path
         d="m 2780.05,4490.88 h 476.93 v -187.63 h -476.93 v 187.63 0 0"
         style="fill:#d0d0d0;fill-opacity:1;fill-rule:evenodd;stroke:none"
         id="path272" /><path
         d="m 2780.05,4303.25 h 476.93 v 187.63 h -476.93 v -187.63 0 0 z"
         style="fill:none;stroke:#0e0f0e;stroke-width:7.51407;stroke-linecap:round;stroke-linejoin:round;stroke-miterlimit:10;stroke-dasharray:none;stroke-opacity:1"
         id="path274" /><path
         d="m 2780.05,4305.82 h 476.93 V 4118.2 h -476.93 v 187.62 0 0"
         style="fill:#d0d0d0;fill-opacity:1;fill-rule:evenodd;stroke:none"
         id="path276" /><path
         d="m 2780.05,4118.2 h 476.93 v 187.62 h -476.93 v -187.62 0 0 z"
         style="fill:none;stroke:#0e0f0e;stroke-width:7.51407;stroke-linecap:round;stroke-linejoin:round;stroke-miterlimit:10;stroke-dasharray:none;stroke-opacity:1"
         id="path278" /><path
         d="m 2780.05,4120.77 h 476.93 v -187.63 h -476.93 v 187.63 0 0"
         style="fill:#d0d0d0;fill-opacity:1;fill-rule:evenodd;stroke:none"
         id="path280" /><path
         d="m 2780.05,3933.14 h 476.93 v 187.63 h -476.93 v -187.63 0 0 z"
         style="fill:none;stroke:#0e0f0e;stroke-width:7.51407;stroke-linecap:round;stroke-linejoin:round;stroke-miterlimit:10;stroke-dasharray:none;stroke-opacity:1"
         id="path282" /><path
         d="m 2780.05,3935.71 h 476.93 V 3748.1 h -476.93 v 187.61 0 0"
         style="fill:#d0d0d0;fill-opacity:1;fill-rule:evenodd;stroke:none"
         id="path284" /><path
         d="m 2780.05,3748.1 h 476.93 v 187.61 h -476.93 v -187.61 0 0 z"
         style="fill:none;stroke:#0e0f0e;stroke-width:7.51407;stroke-linecap:round;stroke-linejoin:round;stroke-miterlimit:10;stroke-dasharray:none;stroke-opacity:1"
         id="path286" /><g
         id="g288"
         transform="scale(10)"><text
           transform="matrix(1,0,0,-0.99891119,287.768,436.102)"
           style="font-variant:normal;font-weight:normal;font-size:12.0236px;font-family:'Times New Roman';-inkscape-font-specification:TimesNewRomanPSMT;writing-mode:lr-tb;fill:#0e0f0e;fill-opacity:1;fill-rule:nonzero;stroke:none"
           id="text298"><tspan
             x="0 9.0078154 14.274218 20.033987"
             y="0"
             sodipodi:role="line"
             id="tspan290">way2</tspan><tspan
             x="0 9.0078154 14.274218 20.033987"
             y="18.527973"
             sodipodi:role="line"
             id="tspan292">way1</tspan><tspan
             x="0 9.0078154 14.274218 20.033987"
             y="38.24474"
             sodipodi:role="line"
             id="tspan294">way0</tspan><tspan
             x="-0.74179667 7.5179539 13.0951 18.672247 24.92518"
             y="56.771915"
             sodipodi:role="line"
             id="tspan296">Cache</tspan></text><text
           transform="matrix(1,0,0,-0.99891119,63.2602,231.751)"
           style="font-variant:normal;font-weight:normal;font-size:15.781px;font-family:'Microsoft Sans Serif';-inkscape-font-specification:MicrosoftSansSerif;writing-mode:lr-tb;fill:#0e0f0e;fill-opacity:1;fill-rule:nonzero;stroke:none"
           id="text302"><tspan
             x="0 11.286087 21.701071"
             y="0"
             sodipodi:role="line"
             id="tspan300">CPU</tspan></text></g><path
         d="M 5189.9,2.5 H 2.5 v 4830 h 5187.4 z"
         style="fill:none;stroke:#231f20;stroke-width:5;stroke-linecap:butt;stroke-linejoin:miter;stroke-miterlimit:10;stroke-dasharray:none;stroke-opacity:1"
         id="path304" /></g></g></svg>
