<?xml version="1.0" encoding="UTF-8" standalone="no"?>
<svg
   xmlns:dc="http://purl.org/dc/elements/1.1/"
   xmlns:cc="http://creativecommons.org/ns#"
   xmlns:rdf="http://www.w3.org/1999/02/22-rdf-syntax-ns#"
   xmlns:svg="http://www.w3.org/2000/svg"
   xmlns="http://www.w3.org/2000/svg"
   xmlns:sodipodi="http://sodipodi.sourceforge.net/DTD/sodipodi-0.dtd"
   xmlns:inkscape="http://www.inkscape.org/namespaces/inkscape"
   version="1.1"
   id="svg2"
   xml:space="preserve"
   width="689.54669"
   height="387.69333"
   viewBox="0 0 689.54669 387.69333"
   sodipodi:docname="L1c_Way.svg"
   inkscape:version="1.0.1 (3bc2e813f5, 2020-09-07)"><metadata
     id="metadata8"><rdf:RDF><cc:Work
         rdf:about=""><dc:format>image/svg+xml</dc:format><dc:type
           rdf:resource="http://purl.org/dc/dcmitype/StillImage" /><dc:title></dc:title></cc:Work></rdf:RDF></metadata><defs
     id="defs6"><clipPath
       clipPathUnits="userSpaceOnUse"
       id="clipPath168"><path
         d="M 2.5,2905.17 V 2.5 h 5166.57 v 2902.67 z"
         id="path166" /></clipPath></defs><sodipodi:namedview
     pagecolor="#ffffff"
     bordercolor="#666666"
     borderopacity="1"
     objecttolerance="10"
     gridtolerance="10"
     guidetolerance="10"
     inkscape:pageopacity="0"
     inkscape:pageshadow="2"
     inkscape:window-width="786"
     inkscape:window-height="480"
     id="namedview4"
     showgrid="false"
     inkscape:zoom="1.5952509"
     inkscape:cx="344.77335"
     inkscape:cy="93.548964"
     inkscape:window-x="0"
     inkscape:window-y="0"
     inkscape:window-maximized="0"
     inkscape:current-layer="g10" /><g
     id="g10"
     inkscape:groupmode="layer"
     inkscape:label="ink_ext_XXXXXX"
     transform="matrix(1.3333333,0,0,-1.3333333,0,387.69333)"><g
       id="g12"
       transform="scale(0.1)"><path
         d="M 477.184,2513.43 H 2146.53 v 295.32 H 477.184 v -295.32 0 0 z"
         style="fill:none;stroke:#0e0f0e;stroke-width:7.51407;stroke-linecap:round;stroke-linejoin:round;stroke-miterlimit:10;stroke-dasharray:none;stroke-opacity:1"
         id="path14" /><g
         id="g16"
         transform="scale(10)"><text
           transform="matrix(0.859823,0,0,-1,120.102,260.532)"
           style="font-variant:normal;font-weight:normal;font-size:18.5487px;font-family:'Microsoft Sans Serif';-inkscape-font-specification:MicrosoftSansSerif;writing-mode:lr-tb;fill:#0e0f0e;fill-opacity:1;fill-rule:nonzero;stroke:none"
           id="text20"><tspan
             x="0 5.2092099 15.636842"
             y="0"
             sodipodi:role="line"
             id="tspan18">tag</tspan></text></g><path
         d="m 2146.53,2513.43 h 544.58 v 295.32 h -544.58 v -295.32 0 0 z"
         style="fill:none;stroke:#0e0f0e;stroke-width:7.51407;stroke-linecap:round;stroke-linejoin:round;stroke-miterlimit:10;stroke-dasharray:none;stroke-opacity:1"
         id="path22" /><g
         id="g24"
         transform="scale(10)"><text
           transform="matrix(0.859823,0,0,-1,222.774,260.532)"
           style="font-variant:normal;font-weight:normal;font-size:18.5487px;font-family:'Microsoft Sans Serif';-inkscape-font-specification:MicrosoftSansSerif;writing-mode:lr-tb;fill:#0e0f0e;fill-opacity:1;fill-rule:nonzero;stroke:none"
           id="text28"><tspan
             x="0 4.0626564 14.4929 24.919838 35.347343"
             y="0"
             sodipodi:role="line"
             id="tspan26">index</tspan></text></g><path
         d="m 2691.76,2513.43 h 544.58 v 295.32 h -544.58 v -295.32 0 0 z"
         style="fill:none;stroke:#0e0f0e;stroke-width:7.51407;stroke-linecap:round;stroke-linejoin:round;stroke-miterlimit:10;stroke-dasharray:none;stroke-opacity:1"
         id="path30" /><g
         id="g32"
         transform="scale(10)"><text
           transform="matrix(0.859823,0,0,-1,276.899,260.532)"
           style="font-variant:normal;font-weight:normal;font-size:18.5487px;font-family:'Microsoft Sans Serif';-inkscape-font-specification:MicrosoftSansSerif;writing-mode:lr-tb;fill:#0e0f0e;fill-opacity:1;fill-rule:nonzero;stroke:none"
           id="text36"><tspan
             x="0 10.371854 15.580496 20.789137 30.120182 39.991161"
             y="0"
             sodipodi:role="line"
             id="tspan34">offset</tspan></text><text
           transform="matrix(0.859825,0,0,-1,49.5473,214.766)"
           style="font-variant:normal;font-weight:normal;font-size:12.1726px;font-family:'Microsoft Sans Serif';-inkscape-font-specification:MicrosoftSansSerif;writing-mode:lr-tb;fill:#0e0f0e;fill-opacity:1;fill-rule:nonzero;stroke:none"
           id="text40"><tspan
             x="0 6.3659897 13.320307 15.645796 18.544847 41.029709 44.494949 51.447563 84.528549 96.066261 102.88486 106.98724 113.80527 117.36546 161.22493 172.80014 179.75276 183.80348 190.75609 194.04404 234.38597 245.97186 252.9239 256.9743 263.92633 267.21484 307.11893 318.70657 325.65863 329.70993 336.66196 339.94955"
             y="0"
             sodipodi:role="line"
             id="tspan38">validtagWord 3Word 2Word 1Word 0</tspan></text></g><path
         d="m 2994.19,1418.04 h 625.38 v 219.08 h -625.38 v -219.08 0 0 z m -625.39,0 h 625.39 v 219.08 H 2368.8 v -219.08 0 0 z m -629.15,0 h 625.39 v 219.08 h -625.39 v -219.08 0 0 z m -629.15,0 h 625.38 v 219.08 H 1110.5 v -219.08 0 0 z m -376.738,0 H 1110.5 v 219.08 H 733.762 v -219.08 0 0 z m -256.578,0 h 256.578 v 219.08 H 477.184 v -219.08 0 0 z m 2517.006,219.08 h 625.38 v 219.08 h -625.38 v -219.08 0 0 z m -625.39,0 h 625.39 V 1856.2 H 2368.8 v -219.08 0 0 z m -629.15,0 h 625.39 v 219.08 h -625.39 v -219.08 0 0 z m -629.15,0 h 625.38 V 1856.2 H 1110.5 v -219.08 0 0 z m -376.738,0 H 1110.5 V 1856.2 H 733.762 v -219.08 0 0 z m -256.578,0 H 733.762 V 1856.2 H 477.184 v -219.08 0 0 z M 2994.19,1856.2 h 625.38 v 219.08 h -625.38 v -219.08 0 0 z m -625.39,0 h 625.39 v 219.08 H 2368.8 v -219.08 0 0 z m -629.15,0 h 625.39 v 219.08 h -625.39 v -219.08 0 0 z m -629.15,0 h 625.38 v 219.08 H 1110.5 v -219.08 0 0 z m -376.738,0 H 1110.5 v 219.08 H 733.762 v -219.08 0 0 z m -256.578,0 h 256.578 v 219.08 H 477.184 v -219.08 0 0 z"
         style="fill:none;stroke:#0e0f0e;stroke-width:7.51407;stroke-linecap:round;stroke-linejoin:round;stroke-miterlimit:10;stroke-dasharray:none;stroke-opacity:1"
         id="path42" /><path
         d="M 3936.04,2075.28 H 5066.25 V 1308.51 H 3936.04 v 766.77 0 0"
         style="fill:#b5b5b7;fill-opacity:1;fill-rule:evenodd;stroke:none"
         id="path44" /><path
         d="m 3936.04,1308.51 h 1130.21 v 766.77 H 3936.04 v -766.77 0 0 z"
         style="fill:none;stroke:#0e0f0e;stroke-width:7.51407;stroke-linecap:round;stroke-linejoin:round;stroke-miterlimit:10;stroke-dasharray:none;stroke-opacity:1"
         id="path46" /><g
         id="g48"
         transform="scale(10)"><text
           transform="matrix(0.859823,0,0,-1,432.391,163.618)"
           style="font-variant:normal;font-weight:normal;font-size:18.5487px;font-family:'Microsoft Sans Serif';-inkscape-font-specification:MicrosoftSansSerif;writing-mode:lr-tb;fill:#0e0f0e;fill-opacity:1;fill-rule:nonzero;stroke:none"
           id="text52"><tspan
             x="0 13.339575 25.532162"
             y="0"
             sodipodi:role="line"
             id="tspan50">RAM</tspan></text></g><path
         d="M 4501.15,2661.09 V 2116.46"
         style="fill:none;stroke:#0e0f0e;stroke-width:10.0197;stroke-linecap:round;stroke-linejoin:round;stroke-miterlimit:10;stroke-dasharray:none;stroke-opacity:1"
         id="path54" /><path
         d="m 4501.15,2075.28 -23.39,54.4 c 14.71,-8.56 32.04,-8.56 46.78,0 l -23.39,-54.4 v 0 0 0"
         style="fill:#0e0f0e;fill-opacity:1;fill-rule:evenodd;stroke:none"
         id="path56" /><path
         d="M 3236.34,2661.09 H 4501.15"
         style="fill:none;stroke:#0e0f0e;stroke-width:10.0087;stroke-linecap:round;stroke-linejoin:round;stroke-miterlimit:10;stroke-dasharray:none;stroke-opacity:1"
         id="path58" /><path
         d="m 2691.29,344.559 h -646.86 m 770.81,197.171 h -894.75 m 1073.7,657.24 h 625.38 v 219.07 h -625.38 v -219.07 0 0 z m -625.39,0 h 625.39 v 219.07 H 2368.8 v -219.07 0 0 z m -629.15,0 h 625.39 v 219.07 h -625.39 v -219.07 0 0 z m -629.15,0 h 625.38 v 219.07 H 1110.5 v -219.07 0 0 z m -376.738,0 H 1110.5 v 219.07 H 733.762 v -219.07 0 0 z m -256.578,0 h 256.578 v 219.07 H 477.184 v -219.07 0 0 z"
         style="fill:none;stroke:#0e0f0e;stroke-width:7.51407;stroke-linecap:round;stroke-linejoin:round;stroke-miterlimit:10;stroke-dasharray:none;stroke-opacity:1"
         id="path60" /><path
         d="M 1920.49,541.73 2044.43,344.559 M 2815.24,541.73 2691.29,344.559"
         style="fill:none;stroke:#0e0f0e;stroke-width:7.51942;stroke-linecap:round;stroke-linejoin:round;stroke-miterlimit:10;stroke-dasharray:none;stroke-opacity:1"
         id="path62" /><path
         d="M 2964.06,2513.43 V 2369.3"
         style="fill:none;stroke:#0e0f0e;stroke-width:10.0197;stroke-linecap:round;stroke-linejoin:round;stroke-miterlimit:10;stroke-dasharray:none;stroke-opacity:1"
         id="path64" /><path
         d="M 2964.06,2369.3 H 3778.7"
         style="fill:none;stroke:#0e0f0e;stroke-width:10.0087;stroke-linecap:round;stroke-linejoin:round;stroke-miterlimit:10;stroke-dasharray:none;stroke-opacity:1"
         id="path66" /><path
         d="M 3778.7,432.191 V 2369.3"
         style="fill:none;stroke:#0e0f0e;stroke-width:10.0197;stroke-linecap:round;stroke-linejoin:round;stroke-miterlimit:10;stroke-dasharray:none;stroke-opacity:1"
         id="path68" /><path
         d="M 3778.7,432.191 H 2781.79"
         style="fill:none;stroke:#0e0f0e;stroke-width:10.0087;stroke-linecap:round;stroke-linejoin:round;stroke-miterlimit:10;stroke-dasharray:none;stroke-opacity:1"
         id="path70" /><path
         d="m 2746.38,432.191 46.79,27.2 c -7.37,-17.121 -7.37,-37.282 0,-54.403 l -46.79,27.203 v 0 0 0"
         style="fill:#0e0f0e;fill-opacity:1;fill-rule:evenodd;stroke:none"
         id="path72" /><path
         d="M 3306.88,979.891 V 1157.78"
         style="fill:none;stroke:#0e0f0e;stroke-width:10.02;stroke-linecap:round;stroke-linejoin:round;stroke-miterlimit:10;stroke-dasharray:100, 100;stroke-dashoffset:0;stroke-opacity:1"
         id="path74" /><path
         d="m 3306.88,1198.97 23.4,-54.41 c -14.73,8.56 -32.06,8.56 -46.79,0 l 23.39,54.41 v 0 0 0"
         style="fill:#0e0f0e;fill-opacity:1;fill-rule:evenodd;stroke:none"
         id="path76" /><path
         d="M 4030.22,1308.51 V 979.891"
         style="fill:none;stroke:#0e0f0e;stroke-width:10.02;stroke-linecap:round;stroke-linejoin:round;stroke-miterlimit:10;stroke-dasharray:80, 100;stroke-dashoffset:0;stroke-opacity:1"
         id="path78" /><path
         d="m 3306.88,979.891 h 723.34"
         style="fill:none;stroke:#0e0f0e;stroke-width:10.01;stroke-linecap:round;stroke-linejoin:round;stroke-miterlimit:10;stroke-dasharray:100, 100;stroke-dashoffset:0;stroke-opacity:1"
         id="path80" /><path
         d="M 4312.78,1308.51 V 936.07"
         style="fill:none;stroke:#0e0f0e;stroke-width:10.02;stroke-linecap:round;stroke-linejoin:round;stroke-miterlimit:10;stroke-dasharray:80, 100;stroke-dashoffset:0;stroke-opacity:1"
         id="path82" /><path
         d="m 2681.5,936.07 v 221.71"
         style="fill:none;stroke:#0e0f0e;stroke-width:10.02;stroke-linecap:round;stroke-linejoin:round;stroke-miterlimit:10;stroke-dasharray:100, 100;stroke-dashoffset:0;stroke-opacity:1"
         id="path84" /><path
         d="m 2681.5,1198.97 23.39,-54.41 c -14.73,8.56 -32.05,8.56 -46.78,0 l 23.39,54.41 v 0 0 0"
         style="fill:#0e0f0e;fill-opacity:1;fill-rule:evenodd;stroke:none"
         id="path86" /><path
         d="M 4972.06,806.93 H 1423.19 m 3285.16,63.422 H 2050.46 M 4312.78,936.07 H 2681.5"
         style="fill:none;stroke:#0e0f0e;stroke-width:10.01;stroke-linecap:round;stroke-linejoin:round;stroke-miterlimit:10;stroke-dasharray:80, 100;stroke-dashoffset:0;stroke-opacity:1"
         id="path88" /><path
         d="m 2050.46,870.352 1.65,287.428"
         style="fill:none;stroke:#0e0f0e;stroke-width:10.02;stroke-linecap:round;stroke-linejoin:round;stroke-miterlimit:10;stroke-dasharray:100, 100;stroke-dashoffset:0;stroke-opacity:1"
         id="path90" /><path
         d="m 2052.34,1198.97 23.08,-54.59 c -14.67,8.67 -32,8.81 -46.78,0.36 l 23.7,54.23 v 0 0 0"
         style="fill:#0e0f0e;fill-opacity:1;fill-rule:evenodd;stroke:none"
         id="path92" /><path
         d="m 1423.19,806.93 v 350.85"
         style="fill:none;stroke:#0e0f0e;stroke-width:10.02;stroke-linecap:round;stroke-linejoin:round;stroke-miterlimit:10;stroke-dasharray:100, 100;stroke-dashoffset:0;stroke-opacity:1"
         id="path94" /><path
         d="m 1423.19,1198.97 23.39,-54.41 c -14.72,8.56 -32.05,8.56 -46.78,0 l 23.39,54.41 v 0 0 0"
         style="fill:#0e0f0e;fill-opacity:1;fill-rule:evenodd;stroke:none"
         id="path96" /><path
         d="M 4972.06,1308.51 V 806.93 m -263.71,501.58 V 870.352"
         style="fill:none;stroke:#0e0f0e;stroke-width:10.02;stroke-linecap:round;stroke-linejoin:round;stroke-miterlimit:10;stroke-dasharray:80, 100;stroke-dashoffset:0;stroke-opacity:1"
         id="path98" /><path
         d="m 2664.54,629.359 v -46.437 m 467.51,616.048 V 629.359"
         style="fill:none;stroke:#0e0f0e;stroke-width:10.0197;stroke-linecap:round;stroke-linejoin:round;stroke-miterlimit:10;stroke-dasharray:none;stroke-opacity:1"
         id="path100" /><path
         d="m 2664.54,541.73 -23.38,54.411 c 14.72,-8.571 32.05,-8.571 46.77,0 l -23.39,-54.411 v 0 0 0"
         style="fill:#0e0f0e;fill-opacity:1;fill-rule:evenodd;stroke:none"
         id="path102" /><path
         d="m 2664.54,629.359 h 467.51"
         style="fill:none;stroke:#0e0f0e;stroke-width:10.0087;stroke-linecap:round;stroke-linejoin:round;stroke-miterlimit:10;stroke-dasharray:none;stroke-opacity:1"
         id="path104" /><path
         d="M 2476.18,651.27 V 582.922"
         style="fill:none;stroke:#0e0f0e;stroke-width:10.0197;stroke-linecap:round;stroke-linejoin:round;stroke-miterlimit:10;stroke-dasharray:none;stroke-opacity:1"
         id="path106" /><path
         d="m 2476.18,541.73 -23.4,54.411 c 14.73,-8.571 32.06,-8.571 46.78,0 l -23.38,-54.411 v 0 0 0"
         style="fill:#0e0f0e;fill-opacity:1;fill-rule:evenodd;stroke:none"
         id="path108" /><path
         d="M 2523.27,706.039 V 1198.97"
         style="fill:none;stroke:#0e0f0e;stroke-width:10.0197;stroke-linecap:round;stroke-linejoin:round;stroke-miterlimit:10;stroke-dasharray:none;stroke-opacity:1"
         id="path110" /><path
         d="M 2523.27,706.039 2476.18,651.27"
         style="fill:none;stroke:#0e0f0e;stroke-width:10.0142;stroke-linecap:round;stroke-linejoin:round;stroke-miterlimit:10;stroke-dasharray:none;stroke-opacity:1"
         id="path112" /><path
         d="m 2264.23,651.27 v -68.348 m -70.61,142.547 v 473.501"
         style="fill:none;stroke:#0e0f0e;stroke-width:10.0197;stroke-linecap:round;stroke-linejoin:round;stroke-miterlimit:10;stroke-dasharray:none;stroke-opacity:1"
         id="path114" /><path
         d="m 2264.23,541.73 -23.39,54.411 c 14.73,-8.571 32.05,-8.571 46.78,0 l -23.39,-54.411 v 0 0 0"
         style="fill:#0e0f0e;fill-opacity:1;fill-rule:evenodd;stroke:none"
         id="path116" /><path
         d="m 2193.62,725.469 70.61,-74.199"
         style="fill:none;stroke:#0e0f0e;stroke-width:10.0137;stroke-linecap:round;stroke-linejoin:round;stroke-miterlimit:10;stroke-dasharray:none;stroke-opacity:1"
         id="path118" /><path
         d="m 1581.42,651.27 v 547.7"
         style="fill:none;stroke:#0e0f0e;stroke-width:10.0197;stroke-linecap:round;stroke-linejoin:round;stroke-miterlimit:10;stroke-dasharray:none;stroke-opacity:1"
         id="path120" /><path
         d="m 1581.42,651.27 h 467.51"
         style="fill:none;stroke:#0e0f0e;stroke-width:10.0087;stroke-linecap:round;stroke-linejoin:round;stroke-miterlimit:10;stroke-dasharray:none;stroke-opacity:1"
         id="path122" /><path
         d="M 2048.93,651.27 V 582.922"
         style="fill:none;stroke:#0e0f0e;stroke-width:10.0197;stroke-linecap:round;stroke-linejoin:round;stroke-miterlimit:10;stroke-dasharray:none;stroke-opacity:1"
         id="path124" /><path
         d="m 2048.93,541.73 -23.38,54.411 c 14.72,-8.571 32.05,-8.571 46.78,0 l -23.4,-54.411 v 0 0 0"
         style="fill:#0e0f0e;fill-opacity:1;fill-rule:evenodd;stroke:none"
         id="path126" /><path
         d="M 1311.85,2513.43 V 2403.89"
         style="fill:none;stroke:#0e0f0e;stroke-width:10.0197;stroke-linecap:round;stroke-linejoin:round;stroke-miterlimit:10;stroke-dasharray:889000, 635000;stroke-dashoffset:0;stroke-opacity:1"
         id="path128" /><path
         d="M 1311.85,2403.89 H 262.836"
         style="fill:none;stroke:#0e0f0e;stroke-width:10.01;stroke-linecap:round;stroke-linejoin:round;stroke-miterlimit:10;stroke-dasharray:100, 100;stroke-dashoffset:0;stroke-opacity:1"
         id="path130" /><path
         d="M 267.539,2403.89 V 815.578"
         style="fill:none;stroke:#0e0f0e;stroke-width:10.02;stroke-linecap:round;stroke-linejoin:round;stroke-miterlimit:10;stroke-dasharray:100, 100;stroke-dashoffset:0;stroke-opacity:1"
         id="path132" /><path
         d="M 922.129,815.578 H 262.836"
         style="fill:none;stroke:#0e0f0e;stroke-width:10.01;stroke-linecap:round;stroke-linejoin:round;stroke-miterlimit:10;stroke-dasharray:100, 100;stroke-dashoffset:0;stroke-opacity:1"
         id="path134" /><path
         d="m 922.129,806.93 v 350.85"
         style="fill:none;stroke:#0e0f0e;stroke-width:10.02;stroke-linecap:round;stroke-linejoin:round;stroke-miterlimit:10;stroke-dasharray:100, 100;stroke-dashoffset:0;stroke-opacity:1"
         id="path136" /><path
         d="m 922.129,1198.97 23.394,-54.41 c -14.726,8.56 -32.062,8.56 -46.785,0 l 23.391,54.41 v 0 0 0"
         style="fill:#0e0f0e;fill-opacity:1;fill-rule:evenodd;stroke:none"
         id="path138" /><path
         d="M 714.922,459.578 877.395,596.5 1039.86,459.578 877.395,322.648 714.922,459.578 v 0 0 0"
         style="fill:#ffffff;fill-opacity:1;fill-rule:evenodd;stroke:none"
         id="path140" /><path
         d="M 714.922,459.578 877.395,596.5 1039.86,459.578 877.395,322.648 714.922,459.578 v 0 0 z"
         style="fill:none;stroke:#0e0f0e;stroke-width:7.51407;stroke-linecap:round;stroke-linejoin:round;stroke-miterlimit:10;stroke-dasharray:none;stroke-opacity:1"
         id="path142" /><g
         id="g144"
         transform="scale(10)"><text
           transform="matrix(0.859825,0,0,-1,83.4613,44.1102)"
           style="font-variant:normal;font-weight:normal;font-size:6.3761px;font-family:'Microsoft Sans Serif';-inkscape-font-specification:MicrosoftSansSerif;writing-mode:lr-tb;fill:#0e0f0e;fill-opacity:1;fill-rule:nonzero;stroke:none"
           id="text148"><tspan
             x="0 4.6362119 6.3784814"
             y="0"
             sodipodi:role="line"
             id="tspan146">HIT</tspan></text></g><path
         d="M 877.395,1198.97 V 637.691"
         style="fill:none;stroke:#0e0f0e;stroke-width:10.0197;stroke-linecap:round;stroke-linejoin:round;stroke-miterlimit:10;stroke-dasharray:none;stroke-opacity:1"
         id="path150" /><path
         d="M 877.395,596.5 854,650.91 c 14.727,-8.57 32.059,-8.57 46.785,0 l -23.39,-54.41 v 0 0 0"
         style="fill:#0e0f0e;fill-opacity:1;fill-rule:evenodd;stroke:none"
         id="path152" /><path
         d="M 877.395,156.148 V 281.469 M 262.836,815.578 V 158.352"
         style="fill:none;stroke:#0e0f0e;stroke-width:10.0197;stroke-linecap:round;stroke-linejoin:round;stroke-miterlimit:10;stroke-dasharray:none;stroke-opacity:1"
         id="path154" /><path
         d="m 877.395,322.648 23.39,-54.41 c -14.726,8.571 -32.058,8.571 -46.785,0 l 23.395,54.41 v 0 0 0"
         style="fill:#0e0f0e;fill-opacity:1;fill-rule:evenodd;stroke:none"
         id="path156" /><path
         d="m 601.902,459.578 h 77.61 M 262.836,158.352 h 613.457"
         style="fill:none;stroke:#0e0f0e;stroke-width:10.0087;stroke-linecap:round;stroke-linejoin:round;stroke-miterlimit:10;stroke-dasharray:none;stroke-opacity:1"
         id="path158" /><path
         d="m 714.922,459.578 -46.781,-27.207 c 7.363,17.129 7.363,37.277 0,54.41 l 46.781,-27.203 v 0 0 0"
         style="fill:#0e0f0e;fill-opacity:1;fill-rule:evenodd;stroke:none"
         id="path160" /><g
         id="g162"><g
           id="g164"
           clip-path="url(#clipPath168)"><path
             d="M 605.473,1198.97 V 461.398"
             style="fill:none;stroke:#231f20;stroke-width:5;stroke-linecap:round;stroke-linejoin:round;stroke-miterlimit:10;stroke-dasharray:none;stroke-opacity:1"
             id="path170" /><path
             d="M 6.26172,6.26172 H 5165.32 V 2901.41 H 6.26172 V 6.26172 v 0 0 z"
             style="fill:none;stroke:#231f20;stroke-width:5;stroke-linecap:round;stroke-linejoin:round;stroke-miterlimit:10;stroke-dasharray:none;stroke-opacity:1"
             id="path172" /></g></g><path
         d="M 2.5,2905.17 V 2.5 h 5166.57 v 2902.67 z"
         style="fill:none;stroke:#231f20;stroke-width:5;stroke-linecap:butt;stroke-linejoin:miter;stroke-miterlimit:10;stroke-dasharray:none;stroke-opacity:1"
         id="path174" /></g></g></svg>
