<?xml version="1.0" encoding="UTF-8" standalone="no"?>
<svg
   xmlns:dc="http://purl.org/dc/elements/1.1/"
   xmlns:cc="http://creativecommons.org/ns#"
   xmlns:rdf="http://www.w3.org/1999/02/22-rdf-syntax-ns#"
   xmlns:svg="http://www.w3.org/2000/svg"
   xmlns="http://www.w3.org/2000/svg"
   xmlns:sodipodi="http://sodipodi.sourceforge.net/DTD/sodipodi-0.dtd"
   xmlns:inkscape="http://www.inkscape.org/namespaces/inkscape"
   version="1.1"
   id="svg2"
   xml:space="preserve"
   width="689.54669"
   height="275.94666"
   viewBox="0 0 689.54669 275.94666"
   sodipodi:docname="Pwm_Wave.svg"
   inkscape:version="1.0.1 (3bc2e813f5, 2020-09-07)"><metadata
     id="metadata8"><rdf:RDF><cc:Work
         rdf:about=""><dc:format>image/svg+xml</dc:format><dc:type
           rdf:resource="http://purl.org/dc/dcmitype/StillImage" /><dc:title></dc:title></cc:Work></rdf:RDF></metadata><defs
     id="defs6"><clipPath
       clipPathUnits="userSpaceOnUse"
       id="clipPath22"><path
         d="M 2.5,2067.13 V 2.5 h 5166.57 v 2064.63 z"
         id="path20" /></clipPath><clipPath
       clipPathUnits="userSpaceOnUse"
       id="clipPath40"><path
         d="M 2.5,2067.13 V 2.5 h 5166.57 v 2064.63 z"
         id="path38" /></clipPath><clipPath
       clipPathUnits="userSpaceOnUse"
       id="clipPath70"><path
         d="M 2.5,2067.13 V 2.5 h 5166.57 v 2064.63 z"
         id="path68" /></clipPath><clipPath
       clipPathUnits="userSpaceOnUse"
       id="clipPath112"><path
         d="M 2.5,2067.13 V 2.5 h 5166.57 v 2064.63 z"
         id="path110" /></clipPath></defs><sodipodi:namedview
     pagecolor="#ffffff"
     bordercolor="#666666"
     borderopacity="1"
     objecttolerance="10"
     gridtolerance="10"
     guidetolerance="10"
     inkscape:pageopacity="0"
     inkscape:pageshadow="2"
     inkscape:window-width="786"
     inkscape:window-height="480"
     id="namedview4"
     showgrid="false"
     inkscape:zoom="1.5952509"
     inkscape:cx="344.77335"
     inkscape:cy="137.97333"
     inkscape:window-x="0"
     inkscape:window-y="0"
     inkscape:window-maximized="0"
     inkscape:current-layer="g10" /><g
     id="g10"
     inkscape:groupmode="layer"
     inkscape:label="ink_ext_XXXXXX"
     transform="matrix(1.3333333,0,0,-1.3333333,0,275.94667)"><g
       id="g12"
       transform="scale(0.1)"><path
         d="m 922.223,1106.02 h 42.511 v -10.54 h -42.511 v 10.54 0 0 z m 74.398,0 h 42.519 v -10.54 h -42.519 v 10.54 0 0 z m 74.399,0 h 42.52 v -10.54 h -42.52 v 10.54 0 0 z m 74.41,0 h 42.51 v -10.54 h -42.51 v 10.54 0 0 z m 74.4,0 h 42.51 v -10.54 h -42.51 v 10.54 0 0 z m 74.4,0 h 42.52 v -10.54 h -42.52 v 10.54 0 0 z m 74.4,0 h 42.52 v -10.54 h -42.52 v 10.54 0 0 z m 74.41,0 h 42.51 v -10.54 h -42.51 v 10.54 0 0 z m 74.4,0 h 42.52 v -10.54 h -42.52 v 10.54 0 0 z m 74.4,0 h 42.51 v -10.54 h -42.51 v 10.54 0 0 z m 74.4,0 h 42.52 v -10.54 h -42.52 v 10.54 0 0 z m 74.4,0 h 42.52 v -10.54 h -42.52 v 10.54 0 0 z m 74.41,0 h 42.51 v -10.54 h -42.51 v 10.54 0 0 z m 74.4,0 h 42.52 v -10.54 h -42.52 v 10.54 0 0 z m 74.4,0 h 42.52 v -10.54 h -42.52 v 10.54 0 0 z m 74.41,0 h 42.51 v -10.54 h -42.51 v 10.54 0 0 z m 74.4,0 h 42.51 v -10.54 h -42.51 v 10.54 0 0 z m 74.4,0 h 42.51 v -10.54 h -42.51 v 10.54 0 0 z m 74.4,0 h 42.52 v -10.54 h -42.52 v 10.54 0 0 z m 74.4,0 h 42.52 v -10.54 h -42.52 v 10.54 0 0 z m 74.41,0 h 42.51 v -10.54 h -42.51 v 10.54 0 0 z m 74.4,0 h 42.51 v -10.54 h -42.51 v 10.54 0 0 z m 74.4,0 h 42.52 v -10.54 h -42.52 v 10.54 0 0 z m 74.4,0 h 42.52 v -10.54 h -42.52 v 10.54 0 0 z m 74.41,0 h 42.51 v -10.54 h -42.51 v 10.54 0 0 z m 74.4,0 h 42.51 v -10.54 h -42.51 v 10.54 0 0 z m 74.4,0 h 42.51 v -10.54 h -42.51 v 10.54 0 0 z m 74.4,0 h 42.52 v -10.54 h -42.52 v 10.54 0 0 z m 74.4,0 H 3048 v -10.54 h -42.52 v 10.54 0 0 z m 74.41,0 h 42.52 v -10.54 h -42.52 v 10.54 0 0 z m 74.4,0 h 42.51 v -10.54 h -42.51 v 10.54 0 0 z m 74.41,0 h 42.51 v -10.54 h -42.51 v 10.54 0 0 z m 74.39,0 h 42.52 v -10.54 h -42.52 v 10.54 0 0 z m 74.4,0 h 42.52 v -10.54 h -42.52 v 10.54 0 0 z m 74.41,0 h 42.52 v -10.54 h -42.52 v 10.54 0 0 z m 74.4,0 h 42.51 v -10.54 h -42.51 v 10.54 0 0 z m 74.41,0 h 42.51 v -10.54 h -42.51 v 10.54 0 0 z m 74.39,0 h 42.52 v -10.54 h -42.52 v 10.54 0 0 z m 74.41,0 h 42.52 v -10.54 h -42.52 v 10.54 0 0 z m 74.4,0 h 42.52 v -10.54 h -42.52 v 10.54 0 0 z m 74.4,0 h 42.51 v -10.54 h -42.51 v 10.54 0 0 z m 74.41,0 h 42.51 v -10.54 h -42.51 v 10.54 0 0 z m 74.39,0 h 42.52 v -10.54 h -42.52 v 10.54 0 0 z m 74.41,0 h 42.52 v -10.54 h -42.52 v 10.54 0 0 z m 74.4,0 h 42.52 v -10.54 h -42.52 v 10.54 0 0 z m 74.41,0 h 42.51 v -10.54 h -42.51 v 10.54 0 0 z m 74.4,0 h 42.51 v -10.54 h -42.51 v 10.54 0 0 z m 74.4,0 h 42.51 v -10.54 h -42.51 v 10.54 0 0 z m 74.4,0 h 42.52 v -10.54 h -42.52 v 10.54 0 0 z m 74.4,0 h 42.52 v -10.54 h -42.52 v 10.54 0 0 z m 74.41,0 h 42.51 v -10.54 h -42.51 v 10.54 0 0 z m 74.4,0 h 42.51 v -10.54 h -42.51 v 10.54 0 0 z m 74.4,0 h 42.52 v -10.54 h -42.52 v 10.54 0 0 z m 74.4,0 h 42.52 v -10.54 h -42.52 v 10.54 0 0 z m 74.41,0 h 42.51 v -10.54 h -42.51 v 10.54 0 0 z m 74.4,0 h 42.51 v -10.54 h -42.51 v 10.54 0 0 z m 74.4,0 h 42.51 v -10.54 h -42.51 v 10.54 0 0 z m 74.4,0 h 0.99 v -10.54 h -0.99 v 10.54 0 0 0"
         style="fill:#b5b5b7;fill-opacity:1;fill-rule:evenodd;stroke:none"
         id="path14" /><g
         id="g16"><g
           id="g18"
           clip-path="url(#clipPath22)"><path
             d="m 922.223,1106.02 h 42.511 v -10.54 h -42.511 v 10.54 0 0 z m 74.398,0 h 42.519 v -10.54 h -42.519 v 10.54 0 0 z m 74.399,0 h 42.52 v -10.54 h -42.52 v 10.54 0 0 z m 74.41,0 h 42.51 v -10.54 h -42.51 v 10.54 0 0 z m 74.4,0 h 42.51 v -10.54 h -42.51 v 10.54 0 0 z m 74.4,0 h 42.52 v -10.54 h -42.52 v 10.54 0 0 z m 74.4,0 h 42.52 v -10.54 h -42.52 v 10.54 0 0 z m 74.41,0 h 42.51 v -10.54 h -42.51 v 10.54 0 0 z m 74.4,0 h 42.52 v -10.54 h -42.52 v 10.54 0 0 z m 74.4,0 h 42.51 v -10.54 h -42.51 v 10.54 0 0 z m 74.4,0 h 42.52 v -10.54 h -42.52 v 10.54 0 0 z m 74.4,0 h 42.52 v -10.54 h -42.52 v 10.54 0 0 z m 74.41,0 h 42.51 v -10.54 h -42.51 v 10.54 0 0 z m 74.4,0 h 42.52 v -10.54 h -42.52 v 10.54 0 0 z m 74.4,0 h 42.52 v -10.54 h -42.52 v 10.54 0 0 z m 74.41,0 h 42.51 v -10.54 h -42.51 v 10.54 0 0 z m 74.4,0 h 42.51 v -10.54 h -42.51 v 10.54 0 0 z m 74.4,0 h 42.51 v -10.54 h -42.51 v 10.54 0 0 z m 74.4,0 h 42.52 v -10.54 h -42.52 v 10.54 0 0 z m 74.4,0 h 42.52 v -10.54 h -42.52 v 10.54 0 0 z m 74.41,0 h 42.51 v -10.54 h -42.51 v 10.54 0 0 z m 74.4,0 h 42.51 v -10.54 h -42.51 v 10.54 0 0 z m 74.4,0 h 42.52 v -10.54 h -42.52 v 10.54 0 0 z m 74.4,0 h 42.52 v -10.54 h -42.52 v 10.54 0 0 z m 74.41,0 h 42.51 v -10.54 h -42.51 v 10.54 0 0 z m 74.4,0 h 42.51 v -10.54 h -42.51 v 10.54 0 0 z m 74.4,0 h 42.51 v -10.54 h -42.51 v 10.54 0 0 z m 74.4,0 h 42.52 v -10.54 h -42.52 v 10.54 0 0 z m 74.4,0 H 3048 v -10.54 h -42.52 v 10.54 0 0 z m 74.41,0 h 42.52 v -10.54 h -42.52 v 10.54 0 0 z m 74.4,0 h 42.51 v -10.54 h -42.51 v 10.54 0 0 z m 74.41,0 h 42.51 v -10.54 h -42.51 v 10.54 0 0 z m 74.39,0 h 42.52 v -10.54 h -42.52 v 10.54 0 0 z m 74.4,0 h 42.52 v -10.54 h -42.52 v 10.54 0 0 z m 74.41,0 h 42.52 v -10.54 h -42.52 v 10.54 0 0 z m 74.4,0 h 42.51 v -10.54 h -42.51 v 10.54 0 0 z m 74.41,0 h 42.51 v -10.54 h -42.51 v 10.54 0 0 z m 74.39,0 h 42.52 v -10.54 h -42.52 v 10.54 0 0 z m 74.41,0 h 42.52 v -10.54 h -42.52 v 10.54 0 0 z m 74.4,0 h 42.52 v -10.54 h -42.52 v 10.54 0 0 z m 74.4,0 h 42.51 v -10.54 h -42.51 v 10.54 0 0 z m 74.41,0 h 42.51 v -10.54 h -42.51 v 10.54 0 0 z m 74.39,0 h 42.52 v -10.54 h -42.52 v 10.54 0 0 z m 74.41,0 h 42.52 v -10.54 h -42.52 v 10.54 0 0 z m 74.4,0 h 42.52 v -10.54 h -42.52 v 10.54 0 0 z m 74.41,0 h 42.51 v -10.54 h -42.51 v 10.54 0 0 z m 74.4,0 h 42.51 v -10.54 h -42.51 v 10.54 0 0 z m 74.4,0 h 42.51 v -10.54 h -42.51 v 10.54 0 0 z m 74.4,0 h 42.52 v -10.54 h -42.52 v 10.54 0 0 z m 74.4,0 h 42.52 v -10.54 h -42.52 v 10.54 0 0 z m 74.41,0 h 42.51 v -10.54 h -42.51 v 10.54 0 0 z m 74.4,0 h 42.51 v -10.54 h -42.51 v 10.54 0 0 z m 74.4,0 h 42.52 v -10.54 h -42.52 v 10.54 0 0 z m 74.4,0 h 42.52 v -10.54 h -42.52 v 10.54 0 0 z m 74.41,0 h 42.51 v -10.54 h -42.51 v 10.54 0 0 z m 74.4,0 h 42.51 v -10.54 h -42.51 v 10.54 0 0 z m 74.4,0 h 42.51 v -10.54 h -42.51 v 10.54 0 0 z m 74.4,0 h 0.99 v -10.54 h -0.99 v 10.54 0 0 z"
             style="fill:none;stroke:#b5b5b7;stroke-width:7.51407;stroke-linecap:round;stroke-linejoin:round;stroke-miterlimit:10;stroke-dasharray:none;stroke-opacity:1"
             id="path24" /></g></g><g
         id="g26"
         transform="scale(10)"><text
           transform="matrix(1,0,0,-0.99251643,29.8676,104.848)"
           style="font-variant:normal;font-weight:normal;font-size:12.0905px;font-family:Calibri;-inkscape-font-specification:Calibri;writing-mode:lr-tb;fill:#9b9ca0;fill-opacity:1;fill-rule:nonzero;stroke:none"
           id="text30"><tspan
             x="0 5.8554587 12.17137 16.350075 22.329557 27.022419 33.338329 39.677681 42.415958 48.731869 47.648369"
             y="0"
             sodipodi:role="line"
             id="tspan28">Threshold 1</tspan></text></g><path
         d="m 922.223,1459.42 h 42.511 v -10.55 h -42.511 v 10.55 0 0 z m 74.398,0 h 42.519 v -10.55 h -42.519 v 10.55 0 0 z m 74.399,0 h 42.52 v -10.55 h -42.52 v 10.55 0 0 z m 74.41,0 h 42.51 v -10.55 h -42.51 v 10.55 0 0 z m 74.4,0 h 42.51 v -10.55 h -42.51 v 10.55 0 0 z m 74.4,0 h 42.52 v -10.55 h -42.52 v 10.55 0 0 z m 74.4,0 h 42.52 v -10.55 h -42.52 v 10.55 0 0 z m 74.41,0 h 42.51 v -10.55 h -42.51 v 10.55 0 0 z m 74.4,0 h 42.52 v -10.55 h -42.52 v 10.55 0 0 z m 74.4,0 h 42.51 v -10.55 h -42.51 v 10.55 0 0 z m 74.4,0 h 42.52 v -10.55 h -42.52 v 10.55 0 0 z m 74.4,0 h 42.52 v -10.55 h -42.52 v 10.55 0 0 z m 74.41,0 h 42.51 v -10.55 h -42.51 v 10.55 0 0 z m 74.4,0 h 42.52 v -10.55 h -42.52 v 10.55 0 0 z m 74.4,0 h 42.52 v -10.55 h -42.52 v 10.55 0 0 z m 74.41,0 h 42.51 v -10.55 h -42.51 v 10.55 0 0 z m 74.4,0 h 42.51 v -10.55 h -42.51 v 10.55 0 0 z m 74.4,0 h 42.51 v -10.55 h -42.51 v 10.55 0 0 z m 74.4,0 h 42.52 v -10.55 h -42.52 v 10.55 0 0 z m 74.4,0 h 42.52 v -10.55 h -42.52 v 10.55 0 0 z m 74.41,0 h 42.51 v -10.55 h -42.51 v 10.55 0 0 z m 74.4,0 h 42.51 v -10.55 h -42.51 v 10.55 0 0 z m 74.4,0 h 42.52 v -10.55 h -42.52 v 10.55 0 0 z m 74.4,0 h 42.52 v -10.55 h -42.52 v 10.55 0 0 z m 74.41,0 h 42.51 v -10.55 h -42.51 v 10.55 0 0 z m 74.4,0 h 42.51 v -10.55 h -42.51 v 10.55 0 0 z m 74.4,0 h 42.51 v -10.55 h -42.51 v 10.55 0 0 z m 74.4,0 h 42.52 v -10.55 h -42.52 v 10.55 0 0 z m 74.4,0 H 3048 v -10.55 h -42.52 v 10.55 0 0 z m 74.41,0 h 42.52 v -10.55 h -42.52 v 10.55 0 0 z m 74.4,0 h 42.51 v -10.55 h -42.51 v 10.55 0 0 z m 74.41,0 h 42.51 v -10.55 h -42.51 v 10.55 0 0 z m 74.39,0 h 42.52 v -10.55 h -42.52 v 10.55 0 0 z m 74.4,0 h 42.52 v -10.55 h -42.52 v 10.55 0 0 z m 74.41,0 h 42.52 v -10.55 h -42.52 v 10.55 0 0 z m 74.4,0 h 42.51 v -10.55 h -42.51 v 10.55 0 0 z m 74.41,0 h 42.51 v -10.55 h -42.51 v 10.55 0 0 z m 74.39,0 h 42.52 v -10.55 h -42.52 v 10.55 0 0 z m 74.41,0 h 42.52 v -10.55 h -42.52 v 10.55 0 0 z m 74.4,0 h 42.52 v -10.55 h -42.52 v 10.55 0 0 z m 74.4,0 h 42.51 v -10.55 h -42.51 v 10.55 0 0 z m 74.41,0 h 42.51 v -10.55 h -42.51 v 10.55 0 0 z m 74.39,0 h 42.52 v -10.55 h -42.52 v 10.55 0 0 z m 74.41,0 h 42.52 v -10.55 h -42.52 v 10.55 0 0 z m 74.4,0 h 42.52 v -10.55 h -42.52 v 10.55 0 0 z m 74.41,0 h 42.51 v -10.55 h -42.51 v 10.55 0 0 z m 74.4,0 h 42.51 v -10.55 h -42.51 v 10.55 0 0 z m 74.4,0 h 42.51 v -10.55 h -42.51 v 10.55 0 0 z m 74.4,0 h 42.52 v -10.55 h -42.52 v 10.55 0 0 z m 74.4,0 h 42.52 v -10.55 h -42.52 v 10.55 0 0 z m 74.41,0 h 42.51 v -10.55 h -42.51 v 10.55 0 0 z m 74.4,0 h 42.51 v -10.55 h -42.51 v 10.55 0 0 z m 74.4,0 h 42.52 v -10.55 h -42.52 v 10.55 0 0 z m 74.4,0 h 42.52 v -10.55 h -42.52 v 10.55 0 0 z m 74.41,0 h 42.51 v -10.55 h -42.51 v 10.55 0 0 z m 74.4,0 h 42.51 v -10.55 h -42.51 v 10.55 0 0 z m 74.4,0 h 42.51 v -10.55 h -42.51 v 10.55 0 0 z m 74.4,0 h 0.99 v -10.55 h -0.99 v 10.55 0 0 0"
         style="fill:#b5b5b7;fill-opacity:1;fill-rule:evenodd;stroke:none"
         id="path32" /><g
         id="g34"><g
           id="g36"
           clip-path="url(#clipPath40)"><path
             d="m 922.223,1459.42 h 42.511 v -10.55 h -42.511 v 10.55 0 0 z m 74.398,0 h 42.519 v -10.55 h -42.519 v 10.55 0 0 z m 74.399,0 h 42.52 v -10.55 h -42.52 v 10.55 0 0 z m 74.41,0 h 42.51 v -10.55 h -42.51 v 10.55 0 0 z m 74.4,0 h 42.51 v -10.55 h -42.51 v 10.55 0 0 z m 74.4,0 h 42.52 v -10.55 h -42.52 v 10.55 0 0 z m 74.4,0 h 42.52 v -10.55 h -42.52 v 10.55 0 0 z m 74.41,0 h 42.51 v -10.55 h -42.51 v 10.55 0 0 z m 74.4,0 h 42.52 v -10.55 h -42.52 v 10.55 0 0 z m 74.4,0 h 42.51 v -10.55 h -42.51 v 10.55 0 0 z m 74.4,0 h 42.52 v -10.55 h -42.52 v 10.55 0 0 z m 74.4,0 h 42.52 v -10.55 h -42.52 v 10.55 0 0 z m 74.41,0 h 42.51 v -10.55 h -42.51 v 10.55 0 0 z m 74.4,0 h 42.52 v -10.55 h -42.52 v 10.55 0 0 z m 74.4,0 h 42.52 v -10.55 h -42.52 v 10.55 0 0 z m 74.41,0 h 42.51 v -10.55 h -42.51 v 10.55 0 0 z m 74.4,0 h 42.51 v -10.55 h -42.51 v 10.55 0 0 z m 74.4,0 h 42.51 v -10.55 h -42.51 v 10.55 0 0 z m 74.4,0 h 42.52 v -10.55 h -42.52 v 10.55 0 0 z m 74.4,0 h 42.52 v -10.55 h -42.52 v 10.55 0 0 z m 74.41,0 h 42.51 v -10.55 h -42.51 v 10.55 0 0 z m 74.4,0 h 42.51 v -10.55 h -42.51 v 10.55 0 0 z m 74.4,0 h 42.52 v -10.55 h -42.52 v 10.55 0 0 z m 74.4,0 h 42.52 v -10.55 h -42.52 v 10.55 0 0 z m 74.41,0 h 42.51 v -10.55 h -42.51 v 10.55 0 0 z m 74.4,0 h 42.51 v -10.55 h -42.51 v 10.55 0 0 z m 74.4,0 h 42.51 v -10.55 h -42.51 v 10.55 0 0 z m 74.4,0 h 42.52 v -10.55 h -42.52 v 10.55 0 0 z m 74.4,0 H 3048 v -10.55 h -42.52 v 10.55 0 0 z m 74.41,0 h 42.52 v -10.55 h -42.52 v 10.55 0 0 z m 74.4,0 h 42.51 v -10.55 h -42.51 v 10.55 0 0 z m 74.41,0 h 42.51 v -10.55 h -42.51 v 10.55 0 0 z m 74.39,0 h 42.52 v -10.55 h -42.52 v 10.55 0 0 z m 74.4,0 h 42.52 v -10.55 h -42.52 v 10.55 0 0 z m 74.41,0 h 42.52 v -10.55 h -42.52 v 10.55 0 0 z m 74.4,0 h 42.51 v -10.55 h -42.51 v 10.55 0 0 z m 74.41,0 h 42.51 v -10.55 h -42.51 v 10.55 0 0 z m 74.39,0 h 42.52 v -10.55 h -42.52 v 10.55 0 0 z m 74.41,0 h 42.52 v -10.55 h -42.52 v 10.55 0 0 z m 74.4,0 h 42.52 v -10.55 h -42.52 v 10.55 0 0 z m 74.4,0 h 42.51 v -10.55 h -42.51 v 10.55 0 0 z m 74.41,0 h 42.51 v -10.55 h -42.51 v 10.55 0 0 z m 74.39,0 h 42.52 v -10.55 h -42.52 v 10.55 0 0 z m 74.41,0 h 42.52 v -10.55 h -42.52 v 10.55 0 0 z m 74.4,0 h 42.52 v -10.55 h -42.52 v 10.55 0 0 z m 74.41,0 h 42.51 v -10.55 h -42.51 v 10.55 0 0 z m 74.4,0 h 42.51 v -10.55 h -42.51 v 10.55 0 0 z m 74.4,0 h 42.51 v -10.55 h -42.51 v 10.55 0 0 z m 74.4,0 h 42.52 v -10.55 h -42.52 v 10.55 0 0 z m 74.4,0 h 42.52 v -10.55 h -42.52 v 10.55 0 0 z m 74.41,0 h 42.51 v -10.55 h -42.51 v 10.55 0 0 z m 74.4,0 h 42.51 v -10.55 h -42.51 v 10.55 0 0 z m 74.4,0 h 42.52 v -10.55 h -42.52 v 10.55 0 0 z m 74.4,0 h 42.52 v -10.55 h -42.52 v 10.55 0 0 z m 74.41,0 h 42.51 v -10.55 h -42.51 v 10.55 0 0 z m 74.4,0 h 42.51 v -10.55 h -42.51 v 10.55 0 0 z m 74.4,0 h 42.51 v -10.55 h -42.51 v 10.55 0 0 z m 74.4,0 h 0.99 v -10.55 h -0.99 v 10.55 0 0 z"
             style="fill:none;stroke:#b5b5b7;stroke-width:7.51407;stroke-linecap:round;stroke-linejoin:round;stroke-miterlimit:10;stroke-dasharray:none;stroke-opacity:1"
             id="path42" /></g></g><g
         id="g44"
         transform="scale(10)"><text
           transform="matrix(1,0,0,-0.99251643,27.8754,140.286)"
           style="font-variant:normal;font-weight:normal;font-size:12.0905px;font-family:Calibri;-inkscape-font-specification:Calibri;writing-mode:lr-tb;fill:#9b9ca0;fill-opacity:1;fill-rule:nonzero;stroke:none"
           id="text48"><tspan
             x="0 5.8554587 12.17137 16.350075 22.329554 27.022415 33.338326 39.677677 42.415955 48.731865 48.640545"
             y="0"
             sodipodi:role="line"
             id="tspan46">Threshold 2</tspan></text></g><g
         id="g50"
         transform="scale(10)"><text
           transform="matrix(1,0,0,-0.99251643,7.71914,74.2148)"
           style="font-variant:normal;font-weight:normal;font-size:12.0905px;font-family:Calibri;-inkscape-font-specification:Calibri;writing-mode:lr-tb;fill:#0e0f0e;fill-opacity:1;fill-rule:nonzero;stroke:none"
           id="text54"><tspan
             x="0 3.1430647 9.4531088 13.140113 19.453093 23.136196 29.445265 35.236603 37.866974 41.015408 45.753189 52.070072 58.385983 64.701904 68.382553 74.688202"
             y="0"
             sodipodi:role="line"
             id="tspan52">Internal counter</tspan></text></g><g
         id="g56"
         transform="scale(10)"><text
           transform="matrix(1,0,0,-0.99251643,49.266,178.465)"
           style="font-variant:normal;font-weight:normal;font-size:12.0905px;font-family:Calibri;-inkscape-font-specification:Calibri;writing-mode:lr-tb;fill:#51555a;fill-opacity:1;fill-rule:nonzero;stroke:none"
           id="text60"><tspan
             x="0 6.3066316 12.093731 16.309055 18.937468 25.25289"
             y="0"
             sodipodi:role="line"
             id="tspan58">Period</tspan></text></g><path
         d="m 922.223,1839.2 h 42.511 v -10.55 h -42.511 v 10.55 0 0 z m 74.398,0 h 42.519 v -10.55 h -42.519 v 10.55 0 0 z m 74.399,0 h 42.52 v -10.55 h -42.52 v 10.55 0 0 z m 74.41,0 h 42.51 v -10.55 h -42.51 v 10.55 0 0 z m 74.4,0 h 42.51 v -10.55 h -42.51 v 10.55 0 0 z m 74.4,0 h 42.52 v -10.55 h -42.52 v 10.55 0 0 z m 74.4,0 h 42.52 v -10.55 h -42.52 v 10.55 0 0 z m 74.41,0 h 42.51 v -10.55 h -42.51 v 10.55 0 0 z m 74.4,0 h 42.52 v -10.55 h -42.52 v 10.55 0 0 z m 74.4,0 h 42.51 v -10.55 h -42.51 v 10.55 0 0 z m 74.4,0 h 42.52 v -10.55 h -42.52 v 10.55 0 0 z m 74.4,0 h 42.52 v -10.55 h -42.52 v 10.55 0 0 z m 74.41,0 h 42.51 v -10.55 h -42.51 v 10.55 0 0 z m 74.4,0 h 42.52 v -10.55 h -42.52 v 10.55 0 0 z m 74.4,0 h 42.52 v -10.55 h -42.52 v 10.55 0 0 z m 74.41,0 h 42.51 v -10.55 h -42.51 v 10.55 0 0 z m 74.4,0 h 42.51 v -10.55 h -42.51 v 10.55 0 0 z m 74.4,0 h 42.51 v -10.55 h -42.51 v 10.55 0 0 z m 74.4,0 h 42.52 v -10.55 h -42.52 v 10.55 0 0 z m 74.4,0 h 42.52 v -10.55 h -42.52 v 10.55 0 0 z m 74.41,0 h 42.51 v -10.55 h -42.51 v 10.55 0 0 z m 74.4,0 h 42.51 v -10.55 h -42.51 v 10.55 0 0 z m 74.4,0 h 42.52 v -10.55 h -42.52 v 10.55 0 0 z m 74.4,0 h 42.52 v -10.55 h -42.52 v 10.55 0 0 z m 74.41,0 h 42.51 v -10.55 h -42.51 v 10.55 0 0 z m 74.4,0 h 42.51 v -10.55 h -42.51 v 10.55 0 0 z m 74.4,0 h 42.51 v -10.55 h -42.51 v 10.55 0 0 z m 74.4,0 h 42.52 v -10.55 h -42.52 v 10.55 0 0 z m 74.4,0 H 3048 v -10.55 h -42.52 v 10.55 0 0 z m 74.41,0 h 42.52 v -10.55 h -42.52 v 10.55 0 0 z m 74.4,0 h 42.51 v -10.55 h -42.51 v 10.55 0 0 z m 74.41,0 h 42.51 v -10.55 h -42.51 v 10.55 0 0 z m 74.39,0 h 42.52 v -10.55 h -42.52 v 10.55 0 0 z m 74.4,0 h 42.52 v -10.55 h -42.52 v 10.55 0 0 z m 74.41,0 h 42.52 v -10.55 h -42.52 v 10.55 0 0 z m 74.4,0 h 42.51 v -10.55 h -42.51 v 10.55 0 0 z m 74.41,0 h 42.51 v -10.55 h -42.51 v 10.55 0 0 z m 74.39,0 h 42.52 v -10.55 h -42.52 v 10.55 0 0 z m 74.41,0 h 42.52 v -10.55 h -42.52 v 10.55 0 0 z m 74.4,0 h 42.52 v -10.55 h -42.52 v 10.55 0 0 z m 74.4,0 h 42.51 v -10.55 h -42.51 v 10.55 0 0 z m 74.41,0 h 42.51 v -10.55 h -42.51 v 10.55 0 0 z m 74.39,0 h 42.52 v -10.55 h -42.52 v 10.55 0 0 z m 74.41,0 h 42.52 v -10.55 h -42.52 v 10.55 0 0 z m 74.4,0 h 42.52 v -10.55 h -42.52 v 10.55 0 0 z m 74.41,0 h 42.51 v -10.55 h -42.51 v 10.55 0 0 z m 74.4,0 h 42.51 v -10.55 h -42.51 v 10.55 0 0 z m 74.4,0 h 42.51 v -10.55 h -42.51 v 10.55 0 0 z m 74.4,0 h 42.52 v -10.55 h -42.52 v 10.55 0 0 z m 74.4,0 h 42.52 v -10.55 h -42.52 v 10.55 0 0 z m 74.41,0 h 42.51 v -10.55 h -42.51 v 10.55 0 0 z m 74.4,0 h 42.51 v -10.55 h -42.51 v 10.55 0 0 z m 74.4,0 h 42.52 v -10.55 h -42.52 v 10.55 0 0 z m 74.4,0 h 42.52 v -10.55 h -42.52 v 10.55 0 0 z m 74.41,0 h 42.51 v -10.55 h -42.51 v 10.55 0 0 z m 74.4,0 h 42.51 v -10.55 h -42.51 v 10.55 0 0 z m 74.4,0 h 42.51 v -10.55 h -42.51 v 10.55 0 0 z m 74.4,0 h 0.99 v -10.55 h -0.99 v 10.55 0 0 0"
         style="fill:#51555a;fill-opacity:1;fill-rule:evenodd;stroke:none"
         id="path62" /><g
         id="g64"><g
           id="g66"
           clip-path="url(#clipPath70)"><path
             d="m 922.223,1839.2 h 42.511 v -10.55 h -42.511 v 10.55 0 0 z m 74.398,0 h 42.519 v -10.55 h -42.519 v 10.55 0 0 z m 74.399,0 h 42.52 v -10.55 h -42.52 v 10.55 0 0 z m 74.41,0 h 42.51 v -10.55 h -42.51 v 10.55 0 0 z m 74.4,0 h 42.51 v -10.55 h -42.51 v 10.55 0 0 z m 74.4,0 h 42.52 v -10.55 h -42.52 v 10.55 0 0 z m 74.4,0 h 42.52 v -10.55 h -42.52 v 10.55 0 0 z m 74.41,0 h 42.51 v -10.55 h -42.51 v 10.55 0 0 z m 74.4,0 h 42.52 v -10.55 h -42.52 v 10.55 0 0 z m 74.4,0 h 42.51 v -10.55 h -42.51 v 10.55 0 0 z m 74.4,0 h 42.52 v -10.55 h -42.52 v 10.55 0 0 z m 74.4,0 h 42.52 v -10.55 h -42.52 v 10.55 0 0 z m 74.41,0 h 42.51 v -10.55 h -42.51 v 10.55 0 0 z m 74.4,0 h 42.52 v -10.55 h -42.52 v 10.55 0 0 z m 74.4,0 h 42.52 v -10.55 h -42.52 v 10.55 0 0 z m 74.41,0 h 42.51 v -10.55 h -42.51 v 10.55 0 0 z m 74.4,0 h 42.51 v -10.55 h -42.51 v 10.55 0 0 z m 74.4,0 h 42.51 v -10.55 h -42.51 v 10.55 0 0 z m 74.4,0 h 42.52 v -10.55 h -42.52 v 10.55 0 0 z m 74.4,0 h 42.52 v -10.55 h -42.52 v 10.55 0 0 z m 74.41,0 h 42.51 v -10.55 h -42.51 v 10.55 0 0 z m 74.4,0 h 42.51 v -10.55 h -42.51 v 10.55 0 0 z m 74.4,0 h 42.52 v -10.55 h -42.52 v 10.55 0 0 z m 74.4,0 h 42.52 v -10.55 h -42.52 v 10.55 0 0 z m 74.41,0 h 42.51 v -10.55 h -42.51 v 10.55 0 0 z m 74.4,0 h 42.51 v -10.55 h -42.51 v 10.55 0 0 z m 74.4,0 h 42.51 v -10.55 h -42.51 v 10.55 0 0 z m 74.4,0 h 42.52 v -10.55 h -42.52 v 10.55 0 0 z m 74.4,0 H 3048 v -10.55 h -42.52 v 10.55 0 0 z m 74.41,0 h 42.52 v -10.55 h -42.52 v 10.55 0 0 z m 74.4,0 h 42.51 v -10.55 h -42.51 v 10.55 0 0 z m 74.41,0 h 42.51 v -10.55 h -42.51 v 10.55 0 0 z m 74.39,0 h 42.52 v -10.55 h -42.52 v 10.55 0 0 z m 74.4,0 h 42.52 v -10.55 h -42.52 v 10.55 0 0 z m 74.41,0 h 42.52 v -10.55 h -42.52 v 10.55 0 0 z m 74.4,0 h 42.51 v -10.55 h -42.51 v 10.55 0 0 z m 74.41,0 h 42.51 v -10.55 h -42.51 v 10.55 0 0 z m 74.39,0 h 42.52 v -10.55 h -42.52 v 10.55 0 0 z m 74.41,0 h 42.52 v -10.55 h -42.52 v 10.55 0 0 z m 74.4,0 h 42.52 v -10.55 h -42.52 v 10.55 0 0 z m 74.4,0 h 42.51 v -10.55 h -42.51 v 10.55 0 0 z m 74.41,0 h 42.51 v -10.55 h -42.51 v 10.55 0 0 z m 74.39,0 h 42.52 v -10.55 h -42.52 v 10.55 0 0 z m 74.41,0 h 42.52 v -10.55 h -42.52 v 10.55 0 0 z m 74.4,0 h 42.52 v -10.55 h -42.52 v 10.55 0 0 z m 74.41,0 h 42.51 v -10.55 h -42.51 v 10.55 0 0 z m 74.4,0 h 42.51 v -10.55 h -42.51 v 10.55 0 0 z m 74.4,0 h 42.51 v -10.55 h -42.51 v 10.55 0 0 z m 74.4,0 h 42.52 v -10.55 h -42.52 v 10.55 0 0 z m 74.4,0 h 42.52 v -10.55 h -42.52 v 10.55 0 0 z m 74.41,0 h 42.51 v -10.55 h -42.51 v 10.55 0 0 z m 74.4,0 h 42.51 v -10.55 h -42.51 v 10.55 0 0 z m 74.4,0 h 42.52 v -10.55 h -42.52 v 10.55 0 0 z m 74.4,0 h 42.52 v -10.55 h -42.52 v 10.55 0 0 z m 74.41,0 h 42.51 v -10.55 h -42.51 v 10.55 0 0 z m 74.4,0 h 42.51 v -10.55 h -42.51 v 10.55 0 0 z m 74.4,0 h 42.51 v -10.55 h -42.51 v 10.55 0 0 z m 74.4,0 h 0.99 v -10.55 h -0.99 v 10.55 0 0 z"
             style="fill:none;stroke:#51555a;stroke-width:7.51407;stroke-linecap:round;stroke-linejoin:round;stroke-miterlimit:10;stroke-dasharray:none;stroke-opacity:1"
             id="path72" /></g></g><path
         d="m 3560.84,787.898 1317,1038.112 M 3560.84,787.898 V 1826.01 M 2242.86,793.168 3559.85,1831.29 M 2242.86,793.168 V 1831.29 M 924.879,793.168 2241.86,1831.29"
         style="fill:none;stroke:#0e0f0e;stroke-width:21.2784;stroke-linecap:round;stroke-linejoin:round;stroke-miterlimit:10;stroke-dasharray:none;stroke-opacity:1"
         id="path74" /><g
         id="g76"
         transform="scale(10)"><text
           transform="matrix(1,0,0,-0.99251643,25.1645,21.059)"
           style="font-variant:normal;font-weight:normal;font-size:12.0905px;font-family:Calibri;-inkscape-font-specification:Calibri;writing-mode:lr-tb;fill:#0e0f0e;fill-opacity:1;fill-rule:nonzero;stroke:none"
           id="text80"><tspan
             x="0 6.3066316 16.820286 26.81881 29.453077 35.768497 42.059986 46.281178 52.597088 58.913006"
             y="0"
             sodipodi:role="line"
             id="tspan78">PWM output</tspan></text></g><path
         d="m 1320.8,1828.65 v -42.2 h -10.63 v 42.2 h 10.63 v 0 0 z m 0,-73.84 v -42.2 h -10.63 v 42.2 h 10.63 v 0 0 z m 0,-73.86 v -42.18 h -10.63 v 42.18 h 10.63 v 0 0 z m 0,-73.84 v -42.19 h -10.63 v 42.19 h 10.63 v 0 0 z m 0,-73.84 v -42.2 h -10.63 v 42.2 h 10.63 v 0 0 z m 0,-73.85 v -42.2 h -10.63 v 42.2 h 10.63 v 0 0 z m 0,-73.84 v -42.19 h -10.63 v 42.19 h 10.63 v 0 0 z m 0,-73.85 v -42.19 h -10.63 v 42.19 h 10.63 v 0 0 z m 0,-73.84 v -42.2 h -10.63 v 42.2 h 10.63 v 0 0 z m 0,-73.85 v -42.2 h -10.63 v 42.2 h 10.63 v 0 0 z m 0,-73.84 V 1048 h -10.63 v 42.2 h 10.63 v 0 0 z m 0,-73.85 v -42.19 h -10.63 v 42.19 h 10.63 v 0 0 z m 0,-73.838 v -42.203 h -10.63 v 42.203 h 10.63 v 0 0 z m 0,-73.852 v -42.199 h -10.63 v 42.199 h 10.63 v 0 0 z m 0,-73.851 v -42.2 h -10.63 v 42.2 h 10.63 v 0 0 z m 0,-73.84 v -42.188 h -10.63 v 42.188 h 10.63 v 0 0 z m 0,-73.848 V 604.93 h -10.63 v 42.191 h 10.63 v 0 0 z m 0,-73.84 v -42.203 h -10.63 v 42.203 h 10.63 v 0 0 z m 0,-73.851 v -42.2 h -10.63 v 42.2 h 10.63 v 0 0 z m 0,-73.84 v -42.211 h -10.63 v 42.211 h 10.63 v 0 0 0"
         style="fill:#757980;fill-opacity:1;fill-rule:evenodd;stroke:none"
         id="path82" /><path
         d="m 1320.8,1828.65 v -42.2 h -10.63 v 42.2 h 10.63 v 0 0 z m 0,-73.84 v -42.2 h -10.63 v 42.2 h 10.63 v 0 0 z m 0,-73.86 v -42.18 h -10.63 v 42.18 h 10.63 v 0 0 z m 0,-73.84 v -42.19 h -10.63 v 42.19 h 10.63 v 0 0 z m 0,-73.84 v -42.2 h -10.63 v 42.2 h 10.63 v 0 0 z m 0,-73.85 v -42.2 h -10.63 v 42.2 h 10.63 v 0 0 z m 0,-73.84 v -42.19 h -10.63 v 42.19 h 10.63 v 0 0 z m 0,-73.85 v -42.19 h -10.63 v 42.19 h 10.63 v 0 0 z m 0,-73.84 v -42.2 h -10.63 v 42.2 h 10.63 v 0 0 z m 0,-73.85 v -42.2 h -10.63 v 42.2 h 10.63 v 0 0 z m 0,-73.84 V 1048 h -10.63 v 42.2 h 10.63 v 0 0 z m 0,-73.85 v -42.19 h -10.63 v 42.19 h 10.63 v 0 0 z m 0,-73.838 v -42.203 h -10.63 v 42.203 h 10.63 v 0 0 z m 0,-73.852 v -42.199 h -10.63 v 42.199 h 10.63 v 0 0 z m 0,-73.851 v -42.2 h -10.63 v 42.2 h 10.63 v 0 0 z m 0,-73.84 v -42.188 h -10.63 v 42.188 h 10.63 v 0 0 z m 0,-73.848 V 604.93 h -10.63 v 42.191 h 10.63 v 0 0 z m 0,-73.84 v -42.203 h -10.63 v 42.203 h 10.63 v 0 0 z m 0,-73.851 v -42.2 h -10.63 v 42.2 h 10.63 v 0 0 z m 0,-73.84 v -42.211 h -10.63 v 42.211 h 10.63 v 0 0 z"
         style="fill:none;stroke:#757980;stroke-width:7.51407;stroke-linecap:round;stroke-linejoin:round;stroke-miterlimit:10;stroke-dasharray:none;stroke-opacity:1"
         id="path84" /><path
         d="M 1777.85,1839.2 V 1797 h -10.63 v 42.2 h 10.63 v 0 0 z m 0,-73.84 v -42.21 h -10.63 v 42.21 h 10.63 v 0 0 z m 0,-73.85 v -42.2 h -10.63 v 42.2 h 10.63 v 0 0 z m 0,-73.85 v -42.2 h -10.63 v 42.2 h 10.63 v 0 0 z m 0,-73.84 v -42.2 h -10.63 v 42.2 h 10.63 v 0 0 z m 0,-73.84 v -42.2 h -10.63 v 42.2 h 10.63 v 0 0 z m 0,-73.85 v -42.2 h -10.63 v 42.2 h 10.63 v 0 0 z m 0,-73.85 v -42.2 h -10.63 v 42.2 h 10.63 v 0 0 z m 0,-73.85 v -42.2 h -10.63 v 42.2 h 10.63 v 0 0 z m 0,-73.83 v -42.2 h -10.63 v 42.2 h 10.63 v 0 0 z m 0,-73.85 v -42.2 h -10.63 v 42.2 h 10.63 v 0 0 z m 0,-73.85 v -42.201 h -10.63 v 42.201 h 10.63 v 0 0 z m 0,-73.849 v -42.192 h -10.63 v 42.192 h 10.63 v 0 0 z m 0,-73.84 V 837.02 h -10.63 v 42.191 h 10.63 v 0 0 z m 0,-73.84 v -42.199 h -10.63 v 42.199 h 10.63 v 0 0 z m 0,-73.851 v -42.2 h -10.63 v 42.2 h 10.63 v 0 0 z m 0,-73.848 v -42.203 h -10.63 v 42.203 h 10.63 v 0 0 z m 0,-73.852 v -42.191 h -10.63 v 42.191 h 10.63 v 0 0 z m 0,-73.832 v -42.199 h -10.63 v 42.199 h 10.63 v 0 0 z m 0,-73.847 v -42.2 h -10.63 v 42.2 h 10.63 v 0 0 0"
         style="fill:#757980;fill-opacity:1;fill-rule:evenodd;stroke:none"
         id="path86" /><path
         d="M 1777.85,1839.2 V 1797 h -10.63 v 42.2 h 10.63 v 0 0 z m 0,-73.84 v -42.21 h -10.63 v 42.21 h 10.63 v 0 0 z m 0,-73.85 v -42.2 h -10.63 v 42.2 h 10.63 v 0 0 z m 0,-73.85 v -42.2 h -10.63 v 42.2 h 10.63 v 0 0 z m 0,-73.84 v -42.2 h -10.63 v 42.2 h 10.63 v 0 0 z m 0,-73.84 v -42.2 h -10.63 v 42.2 h 10.63 v 0 0 z m 0,-73.85 v -42.2 h -10.63 v 42.2 h 10.63 v 0 0 z m 0,-73.85 v -42.2 h -10.63 v 42.2 h 10.63 v 0 0 z m 0,-73.85 v -42.2 h -10.63 v 42.2 h 10.63 v 0 0 z m 0,-73.83 v -42.2 h -10.63 v 42.2 h 10.63 v 0 0 z m 0,-73.85 v -42.2 h -10.63 v 42.2 h 10.63 v 0 0 z m 0,-73.85 v -42.201 h -10.63 v 42.201 h 10.63 v 0 0 z m 0,-73.849 v -42.192 h -10.63 v 42.192 h 10.63 v 0 0 z m 0,-73.84 V 837.02 h -10.63 v 42.191 h 10.63 v 0 0 z m 0,-73.84 v -42.199 h -10.63 v 42.199 h 10.63 v 0 0 z m 0,-73.851 v -42.2 h -10.63 v 42.2 h 10.63 v 0 0 z m 0,-73.848 v -42.203 h -10.63 v 42.203 h 10.63 v 0 0 z m 0,-73.852 v -42.191 h -10.63 v 42.191 h 10.63 v 0 0 z m 0,-73.832 v -42.199 h -10.63 v 42.199 h 10.63 v 0 0 z m 0,-73.847 v -42.2 h -10.63 v 42.2 h 10.63 v 0 0 z"
         style="fill:none;stroke:#757980;stroke-width:7.51407;stroke-linecap:round;stroke-linejoin:round;stroke-miterlimit:10;stroke-dasharray:none;stroke-opacity:1"
         id="path88" /><path
         d="m 2649.42,1828.65 v -42.2 h -10.64 v 42.2 h 10.64 v 0 0 z m 0,-73.84 v -42.2 h -10.64 v 42.2 h 10.64 v 0 0 z m 0,-73.86 v -42.18 h -10.64 v 42.18 h 10.64 v 0 0 z m 0,-73.84 v -42.19 h -10.64 v 42.19 h 10.64 v 0 0 z m 0,-73.84 v -42.2 h -10.64 v 42.2 h 10.64 v 0 0 z m 0,-73.85 v -42.2 h -10.64 v 42.2 h 10.64 v 0 0 z m 0,-73.84 v -42.19 h -10.64 v 42.19 h 10.64 v 0 0 z m 0,-73.85 v -42.19 h -10.64 v 42.19 h 10.64 v 0 0 z m 0,-73.84 v -42.2 h -10.64 v 42.2 h 10.64 v 0 0 z m 0,-73.85 v -42.2 h -10.64 v 42.2 h 10.64 v 0 0 z m 0,-73.84 V 1048 h -10.64 v 42.2 h 10.64 v 0 0 z m 0,-73.85 v -42.19 h -10.64 v 42.19 h 10.64 v 0 0 z m 0,-73.838 v -42.203 h -10.64 v 42.203 h 10.64 v 0 0 z m 0,-73.852 v -42.199 h -10.64 v 42.199 h 10.64 v 0 0 z m 0,-73.851 v -42.2 h -10.64 v 42.2 h 10.64 v 0 0 z m 0,-73.84 v -42.188 h -10.64 v 42.188 h 10.64 v 0 0 z m 0,-73.848 V 604.93 h -10.64 v 42.191 h 10.64 v 0 0 z m 0,-73.84 v -42.203 h -10.64 v 42.203 h 10.64 v 0 0 z m 0,-73.851 v -42.2 h -10.64 v 42.2 h 10.64 v 0 0 z m 0,-73.84 v -42.211 h -10.64 v 42.211 h 10.64 v 0 0 0"
         style="fill:#757980;fill-opacity:1;fill-rule:evenodd;stroke:none"
         id="path90" /><path
         d="m 2649.42,1828.65 v -42.2 h -10.64 v 42.2 h 10.64 v 0 0 z m 0,-73.84 v -42.2 h -10.64 v 42.2 h 10.64 v 0 0 z m 0,-73.86 v -42.18 h -10.64 v 42.18 h 10.64 v 0 0 z m 0,-73.84 v -42.19 h -10.64 v 42.19 h 10.64 v 0 0 z m 0,-73.84 v -42.2 h -10.64 v 42.2 h 10.64 v 0 0 z m 0,-73.85 v -42.2 h -10.64 v 42.2 h 10.64 v 0 0 z m 0,-73.84 v -42.19 h -10.64 v 42.19 h 10.64 v 0 0 z m 0,-73.85 v -42.19 h -10.64 v 42.19 h 10.64 v 0 0 z m 0,-73.84 v -42.2 h -10.64 v 42.2 h 10.64 v 0 0 z m 0,-73.85 v -42.2 h -10.64 v 42.2 h 10.64 v 0 0 z m 0,-73.84 V 1048 h -10.64 v 42.2 h 10.64 v 0 0 z m 0,-73.85 v -42.19 h -10.64 v 42.19 h 10.64 v 0 0 z m 0,-73.838 v -42.203 h -10.64 v 42.203 h 10.64 v 0 0 z m 0,-73.852 v -42.199 h -10.64 v 42.199 h 10.64 v 0 0 z m 0,-73.851 v -42.2 h -10.64 v 42.2 h 10.64 v 0 0 z m 0,-73.84 v -42.188 h -10.64 v 42.188 h 10.64 v 0 0 z m 0,-73.848 V 604.93 h -10.64 v 42.191 h 10.64 v 0 0 z m 0,-73.84 v -42.203 h -10.64 v 42.203 h 10.64 v 0 0 z m 0,-73.851 v -42.2 h -10.64 v 42.2 h 10.64 v 0 0 z m 0,-73.84 v -42.211 h -10.64 v 42.211 h 10.64 v 0 0 z"
         style="fill:none;stroke:#757980;stroke-width:7.51407;stroke-linecap:round;stroke-linejoin:round;stroke-miterlimit:10;stroke-dasharray:none;stroke-opacity:1"
         id="path92" /><path
         d="M 3106.46,1839.2 V 1797 h -10.63 v 42.2 h 10.63 v 0 0 z m 0,-73.84 v -42.21 h -10.63 v 42.21 h 10.63 v 0 0 z m 0,-73.85 v -42.2 h -10.63 v 42.2 h 10.63 v 0 0 z m 0,-73.85 v -42.2 h -10.63 v 42.2 h 10.63 v 0 0 z m 0,-73.84 v -42.2 h -10.63 v 42.2 h 10.63 v 0 0 z m 0,-73.84 v -42.2 h -10.63 v 42.2 h 10.63 v 0 0 z m 0,-73.85 v -42.2 h -10.63 v 42.2 h 10.63 v 0 0 z m 0,-73.85 v -42.2 h -10.63 v 42.2 h 10.63 v 0 0 z m 0,-73.85 v -42.2 h -10.63 v 42.2 h 10.63 v 0 0 z m 0,-73.83 v -42.2 h -10.63 v 42.2 h 10.63 v 0 0 z m 0,-73.85 v -42.2 h -10.63 v 42.2 h 10.63 v 0 0 z m 0,-73.85 v -42.201 h -10.63 v 42.201 h 10.63 v 0 0 z m 0,-73.849 v -42.192 h -10.63 v 42.192 h 10.63 v 0 0 z m 0,-73.84 V 837.02 h -10.63 v 42.191 h 10.63 v 0 0 z m 0,-73.84 v -42.199 h -10.63 v 42.199 h 10.63 v 0 0 z m 0,-73.851 v -42.2 h -10.63 v 42.2 h 10.63 v 0 0 z m 0,-73.848 v -42.203 h -10.63 v 42.203 h 10.63 v 0 0 z m 0,-73.852 v -42.191 h -10.63 v 42.191 h 10.63 v 0 0 z m 0,-73.832 v -42.199 h -10.63 v 42.199 h 10.63 v 0 0 z m 0,-73.847 v -42.2 h -10.63 v 42.2 h 10.63 v 0 0 0"
         style="fill:#757980;fill-opacity:1;fill-rule:evenodd;stroke:none"
         id="path94" /><path
         d="M 3106.46,1839.2 V 1797 h -10.63 v 42.2 h 10.63 v 0 0 z m 0,-73.84 v -42.21 h -10.63 v 42.21 h 10.63 v 0 0 z m 0,-73.85 v -42.2 h -10.63 v 42.2 h 10.63 v 0 0 z m 0,-73.85 v -42.2 h -10.63 v 42.2 h 10.63 v 0 0 z m 0,-73.84 v -42.2 h -10.63 v 42.2 h 10.63 v 0 0 z m 0,-73.84 v -42.2 h -10.63 v 42.2 h 10.63 v 0 0 z m 0,-73.85 v -42.2 h -10.63 v 42.2 h 10.63 v 0 0 z m 0,-73.85 v -42.2 h -10.63 v 42.2 h 10.63 v 0 0 z m 0,-73.85 v -42.2 h -10.63 v 42.2 h 10.63 v 0 0 z m 0,-73.83 v -42.2 h -10.63 v 42.2 h 10.63 v 0 0 z m 0,-73.85 v -42.2 h -10.63 v 42.2 h 10.63 v 0 0 z m 0,-73.85 v -42.201 h -10.63 v 42.201 h 10.63 v 0 0 z m 0,-73.849 v -42.192 h -10.63 v 42.192 h 10.63 v 0 0 z m 0,-73.84 V 837.02 h -10.63 v 42.191 h 10.63 v 0 0 z m 0,-73.84 v -42.199 h -10.63 v 42.199 h 10.63 v 0 0 z m 0,-73.851 v -42.2 h -10.63 v 42.2 h 10.63 v 0 0 z m 0,-73.848 v -42.203 h -10.63 v 42.203 h 10.63 v 0 0 z m 0,-73.852 v -42.191 h -10.63 v 42.191 h 10.63 v 0 0 z m 0,-73.832 v -42.199 h -10.63 v 42.199 h 10.63 v 0 0 z m 0,-73.847 v -42.2 h -10.63 v 42.2 h 10.63 v 0 0 z"
         style="fill:none;stroke:#757980;stroke-width:7.51407;stroke-linecap:round;stroke-linejoin:round;stroke-miterlimit:10;stroke-dasharray:none;stroke-opacity:1"
         id="path96" /><path
         d="M 3956.77,1839.2 V 1797 h -10.62 v 42.2 h 10.62 v 0 0 z m 0,-73.84 v -42.21 h -10.62 v 42.21 h 10.62 v 0 0 z m 0,-73.85 v -42.2 h -10.62 v 42.2 h 10.62 v 0 0 z m 0,-73.85 v -42.2 h -10.62 v 42.2 h 10.62 v 0 0 z m 0,-73.84 v -42.2 h -10.62 v 42.2 h 10.62 v 0 0 z m 0,-73.84 v -42.2 h -10.62 v 42.2 h 10.62 v 0 0 z m 0,-73.85 v -42.2 h -10.62 v 42.2 h 10.62 v 0 0 z m 0,-73.85 v -42.2 h -10.62 v 42.2 h 10.62 v 0 0 z m 0,-73.85 v -42.2 h -10.62 v 42.2 h 10.62 v 0 0 z m 0,-73.83 v -42.2 h -10.62 v 42.2 h 10.62 v 0 0 z m 0,-73.85 v -42.2 h -10.62 v 42.2 h 10.62 v 0 0 z m 0,-73.85 v -42.201 h -10.62 v 42.201 h 10.62 v 0 0 z m 0,-73.849 v -42.192 h -10.62 v 42.192 h 10.62 v 0 0 z m 0,-73.84 V 837.02 h -10.62 v 42.191 h 10.62 v 0 0 z m 0,-73.84 v -42.199 h -10.62 v 42.199 h 10.62 v 0 0 z m 0,-73.851 v -42.2 h -10.62 v 42.2 h 10.62 v 0 0 z m 0,-73.848 v -42.203 h -10.62 v 42.203 h 10.62 v 0 0 z m 0,-73.852 v -42.191 h -10.62 v 42.191 h 10.62 v 0 0 z m 0,-73.832 v -42.199 h -10.62 v 42.199 h 10.62 v 0 0 z m 0,-73.847 v -42.2 h -10.62 v 42.2 h 10.62 v 0 0 0"
         style="fill:#757980;fill-opacity:1;fill-rule:evenodd;stroke:none"
         id="path98" /><path
         d="M 3956.77,1839.2 V 1797 h -10.62 v 42.2 h 10.62 v 0 0 z m 0,-73.84 v -42.21 h -10.62 v 42.21 h 10.62 v 0 0 z m 0,-73.85 v -42.2 h -10.62 v 42.2 h 10.62 v 0 0 z m 0,-73.85 v -42.2 h -10.62 v 42.2 h 10.62 v 0 0 z m 0,-73.84 v -42.2 h -10.62 v 42.2 h 10.62 v 0 0 z m 0,-73.84 v -42.2 h -10.62 v 42.2 h 10.62 v 0 0 z m 0,-73.85 v -42.2 h -10.62 v 42.2 h 10.62 v 0 0 z m 0,-73.85 v -42.2 h -10.62 v 42.2 h 10.62 v 0 0 z m 0,-73.85 v -42.2 h -10.62 v 42.2 h 10.62 v 0 0 z m 0,-73.83 v -42.2 h -10.62 v 42.2 h 10.62 v 0 0 z m 0,-73.85 v -42.2 h -10.62 v 42.2 h 10.62 v 0 0 z m 0,-73.85 v -42.201 h -10.62 v 42.201 h 10.62 v 0 0 z m 0,-73.849 v -42.192 h -10.62 v 42.192 h 10.62 v 0 0 z m 0,-73.84 V 837.02 h -10.62 v 42.191 h 10.62 v 0 0 z m 0,-73.84 v -42.199 h -10.62 v 42.199 h 10.62 v 0 0 z m 0,-73.851 v -42.2 h -10.62 v 42.2 h 10.62 v 0 0 z m 0,-73.848 v -42.203 h -10.62 v 42.203 h 10.62 v 0 0 z m 0,-73.852 v -42.191 h -10.62 v 42.191 h 10.62 v 0 0 z m 0,-73.832 v -42.199 h -10.62 v 42.199 h 10.62 v 0 0 z m 0,-73.847 v -42.2 h -10.62 v 42.2 h 10.62 v 0 0 z"
         style="fill:none;stroke:#757980;stroke-width:7.51407;stroke-linecap:round;stroke-linejoin:round;stroke-miterlimit:10;stroke-dasharray:none;stroke-opacity:1"
         id="path100" /><path
         d="m 4413.81,1844.48 v -42.21 h -10.62 v 42.21 h 10.62 v 0 0 z m 0,-73.85 v -42.2 h -10.62 v 42.2 h 10.62 v 0 0 z m 0,-73.85 v -42.19 h -10.62 v 42.19 h 10.62 v 0 0 z m 0,-73.84 v -42.2 h -10.62 v 42.2 h 10.62 v 0 0 z m 0,-73.85 v -42.2 h -10.62 v 42.2 h 10.62 v 0 0 z m 0,-73.85 v -42.19 h -10.62 v 42.19 h 10.62 v 0 0 z m 0,-73.84 v -42.2 h -10.62 v 42.2 h 10.62 v 0 0 z m 0,-73.85 v -42.19 h -10.62 v 42.19 h 10.62 v 0 0 z m 0,-73.84 v -42.2 h -10.62 v 42.2 h 10.62 v 0 0 z m 0,-73.84 v -42.2 h -10.62 v 42.2 h 10.62 v 0 0 z m 0,-73.85 v -42.2 h -10.62 v 42.2 h 10.62 v 0 0 z m 0,-73.85 v -42.19 h -10.62 v 42.19 h 10.62 v 0 0 z m 0,-73.842 v -42.199 h -10.62 v 42.199 h 10.62 v 0 0 z m 0,-73.84 v -42.199 h -10.62 v 42.199 h 10.62 v 0 0 z m 0,-73.847 v -42.2 h -10.62 v 42.2 h 10.62 v 0 0 z m 0,-73.852 v -42.187 h -10.62 v 42.187 h 10.62 v 0 0 z m 0,-73.84 V 620.75 h -10.62 v 42.199 h 10.62 v 0 0 z m 0,-73.84 V 546.91 h -10.62 v 42.199 h 10.62 v 0 0 z m 0,-73.847 v -42.203 h -10.62 v 42.203 h 10.62 v 0 0 z m 0,-73.852 v -42.199 h -10.62 v 42.199 h 10.62 v 0 0 0"
         style="fill:#757980;fill-opacity:1;fill-rule:evenodd;stroke:none"
         id="path102" /><path
         d="m 4413.81,1844.48 v -42.21 h -10.62 v 42.21 h 10.62 v 0 0 z m 0,-73.85 v -42.2 h -10.62 v 42.2 h 10.62 v 0 0 z m 0,-73.85 v -42.19 h -10.62 v 42.19 h 10.62 v 0 0 z m 0,-73.84 v -42.2 h -10.62 v 42.2 h 10.62 v 0 0 z m 0,-73.85 v -42.2 h -10.62 v 42.2 h 10.62 v 0 0 z m 0,-73.85 v -42.19 h -10.62 v 42.19 h 10.62 v 0 0 z m 0,-73.84 v -42.2 h -10.62 v 42.2 h 10.62 v 0 0 z m 0,-73.85 v -42.19 h -10.62 v 42.19 h 10.62 v 0 0 z m 0,-73.84 v -42.2 h -10.62 v 42.2 h 10.62 v 0 0 z m 0,-73.84 v -42.2 h -10.62 v 42.2 h 10.62 v 0 0 z m 0,-73.85 v -42.2 h -10.62 v 42.2 h 10.62 v 0 0 z m 0,-73.85 v -42.19 h -10.62 v 42.19 h 10.62 v 0 0 z m 0,-73.842 v -42.199 h -10.62 v 42.199 h 10.62 v 0 0 z m 0,-73.84 v -42.199 h -10.62 v 42.199 h 10.62 v 0 0 z m 0,-73.847 v -42.2 h -10.62 v 42.2 h 10.62 v 0 0 z m 0,-73.852 v -42.187 h -10.62 v 42.187 h 10.62 v 0 0 z m 0,-73.84 V 620.75 h -10.62 v 42.199 h 10.62 v 0 0 z m 0,-73.84 V 546.91 h -10.62 v 42.199 h 10.62 v 0 0 z m 0,-73.847 v -42.203 h -10.62 v 42.203 h 10.62 v 0 0 z m 0,-73.852 v -42.199 h -10.62 v 42.199 h 10.62 v 0 0 z"
         style="fill:none;stroke:#757980;stroke-width:7.51407;stroke-linecap:round;stroke-linejoin:round;stroke-miterlimit:10;stroke-dasharray:none;stroke-opacity:1"
         id="path104" /><g
         id="g106"><g
           id="g108"
           clip-path="url(#clipPath112)"><path
             d="m 4408.5,198.781 h 713.47 m -713.47,0.66 v 305.27 m -2.66,0 h -454.38 m 0,-305.27 v 305.27 m -850.31,-305.93 h 874.89 m -874.89,0.66 v 305.27 m -2.66,0 h -454.38 m 0,-305.27 v 305.27 m -871.58,-305.93 h 874.9 m -874.9,0.66 v 305.27 m -2.66,0 h -454.38 m 0,-305.27 v 305.27 M 964.734,198.781 h 354.746"
             style="fill:none;stroke:#231f20;stroke-width:5;stroke-linecap:round;stroke-linejoin:round;stroke-miterlimit:10;stroke-dasharray:none;stroke-opacity:1"
             id="path114" /><path
             d="M 6.26172,2063.38 H 5165.32 V 6.26172 H 6.26172 V 2063.38 v 0 0 z"
             style="fill:none;stroke:#231f20;stroke-width:5;stroke-linecap:round;stroke-linejoin:round;stroke-miterlimit:10;stroke-dasharray:none;stroke-opacity:1"
             id="path116" /></g></g><path
         d="M 2.5,2067.13 V 2.5 h 5166.57 v 2064.63 z"
         style="fill:none;stroke:#231f20;stroke-width:5;stroke-linecap:butt;stroke-linejoin:miter;stroke-miterlimit:10;stroke-dasharray:none;stroke-opacity:1"
         id="path118" /></g></g></svg>
