<?xml version="1.0" encoding="UTF-8" standalone="no"?>
<svg
   xmlns:dc="http://purl.org/dc/elements/1.1/"
   xmlns:cc="http://creativecommons.org/ns#"
   xmlns:rdf="http://www.w3.org/1999/02/22-rdf-syntax-ns#"
   xmlns:svg="http://www.w3.org/2000/svg"
   xmlns="http://www.w3.org/2000/svg"
   xmlns:sodipodi="http://sodipodi.sourceforge.net/DTD/sodipodi-0.dtd"
   xmlns:inkscape="http://www.inkscape.org/namespaces/inkscape"
   version="1.1"
   id="svg2"
   xml:space="preserve"
   width="692.65332"
   height="794.70667"
   viewBox="0 0 692.65332 794.70667"
   sodipodi:docname="usb_communicate.svg"
   inkscape:version="1.0.1 (3bc2e813f5, 2020-09-07)"><metadata
     id="metadata8"><rdf:RDF><cc:Work
         rdf:about=""><dc:format>image/svg+xml</dc:format><dc:type
           rdf:resource="http://purl.org/dc/dcmitype/StillImage" /><dc:title></dc:title></cc:Work></rdf:RDF></metadata><defs
     id="defs6" /><sodipodi:namedview
     pagecolor="#ffffff"
     bordercolor="#666666"
     borderopacity="1"
     objecttolerance="10"
     gridtolerance="10"
     guidetolerance="10"
     inkscape:pageopacity="0"
     inkscape:pageshadow="2"
     inkscape:window-width="786"
     inkscape:window-height="480"
     id="namedview4"
     showgrid="false"
     inkscape:zoom="1.0683187"
     inkscape:cx="346.32666"
     inkscape:cy="397.35333"
     inkscape:window-x="0"
     inkscape:window-y="0"
     inkscape:window-maximized="0"
     inkscape:current-layer="g10" /><g
     id="g10"
     inkscape:groupmode="layer"
     inkscape:label="ink_ext_XXXXXX"
     transform="matrix(1.3333333,0,0,-1.3333333,0,794.70667)"><g
       id="g12"
       transform="scale(0.1)"><path
         d="m 1647.86,4763.05 h 642.3 v 425.22 h -642.3 z"
         style="fill:none;stroke:#231f20;stroke-width:7.5075;stroke-linecap:round;stroke-linejoin:round;stroke-miterlimit:10;stroke-dasharray:none;stroke-opacity:1"
         id="path14" /><g
         id="g16"
         transform="scale(10)"><text
           transform="matrix(1,1e-8,-1e-8,-1,191.845,493.836)"
           style="font-variant:normal;font-weight:normal;font-size:12px;font-family:Calibri;-inkscape-font-specification:Calibri;writing-mode:lr-tb;fill:#231f20;fill-opacity:1;fill-rule:nonzero;stroke:none"
           id="text20"><tspan
             x="0 3.0109384"
             y="0"
             sodipodi:role="line"
             id="tspan18">IN</tspan></text></g><path
         d="m 2502.76,4975.66 v 364.89"
         style="fill:none;stroke:#231f20;stroke-width:7.5075;stroke-linecap:round;stroke-linejoin:round;stroke-miterlimit:10;stroke-dasharray:none;stroke-opacity:1"
         id="path22" /><path
         d="m 2502.76,5389.56 32.39,-64.81 c -20.4,10.21 -44.39,10.21 -64.79,0 l 32.4,64.81"
         style="fill:#231f20;fill-opacity:1;fill-rule:evenodd;stroke:none"
         id="path24" /><path
         d="m 1279.36,5416.66 h 2551.19 v 449.05 H 1279.36 Z"
         style="fill:none;stroke:#231f20;stroke-width:15;stroke-linecap:round;stroke-linejoin:round;stroke-miterlimit:10;stroke-dasharray:15, 30;stroke-dashoffset:0;stroke-opacity:1"
         id="path26" /><g
         id="g28"
         transform="scale(10)"><text
           transform="matrix(1,1e-8,-1e-8,-1,132.195,574.836)"
           style="font-variant:normal;font-weight:normal;font-size:12px;font-family:Calibri;-inkscape-font-specification:Calibri;writing-mode:lr-tb;fill:#231f20;fill-opacity:1;fill-rule:nonzero;stroke:none"
           id="text36"><tspan
             x="0 8.2582092 14.262897 17.244148 22.496103 25.473057 30.728918 37.853134 43.824226 48.332039 51.308208 55.810158 64.099998 68.583984 74.58828 80.730064 86.701157 92.710915 95.499962 100.73004 105.98708 112.72301 114.98003 120.964 126.96791 133.70502 135.96204 142.54095 144.79095 147.77299 150.74992 152.99994 159.73587 161.99289 168.73 173.98586 178.47298 183.7179 186.69406 190.44992 197.17415 199.43117 206.17999 212.26982 219.67804 228.55107"
             y="0"
             sodipodi:role="line"
             id="tspan30">Only a!er swrdy=0 can you ﬁll in data to e0#w;</tspan><tspan
             x="0 5.262114 11.233207 21.732038 27.737116 33.722271 35.97813 41.953915 44.931259 49.441021 53.925007 58.426174 62.910156 65.167191 71.142975 78.267197 84.238289 88.746117 91.003136 95.49025 101.49493 107.46603 110.46719 116.47227 122.45899 126.21524 132.20314 134.46016 137.44101 141.94298 144.91992 151.5 153.74922 156.73125 162.70195 168.73009 171.70819 179.99803 182.97948 185.9621 188.2121 191.18826 200.9539 206.19804 212.18123 218.15193 220.43201 224.92107 230.92497 236.89568"
             y="14.4102"
             sodipodi:role="line"
             id="tspan32">Se$ng a crsr a!er the data is ﬁlled will make the </tspan><tspan
             x="0 6.0050783 11.981253 17.985939 24.722267 29.224216 35.960155 41.217186 46.467972 52.437893 55.439064 61.444141 68.180077 74.169144 78.669937 84.640244 86.922264 91.40509 97.376183 103.40509 106.38712 111.63789 114.61523 121.3789 128.11328 134.35001"
             y="28.830099"
             sodipodi:role="line"
             id="tspan34">handshake phase reply ACK;</tspan></text></g><path
         d="m 2715.36,4763.05 h 689.99 v 425.22 h -689.99 z"
         style="fill:none;stroke:#231f20;stroke-width:7.5075;stroke-linecap:round;stroke-linejoin:round;stroke-miterlimit:10;stroke-dasharray:none;stroke-opacity:1"
         id="path38" /><g
         id="g40"
         transform="scale(10)"><text
           transform="matrix(1,1e-8,-1e-8,-1,292.895,493.836)"
           style="font-variant:normal;font-weight:normal;font-size:12px;font-family:Calibri;-inkscape-font-specification:Calibri;writing-mode:lr-tb;fill:#231f20;fill-opacity:1;fill-rule:nonzero;stroke:none"
           id="text44"><tspan
             x="0 7.4789014 14.242184 20.222267"
             y="0"
             sodipodi:role="line"
             id="tspan42">DATA</tspan></text></g><path
         d="m 3896.56,4763.05 h 604.95 v 425.22 h -604.95 z"
         style="fill:none;stroke:#231f20;stroke-width:7.5075;stroke-linecap:round;stroke-linejoin:round;stroke-miterlimit:10;stroke-dasharray:none;stroke-opacity:1"
         id="path46" /><g
         id="g48"
         transform="scale(10)"><text
           transform="matrix(1,1e-8,-1e-8,-1,410.616,493.836)"
           style="font-variant:normal;font-weight:normal;font-size:12px;font-family:Calibri;-inkscape-font-specification:Calibri;writing-mode:lr-tb;fill:#231f20;fill-opacity:1;fill-rule:nonzero;stroke:none"
           id="text52"><tspan
             x="0 6.7871113 13.5461"
             y="0"
             sodipodi:role="line"
             id="tspan50">ACK</tspan></text></g><path
         d="m 1647.86,3233.16 h 642.3 v 425.21 h -642.3 z"
         style="fill:none;stroke:#231f20;stroke-width:7.5075;stroke-linecap:round;stroke-linejoin:round;stroke-miterlimit:10;stroke-dasharray:none;stroke-opacity:1"
         id="path54" /><g
         id="g56"
         transform="scale(10)"><text
           transform="matrix(1,1e-8,-1e-8,-1,186.476,340.726)"
           style="font-variant:normal;font-weight:normal;font-size:12px;font-family:Calibri;-inkscape-font-specification:Calibri;writing-mode:lr-tb;fill:#231f20;fill-opacity:1;fill-rule:nonzero;stroke:none"
           id="text60"><tspan
             x="0 8.2328186 15.739845"
             y="0"
             sodipodi:role="line"
             id="tspan58">OUT</tspan></text></g><path
         d="m 2502.76,3445.75 v 453.61"
         style="fill:none;stroke:#231f20;stroke-width:7.5075;stroke-linecap:round;stroke-linejoin:round;stroke-miterlimit:10;stroke-dasharray:none;stroke-opacity:1"
         id="path62" /><path
         d="m 2502.76,3948.36 32.39,-64.8 c -20.4,10.2 -44.39,10.2 -64.79,0 l 32.4,64.8"
         style="fill:#231f20;fill-opacity:1;fill-rule:evenodd;stroke:none"
         id="path64" /><path
         d="m 2715.36,3233.16 h 689.99 v 425.21 h -689.99 z"
         style="fill:none;stroke:#231f20;stroke-width:7.5075;stroke-linecap:round;stroke-linejoin:round;stroke-miterlimit:10;stroke-dasharray:none;stroke-opacity:1"
         id="path66" /><g
         id="g68"
         transform="scale(10)"><text
           transform="matrix(1,1e-8,-1e-8,-1,292.895,340.726)"
           style="font-variant:normal;font-weight:normal;font-size:12px;font-family:Calibri;-inkscape-font-specification:Calibri;writing-mode:lr-tb;fill:#231f20;fill-opacity:1;fill-rule:nonzero;stroke:none"
           id="text72"><tspan
             x="0 7.4789014 14.242184 20.222267"
             y="0"
             sodipodi:role="line"
             id="tspan70">DATA</tspan></text></g><path
         d="m 3915.55,3233.16 h 689.99 v 425.21 h -689.99 z"
         style="fill:none;stroke:#231f20;stroke-width:7.5075;stroke-linecap:round;stroke-linejoin:round;stroke-miterlimit:10;stroke-dasharray:none;stroke-opacity:1"
         id="path74" /><g
         id="g76"
         transform="scale(10)"><text
           transform="matrix(1,1e-8,-1e-8,-1,416.795,340.726)"
           style="font-variant:normal;font-weight:normal;font-size:12px;font-family:Calibri;-inkscape-font-specification:Calibri;writing-mode:lr-tb;fill:#231f20;fill-opacity:1;fill-rule:nonzero;stroke:none"
           id="text80"><tspan
             x="0 6.7640638 13.498053"
             y="0"
             sodipodi:role="line"
             id="tspan78">ACK</tspan></text></g><path
         d="m 570.652,3202.36 h 631.428 v 464.52 H 570.652 Z"
         style="fill:none;stroke:#231f20;stroke-width:10;stroke-linecap:round;stroke-linejoin:round;stroke-miterlimit:10;stroke-dasharray:none;stroke-opacity:1"
         id="path82" /><g
         id="g84"
         transform="scale(10)"><text
           transform="matrix(1,1e-8,-1e-8,-1,75.1254,337.836)"
           style="font-variant:normal;font-weight:bold;font-size:18.025px;font-family:Calibri;-inkscape-font-specification:Calibri-Bold;writing-mode:lr-tb;fill:#231f20;fill-opacity:1;fill-rule:nonzero;stroke:none"
           id="text88"><tspan
             x="0 8.9906263 18.370314"
             y="0"
             sodipodi:role="line"
             id="tspan86">EP0</tspan></text></g><path
         d="m 570.652,4746.96 h 631.428 v 464.52 H 570.652 Z"
         style="fill:none;stroke:#231f20;stroke-width:10;stroke-linecap:round;stroke-linejoin:round;stroke-miterlimit:10;stroke-dasharray:none;stroke-opacity:1"
         id="path90" /><g
         id="g92"
         transform="scale(10)"><text
           transform="matrix(1,1e-8,-1e-8,-1,75.1254,492.386)"
           style="font-variant:normal;font-weight:bold;font-size:18px;font-family:Calibri;-inkscape-font-specification:Calibri-Bold;writing-mode:lr-tb;fill:#231f20;fill-opacity:1;fill-rule:nonzero;stroke:none"
           id="text96"><tspan
             x="0 8.9960899 18.370308"
             y="0"
             sodipodi:role="line"
             id="tspan94">EP0</tspan></text></g><path
         d="m 1229.76,4998.96 h 272.39 v 44.09 l 110.2,-110.19 -110.2,-110.21 v 44.11 h -272.39 v 132.2"
         style="fill:#ffffff;fill-opacity:1;fill-rule:evenodd;stroke:none"
         id="path98" /><path
         d="m 1229.76,4998.96 h 272.39 v 44.09 l 110.2,-110.19 -110.2,-110.21 v 44.11 h -272.39"
         style="fill:none;stroke:#231f20;stroke-width:15;stroke-linecap:square;stroke-linejoin:miter;stroke-miterlimit:2;stroke-dasharray:none;stroke-opacity:1"
         id="path100" /><path
         d="m 1208.45,3504.66 h 329.21 v 44.1 l 110.2,-110.2 -110.2,-110.31 v 44.11 h -329.21 v 132.3"
         style="fill:#ffffff;fill-opacity:1;fill-rule:evenodd;stroke:none"
         id="path102" /><path
         d="m 1208.45,3504.66 h 329.21 v 44.1 l 110.2,-110.2 -110.2,-110.31 v 44.11 h -329.21"
         style="fill:none;stroke:#231f20;stroke-width:15;stroke-linecap:square;stroke-linejoin:miter;stroke-miterlimit:2;stroke-dasharray:none;stroke-opacity:1"
         id="path104" /><path
         d="m 2290.16,4975.66 h 425.2"
         style="fill:none;stroke:#231f20;stroke-width:22.5;stroke-linecap:round;stroke-linejoin:round;stroke-miterlimit:2;stroke-dasharray:none;stroke-opacity:1"
         id="path106" /><path
         d="m 2290.16,3445.86 425.2,-0.11"
         style="fill:none;stroke:#231f20;stroke-width:22.5;stroke-linecap:round;stroke-linejoin:round;stroke-miterlimit:2;stroke-dasharray:none;stroke-opacity:1"
         id="path108" /><path
         d="m 3405.36,3445.75 h 510.19"
         style="fill:none;stroke:#231f20;stroke-width:22.5;stroke-linecap:round;stroke-linejoin:round;stroke-miterlimit:2;stroke-dasharray:none;stroke-opacity:1"
         id="path110" /><path
         d="m 3405.36,4975.66 h 491.2"
         style="fill:none;stroke:#231f20;stroke-width:22.5;stroke-linecap:round;stroke-linejoin:round;stroke-miterlimit:2;stroke-dasharray:none;stroke-opacity:1"
         id="path112" /><g
         id="g114"
         transform="scale(10)"><text
           transform="matrix(1,1e-8,-1e-8,-1,176.476,520.726)"
           style="font-variant:normal;font-weight:normal;font-size:8.25px;font-family:Calibri;-inkscape-font-specification:Calibri;writing-mode:lr-tb;fill:#231f20;fill-opacity:1;fill-rule:nonzero;stroke:none"
           id="text122"><tspan
             x="0 4.4816408 8.2386675 11.24297 14.236725 16.048832 18.488676 22.242977 24.28985 28.772663 32.530869 36.257038 37.778904 41.52383"
             y="0"
             sodipodi:role="line"
             id="tspan116">host -&gt; device</tspan><tspan
             x="-1.13125 3.3519535 7.1089802 10.112892 13.106647 14.919927 17.368755 21.122665 23.16993 27.65196 31.410948 35.136726 36.658981 40.402737"
             y="152.97"
             sodipodi:role="line"
             id="tspan118">host -&gt; device</tspan><tspan
             x="107.78875 112.29695 116.07781 119.1071 122.12585 123.86882 126.31881 130.0731 132.1188 136.6028 140.35983 144.08678 145.60786 149.3528"
             y="152.72"
             sodipodi:role="line"
             id="tspan120">host -&gt; device</tspan></text><text
           transform="matrix(1,1e-8,-1e-8,-1,285.425,521.906)"
           style="font-variant:normal;font-weight:normal;font-size:8.275px;font-family:Calibri;-inkscape-font-specification:Calibri;writing-mode:lr-tb;fill:#231f20;fill-opacity:1;fill-rule:nonzero;stroke:none"
           id="text126"><tspan
             x="0 4.4890528 8.2421808 11.978891 13.489834 17.228905 20.982033 22.821102 25.271099 29.028133 31.071112 35.55899 39.310177 42.314865"
             y="0"
             sodipodi:role="line"
             id="tspan124">device -&gt; host</tspan></text><text
           transform="matrix(1,1e-8,-1e-8,-1,404.576,368.006)"
           style="font-variant:normal;font-weight:normal;font-size:8.25px;font-family:Calibri;-inkscape-font-specification:Calibri;writing-mode:lr-tb;fill:#231f20;fill-opacity:1;fill-rule:nonzero;stroke:none"
           id="text130"><tspan
             x="0 4.4828124 8.2410192 11.966796 13.488663 17.232807 20.991796 22.818747 25.268736 29.023037 31.068737 35.551941 39.307796 42.311722"
             y="0"
             sodipodi:role="line"
             id="tspan128">device -&gt; host</tspan></text><text
           transform="matrix(1,1e-8,-1e-8,-1,397.765,521.906)"
           style="font-variant:normal;font-weight:normal;font-size:8.275px;font-family:Calibri;-inkscape-font-specification:Calibri;writing-mode:lr-tb;fill:#231f20;fill-opacity:1;fill-rule:nonzero;stroke:none"
           id="text134"><tspan
             x="0 4.4882712 8.2390652 11.244145 14.239073 16.061323 18.500406 22.25705 24.311331 28.799212 32.552338 36.289074 37.800018 41.539062"
             y="0"
             sodipodi:role="line"
             id="tspan132">host -&gt; device</tspan></text></g><path
         d="m 1647.86,1733.36 h 623.61 v 425.21 h -623.61 z"
         style="fill:none;stroke:#231f20;stroke-width:7.5075;stroke-linecap:round;stroke-linejoin:round;stroke-miterlimit:2;stroke-dasharray:none;stroke-opacity:1"
         id="path136" /><g
         id="g138"
         transform="scale(10)"><text
           transform="matrix(1,1e-8,-1e-8,-1,190.896,190.656)"
           style="font-variant:normal;font-weight:normal;font-size:12.025px;font-family:Calibri;-inkscape-font-specification:Calibri;writing-mode:lr-tb;fill:#231f20;fill-opacity:1;fill-rule:nonzero;stroke:none"
           id="text142"><tspan
             x="0 3.0050802"
             y="0"
             sodipodi:role="line"
             id="tspan140">IN</tspan></text></g><path
         d="m 2484.06,1945.95 v 345.51"
         style="fill:none;stroke:#231f20;stroke-width:7.5075;stroke-linecap:round;stroke-linejoin:round;stroke-miterlimit:2;stroke-dasharray:none;stroke-opacity:1"
         id="path144" /><path
         d="m 2484.06,2340.55 32.39,-64.8 c -20.4,10.2 -44.39,10.2 -64.8,0 l 32.41,64.8"
         style="fill:#231f20;fill-opacity:1;fill-rule:evenodd;stroke:none"
         id="path146" /><path
         d="m 2696.65,1733.36 h 708.67 v 425.21 h -708.67 z"
         style="fill:none;stroke:#231f20;stroke-width:7.5075;stroke-linecap:round;stroke-linejoin:round;stroke-miterlimit:2;stroke-dasharray:none;stroke-opacity:1"
         id="path148" /><g
         id="g150"
         transform="scale(10)"><text
           transform="matrix(1,1e-8,-1e-8,-1,291.946,190.656)"
           style="font-variant:normal;font-weight:normal;font-size:12.025px;font-family:Calibri;-inkscape-font-specification:Calibri;writing-mode:lr-tb;fill:#231f20;fill-opacity:1;fill-rule:nonzero;stroke:none"
           id="text154"><tspan
             x="0 7.4820204 14.234755 20.216003"
             y="0"
             sodipodi:role="line"
             id="tspan152">DATA</tspan></text></g><path
         d="m 3915.55,1733.36 h 708.66 v 425.21 h -708.66 z"
         style="fill:none;stroke:#231f20;stroke-width:7.5075;stroke-linecap:round;stroke-linejoin:round;stroke-miterlimit:2;stroke-dasharray:none;stroke-opacity:1"
         id="path156" /><g
         id="g158"
         transform="scale(10)"><text
           transform="matrix(1,1e-8,-1e-8,-1,417.725,190.656)"
           style="font-variant:normal;font-weight:normal;font-size:12.025px;font-family:Calibri;-inkscape-font-specification:Calibri;writing-mode:lr-tb;fill:#231f20;fill-opacity:1;fill-rule:nonzero;stroke:none"
           id="text162"><tspan
             x="0 6.7531486 13.478148"
             y="0"
             sodipodi:role="line"
             id="tspan160">ACK</tspan></text></g><path
         d="m 1633.65,193.449 h 629.93 v 425.223 h -629.93 z"
         style="fill:none;stroke:#231f20;stroke-width:7.5075;stroke-linecap:round;stroke-linejoin:round;stroke-miterlimit:2;stroke-dasharray:none;stroke-opacity:1"
         id="path164" /><g
         id="g166"
         transform="scale(10)"><text
           transform="matrix(1,1e-8,-1e-8,-1,184.425,36.5559)"
           style="font-variant:normal;font-weight:normal;font-size:12.025px;font-family:Calibri;-inkscape-font-specification:Calibri;writing-mode:lr-tb;fill:#231f20;fill-opacity:1;fill-rule:nonzero;stroke:none"
           id="text170"><tspan
             x="0 8.2511749 15.785166"
             y="0"
             sodipodi:role="line"
             id="tspan168">OUT</tspan></text></g><path
         d="M 2476.16,406.051 V 790.762"
         style="fill:none;stroke:#231f20;stroke-width:7.5075;stroke-linecap:round;stroke-linejoin:round;stroke-miterlimit:2;stroke-dasharray:none;stroke-opacity:1"
         id="path172" /><path
         d="m 2476.16,839.75 32.39,-64.789 c -20.4,10.187 -44.4,10.187 -64.8,0 l 32.41,64.789"
         style="fill:#231f20;fill-opacity:1;fill-rule:evenodd;stroke:none"
         id="path174" /><path
         d="m 2688.75,193.449 h 716.54 v 425.223 h -716.54 z"
         style="fill:none;stroke:#231f20;stroke-width:7.5075;stroke-linecap:round;stroke-linejoin:round;stroke-miterlimit:2;stroke-dasharray:none;stroke-opacity:1"
         id="path176" /><g
         id="g178"
         transform="scale(10)"><text
           transform="matrix(1,1e-8,-1e-8,-1,291.545,36.5559)"
           style="font-variant:normal;font-weight:normal;font-size:12.025px;font-family:Calibri;-inkscape-font-specification:Calibri;writing-mode:lr-tb;fill:#231f20;fill-opacity:1;fill-rule:nonzero;stroke:none"
           id="text182"><tspan
             x="0 7.5070205 14.285145 20.288267"
             y="0"
             sodipodi:role="line"
             id="tspan180">DATA</tspan></text></g><path
         d="m 3915.55,193.449 h 737.01 v 425.223 h -737.01 z"
         style="fill:none;stroke:#231f20;stroke-width:7.5075;stroke-linecap:round;stroke-linejoin:round;stroke-miterlimit:2;stroke-dasharray:none;stroke-opacity:1"
         id="path184" /><g
         id="g186"
         transform="scale(10)"><text
           transform="matrix(1,1e-8,-1e-8,-1,419.145,36.5559)"
           style="font-variant:normal;font-weight:normal;font-size:12.025px;font-family:Calibri;-inkscape-font-specification:Calibri;writing-mode:lr-tb;fill:#231f20;fill-opacity:1;fill-rule:nonzero;stroke:none"
           id="text190"><tspan
             x="0 6.7531486 13.478148"
             y="0"
             sodipodi:role="line"
             id="tspan188">ACK</tspan></text></g><path
         d="m 428.953,1719.16 h 806.237 v 465.76 H 428.953 Z"
         style="fill:none;stroke:#231f20;stroke-width:10;stroke-linecap:round;stroke-linejoin:round;stroke-miterlimit:2;stroke-dasharray:none;stroke-opacity:1"
         id="path192" /><g
         id="g194"
         transform="scale(10)"><text
           transform="matrix(1,1e-8,-1e-8,-1,47.3754,189.456)"
           style="font-variant:normal;font-weight:bold;font-size:18.025px;font-family:Calibri;-inkscape-font-specification:Calibri-Bold;writing-mode:lr-tb;fill:#231f20;fill-opacity:1;fill-rule:nonzero;stroke:none"
           id="text198"><tspan
             x="0 8.9906263 18.370314 27.380083 31.569925 40.550007 44.620319 53.610554 62.989468"
             y="0"
             sodipodi:role="line"
             id="tspan196">EP1 – EP7</tspan></text></g><path
         d="M 376.754,181.66 H 1196.83 V 647.43 H 376.754 Z"
         style="fill:none;stroke:#231f20;stroke-width:10;stroke-linecap:round;stroke-linejoin:round;stroke-miterlimit:2;stroke-dasharray:none;stroke-opacity:1"
         id="path200" /><g
         id="g202"
         transform="scale(10)"><text
           transform="matrix(1,1e-8,-1e-8,-1,42.8254,35.6059)"
           style="font-variant:normal;font-weight:bold;font-size:18.025px;font-family:Calibri;-inkscape-font-specification:Calibri-Bold;writing-mode:lr-tb;fill:#231f20;fill-opacity:1;fill-rule:nonzero;stroke:none"
           id="text206"><tspan
             x="0 9.0085955 18.369923 27.39727 31.600002 40.550007 44.619926 53.628914 62.989468"
             y="0"
             sodipodi:role="line"
             id="tspan204">EP1 – EP7</tspan></text></g><path
         d="m 1239.65,2015.46 h 298.01 v 44.1 l 110.2,-110.2 -110.2,-110.2 v 44.09 h -298.01 v 132.21"
         style="fill:#ffffff;fill-opacity:1;fill-rule:evenodd;stroke:none"
         id="path208" /><path
         d="m 1239.65,2015.46 h 298.01 v 44.1 l 110.2,-110.2 -110.2,-110.2 v 44.09 h -298.01"
         style="fill:none;stroke:#231f20;stroke-width:15;stroke-linecap:square;stroke-linejoin:miter;stroke-miterlimit:2;stroke-dasharray:none;stroke-opacity:1"
         id="path210" /><path
         d="m 1219.85,459.059 h 292.3 v 44.089 l 110.2,-110.187 -110.2,-110.211 v 44.102 h -292.3 v 132.207"
         style="fill:#ffffff;fill-opacity:1;fill-rule:evenodd;stroke:none"
         id="path212" /><path
         d="m 1219.85,459.059 h 292.3 v 44.089 l 110.2,-110.187 -110.2,-110.211 v 44.102 h -292.3"
         style="fill:none;stroke:#231f20;stroke-width:15;stroke-linecap:square;stroke-linejoin:miter;stroke-miterlimit:2;stroke-dasharray:none;stroke-opacity:1"
         id="path214" /><path
         d="m 2271.45,1945.95 h 425.2"
         style="fill:none;stroke:#231f20;stroke-width:22.5;stroke-linecap:round;stroke-linejoin:round;stroke-miterlimit:2;stroke-dasharray:none;stroke-opacity:1"
         id="path216" /><path
         d="m 2263.55,406.051 h 425.2"
         style="fill:none;stroke:#231f20;stroke-width:22.5;stroke-linecap:round;stroke-linejoin:round;stroke-miterlimit:2;stroke-dasharray:none;stroke-opacity:1"
         id="path218" /><path
         d="m 3405.36,406.051 h 510.19"
         style="fill:none;stroke:#231f20;stroke-width:22.5;stroke-linecap:round;stroke-linejoin:round;stroke-miterlimit:2;stroke-dasharray:none;stroke-opacity:1"
         id="path220" /><path
         d="m 3405.36,1945.95 h 510.19"
         style="fill:none;stroke:#231f20;stroke-width:22.5;stroke-linecap:round;stroke-linejoin:round;stroke-miterlimit:2;stroke-dasharray:none;stroke-opacity:1"
         id="path222" /><g
         id="g224"
         transform="scale(10)"><text
           transform="matrix(1,1e-8,-1e-8,-1,175.345,218.656)"
           style="font-variant:normal;font-weight:normal;font-size:8.25px;font-family:Calibri;-inkscape-font-specification:Calibri;writing-mode:lr-tb;fill:#231f20;fill-opacity:1;fill-rule:nonzero;stroke:none"
           id="text234"><tspan
             x="0 4.4832034 8.2402306 11.244142 14.237897 16.051176 18.500006 22.253916 24.301178 28.783211 32.542198 36.267975 37.790234 41.533989"
             y="0"
             sodipodi:role="line"
             id="tspan226">host -&gt; device</tspan><tspan
             x="0 4.4832034 8.2402306 11.244142 14.237897 16.051176 18.500006 22.253916 24.301178 28.783211 32.542198 36.267975 37.790234 41.533989 113.48125 117.96406 121.71992 124.72421 127.71913 129.53008 131.96989 135.7242 137.77107 142.25389 146.01208 149.73827 151.26013 155.00388"
             y="154.869"
             sodipodi:role="line"
             id="tspan228">host -&gt; devicehost -&gt; device</tspan><tspan
             x="107.8 112.2832 116.04102 119.76797 121.28905 125.0332 128.79219 130.63008 133.08006 136.83397 138.8699 143.3539 147.11014 150.11327 232.65112 237.13394 240.89018 243.8941 246.88901 248.69995 251.15111 254.90501 256.94995 261.43393 265.19214 268.91791 270.44016 274.18393"
             y="0"
             sodipodi:role="line"
             id="tspan230">device -&gt; hosthost -&gt; device</tspan><tspan
             x="229.231 233.71381 237.47202 241.1978 242.71967 246.46381 250.22279 252.04974 254.49974 258.25403 260.29974 264.78293 268.53879 271.54272"
             y="154.38"
             sodipodi:role="line"
             id="tspan232">device -&gt; host</tspan></text></g><path
         d="M 939.156,3961.86 H 4397.46 v 507.47 H 939.156 Z"
         style="fill:none;stroke:#231f20;stroke-width:15;stroke-linecap:round;stroke-linejoin:round;stroke-miterlimit:2;stroke-dasharray:15, 30;stroke-dashoffset:0;stroke-opacity:1"
         id="path236" /><g
         id="g238"
         transform="scale(10)"><text
           transform="matrix(1,1e-8,-1e-8,-1,98.1453,432.176)"
           style="font-variant:normal;font-weight:normal;font-size:12px;font-family:Calibri;-inkscape-font-specification:Calibri;writing-mode:lr-tb;fill:#231f20;fill-opacity:1;fill-rule:nonzero;stroke:none"
           id="text242"><tspan
             x="0 6.7875023 14.667576 19.954685 24.462889 27.463669 31.25469 37.283596 43.290627 46.291798 51.557816 55.344532 60.602734 64.389839 67.390625 69.640625 74.897652 77.154686 82.412491 88.418739 92.210541 95.211716 99.002739 105.03086 108.06952 114.14959 117.14373 119.87967 123.63554 130.37265 136.34256 138.62381 145.36052 150.61678 155.10468 160.34882 163.32458 167.82654 173.79764 180.55858 184.31288 187.2906 191.01247 194.76482 201.48787 210.49765 213.47575 217.22968 223.96756 229.93787 232.21872 238.95599 244.9599 249.46069 253.94899 256.20599 261.4357 267.41187 273.41693 276.39389 282.3638 288.3927 292.88098 298.85168 302.62671 305.60364 311.80093 317.88104 322.36386 325.36581 329.91971 332.91385"
             y="0"
             sodipodi:role="line"
             id="tspan240">A!er the crsr is set to 1, the data sent from the host can enter e0rfr, </tspan></text><text
           transform="matrix(1,1e-8,-1e-8,-1,98.1453,417.786)"
           style="font-variant:normal;font-weight:normal;font-size:12.025px;font-family:Calibri;-inkscape-font-specification:Calibri;writing-mode:lr-tb;fill:#231f20;fill-opacity:1;fill-rule:nonzero;stroke:none"
           id="text246"><tspan
             x="0 6.000783 12.030082 18.059769 21.065626 24.853523 31.604698 37.611729 39.860554 46.611729 52.612511 58.641319 64.670715 69.926582 75.956657 81.956665 87.242599 93.250801 96.25666 102.28596 108.31564 114.31564 118.83868 124.8457 127.85352 136.13672 139.14891 142.16054 144.4156 147.42264 151.20583 157.21364 163.96364 166.97652 172.26247 174.51247 182.02261 188.05074 194.02965 197.02965 199.74957 205.75464 210.23863 216.2437 222.22768 226.72064 234.97963 237.9558 242.45461 248.43781 251.42062 255.185 261.1889 267.17288 270.15491 276.16077 282.14902 285.91309 291.88885 294.85995 303.11896 306.09549 309.07089 311.32599 314.29709 320.30295 326.2854"
             y="0"
             sodipodi:role="line"
             id="tspan244">and the handshake phase will reply ACK, otherwise the data will be </tspan></text><text
           transform="matrix(1,1e-8,-1e-8,-1,98.1453,403.356)"
           style="font-variant:normal;font-weight:normal;font-size:12px;font-family:Calibri;-inkscape-font-specification:Calibri;writing-mode:lr-tb;fill:#231f20;fill-opacity:1;fill-rule:nonzero;stroke:none"
           id="text250"><tspan
             x="0 6.0285158 9.0347672 15.794535 20.329689 26.335552 32.342583 38.37188 41.372662 47.400787 53.429691 57.940636 60.197666 66.957825 70.715637 72.972672 79.029701 85.1008 89.607826 92.633614 97.149628 100.14377 102.87072 108.84689 114.85178 120.85588 123.83282 127.58791 134.32463 140.29572 142.57657 149.3125 155.28868 161.29356 167.29883 172.52072 178.52383 184.51251 189.76367 195.7336 198.73476 204.73964 210.74452 216.7207 221.22266 227.19258 230.19374 238.45975 241.44217 244.42381 246.67381 249.64999 253.40196 259.37305 266.134 269.11523 274.36719 276.62421 284.85117 291.61328 298.23007"
             y="0"
             sodipodi:role="line"
             id="tspan248">blocked out of e0rfr, and the handshake phase will reply NAK.</tspan></text></g><path
         d="m 1137.55,2367.56 h 2669.41 v 520.87 H 1137.55 Z"
         style="fill:none;stroke:#231f20;stroke-width:15;stroke-linecap:round;stroke-linejoin:round;stroke-miterlimit:2;stroke-dasharray:15, 30;stroke-dashoffset:0;stroke-opacity:1"
         id="path252" /><g
         id="g254"
         transform="scale(10)"><text
           transform="matrix(1,1e-8,-1e-8,-1,118.025,273.306)"
           style="font-variant:normal;font-weight:normal;font-size:12px;font-family:Calibri;-inkscape-font-specification:Calibri;writing-mode:lr-tb;fill:#231f20;fill-opacity:1;fill-rule:nonzero;stroke:none"
           id="text262"><tspan
             x="0 8.2339907 14.237897 17.219931 22.471886 25.448839 30.705091 37.828915 43.800007 48.307819 51.285164 57.255085 61.780872 66.264076 71.539848 77.519928 83.530869 86.319931 91.585945 96.878136 103.63908 105.8961 111.90389 117.93202 124.69218 126.94998 133.52888 135.77888 138.76093 141.73709 143.98709 150.74803 153.00505 159.76598 165.04607 169.55818 174.84998 177.82614 181.582 188.34216 190.59879 196.60504 201.86285 209.26988 218.50113"
             y="0"
             sodipodi:role="line"
             id="tspan256">Only a!er exrs=0 can you ﬁll in data to ex#w;</tspan><tspan
             x="0 6.7640638 14.62109 19.883198 24.367182 27.344135 31.098827 37.103905 43.075001 46.076172 52.080078 58.055859 61.812115 67.787895 70.764854 73.014854 78.235947 80.492973 87.071884 89.321884 92.303917 98.275017 105.03595 107.29219 110.27383 117.26993 120.26407 122.9711 127.47189 133.4422 143.9422 149.94688 155.93204 158.18788 164.16406 170.16914 173.14491 179.116 184.37383 188.125 191.10194 199.36795 202.35037 205.33202 207.58202 210.55818 220.28905 225.54491 231.52811 237.49881 239.77887 244.267 250.2709 256.24161"
             y="14.4"
             sodipodi:role="line"
             id="tspan258">A!er the data is ﬁlled in, se$ng an exr will make the </tspan><tspan
             x="0 6.0050783 11.980862 17.985939 24.723049 29.223825 35.960155 41.217186 46.467972 52.437893 55.439064 61.444141 68.180862 74.169144 78.669922 84.641014 86.92186 91.405075 97.376167 103.40508 106.38711 111.63788 114.61482 121.37811 128.11287 134.31992 137.53984 141.17108 147.42108 153.39998 159.48982 162.49471 165.50114 168.5699 174.67107"
             y="28.8297"
             sodipodi:role="line"
             id="tspan260">handshake phase reply ACK;(X=1...7)</tspan></text></g><path
         d="M 854.156,839.75 H 4255.76 v 683.93 H 854.156 Z"
         style="fill:none;stroke:#231f20;stroke-width:15;stroke-linecap:round;stroke-linejoin:round;stroke-miterlimit:2;stroke-dasharray:15, 30;stroke-dashoffset:0;stroke-opacity:1"
         id="path264" /><g
         id="g266"
         transform="scale(10)"><text
           transform="matrix(1,1e-8,-1e-8,-1,89.6453,135.787)"
           style="font-variant:normal;font-weight:normal;font-size:12px;font-family:Calibri;-inkscape-font-specification:Calibri;writing-mode:lr-tb;fill:#231f20;fill-opacity:1;fill-rule:nonzero;stroke:none"
           id="text270"><tspan
             x="0 6.7632828 14.620701 19.882809 24.366793 27.343746 33.313667 38.571873 42.322655 45.29961 47.54961 52.771873 55.027733 60.249603 66.219521 69.999603 72.256638 76.743752 82.748833 86.250786 92.330872 95.348839 98.049622 101.80587 108.54259 114.5129 116.79375 123.53086 128.78673 133.27383 138.51875 141.49452 145.99689 151.9668 158.72852 162.48282 165.46054 171.46484 176.71678 179.69255 183.44881 190.18553 196.15584 198.43787 205.1738 211.17848 215.67966 220.16678 222.4238 227.65387 233.64255 239.647 242.62395 248.59465 254.62277 259.11066 264.37393 268.85678 271.83371 277.80481 283.06302 286.81302 290.53568 295.01965 297.27591 303.25168 309.25677 315.99271"
             y="0"
             sodipodi:role="line"
             id="tspan268">A!er exr is set to 1, the data sent by the host can enter exrfr and </tspan></text><text
           transform="matrix(1,1e-8,-1e-8,-1,89.6453,121.386)"
           style="font-variant:normal;font-weight:normal;font-size:12.025px;font-family:Calibri;-inkscape-font-specification:Calibri;writing-mode:lr-tb;fill:#231f20;fill-opacity:1;fill-rule:nonzero;stroke:none"
           id="text274"><tspan
             x="0 4.4812522 10.463672 16.481644 19.457817 24.719534 26.969534 34.456642 40.459766 47.187496 49.437496 52.41367 58.418751 61.389843 65.15274 71.8797 77.862503 80.124619 86.85157 92.117592 98.844543 104.84962 109.34885 116.07579 121.3418 127.32577 133.30858 135.57069 142.29684 148.3027 154.27847 158.7765 165.14955 168.14955 170.85072 176.85463 181.33978 187.34447 193.32767 197.82063 206.07962 209.05656 213.55577 219.5378 222.52179 226.28468 232.28975 238.27255 241.25577 247.26161 253.23778 257.00101 262.98889 265.96075 274.21973 277.19629 280.17206 282.42676 285.39706 291.40289 297.38531"
             y="0"
             sodipodi:role="line"
             id="tspan272">reply ACK in the handshake phase, otherwise the data will be </tspan></text><text
           transform="matrix(1,1e-8,-1e-8,-1,89.6453,106.957)"
           style="font-variant:normal;font-weight:normal;font-size:12px;font-family:Calibri;-inkscape-font-specification:Calibri;writing-mode:lr-tb;fill:#231f20;fill-opacity:1;fill-rule:nonzero;stroke:none"
           id="text280"><tspan
             x="0 6.0050783 8.987112 15.71055 20.220705 26.204693 32.174614 38.203522 41.180866 47.184772 53.188679 57.676575 59.933605 66.657822 70.3797 72.636734 78.607826 83.864861 88.348846 92.070724 96.250801 99.244942 101.96955 107.94572 113.95061 119.95588 122.93282 126.68752 133.42462 139.39572 141.67578 148.41289 154.38867 160.39307 166.39766 171.61954 177.62384 183.6008 188.85156 194.82188 197.82265 203.82753 209.83281 215.80859 220.30977 226.27969 229.28085 237.54764 240.52908 243.5117 245.7617 248.73801 252.48996 258.46066 265.22198 268.20285 273.4548 275.71182 283.93799 290.70087 297.31964"
             y="0"
             sodipodi:role="line"
             id="tspan276">blocked out of exrfr, and the handshake phase will reply NAK.</tspan><tspan
             x="0 3.6500015 9.8800831 15.850785 21.949617 24.954988 27.960556 31.049618 37.120716"
             y="14.4012"
             sodipodi:role="line"
             id="tspan278">(X=1...7)</tspan></text></g><path
         d="M 3.75391,3.76172 H 5191.16 V 5956.55 H 3.75391 Z"
         style="fill:none;stroke:#231f20;stroke-width:7.5075;stroke-linecap:round;stroke-linejoin:round;stroke-miterlimit:2;stroke-dasharray:none;stroke-opacity:1"
         id="path282" /></g></g></svg>
