<?xml version="1.0" encoding="UTF-8" standalone="no"?>
<svg
   xmlns:dc="http://purl.org/dc/elements/1.1/"
   xmlns:cc="http://creativecommons.org/ns#"
   xmlns:rdf="http://www.w3.org/1999/02/22-rdf-syntax-ns#"
   xmlns:svg="http://www.w3.org/2000/svg"
   xmlns="http://www.w3.org/2000/svg"
   xmlns:sodipodi="http://sodipodi.sourceforge.net/DTD/sodipodi-0.dtd"
   xmlns:inkscape="http://www.inkscape.org/namespaces/inkscape"
   version="1.1"
   id="svg2"
   xml:space="preserve"
   width="598.17334"
   height="454.94666"
   viewBox="0 0 598.17334 454.94666"
   sodipodi:docname="watchdog_alarm.svg"
   inkscape:version="1.0.1 (3bc2e813f5, 2020-09-07)"><metadata
     id="metadata8"><rdf:RDF><cc:Work
         rdf:about=""><dc:format>image/svg+xml</dc:format><dc:type
           rdf:resource="http://purl.org/dc/dcmitype/StillImage" /><dc:title></dc:title></cc:Work></rdf:RDF></metadata><defs
     id="defs6" /><sodipodi:namedview
     pagecolor="#ffffff"
     bordercolor="#666666"
     borderopacity="1"
     objecttolerance="10"
     gridtolerance="10"
     guidetolerance="10"
     inkscape:pageopacity="0"
     inkscape:pageshadow="2"
     inkscape:window-width="786"
     inkscape:window-height="480"
     id="namedview4"
     showgrid="false"
     inkscape:zoom="1.8389318"
     inkscape:cx="299.08667"
     inkscape:cy="401.48739"
     inkscape:window-x="0"
     inkscape:window-y="0"
     inkscape:window-maximized="0"
     inkscape:current-layer="g10" /><g
     id="g10"
     inkscape:groupmode="layer"
     inkscape:label="ink_ext_XXXXXX"
     transform="matrix(1.3333333,0,0,-1.3333333,0,454.94667)"><g
       id="g12"
       transform="scale(0.1)"><path
         d="m 1476.27,2840.88 568.04,241.17 -568.04,241.15 -568.051,-241.15 568.051,-241.17 v 0 0 z M 3.75391,3.76172 H 4482.49 V 3408.32 H 3.75391 V 3.76172 v 0 0 z"
         style="fill:none;stroke:#0e0f0e;stroke-width:7.51407;stroke-linecap:round;stroke-linejoin:round;stroke-miterlimit:10;stroke-dasharray:none;stroke-opacity:1"
         id="path14" /><path
         d="m 1476.27,1825.89 568.04,241.16 -568.04,241.15 -568.051,-241.15 568.051,-241.16 v 0 0 z"
         style="fill:none;stroke:#0e0f0e;stroke-width:7.51407;stroke-linecap:round;stroke-linejoin:round;stroke-miterlimit:10;stroke-dasharray:none;stroke-opacity:1"
         id="path16" /><path
         d="m 1476.27,1181.3 568.04,241.15 -568.04,241.16 -568.051,-241.16 568.051,-241.15 v 0 0 z"
         style="fill:none;stroke:#0e0f0e;stroke-width:7.51407;stroke-linecap:round;stroke-linejoin:round;stroke-miterlimit:10;stroke-dasharray:none;stroke-opacity:1"
         id="path18" /><path
         d="M 1476.27,2840.88 V 2357.75"
         style="fill:none;stroke:#0e0f0e;stroke-width:7.52228;stroke-linecap:round;stroke-linejoin:round;stroke-miterlimit:10;stroke-dasharray:none;stroke-opacity:1"
         id="path20" /><path
         d="m 1476.27,2308.21 -32.77,65.45 c 20.63,-10.3 44.91,-10.3 65.53,0 l -32.76,-65.45 v 0 0 0"
         style="fill:#0e0f0e;fill-opacity:1;fill-rule:evenodd;stroke:none"
         id="path22" /><path
         d="m 2093.91,2067.05 h 404.84 v -644.6"
         style="fill:none;stroke:#0e0f0e;stroke-width:7.51407;stroke-linecap:round;stroke-linejoin:round;stroke-miterlimit:10;stroke-dasharray:none;stroke-opacity:1"
         id="path24" /><path
         d="m 2044.31,1422.45 c 454.44,0 454.44,0 454.44,0"
         style="fill:none;stroke:#0e0f0e;stroke-width:7.5;stroke-linecap:round;stroke-linejoin:round;stroke-miterlimit:10;stroke-dasharray:none;stroke-opacity:1"
         id="path26" /><path
         d="m 2044.31,2067.05 65.53,32.73 c -10.31,-20.61 -10.31,-44.86 0,-65.46 l -65.53,32.73 v 0 0 0"
         style="fill:#0e0f0e;fill-opacity:1;fill-rule:evenodd;stroke:none"
         id="path28" /><path
         d="M 1476.27,1825.89 V 1713.16"
         style="fill:none;stroke:#0e0f0e;stroke-width:7.52228;stroke-linecap:round;stroke-linejoin:round;stroke-miterlimit:10;stroke-dasharray:none;stroke-opacity:1"
         id="path30" /><path
         d="m 1476.27,1663.61 -32.77,65.45 c 20.63,-10.3 44.91,-10.3 65.53,0 l -32.76,-65.45 v 0 0 0"
         style="fill:#0e0f0e;fill-opacity:1;fill-rule:evenodd;stroke:none"
         id="path32" /><path
         d="m 396.98,173.988 h 795.26 V 599.559 H 396.98 v -425.571 0 0 z"
         style="fill:none;stroke:#0e0f0e;stroke-width:7.51407;stroke-linecap:round;stroke-linejoin:round;stroke-miterlimit:10;stroke-dasharray:none;stroke-opacity:1"
         id="path34" /><path
         d="m 1817.09,173.988 h 795.27 v 425.571 h -795.27 v -425.571 0 0 z"
         style="fill:none;stroke:#0e0f0e;stroke-width:7.51407;stroke-linecap:round;stroke-linejoin:round;stroke-miterlimit:10;stroke-dasharray:none;stroke-opacity:1"
         id="path36" /><path
         d="M 1476.27,954.199 838.605,622.441"
         style="fill:none;stroke:#0e0f0e;stroke-width:7.51582;stroke-linecap:round;stroke-linejoin:round;stroke-miterlimit:10;stroke-dasharray:none;stroke-opacity:1"
         id="path38" /><path
         d="m 794.609,599.559 42.985,59.261 c 0.379,-23.031 11.594,-44.539 30.265,-58.058 l -73.25,-1.203 v 0 0 0"
         style="fill:#0e0f0e;fill-opacity:1;fill-rule:evenodd;stroke:none"
         id="path40" /><path
         d="M 1476.27,954.199 2170.02,621.031"
         style="fill:none;stroke:#0e0f0e;stroke-width:7.51561;stroke-linecap:round;stroke-linejoin:round;stroke-miterlimit:10;stroke-dasharray:none;stroke-opacity:1"
         id="path42" /><path
         d="m 2214.72,599.559 -73.25,-1.137 c 18.23,14.109 28.75,35.969 28.4,58.988 l 44.85,-57.851 v 0 0 0"
         style="fill:#0e0f0e;fill-opacity:1;fill-rule:evenodd;stroke:none"
         id="path44" /><path
         d="M 1476.27,1181.3 V 954.199"
         style="fill:none;stroke:#0e0f0e;stroke-width:7.52228;stroke-linecap:round;stroke-linejoin:round;stroke-miterlimit:10;stroke-dasharray:none;stroke-opacity:1"
         id="path46" /><g
         id="g48"
         transform="scale(10)"><text
           transform="matrix(1,0,0,-0.99891119,95.4844,87.643)"
           style="font-variant:normal;font-weight:normal;font-size:9.76917px;font-family:'Microsoft Sans Serif';-inkscape-font-specification:MicrosoftSansSerif;writing-mode:lr-tb;fill:#0e0f0e;fill-opacity:1;fill-rule:nonzero;stroke:none"
           id="text52"><tspan
             x="0 7.514154 10.523821 12.770893 18.421476 24.429283 30.132797 82.252869 89.765579 92.774368 95.023392 100.68111 106.68765 112.38296"
             y="0"
             sodipodi:role="line"
             id="tspan50">wrie==0wrie==1</tspan></text></g><path
         d="M 2093.91,3082.05 H 3862.05 V 1876.27 c 0.08,-1447.551 0.08,-1447.551 0.08,-1447.551"
         style="fill:none;stroke:#0e0f0e;stroke-width:7.5;stroke-linecap:round;stroke-linejoin:round;stroke-miterlimit:10;stroke-dasharray:none;stroke-opacity:1"
         id="path54" /><path
         d="m 2044.31,3082.05 65.53,32.72 c -10.31,-20.61 -10.31,-44.85 0,-65.46 l -65.53,32.74 v 0 0 0"
         style="fill:#0e0f0e;fill-opacity:1;fill-rule:evenodd;stroke:none"
         id="path56" /><path
         d="M 2612.36,428.719 H 3862.13"
         style="fill:none;stroke:#0e0f0e;stroke-width:7.51407;stroke-linecap:round;stroke-linejoin:round;stroke-miterlimit:10;stroke-dasharray:none;stroke-opacity:1"
         id="path58" /><g
         id="g60"
         transform="scale(10)"><text
           transform="matrix(1,0,0,-0.99891119,136.883,303.932)"
           style="font-variant:normal;font-weight:normal;font-size:9.76917px;font-family:'Microsoft Sans Serif';-inkscape-font-specification:MicrosoftSansSerif;writing-mode:lr-tb;fill:#0e0f0e;fill-opacity:1;fill-rule:nonzero;stroke:none"
           id="text84"><tspan
             x="0 3.173336 9.0654297 11.752442"
             y="0"
             sodipodi:role="line"
             id="tspan62">Idle</tspan><tspan
             x="17.999998 24.97509 30.867184 34.04052 37.213856 44.728008 50.62059 54.332989 60.225082 63.279282 69.171364 75.063934 80.956017 86.848099 89.53511"
             y="41.044689"
             sodipodi:role="line"
             id="tspan64">Software enable</tspan><tspan
             x="42.059395 45.771793 52.746883 59.721973 66.697067"
             y="53.724495"
             sodipodi:role="line"
             id="tspan66">(APB)</tspan><tspan
             x="-17.986685 -10.47253 -4.5804372 1.3121446 7.2042379 10.377574 16.270155 19.982065 23.036266 26.748663 32.640759 37.984509 43.87709"
             y="100.60794"
             sodipodi:role="line"
             id="tspan68">Counter reset</tspan><tspan
             x="-21.986679 -14.472526 -8.5804319 -2.6878505 3.2042427 6.3775787 12.270161 15.98207 19.03627 24.380022 30.272604 36.164696 42.056789"
             y="164.6777"
             sodipodi:role="line"
             id="tspan70">Counter count</tspan><tspan
             x="117.72644 124.70153 130.59361 133.76697 136.94031 144.45447 150.34703 154.05945 159.95152 163.00572 166.17906 169.89146 172.57799 178.47057 184.36264 190.25473"
             y="118.62756"
             sodipodi:role="line"
             id="tspan72">Software trigger</tspan><tspan
             x="141.67252 145.38492 152.36002 159.33511 166.3102"
             y="130.35052"
             sodipodi:role="line"
             id="tspan74">(APB)</tspan><tspan
             x="21.680866 29.195021 35.087112 40.979694 46.871788 50.045124 55.937706 59.649616 62.703815 66.416214 72.308296 78.200867 83.544601 89.436684 95.329254 100.67299 103.72668 109.61926 112.30578 118.19835 121.91076 130.50743 133.56161 138.90535 144.79744 147.48445 153.37701 159.26862"
             y="197.37041"
             sodipodi:role="line"
             id="tspan76">Counter reaches alarm value </tspan><tspan
             x="-92.184113 -89.010773 -83.118683 -79.945343 -74.052765 -70.340363 -66.62796 -60.735874 -54.843784 -51.670444 -48.616241 -42.724155 -40.037148 -34.145054 -30.432657 -21.835493"
             y="268.85522"
             sodipodi:role="line"
             id="tspan78">Interrupt alarm </tspan><tspan
             x="56.816124 64.330276 70.222359 75.566093 81.458664 84.632011 87.685707 93.578278 96.264801 102.15737 105.86978 114.46645"
             y="267.85413"
             sodipodi:role="line"
             id="tspan80">Reset alarm </tspan><tspan
             x="130.01411 136.98921 140.16257 146.05464 149.228 155.12056 160.46429 163.51799 167.23041 173.12297 178.46671 184.3588 188.0712 193.96329 199.85585 205.74792 208.80212 211.48914 217.38121 220.43541 227.94955 231.12291"
             y="274.79764"
             sodipodi:role="line"
             id="tspan82">Status recorded in wts</tspan></text></g></g></g></svg>
